<svg xmlns="http://www.w3.org/2000/svg" xmlns:xlink="http://www.w3.org/1999/xlink" contentStyleType="text/css" height="387px" preserveAspectRatio="none" style="width:664px;height:387px;background:#FFFFFF;" version="1.1" viewBox="0 0 664 387" width="664.8px" zoomAndPan="magnify"><title>List of Agents Grouped by Store and Sorted Alphabetically</title><defs/><g><text fill="#000000" font-family="sans-serif" font-size="8.4" font-weight="bold" lengthAdjust="spacing" textLength="252.0984" x="207.4329" y="17.1211">List of Agents Grouped by Store and Sorted Alphabetically</text><rect fill="#FFFFFF" height="255.8086" style="stroke:#181818;stroke-width:0.6;" width="6" x="37.6723" y="77.3859"/><rect fill="#FFFFFF" height="237.6223" style="stroke:#181818;stroke-width:0.6;" width="6" x="178.3837" y="90.1723"/><rect fill="#FFFFFF" height="202.4496" style="stroke:#181818;stroke-width:0.6;" width="6" x="277.7168" y="107.7586"/><rect fill="#FFFFFF" height="17.5863" style="stroke:#181818;stroke-width:0.6;" width="6" x="376.1947" y="125.3449"/><rect fill="#FFFFFF" height="172.677" style="stroke:#181818;stroke-width:0.6;" width="6" x="442.7563" y="160.5176"/><rect fill="#FFFFFF" height="24.7863" style="stroke:#181818;stroke-width:0.6;" width="6" x="445.7563" y="267.8355"/><rect fill="#FFFFFF" height="17.5863" style="stroke:#181818;stroke-width:0.6;" width="6" x="563.9628" y="192.6902"/><rect fill="#FFFFFF" height="17.5863" style="stroke:#181818;stroke-width:0.6;" width="6" x="619.2636" y="227.8629"/><rect fill="none" height="106.118" style="stroke:#000000;stroke-width:0.8999999999999999;" width="257.6698" x="403.8943" y="169.5176"/><line style="stroke:#181818;stroke-width:0.3;stroke-dasharray:5.0,5.0;" x1="40.2" x2="40.2" y1="71.3859" y2="338.5945"/><line style="stroke:#181818;stroke-width:0.3;stroke-dasharray:5.0,5.0;" x1="180.9732" x2="180.9732" y1="71.3859" y2="338.5945"/><line style="stroke:#181818;stroke-width:0.3;stroke-dasharray:5.0,5.0;" x1="280.1941" x2="280.1941" y1="71.3859" y2="338.5945"/><line style="stroke:#181818;stroke-width:0.3;stroke-dasharray:5.0,5.0;" x1="379.0951" x2="379.0951" y1="71.3859" y2="338.5945"/><line style="stroke:#181818;stroke-width:0.3;stroke-dasharray:5.0,5.0;" x1="445.2943" x2="445.2943" y1="71.3859" y2="338.5945"/><line style="stroke:#181818;stroke-width:0.3;stroke-dasharray:5.0,5.0;" x1="566.5626" x2="566.5626" y1="71.3859" y2="338.5945"/><line style="stroke:#181818;stroke-width:0.3;stroke-dasharray:5.0,5.0;" x1="621.963" x2="621.963" y1="71.3859" y2="338.5945"/><text fill="#000000" font-family="sans-serif" font-size="8.4" lengthAdjust="spacing" textLength="71.7445" x="3" y="69.6141">Network Manager</text><ellipse cx="40.6723" cy="30.593" fill="#E2E2F0" rx="4.8" ry="4.8" style="stroke:#181818;stroke-width:0.3;"/><path d="M40.6723,35.393 L40.6723,51.593 M32.8723,40.193 L48.4723,40.193 M40.6723,51.593 L32.8723,60.593 M40.6723,51.593 L48.4723,60.593 " fill="none" style="stroke:#181818;stroke-width:0.3;"/><text fill="#000000" font-family="sans-serif" font-size="8.4" lengthAdjust="spacing" textLength="71.7445" x="3" y="346.1156">Network Manager</text><ellipse cx="40.6723" cy="352.9875" fill="#E2E2F0" rx="4.8" ry="4.8" style="stroke:#181818;stroke-width:0.3;"/><path d="M40.6723,357.7875 L40.6723,373.9875 M32.8723,362.5875 L48.4723,362.5875 M40.6723,373.9875 L32.8723,382.9875 M40.6723,373.9875 L48.4723,382.9875 " fill="none" style="stroke:#181818;stroke-width:0.3;"/><rect fill="#E2E2F0" height="18.293" rx="1.5" ry="1.5" style="stroke:#181818;stroke-width:0.3;" width="82.4209" x="140.1732" y="52.493"/><text fill="#000000" font-family="sans-serif" font-size="8.4" lengthAdjust="spacing" textLength="74.0209" x="144.3732" y="64.8141">:GetAgentListView</text><rect fill="#E2E2F0" height="18.293" rx="1.5" ry="1.5" style="stroke:#181818;stroke-width:0.3;" width="82.4209" x="140.1732" y="337.9945"/><text fill="#000000" font-family="sans-serif" font-size="8.4" lengthAdjust="spacing" textLength="74.0209" x="144.3732" y="350.3156">:GetAgentListView</text><rect fill="#E2E2F0" height="18.293" rx="1.5" ry="1.5" style="stroke:#181818;stroke-width:0.3;" width="104.2453" x="228.5941" y="52.493"/><text fill="#000000" font-family="sans-serif" font-size="8.4" lengthAdjust="spacing" textLength="95.8453" x="232.7941" y="64.8141">:GetAgentListController</text><rect fill="#E2E2F0" height="18.293" rx="1.5" ry="1.5" style="stroke:#181818;stroke-width:0.3;" width="104.2453" x="228.5941" y="337.9945"/><text fill="#000000" font-family="sans-serif" font-size="8.4" lengthAdjust="spacing" textLength="95.8453" x="232.7941" y="350.3156">:GetAgentListController</text><rect fill="#E2E2F0" height="18.293" rx="1.5" ry="1.5" style="stroke:#181818;stroke-width:0.3;" width="49.3992" x="354.4951" y="52.493"/><text fill="#000000" font-family="sans-serif" font-size="8.4" lengthAdjust="spacing" textLength="40.9992" x="358.6951" y="64.8141">:Company</text><rect fill="#E2E2F0" height="18.293" rx="1.5" ry="1.5" style="stroke:#181818;stroke-width:0.3;" width="49.3992" x="354.4951" y="337.9945"/><text fill="#000000" font-family="sans-serif" font-size="8.4" lengthAdjust="spacing" textLength="40.9992" x="358.6951" y="350.3156">:Company</text><rect fill="#E2E2F0" height="18.293" rx="1.5" ry="1.5" style="stroke:#181818;stroke-width:0.3;" width="71.724" x="409.8943" y="52.493"/><text fill="#000000" font-family="sans-serif" font-size="8.4" lengthAdjust="spacing" textLength="63.324" x="414.0943" y="64.8141">:StoreContainer</text><rect fill="#E2E2F0" height="18.293" rx="1.5" ry="1.5" style="stroke:#181818;stroke-width:0.3;" width="71.724" x="409.8943" y="337.9945"/><text fill="#000000" font-family="sans-serif" font-size="8.4" lengthAdjust="spacing" textLength="63.324" x="414.0943" y="350.3156">:StoreContainer</text><rect fill="#E2E2F0" height="18.293" rx="1.5" ry="1.5" style="stroke:#181818;stroke-width:0.3;" width="32.0004" x="550.9626" y="52.493"/><text fill="#000000" font-family="sans-serif" font-size="8.4" lengthAdjust="spacing" textLength="23.6004" x="555.1626" y="64.8141">:Store</text><rect fill="#E2E2F0" height="18.293" rx="1.5" ry="1.5" style="stroke:#181818;stroke-width:0.3;" width="32.0004" x="550.9626" y="337.9945"/><text fill="#000000" font-family="sans-serif" font-size="8.4" lengthAdjust="spacing" textLength="23.6004" x="555.1626" y="350.3156">:Store</text><rect fill="#E2E2F0" height="18.293" rx="1.5" ry="1.5" style="stroke:#181818;stroke-width:0.3;" width="66.6012" x="588.963" y="52.493"/><text fill="#000000" font-family="sans-serif" font-size="8.4" lengthAdjust="spacing" textLength="58.2012" x="593.163" y="64.8141">agents:Agents</text><rect fill="#E2E2F0" height="18.293" rx="1.5" ry="1.5" style="stroke:#181818;stroke-width:0.3;" width="66.6012" x="588.963" y="337.9945"/><text fill="#000000" font-family="sans-serif" font-size="8.4" lengthAdjust="spacing" textLength="58.2012" x="593.163" y="350.3156">agents:Agents</text><rect fill="#FFFFFF" height="255.8086" style="stroke:#181818;stroke-width:0.6;" width="6" x="37.6723" y="77.3859"/><rect fill="#FFFFFF" height="237.6223" style="stroke:#181818;stroke-width:0.6;" width="6" x="178.3837" y="90.1723"/><rect fill="#FFFFFF" height="202.4496" style="stroke:#181818;stroke-width:0.6;" width="6" x="277.7168" y="107.7586"/><rect fill="#FFFFFF" height="17.5863" style="stroke:#181818;stroke-width:0.6;" width="6" x="376.1947" y="125.3449"/><rect fill="#FFFFFF" height="172.677" style="stroke:#181818;stroke-width:0.6;" width="6" x="442.7563" y="160.5176"/><rect fill="#FFFFFF" height="24.7863" style="stroke:#181818;stroke-width:0.6;" width="6" x="445.7563" y="267.8355"/><rect fill="#FFFFFF" height="17.5863" style="stroke:#181818;stroke-width:0.6;" width="6" x="563.9628" y="192.6902"/><rect fill="#FFFFFF" height="17.5863" style="stroke:#181818;stroke-width:0.6;" width="6" x="619.2636" y="227.8629"/><polygon fill="#181818" points="171.1837,87.7723,177.1837,90.1723,171.1837,92.5723,173.5837,90.1723" style="stroke:#181818;stroke-width:0.6;"/><line style="stroke:#181818;stroke-width:0.6;" x1="43.6723" x2="174.7837" y1="90.1723" y2="90.1723"/><text fill="#000000" font-family="sans-serif" font-size="7.8" font-weight="bold" lengthAdjust="spacing" textLength="5.1454" x="47.8723" y="87.327">1</text><text fill="#000000" font-family="sans-serif" font-size="7.8" lengthAdjust="spacing" textLength="115.766" x="55.4177" y="87.327">requests to get a list of agents</text><polygon fill="#181818" points="270.5168,105.3586,276.5168,107.7586,270.5168,110.1586,272.9168,107.7586" style="stroke:#181818;stroke-width:0.6;"/><line style="stroke:#181818;stroke-width:0.6;" x1="184.3837" x2="274.1168" y1="107.7586" y2="107.7586"/><text fill="#000000" font-family="sans-serif" font-size="7.8" font-weight="bold" lengthAdjust="spacing" textLength="5.1454" x="188.5837" y="104.9133">2</text><text fill="#000000" font-family="sans-serif" font-size="7.8" lengthAdjust="spacing" textLength="42.801" x="196.1291" y="104.9133">listAgents()</text><polygon fill="#181818" points="368.9947,122.9449,374.9947,125.3449,368.9947,127.7449,371.3947,125.3449" style="stroke:#181818;stroke-width:0.6;"/><line style="stroke:#181818;stroke-width:0.6;" x1="283.7168" x2="372.5947" y1="125.3449" y2="125.3449"/><text fill="#000000" font-family="sans-serif" font-size="7.8" font-weight="bold" lengthAdjust="spacing" textLength="5.1454" x="287.9168" y="122.4996">3</text><text fill="#000000" font-family="sans-serif" font-size="7.8" lengthAdjust="spacing" textLength="73.5325" x="295.4622" y="122.4996">getStoreContainer()</text><polygon fill="#181818" points="290.3168,140.5313,284.3168,142.9313,290.3168,145.3312,287.9168,142.9313" style="stroke:#181818;stroke-width:0.6;"/><line style="stroke:#181818;stroke-width:0.6;stroke-dasharray:2.0,2.0;" x1="286.7168" x2="378.5947" y1="142.9313" y2="142.9313"/><text fill="#000000" font-family="sans-serif" font-size="7.8" font-weight="bold" lengthAdjust="spacing" textLength="5.1454" x="293.9168" y="140.0859">4</text><text fill="#000000" font-family="sans-serif" font-size="7.8" lengthAdjust="spacing" textLength="35.4847" x="301.4622" y="140.0859">container</text><polygon fill="#181818" points="435.5563,158.1176,441.5563,160.5176,435.5563,162.9176,437.9563,160.5176" style="stroke:#181818;stroke-width:0.6;"/><line style="stroke:#181818;stroke-width:0.6;" x1="283.7168" x2="439.1563" y1="160.5176" y2="160.5176"/><text fill="#000000" font-family="sans-serif" font-size="7.8" font-weight="bold" lengthAdjust="spacing" textLength="5.1454" x="287.9168" y="157.6723">5</text><text fill="#000000" font-family="sans-serif" font-size="7.8" lengthAdjust="spacing" textLength="77.2116" x="295.4622" y="157.6723">getSortedAgentList()</text><path d="M403.8943,169.5176 L448.5624,169.5176 L448.5624,173.9039 L442.5624,179.9039 L403.8943,179.9039 L403.8943,169.5176 " fill="#EEEEEE" style="stroke:#000000;stroke-width:0.8999999999999999;"/><rect fill="none" height="106.118" style="stroke:#000000;stroke-width:0.8999999999999999;" width="257.6698" x="403.8943" y="169.5176"/><text fill="#000000" font-family="sans-serif" font-size="7.8" font-weight="bold" lengthAdjust="spacing" textLength="17.6681" x="412.8943" y="177.6586">loop</text><text fill="#000000" font-family="sans-serif" font-size="6.6" font-weight="bold" lengthAdjust="spacing" textLength="121.3008" x="457.5624" y="177.0984">[for each 'Store' in 'store container']</text><polygon fill="#181818" points="556.7628,190.2902,562.7628,192.6902,556.7628,195.0902,559.1628,192.6902" style="stroke:#181818;stroke-width:0.6;"/><line style="stroke:#181818;stroke-width:0.6;" x1="448.7563" x2="560.3628" y1="192.6902" y2="192.6902"/><text fill="#000000" font-family="sans-serif" font-size="7.8" font-weight="bold" lengthAdjust="spacing" textLength="5.1454" x="452.9563" y="189.8449">6</text><text fill="#000000" font-family="sans-serif" font-size="7.8" lengthAdjust="spacing" textLength="43.5246" x="460.5018" y="189.8449">getAgents()</text><polygon fill="#181818" points="455.3563,207.8766,449.3563,210.2766,455.3563,212.6766,452.9563,210.2766" style="stroke:#181818;stroke-width:0.6;"/><line style="stroke:#181818;stroke-width:0.6;stroke-dasharray:2.0,2.0;" x1="451.7563" x2="566.3628" y1="210.2766" y2="210.2766"/><text fill="#000000" font-family="sans-serif" font-size="7.8" font-weight="bold" lengthAdjust="spacing" textLength="5.1454" x="458.9563" y="207.4313">7</text><text fill="#000000" font-family="sans-serif" font-size="7.8" lengthAdjust="spacing" textLength="25.251" x="466.5018" y="207.4313">agents</text><polygon fill="#181818" points="612.0636,225.4629,618.0636,227.8629,612.0636,230.2629,614.4636,227.8629" style="stroke:#181818;stroke-width:0.6;"/><line style="stroke:#181818;stroke-width:0.6;" x1="448.7563" x2="615.6636" y1="227.8629" y2="227.8629"/><text fill="#000000" font-family="sans-serif" font-size="7.8" font-weight="bold" lengthAdjust="spacing" textLength="5.1454" x="452.9563" y="225.0176">8</text><text fill="#000000" font-family="sans-serif" font-size="7.8" lengthAdjust="spacing" textLength="67.8806" x="460.5018" y="225.0176">getSortedAgents()</text><polygon fill="#181818" points="455.3563,243.0492,449.3563,245.4492,455.3563,247.8492,452.9563,245.4492" style="stroke:#181818;stroke-width:0.6;"/><line style="stroke:#181818;stroke-width:0.6;stroke-dasharray:2.0,2.0;" x1="451.7563" x2="621.6636" y1="245.4492" y2="245.4492"/><text fill="#000000" font-family="sans-serif" font-size="7.8" font-weight="bold" lengthAdjust="spacing" textLength="5.1454" x="458.9563" y="242.6039">9</text><text fill="#000000" font-family="sans-serif" font-size="7.8" lengthAdjust="spacing" textLength="37.4385" x="466.5018" y="242.6039">sortedList</text><line style="stroke:#181818;stroke-width:0.6;" x1="448.7563" x2="476.9563" y1="260.0355" y2="260.0355"/><line style="stroke:#181818;stroke-width:0.6;" x1="476.9563" x2="476.9563" y1="260.0355" y2="267.8355"/><line style="stroke:#181818;stroke-width:0.6;" x1="452.3563" x2="476.9563" y1="267.8355" y2="267.8355"/><polygon fill="#181818" points="458.3563,265.4355,452.3563,267.8355,458.3563,270.2355,455.9563,267.8355" style="stroke:#181818;stroke-width:0.6;"/><text fill="#000000" font-family="sans-serif" font-size="7.8" font-weight="bold" lengthAdjust="spacing" textLength="10.2908" x="455.9563" y="257.1902">10</text><text fill="#000000" font-family="sans-serif" font-size="7.8" lengthAdjust="spacing" textLength="88.1156" x="468.6472" y="257.1902">concatenate(sortedList)</text><polygon fill="#181818" points="290.3168,290.2219,284.3168,292.6219,290.3168,295.0219,287.9168,292.6219" style="stroke:#181818;stroke-width:0.6;"/><line style="stroke:#181818;stroke-width:0.6;stroke-dasharray:2.0,2.0;" x1="286.7168" x2="442.1563" y1="292.6219" y2="292.6219"/><text fill="#000000" font-family="sans-serif" font-size="7.8" font-weight="bold" lengthAdjust="spacing" textLength="10.2908" x="293.9168" y="289.7766">11</text><text fill="#000000" font-family="sans-serif" font-size="7.8" lengthAdjust="spacing" textLength="11.4029" x="306.6076" y="289.7766">list</text><polygon fill="#181818" points="190.9837,307.8082,184.9837,310.2082,190.9837,312.6082,188.5837,310.2082" style="stroke:#181818;stroke-width:0.6;"/><line style="stroke:#181818;stroke-width:0.6;stroke-dasharray:2.0,2.0;" x1="187.3837" x2="280.1168" y1="310.2082" y2="310.2082"/><text fill="#000000" font-family="sans-serif" font-size="7.8" font-weight="bold" lengthAdjust="spacing" textLength="10.2908" x="194.5837" y="307.3629">12</text><text fill="#000000" font-family="sans-serif" font-size="7.8" lengthAdjust="spacing" textLength="11.4029" x="207.2745" y="307.3629">list</text><polygon fill="#181818" points="50.2723,325.3945,44.2723,327.7945,50.2723,330.1945,47.8723,327.7945" style="stroke:#181818;stroke-width:0.6;"/><line style="stroke:#181818;stroke-width:0.6;stroke-dasharray:2.0,2.0;" x1="46.6723" x2="180.7837" y1="327.7945" y2="327.7945"/><text fill="#000000" font-family="sans-serif" font-size="7.8" font-weight="bold" lengthAdjust="spacing" textLength="10.2908" x="53.8723" y="324.9492">13</text><text fill="#000000" font-family="sans-serif" font-size="7.8" lengthAdjust="spacing" textLength="107.4633" x="66.5631" y="324.9492">shows list of agents ordered</text><!--SRC=[VLB1Ri8m3BtdAomkXKD_e0San87BjWlQxg4r9Lf8Ik8EyVTpdDBIQjgXgXC_l_WzcmnPX3SJ2VmPTYqwYd08lk-mWTC3ZkG3WdOD77qWljlPxg9FIARMrZwKqZrvNPFvqOJWdPnTVprXu5pDrR3wGBhxy0tlskaMmmfqXC_8W4u7vZ6TTWIhwe0axwTclWpU1PU2Vt1xxoXuQmVMwRYesVihHuy19F428K9JlJRkXKrEVq458T4ygyN2AZife1oA6zabqQvK-fNR9B22WBSU8rjF7beaq627aMG-bM3bTj9N2I1JhpTgIa2vVIgi4jLSbq0b2QK09xvwLBia6-updMp1w3_pMUyxEFESKTSNAEIz0eo38ihkZBo56gaIhm2h5YSHUTVA-Pk3_bbfhbZsaoY61LvmH06bVkSyBn3kikRPEFxM4toZa3S_ANmjN1XddxnFppYVfogP5CfTcZVtSl7tk9Wk-D1Wm8QNuXS0]--></g></svg>