<svg xmlns="http://www.w3.org/2000/svg" xmlns:xlink="http://www.w3.org/1999/xlink" contentStyleType="text/css" height="532px" preserveAspectRatio="none" style="width:1175px;height:532px;background:#FFFFFF;" version="1.1" viewBox="0 0 1175 532" width="1175px" zoomAndPan="magnify"><defs/><g><rect fill="#FFFFFF" height="436.8125" style="stroke:#181818;stroke-width:1.0;" width="10" x="71.0273" y="48.6211"/><rect fill="#FFFFFF" height="367.2305" style="stroke:#181818;stroke-width:1.0;" width="10" x="190.0127" y="71.9121"/><rect fill="#FFFFFF" height="345.9395" style="stroke:#181818;stroke-width:1.0;" width="10" x="368.8003" y="139.4941"/><rect fill="#FFFFFF" height="74.9121" style="stroke:#181818;stroke-width:1.0;" width="10" x="568.2822" y="216.7363"/><rect fill="none" height="102.2031" style="stroke:#000000;stroke-width:1.5;" width="833.7944" x="255" y="306.6484"/><line style="stroke:#181818;stroke-width:0.5;stroke-dasharray:5.0,5.0;" x1="76" x2="76" y1="38.6211" y2="494.4336"/><line style="stroke:#181818;stroke-width:0.5;stroke-dasharray:5.0,5.0;" x1="194.0542" x2="194.0542" y1="38.6211" y2="494.4336"/><line style="stroke:#181818;stroke-width:0.5;stroke-dasharray:5.0,5.0;" x1="373.0317" x2="373.0317" y1="138.0137" y2="494.4336"/><line style="stroke:#181818;stroke-width:0.5;stroke-dasharray:5.0,5.0;" x1="572.5688" x2="572.5688" y1="181.6348" y2="494.4336"/><line style="stroke:#181818;stroke-width:0.5;stroke-dasharray:5.0,5.0;" x1="760.9956" x2="760.9956" y1="256.5469" y2="494.4336"/><line style="stroke:#181818;stroke-width:0.5;stroke-dasharray:5.0,5.0;" x1="966.7397" x2="966.7397" y1="357.75" y2="494.4336"/><line style="stroke:#181818;stroke-width:0.5;stroke-dasharray:5.0,5.0;" x1="1124.7944" x2="1124.7944" y1="38.6211" y2="494.4336"/><rect fill="#E2E2F0" height="32.6211" rx="2.5" ry="2.5" style="stroke:#181818;stroke-width:0.5;" width="112.0547" x="20" y="5"/><text fill="#000000" font-family="sans-serif" font-size="14" lengthAdjust="spacing" textLength="98.0547" x="27" y="27.1074">{XXX}Controller</text><rect fill="#E2E2F0" height="32.6211" rx="2.5" ry="2.5" style="stroke:#181818;stroke-width:0.5;" width="112.0547" x="20" y="493.4336"/><text fill="#000000" font-family="sans-serif" font-size="14" lengthAdjust="spacing" textLength="98.0547" x="27" y="515.541">{XXX}Controller</text><rect fill="#E2E2F0" height="32.6211" rx="2.5" ry="2.5" style="stroke:#181818;stroke-width:0.5;" width="73.917" x="158.0542" y="5"/><text fill="#000000" font-family="sans-serif" font-size="14" lengthAdjust="spacing" textLength="59.917" x="165.0542" y="27.1074">Company</text><rect fill="#E2E2F0" height="32.6211" rx="2.5" ry="2.5" style="stroke:#181818;stroke-width:0.5;" width="73.917" x="158.0542" y="493.4336"/><text fill="#000000" font-family="sans-serif" font-size="14" lengthAdjust="spacing" textLength="59.917" x="165.0542" y="515.541">Company</text><rect fill="#E2E2F0" height="32.6211" rx="2.5" ry="2.5" style="stroke:#181818;stroke-width:0.5;" width="187.5371" x="280.0317" y="493.4336"/><text fill="#000000" font-family="sans-serif" font-size="14" lengthAdjust="spacing" textLength="173.5371" x="287.0317" y="515.541">companyInstance:Company</text><rect fill="#E2E2F0" height="32.6211" rx="2.5" ry="2.5" style="stroke:#181818;stroke-width:0.5;" width="191.4268" x="477.5688" y="493.4336"/><text fill="#000000" font-family="sans-serif" font-size="14" lengthAdjust="spacing" textLength="177.4268" x="484.5688" y="515.541">cfgReader:ConfigFileReader</text><rect fill="#E2E2F0" height="32.6211" rx="2.5" ry="2.5" style="stroke:#181818;stroke-width:0.5;" width="165.7441" x="678.9956" y="493.4336"/><text fill="#000000" font-family="sans-serif" font-size="14" lengthAdjust="spacing" textLength="151.7441" x="685.9956" y="515.541">cfgOptions:ConfigObject</text><rect fill="#E2E2F0" height="32.6211" rx="2.5" ry="2.5" style="stroke:#181818;stroke-width:0.5;" width="224.0547" x="854.7397" y="493.4336"/><text fill="#000000" font-family="sans-serif" font-size="14" lengthAdjust="spacing" textLength="210.0547" x="861.7397" y="515.541">factory:MemoryRepositoryFactory</text><rect fill="#E2E2F0" height="32.6211" rx="2.5" ry="2.5" style="stroke:#181818;stroke-width:0.5;" width="73.124" x="1088.7944" y="5"/><text fill="#000000" font-family="sans-serif" font-size="14" lengthAdjust="spacing" textLength="59.124" x="1095.7944" y="27.1074">PERSON</text><rect fill="#E2E2F0" height="32.6211" rx="2.5" ry="2.5" style="stroke:#181818;stroke-width:0.5;" width="73.124" x="1088.7944" y="493.4336"/><text fill="#000000" font-family="sans-serif" font-size="14" lengthAdjust="spacing" textLength="59.124" x="1095.7944" y="515.541">PERSON</text><rect fill="#FFFFFF" height="436.8125" style="stroke:#181818;stroke-width:1.0;" width="10" x="71.0273" y="48.6211"/><rect fill="#FFFFFF" height="367.2305" style="stroke:#181818;stroke-width:1.0;" width="10" x="190.0127" y="71.9121"/><rect fill="#FFFFFF" height="345.9395" style="stroke:#181818;stroke-width:1.0;" width="10" x="368.8003" y="139.4941"/><rect fill="#FFFFFF" height="74.9121" style="stroke:#181818;stroke-width:1.0;" width="10" x="568.2822" y="216.7363"/><polygon fill="#181818" points="178.0127,67.9121,188.0127,71.9121,178.0127,75.9121,182.0127,71.9121" style="stroke:#181818;stroke-width:1.0;"/><line style="stroke:#181818;stroke-width:1.0;" x1="81.0273" x2="184.0127" y1="71.9121" y2="71.9121"/><text fill="#000000" font-family="sans-serif" font-size="13" font-weight="bold" lengthAdjust="spacing" textLength="7.23" x="88.0273" y="66.6494">1</text><text fill="#000000" font-family="sans-serif" font-size="13" lengthAdjust="spacing" textLength="78.7554" x="99.2573" y="66.6494">GetInstance()</text><polygon fill="#181818" points="268.0317,125.4941,278.0317,129.4941,268.0317,133.4941,272.0317,129.4941" style="stroke:#181818;stroke-width:1.0;"/><line style="stroke:#181818;stroke-width:1.0;stroke-dasharray:2.0,2.0;" x1="200.0127" x2="274.0317" y1="129.4941" y2="129.4941"/><text fill="#000000" font-family="sans-serif" font-size="13" font-weight="bold" lengthAdjust="spacing" textLength="7.23" x="207.0127" y="124.2314">2</text><text fill="#000000" font-family="sans-serif" font-size="13" lengthAdjust="spacing" textLength="44.7891" x="218.2427" y="124.2314">create()</text><rect fill="#E2E2F0" height="32.6211" rx="2.5" ry="2.5" style="stroke:#181818;stroke-width:0.5;" width="187.5371" x="280.0317" y="106.2031"/><text fill="#000000" font-family="sans-serif" font-size="14" lengthAdjust="spacing" textLength="173.5371" x="287.0317" y="128.3105">companyInstance:Company</text><polygon fill="#181818" points="465.5688,169.1152,475.5688,173.1152,465.5688,177.1152,469.5688,173.1152" style="stroke:#181818;stroke-width:1.0;"/><line style="stroke:#181818;stroke-width:1.0;stroke-dasharray:2.0,2.0;" x1="378.8003" x2="471.5688" y1="173.1152" y2="173.1152"/><text fill="#000000" font-family="sans-serif" font-size="13" font-weight="bold" lengthAdjust="spacing" textLength="7.23" x="385.8003" y="167.8525">3</text><text fill="#000000" font-family="sans-serif" font-size="13" lengthAdjust="spacing" textLength="44.7891" x="397.0303" y="167.8525">create()</text><rect fill="#E2E2F0" height="32.6211" rx="2.5" ry="2.5" style="stroke:#181818;stroke-width:0.5;" width="191.4268" x="477.5688" y="149.8242"/><text fill="#000000" font-family="sans-serif" font-size="14" lengthAdjust="spacing" textLength="177.4268" x="484.5688" y="171.9316">cfgReader:ConfigFileReader</text><polygon fill="#181818" points="556.2822,212.7363,566.2822,216.7363,556.2822,220.7363,560.2822,216.7363" style="stroke:#181818;stroke-width:1.0;"/><line style="stroke:#181818;stroke-width:1.0;" x1="378.8003" x2="562.2822" y1="216.7363" y2="216.7363"/><text fill="#000000" font-family="sans-serif" font-size="13" font-weight="bold" lengthAdjust="spacing" textLength="7.23" x="385.8003" y="211.4736">4</text><text fill="#000000" font-family="sans-serif" font-size="13" lengthAdjust="spacing" textLength="137.1348" x="397.0303" y="211.4736">read_config("config.ini")</text><polygon fill="#181818" points="666.9956,244.0273,676.9956,248.0273,666.9956,252.0273,670.9956,248.0273" style="stroke:#181818;stroke-width:1.0;"/><line style="stroke:#181818;stroke-width:1.0;stroke-dasharray:2.0,2.0;" x1="578.2822" x2="672.9956" y1="248.0273" y2="248.0273"/><text fill="#000000" font-family="sans-serif" font-size="13" font-weight="bold" lengthAdjust="spacing" textLength="7.23" x="585.2822" y="242.7646">5</text><text fill="#000000" font-family="sans-serif" font-size="13" lengthAdjust="spacing" textLength="44.7891" x="596.5122" y="242.7646">create()</text><rect fill="#E2E2F0" height="32.6211" rx="2.5" ry="2.5" style="stroke:#181818;stroke-width:0.5;" width="165.7441" x="678.9956" y="224.7363"/><text fill="#000000" font-family="sans-serif" font-size="14" lengthAdjust="spacing" textLength="151.7441" x="685.9956" y="246.8438">cfgOptions:ConfigObject</text><polygon fill="#181818" points="389.8003,287.6484,379.8003,291.6484,389.8003,295.6484,385.8003,291.6484" style="stroke:#181818;stroke-width:1.0;"/><line style="stroke:#181818;stroke-width:1.0;stroke-dasharray:2.0,2.0;" x1="383.8003" x2="572.2822" y1="291.6484" y2="291.6484"/><text fill="#000000" font-family="sans-serif" font-size="13" font-weight="bold" lengthAdjust="spacing" textLength="7.23" x="395.8003" y="286.3857">6</text><text fill="#000000" font-family="sans-serif" font-size="13" lengthAdjust="spacing" textLength="62.1436" x="407.0303" y="286.3857">cfgOptions</text><path d="M255,306.6484 L315.1709,306.6484 L315.1709,315.9395 L305.1709,325.9395 L255,325.9395 L255,306.6484 " fill="#EEEEEE" style="stroke:#000000;stroke-width:1.5;"/><rect fill="none" height="102.2031" style="stroke:#000000;stroke-width:1.5;" width="833.7944" x="255" y="306.6484"/><text fill="#000000" font-family="sans-serif" font-size="13" font-weight="bold" lengthAdjust="spacing" textLength="15.1709" x="270" y="321.6768">alt</text><text fill="#000000" font-family="sans-serif" font-size="11" font-weight="bold" lengthAdjust="spacing" textLength="218.249" x="330.1709" y="320.5186">[cfgOption.persitenceMode == "memory"]</text><polygon fill="#181818" points="842.7397,345.2305,852.7397,349.2305,842.7397,353.2305,846.7397,349.2305" style="stroke:#181818;stroke-width:1.0;"/><line style="stroke:#181818;stroke-width:1.0;stroke-dasharray:2.0,2.0;" x1="378.8003" x2="848.7397" y1="349.2305" y2="349.2305"/><text fill="#000000" font-family="sans-serif" font-size="13" font-weight="bold" lengthAdjust="spacing" textLength="7.23" x="385.8003" y="343.9678">7</text><text fill="#000000" font-family="sans-serif" font-size="13" lengthAdjust="spacing" textLength="44.7891" x="397.0303" y="343.9678">create()</text><rect fill="#E2E2F0" height="32.6211" rx="2.5" ry="2.5" style="stroke:#181818;stroke-width:0.5;" width="224.0547" x="854.7397" y="325.9395"/><text fill="#000000" font-family="sans-serif" font-size="14" lengthAdjust="spacing" textLength="210.0547" x="861.7397" y="348.0469">factory:MemoryRepositoryFactory</text><line style="stroke:#000000;stroke-width:1.0;stroke-dasharray:2.0,2.0;" x1="255" x2="1088.7944" y1="370.5605" y2="370.5605"/><path d="M265,376.5605 L265,403.5605 L482,403.5605 L482,386.5605 L472,376.5605 L265,376.5605 " fill="#FEFFDD" style="stroke:#181818;stroke-width:0.5;"/><path d="M472,376.5605 L472,386.5605 L482,386.5605 L472,376.5605 " fill="#FEFFDD" style="stroke:#181818;stroke-width:0.5;"/><text fill="#000000" font-family="sans-serif" font-size="13" lengthAdjust="spacing" textLength="196.5679" x="271" y="395.5889">more options must be handled too</text><polygon fill="#181818" points="92.0273,435.1426,82.0273,439.1426,92.0273,443.1426,88.0273,439.1426" style="stroke:#181818;stroke-width:1.0;"/><line style="stroke:#181818;stroke-width:1.0;stroke-dasharray:2.0,2.0;" x1="86.0273" x2="194.0127" y1="439.1426" y2="439.1426"/><text fill="#000000" font-family="sans-serif" font-size="13" font-weight="bold" lengthAdjust="spacing" textLength="7.23" x="98.0273" y="433.8799">8</text><text fill="#000000" font-family="sans-serif" font-size="13" lengthAdjust="spacing" textLength="73.7026" x="109.2573" y="433.8799">cmpInstance</text><path d="M32,452.1426 L32,479.1426 L1168,479.1426 L1168,462.1426 L1158,452.1426 L32,452.1426 " fill="#FEFFDD" style="stroke:#181818;stroke-width:0.5;"/><path d="M1158,452.1426 L1158,462.1426 L1168,462.1426 L1158,452.1426 " fill="#FEFFDD" style="stroke:#181818;stroke-width:0.5;"/><text fill="#000000" font-family="sans-serif" font-size="13" lengthAdjust="spacing" textLength="312.9014" x="439.5085" y="471.1709">Further Interactions between the controller and person</text><!--SRC=[PLB1Rjim3BthAmXVrXPBSZVG0bqM5ntckV1wo4w58ZE91bdIPBf3CUpVHqkrQtSNo-9xvDDxu8SpaU_opSORQQblpLgvTjFXhnwjmbMZvId8LWZPavEAzBCa16VZtVRj0OCGNWRIIdiU0DcV_Nx_T-ii1MSCXWna1zl7-kkIjNKj_xmaj7nOWYg1zxOZoO_8tv6hJr_UyO-d6cM3WPdsg4-5DfWAiQNUtNxUrV-rL9wqizrhJtNuYOgIH76t91_Pk0ilUOaj7pLwr-cXKAHwR2ftvLDnktsiwXzYoYdw5iCNLZV3qtEuGnfzNLmAvmbKwySAN5-3xOqHJ8NLwYQPlRhAGGNaWTpnDZi5aOw1_EgJsHDv14Si1qQQ9nKTNsJfN6khiqkH674G1x3Gd4Dn8cDJVhmQXjxkQu-1qncMftHDT9IrCRTi_jPPN0ifD1qAwuOTUyOmoN4_Lv8Wj7r7S40uIziOR82S4sYRCRIOUZwFLSmdClWH7dRrz-eRv53qWSvSlhU4OSXs43WW_KQqm0YeQPE1vM1mv-m_]--></g></svg>