<svg xmlns="http://www.w3.org/2000/svg" xmlns:xlink="http://www.w3.org/1999/xlink" contentStyleType="text/css" height="771px" preserveAspectRatio="none" style="width:1821px;height:771px;background:#FFFFFF;" version="1.1" viewBox="0 0 1821 771" width="1821px" zoomAndPan="magnify"><title>US31: Schedule Visit Booking - System Sequence Diagram</title><defs/><g><text fill="#000000" font-family="sans-serif" font-size="14" font-weight="bold" lengthAdjust="spacing" textLength="417.1152" x="701.3523" y="28.5352">US31: Schedule Visit Booking - System Sequence Diagram</text><rect fill="#FFFFFF" height="543.9453" style="stroke:#181818;stroke-width:1.0;" width="10" x="22.7524" y="128.9766"/><rect fill="#FFFFFF" height="522.6348" style="stroke:#181818;stroke-width:1.0;" width="10" x="357.3784" y="150.2871"/><rect fill="#FFFFFF" height="464.0137" style="stroke:#181818;stroke-width:1.0;" width="10" x="755.1255" y="179.5977"/><rect fill="#FFFFFF" height="29.3105" style="stroke:#181818;stroke-width:1.0;" width="10" x="922.8135" y="208.9082"/><rect fill="#FFFFFF" height="29.3105" style="stroke:#181818;stroke-width:1.0;" width="10" x="1076.1016" y="267.5293"/><rect fill="#FFFFFF" height="87.9316" style="stroke:#181818;stroke-width:1.0;" width="10" x="1076.1016" y="426.2598"/><rect fill="#FFFFFF" height="29.3105" style="stroke:#181818;stroke-width:1.0;" width="10" x="1243.3228" y="455.5703"/><rect fill="#FFFFFF" height="70.7988" style="stroke:#181818;stroke-width:1.0;" width="10" x="1378.376" y="326.1504"/><rect fill="#FFFFFF" height="70.7988" style="stroke:#181818;stroke-width:1.0;" width="10" x="1378.376" y="543.502"/><line style="stroke:#181818;stroke-width:0.5;stroke-dasharray:5.0,5.0;" x1="27" x2="27" y1="118.9766" y2="690.9219"/><line style="stroke:#181818;stroke-width:0.5;stroke-dasharray:5.0,5.0;" x1="361.5176" x2="361.5176" y1="118.9766" y2="690.9219"/><line style="stroke:#181818;stroke-width:0.5;stroke-dasharray:5.0,5.0;" x1="759.5703" x2="759.5703" y1="118.9766" y2="690.9219"/><line style="stroke:#181818;stroke-width:0.5;stroke-dasharray:5.0,5.0;" x1="927.6807" x2="927.6807" y1="118.9766" y2="690.9219"/><line style="stroke:#181818;stroke-width:0.5;stroke-dasharray:5.0,5.0;" x1="1080.9463" x2="1080.9463" y1="118.9766" y2="690.9219"/><line style="stroke:#181818;stroke-width:0.5;stroke-dasharray:5.0,5.0;" x1="1247.7651" x2="1247.7651" y1="118.9766" y2="690.9219"/><line style="stroke:#181818;stroke-width:0.5;stroke-dasharray:5.0,5.0;" x1="1382.8804" x2="1382.8804" y1="118.9766" y2="690.9219"/><line style="stroke:#181818;stroke-width:0.5;stroke-dasharray:5.0,5.0;" x1="1539.9116" x2="1539.9116" y1="364.8945" y2="690.9219"/><line style="stroke:#181818;stroke-width:0.5;stroke-dasharray:5.0,5.0;" x1="1716.6509" x2="1716.6509" y1="582.2461" y2="690.9219"/><text fill="#000000" font-family="sans-serif" font-size="14" lengthAdjust="spacing" textLength="39.5049" x="5" y="116.0234">Client</text><ellipse cx="27.7524" cy="50.9883" fill="#E2E2F0" rx="8" ry="8" style="stroke:#181818;stroke-width:0.5;"/><path d="M27.7524,58.9883 L27.7524,85.9883 M14.7524,66.9883 L40.7524,66.9883 M27.7524,85.9883 L14.7524,100.9883 M27.7524,85.9883 L40.7524,100.9883 " fill="none" style="stroke:#181818;stroke-width:0.5;"/><text fill="#000000" font-family="sans-serif" font-size="14" lengthAdjust="spacing" textLength="39.5049" x="5" y="703.457">Client</text><ellipse cx="27.7524" cy="714.9102" fill="#E2E2F0" rx="8" ry="8" style="stroke:#181818;stroke-width:0.5;"/><path d="M27.7524,722.9102 L27.7524,749.9102 M14.7524,730.9102 L40.7524,730.9102 M27.7524,749.9102 L14.7524,764.9102 M27.7524,749.9102 L40.7524,764.9102 " fill="none" style="stroke:#181818;stroke-width:0.5;"/><rect fill="#E2E2F0" height="30.4883" rx="2.5" ry="2.5" style="stroke:#181818;stroke-width:0.5;" width="89.7217" x="317.5176" y="87.4883"/><text fill="#000000" font-family="sans-serif" font-size="14" lengthAdjust="spacing" textLength="75.7217" x="324.5176" y="108.0234">:ClientView</text><rect fill="#E2E2F0" height="30.4883" rx="2.5" ry="2.5" style="stroke:#181818;stroke-width:0.5;" width="89.7217" x="317.5176" y="689.9219"/><text fill="#000000" font-family="sans-serif" font-size="14" lengthAdjust="spacing" textLength="75.7217" x="324.5176" y="710.457">:ClientView</text><rect fill="#E2E2F0" height="30.4883" rx="2.5" ry="2.5" style="stroke:#181818;stroke-width:0.5;" width="171.1104" x="674.5703" y="87.4883"/><text fill="#000000" font-family="sans-serif" font-size="14" lengthAdjust="spacing" textLength="157.1104" x="681.5703" y="108.0234">:VisitBookingController</text><rect fill="#E2E2F0" height="30.4883" rx="2.5" ry="2.5" style="stroke:#181818;stroke-width:0.5;" width="171.1104" x="674.5703" y="689.9219"/><text fill="#000000" font-family="sans-serif" font-size="14" lengthAdjust="spacing" textLength="157.1104" x="681.5703" y="710.457">:VisitBookingController</text><rect fill="#E2E2F0" height="30.4883" rx="2.5" ry="2.5" style="stroke:#181818;stroke-width:0.5;" width="144.2656" x="855.6807" y="87.4883"/><text fill="#000000" font-family="sans-serif" font-size="14" lengthAdjust="spacing" textLength="130.2656" x="862.6807" y="108.0234">factory:VisitFactory</text><rect fill="#E2E2F0" height="30.4883" rx="2.5" ry="2.5" style="stroke:#181818;stroke-width:0.5;" width="144.2656" x="855.6807" y="689.9219"/><text fill="#000000" font-family="sans-serif" font-size="14" lengthAdjust="spacing" textLength="130.2656" x="862.6807" y="710.457">factory:VisitFactory</text><rect fill="#E2E2F0" height="30.4883" rx="2.5" ry="2.5" style="stroke:#181818;stroke-width:0.5;" width="142.3105" x="1009.9463" y="87.4883"/><text fill="#000000" font-family="sans-serif" font-size="14" lengthAdjust="spacing" textLength="128.3105" x="1016.9463" y="108.0234">service:VisitService</text><rect fill="#E2E2F0" height="30.4883" rx="2.5" ry="2.5" style="stroke:#181818;stroke-width:0.5;" width="142.3105" x="1009.9463" y="689.9219"/><text fill="#000000" font-family="sans-serif" font-size="14" lengthAdjust="spacing" textLength="128.3105" x="1016.9463" y="710.457">service:VisitService</text><rect fill="#E2E2F0" height="30.4883" rx="2.5" ry="2.5" style="stroke:#181818;stroke-width:0.5;" width="151.1152" x="1172.7651" y="87.4883"/><text fill="#000000" font-family="sans-serif" font-size="14" lengthAdjust="spacing" textLength="137.1152" x="1179.7651" y="108.0234">repo:VisitRepository</text><rect fill="#E2E2F0" height="30.4883" rx="2.5" ry="2.5" style="stroke:#181818;stroke-width:0.5;" width="151.1152" x="1172.7651" y="689.9219"/><text fill="#000000" font-family="sans-serif" font-size="14" lengthAdjust="spacing" textLength="137.1152" x="1179.7651" y="710.457">repo:VisitRepository</text><rect fill="#E2E2F0" height="30.4883" rx="2.5" ry="2.5" style="stroke:#181818;stroke-width:0.5;" width="98.9912" x="1333.8804" y="87.4883"/><text fill="#000000" font-family="sans-serif" font-size="14" lengthAdjust="spacing" textLength="84.9912" x="1340.8804" y="108.0234">:VisitMapper</text><rect fill="#E2E2F0" height="30.4883" rx="2.5" ry="2.5" style="stroke:#181818;stroke-width:0.5;" width="98.9912" x="1333.8804" y="689.9219"/><text fill="#000000" font-family="sans-serif" font-size="14" lengthAdjust="spacing" textLength="84.9912" x="1340.8804" y="710.457">:VisitMapper</text><rect fill="#E2E2F0" height="30.4883" rx="2.5" ry="2.5" style="stroke:#181818;stroke-width:0.5;" width="136.7393" x="1471.9116" y="689.9219"/><text fill="#000000" font-family="sans-serif" font-size="14" lengthAdjust="spacing" textLength="122.7393" x="1478.9116" y="710.457">selectedDate:Date</text><rect fill="#E2E2F0" height="30.4883" rx="2.5" ry="2.5" style="stroke:#181818;stroke-width:0.5;" width="197.1689" x="1618.6509" y="689.9219"/><text fill="#000000" font-family="sans-serif" font-size="14" lengthAdjust="spacing" textLength="183.1689" x="1625.6509" y="710.457">selectedDateDTO:DateDTO</text><rect fill="#FFFFFF" height="543.9453" style="stroke:#181818;stroke-width:1.0;" width="10" x="22.7524" y="128.9766"/><rect fill="#FFFFFF" height="522.6348" style="stroke:#181818;stroke-width:1.0;" width="10" x="357.3784" y="150.2871"/><rect fill="#FFFFFF" height="464.0137" style="stroke:#181818;stroke-width:1.0;" width="10" x="755.1255" y="179.5977"/><rect fill="#FFFFFF" height="29.3105" style="stroke:#181818;stroke-width:1.0;" width="10" x="922.8135" y="208.9082"/><rect fill="#FFFFFF" height="29.3105" style="stroke:#181818;stroke-width:1.0;" width="10" x="1076.1016" y="267.5293"/><rect fill="#FFFFFF" height="87.9316" style="stroke:#181818;stroke-width:1.0;" width="10" x="1076.1016" y="426.2598"/><rect fill="#FFFFFF" height="29.3105" style="stroke:#181818;stroke-width:1.0;" width="10" x="1243.3228" y="455.5703"/><rect fill="#FFFFFF" height="70.7988" style="stroke:#181818;stroke-width:1.0;" width="10" x="1378.376" y="326.1504"/><rect fill="#FFFFFF" height="70.7988" style="stroke:#181818;stroke-width:1.0;" width="10" x="1378.376" y="543.502"/><polygon fill="#181818" points="345.3784,146.2871,355.3784,150.2871,345.3784,154.2871,349.3784,150.2871" style="stroke:#181818;stroke-width:1.0;"/><line style="stroke:#181818;stroke-width:1.0;" x1="32.7524" x2="351.3784" y1="150.2871" y2="150.2871"/><text fill="#000000" font-family="sans-serif" font-size="13" font-weight="bold" lengthAdjust="spacing" textLength="8.5757" x="39.7524" y="145.5449">1</text><text fill="#000000" font-family="sans-serif" font-size="13" lengthAdjust="spacing" textLength="68.3452" x="52.3281" y="145.5449">Select date</text><polygon fill="#181818" points="743.1255,175.5977,753.1255,179.5977,743.1255,183.5977,747.1255,179.5977" style="stroke:#181818;stroke-width:1.0;"/><line style="stroke:#181818;stroke-width:1.0;" x1="367.3784" x2="749.1255" y1="179.5977" y2="179.5977"/><text fill="#000000" font-family="sans-serif" font-size="13" font-weight="bold" lengthAdjust="spacing" textLength="8.5757" x="374.3784" y="174.8555">2</text><text fill="#000000" font-family="sans-serif" font-size="13" lengthAdjust="spacing" textLength="141.7051" x="386.9541" y="174.8555">confirmDate(dateDTO)</text><polygon fill="#181818" points="910.8135,204.9082,920.8135,208.9082,910.8135,212.9082,914.8135,208.9082" style="stroke:#181818;stroke-width:1.0;"/><line style="stroke:#181818;stroke-width:1.0;" x1="765.1255" x2="916.8135" y1="208.9082" y2="208.9082"/><text fill="#000000" font-family="sans-serif" font-size="13" font-weight="bold" lengthAdjust="spacing" textLength="8.5757" x="772.1255" y="204.166">3</text><text fill="#000000" font-family="sans-serif" font-size="13" lengthAdjust="spacing" textLength="123.1445" x="784.7012" y="204.166">getVisitRepository()</text><polygon fill="#181818" points="776.1255,234.2188,766.1255,238.2188,776.1255,242.2188,772.1255,238.2188" style="stroke:#181818;stroke-width:1.0;"/><line style="stroke:#181818;stroke-width:1.0;stroke-dasharray:2.0,2.0;" x1="770.1255" x2="926.8135" y1="238.2188" y2="238.2188"/><text fill="#000000" font-family="sans-serif" font-size="13" font-weight="bold" lengthAdjust="spacing" textLength="8.5757" x="782.1255" y="233.4766">4</text><text fill="#000000" font-family="sans-serif" font-size="13" lengthAdjust="spacing" textLength="28.7295" x="794.7012" y="233.4766">repo</text><polygon fill="#181818" points="1064.1016,263.5293,1074.1016,267.5293,1064.1016,271.5293,1068.1016,267.5293" style="stroke:#181818;stroke-width:1.0;"/><line style="stroke:#181818;stroke-width:1.0;" x1="765.1255" x2="1070.1016" y1="267.5293" y2="267.5293"/><text fill="#000000" font-family="sans-serif" font-size="13" font-weight="bold" lengthAdjust="spacing" textLength="8.5757" x="772.1255" y="262.7871">5</text><text fill="#000000" font-family="sans-serif" font-size="13" lengthAdjust="spacing" textLength="75.6895" x="784.7012" y="262.7871">create(repo)</text><polygon fill="#181818" points="776.1255,292.8398,766.1255,296.8398,776.1255,300.8398,772.1255,296.8398" style="stroke:#181818;stroke-width:1.0;"/><line style="stroke:#181818;stroke-width:1.0;stroke-dasharray:2.0,2.0;" x1="770.1255" x2="1080.1016" y1="296.8398" y2="296.8398"/><text fill="#000000" font-family="sans-serif" font-size="13" font-weight="bold" lengthAdjust="spacing" textLength="8.5757" x="782.1255" y="292.0977">6</text><text fill="#000000" font-family="sans-serif" font-size="13" lengthAdjust="spacing" textLength="43.5767" x="794.7012" y="292.0977">service</text><polygon fill="#181818" points="1366.376,322.1504,1376.376,326.1504,1366.376,330.1504,1370.376,326.1504" style="stroke:#181818;stroke-width:1.0;"/><line style="stroke:#181818;stroke-width:1.0;" x1="765.1255" x2="1372.376" y1="326.1504" y2="326.1504"/><text fill="#000000" font-family="sans-serif" font-size="13" font-weight="bold" lengthAdjust="spacing" textLength="8.5757" x="772.1255" y="321.4082">7</text><text fill="#000000" font-family="sans-serif" font-size="13" lengthAdjust="spacing" textLength="112.2139" x="784.7012" y="321.4082">toEntity(dateDTO)</text><polygon fill="#181818" points="1459.9116,351.4609,1469.9116,355.4609,1459.9116,359.4609,1463.9116,355.4609" style="stroke:#181818;stroke-width:1.0;"/><line style="stroke:#181818;stroke-width:1.0;" x1="1388.376" x2="1465.9116" y1="355.4609" y2="355.4609"/><text fill="#000000" font-family="sans-serif" font-size="13" font-weight="bold" lengthAdjust="spacing" textLength="8.5757" x="1395.376" y="350.7188">8</text><text fill="#000000" font-family="sans-serif" font-size="13" lengthAdjust="spacing" textLength="46.96" x="1407.9517" y="350.7188">create()</text><rect fill="#E2E2F0" height="30.4883" rx="2.5" ry="2.5" style="stroke:#181818;stroke-width:0.5;" width="136.7393" x="1471.9116" y="334.1504"/><text fill="#000000" font-family="sans-serif" font-size="14" lengthAdjust="spacing" textLength="122.7393" x="1478.9116" y="354.6855">selectedDate:Date</text><polygon fill="#181818" points="776.1255,392.9492,766.1255,396.9492,776.1255,400.9492,772.1255,396.9492" style="stroke:#181818;stroke-width:1.0;"/><line style="stroke:#181818;stroke-width:1.0;stroke-dasharray:2.0,2.0;" x1="770.1255" x2="1382.376" y1="396.9492" y2="396.9492"/><text fill="#000000" font-family="sans-serif" font-size="13" font-weight="bold" lengthAdjust="spacing" textLength="8.5757" x="782.1255" y="392.207">9</text><text fill="#000000" font-family="sans-serif" font-size="13" lengthAdjust="spacing" textLength="80.8374" x="794.7012" y="392.207">selectedDate</text><polygon fill="#181818" points="1064.1016,422.2598,1074.1016,426.2598,1064.1016,430.2598,1068.1016,426.2598" style="stroke:#181818;stroke-width:1.0;"/><line style="stroke:#181818;stroke-width:1.0;" x1="765.1255" x2="1070.1016" y1="426.2598" y2="426.2598"/><text fill="#000000" font-family="sans-serif" font-size="13" font-weight="bold" lengthAdjust="spacing" textLength="17.1514" x="772.1255" y="421.5176">10</text><text fill="#000000" font-family="sans-serif" font-size="13" lengthAdjust="spacing" textLength="144.5742" x="793.2769" y="421.5176">saveVisit(selectedDate)</text><polygon fill="#181818" points="1231.3228,451.5703,1241.3228,455.5703,1231.3228,459.5703,1235.3228,455.5703" style="stroke:#181818;stroke-width:1.0;"/><line style="stroke:#181818;stroke-width:1.0;" x1="1086.1016" x2="1237.3228" y1="455.5703" y2="455.5703"/><text fill="#000000" font-family="sans-serif" font-size="13" font-weight="bold" lengthAdjust="spacing" textLength="17.1514" x="1093.1016" y="450.8281">11</text><text fill="#000000" font-family="sans-serif" font-size="13" lengthAdjust="spacing" textLength="117.0698" x="1114.2529" y="450.8281">save(selectedDate)</text><polygon fill="#181818" points="1097.1016,480.8809,1087.1016,484.8809,1097.1016,488.8809,1093.1016,484.8809" style="stroke:#181818;stroke-width:1.0;"/><line style="stroke:#181818;stroke-width:1.0;stroke-dasharray:2.0,2.0;" x1="1091.1016" x2="1247.3228" y1="484.8809" y2="484.8809"/><text fill="#000000" font-family="sans-serif" font-size="13" font-weight="bold" lengthAdjust="spacing" textLength="17.1514" x="1103.1016" y="480.1387">12</text><text fill="#000000" font-family="sans-serif" font-size="13" lengthAdjust="spacing" textLength="48.5088" x="1124.2529" y="480.1387">success</text><polygon fill="#181818" points="776.1255,510.1914,766.1255,514.1914,776.1255,518.1914,772.1255,514.1914" style="stroke:#181818;stroke-width:1.0;"/><line style="stroke:#181818;stroke-width:1.0;stroke-dasharray:2.0,2.0;" x1="770.1255" x2="1080.1016" y1="514.1914" y2="514.1914"/><text fill="#000000" font-family="sans-serif" font-size="13" font-weight="bold" lengthAdjust="spacing" textLength="17.1514" x="782.1255" y="509.4492">13</text><text fill="#000000" font-family="sans-serif" font-size="13" lengthAdjust="spacing" textLength="48.5088" x="803.2769" y="509.4492">success</text><polygon fill="#181818" points="1366.376,539.502,1376.376,543.502,1366.376,547.502,1370.376,543.502" style="stroke:#181818;stroke-width:1.0;"/><line style="stroke:#181818;stroke-width:1.0;" x1="765.1255" x2="1372.376" y1="543.502" y2="543.502"/><text fill="#000000" font-family="sans-serif" font-size="13" font-weight="bold" lengthAdjust="spacing" textLength="17.1514" x="772.1255" y="538.7598">14</text><text fill="#000000" font-family="sans-serif" font-size="13" lengthAdjust="spacing" textLength="130.1968" x="793.2769" y="538.7598">toDTO(selectedDate)</text><polygon fill="#181818" points="1606.6509,568.8125,1616.6509,572.8125,1606.6509,576.8125,1610.6509,572.8125" style="stroke:#181818;stroke-width:1.0;"/><line style="stroke:#181818;stroke-width:1.0;" x1="1388.376" x2="1612.6509" y1="572.8125" y2="572.8125"/><text fill="#000000" font-family="sans-serif" font-size="13" font-weight="bold" lengthAdjust="spacing" textLength="17.1514" x="1395.376" y="568.0703">15</text><text fill="#000000" font-family="sans-serif" font-size="13" lengthAdjust="spacing" textLength="46.96" x="1416.5273" y="568.0703">create()</text><rect fill="#E2E2F0" height="30.4883" rx="2.5" ry="2.5" style="stroke:#181818;stroke-width:0.5;" width="197.1689" x="1618.6509" y="551.502"/><text fill="#000000" font-family="sans-serif" font-size="14" lengthAdjust="spacing" textLength="183.1689" x="1625.6509" y="572.0371">selectedDateDTO:DateDTO</text><polygon fill="#181818" points="776.1255,610.3008,766.1255,614.3008,776.1255,618.3008,772.1255,614.3008" style="stroke:#181818;stroke-width:1.0;"/><line style="stroke:#181818;stroke-width:1.0;stroke-dasharray:2.0,2.0;" x1="770.1255" x2="1382.376" y1="614.3008" y2="614.3008"/><text fill="#000000" font-family="sans-serif" font-size="13" font-weight="bold" lengthAdjust="spacing" textLength="17.1514" x="782.1255" y="609.5586">16</text><text fill="#000000" font-family="sans-serif" font-size="13" lengthAdjust="spacing" textLength="108.894" x="803.2769" y="609.5586">selectedDateDTO</text><polygon fill="#181818" points="378.3784,639.6113,368.3784,643.6113,378.3784,647.6113,374.3784,643.6113" style="stroke:#181818;stroke-width:1.0;"/><line style="stroke:#181818;stroke-width:1.0;stroke-dasharray:2.0,2.0;" x1="372.3784" x2="759.1255" y1="643.6113" y2="643.6113"/><text fill="#000000" font-family="sans-serif" font-size="13" font-weight="bold" lengthAdjust="spacing" textLength="17.1514" x="384.3784" y="638.8691">17</text><text fill="#000000" font-family="sans-serif" font-size="13" lengthAdjust="spacing" textLength="342.5957" x="405.5298" y="638.8691">Booking successfully registered with selectedDateDTO</text><polygon fill="#181818" points="38.7524,668.9219,28.7524,672.9219,38.7524,676.9219,34.7524,672.9219" style="stroke:#181818;stroke-width:1.0;"/><line style="stroke:#181818;stroke-width:1.0;stroke-dasharray:2.0,2.0;" x1="32.7524" x2="361.3784" y1="672.9219" y2="672.9219"/><text fill="#000000" font-family="sans-serif" font-size="13" font-weight="bold" lengthAdjust="spacing" textLength="17.1514" x="44.7524" y="668.1797">18</text><text fill="#000000" font-family="sans-serif" font-size="13" lengthAdjust="spacing" textLength="279.4746" x="65.9038" y="668.1797">Booking confirmation with selectedDateDTO</text><!--SRC=[bLDDRuCm3BtdLrYSsaezJBjnw67j9lKmJHfhxrbmQJH8M32j-FVBLu4oTjY5sF6p_PvZI5A9SCWU7rB8n1dprhf7sKY29ws_f2fW3LdN45QGuNUBIY3i92yChnZZBMakI5uu8MZbVTLMdsXiJ90sa6nBYOeIu0q4azNSa1IoveeWISFbKUBLOmxxITnpYLIsMf7HPOacr2DJtgDFlcaNabw2uw7HlaStQ2vIO41dmV7eQD-Z3TOwGD-jPOzRRUVEaNxbTHsP1jFF9CmgZeA54zORAzm-09Oe27ABO8UzktKIKn1QdQIfTlP-uOAxZxSbSo47YT9IA90cz1PB5gEmxeiv7NroL6fR67JLNN39ukqeAOwAzOb1KGgadnL9wWPU8U8mTi1E3-QEUEe-oMhLjngGeou3dltcsF0BUeMBCN14T-FV8W0d61VmdOPghH3OD7DYOsH6h5KuAVo7N0jCu_aFqHOTcyQDkFs3aTAfBSlElc0XxGzfC8UhfFEl2cvrN7c_MqEDk4MSf5RpYIp7wOR-0000]--></g></svg>