<svg xmlns="http://www.w3.org/2000/svg" xmlns:xlink="http://www.w3.org/1999/xlink" contentStyleType="text/css" height="1324px" preserveAspectRatio="none" style="width:2541px;height:1324px;background:#FFFFFF;" version="1.1" viewBox="0 0 2541 1324" width="2541.6px" zoomAndPan="magnify"><title>US20: Display listed properties</title><defs/><g><text fill="#000000" font-family="sans-serif" font-size="11.2" font-weight="bold" lengthAdjust="spacing" textLength="164.943" x="1189.5805" y="24.0859">US20: Display listed properties</text><rect fill="#FFFFFF" height="1143.8672" style="stroke:#181818;stroke-width:0.8000000000000002;" width="8" x="14.2234" y="106.5938"/><rect fill="#FFFFFF" height="1118.0344" style="stroke:#181818;stroke-width:0.8000000000000002;" width="8" x="204.2254" y="125.2266"/><rect fill="#FFFFFF" height="1067.9688" style="stroke:#181818;stroke-width:0.8000000000000002;" width="8" x="380.6055" y="150.2594"/><rect fill="#FFFFFF" height="109.9953" style="stroke:#181818;stroke-width:0.8000000000000002;" width="8" x="535.3246" y="175.2922"/><rect fill="#FFFFFF" height="25.0328" style="stroke:#181818;stroke-width:0.8000000000000002;" width="8" x="705.075" y="200.325"/><rect fill="#FFFFFF" height="109.9953" style="stroke:#181818;stroke-width:0.8000000000000002;" width="8" x="861.8332" y="310.3203"/><rect fill="#FFFFFF" height="59.9297" style="stroke:#181818;stroke-width:0.8000000000000002;" width="8" x="1030.1168" y="335.3531"/><rect fill="#FFFFFF" height="25.0328" style="stroke:#181818;stroke-width:0.8000000000000002;" width="8" x="1161.9895" y="551.3438"/><rect fill="#FFFFFF" height="25.0328" style="stroke:#181818;stroke-width:0.8000000000000002;" width="8" x="1161.9895" y="601.4094"/><rect fill="#FFFFFF" height="25.0328" style="stroke:#181818;stroke-width:0.8000000000000002;" width="8" x="1161.9895" y="651.475"/><rect fill="#FFFFFF" height="352.0594" style="stroke:#181818;stroke-width:0.8000000000000002;" width="8" x="1161.9895" y="701.5406"/><rect fill="#FFFFFF" height="25.0328" style="stroke:#181818;stroke-width:0.8000000000000002;" width="8" x="1376.8066" y="726.5734"/><rect fill="#FFFFFF" height="25.0328" style="stroke:#181818;stroke-width:0.8000000000000002;" width="8" x="1376.8066" y="776.6391"/><rect fill="#FFFFFF" height="196.2625" style="stroke:#181818;stroke-width:0.8000000000000002;" width="8" x="1376.8066" y="826.7047"/><rect fill="#FFFFFF" height="25.0328" style="stroke:#181818;stroke-width:0.8000000000000002;" width="8" x="1506.1098" y="872.7703"/><rect fill="#FFFFFF" height="25.0328" style="stroke:#181818;stroke-width:0.8000000000000002;" width="8" x="1506.1098" y="922.8359"/><rect fill="#FFFFFF" height="25.0328" style="stroke:#181818;stroke-width:0.8000000000000002;" width="8" x="1506.1098" y="972.9016"/><rect fill="#FFFFFF" height="59.9297" style="stroke:#181818;stroke-width:0.8000000000000002;" width="8" x="1619.3094" y="445.3484"/><rect fill="#FFFFFF" height="114.5625" style="stroke:#181818;stroke-width:0.8000000000000002;" width="8" x="1619.3094" y="1078.6328"/><rect fill="#FFFFFF" height="24" style="stroke:#181818;stroke-width:0.8000000000000002;" width="8" x="2454.8848" y="1138.5625"/><rect fill="none" height="651.6844" style="stroke:#000000;stroke-width:1.2000000000000002;" width="2250.5574" x="286.3465" y="517.2781"/><rect fill="none" height="190.6625" style="stroke:#000000;stroke-width:1.2000000000000002;" width="436.3711" x="1115.0406" y="838.7047"/><line style="stroke:#181818;stroke-width:0.4000000000000001;stroke-dasharray:5.0,5.0;" x1="17.6" x2="17.6" y1="98.5938" y2="1257.6609"/><line style="stroke:#181818;stroke-width:0.4000000000000001;stroke-dasharray:5.0,5.0;" x1="207.7043" x2="207.7043" y1="98.5938" y2="1257.6609"/><line style="stroke:#181818;stroke-width:0.4000000000000001;stroke-dasharray:5.0,5.0;" x1="383.9465" x2="383.9465" y1="98.5938" y2="1257.6609"/><line style="stroke:#181818;stroke-width:0.4000000000000001;stroke-dasharray:5.0,5.0;" x1="538.602" x2="538.602" y1="98.5938" y2="1257.6609"/><line style="stroke:#181818;stroke-width:0.4000000000000001;stroke-dasharray:5.0,5.0;" x1="708.4766" x2="708.4766" y1="98.5938" y2="1257.6609"/><line style="stroke:#181818;stroke-width:0.4000000000000001;stroke-dasharray:5.0,5.0;" x1="865.6734" x2="865.6734" y1="257.2063" y2="1257.6609"/><line style="stroke:#181818;stroke-width:0.4000000000000001;stroke-dasharray:5.0,5.0;" x1="1033.993" x2="1033.993" y1="98.5938" y2="1257.6609"/><line style="stroke:#181818;stroke-width:0.4000000000000001;stroke-dasharray:5.0,5.0;" x1="1165.4406" x2="1165.4406" y1="98.5938" y2="1257.6609"/><line style="stroke:#181818;stroke-width:0.4000000000000001;stroke-dasharray:5.0,5.0;" x1="1380.4867" x2="1380.4867" y1="98.5938" y2="1257.6609"/><line style="stroke:#181818;stroke-width:0.4000000000000001;stroke-dasharray:5.0,5.0;" x1="1509.6078" x2="1509.6078" y1="98.5938" y2="1257.6609"/><line style="stroke:#181818;stroke-width:0.4000000000000001;stroke-dasharray:5.0,5.0;" x1="1622.6117" x2="1622.6117" y1="98.5938" y2="1257.6609"/><line style="stroke:#181818;stroke-width:0.4000000000000001;stroke-dasharray:5.0,5.0;" x1="1768.007" x2="1768.007" y1="367.2016" y2="1257.6609"/><line style="stroke:#181818;stroke-width:0.4000000000000001;stroke-dasharray:5.0,5.0;" x1="1985.3031" x2="1985.3031" y1="477.1969" y2="1257.6609"/><line style="stroke:#181818;stroke-width:0.4000000000000001;stroke-dasharray:5.0,5.0;" x1="2258.9133" x2="2258.9133" y1="1110.4813" y2="1257.6609"/><line style="stroke:#181818;stroke-width:0.4000000000000001;stroke-dasharray:5.0,5.0;" x1="2458.4656" x2="2458.4656" y1="98.5938" y2="1257.6609"/><text fill="#000000" font-family="sans-serif" font-size="11.2" lengthAdjust="spacing" textLength="23.6469" x="4" y="95.7828">User</text><ellipse cx="18.2234" cy="42.4969" fill="#E2E2F0" rx="6.4" ry="6.4" style="stroke:#181818;stroke-width:0.4000000000000001;"/><path d="M18.2234,48.8969 L18.2234,70.4969 M7.8234,55.2969 L28.6234,55.2969 M18.2234,70.4969 L7.8234,82.4969 M18.2234,70.4969 L28.6234,82.4969 " fill="none" style="stroke:#181818;stroke-width:0.4000000000000001;"/><text fill="#000000" font-family="sans-serif" font-size="11.2" lengthAdjust="spacing" textLength="23.6469" x="4" y="1268.9469">User</text><ellipse cx="18.2234" cy="1278.5578" fill="#E2E2F0" rx="6.4" ry="6.4" style="stroke:#181818;stroke-width:0.4000000000000001;"/><path d="M18.2234,1284.9578 L18.2234,1306.5578 M7.8234,1291.3578 L28.6234,1291.3578 M18.2234,1306.5578 L7.8234,1318.5578 M18.2234,1306.5578 L28.6234,1318.5578 " fill="none" style="stroke:#181818;stroke-width:0.4000000000000001;"/><rect fill="#E2E2F0" height="26.0969" rx="2" ry="2" style="stroke:#181818;stroke-width:0.4000000000000001;" width="156.2422" x="130.1043" y="71.6969"/><text fill="#000000" font-family="sans-serif" font-size="11.2" lengthAdjust="spacing" textLength="145.0422" x="135.7043" y="89.3828">:DisplayListedPropertiesView</text><rect fill="#E2E2F0" height="26.0969" rx="2" ry="2" style="stroke:#181818;stroke-width:0.4000000000000001;" width="156.2422" x="130.1043" y="1256.8609"/><text fill="#000000" font-family="sans-serif" font-size="11.2" lengthAdjust="spacing" textLength="145.0422" x="135.7043" y="1274.5469">:DisplayListedPropertiesView</text><rect fill="#E2E2F0" height="26.0969" rx="2" ry="2" style="stroke:#181818;stroke-width:0.4000000000000001;" width="180.518" x="294.3465" y="71.6969"/><text fill="#000000" font-family="sans-serif" font-size="11.2" lengthAdjust="spacing" textLength="169.318" x="299.9465" y="89.3828">:DisplayListedPropertiesController</text><rect fill="#E2E2F0" height="26.0969" rx="2" ry="2" style="stroke:#181818;stroke-width:0.4000000000000001;" width="180.518" x="294.3465" y="1256.8609"/><text fill="#000000" font-family="sans-serif" font-size="11.2" lengthAdjust="spacing" textLength="169.318" x="299.9465" y="1274.5469">:DisplayListedPropertiesController</text><rect fill="#E2E2F0" height="26.0969" rx="2" ry="2" style="stroke:#181818;stroke-width:0.4000000000000001;" width="62.2453" x="508.202" y="71.6969"/><text fill="#000000" font-family="sans-serif" font-size="11.2" lengthAdjust="spacing" textLength="51.0453" x="513.802" y="89.3828">:Company</text><rect fill="#E2E2F0" height="26.0969" rx="2" ry="2" style="stroke:#181818;stroke-width:0.4000000000000001;" width="62.2453" x="508.202" y="1256.8609"/><text fill="#000000" font-family="sans-serif" font-size="11.2" lengthAdjust="spacing" textLength="51.0453" x="513.802" y="1274.5469">:Company</text><rect fill="#E2E2F0" height="26.0969" rx="2" ry="2" style="stroke:#181818;stroke-width:0.4000000000000001;" width="138.7969" x="639.6766" y="71.6969"/><text fill="#000000" font-family="sans-serif" font-size="11.2" lengthAdjust="spacing" textLength="127.5969" x="645.2766" y="89.3828">factory:RepositoryFactory</text><rect fill="#E2E2F0" height="26.0969" rx="2" ry="2" style="stroke:#181818;stroke-width:0.4000000000000001;" width="138.7969" x="639.6766" y="1256.8609"/><text fill="#000000" font-family="sans-serif" font-size="11.2" lengthAdjust="spacing" textLength="127.5969" x="645.2766" y="1274.5469">factory:RepositoryFactory</text><rect fill="#E2E2F0" height="26.0969" rx="2" ry="2" style="stroke:#181818;stroke-width:0.4000000000000001;" width="158.7195" x="786.4734" y="1256.8609"/><text fill="#000000" font-family="sans-serif" font-size="11.2" lengthAdjust="spacing" textLength="147.5195" x="792.0734" y="1274.5469">service:AdvertisementService</text><rect fill="#E2E2F0" height="26.0969" rx="2" ry="2" style="stroke:#181818;stroke-width:0.4000000000000001;" width="161.8477" x="953.193" y="71.6969"/><text fill="#000000" font-family="sans-serif" font-size="11.2" lengthAdjust="spacing" textLength="150.6477" x="958.793" y="89.3828">repo:AdvertisementRepository</text><rect fill="#E2E2F0" height="26.0969" rx="2" ry="2" style="stroke:#181818;stroke-width:0.4000000000000001;" width="161.8477" x="953.193" y="1256.8609"/><text fill="#000000" font-family="sans-serif" font-size="11.2" lengthAdjust="spacing" textLength="150.6477" x="958.793" y="1274.5469">repo:AdvertisementRepository</text><rect fill="#E2E2F0" height="26.0969" rx="2" ry="2" style="stroke:#181818;stroke-width:0.4000000000000001;" width="85.8977" x="1123.0406" y="71.6969"/><text fill="#000000" font-family="sans-serif" font-size="11.2" lengthAdjust="spacing" textLength="74.6977" x="1128.6406" y="89.3828">:Advertisement</text><rect fill="#E2E2F0" height="26.0969" rx="2" ry="2" style="stroke:#181818;stroke-width:0.4000000000000001;" width="85.8977" x="1123.0406" y="1256.8609"/><text fill="#000000" font-family="sans-serif" font-size="11.2" lengthAdjust="spacing" textLength="74.6977" x="1128.6406" y="1274.5469">:Advertisement</text><rect fill="#E2E2F0" height="26.0969" rx="2" ry="2" style="stroke:#181818;stroke-width:0.4000000000000001;" width="56.6398" x="1352.4867" y="71.6969"/><text fill="#000000" font-family="sans-serif" font-size="11.2" lengthAdjust="spacing" textLength="45.4398" x="1358.0867" y="89.3828">:Property</text><rect fill="#E2E2F0" height="26.0969" rx="2" ry="2" style="stroke:#181818;stroke-width:0.4000000000000001;" width="56.6398" x="1352.4867" y="1256.8609"/><text fill="#000000" font-family="sans-serif" font-size="11.2" lengthAdjust="spacing" textLength="45.4398" x="1358.0867" y="1274.5469">:Property</text><rect fill="#E2E2F0" height="26.0969" rx="2" ry="2" style="stroke:#181818;stroke-width:0.4000000000000001;" width="66.6039" x="1476.8078" y="71.6969"/><text fill="#000000" font-family="sans-serif" font-size="11.2" lengthAdjust="spacing" textLength="55.4039" x="1482.4078" y="89.3828">:Residency</text><rect fill="#E2E2F0" height="26.0969" rx="2" ry="2" style="stroke:#181818;stroke-width:0.4000000000000001;" width="66.6039" x="1476.8078" y="1256.8609"/><text fill="#000000" font-family="sans-serif" font-size="11.2" lengthAdjust="spacing" textLength="55.4039" x="1482.4078" y="1274.5469">:Residency</text><rect fill="#E2E2F0" height="26.0969" rx="2" ry="2" style="stroke:#181818;stroke-width:0.4000000000000001;" width="143.7953" x="1551.4117" y="71.6969"/><text fill="#000000" font-family="sans-serif" font-size="11.2" lengthAdjust="spacing" textLength="132.5953" x="1557.0117" y="89.3828">:DisplayedPropertyMapper</text><rect fill="#E2E2F0" height="26.0969" rx="2" ry="2" style="stroke:#181818;stroke-width:0.4000000000000001;" width="143.7953" x="1551.4117" y="1256.8609"/><text fill="#000000" font-family="sans-serif" font-size="11.2" lengthAdjust="spacing" textLength="132.5953" x="1557.0117" y="1274.5469">:DisplayedPropertyMapper</text><rect fill="#E2E2F0" height="26.0969" rx="2" ry="2" style="stroke:#181818;stroke-width:0.4000000000000001;" width="130.0961" x="1703.207" y="1256.8609"/><text fill="#000000" font-family="sans-serif" font-size="11.2" lengthAdjust="spacing" textLength="118.8961" x="1708.807" y="1274.5469">list:List&lt;Advertisement&gt;</text><rect fill="#E2E2F0" height="26.0969" rx="2" ry="2" style="stroke:#181818;stroke-width:0.4000000000000001;" width="288.8102" x="1841.3031" y="1256.8609"/><text fill="#000000" font-family="sans-serif" font-size="11.2" lengthAdjust="spacing" textLength="277.6102" x="1846.9031" y="1274.5469">listDisplayedPropertyDTO:List&lt;DisplayedPropertyDTO&gt;</text><rect fill="#E2E2F0" height="26.0969" rx="2" ry="2" style="stroke:#181818;stroke-width:0.4000000000000001;" width="242.7523" x="2138.1133" y="1256.8609"/><text fill="#000000" font-family="sans-serif" font-size="11.2" lengthAdjust="spacing" textLength="231.5523" x="2143.7133" y="1274.5469">displayedPropertyDTO:DisplayedPropertyDTO</text><rect fill="#E2E2F0" height="26.0969" rx="2" ry="2" style="stroke:#181818;stroke-width:0.4000000000000001;" width="140.0383" x="2388.8656" y="71.6969"/><text fill="#000000" font-family="sans-serif" font-size="11.2" lengthAdjust="spacing" textLength="128.8383" x="2394.4656" y="89.3828">listDisplayedPropertyDTO</text><rect fill="#E2E2F0" height="26.0969" rx="2" ry="2" style="stroke:#181818;stroke-width:0.4000000000000001;" width="140.0383" x="2388.8656" y="1256.8609"/><text fill="#000000" font-family="sans-serif" font-size="11.2" lengthAdjust="spacing" textLength="128.8383" x="2394.4656" y="1274.5469">listDisplayedPropertyDTO</text><rect fill="#FFFFFF" height="1143.8672" style="stroke:#181818;stroke-width:0.8000000000000002;" width="8" x="14.2234" y="106.5938"/><rect fill="#FFFFFF" height="1118.0344" style="stroke:#181818;stroke-width:0.8000000000000002;" width="8" x="204.2254" y="125.2266"/><rect fill="#FFFFFF" height="1067.9688" style="stroke:#181818;stroke-width:0.8000000000000002;" width="8" x="380.6055" y="150.2594"/><rect fill="#FFFFFF" height="109.9953" style="stroke:#181818;stroke-width:0.8000000000000002;" width="8" x="535.3246" y="175.2922"/><rect fill="#FFFFFF" height="25.0328" style="stroke:#181818;stroke-width:0.8000000000000002;" width="8" x="705.075" y="200.325"/><rect fill="#FFFFFF" height="109.9953" style="stroke:#181818;stroke-width:0.8000000000000002;" width="8" x="861.8332" y="310.3203"/><rect fill="#FFFFFF" height="59.9297" style="stroke:#181818;stroke-width:0.8000000000000002;" width="8" x="1030.1168" y="335.3531"/><rect fill="#FFFFFF" height="25.0328" style="stroke:#181818;stroke-width:0.8000000000000002;" width="8" x="1161.9895" y="551.3438"/><rect fill="#FFFFFF" height="25.0328" style="stroke:#181818;stroke-width:0.8000000000000002;" width="8" x="1161.9895" y="601.4094"/><rect fill="#FFFFFF" height="25.0328" style="stroke:#181818;stroke-width:0.8000000000000002;" width="8" x="1161.9895" y="651.475"/><rect fill="#FFFFFF" height="352.0594" style="stroke:#181818;stroke-width:0.8000000000000002;" width="8" x="1161.9895" y="701.5406"/><rect fill="#FFFFFF" height="25.0328" style="stroke:#181818;stroke-width:0.8000000000000002;" width="8" x="1376.8066" y="726.5734"/><rect fill="#FFFFFF" height="25.0328" style="stroke:#181818;stroke-width:0.8000000000000002;" width="8" x="1376.8066" y="776.6391"/><rect fill="#FFFFFF" height="196.2625" style="stroke:#181818;stroke-width:0.8000000000000002;" width="8" x="1376.8066" y="826.7047"/><rect fill="#FFFFFF" height="25.0328" style="stroke:#181818;stroke-width:0.8000000000000002;" width="8" x="1506.1098" y="872.7703"/><rect fill="#FFFFFF" height="25.0328" style="stroke:#181818;stroke-width:0.8000000000000002;" width="8" x="1506.1098" y="922.8359"/><rect fill="#FFFFFF" height="25.0328" style="stroke:#181818;stroke-width:0.8000000000000002;" width="8" x="1506.1098" y="972.9016"/><rect fill="#FFFFFF" height="59.9297" style="stroke:#181818;stroke-width:0.8000000000000002;" width="8" x="1619.3094" y="445.3484"/><rect fill="#FFFFFF" height="114.5625" style="stroke:#181818;stroke-width:0.8000000000000002;" width="8" x="1619.3094" y="1078.6328"/><rect fill="#FFFFFF" height="24" style="stroke:#181818;stroke-width:0.8000000000000002;" width="8" x="2454.8848" y="1138.5625"/><polygon fill="#181818" points="194.6254,122.0266,202.6254,125.2266,194.6254,128.4266,197.8254,125.2266" style="stroke:#181818;stroke-width:0.8000000000000002;"/><line style="stroke:#181818;stroke-width:0.8000000000000002;" x1="22.2234" x2="199.4254" y1="125.2266" y2="125.2266"/><text fill="#000000" font-family="sans-serif" font-size="10.4" font-weight="bold" lengthAdjust="spacing" textLength="5.784" x="27.8234" y="121.0164">1</text><text fill="#000000" font-family="sans-serif" font-size="10.4" lengthAdjust="spacing" textLength="157.818" x="36.8074" y="121.0164">request to display listed properties</text><polygon fill="#181818" points="371.0055,147.0594,379.0055,150.2594,371.0055,153.4594,374.2055,150.2594" style="stroke:#181818;stroke-width:0.8000000000000002;"/><line style="stroke:#181818;stroke-width:0.8000000000000002;" x1="212.2254" x2="375.8055" y1="150.2594" y2="150.2594"/><text fill="#000000" font-family="sans-serif" font-size="10.4" font-weight="bold" lengthAdjust="spacing" textLength="5.784" x="217.8254" y="146.0492">2</text><text fill="#000000" font-family="sans-serif" font-size="10.4" lengthAdjust="spacing" textLength="96.5352" x="226.8094" y="146.0492">getListedProperties()</text><polygon fill="#181818" points="525.7246,172.0922,533.7246,175.2922,525.7246,178.4922,528.9246,175.2922" style="stroke:#181818;stroke-width:0.8000000000000002;"/><line style="stroke:#181818;stroke-width:0.8000000000000002;" x1="388.6055" x2="530.5246" y1="175.2922" y2="175.2922"/><text fill="#000000" font-family="sans-serif" font-size="10.4" font-weight="bold" lengthAdjust="spacing" textLength="5.784" x="394.2055" y="171.082">3</text><text fill="#000000" font-family="sans-serif" font-size="10.4" lengthAdjust="spacing" textLength="122.5352" x="403.1895" y="171.082">getAdvertisementService()</text><polygon fill="#181818" points="695.475,197.125,703.475,200.325,695.475,203.525,698.675,200.325" style="stroke:#181818;stroke-width:0.8000000000000002;"/><line style="stroke:#181818;stroke-width:0.8000000000000002;" x1="543.3246" x2="700.275" y1="200.325" y2="200.325"/><text fill="#000000" font-family="sans-serif" font-size="10.4" font-weight="bold" lengthAdjust="spacing" textLength="5.784" x="548.9246" y="196.1148">4</text><text fill="#000000" font-family="sans-serif" font-size="10.4" lengthAdjust="spacing" textLength="137.5664" x="557.9086" y="196.1148">getAdvertisementRepository()</text><polygon fill="#181818" points="552.1246,222.1578,544.1246,225.3578,552.1246,228.5578,548.9246,225.3578" style="stroke:#181818;stroke-width:0.8000000000000002;"/><line style="stroke:#181818;stroke-width:0.8000000000000002;stroke-dasharray:2.0,2.0;" x1="547.3246" x2="708.275" y1="225.3578" y2="225.3578"/><text fill="#000000" font-family="sans-serif" font-size="10.4" font-weight="bold" lengthAdjust="spacing" textLength="5.784" x="556.9246" y="221.1477">5</text><text fill="#000000" font-family="sans-serif" font-size="10.4" lengthAdjust="spacing" textLength="20.8152" x="565.9086" y="221.1477">repo</text><polygon fill="#181818" points="776.8734,247.1906,784.8734,250.3906,776.8734,253.5906,780.0734,250.3906" style="stroke:#181818;stroke-width:0.8000000000000002;"/><line style="stroke:#181818;stroke-width:0.8000000000000002;" x1="543.3246" x2="781.6734" y1="250.3906" y2="250.3906"/><text fill="#000000" font-family="sans-serif" font-size="10.4" font-weight="bold" lengthAdjust="spacing" textLength="5.784" x="548.9246" y="246.1805">6</text><text fill="#000000" font-family="sans-serif" font-size="10.4" lengthAdjust="spacing" textLength="56.6465" x="557.9086" y="246.1805">create(repo)</text><rect fill="#E2E2F0" height="26.0969" rx="2" ry="2" style="stroke:#181818;stroke-width:0.4000000000000001;" width="158.7195" x="786.4734" y="231.7578"/><text fill="#000000" font-family="sans-serif" font-size="11.2" lengthAdjust="spacing" textLength="147.5195" x="792.0734" y="249.4438">service:AdvertisementService</text><polygon fill="#181818" points="397.4055,282.0875,389.4055,285.2875,397.4055,288.4875,394.2055,285.2875" style="stroke:#181818;stroke-width:0.8000000000000002;"/><line style="stroke:#181818;stroke-width:0.8000000000000002;stroke-dasharray:2.0,2.0;" x1="392.6055" x2="538.5246" y1="285.2875" y2="285.2875"/><text fill="#000000" font-family="sans-serif" font-size="10.4" font-weight="bold" lengthAdjust="spacing" textLength="5.784" x="402.2055" y="281.0773">7</text><text fill="#000000" font-family="sans-serif" font-size="10.4" lengthAdjust="spacing" textLength="32.9418" x="411.1895" y="281.0773">service</text><polygon fill="#181818" points="852.2332,307.1203,860.2332,310.3203,852.2332,313.5203,855.4332,310.3203" style="stroke:#181818;stroke-width:0.8000000000000002;"/><line style="stroke:#181818;stroke-width:0.8000000000000002;" x1="388.6055" x2="857.0332" y1="310.3203" y2="310.3203"/><text fill="#000000" font-family="sans-serif" font-size="10.4" font-weight="bold" lengthAdjust="spacing" textLength="5.784" x="394.2055" y="306.1102">8</text><text fill="#000000" font-family="sans-serif" font-size="10.4" lengthAdjust="spacing" textLength="32.9418" x="403.1895" y="306.1102">getAll()</text><polygon fill="#181818" points="1020.5168,332.1531,1028.5168,335.3531,1020.5168,338.5531,1023.7168,335.3531" style="stroke:#181818;stroke-width:0.8000000000000002;"/><line style="stroke:#181818;stroke-width:0.8000000000000002;" x1="869.8332" x2="1025.3168" y1="335.3531" y2="335.3531"/><text fill="#000000" font-family="sans-serif" font-size="10.4" font-weight="bold" lengthAdjust="spacing" textLength="5.784" x="875.4332" y="331.143">9</text><text fill="#000000" font-family="sans-serif" font-size="10.4" lengthAdjust="spacing" textLength="32.9418" x="884.4172" y="331.143">getAll()</text><polygon fill="#181818" points="1693.607,357.1859,1701.607,360.3859,1693.607,363.5859,1696.807,360.3859" style="stroke:#181818;stroke-width:0.8000000000000002;"/><line style="stroke:#181818;stroke-width:0.8000000000000002;" x1="1038.1168" x2="1698.407" y1="360.3859" y2="360.3859"/><text fill="#000000" font-family="sans-serif" font-size="10.4" font-weight="bold" lengthAdjust="spacing" textLength="11.568" x="1043.7168" y="356.1758">10</text><text fill="#000000" font-family="sans-serif" font-size="10.4" lengthAdjust="spacing" textLength="35.8313" x="1058.4848" y="356.1758">create()</text><rect fill="#E2E2F0" height="26.0969" rx="2" ry="2" style="stroke:#181818;stroke-width:0.4000000000000001;" width="130.0961" x="1703.207" y="341.7531"/><text fill="#000000" font-family="sans-serif" font-size="11.2" lengthAdjust="spacing" textLength="118.8961" x="1708.807" y="359.4391">list:List&lt;Advertisement&gt;</text><polygon fill="#181818" points="878.6332,392.0828,870.6332,395.2828,878.6332,398.4828,875.4332,395.2828" style="stroke:#181818;stroke-width:0.8000000000000002;"/><line style="stroke:#181818;stroke-width:0.8000000000000002;stroke-dasharray:2.0,2.0;" x1="873.8332" x2="1033.3168" y1="395.2828" y2="395.2828"/><text fill="#000000" font-family="sans-serif" font-size="10.4" font-weight="bold" lengthAdjust="spacing" textLength="11.568" x="883.4332" y="391.0727">11</text><text fill="#000000" font-family="sans-serif" font-size="10.4" lengthAdjust="spacing" textLength="12.7105" x="898.2012" y="391.0727">list</text><polygon fill="#181818" points="397.4055,417.1156,389.4055,420.3156,397.4055,423.5156,394.2055,420.3156" style="stroke:#181818;stroke-width:0.8000000000000002;"/><line style="stroke:#181818;stroke-width:0.8000000000000002;stroke-dasharray:2.0,2.0;" x1="392.6055" x2="865.0332" y1="420.3156" y2="420.3156"/><text fill="#000000" font-family="sans-serif" font-size="10.4" font-weight="bold" lengthAdjust="spacing" textLength="11.568" x="402.2055" y="416.1055">12</text><text fill="#000000" font-family="sans-serif" font-size="10.4" lengthAdjust="spacing" textLength="12.7105" x="416.9734" y="416.1055">list</text><polygon fill="#181818" points="1609.7094,442.1484,1617.7094,445.3484,1609.7094,448.5484,1612.9094,445.3484" style="stroke:#181818;stroke-width:0.8000000000000002;"/><line style="stroke:#181818;stroke-width:0.8000000000000002;" x1="388.6055" x2="1614.5094" y1="445.3484" y2="445.3484"/><text fill="#000000" font-family="sans-serif" font-size="10.4" font-weight="bold" lengthAdjust="spacing" textLength="11.568" x="394.2055" y="441.1383">13</text><text fill="#000000" font-family="sans-serif" font-size="10.4" lengthAdjust="spacing" textLength="73.968" x="408.9734" y="441.1383">createDTOList()</text><polygon fill="#181818" points="1831.7031,467.1813,1839.7031,470.3813,1831.7031,473.5813,1834.9031,470.3813" style="stroke:#181818;stroke-width:0.8000000000000002;"/><line style="stroke:#181818;stroke-width:0.8000000000000002;" x1="1627.3094" x2="1836.5031" y1="470.3813" y2="470.3813"/><text fill="#000000" font-family="sans-serif" font-size="10.4" font-weight="bold" lengthAdjust="spacing" textLength="11.568" x="1632.9094" y="466.1711">14</text><text fill="#000000" font-family="sans-serif" font-size="10.4" lengthAdjust="spacing" textLength="35.8313" x="1647.6773" y="466.1711">create()</text><rect fill="#E2E2F0" height="26.0969" rx="2" ry="2" style="stroke:#181818;stroke-width:0.4000000000000001;" width="288.8102" x="1841.3031" y="451.7484"/><text fill="#000000" font-family="sans-serif" font-size="11.2" lengthAdjust="spacing" textLength="277.6102" x="1846.9031" y="469.4344">listDisplayedPropertyDTO:List&lt;DisplayedPropertyDTO&gt;</text><polygon fill="#181818" points="397.4055,502.0781,389.4055,505.2781,397.4055,508.4781,394.2055,505.2781" style="stroke:#181818;stroke-width:0.8000000000000002;"/><line style="stroke:#181818;stroke-width:0.8000000000000002;stroke-dasharray:2.0,2.0;" x1="392.6055" x2="1622.5094" y1="505.2781" y2="505.2781"/><text fill="#000000" font-family="sans-serif" font-size="10.4" font-weight="bold" lengthAdjust="spacing" textLength="11.568" x="402.2055" y="501.068">15</text><text fill="#000000" font-family="sans-serif" font-size="10.4" lengthAdjust="spacing" textLength="10.984" x="416.9734" y="501.068">ok</text><path d="M286.3465,517.2781 L344.2941,517.2781 L344.2941,524.7109 L336.2941,532.7109 L286.3465,532.7109 L286.3465,517.2781 " fill="#EEEEEE" style="stroke:#000000;stroke-width:1.2000000000000002;"/><rect fill="none" height="651.6844" style="stroke:#000000;stroke-width:1.2000000000000002;" width="2250.5574" x="286.3465" y="517.2781"/><text fill="#000000" font-family="sans-serif" font-size="10.4" font-weight="bold" lengthAdjust="spacing" textLength="21.9477" x="298.3465" y="529.3008">loop</text><text fill="#000000" font-family="sans-serif" font-size="8.8" font-weight="bold" lengthAdjust="spacing" textLength="133.2805" x="356.2941" y="528.3742">[for each 'Advertisement' in list]</text><polygon fill="#181818" points="1152.3895,548.1438,1160.3895,551.3438,1152.3895,554.5438,1155.5895,551.3438" style="stroke:#181818;stroke-width:0.8000000000000002;"/><line style="stroke:#181818;stroke-width:0.8000000000000002;" x1="388.6055" x2="1157.1895" y1="551.3438" y2="551.3438"/><text fill="#000000" font-family="sans-serif" font-size="10.4" font-weight="bold" lengthAdjust="spacing" textLength="11.568" x="394.2055" y="547.1336">16</text><text fill="#000000" font-family="sans-serif" font-size="10.4" lengthAdjust="spacing" textLength="86.7039" x="408.9734" y="547.1336">getTypeBusiness()</text><polygon fill="#181818" points="397.4055,573.1766,389.4055,576.3766,397.4055,579.5766,394.2055,576.3766" style="stroke:#181818;stroke-width:0.8000000000000002;"/><line style="stroke:#181818;stroke-width:0.8000000000000002;stroke-dasharray:2.0,2.0;" x1="392.6055" x2="1165.1895" y1="576.3766" y2="576.3766"/><text fill="#000000" font-family="sans-serif" font-size="10.4" font-weight="bold" lengthAdjust="spacing" textLength="11.568" x="402.2055" y="572.1664">17</text><text fill="#000000" font-family="sans-serif" font-size="10.4" lengthAdjust="spacing" textLength="61.8566" x="416.9734" y="572.1664">typeBusiness</text><polygon fill="#181818" points="1152.3895,598.2094,1160.3895,601.4094,1152.3895,604.6094,1155.5895,601.4094" style="stroke:#181818;stroke-width:0.8000000000000002;"/><line style="stroke:#181818;stroke-width:0.8000000000000002;" x1="388.6055" x2="1157.1895" y1="601.4094" y2="601.4094"/><text fill="#000000" font-family="sans-serif" font-size="10.4" font-weight="bold" lengthAdjust="spacing" textLength="11.568" x="394.2055" y="597.1992">18</text><text fill="#000000" font-family="sans-serif" font-size="10.4" lengthAdjust="spacing" textLength="83.8094" x="408.9734" y="597.1992">getTypeProperty()</text><polygon fill="#181818" points="397.4055,623.2422,389.4055,626.4422,397.4055,629.6422,394.2055,626.4422" style="stroke:#181818;stroke-width:0.8000000000000002;"/><line style="stroke:#181818;stroke-width:0.8000000000000002;stroke-dasharray:2.0,2.0;" x1="392.6055" x2="1165.1895" y1="626.4422" y2="626.4422"/><text fill="#000000" font-family="sans-serif" font-size="10.4" font-weight="bold" lengthAdjust="spacing" textLength="11.568" x="402.2055" y="622.232">19</text><text fill="#000000" font-family="sans-serif" font-size="10.4" lengthAdjust="spacing" textLength="58.9621" x="416.9734" y="622.232">typeProperty</text><polygon fill="#181818" points="1152.3895,648.275,1160.3895,651.475,1152.3895,654.675,1155.5895,651.475" style="stroke:#181818;stroke-width:0.8000000000000002;"/><line style="stroke:#181818;stroke-width:0.8000000000000002;" x1="388.6055" x2="1157.1895" y1="651.475" y2="651.475"/><text fill="#000000" font-family="sans-serif" font-size="10.4" font-weight="bold" lengthAdjust="spacing" textLength="11.568" x="394.2055" y="647.2648">20</text><text fill="#000000" font-family="sans-serif" font-size="10.4" lengthAdjust="spacing" textLength="45.0785" x="408.9734" y="647.2648">getPrice()</text><polygon fill="#181818" points="397.4055,673.3078,389.4055,676.5078,397.4055,679.7078,394.2055,676.5078" style="stroke:#181818;stroke-width:0.8000000000000002;"/><line style="stroke:#181818;stroke-width:0.8000000000000002;stroke-dasharray:2.0,2.0;" x1="392.6055" x2="1165.1895" y1="676.5078" y2="676.5078"/><text fill="#000000" font-family="sans-serif" font-size="10.4" font-weight="bold" lengthAdjust="spacing" textLength="11.568" x="402.2055" y="672.2977">21</text><text fill="#000000" font-family="sans-serif" font-size="10.4" lengthAdjust="spacing" textLength="22.5418" x="416.9734" y="672.2977">price</text><polygon fill="#181818" points="1152.3895,698.3406,1160.3895,701.5406,1152.3895,704.7406,1155.5895,701.5406" style="stroke:#181818;stroke-width:0.8000000000000002;"/><line style="stroke:#181818;stroke-width:0.8000000000000002;" x1="388.6055" x2="1157.1895" y1="701.5406" y2="701.5406"/><text fill="#000000" font-family="sans-serif" font-size="10.4" font-weight="bold" lengthAdjust="spacing" textLength="11.568" x="394.2055" y="697.3305">22</text><text fill="#000000" font-family="sans-serif" font-size="10.4" lengthAdjust="spacing" textLength="104.6195" x="408.9734" y="697.3305">getPropertyAttributes()</text><polygon fill="#181818" points="1367.2066,723.3734,1375.2066,726.5734,1367.2066,729.7734,1370.4066,726.5734" style="stroke:#181818;stroke-width:0.8000000000000002;"/><line style="stroke:#181818;stroke-width:0.8000000000000002;" x1="1169.9895" x2="1372.0066" y1="726.5734" y2="726.5734"/><text fill="#000000" font-family="sans-serif" font-size="10.4" font-weight="bold" lengthAdjust="spacing" textLength="11.568" x="1175.5895" y="722.3633">23</text><text fill="#000000" font-family="sans-serif" font-size="10.4" lengthAdjust="spacing" textLength="43.352" x="1190.3574" y="722.3633">getArea()</text><polygon fill="#181818" points="1178.7895,748.4063,1170.7895,751.6063,1178.7895,754.8063,1175.5895,751.6063" style="stroke:#181818;stroke-width:0.8000000000000002;"/><line style="stroke:#181818;stroke-width:0.8000000000000002;stroke-dasharray:2.0,2.0;" x1="1173.9895" x2="1380.0066" y1="751.6063" y2="751.6063"/><text fill="#000000" font-family="sans-serif" font-size="10.4" font-weight="bold" lengthAdjust="spacing" textLength="11.568" x="1183.5895" y="747.3961">24</text><text fill="#000000" font-family="sans-serif" font-size="10.4" lengthAdjust="spacing" textLength="20.8152" x="1198.3574" y="747.3961">area</text><polygon fill="#181818" points="1367.2066,773.4391,1375.2066,776.6391,1367.2066,779.8391,1370.4066,776.6391" style="stroke:#181818;stroke-width:0.8000000000000002;"/><line style="stroke:#181818;stroke-width:0.8000000000000002;" x1="1169.9895" x2="1372.0066" y1="776.6391" y2="776.6391"/><text fill="#000000" font-family="sans-serif" font-size="10.4" font-weight="bold" lengthAdjust="spacing" textLength="11.568" x="1175.5895" y="772.4289">25</text><text fill="#000000" font-family="sans-serif" font-size="10.4" lengthAdjust="spacing" textLength="60.7039" x="1190.3574" y="772.4289">getLocation()</text><polygon fill="#181818" points="1178.7895,798.4719,1170.7895,801.6719,1178.7895,804.8719,1175.5895,801.6719" style="stroke:#181818;stroke-width:0.8000000000000002;"/><line style="stroke:#181818;stroke-width:0.8000000000000002;stroke-dasharray:2.0,2.0;" x1="1173.9895" x2="1380.0066" y1="801.6719" y2="801.6719"/><text fill="#000000" font-family="sans-serif" font-size="10.4" font-weight="bold" lengthAdjust="spacing" textLength="11.568" x="1183.5895" y="797.4617">26</text><text fill="#000000" font-family="sans-serif" font-size="10.4" lengthAdjust="spacing" textLength="35.8465" x="1198.3574" y="797.4617">location</text><polygon fill="#181818" points="1367.2066,823.5047,1375.2066,826.7047,1367.2066,829.9047,1370.4066,826.7047" style="stroke:#181818;stroke-width:0.8000000000000002;"/><line style="stroke:#181818;stroke-width:0.8000000000000002;" x1="1169.9895" x2="1372.0066" y1="826.7047" y2="826.7047"/><text fill="#000000" font-family="sans-serif" font-size="10.4" font-weight="bold" lengthAdjust="spacing" textLength="11.568" x="1175.5895" y="822.4945">27</text><text fill="#000000" font-family="sans-serif" font-size="10.4" lengthAdjust="spacing" textLength="69.941" x="1190.3574" y="822.4945">getResidency()</text><path d="M1115.0406,838.7047 L1167.2094,838.7047 L1167.2094,846.1375 L1159.2094,854.1375 L1115.0406,854.1375 L1115.0406,838.7047 " fill="#EEEEEE" style="stroke:#000000;stroke-width:1.2000000000000002;"/><rect fill="none" height="190.6625" style="stroke:#000000;stroke-width:1.2000000000000002;" width="436.3711" x="1115.0406" y="838.7047"/><text fill="#000000" font-family="sans-serif" font-size="10.4" font-weight="bold" lengthAdjust="spacing" textLength="16.1688" x="1127.0406" y="850.7273">opt</text><text fill="#000000" font-family="sans-serif" font-size="8.8" font-weight="bold" lengthAdjust="spacing" textLength="149.1402" x="1179.2094" y="849.8008">[Property is an house or apartment]</text><polygon fill="#181818" points="1496.5098,869.5703,1504.5098,872.7703,1496.5098,875.9703,1499.7098,872.7703" style="stroke:#181818;stroke-width:0.8000000000000002;"/><line style="stroke:#181818;stroke-width:0.8000000000000002;" x1="1384.8066" x2="1501.3098" y1="872.7703" y2="872.7703"/><text fill="#000000" font-family="sans-serif" font-size="10.4" font-weight="bold" lengthAdjust="spacing" textLength="11.568" x="1390.4066" y="868.5602">28</text><text fill="#000000" font-family="sans-serif" font-size="10.4" lengthAdjust="spacing" textLength="68.7832" x="1405.1746" y="868.5602">getBedrooms()</text><polygon fill="#181818" points="1393.6066,894.6031,1385.6066,897.8031,1393.6066,901.0031,1390.4066,897.8031" style="stroke:#181818;stroke-width:0.8000000000000002;"/><line style="stroke:#181818;stroke-width:0.8000000000000002;stroke-dasharray:2.0,2.0;" x1="1388.8066" x2="1509.3098" y1="897.8031" y2="897.8031"/><text fill="#000000" font-family="sans-serif" font-size="10.4" font-weight="bold" lengthAdjust="spacing" textLength="11.568" x="1398.4066" y="893.593">29</text><text fill="#000000" font-family="sans-serif" font-size="10.4" lengthAdjust="spacing" textLength="46.2465" x="1413.1746" y="893.593">bedrooms</text><polygon fill="#181818" points="1496.5098,919.6359,1504.5098,922.8359,1496.5098,926.0359,1499.7098,922.8359" style="stroke:#181818;stroke-width:0.8000000000000002;"/><line style="stroke:#181818;stroke-width:0.8000000000000002;" x1="1384.8066" x2="1501.3098" y1="922.8359" y2="922.8359"/><text fill="#000000" font-family="sans-serif" font-size="10.4" font-weight="bold" lengthAdjust="spacing" textLength="11.568" x="1390.4066" y="918.6258">30</text><text fill="#000000" font-family="sans-serif" font-size="10.4" lengthAdjust="spacing" textLength="71.6727" x="1405.1746" y="918.6258">getBathrooms()</text><polygon fill="#181818" points="1393.6066,944.6688,1385.6066,947.8688,1393.6066,951.0688,1390.4066,947.8688" style="stroke:#181818;stroke-width:0.8000000000000002;"/><line style="stroke:#181818;stroke-width:0.8000000000000002;stroke-dasharray:2.0,2.0;" x1="1388.8066" x2="1509.3098" y1="947.8688" y2="947.8688"/><text fill="#000000" font-family="sans-serif" font-size="10.4" font-weight="bold" lengthAdjust="spacing" textLength="11.568" x="1398.4066" y="943.6586">31</text><text fill="#000000" font-family="sans-serif" font-size="10.4" lengthAdjust="spacing" textLength="49.1359" x="1413.1746" y="943.6586">bathrooms</text><polygon fill="#181818" points="1496.5098,969.7016,1504.5098,972.9016,1496.5098,976.1016,1499.7098,972.9016" style="stroke:#181818;stroke-width:0.8000000000000002;"/><line style="stroke:#181818;stroke-width:0.8000000000000002;" x1="1384.8066" x2="1501.3098" y1="972.9016" y2="972.9016"/><text fill="#000000" font-family="sans-serif" font-size="10.4" font-weight="bold" lengthAdjust="spacing" textLength="11.568" x="1390.4066" y="968.6914">32</text><text fill="#000000" font-family="sans-serif" font-size="10.4" lengthAdjust="spacing" textLength="91.3352" x="1405.1746" y="968.6914">getParkingSpaces()</text><polygon fill="#181818" points="1393.6066,994.7344,1385.6066,997.9344,1393.6066,1001.1344,1390.4066,997.9344" style="stroke:#181818;stroke-width:0.8000000000000002;"/><line style="stroke:#181818;stroke-width:0.8000000000000002;stroke-dasharray:2.0,2.0;" x1="1388.8066" x2="1509.3098" y1="997.9344" y2="997.9344"/><text fill="#000000" font-family="sans-serif" font-size="10.4" font-weight="bold" lengthAdjust="spacing" textLength="11.568" x="1398.4066" y="993.7242">33</text><text fill="#000000" font-family="sans-serif" font-size="10.4" lengthAdjust="spacing" textLength="68.7984" x="1413.1746" y="993.7242">parkingSpaces</text><polygon fill="#181818" points="1178.7895,1019.7672,1170.7895,1022.9672,1178.7895,1026.1672,1175.5895,1022.9672" style="stroke:#181818;stroke-width:0.8000000000000002;"/><line style="stroke:#181818;stroke-width:0.8000000000000002;stroke-dasharray:2.0,2.0;" x1="1173.9895" x2="1380.0066" y1="1022.9672" y2="1022.9672"/><text fill="#000000" font-family="sans-serif" font-size="10.4" font-weight="bold" lengthAdjust="spacing" textLength="11.568" x="1183.5895" y="1018.757">34</text><text fill="#000000" font-family="sans-serif" font-size="10.4" lengthAdjust="spacing" textLength="172.8492" x="1198.3574" y="1018.757">bedrooms, bathrooms,parkingSpaces</text><polygon fill="#181818" points="397.4055,1050.4,389.4055,1053.6,397.4055,1056.8,394.2055,1053.6" style="stroke:#181818;stroke-width:0.8000000000000002;"/><line style="stroke:#181818;stroke-width:0.8000000000000002;stroke-dasharray:2.0,2.0;" x1="392.6055" x2="1165.1895" y1="1053.6" y2="1053.6"/><text fill="#000000" font-family="sans-serif" font-size="10.4" font-weight="bold" lengthAdjust="spacing" textLength="11.568" x="402.2055" y="1049.3898">35</text><text fill="#000000" font-family="sans-serif" font-size="10.4" lengthAdjust="spacing" textLength="243.9582" x="416.9734" y="1049.3898">area, location, bedrooms, bathrooms, parkingSpaces</text><polygon fill="#181818" points="1609.7094,1075.4328,1617.7094,1078.6328,1609.7094,1081.8328,1612.9094,1078.6328" style="stroke:#181818;stroke-width:0.8000000000000002;"/><line style="stroke:#181818;stroke-width:0.8000000000000002;" x1="388.6055" x2="1614.5094" y1="1078.6328" y2="1078.6328"/><text fill="#000000" font-family="sans-serif" font-size="10.4" font-weight="bold" lengthAdjust="spacing" textLength="11.568" x="394.2055" y="1074.4227">36</text><text fill="#000000" font-family="sans-serif" font-size="10.4" lengthAdjust="spacing" textLength="421.982" x="408.9734" y="1074.4227">toDTO(typeBusiness,typeProperty,price,area,location,bedrooms,bathrooms,parkingSpaces)</text><polygon fill="#181818" points="2128.5133,1100.4656,2136.5133,1103.6656,2128.5133,1106.8656,2131.7133,1103.6656" style="stroke:#181818;stroke-width:0.8000000000000002;"/><line style="stroke:#181818;stroke-width:0.8000000000000002;" x1="1627.3094" x2="2133.3133" y1="1103.6656" y2="1103.6656"/><text fill="#000000" font-family="sans-serif" font-size="10.4" font-weight="bold" lengthAdjust="spacing" textLength="11.568" x="1632.9094" y="1099.4555">37</text><text fill="#000000" font-family="sans-serif" font-size="10.4" lengthAdjust="spacing" textLength="420.2605" x="1647.6773" y="1099.4555">create(typeBusiness,typeProperty,price,area,location,bedrooms,bathrooms,parkingSpaces)</text><rect fill="#E2E2F0" height="26.0969" rx="2" ry="2" style="stroke:#181818;stroke-width:0.4000000000000001;" width="242.7523" x="2138.1133" y="1085.0328"/><text fill="#000000" font-family="sans-serif" font-size="11.2" lengthAdjust="spacing" textLength="231.5523" x="2143.7133" y="1102.7188">displayedPropertyDTO:DisplayedPropertyDTO</text><polygon fill="#181818" points="2445.2848,1135.3625,2453.2848,1138.5625,2445.2848,1141.7625,2448.4848,1138.5625" style="stroke:#181818;stroke-width:0.8000000000000002;"/><line style="stroke:#181818;stroke-width:0.8000000000000002;" x1="1627.3094" x2="2450.0848" y1="1138.5625" y2="1138.5625"/><text fill="#000000" font-family="sans-serif" font-size="10.4" font-weight="bold" lengthAdjust="spacing" textLength="11.568" x="1632.9094" y="1134.3523">38</text><text fill="#000000" font-family="sans-serif" font-size="10.4" lengthAdjust="spacing" textLength="129.477" x="1647.6773" y="1134.3523">add(displayedPropertyDTO)</text><polygon fill="#181818" points="397.4055,1189.9953,389.4055,1193.1953,397.4055,1196.3953,394.2055,1193.1953" style="stroke:#181818;stroke-width:0.8000000000000002;"/><line style="stroke:#181818;stroke-width:0.8000000000000002;stroke-dasharray:2.0,2.0;" x1="392.6055" x2="1622.5094" y1="1193.1953" y2="1193.1953"/><text fill="#000000" font-family="sans-serif" font-size="10.4" font-weight="bold" lengthAdjust="spacing" textLength="11.568" x="402.2055" y="1188.9852">39</text><text fill="#000000" font-family="sans-serif" font-size="10.4" lengthAdjust="spacing" textLength="119.6355" x="416.9734" y="1188.9852">listDisplayedPropertyDTO</text><polygon fill="#181818" points="221.0254,1215.0281,213.0254,1218.2281,221.0254,1221.4281,217.8254,1218.2281" style="stroke:#181818;stroke-width:0.8000000000000002;"/><line style="stroke:#181818;stroke-width:0.8000000000000002;stroke-dasharray:2.0,2.0;" x1="216.2254" x2="383.8055" y1="1218.2281" y2="1218.2281"/><text fill="#000000" font-family="sans-serif" font-size="10.4" font-weight="bold" lengthAdjust="spacing" textLength="11.568" x="225.8254" y="1214.018">40</text><text fill="#000000" font-family="sans-serif" font-size="10.4" lengthAdjust="spacing" textLength="119.6355" x="240.5934" y="1214.018">listDisplayedPropertyDTO</text><polygon fill="#181818" points="31.0234,1240.0609,23.0234,1243.2609,31.0234,1246.4609,27.8234,1243.2609" style="stroke:#181818;stroke-width:0.8000000000000002;"/><line style="stroke:#181818;stroke-width:0.8000000000000002;stroke-dasharray:2.0,2.0;" x1="26.2234" x2="207.4254" y1="1243.2609" y2="1243.2609"/><text fill="#000000" font-family="sans-serif" font-size="10.4" font-weight="bold" lengthAdjust="spacing" textLength="11.568" x="35.8234" y="1239.0508">41</text><text fill="#000000" font-family="sans-serif" font-size="10.4" lengthAdjust="spacing" textLength="105.7824" x="50.5914" y="1239.0508">shows listed properties</text><!--SRC=[jLRBRjim4BphAnQ-n0cakkXHA0Ga3We4ID4WZzvfQHCJaKIMf1BuxxjyI1OLoUcbEGHypCuCTycLp_R6I9rlDh9chUcQ-aifcet6Fnss9MOLPo-ADKbYkAaHdXw-VStXccj27w3csc05KWc9od3KIS8w8rXf-1ip2A9ryxPhTgXehpH2mUf9ere1qs07YMGKMN99uh3A0_Ej8xuRU7zpVFSXD_yMi1MjKQAkWzBMg7eIk1KDZGv-suzZnBEpUyZlKGhDxV27Nt4XOHo7q7dUU8dvPVLcRMXii3KFVj55XN4SfKWW3ZbAkYWxdRYFu0uKhKpG8I-UhPzCCFUeUKKbxoN3R3xTGweFFvcK8Sb-cBWw-_gx0YVsFsG5rIu7PU-LDc04L8kNwEacAsp5SdX1Cwti-ZonUuJmHNEWkOHRe8TaHQXMFeKU4qte0Cf6rBOqHvP0V76HGwcG3hYs-qUPtdMu1i5dY7BQTKqwOI4hhBgtxzRjD2jMDX-vFVNto6gn6ka6y97SPN5WxesunM33LoVt1DUFlwm2yVZb8FkXkeJpLkPsdAF1K20Aqk8rIMeX93pJYqTMxk4iEiqPy3Qo5-swf3mU95vrchUeRT4Zm712CmATPEfzdsGQdiOIqvto5skUGjhTv4ImPxyqHl5TP_3ZiOeUusuBfPOG_L8svMIqVoh-LfJCSD6UugW3Pf776X-Q0J49QOOE0bm3Qs4lEaszNW6plSArdq6l668TqnLMIeX6kmiSDhAnsYu0bXcOsNz2qICMEUwOUkNjouDa9Ixoo35eEO6zuVIecyQXs5P0MLkuCxQ8AVHbI66E3sB2w3qRGIznFNu6wVWcf-vEfavb41aq5YoFka8rrn7cci6e5_mtCqijQaLfhAhrdDVpfCB-S-GgOPlIf5V14g_FT5RO3zSYXZvMXA2MJtr_Bzxrt8-YqTzV]--></g></svg>