<svg xmlns="http://www.w3.org/2000/svg" xmlns:xlink="http://www.w3.org/1999/xlink" contentStyleType="text/css" height="684px" preserveAspectRatio="none" style="width:1156px;height:684px;background:#FFFFFF;" version="1.1" viewBox="0 0 1156 684" width="1156px" zoomAndPan="magnify"><title>US20: Class Diagrams</title><defs/><g><text fill="#000000" font-family="sans-serif" font-size="14" font-weight="bold" lengthAdjust="spacing" textLength="148.627" x="497.0508" y="25.1074">US20: Class Diagrams</text><!--class DisplayListedPropertiesView--><g id="elem_DisplayListedPropertiesView"><rect codeLine="9" fill="#F1F1F1" height="44.6211" id="DisplayListedPropertiesView" rx="2.5" ry="2.5" style="stroke:#181818;stroke-width:0.5;" width="183.4131" x="305" y="46.6211"/><text fill="#000000" font-family="sans-serif" font-size="14" lengthAdjust="spacing" textLength="177.4131" x="308" y="66.7285">DisplayListedPropertiesView</text><line style="stroke:#181818;stroke-width:0.5;" x1="306" x2="487.4131" y1="75.2422" y2="75.2422"/><line style="stroke:#181818;stroke-width:0.5;" x1="306" x2="487.4131" y1="83.2422" y2="83.2422"/></g><!--class DisplayListedPropertiesController--><g id="elem_DisplayListedPropertiesController"><rect codeLine="12" fill="#F1F1F1" height="63.2422" id="DisplayListedPropertiesController" rx="2.5" ry="2.5" style="stroke:#181818;stroke-width:0.5;" width="213.7578" x="289.5" y="151.6211"/><text fill="#000000" font-family="sans-serif" font-size="14" lengthAdjust="spacing" textLength="207.7578" x="292.5" y="171.7285">DisplayListedPropertiesController</text><line style="stroke:#181818;stroke-width:0.5;" x1="290.5" x2="502.2578" y1="180.2422" y2="180.2422"/><line style="stroke:#181818;stroke-width:0.5;" x1="290.5" x2="502.2578" y1="188.2422" y2="188.2422"/><text fill="#000000" font-family="sans-serif" font-size="14" lengthAdjust="spacing" textLength="138.127" x="295.5" y="207.3496">+getListedProperties()</text></g><!--class Company--><g id="elem_Company"><rect codeLine="17" fill="#F1F1F1" height="81.8633" id="Company" rx="2.5" ry="2.5" style="stroke:#181818;stroke-width:0.5;" width="185.127" x="97" y="283.6211"/><text fill="#000000" font-family="sans-serif" font-size="14" lengthAdjust="spacing" textLength="59.917" x="159.605" y="303.7285">Company</text><line style="stroke:#181818;stroke-width:0.5;" x1="98" x2="281.127" y1="312.2422" y2="312.2422"/><line style="stroke:#181818;stroke-width:0.5;" x1="98" x2="281.127" y1="320.2422" y2="320.2422"/><text fill="#000000" font-family="sans-serif" font-size="14" lengthAdjust="spacing" textLength="173.127" x="103" y="339.3496">+getAdvertisementService()</text><text fill="#000000" font-family="sans-serif" font-size="14" lengthAdjust="spacing" textLength="56.4102" x="103" y="357.9707">+create()</text></g><!--class RepositoryFactory--><g id="elem_RepositoryFactory"><rect codeLine="22" fill="#F1F1F1" height="63.2422" id="RepositoryFactory" rx="2.5" ry="2.5" style="stroke:#181818;stroke-width:0.5;" width="197.1855" x="7" y="444.1211"/><text fill="#000000" font-family="sans-serif" font-size="14" lengthAdjust="spacing" textLength="113.5928" x="48.7964" y="464.2285">RepositoryFactory</text><line style="stroke:#181818;stroke-width:0.5;" x1="8" x2="203.1855" y1="472.7422" y2="472.7422"/><line style="stroke:#181818;stroke-width:0.5;" x1="8" x2="203.1855" y1="480.7422" y2="480.7422"/><text fill="#000000" font-family="sans-serif" font-size="14" lengthAdjust="spacing" textLength="185.1855" x="13" y="499.8496">getAdvertisementRepository()</text></g><!--class AdvertisementService--><g id="elem_AdvertisementService"><rect codeLine="26" fill="#F1F1F1" height="81.8633" id="AdvertisementService" rx="2.5" ry="2.5" style="stroke:#181818;stroke-width:0.5;" width="142.165" x="239.5" y="434.6211"/><text fill="#000000" font-family="sans-serif" font-size="14" lengthAdjust="spacing" textLength="136.165" x="242.5" y="454.7285">AdvertisementService</text><line style="stroke:#181818;stroke-width:0.5;" x1="240.5" x2="380.665" y1="463.2422" y2="463.2422"/><line style="stroke:#181818;stroke-width:0.5;" x1="240.5" x2="380.665" y1="471.2422" y2="471.2422"/><text fill="#000000" font-family="sans-serif" font-size="14" lengthAdjust="spacing" textLength="52.5205" x="245.5" y="490.3496">+getAll()</text><text fill="#000000" font-family="sans-serif" font-size="14" lengthAdjust="spacing" textLength="84.4307" x="245.5" y="508.9707">+create(repo)</text></g><!--class Advertisement--><g id="elem_Advertisement"><rect codeLine="31" fill="#F1F1F1" height="100.4844" id="Advertisement" rx="2.5" ry="2.5" style="stroke:#181818;stroke-width:0.5;" width="136.8926" x="389" y="274.6211"/><text fill="#000000" font-family="sans-serif" font-size="14" lengthAdjust="spacing" textLength="89.4824" x="412.7051" y="294.7285">Advertisement</text><line style="stroke:#181818;stroke-width:0.5;" x1="390" x2="524.8926" y1="303.2422" y2="303.2422"/><line style="stroke:#181818;stroke-width:0.5;" x1="390" x2="524.8926" y1="311.2422" y2="311.2422"/><text fill="#000000" font-family="sans-serif" font-size="14" lengthAdjust="spacing" textLength="124.8926" x="395" y="330.3496">+getTypeBusiness()</text><text fill="#000000" font-family="sans-serif" font-size="14" lengthAdjust="spacing" textLength="120.9961" x="395" y="348.9707">+getTypeProperty()</text><text fill="#000000" font-family="sans-serif" font-size="14" lengthAdjust="spacing" textLength="68.8584" x="395" y="367.5918">+getPrice()</text></g><!--class AdvertisementRepository--><g id="elem_AdvertisementRepository"><rect codeLine="36" fill="#F1F1F1" height="63.2422" id="AdvertisementRepository" rx="2.5" ry="2.5" style="stroke:#181818;stroke-width:0.5;" width="162.3994" x="221.5" y="595.1211"/><text fill="#000000" font-family="sans-serif" font-size="14" lengthAdjust="spacing" textLength="156.3994" x="224.5" y="615.2285">AdvertisementRepository</text><line style="stroke:#181818;stroke-width:0.5;" x1="222.5" x2="382.8994" y1="623.7422" y2="623.7422"/><line style="stroke:#181818;stroke-width:0.5;" x1="222.5" x2="382.8994" y1="631.7422" y2="631.7422"/><text fill="#000000" font-family="sans-serif" font-size="14" lengthAdjust="spacing" textLength="52.5205" x="227.5" y="650.8496">+getAll()</text></g><!--class Property--><g id="elem_Property"><rect codeLine="39" fill="#F1F1F1" height="81.8633" id="Property" rx="2.5" ry="2.5" style="stroke:#181818;stroke-width:0.5;" width="101.8926" x="431.5" y="434.6211"/><text fill="#000000" font-family="sans-serif" font-size="14" lengthAdjust="spacing" textLength="52.9102" x="455.9912" y="454.7285">Property</text><line style="stroke:#181818;stroke-width:0.5;" x1="432.5" x2="532.3926" y1="463.2422" y2="463.2422"/><line style="stroke:#181818;stroke-width:0.5;" x1="432.5" x2="532.3926" y1="471.2422" y2="471.2422"/><text fill="#000000" font-family="sans-serif" font-size="14" lengthAdjust="spacing" textLength="66.5342" x="437.5" y="490.3496">+getArea()</text><text fill="#000000" font-family="sans-serif" font-size="14" lengthAdjust="spacing" textLength="89.8926" x="437.5" y="508.9707">+getLocation()</text></g><!--class Residency--><g id="elem_Residency"><rect codeLine="44" fill="#F1F1F1" height="100.4844" id="Residency" rx="2.5" ry="2.5" style="stroke:#181818;stroke-width:0.5;" width="143.127" x="419" y="576.6211"/><text fill="#000000" font-family="sans-serif" font-size="14" lengthAdjust="spacing" textLength="65.3652" x="457.8809" y="596.7285">Residency</text><line style="stroke:#181818;stroke-width:0.5;" x1="420" x2="561.127" y1="605.2422" y2="605.2422"/><line style="stroke:#181818;stroke-width:0.5;" x1="420" x2="561.127" y1="613.2422" y2="613.2422"/><text fill="#000000" font-family="sans-serif" font-size="14" lengthAdjust="spacing" textLength="100.7686" x="425" y="632.3496">+getBedrooms()</text><text fill="#000000" font-family="sans-serif" font-size="14" lengthAdjust="spacing" textLength="104.6582" x="425" y="650.9707">+getBathrooms()</text><text fill="#000000" font-family="sans-serif" font-size="14" lengthAdjust="spacing" textLength="131.127" x="425" y="669.5918">+getParkingSpaces()</text></g><!--class DisplayedPropertyMapper--><g id="elem_DisplayedPropertyMapper"><rect codeLine="50" fill="#F1F1F1" height="81.8633" id="DisplayedPropertyMapper" rx="2.5" ry="2.5" style="stroke:#181818;stroke-width:0.5;" width="588.2285" x="561.5" y="283.6211"/><text fill="#000000" font-family="sans-serif" font-size="14" lengthAdjust="spacing" textLength="161.8545" x="774.687" y="303.7285">DisplayedPropertyMapper</text><line style="stroke:#181818;stroke-width:0.5;" x1="562.5" x2="1148.7285" y1="312.2422" y2="312.2422"/><line style="stroke:#181818;stroke-width:0.5;" x1="562.5" x2="1148.7285" y1="320.2422" y2="320.2422"/><text fill="#000000" font-family="sans-serif" font-size="14" lengthAdjust="spacing" textLength="576.2285" x="567.5" y="339.3496">+toDTO(typeBusiness,typeProperty,price,area,location,bedrooms,bathrooms,parkingSpaces)</text><text fill="#000000" font-family="sans-serif" font-size="14" lengthAdjust="spacing" textLength="107.748" x="567.5" y="357.9707">+createDTOList()</text></g><!--link DisplayListedPropertiesView to DisplayListedPropertiesController--><g id="link_DisplayListedPropertiesView_DisplayListedPropertiesController"><path codeLine="55" d="M396.5,91.7111 C396.5,108.6211 396.5,126.3611 396.5,145.2711 " fill="none" id="DisplayListedPropertiesView-to-DisplayListedPropertiesController" style="stroke:#181818;stroke-width:1.0;stroke-dasharray:7.0,7.0;"/><polygon fill="#181818" points="396.5,151.2711,400.5,142.2711,396.5,146.2711,392.5,142.2711,396.5,151.2711" style="stroke:#181818;stroke-width:1.0;"/></g><!--link DisplayListedPropertiesController to Company--><g id="link_DisplayListedPropertiesController_Company"><path codeLine="56" d="M351.07,214.7311 C321.08,234.9511 286.4453,258.2875 253.9553,280.1875 " fill="none" id="DisplayListedPropertiesController-to-Company" style="stroke:#181818;stroke-width:1.0;stroke-dasharray:7.0,7.0;"/><polygon fill="#181818" points="248.98,283.5411,258.6786,281.8275,253.1261,280.7464,254.2072,275.1938,248.98,283.5411" style="stroke:#181818;stroke-width:1.0;"/></g><!--link Company to RepositoryFactory--><g id="link_Company_RepositoryFactory"><path codeLine="57" d="M166.77,365.9411 C152.97,390.4211 138.5771,415.9547 125.8671,438.4947 " fill="none" id="Company-to-RepositoryFactory" style="stroke:#181818;stroke-width:1.0;stroke-dasharray:7.0,7.0;"/><polygon fill="#181818" points="122.92,443.7211,130.8248,437.8463,125.3759,439.3658,123.8564,433.9168,122.92,443.7211" style="stroke:#181818;stroke-width:1.0;"/></g><!--link Company to AdvertisementService--><g id="link_Company_AdvertisementService"><path codeLine="58" d="M222.24,365.9411 C239.53,387.2311 256.8972,408.6138 274.1572,429.8638 " fill="none" id="Company-to-AdvertisementService" style="stroke:#181818;stroke-width:1.0;stroke-dasharray:7.0,7.0;"/><polygon fill="#181818" points="277.94,434.5211,275.3706,425.0133,274.7877,430.64,269.1609,430.057,277.94,434.5211" style="stroke:#181818;stroke-width:1.0;"/></g><!--link DisplayListedPropertiesController to AdvertisementService--><g id="link_DisplayListedPropertiesController_AdvertisementService"><path codeLine="59" d="M387.46,214.6611 C371.85,267.3911 341.5429,369.7578 324.1329,428.5778 " fill="none" id="DisplayListedPropertiesController-to-AdvertisementService" style="stroke:#181818;stroke-width:1.0;stroke-dasharray:7.0,7.0;"/><polygon fill="#181818" points="322.43,434.3311,328.8199,426.8365,323.8491,429.5367,321.1488,424.5659,322.43,434.3311" style="stroke:#181818;stroke-width:1.0;"/></g><!--link AdvertisementService to AdvertisementRepository--><g id="link_AdvertisementService_AdvertisementRepository"><path codeLine="60" d="M308.34,516.9411 C307.02,541.4211 305.6916,566.1897 304.4816,588.7297 " fill="none" id="AdvertisementService-to-AdvertisementRepository" style="stroke:#181818;stroke-width:1.0;stroke-dasharray:7.0,7.0;"/><polygon fill="#181818" points="304.16,594.7211,308.6367,585.9485,304.428,589.7283,300.6482,585.5196,304.16,594.7211" style="stroke:#181818;stroke-width:1.0;"/></g><!--link DisplayListedPropertiesController to Advertisement--><g id="link_DisplayListedPropertiesController_Advertisement"><path codeLine="61" d="M409.89,214.7311 C417.53,232.2211 424.8978,249.0529 433.5878,268.9429 " fill="none" id="DisplayListedPropertiesController-to-Advertisement" style="stroke:#181818;stroke-width:1.0;stroke-dasharray:7.0,7.0;"/><polygon fill="#181818" points="435.99,274.4411,436.0522,264.5924,433.9882,269.8593,428.7213,267.7953,435.99,274.4411" style="stroke:#181818;stroke-width:1.0;"/></g><!--link Advertisement to Property--><g id="link_Advertisement_Property"><path codeLine="62" d="M465.76,374.8211 C469,394.1511 471.6773,410.1338 474.7573,428.4938 " fill="none" id="Advertisement-to-Property" style="stroke:#181818;stroke-width:1.0;"/><polygon fill="#181818" points="475.75,434.4111,478.2059,424.8733,474.9228,429.48,470.3161,426.1969,475.75,434.4111" style="stroke:#181818;stroke-width:1.0;"/></g><!--link DisplayListedPropertiesController to DisplayedPropertyMapper--><g id="link_DisplayListedPropertiesController_DisplayedPropertyMapper"><path codeLine="63" d="M496.95,214.6511 C563.56,234.8911 645.9394,259.9261 718.1494,281.8761 " fill="none" id="DisplayListedPropertiesController-to-DisplayedPropertyMapper" style="stroke:#181818;stroke-width:1.0;stroke-dasharray:7.0,7.0;"/><polygon fill="#181818" points="723.89,283.6211,716.4424,277.1765,719.1061,282.1669,714.1157,284.8307,723.89,283.6211" style="stroke:#181818;stroke-width:1.0;"/></g><!--reverse link Property to Residency--><g id="link_Property_Residency"><path codeLine="64" d="M485.6292,534.915 C486.6192,553.275 486.83,557.1911 487.86,576.5011 " fill="none" id="Property-backto-Residency" style="stroke:#181818;stroke-width:1.0;"/><polygon fill="none" points="484.66,516.9411,479.6379,535.238,491.6205,534.5919,484.66,516.9411" style="stroke:#181818;stroke-width:1.0;"/></g><!--SRC=[ZLHDRy8m3BtdL_Gs9bf0Ew89YGzDciGqjBBTGsf1j3I94iFKCVxxKfhIqfN1AOtzxFSSF_LkWwZjiD_NWahSfgB7LDfdWbeR9Pok3Kq9sV040iOD4q3i9vUQkd1m18qH3Lzj4PwPaZ7_Xc10278K4Bp73uDXCCrHmQnePGaXp0UiOypct28a2wCq6EHWFpXyxSdX2cgg91eb19WzwQu1c_dEFQbwJ5MggSmAv3ZPvH0BAKYCmUmu0uVkCWCKywzJsHjePJagaprHbXzxqgol8FN2DWfFBaIDoxZgIsK5Vfbfc6mjbs3paSgGdpFpeOKfPZYqDQearYMKqBAJppbTlkTSCOfSoVC7iSu6addq11AZL5eAcr3SrEyBQfnHrh6cxBYFvafFwyfUgDR7HQAQBLyxM1iwnDgueSu73QbJ6GglBrnv5U6gv0zrdVdqtAvrxf92oJ_cw_L6Lqr7hY9S5syxuayN-UEeMgxDD3VHj1Qs1PlOIirrdg1PVCuGHQDoIJTflc01Kbw3nvyeglpc_Xc_]--></g></svg>