<svg xmlns="http://www.w3.org/2000/svg" xmlns:xlink="http://www.w3.org/1999/xlink" contentStyleType="text/css" height="454px" preserveAspectRatio="none" style="width:1739px;height:454px;background:#FFFFFF;" version="1.1" viewBox="0 0 1739 454" width="1739px" zoomAndPan="magnify"><title>System Sequence Diagram for US21: Client Registration</title><defs/><g><text fill="#000000" font-family="sans-serif" font-size="14" font-weight="bold" lengthAdjust="spacing" textLength="399.9229" x="668.9856" y="28.5352">System Sequence Diagram for US21: Client Registration</text><rect fill="#FFFFFF" height="235.4844" style="stroke:#181818;stroke-width:1.0;" width="10" x="64.0005" y="128.9766"/><rect fill="#FFFFFF" height="205.1738" style="stroke:#181818;stroke-width:1.0;" width="10" x="640.2773" y="150.2871"/><rect fill="#FFFFFF" height="146.5527" style="stroke:#181818;stroke-width:1.0;" width="10" x="1178.3223" y="179.5977"/><rect fill="#FFFFFF" height="29.3105" style="stroke:#181818;stroke-width:1.0;" width="10" x="1364.2627" y="208.9082"/><rect fill="#FFFFFF" height="29.3105" style="stroke:#181818;stroke-width:1.0;" width="10" x="1699.9268" y="267.5293"/><line style="stroke:#181818;stroke-width:0.5;stroke-dasharray:5.0,5.0;" x1="69" x2="69" y1="118.9766" y2="373.4609"/><line style="stroke:#181818;stroke-width:0.5;stroke-dasharray:5.0,5.0;" x1="644.4165" x2="644.4165" y1="118.9766" y2="373.4609"/><line style="stroke:#181818;stroke-width:0.5;stroke-dasharray:5.0,5.0;" x1="1183.1104" x2="1183.1104" y1="118.9766" y2="373.4609"/><line style="stroke:#181818;stroke-width:0.5;stroke-dasharray:5.0,5.0;" x1="1368.999" x2="1368.999" y1="118.9766" y2="373.4609"/><line style="stroke:#181818;stroke-width:0.5;stroke-dasharray:5.0,5.0;" x1="1703.9595" x2="1703.9595" y1="118.9766" y2="373.4609"/><text fill="#000000" font-family="sans-serif" font-size="14" lengthAdjust="spacing" textLength="122.001" x="5" y="116.0234">Unregistered User</text><ellipse cx="69.0005" cy="50.9883" fill="#E2E2F0" rx="8" ry="8" style="stroke:#181818;stroke-width:0.5;"/><path d="M69.0005,58.9883 L69.0005,85.9883 M56.0005,66.9883 L82.0005,66.9883 M69.0005,85.9883 L56.0005,100.9883 M69.0005,85.9883 L82.0005,100.9883 " fill="none" style="stroke:#181818;stroke-width:0.5;"/><text fill="#000000" font-family="sans-serif" font-size="14" lengthAdjust="spacing" textLength="122.001" x="5" y="385.9961">Unregistered User</text><ellipse cx="69.0005" cy="397.4492" fill="#E2E2F0" rx="8" ry="8" style="stroke:#181818;stroke-width:0.5;"/><path d="M69.0005,405.4492 L69.0005,432.4492 M56.0005,413.4492 L82.0005,413.4492 M69.0005,432.4492 L56.0005,447.4492 M69.0005,432.4492 L82.0005,447.4492 " fill="none" style="stroke:#181818;stroke-width:0.5;"/><rect fill="#E2E2F0" height="30.4883" rx="2.5" ry="2.5" style="stroke:#181818;stroke-width:0.5;" width="89.7217" x="600.4165" y="87.4883"/><text fill="#000000" font-family="sans-serif" font-size="14" lengthAdjust="spacing" textLength="75.7217" x="607.4165" y="108.0234">:ClientView</text><rect fill="#E2E2F0" height="30.4883" rx="2.5" ry="2.5" style="stroke:#181818;stroke-width:0.5;" width="89.7217" x="600.4165" y="372.4609"/><text fill="#000000" font-family="sans-serif" font-size="14" lengthAdjust="spacing" textLength="75.7217" x="607.4165" y="392.9961">:ClientView</text><rect fill="#E2E2F0" height="30.4883" rx="2.5" ry="2.5" style="stroke:#181818;stroke-width:0.5;" width="168.4238" x="1099.1104" y="87.4883"/><text fill="#000000" font-family="sans-serif" font-size="14" lengthAdjust="spacing" textLength="154.4238" x="1106.1104" y="108.0234">:RegistrationController</text><rect fill="#E2E2F0" height="30.4883" rx="2.5" ry="2.5" style="stroke:#181818;stroke-width:0.5;" width="168.4238" x="1099.1104" y="372.4609"/><text fill="#000000" font-family="sans-serif" font-size="14" lengthAdjust="spacing" textLength="154.4238" x="1106.1104" y="392.9961">:RegistrationController</text><rect fill="#E2E2F0" height="30.4883" rx="2.5" ry="2.5" style="stroke:#181818;stroke-width:0.5;" width="66.5273" x="1335.999" y="87.4883"/><text fill="#000000" font-family="sans-serif" font-size="14" lengthAdjust="spacing" textLength="52.5273" x="1342.999" y="108.0234">:System</text><rect fill="#E2E2F0" height="30.4883" rx="2.5" ry="2.5" style="stroke:#181818;stroke-width:0.5;" width="66.5273" x="1335.999" y="372.4609"/><text fill="#000000" font-family="sans-serif" font-size="14" lengthAdjust="spacing" textLength="52.5273" x="1342.999" y="392.9961">:System</text><rect fill="#E2E2F0" height="30.4883" rx="2.5" ry="2.5" style="stroke:#181818;stroke-width:0.5;" width="57.9346" x="1675.9595" y="87.4883"/><text fill="#000000" font-family="sans-serif" font-size="14" lengthAdjust="spacing" textLength="43.9346" x="1682.9595" y="108.0234">:Client</text><rect fill="#E2E2F0" height="30.4883" rx="2.5" ry="2.5" style="stroke:#181818;stroke-width:0.5;" width="57.9346" x="1675.9595" y="372.4609"/><text fill="#000000" font-family="sans-serif" font-size="14" lengthAdjust="spacing" textLength="43.9346" x="1682.9595" y="392.9961">:Client</text><rect fill="#FFFFFF" height="235.4844" style="stroke:#181818;stroke-width:1.0;" width="10" x="64.0005" y="128.9766"/><rect fill="#FFFFFF" height="205.1738" style="stroke:#181818;stroke-width:1.0;" width="10" x="640.2773" y="150.2871"/><rect fill="#FFFFFF" height="146.5527" style="stroke:#181818;stroke-width:1.0;" width="10" x="1178.3223" y="179.5977"/><rect fill="#FFFFFF" height="29.3105" style="stroke:#181818;stroke-width:1.0;" width="10" x="1364.2627" y="208.9082"/><rect fill="#FFFFFF" height="29.3105" style="stroke:#181818;stroke-width:1.0;" width="10" x="1699.9268" y="267.5293"/><polygon fill="#181818" points="628.2773,146.2871,638.2773,150.2871,628.2773,154.2871,632.2773,150.2871" style="stroke:#181818;stroke-width:1.0;"/><line style="stroke:#181818;stroke-width:1.0;" x1="74.0005" x2="634.2773" y1="150.2871" y2="150.2871"/><text fill="#000000" font-family="sans-serif" font-size="13" font-weight="bold" lengthAdjust="spacing" textLength="8.5757" x="81.0005" y="145.5449">1</text><text fill="#000000" font-family="sans-serif" font-size="13" lengthAdjust="spacing" textLength="534.7012" x="93.5762" y="145.5449">Register new client (username, email, password, name, address, nif, contactNumber)</text><polygon fill="#181818" points="1166.3223,175.5977,1176.3223,179.5977,1166.3223,183.5977,1170.3223,179.5977" style="stroke:#181818;stroke-width:1.0;"/><line style="stroke:#181818;stroke-width:1.0;" x1="650.2773" x2="1172.3223" y1="179.5977" y2="179.5977"/><text fill="#000000" font-family="sans-serif" font-size="13" font-weight="bold" lengthAdjust="spacing" textLength="8.5757" x="657.2773" y="174.8555">2</text><text fill="#000000" font-family="sans-serif" font-size="13" lengthAdjust="spacing" textLength="496.4692" x="669.853" y="174.8555">registerClient(username, email, password, name, address, nif, contactNumber)</text><polygon fill="#181818" points="1352.2627,204.9082,1362.2627,208.9082,1352.2627,212.9082,1356.2627,208.9082" style="stroke:#181818;stroke-width:1.0;"/><line style="stroke:#181818;stroke-width:1.0;" x1="1188.3223" x2="1358.2627" y1="208.9082" y2="208.9082"/><text fill="#000000" font-family="sans-serif" font-size="13" font-weight="bold" lengthAdjust="spacing" textLength="8.5757" x="1195.3223" y="204.166">3</text><text fill="#000000" font-family="sans-serif" font-size="13" lengthAdjust="spacing" textLength="144.3647" x="1207.8979" y="204.166">generateInternalCode()</text><polygon fill="#181818" points="1199.3223,234.2188,1189.3223,238.2188,1199.3223,242.2188,1195.3223,238.2188" style="stroke:#181818;stroke-width:1.0;"/><line style="stroke:#181818;stroke-width:1.0;stroke-dasharray:2.0,2.0;" x1="1193.3223" x2="1368.2627" y1="238.2188" y2="238.2188"/><text fill="#000000" font-family="sans-serif" font-size="13" font-weight="bold" lengthAdjust="spacing" textLength="8.5757" x="1205.3223" y="233.4766">4</text><text fill="#000000" font-family="sans-serif" font-size="13" lengthAdjust="spacing" textLength="80.6597" x="1217.8979" y="233.4766">internalCode</text><polygon fill="#181818" points="1687.9268,263.5293,1697.9268,267.5293,1687.9268,271.5293,1691.9268,267.5293" style="stroke:#181818;stroke-width:1.0;"/><line style="stroke:#181818;stroke-width:1.0;" x1="1188.3223" x2="1693.9268" y1="267.5293" y2="267.5293"/><text fill="#000000" font-family="sans-serif" font-size="13" font-weight="bold" lengthAdjust="spacing" textLength="8.5757" x="1195.3223" y="262.7871">5</text><text fill="#000000" font-family="sans-serif" font-size="13" lengthAdjust="spacing" textLength="480.0288" x="1207.8979" y="262.7871">storeClient(username, email, password, name, address, nif, contactNumber)</text><polygon fill="#181818" points="1199.3223,292.8398,1189.3223,296.8398,1199.3223,300.8398,1195.3223,296.8398" style="stroke:#181818;stroke-width:1.0;"/><line style="stroke:#181818;stroke-width:1.0;stroke-dasharray:2.0,2.0;" x1="1193.3223" x2="1703.9268" y1="296.8398" y2="296.8398"/><text fill="#000000" font-family="sans-serif" font-size="13" font-weight="bold" lengthAdjust="spacing" textLength="8.5757" x="1205.3223" y="292.0977">6</text><text fill="#000000" font-family="sans-serif" font-size="13" lengthAdjust="spacing" textLength="80.5581" x="1217.8979" y="292.0977">confirmation</text><polygon fill="#181818" points="661.2773,322.1504,651.2773,326.1504,661.2773,330.1504,657.2773,326.1504" style="stroke:#181818;stroke-width:1.0;"/><line style="stroke:#181818;stroke-width:1.0;stroke-dasharray:2.0,2.0;" x1="655.2773" x2="1182.3223" y1="326.1504" y2="326.1504"/><text fill="#000000" font-family="sans-serif" font-size="13" font-weight="bold" lengthAdjust="spacing" textLength="8.5757" x="667.2773" y="321.4082">7</text><text fill="#000000" font-family="sans-serif" font-size="13" lengthAdjust="spacing" textLength="134.4941" x="679.853" y="321.4082">registration response</text><polygon fill="#181818" points="85.0005,351.4609,75.0005,355.4609,85.0005,359.4609,81.0005,355.4609" style="stroke:#181818;stroke-width:1.0;"/><line style="stroke:#181818;stroke-width:1.0;stroke-dasharray:2.0,2.0;" x1="79.0005" x2="644.2773" y1="355.4609" y2="355.4609"/><text fill="#000000" font-family="sans-serif" font-size="13" font-weight="bold" lengthAdjust="spacing" textLength="8.5757" x="91.0005" y="350.7188">8</text><text fill="#000000" font-family="sans-serif" font-size="13" lengthAdjust="spacing" textLength="343.8081" x="103.5762" y="350.7188">Registration confirmation with generated internalCode</text><!--SRC=[hL8zJmCn3DtpAwmkjD8T5OmPM8w5XO6gx27djf7oSIG-JlnxalWuseeDbiYndVUUdtDp8XgIt6u7gpoDpjxguBO9tqVq6jlUg6DKJWWoP15sdudGmMukmoENuH0Yx7VtTn8wQz0JlE3H98gAJF12g962qcG-527aHBdxqRrXp3LD-V5gxsDzWX5xs2UCAr2f1c9GaOmsGzO7Aya4hmQdsb62guvpxYvuYi7Q6Q-ZQA-wUQHQvV1NFdvTmogPHwdoH3cXVQXIv3nvpdYSGBCRwp6tUEMm0NJAs0O6bT8KOjy0frNVHqmfNysX0PrLPvBdQj565E12KDHB-FQ9rVmHka0MQ1vTmX4zPkVmoLE1jLteSRqHyzxRHOGvgoyWh4X2oXl5_v77_ltmvlh1HCV_YdaNv-FPtlCb3S4ddCtBJMLDyk9ZNg31PEYqpDzVJlW5]--></g></svg>