<svg xmlns="http://www.w3.org/2000/svg" xmlns:xlink="http://www.w3.org/1999/xlink" contentStyleType="text/css" height="694px" preserveAspectRatio="none" style="width:2005px;height:694px;background:#FFFFFF;" version="1.1" viewBox="0 0 2005 694" width="2005px" zoomAndPan="magnify"><title>US21: Register a New Client</title><defs/><g><text fill="#000000" font-family="sans-serif" font-size="14" font-weight="bold" lengthAdjust="spacing" textLength="199.9238" x="901.7527" y="28.5352">US21: Register a New Client</text><rect fill="#FFFFFF" height="475.5254" style="stroke:#181818;stroke-width:1.0;" width="10" x="64.0005" y="128.9766"/><rect fill="#FFFFFF" height="445.2148" style="stroke:#181818;stroke-width:1.0;" width="10" x="392.501" y="150.2871"/><rect fill="#FFFFFF" height="386.5938" style="stroke:#181818;stroke-width:1.0;" width="10" x="860.3599" y="179.5977"/><rect fill="#FFFFFF" height="29.3105" style="stroke:#181818;stroke-width:1.0;" width="10" x="1028.7617" y="208.9082"/><rect fill="#FFFFFF" height="70.7988" style="stroke:#181818;stroke-width:1.0;" width="10" x="1381.9644" y="267.5293"/><rect fill="#FFFFFF" height="40.3105" style="stroke:#181818;stroke-width:1.0;" width="10" x="1381.9644" y="375.6387"/><rect fill="#FFFFFF" height="40.3105" style="stroke:#181818;stroke-width:1.0;" width="10" x="1381.9644" y="460.2598"/><line style="stroke:#181818;stroke-width:0.5;stroke-dasharray:5.0,5.0;" x1="69" x2="69" y1="118.9766" y2="613.502"/><line style="stroke:#181818;stroke-width:0.5;stroke-dasharray:5.0,5.0;" x1="396.6401" x2="396.6401" y1="118.9766" y2="613.502"/><line style="stroke:#181818;stroke-width:0.5;stroke-dasharray:5.0,5.0;" x1="865.1479" x2="865.1479" y1="118.9766" y2="613.502"/><line style="stroke:#181818;stroke-width:0.5;stroke-dasharray:5.0,5.0;" x1="1033.5957" x2="1033.5957" y1="118.9766" y2="613.502"/><line style="stroke:#181818;stroke-width:0.5;stroke-dasharray:5.0,5.0;" x1="1386.0488" x2="1386.0488" y1="118.9766" y2="613.502"/><line style="stroke:#181818;stroke-width:0.5;stroke-dasharray:5.0,5.0;" x1="1949.0757" x2="1949.0757" y1="306.2734" y2="613.502"/><text fill="#000000" font-family="sans-serif" font-size="14" lengthAdjust="spacing" textLength="122.001" x="5" y="116.0234">Unregistered User</text><ellipse cx="69.0005" cy="50.9883" fill="#E2E2F0" rx="8" ry="8" style="stroke:#181818;stroke-width:0.5;"/><path d="M69.0005,58.9883 L69.0005,85.9883 M56.0005,66.9883 L82.0005,66.9883 M69.0005,85.9883 L56.0005,100.9883 M69.0005,85.9883 L82.0005,100.9883 " fill="none" style="stroke:#181818;stroke-width:0.5;"/><text fill="#000000" font-family="sans-serif" font-size="14" lengthAdjust="spacing" textLength="122.001" x="5" y="626.0371">Unregistered User</text><ellipse cx="69.0005" cy="637.4902" fill="#E2E2F0" rx="8" ry="8" style="stroke:#181818;stroke-width:0.5;"/><path d="M69.0005,645.4902 L69.0005,672.4902 M56.0005,653.4902 L82.0005,653.4902 M69.0005,672.4902 L56.0005,687.4902 M69.0005,672.4902 L82.0005,687.4902 " fill="none" style="stroke:#181818;stroke-width:0.5;"/><rect fill="#E2E2F0" height="30.4883" rx="2.5" ry="2.5" style="stroke:#181818;stroke-width:0.5;" width="89.7217" x="352.6401" y="87.4883"/><text fill="#000000" font-family="sans-serif" font-size="14" lengthAdjust="spacing" textLength="75.7217" x="359.6401" y="108.0234">:ClientView</text><rect fill="#E2E2F0" height="30.4883" rx="2.5" ry="2.5" style="stroke:#181818;stroke-width:0.5;" width="89.7217" x="352.6401" y="612.502"/><text fill="#000000" font-family="sans-serif" font-size="14" lengthAdjust="spacing" textLength="75.7217" x="359.6401" y="633.0371">:ClientView</text><rect fill="#E2E2F0" height="30.4883" rx="2.5" ry="2.5" style="stroke:#181818;stroke-width:0.5;" width="168.4238" x="781.1479" y="87.4883"/><text fill="#000000" font-family="sans-serif" font-size="14" lengthAdjust="spacing" textLength="154.4238" x="788.1479" y="108.0234">:RegistrationController</text><rect fill="#E2E2F0" height="30.4883" rx="2.5" ry="2.5" style="stroke:#181818;stroke-width:0.5;" width="168.4238" x="781.1479" y="612.502"/><text fill="#000000" font-family="sans-serif" font-size="14" lengthAdjust="spacing" textLength="154.4238" x="788.1479" y="633.0371">:RegistrationController</text><rect fill="#E2E2F0" height="30.4883" rx="2.5" ry="2.5" style="stroke:#181818;stroke-width:0.5;" width="82.332" x="992.5957" y="87.4883"/><text fill="#000000" font-family="sans-serif" font-size="14" lengthAdjust="spacing" textLength="68.332" x="999.5957" y="108.0234">:Company</text><rect fill="#E2E2F0" height="30.4883" rx="2.5" ry="2.5" style="stroke:#181818;stroke-width:0.5;" width="82.332" x="992.5957" y="612.502"/><text fill="#000000" font-family="sans-serif" font-size="14" lengthAdjust="spacing" textLength="68.332" x="999.5957" y="633.0371">:Company</text><rect fill="#E2E2F0" height="30.4883" rx="2.5" ry="2.5" style="stroke:#181818;stroke-width:0.5;" width="187.8311" x="1293.0488" y="87.4883"/><text fill="#000000" font-family="sans-serif" font-size="14" lengthAdjust="spacing" textLength="173.8311" x="1300.0488" y="108.0234">container:ClientContainer</text><rect fill="#E2E2F0" height="30.4883" rx="2.5" ry="2.5" style="stroke:#181818;stroke-width:0.5;" width="187.8311" x="1293.0488" y="612.502"/><text fill="#000000" font-family="sans-serif" font-size="14" lengthAdjust="spacing" textLength="173.8311" x="1300.0488" y="633.0371">container:ClientContainer</text><rect fill="#E2E2F0" height="30.4883" rx="2.5" ry="2.5" style="stroke:#181818;stroke-width:0.5;" width="99.3535" x="1900.0757" y="612.502"/><text fill="#000000" font-family="sans-serif" font-size="14" lengthAdjust="spacing" textLength="85.3535" x="1907.0757" y="633.0371">client: Client</text><rect fill="#FFFFFF" height="475.5254" style="stroke:#181818;stroke-width:1.0;" width="10" x="64.0005" y="128.9766"/><rect fill="#FFFFFF" height="445.2148" style="stroke:#181818;stroke-width:1.0;" width="10" x="392.501" y="150.2871"/><rect fill="#FFFFFF" height="386.5938" style="stroke:#181818;stroke-width:1.0;" width="10" x="860.3599" y="179.5977"/><rect fill="#FFFFFF" height="29.3105" style="stroke:#181818;stroke-width:1.0;" width="10" x="1028.7617" y="208.9082"/><rect fill="#FFFFFF" height="70.7988" style="stroke:#181818;stroke-width:1.0;" width="10" x="1381.9644" y="267.5293"/><rect fill="#FFFFFF" height="40.3105" style="stroke:#181818;stroke-width:1.0;" width="10" x="1381.9644" y="375.6387"/><rect fill="#FFFFFF" height="40.3105" style="stroke:#181818;stroke-width:1.0;" width="10" x="1381.9644" y="460.2598"/><polygon fill="#181818" points="380.501,146.2871,390.501,150.2871,380.501,154.2871,384.501,150.2871" style="stroke:#181818;stroke-width:1.0;"/><line style="stroke:#181818;stroke-width:1.0;" x1="74.0005" x2="386.501" y1="150.2871" y2="150.2871"/><text fill="#000000" font-family="sans-serif" font-size="13" font-weight="bold" lengthAdjust="spacing" textLength="8.5757" x="81.0005" y="145.5449">1</text><text fill="#000000" font-family="sans-serif" font-size="13" lengthAdjust="spacing" textLength="184.9961" x="93.5762" y="145.5449">request to register new client</text><polygon fill="#181818" points="848.3599,175.5977,858.3599,179.5977,848.3599,183.5977,852.3599,179.5977" style="stroke:#181818;stroke-width:1.0;"/><line style="stroke:#181818;stroke-width:1.0;" x1="402.501" x2="854.3599" y1="179.5977" y2="179.5977"/><text fill="#000000" font-family="sans-serif" font-size="13" font-weight="bold" lengthAdjust="spacing" textLength="8.5757" x="409.501" y="174.8555">2</text><text fill="#000000" font-family="sans-serif" font-size="13" lengthAdjust="spacing" textLength="426.2832" x="422.0767" y="174.8555">registerClient(citizenCardNumber, phoneNumber, name, email, TIF)</text><polygon fill="#181818" points="1016.7617,204.9082,1026.7617,208.9082,1016.7617,212.9082,1020.7617,208.9082" style="stroke:#181818;stroke-width:1.0;"/><line style="stroke:#181818;stroke-width:1.0;" x1="870.3599" x2="1022.7617" y1="208.9082" y2="208.9082"/><text fill="#000000" font-family="sans-serif" font-size="13" font-weight="bold" lengthAdjust="spacing" textLength="8.5757" x="877.3599" y="204.166">3</text><text fill="#000000" font-family="sans-serif" font-size="13" lengthAdjust="spacing" textLength="126.8262" x="889.9355" y="204.166">getClientContainer()</text><polygon fill="#181818" points="881.3599,234.2188,871.3599,238.2188,881.3599,242.2188,877.3599,238.2188" style="stroke:#181818;stroke-width:1.0;"/><line style="stroke:#181818;stroke-width:1.0;stroke-dasharray:2.0,2.0;" x1="875.3599" x2="1032.7617" y1="238.2188" y2="238.2188"/><text fill="#000000" font-family="sans-serif" font-size="13" font-weight="bold" lengthAdjust="spacing" textLength="8.5757" x="887.3599" y="233.4766">4</text><text fill="#000000" font-family="sans-serif" font-size="13" lengthAdjust="spacing" textLength="95.8242" x="899.9355" y="233.4766">clientContainer</text><polygon fill="#181818" points="1369.9644,263.5293,1379.9644,267.5293,1369.9644,271.5293,1373.9644,267.5293" style="stroke:#181818;stroke-width:1.0;"/><line style="stroke:#181818;stroke-width:1.0;" x1="870.3599" x2="1375.9644" y1="267.5293" y2="267.5293"/><text fill="#000000" font-family="sans-serif" font-size="13" font-weight="bold" lengthAdjust="spacing" textLength="8.5757" x="877.3599" y="262.7871">5</text><text fill="#000000" font-family="sans-serif" font-size="13" lengthAdjust="spacing" textLength="480.0288" x="889.9355" y="262.7871">storeClient(username, email, password, name, address, nif, contactNumber)</text><polygon fill="#181818" points="1888.0757,292.8398,1898.0757,296.8398,1888.0757,300.8398,1892.0757,296.8398" style="stroke:#181818;stroke-width:1.0;"/><line style="stroke:#181818;stroke-width:1.0;stroke-dasharray:2.0,2.0;" x1="1391.9644" x2="1894.0757" y1="296.8398" y2="296.8398"/><text fill="#000000" font-family="sans-serif" font-size="13" font-weight="bold" lengthAdjust="spacing" textLength="8.5757" x="1398.9644" y="292.0977">6</text><text fill="#000000" font-family="sans-serif" font-size="13" lengthAdjust="spacing" textLength="471.5356" x="1411.54" y="292.0977">addClient(username, email, password, name, address, nif, contactNumber)</text><rect fill="#E2E2F0" height="30.4883" rx="2.5" ry="2.5" style="stroke:#181818;stroke-width:0.5;" width="99.3535" x="1900.0757" y="275.5293"/><text fill="#000000" font-family="sans-serif" font-size="14" lengthAdjust="spacing" textLength="85.3535" x="1907.0757" y="296.0645">client: Client</text><polygon fill="#181818" points="881.3599,334.3281,871.3599,338.3281,881.3599,342.3281,877.3599,338.3281" style="stroke:#181818;stroke-width:1.0;"/><line style="stroke:#181818;stroke-width:1.0;stroke-dasharray:2.0,2.0;" x1="875.3599" x2="1385.9644" y1="338.3281" y2="338.3281"/><text fill="#000000" font-family="sans-serif" font-size="13" font-weight="bold" lengthAdjust="spacing" textLength="8.5757" x="887.3599" y="333.5859">7</text><text fill="#000000" font-family="sans-serif" font-size="13" lengthAdjust="spacing" textLength="80.5581" x="899.9355" y="333.5859">confirmation</text><line style="stroke:#181818;stroke-width:1.0;" x1="1386.9644" x2="1433.9644" y1="362.6387" y2="362.6387"/><line style="stroke:#181818;stroke-width:1.0;" x1="1433.9644" x2="1433.9644" y1="362.6387" y2="375.6387"/><line style="stroke:#181818;stroke-width:1.0;" x1="1392.9644" x2="1433.9644" y1="375.6387" y2="375.6387"/><polygon fill="#181818" points="1402.9644,371.6387,1392.9644,375.6387,1402.9644,379.6387,1398.9644,375.6387" style="stroke:#181818;stroke-width:1.0;"/><text fill="#000000" font-family="sans-serif" font-size="13" font-weight="bold" lengthAdjust="spacing" textLength="8.5757" x="1398.9644" y="357.8965">8</text><text fill="#000000" font-family="sans-serif" font-size="13" lengthAdjust="spacing" textLength="91.6919" x="1411.54" y="357.8965">validate(client)</text><line style="stroke:#181818;stroke-width:1.0;stroke-dasharray:2.0,2.0;" x1="1391.9644" x2="1433.9644" y1="414.9492" y2="414.9492"/><line style="stroke:#181818;stroke-width:1.0;stroke-dasharray:2.0,2.0;" x1="1433.9644" x2="1433.9644" y1="414.9492" y2="427.9492"/><line style="stroke:#181818;stroke-width:1.0;stroke-dasharray:2.0,2.0;" x1="1386.9644" x2="1433.9644" y1="427.9492" y2="427.9492"/><polygon fill="#181818" points="1396.9644,423.9492,1386.9644,427.9492,1396.9644,431.9492,1392.9644,427.9492" style="stroke:#181818;stroke-width:1.0;"/><text fill="#000000" font-family="sans-serif" font-size="13" font-weight="bold" lengthAdjust="spacing" textLength="8.5757" x="1398.9644" y="410.207">9</text><text fill="#000000" font-family="sans-serif" font-size="13" lengthAdjust="spacing" textLength="15.5835" x="1411.54" y="410.207">ok</text><line style="stroke:#181818;stroke-width:1.0;" x1="1386.9644" x2="1433.9644" y1="447.2598" y2="447.2598"/><line style="stroke:#181818;stroke-width:1.0;" x1="1433.9644" x2="1433.9644" y1="447.2598" y2="460.2598"/><line style="stroke:#181818;stroke-width:1.0;" x1="1392.9644" x2="1433.9644" y1="460.2598" y2="460.2598"/><polygon fill="#181818" points="1402.9644,456.2598,1392.9644,460.2598,1402.9644,464.2598,1398.9644,460.2598" style="stroke:#181818;stroke-width:1.0;"/><text fill="#000000" font-family="sans-serif" font-size="13" font-weight="bold" lengthAdjust="spacing" textLength="17.1514" x="1398.9644" y="442.5176">10</text><text fill="#000000" font-family="sans-serif" font-size="13" lengthAdjust="spacing" textLength="66.3457" x="1420.1157" y="442.5176">add(client)</text><line style="stroke:#181818;stroke-width:1.0;stroke-dasharray:2.0,2.0;" x1="1391.9644" x2="1433.9644" y1="499.5703" y2="499.5703"/><line style="stroke:#181818;stroke-width:1.0;stroke-dasharray:2.0,2.0;" x1="1433.9644" x2="1433.9644" y1="499.5703" y2="512.5703"/><line style="stroke:#181818;stroke-width:1.0;stroke-dasharray:2.0,2.0;" x1="1386.9644" x2="1433.9644" y1="512.5703" y2="512.5703"/><polygon fill="#181818" points="1396.9644,508.5703,1386.9644,512.5703,1396.9644,516.5703,1392.9644,512.5703" style="stroke:#181818;stroke-width:1.0;"/><text fill="#000000" font-family="sans-serif" font-size="13" font-weight="bold" lengthAdjust="spacing" textLength="17.1514" x="1398.9644" y="494.8281">11</text><text fill="#000000" font-family="sans-serif" font-size="13" lengthAdjust="spacing" textLength="15.5835" x="1420.1157" y="494.8281">ok</text><polygon fill="#181818" points="881.3599,532.8809,871.3599,536.8809,881.3599,540.8809,877.3599,536.8809" style="stroke:#181818;stroke-width:1.0;"/><line style="stroke:#181818;stroke-width:1.0;stroke-dasharray:2.0,2.0;" x1="875.3599" x2="1385.9644" y1="536.8809" y2="536.8809"/><text fill="#000000" font-family="sans-serif" font-size="13" font-weight="bold" lengthAdjust="spacing" textLength="17.1514" x="887.3599" y="532.1387">12</text><text fill="#000000" font-family="sans-serif" font-size="13" lengthAdjust="spacing" textLength="15.5835" x="908.5112" y="532.1387">ok</text><polygon fill="#181818" points="413.501,562.1914,403.501,566.1914,413.501,570.1914,409.501,566.1914" style="stroke:#181818;stroke-width:1.0;"/><line style="stroke:#181818;stroke-width:1.0;stroke-dasharray:2.0,2.0;" x1="407.501" x2="864.3599" y1="566.1914" y2="566.1914"/><text fill="#000000" font-family="sans-serif" font-size="13" font-weight="bold" lengthAdjust="spacing" textLength="17.1514" x="419.501" y="561.4492">13</text><text fill="#000000" font-family="sans-serif" font-size="13" lengthAdjust="spacing" textLength="134.4941" x="440.6523" y="561.4492">registration response</text><polygon fill="#181818" points="85.0005,591.502,75.0005,595.502,85.0005,599.502,81.0005,595.502" style="stroke:#181818;stroke-width:1.0;"/><line style="stroke:#181818;stroke-width:1.0;stroke-dasharray:2.0,2.0;" x1="79.0005" x2="396.501" y1="595.502" y2="595.502"/><text fill="#000000" font-family="sans-serif" font-size="13" font-weight="bold" lengthAdjust="spacing" textLength="17.1514" x="91.0005" y="590.7598">14</text><text fill="#000000" font-family="sans-serif" font-size="13" lengthAdjust="spacing" textLength="273.3491" x="112.1519" y="590.7598">registration confirmation with internalCode</text><!--SRC=[jLHDRzim3BthLn2v92cI1TlHXm63WG6zzD0jksioan2pAK-Y6so_VfJyKSVjW0B3BeOaFZu-FafUNqJQM1mERMrPkgP-vtnpYFYpGtQuhyYUWssC4P8QuVZbm_i27l5CKJ20XGUyGbaJiXXZE_7M2JrPGV2Szzmrtp5ep8aFi3fo67AnWcF4i08RyyAqDWWvQbK5h8gUynlXDIFIOe7eHGGhvBdqBC7NzS1NIgYNVBxHrQyS_bGrnBTnfmIM6CDGk1ptES7TdYrISx0ONEZhZuQCPkG6JVh2_cDkfe2GB8u2uc7q15ZTxFbC0YLmwgMO43tpnf7GR-JIXkeX6xo3zk8PnmtR1dU0ZQLw1r_lFs-DMSEpIMFjg0Fic7GDnChEjWRdAuIJpaekEDUJT2GzsRm2pYWBfpPRasEmdrGlVSigyXbCXYkJVjKa5SEtCX9wgBfWAgQi-o6XLBmgM2-HCpKqWoxyY7evLS1jor1PiPgLZzr2jlchiimrpAcBgU9i5gsDyUf3DOx8LfKMZhgbqwvdTz9FSMjURQNNSNTNfDp_LwQVd-SJXIO_iPUmLtf_iZMfQxZf8wzplyZoFzv4hatyE-_KcmRr3ZoYT87rFSJMSyJq6DEqaw73X6VlzVb_CoKCprH1wN4lG7Fxu4fokRs2Vm00]--></g></svg>