<svg xmlns="http://www.w3.org/2000/svg" xmlns:xlink="http://www.w3.org/1999/xlink" contentStyleType="text/css" height="379px" preserveAspectRatio="none" style="width:680px;height:379px;background:#FFFFFF;" version="1.1" viewBox="0 0 680 379" width="680px" zoomAndPan="magnify"><title>System Sequence Diagram for Visit Booking Confirmation</title><defs/><g><text fill="#000000" font-family="sans-serif" font-size="14" font-weight="bold" lengthAdjust="spacing" textLength="415.3584" x="137.114" y="28.5352">System Sequence Diagram for Visit Booking Confirmation</text><rect fill="#FFFFFF" height="160.5527" style="stroke:#181818;stroke-width:1.0;" width="10" x="23.0566" y="128.9766"/><rect fill="#FFFFFF" height="29.3105" style="stroke:#181818;stroke-width:1.0;" width="10" x="380.0835" y="150.2871"/><rect fill="#FFFFFF" height="80.6211" style="stroke:#181818;stroke-width:1.0;" width="10" x="380.0835" y="208.9082"/><rect fill="#FFFFFF" height="34.3105" style="stroke:#181818;stroke-width:1.0;" width="10" x="385.0835" y="246.2188"/><line style="stroke:#181818;stroke-width:0.5;stroke-dasharray:5.0,5.0;" x1="28" x2="28" y1="118.9766" y2="298.5293"/><line style="stroke:#181818;stroke-width:0.5;stroke-dasharray:5.0,5.0;" x1="384.8198" x2="384.8198" y1="118.9766" y2="298.5293"/><text fill="#000000" font-family="sans-serif" font-size="14" lengthAdjust="spacing" textLength="40.1133" x="5" y="116.0234">Agent</text><ellipse cx="28.0566" cy="50.9883" fill="#E2E2F0" rx="8" ry="8" style="stroke:#181818;stroke-width:0.5;"/><path d="M28.0566,58.9883 L28.0566,85.9883 M15.0566,66.9883 L41.0566,66.9883 M28.0566,85.9883 L15.0566,100.9883 M28.0566,85.9883 L41.0566,100.9883 " fill="none" style="stroke:#181818;stroke-width:0.5;"/><text fill="#000000" font-family="sans-serif" font-size="14" lengthAdjust="spacing" textLength="40.1133" x="5" y="311.0645">Agent</text><ellipse cx="28.0566" cy="322.5176" fill="#E2E2F0" rx="8" ry="8" style="stroke:#181818;stroke-width:0.5;"/><path d="M28.0566,330.5176 L28.0566,357.5176 M15.0566,338.5176 L41.0566,338.5176 M28.0566,357.5176 L15.0566,372.5176 M28.0566,357.5176 L41.0566,372.5176 " fill="none" style="stroke:#181818;stroke-width:0.5;"/><rect fill="#E2E2F0" height="30.4883" rx="2.5" ry="2.5" style="stroke:#181818;stroke-width:0.5;" width="66.5273" x="351.8198" y="87.4883"/><text fill="#000000" font-family="sans-serif" font-size="14" lengthAdjust="spacing" textLength="52.5273" x="358.8198" y="108.0234">:System</text><rect fill="#E2E2F0" height="30.4883" rx="2.5" ry="2.5" style="stroke:#181818;stroke-width:0.5;" width="66.5273" x="351.8198" y="297.5293"/><text fill="#000000" font-family="sans-serif" font-size="14" lengthAdjust="spacing" textLength="52.5273" x="358.8198" y="318.0645">:System</text><rect fill="#FFFFFF" height="160.5527" style="stroke:#181818;stroke-width:1.0;" width="10" x="23.0566" y="128.9766"/><rect fill="#FFFFFF" height="29.3105" style="stroke:#181818;stroke-width:1.0;" width="10" x="380.0835" y="150.2871"/><rect fill="#FFFFFF" height="80.6211" style="stroke:#181818;stroke-width:1.0;" width="10" x="380.0835" y="208.9082"/><rect fill="#FFFFFF" height="34.3105" style="stroke:#181818;stroke-width:1.0;" width="10" x="385.0835" y="246.2188"/><polygon fill="#181818" points="368.0835,146.2871,378.0835,150.2871,368.0835,154.2871,372.0835,150.2871" style="stroke:#181818;stroke-width:1.0;"/><line style="stroke:#181818;stroke-width:1.0;" x1="33.0566" x2="374.0835" y1="150.2871" y2="150.2871"/><text fill="#000000" font-family="sans-serif" font-size="13" font-weight="bold" lengthAdjust="spacing" textLength="8.5757" x="40.0566" y="145.5449">1</text><text fill="#000000" font-family="sans-serif" font-size="13" lengthAdjust="spacing" textLength="314.4946" x="52.6323" y="145.5449">Request list of unanswered visit booking requests</text><polygon fill="#181818" points="44.0566,175.5977,34.0566,179.5977,44.0566,183.5977,40.0566,179.5977" style="stroke:#181818;stroke-width:1.0;"/><line style="stroke:#181818;stroke-width:1.0;stroke-dasharray:2.0,2.0;" x1="38.0566" x2="384.0835" y1="179.5977" y2="179.5977"/><text fill="#000000" font-family="sans-serif" font-size="13" font-weight="bold" lengthAdjust="spacing" textLength="8.5757" x="50.0566" y="174.8555">2</text><text fill="#000000" font-family="sans-serif" font-size="13" lengthAdjust="spacing" textLength="310.4512" x="62.6323" y="174.8555">Provide list of unanswered visit booking requests</text><polygon fill="#181818" points="368.0835,204.9082,378.0835,208.9082,368.0835,212.9082,372.0835,208.9082" style="stroke:#181818;stroke-width:1.0;"/><line style="stroke:#181818;stroke-width:1.0;" x1="33.0566" x2="374.0835" y1="208.9082" y2="208.9082"/><text fill="#000000" font-family="sans-serif" font-size="13" font-weight="bold" lengthAdjust="spacing" textLength="8.5757" x="40.0566" y="204.166">3</text><text fill="#000000" font-family="sans-serif" font-size="13" lengthAdjust="spacing" textLength="246.1621" x="52.6323" y="204.166">Select a request and send confirmation</text><line style="stroke:#181818;stroke-width:1.0;" x1="390.0835" x2="437.0835" y1="233.2188" y2="233.2188"/><line style="stroke:#181818;stroke-width:1.0;" x1="437.0835" x2="437.0835" y1="233.2188" y2="246.2188"/><line style="stroke:#181818;stroke-width:1.0;" x1="396.0835" x2="437.0835" y1="246.2188" y2="246.2188"/><polygon fill="#181818" points="406.0835,242.2188,396.0835,246.2188,406.0835,250.2188,402.0835,246.2188" style="stroke:#181818;stroke-width:1.0;"/><text fill="#000000" font-family="sans-serif" font-size="13" font-weight="bold" lengthAdjust="spacing" textLength="8.5757" x="402.0835" y="228.4766">4</text><text fill="#000000" font-family="sans-serif" font-size="13" lengthAdjust="spacing" textLength="258.9272" x="414.6592" y="228.4766">Save response and update request status</text><polygon fill="#181818" points="44.0566,276.5293,34.0566,280.5293,44.0566,284.5293,40.0566,280.5293" style="stroke:#181818;stroke-width:1.0;"/><line style="stroke:#181818;stroke-width:1.0;stroke-dasharray:2.0,2.0;" x1="38.0566" x2="379.0835" y1="280.5293" y2="280.5293"/><text fill="#000000" font-family="sans-serif" font-size="13" font-weight="bold" lengthAdjust="spacing" textLength="8.5757" x="50.0566" y="275.7871">5</text><text fill="#000000" font-family="sans-serif" font-size="13" lengthAdjust="spacing" textLength="277.2529" x="62.6323" y="275.7871">Return confirmation of successful operation</text><!--SRC=[bL39JiGm3BtdAwnUE9NUUq1Y-G0qbRXxKdU8o3QnKyJVaoQjD0WkN1p7R_5Bxjv58e_342rwoSxUw-06fcichwcV3LuIEgN4Y2MOlbZ8mRJ3yD9WM4A2DyD6u2c43-Cly1pyOf93CS4hXLa2QZ4h2a4PR7UVtPbImRGKTVTu8IyT84FjLCGaHfjOKa4tjiKLRctLDR_6L_M0_c4dZ73QKhA0DQM41R97pv-KQ8QrPZtlMLCZijgVrnUJwZR2QmghcUaV7hzpJ6H92-310VGpC9MYRp_fM7uZn9MAY6FmJ5MLuxoz-31YGSb_nJwHvEH_-6_fEMjDp4ks42AbEly6]--></g></svg>