<svg xmlns="http://www.w3.org/2000/svg" xmlns:xlink="http://www.w3.org/1999/xlink" contentStyleType="text/css" height="771px" preserveAspectRatio="none" style="width:1811px;height:771px;background:#FFFFFF;" version="1.1" viewBox="0 0 1811 771" width="1811px" zoomAndPan="magnify"><title>US41: Confirm Visit Booking - System Sequence Diagram</title><defs/><g><text fill="#000000" font-family="sans-serif" font-size="14" font-weight="bold" lengthAdjust="spacing" textLength="411.4482" x="698.9089" y="28.5352">US41: Confirm Visit Booking - System Sequence Diagram</text><rect fill="#FFFFFF" height="543.9453" style="stroke:#181818;stroke-width:1.0;" width="10" x="23.0566" y="128.9766"/><rect fill="#FFFFFF" height="522.6348" style="stroke:#181818;stroke-width:1.0;" width="10" x="356.1655" y="150.2871"/><rect fill="#FFFFFF" height="464.0137" style="stroke:#181818;stroke-width:1.0;" width="10" x="752.624" y="179.5977"/><rect fill="#FFFFFF" height="29.3105" style="stroke:#181818;stroke-width:1.0;" width="10" x="920.312" y="208.9082"/><rect fill="#FFFFFF" height="29.3105" style="stroke:#181818;stroke-width:1.0;" width="10" x="1073.6001" y="267.5293"/><rect fill="#FFFFFF" height="87.9316" style="stroke:#181818;stroke-width:1.0;" width="10" x="1073.6001" y="426.2598"/><rect fill="#FFFFFF" height="29.3105" style="stroke:#181818;stroke-width:1.0;" width="10" x="1239.3042" y="455.5703"/><rect fill="#FFFFFF" height="70.7988" style="stroke:#181818;stroke-width:1.0;" width="10" x="1374.3574" y="326.1504"/><rect fill="#FFFFFF" height="70.7988" style="stroke:#181818;stroke-width:1.0;" width="10" x="1374.3574" y="543.502"/><line style="stroke:#181818;stroke-width:0.5;stroke-dasharray:5.0,5.0;" x1="28" x2="28" y1="118.9766" y2="690.9219"/><line style="stroke:#181818;stroke-width:0.5;stroke-dasharray:5.0,5.0;" x1="361.0005" x2="361.0005" y1="118.9766" y2="690.9219"/><line style="stroke:#181818;stroke-width:0.5;stroke-dasharray:5.0,5.0;" x1="757.0688" x2="757.0688" y1="118.9766" y2="690.9219"/><line style="stroke:#181818;stroke-width:0.5;stroke-dasharray:5.0,5.0;" x1="925.1792" x2="925.1792" y1="118.9766" y2="690.9219"/><line style="stroke:#181818;stroke-width:0.5;stroke-dasharray:5.0,5.0;" x1="1078.4448" x2="1078.4448" y1="118.9766" y2="690.9219"/><line style="stroke:#181818;stroke-width:0.5;stroke-dasharray:5.0,5.0;" x1="1243.7466" x2="1243.7466" y1="118.9766" y2="690.9219"/><line style="stroke:#181818;stroke-width:0.5;stroke-dasharray:5.0,5.0;" x1="1378.8618" x2="1378.8618" y1="118.9766" y2="690.9219"/><line style="stroke:#181818;stroke-width:0.5;stroke-dasharray:5.0,5.0;" x1="1533.8931" x2="1533.8931" y1="364.8945" y2="690.9219"/><line style="stroke:#181818;stroke-width:0.5;stroke-dasharray:5.0,5.0;" x1="1707.3647" x2="1707.3647" y1="582.2461" y2="690.9219"/><text fill="#000000" font-family="sans-serif" font-size="14" lengthAdjust="spacing" textLength="40.1133" x="5" y="116.0234">Agent</text><ellipse cx="28.0566" cy="50.9883" fill="#E2E2F0" rx="8" ry="8" style="stroke:#181818;stroke-width:0.5;"/><path d="M28.0566,58.9883 L28.0566,85.9883 M15.0566,66.9883 L41.0566,66.9883 M28.0566,85.9883 L15.0566,100.9883 M28.0566,85.9883 L41.0566,100.9883 " fill="none" style="stroke:#181818;stroke-width:0.5;"/><text fill="#000000" font-family="sans-serif" font-size="14" lengthAdjust="spacing" textLength="40.1133" x="5" y="703.457">Agent</text><ellipse cx="28.0566" cy="714.9102" fill="#E2E2F0" rx="8" ry="8" style="stroke:#181818;stroke-width:0.5;"/><path d="M28.0566,722.9102 L28.0566,749.9102 M15.0566,730.9102 L41.0566,730.9102 M28.0566,749.9102 L15.0566,764.9102 M28.0566,749.9102 L41.0566,764.9102 " fill="none" style="stroke:#181818;stroke-width:0.5;"/><rect fill="#E2E2F0" height="30.4883" rx="2.5" ry="2.5" style="stroke:#181818;stroke-width:0.5;" width="90.3301" x="316.0005" y="87.4883"/><text fill="#000000" font-family="sans-serif" font-size="14" lengthAdjust="spacing" textLength="76.3301" x="323.0005" y="108.0234">:AgentView</text><rect fill="#E2E2F0" height="30.4883" rx="2.5" ry="2.5" style="stroke:#181818;stroke-width:0.5;" width="90.3301" x="316.0005" y="689.9219"/><text fill="#000000" font-family="sans-serif" font-size="14" lengthAdjust="spacing" textLength="76.3301" x="323.0005" y="710.457">:AgentView</text><rect fill="#E2E2F0" height="30.4883" rx="2.5" ry="2.5" style="stroke:#181818;stroke-width:0.5;" width="171.1104" x="672.0688" y="87.4883"/><text fill="#000000" font-family="sans-serif" font-size="14" lengthAdjust="spacing" textLength="157.1104" x="679.0688" y="108.0234">:VisitBookingController</text><rect fill="#E2E2F0" height="30.4883" rx="2.5" ry="2.5" style="stroke:#181818;stroke-width:0.5;" width="171.1104" x="672.0688" y="689.9219"/><text fill="#000000" font-family="sans-serif" font-size="14" lengthAdjust="spacing" textLength="157.1104" x="679.0688" y="710.457">:VisitBookingController</text><rect fill="#E2E2F0" height="30.4883" rx="2.5" ry="2.5" style="stroke:#181818;stroke-width:0.5;" width="144.2656" x="853.1792" y="87.4883"/><text fill="#000000" font-family="sans-serif" font-size="14" lengthAdjust="spacing" textLength="130.2656" x="860.1792" y="108.0234">factory:VisitFactory</text><rect fill="#E2E2F0" height="30.4883" rx="2.5" ry="2.5" style="stroke:#181818;stroke-width:0.5;" width="144.2656" x="853.1792" y="689.9219"/><text fill="#000000" font-family="sans-serif" font-size="14" lengthAdjust="spacing" textLength="130.2656" x="860.1792" y="710.457">factory:VisitFactory</text><rect fill="#E2E2F0" height="30.4883" rx="2.5" ry="2.5" style="stroke:#181818;stroke-width:0.5;" width="142.3105" x="1007.4448" y="87.4883"/><text fill="#000000" font-family="sans-serif" font-size="14" lengthAdjust="spacing" textLength="128.3105" x="1014.4448" y="108.0234">service:VisitService</text><rect fill="#E2E2F0" height="30.4883" rx="2.5" ry="2.5" style="stroke:#181818;stroke-width:0.5;" width="142.3105" x="1007.4448" y="689.9219"/><text fill="#000000" font-family="sans-serif" font-size="14" lengthAdjust="spacing" textLength="128.3105" x="1014.4448" y="710.457">service:VisitService</text><rect fill="#E2E2F0" height="30.4883" rx="2.5" ry="2.5" style="stroke:#181818;stroke-width:0.5;" width="151.1152" x="1168.7466" y="87.4883"/><text fill="#000000" font-family="sans-serif" font-size="14" lengthAdjust="spacing" textLength="137.1152" x="1175.7466" y="108.0234">repo:VisitRepository</text><rect fill="#E2E2F0" height="30.4883" rx="2.5" ry="2.5" style="stroke:#181818;stroke-width:0.5;" width="151.1152" x="1168.7466" y="689.9219"/><text fill="#000000" font-family="sans-serif" font-size="14" lengthAdjust="spacing" textLength="137.1152" x="1175.7466" y="710.457">repo:VisitRepository</text><rect fill="#E2E2F0" height="30.4883" rx="2.5" ry="2.5" style="stroke:#181818;stroke-width:0.5;" width="98.9912" x="1329.8618" y="87.4883"/><text fill="#000000" font-family="sans-serif" font-size="14" lengthAdjust="spacing" textLength="84.9912" x="1336.8618" y="108.0234">:VisitMapper</text><rect fill="#E2E2F0" height="30.4883" rx="2.5" ry="2.5" style="stroke:#181818;stroke-width:0.5;" width="98.9912" x="1329.8618" y="689.9219"/><text fill="#000000" font-family="sans-serif" font-size="14" lengthAdjust="spacing" textLength="84.9912" x="1336.8618" y="710.457">:VisitMapper</text><rect fill="#E2E2F0" height="30.4883" rx="2.5" ry="2.5" style="stroke:#181818;stroke-width:0.5;" width="133.4717" x="1467.8931" y="689.9219"/><text fill="#000000" font-family="sans-serif" font-size="14" lengthAdjust="spacing" textLength="119.4717" x="1474.8931" y="710.457">selectedVisit:Visit</text><rect fill="#E2E2F0" height="30.4883" rx="2.5" ry="2.5" style="stroke:#181818;stroke-width:0.5;" width="193.9014" x="1611.3647" y="689.9219"/><text fill="#000000" font-family="sans-serif" font-size="14" lengthAdjust="spacing" textLength="179.9014" x="1618.3647" y="710.457">selectedVisitDTO:VisitDTO</text><rect fill="#FFFFFF" height="543.9453" style="stroke:#181818;stroke-width:1.0;" width="10" x="23.0566" y="128.9766"/><rect fill="#FFFFFF" height="522.6348" style="stroke:#181818;stroke-width:1.0;" width="10" x="356.1655" y="150.2871"/><rect fill="#FFFFFF" height="464.0137" style="stroke:#181818;stroke-width:1.0;" width="10" x="752.624" y="179.5977"/><rect fill="#FFFFFF" height="29.3105" style="stroke:#181818;stroke-width:1.0;" width="10" x="920.312" y="208.9082"/><rect fill="#FFFFFF" height="29.3105" style="stroke:#181818;stroke-width:1.0;" width="10" x="1073.6001" y="267.5293"/><rect fill="#FFFFFF" height="87.9316" style="stroke:#181818;stroke-width:1.0;" width="10" x="1073.6001" y="426.2598"/><rect fill="#FFFFFF" height="29.3105" style="stroke:#181818;stroke-width:1.0;" width="10" x="1239.3042" y="455.5703"/><rect fill="#FFFFFF" height="70.7988" style="stroke:#181818;stroke-width:1.0;" width="10" x="1374.3574" y="326.1504"/><rect fill="#FFFFFF" height="70.7988" style="stroke:#181818;stroke-width:1.0;" width="10" x="1374.3574" y="543.502"/><polygon fill="#181818" points="344.1655,146.2871,354.1655,150.2871,344.1655,154.2871,348.1655,150.2871" style="stroke:#181818;stroke-width:1.0;"/><line style="stroke:#181818;stroke-width:1.0;" x1="33.0566" x2="350.1655" y1="150.2871" y2="150.2871"/><text fill="#000000" font-family="sans-serif" font-size="13" font-weight="bold" lengthAdjust="spacing" textLength="8.5757" x="40.0566" y="145.5449">1</text><text fill="#000000" font-family="sans-serif" font-size="13" lengthAdjust="spacing" textLength="144.2188" x="52.6323" y="145.5449">Select booking request</text><polygon fill="#181818" points="740.624,175.5977,750.624,179.5977,740.624,183.5977,744.624,179.5977" style="stroke:#181818;stroke-width:1.0;"/><line style="stroke:#181818;stroke-width:1.0;" x1="366.1655" x2="746.624" y1="179.5977" y2="179.5977"/><text fill="#000000" font-family="sans-serif" font-size="13" font-weight="bold" lengthAdjust="spacing" textLength="8.5757" x="373.1655" y="174.8555">2</text><text fill="#000000" font-family="sans-serif" font-size="13" lengthAdjust="spacing" textLength="187.8779" x="385.7412" y="174.8555">confirmBooking(bookingDTO)</text><polygon fill="#181818" points="908.312,204.9082,918.312,208.9082,908.312,212.9082,912.312,208.9082" style="stroke:#181818;stroke-width:1.0;"/><line style="stroke:#181818;stroke-width:1.0;" x1="762.624" x2="914.312" y1="208.9082" y2="208.9082"/><text fill="#000000" font-family="sans-serif" font-size="13" font-weight="bold" lengthAdjust="spacing" textLength="8.5757" x="769.624" y="204.166">3</text><text fill="#000000" font-family="sans-serif" font-size="13" lengthAdjust="spacing" textLength="123.1445" x="782.1997" y="204.166">getVisitRepository()</text><polygon fill="#181818" points="773.624,234.2188,763.624,238.2188,773.624,242.2188,769.624,238.2188" style="stroke:#181818;stroke-width:1.0;"/><line style="stroke:#181818;stroke-width:1.0;stroke-dasharray:2.0,2.0;" x1="767.624" x2="924.312" y1="238.2188" y2="238.2188"/><text fill="#000000" font-family="sans-serif" font-size="13" font-weight="bold" lengthAdjust="spacing" textLength="8.5757" x="779.624" y="233.4766">4</text><text fill="#000000" font-family="sans-serif" font-size="13" lengthAdjust="spacing" textLength="28.7295" x="792.1997" y="233.4766">repo</text><polygon fill="#181818" points="1061.6001,263.5293,1071.6001,267.5293,1061.6001,271.5293,1065.6001,267.5293" style="stroke:#181818;stroke-width:1.0;"/><line style="stroke:#181818;stroke-width:1.0;" x1="762.624" x2="1067.6001" y1="267.5293" y2="267.5293"/><text fill="#000000" font-family="sans-serif" font-size="13" font-weight="bold" lengthAdjust="spacing" textLength="8.5757" x="769.624" y="262.7871">5</text><text fill="#000000" font-family="sans-serif" font-size="13" lengthAdjust="spacing" textLength="75.6895" x="782.1997" y="262.7871">create(repo)</text><polygon fill="#181818" points="773.624,292.8398,763.624,296.8398,773.624,300.8398,769.624,296.8398" style="stroke:#181818;stroke-width:1.0;"/><line style="stroke:#181818;stroke-width:1.0;stroke-dasharray:2.0,2.0;" x1="767.624" x2="1077.6001" y1="296.8398" y2="296.8398"/><text fill="#000000" font-family="sans-serif" font-size="13" font-weight="bold" lengthAdjust="spacing" textLength="8.5757" x="779.624" y="292.0977">6</text><text fill="#000000" font-family="sans-serif" font-size="13" lengthAdjust="spacing" textLength="43.5767" x="792.1997" y="292.0977">service</text><polygon fill="#181818" points="1362.3574,322.1504,1372.3574,326.1504,1362.3574,330.1504,1366.3574,326.1504" style="stroke:#181818;stroke-width:1.0;"/><line style="stroke:#181818;stroke-width:1.0;" x1="762.624" x2="1368.3574" y1="326.1504" y2="326.1504"/><text fill="#000000" font-family="sans-serif" font-size="13" font-weight="bold" lengthAdjust="spacing" textLength="8.5757" x="769.624" y="321.4082">7</text><text fill="#000000" font-family="sans-serif" font-size="13" lengthAdjust="spacing" textLength="136.4302" x="782.1997" y="321.4082">toEntity(bookingDTO)</text><polygon fill="#181818" points="1455.8931,351.4609,1465.8931,355.4609,1455.8931,359.4609,1459.8931,355.4609" style="stroke:#181818;stroke-width:1.0;"/><line style="stroke:#181818;stroke-width:1.0;" x1="1384.3574" x2="1461.8931" y1="355.4609" y2="355.4609"/><text fill="#000000" font-family="sans-serif" font-size="13" font-weight="bold" lengthAdjust="spacing" textLength="8.5757" x="1391.3574" y="350.7188">8</text><text fill="#000000" font-family="sans-serif" font-size="13" lengthAdjust="spacing" textLength="46.96" x="1403.9331" y="350.7188">create()</text><rect fill="#E2E2F0" height="30.4883" rx="2.5" ry="2.5" style="stroke:#181818;stroke-width:0.5;" width="133.4717" x="1467.8931" y="334.1504"/><text fill="#000000" font-family="sans-serif" font-size="14" lengthAdjust="spacing" textLength="119.4717" x="1474.8931" y="354.6855">selectedVisit:Visit</text><polygon fill="#181818" points="773.624,392.9492,763.624,396.9492,773.624,400.9492,769.624,396.9492" style="stroke:#181818;stroke-width:1.0;"/><line style="stroke:#181818;stroke-width:1.0;stroke-dasharray:2.0,2.0;" x1="767.624" x2="1378.3574" y1="396.9492" y2="396.9492"/><text fill="#000000" font-family="sans-serif" font-size="13" font-weight="bold" lengthAdjust="spacing" textLength="8.5757" x="779.624" y="392.207">9</text><text fill="#000000" font-family="sans-serif" font-size="13" lengthAdjust="spacing" textLength="79.3203" x="792.1997" y="392.207">selectedVisit</text><polygon fill="#181818" points="1061.6001,422.2598,1071.6001,426.2598,1061.6001,430.2598,1065.6001,426.2598" style="stroke:#181818;stroke-width:1.0;"/><line style="stroke:#181818;stroke-width:1.0;" x1="762.624" x2="1067.6001" y1="426.2598" y2="426.2598"/><text fill="#000000" font-family="sans-serif" font-size="13" font-weight="bold" lengthAdjust="spacing" textLength="17.1514" x="769.624" y="421.5176">10</text><text fill="#000000" font-family="sans-serif" font-size="13" lengthAdjust="spacing" textLength="166.5308" x="790.7754" y="421.5176">saveBooking(selectedVisit)</text><polygon fill="#181818" points="1227.3042,451.5703,1237.3042,455.5703,1227.3042,459.5703,1231.3042,455.5703" style="stroke:#181818;stroke-width:1.0;"/><line style="stroke:#181818;stroke-width:1.0;" x1="1083.6001" x2="1233.3042" y1="455.5703" y2="455.5703"/><text fill="#000000" font-family="sans-serif" font-size="13" font-weight="bold" lengthAdjust="spacing" textLength="17.1514" x="1090.6001" y="450.8281">11</text><text fill="#000000" font-family="sans-serif" font-size="13" lengthAdjust="spacing" textLength="115.5527" x="1111.7515" y="450.8281">save(selectedVisit)</text><polygon fill="#181818" points="1094.6001,480.8809,1084.6001,484.8809,1094.6001,488.8809,1090.6001,484.8809" style="stroke:#181818;stroke-width:1.0;"/><line style="stroke:#181818;stroke-width:1.0;stroke-dasharray:2.0,2.0;" x1="1088.6001" x2="1243.3042" y1="484.8809" y2="484.8809"/><text fill="#000000" font-family="sans-serif" font-size="13" font-weight="bold" lengthAdjust="spacing" textLength="17.1514" x="1100.6001" y="480.1387">12</text><text fill="#000000" font-family="sans-serif" font-size="13" lengthAdjust="spacing" textLength="48.5088" x="1121.7515" y="480.1387">success</text><polygon fill="#181818" points="773.624,510.1914,763.624,514.1914,773.624,518.1914,769.624,514.1914" style="stroke:#181818;stroke-width:1.0;"/><line style="stroke:#181818;stroke-width:1.0;stroke-dasharray:2.0,2.0;" x1="767.624" x2="1077.6001" y1="514.1914" y2="514.1914"/><text fill="#000000" font-family="sans-serif" font-size="13" font-weight="bold" lengthAdjust="spacing" textLength="17.1514" x="779.624" y="509.4492">13</text><text fill="#000000" font-family="sans-serif" font-size="13" lengthAdjust="spacing" textLength="48.5088" x="800.7754" y="509.4492">success</text><polygon fill="#181818" points="1362.3574,539.502,1372.3574,543.502,1362.3574,547.502,1366.3574,543.502" style="stroke:#181818;stroke-width:1.0;"/><line style="stroke:#181818;stroke-width:1.0;" x1="762.624" x2="1368.3574" y1="543.502" y2="543.502"/><text fill="#000000" font-family="sans-serif" font-size="13" font-weight="bold" lengthAdjust="spacing" textLength="17.1514" x="769.624" y="538.7598">14</text><text fill="#000000" font-family="sans-serif" font-size="13" lengthAdjust="spacing" textLength="128.6797" x="790.7754" y="538.7598">toDTO(selectedVisit)</text><polygon fill="#181818" points="1599.3647,568.8125,1609.3647,572.8125,1599.3647,576.8125,1603.3647,572.8125" style="stroke:#181818;stroke-width:1.0;"/><line style="stroke:#181818;stroke-width:1.0;" x1="1384.3574" x2="1605.3647" y1="572.8125" y2="572.8125"/><text fill="#000000" font-family="sans-serif" font-size="13" font-weight="bold" lengthAdjust="spacing" textLength="17.1514" x="1391.3574" y="568.0703">15</text><text fill="#000000" font-family="sans-serif" font-size="13" lengthAdjust="spacing" textLength="46.96" x="1412.5088" y="568.0703">create()</text><rect fill="#E2E2F0" height="30.4883" rx="2.5" ry="2.5" style="stroke:#181818;stroke-width:0.5;" width="193.9014" x="1611.3647" y="551.502"/><text fill="#000000" font-family="sans-serif" font-size="14" lengthAdjust="spacing" textLength="179.9014" x="1618.3647" y="572.0371">selectedVisitDTO:VisitDTO</text><polygon fill="#181818" points="773.624,610.3008,763.624,614.3008,773.624,618.3008,769.624,614.3008" style="stroke:#181818;stroke-width:1.0;"/><line style="stroke:#181818;stroke-width:1.0;stroke-dasharray:2.0,2.0;" x1="767.624" x2="1378.3574" y1="614.3008" y2="614.3008"/><text fill="#000000" font-family="sans-serif" font-size="13" font-weight="bold" lengthAdjust="spacing" textLength="17.1514" x="779.624" y="609.5586">16</text><text fill="#000000" font-family="sans-serif" font-size="13" lengthAdjust="spacing" textLength="107.377" x="800.7754" y="609.5586">selectedVisitDTO</text><polygon fill="#181818" points="377.1655,639.6113,367.1655,643.6113,377.1655,647.6113,373.1655,643.6113" style="stroke:#181818;stroke-width:1.0;"/><line style="stroke:#181818;stroke-width:1.0;stroke-dasharray:2.0,2.0;" x1="371.1655" x2="756.624" y1="643.6113" y2="643.6113"/><text fill="#000000" font-family="sans-serif" font-size="13" font-weight="bold" lengthAdjust="spacing" textLength="17.1514" x="383.1655" y="638.8691">17</text><text fill="#000000" font-family="sans-serif" font-size="13" lengthAdjust="spacing" textLength="341.3071" x="404.3169" y="638.8691">Booking successfully confirmed with selectedVisitDTO</text><polygon fill="#181818" points="39.0566,668.9219,29.0566,672.9219,39.0566,676.9219,35.0566,672.9219" style="stroke:#181818;stroke-width:1.0;"/><line style="stroke:#181818;stroke-width:1.0;stroke-dasharray:2.0,2.0;" x1="33.0566" x2="360.1655" y1="672.9219" y2="672.9219"/><text fill="#000000" font-family="sans-serif" font-size="13" font-weight="bold" lengthAdjust="spacing" textLength="17.1514" x="45.0566" y="668.1797">18</text><text fill="#000000" font-family="sans-serif" font-size="13" lengthAdjust="spacing" textLength="277.9575" x="66.208" y="668.1797">Booking confirmation with selectedVisitDTO</text><!--SRC=[bPDDRuCm38Rl-HKMfxPI3vDsub1fQpUfXsdIM7jFKvT5WuG5quf_ltm1WxQ7dN3mO_jzJI191S8kUtn8OQtLIPeIzhAM1CzQVqkLmnAojYOi8SEV1fL0s4YU6ruonXlIN90ySqBGofzLKnxGs9mWRI1vob5H0hm67x6A6v92LbmH9Ab_jvTuySHkEqbx8L675KT65mKQpwx956Fwv2UseUWr73mQup5TepbBWO7Emi7JCHxJ1YiTq0yRsKVNsnrlYNxZLHMLXj0l92mgB8Bv1onNrdPgfnOe20vnvyQjkYQssph0UKr1XAyJrp6BwERpVSuSuC3eD8KSQQ9sDcSn2yk-fRFL5qVZTf11AtFcadCMt_P502d4tR6-D5XCWVIB8adjI5n8EimktRd4ezSM5fKi5lt4WUqLZYhOjTQQdx7Ro8Zzetpblr9Wfv3B-753nqO8hEihuqFcXcrhTDhvdcsBfbtm7_CMZuFZbUd-poZhr1H5srqIFC95qjTr1tUXRBs_UqEBMCL9QdMda1rnSe5_0G00]--></g></svg>