<svg xmlns="http://www.w3.org/2000/svg" xmlns:xlink="http://www.w3.org/1999/xlink" contentStyleType="text/css" height="544.8px" preserveAspectRatio="none" style="width:1556px;height:544px;background:#FFFFFF;" version="1.1" viewBox="0 0 1556 544" width="1556.8px" zoomAndPan="magnify"><title>US21: Register a New Client</title><defs/><g><text fill="#000000" font-family="sans-serif" font-size="11.2" font-weight="bold" lengthAdjust="spacing" textLength="159.9391" x="697.9531" y="22.8281">US21: Register a New Client</text><rect fill="#FFFFFF" height="370.0203" style="stroke:#181818;stroke-width:0.8000000000000002;" width="8" x="39.8883" y="103.1813"/><rect fill="#FFFFFF" height="23.4484" style="stroke:#181818;stroke-width:0.8000000000000002;" width="8" x="386.0984" y="120.2297"/><rect fill="#FFFFFF" height="298.875" style="stroke:#181818;stroke-width:0.8000000000000002;" width="8" x="386.0984" y="167.1266"/><rect fill="#FFFFFF" height="251.9781" style="stroke:#181818;stroke-width:0.8000000000000002;" width="8" x="714.8145" y="190.575"/><rect fill="#FFFFFF" height="23.4484" style="stroke:#181818;stroke-width:0.8000000000000002;" width="8" x="1106.6617" y="214.0234"/><rect fill="#FFFFFF" height="212.2813" style="stroke:#181818;stroke-width:0.8000000000000002;" width="8" x="1106.6617" y="260.9203"/><rect fill="#FFFFFF" height="32.2484" style="stroke:#181818;stroke-width:0.8000000000000002;" width="8" x="1110.6617" y="323.9594"/><rect fill="#FFFFFF" height="27.4484" style="stroke:#181818;stroke-width:0.8000000000000002;" width="8" x="1110.6617" y="391.6563"/><line style="stroke:#181818;stroke-width:0.4000000000000001;stroke-dasharray:5.0,5.0;" x1="43.2" x2="43.2" y1="95.1813" y2="480.4016"/><line style="stroke:#181818;stroke-width:0.4000000000000001;stroke-dasharray:5.0,5.0;" x1="389.4098" x2="389.4098" y1="95.1813" y2="480.4016"/><line style="stroke:#181818;stroke-width:0.4000000000000001;stroke-dasharray:5.0,5.0;" x1="718.6449" x2="718.6449" y1="95.1813" y2="480.4016"/><line style="stroke:#181818;stroke-width:0.4000000000000001;stroke-dasharray:5.0,5.0;" x1="826.984" x2="826.984" y1="95.1813" y2="480.4016"/><line style="stroke:#181818;stroke-width:0.4000000000000001;stroke-dasharray:5.0,5.0;" x1="1109.9293" x2="1109.9293" y1="95.1813" y2="480.4016"/><line style="stroke:#181818;stroke-width:0.4000000000000001;stroke-dasharray:5.0,5.0;" x1="1512.3625" x2="1512.3625" y1="291.9156" y2="480.4016"/><text fill="#000000" font-family="sans-serif" font-size="11.2" lengthAdjust="spacing" textLength="74.9766" x="4" y="92.8188">Administrator</text><ellipse cx="43.8883" cy="40.7906" fill="#E2E2F0" rx="6.4" ry="6.4" style="stroke:#181818;stroke-width:0.4000000000000001;"/><path d="M43.8883,47.1906 L43.8883,68.7906 M33.4883,53.5906 L54.2883,53.5906 M43.8883,68.7906 L33.4883,80.7906 M43.8883,68.7906 L54.2883,80.7906 " fill="none" style="stroke:#181818;stroke-width:0.4000000000000001;"/><text fill="#000000" font-family="sans-serif" font-size="11.2" lengthAdjust="spacing" textLength="74.9766" x="4" y="490.4297">Administrator</text><ellipse cx="43.8883" cy="499.5922" fill="#E2E2F0" rx="6.4" ry="6.4" style="stroke:#181818;stroke-width:0.4000000000000001;"/><path d="M43.8883,505.9922 L43.8883,527.5922 M33.4883,512.3922 L54.2883,512.3922 M43.8883,527.5922 L33.4883,539.5922 M43.8883,527.5922 L54.2883,539.5922 " fill="none" style="stroke:#181818;stroke-width:0.4000000000000001;"/><rect fill="#E2E2F0" height="24.3906" rx="2" ry="2" style="stroke:#181818;stroke-width:0.4000000000000001;" width="71.7773" x="354.2098" y="69.9906"/><text fill="#000000" font-family="sans-serif" font-size="11.2" lengthAdjust="spacing" textLength="60.5773" x="359.8098" y="86.4188">:ClientView</text><rect fill="#E2E2F0" height="24.3906" rx="2" ry="2" style="stroke:#181818;stroke-width:0.4000000000000001;" width="71.7773" x="354.2098" y="479.6016"/><text fill="#000000" font-family="sans-serif" font-size="11.2" lengthAdjust="spacing" textLength="60.5773" x="359.8098" y="496.0297">:ClientView</text><rect fill="#E2E2F0" height="24.3906" rx="2" ry="2" style="stroke:#181818;stroke-width:0.4000000000000001;" width="134.7391" x="651.4449" y="69.9906"/><text fill="#000000" font-family="sans-serif" font-size="11.2" lengthAdjust="spacing" textLength="123.5391" x="657.0449" y="86.4188">:RegistrationController</text><rect fill="#E2E2F0" height="24.3906" rx="2" ry="2" style="stroke:#181818;stroke-width:0.4000000000000001;" width="134.7391" x="651.4449" y="479.6016"/><text fill="#000000" font-family="sans-serif" font-size="11.2" lengthAdjust="spacing" textLength="123.5391" x="657.0449" y="496.0297">:RegistrationController</text><rect fill="#E2E2F0" height="24.3906" rx="2" ry="2" style="stroke:#181818;stroke-width:0.4000000000000001;" width="65.8656" x="794.184" y="69.9906"/><text fill="#000000" font-family="sans-serif" font-size="11.2" lengthAdjust="spacing" textLength="54.6656" x="799.784" y="86.4188">:Company</text><rect fill="#E2E2F0" height="24.3906" rx="2" ry="2" style="stroke:#181818;stroke-width:0.4000000000000001;" width="65.8656" x="794.184" y="479.6016"/><text fill="#000000" font-family="sans-serif" font-size="11.2" lengthAdjust="spacing" textLength="54.6656" x="799.784" y="496.0297">:Company</text><rect fill="#E2E2F0" height="24.3906" rx="2" ry="2" style="stroke:#181818;stroke-width:0.4000000000000001;" width="150.2648" x="1035.5293" y="69.9906"/><text fill="#000000" font-family="sans-serif" font-size="11.2" lengthAdjust="spacing" textLength="139.0648" x="1041.1293" y="86.4188">container:ClientContainer</text><rect fill="#E2E2F0" height="24.3906" rx="2" ry="2" style="stroke:#181818;stroke-width:0.4000000000000001;" width="150.2648" x="1035.5293" y="479.6016"/><text fill="#000000" font-family="sans-serif" font-size="11.2" lengthAdjust="spacing" textLength="139.0648" x="1041.1293" y="496.0297">container:ClientContainer</text><rect fill="#E2E2F0" height="24.3906" rx="2" ry="2" style="stroke:#181818;stroke-width:0.4000000000000001;" width="79.4828" x="1473.1625" y="479.6016"/><text fill="#000000" font-family="sans-serif" font-size="11.2" lengthAdjust="spacing" textLength="68.2828" x="1478.7625" y="496.0297">client: Client</text><rect fill="#FFFFFF" height="370.0203" style="stroke:#181818;stroke-width:0.8000000000000002;" width="8" x="39.8883" y="103.1813"/><rect fill="#FFFFFF" height="23.4484" style="stroke:#181818;stroke-width:0.8000000000000002;" width="8" x="386.0984" y="120.2297"/><rect fill="#FFFFFF" height="298.875" style="stroke:#181818;stroke-width:0.8000000000000002;" width="8" x="386.0984" y="167.1266"/><rect fill="#FFFFFF" height="251.9781" style="stroke:#181818;stroke-width:0.8000000000000002;" width="8" x="714.8145" y="190.575"/><rect fill="#FFFFFF" height="23.4484" style="stroke:#181818;stroke-width:0.8000000000000002;" width="8" x="1106.6617" y="214.0234"/><rect fill="#FFFFFF" height="212.2813" style="stroke:#181818;stroke-width:0.8000000000000002;" width="8" x="1106.6617" y="260.9203"/><rect fill="#FFFFFF" height="32.2484" style="stroke:#181818;stroke-width:0.8000000000000002;" width="8" x="1110.6617" y="323.9594"/><rect fill="#FFFFFF" height="27.4484" style="stroke:#181818;stroke-width:0.8000000000000002;" width="8" x="1110.6617" y="391.6563"/><polygon fill="#181818" points="376.4984,117.0297,384.4984,120.2297,376.4984,123.4297,379.6984,120.2297" style="stroke:#181818;stroke-width:0.8000000000000002;"/><line style="stroke:#181818;stroke-width:0.8000000000000002;" x1="47.8883" x2="381.2984" y1="120.2297" y2="120.2297"/><text fill="#000000" font-family="sans-serif" font-size="10.4" font-weight="bold" lengthAdjust="spacing" textLength="6.8605" x="53.4883" y="116.4359">1</text><text fill="#000000" font-family="sans-serif" font-size="10.4" lengthAdjust="spacing" textLength="124.4445" x="63.5488" y="116.4359">request to register client</text><polygon fill="#181818" points="56.6883,140.4781,48.6883,143.6781,56.6883,146.8781,53.4883,143.6781" style="stroke:#181818;stroke-width:0.8000000000000002;"/><line style="stroke:#181818;stroke-width:0.8000000000000002;stroke-dasharray:2.0,2.0;" x1="51.8883" x2="389.2984" y1="143.6781" y2="143.6781"/><text fill="#000000" font-family="sans-serif" font-size="10.4" font-weight="bold" lengthAdjust="spacing" textLength="6.8605" x="61.4883" y="139.8844">2</text><text fill="#000000" font-family="sans-serif" font-size="10.4" lengthAdjust="spacing" textLength="173.9918" x="71.5488" y="139.8844">shows request form for client data</text><polygon fill="#181818" points="376.4984,163.9266,384.4984,167.1266,376.4984,170.3266,379.6984,167.1266" style="stroke:#181818;stroke-width:0.8000000000000002;"/><line style="stroke:#181818;stroke-width:0.8000000000000002;" x1="47.8883" x2="381.2984" y1="167.1266" y2="167.1266"/><text fill="#000000" font-family="sans-serif" font-size="10.4" font-weight="bold" lengthAdjust="spacing" textLength="6.8605" x="53.4883" y="163.3328">3</text><text fill="#000000" font-family="sans-serif" font-size="10.4" lengthAdjust="spacing" textLength="312.9496" x="63.5488" y="163.3328">input client data (name, ccNumber, tif, email, contactNumber)</text><polygon fill="#181818" points="705.2145,187.375,713.2145,190.575,705.2145,193.775,708.4145,190.575" style="stroke:#181818;stroke-width:0.8000000000000002;"/><line style="stroke:#181818;stroke-width:0.8000000000000002;" x1="394.0984" x2="710.0145" y1="190.575" y2="190.575"/><text fill="#000000" font-family="sans-serif" font-size="10.4" font-weight="bold" lengthAdjust="spacing" textLength="6.8605" x="399.6984" y="186.7813">4</text><text fill="#000000" font-family="sans-serif" font-size="10.4" lengthAdjust="spacing" textLength="295.4555" x="409.759" y="186.7813">registerClient(name, ccNumber, tif, email, contactNumber)</text><polygon fill="#181818" points="1097.0617,210.8234,1105.0617,214.0234,1097.0617,217.2234,1100.2617,214.0234" style="stroke:#181818;stroke-width:0.8000000000000002;"/><line style="stroke:#181818;stroke-width:0.8000000000000002;" x1="722.8145" x2="1101.8617" y1="214.0234" y2="214.0234"/><text fill="#000000" font-family="sans-serif" font-size="10.4" font-weight="bold" lengthAdjust="spacing" textLength="6.8605" x="728.4145" y="210.2297">5</text><text fill="#000000" font-family="sans-serif" font-size="10.4" lengthAdjust="spacing" textLength="115.4918" x="738.475" y="210.2297">generateInternalCode()</text><polygon fill="#181818" points="731.6145,234.2719,723.6145,237.4719,731.6145,240.6719,728.4145,237.4719" style="stroke:#181818;stroke-width:0.8000000000000002;"/><line style="stroke:#181818;stroke-width:0.8000000000000002;stroke-dasharray:2.0,2.0;" x1="726.8145" x2="1109.8617" y1="237.4719" y2="237.4719"/><text fill="#000000" font-family="sans-serif" font-size="10.4" font-weight="bold" lengthAdjust="spacing" textLength="6.8605" x="736.4145" y="233.6781">6</text><text fill="#000000" font-family="sans-serif" font-size="10.4" lengthAdjust="spacing" textLength="64.5277" x="746.475" y="233.6781">internalCode</text><polygon fill="#181818" points="1097.0617,257.7203,1105.0617,260.9203,1097.0617,264.1203,1100.2617,260.9203" style="stroke:#181818;stroke-width:0.8000000000000002;"/><line style="stroke:#181818;stroke-width:0.8000000000000002;" x1="722.8145" x2="1101.8617" y1="260.9203" y2="260.9203"/><text fill="#000000" font-family="sans-serif" font-size="10.4" font-weight="bold" lengthAdjust="spacing" textLength="6.8605" x="728.4145" y="257.1266">7</text><text fill="#000000" font-family="sans-serif" font-size="10.4" lengthAdjust="spacing" textLength="358.5867" x="738.475" y="257.1266">createClient(internalCode, name, ccNumber, tif, email, contactNumber)</text><polygon fill="#181818" points="1463.5625,281.1688,1471.5625,284.3688,1463.5625,287.5688,1466.7625,284.3688" style="stroke:#181818;stroke-width:0.8000000000000002;"/><line style="stroke:#181818;stroke-width:0.8000000000000002;stroke-dasharray:2.0,2.0;" x1="1114.6617" x2="1468.3625" y1="284.3688" y2="284.3688"/><text fill="#000000" font-family="sans-serif" font-size="10.4" font-weight="bold" lengthAdjust="spacing" textLength="6.8605" x="1120.2617" y="280.575">8</text><text fill="#000000" font-family="sans-serif" font-size="10.4" lengthAdjust="spacing" textLength="329.2402" x="1130.3223" y="280.575">create(internalCode, name, ccNumber, tif, email, contactNumber)</text><rect fill="#E2E2F0" height="24.3906" rx="2" ry="2" style="stroke:#181818;stroke-width:0.4000000000000001;" width="79.4828" x="1473.1625" y="267.3203"/><text fill="#000000" font-family="sans-serif" font-size="11.2" lengthAdjust="spacing" textLength="68.2828" x="1478.7625" y="283.7484">client: Client</text><line style="stroke:#181818;stroke-width:0.8000000000000002;" x1="1114.6617" x2="1152.2617" y1="313.5594" y2="313.5594"/><line style="stroke:#181818;stroke-width:0.8000000000000002;" x1="1152.2617" x2="1152.2617" y1="313.5594" y2="323.9594"/><line style="stroke:#181818;stroke-width:0.8000000000000002;" x1="1119.4617" x2="1152.2617" y1="323.9594" y2="323.9594"/><polygon fill="#181818" points="1127.4617,320.7594,1119.4617,323.9594,1127.4617,327.1594,1124.2617,323.9594" style="stroke:#181818;stroke-width:0.8000000000000002;"/><text fill="#000000" font-family="sans-serif" font-size="10.4" font-weight="bold" lengthAdjust="spacing" textLength="6.8605" x="1124.2617" y="309.7656">9</text><text fill="#000000" font-family="sans-serif" font-size="10.4" lengthAdjust="spacing" textLength="73.3535" x="1134.3223" y="309.7656">validate(client)</text><line style="stroke:#181818;stroke-width:0.8000000000000002;stroke-dasharray:2.0,2.0;" x1="1118.6617" x2="1152.2617" y1="355.4078" y2="355.4078"/><line style="stroke:#181818;stroke-width:0.8000000000000002;stroke-dasharray:2.0,2.0;" x1="1152.2617" x2="1152.2617" y1="355.4078" y2="365.8078"/><line style="stroke:#181818;stroke-width:0.8000000000000002;stroke-dasharray:2.0,2.0;" x1="1114.6617" x2="1152.2617" y1="365.8078" y2="365.8078"/><polygon fill="#181818" points="1122.6617,362.6078,1114.6617,365.8078,1122.6617,369.0078,1119.4617,365.8078" style="stroke:#181818;stroke-width:0.8000000000000002;"/><text fill="#000000" font-family="sans-serif" font-size="10.4" font-weight="bold" lengthAdjust="spacing" textLength="13.7211" x="1124.2617" y="351.6141">10</text><text fill="#000000" font-family="sans-serif" font-size="10.4" lengthAdjust="spacing" textLength="12.4668" x="1141.1828" y="351.6141">ok</text><line style="stroke:#181818;stroke-width:0.8000000000000002;" x1="1114.6617" x2="1152.2617" y1="381.2563" y2="381.2563"/><line style="stroke:#181818;stroke-width:0.8000000000000002;" x1="1152.2617" x2="1152.2617" y1="381.2563" y2="391.6563"/><line style="stroke:#181818;stroke-width:0.8000000000000002;" x1="1119.4617" x2="1152.2617" y1="391.6563" y2="391.6563"/><polygon fill="#181818" points="1127.4617,388.4563,1119.4617,391.6563,1127.4617,394.8563,1124.2617,391.6563" style="stroke:#181818;stroke-width:0.8000000000000002;"/><text fill="#000000" font-family="sans-serif" font-size="10.4" font-weight="bold" lengthAdjust="spacing" textLength="13.7211" x="1124.2617" y="377.4625">11</text><text fill="#000000" font-family="sans-serif" font-size="10.4" lengthAdjust="spacing" textLength="53.0766" x="1141.1828" y="377.4625">add(client)</text><polygon fill="#181818" points="731.6145,415.9047,723.6145,419.1047,731.6145,422.3047,728.4145,419.1047" style="stroke:#181818;stroke-width:0.8000000000000002;"/><line style="stroke:#181818;stroke-width:0.8000000000000002;stroke-dasharray:2.0,2.0;" x1="726.8145" x2="1105.8617" y1="419.1047" y2="419.1047"/><text fill="#000000" font-family="sans-serif" font-size="10.4" font-weight="bold" lengthAdjust="spacing" textLength="13.7211" x="736.4145" y="415.3109">12</text><text fill="#000000" font-family="sans-serif" font-size="10.4" lengthAdjust="spacing" textLength="12.4668" x="753.3355" y="415.3109">ok</text><polygon fill="#181818" points="402.8984,439.3531,394.8984,442.5531,402.8984,445.7531,399.6984,442.5531" style="stroke:#181818;stroke-width:0.8000000000000002;"/><line style="stroke:#181818;stroke-width:0.8000000000000002;stroke-dasharray:2.0,2.0;" x1="398.0984" x2="718.0145" y1="442.5531" y2="442.5531"/><text fill="#000000" font-family="sans-serif" font-size="10.4" font-weight="bold" lengthAdjust="spacing" textLength="13.7211" x="407.6984" y="438.7594">13</text><text fill="#000000" font-family="sans-serif" font-size="10.4" lengthAdjust="spacing" textLength="107.5953" x="424.6195" y="438.7594">registration response</text><polygon fill="#181818" points="56.6883,462.8016,48.6883,466.0016,56.6883,469.2016,53.4883,466.0016" style="stroke:#181818;stroke-width:0.8000000000000002;"/><line style="stroke:#181818;stroke-width:0.8000000000000002;stroke-dasharray:2.0,2.0;" x1="51.8883" x2="389.2984" y1="466.0016" y2="466.0016"/><text fill="#000000" font-family="sans-serif" font-size="10.4" font-weight="bold" lengthAdjust="spacing" textLength="13.7211" x="61.4883" y="462.2078">14</text><text fill="#000000" font-family="sans-serif" font-size="10.4" lengthAdjust="spacing" textLength="73.2012" x="78.4094" y="462.2078">return success</text><!--SRC=[hPDDJyCm38Rl-HNMBWoqCS6n1oJK4vSTG70tgHaH-IY9oyI_nqcwCSg4GEBI9h7z-FNRzEIPkK_DQjLRz3muUww3MoLw7SXhMdO6Dn6TKcpO4jpVNLuqS4iRavWY8Anf2wqrv5af73YWPlE6J11ysVl1FLAKcEOGONRTEUEbDg9iPu09xfE4UunijEb50SoQodimj2qPUJ79g084Oe9lW-SOhANAQpdQAIyuMRsNS17mDQu5WCPJ71ktktqfq5_F9gKbs8mErFuxCtP6b05LViBogWpJGCps9WOEiXozh2oL4s0fcRcYWVGSjccV_nIYouyn6JfadA2DxmS-ZCFSewC5QBqkts81R9uMG0wDbTCycEOQEXsxNnKNcxssEjDVE2e3CcXYNmCRafVuSkC5xD6seQFvgPha5GUg27EG-0DNHnBggFImPW5_q7rKHZaxEzlr-4VwaJdUq9ekTwcHuvA-LOMNNy6nwtxaLiS5DlfyS64_VpZPf3xuHDEx6ec7w24DMbDAwWC0]--></g></svg>