<svg xmlns="http://www.w3.org/2000/svg" xmlns:xlink="http://www.w3.org/1999/xlink" contentStyleType="text/css" height="395px" preserveAspectRatio="none" style="width:432px;height:395px;background:#FFFFFF;" version="1.1" viewBox="0 0 432 395" width="432px" zoomAndPan="magnify"><title>System Sequence Diagram for US21: Client Registration</title><defs/><g><text fill="#000000" font-family="sans-serif" font-size="14" font-weight="bold" lengthAdjust="spacing" textLength="399.9229" x="14.626" y="28.5352">System Sequence Diagram for US21: Client Registration</text><rect fill="#FFFFFF" height="176.8633" style="stroke:#181818;stroke-width:1.0;" width="10" x="49.8604" y="128.9766"/><rect fill="#FFFFFF" height="29.3105" style="stroke:#181818;stroke-width:1.0;" width="10" x="386.9111" y="150.2871"/><rect fill="#FFFFFF" height="29.3105" style="stroke:#181818;stroke-width:1.0;" width="10" x="386.9111" y="208.9082"/><rect fill="#FFFFFF" height="29.3105" style="stroke:#181818;stroke-width:1.0;" width="10" x="386.9111" y="267.5293"/><line style="stroke:#181818;stroke-width:0.5;stroke-dasharray:5.0,5.0;" x1="54" x2="54" y1="118.9766" y2="314.8398"/><line style="stroke:#181818;stroke-width:0.5;stroke-dasharray:5.0,5.0;" x1="391.6475" x2="391.6475" y1="118.9766" y2="314.8398"/><text fill="#000000" font-family="sans-serif" font-size="14" lengthAdjust="spacing" textLength="93.7207" x="5" y="116.0234">Administrator</text><ellipse cx="54.8604" cy="50.9883" fill="#E2E2F0" rx="8" ry="8" style="stroke:#181818;stroke-width:0.5;"/><path d="M54.8604,58.9883 L54.8604,85.9883 M41.8604,66.9883 L67.8604,66.9883 M54.8604,85.9883 L41.8604,100.9883 M54.8604,85.9883 L67.8604,100.9883 " fill="none" style="stroke:#181818;stroke-width:0.5;"/><text fill="#000000" font-family="sans-serif" font-size="14" lengthAdjust="spacing" textLength="93.7207" x="5" y="327.375">Administrator</text><ellipse cx="54.8604" cy="338.8281" fill="#E2E2F0" rx="8" ry="8" style="stroke:#181818;stroke-width:0.5;"/><path d="M54.8604,346.8281 L54.8604,373.8281 M41.8604,354.8281 L67.8604,354.8281 M54.8604,373.8281 L41.8604,388.8281 M54.8604,373.8281 L67.8604,388.8281 " fill="none" style="stroke:#181818;stroke-width:0.5;"/><rect fill="#E2E2F0" height="30.4883" rx="2.5" ry="2.5" style="stroke:#181818;stroke-width:0.5;" width="66.5273" x="358.6475" y="87.4883"/><text fill="#000000" font-family="sans-serif" font-size="14" lengthAdjust="spacing" textLength="52.5273" x="365.6475" y="108.0234">:System</text><rect fill="#E2E2F0" height="30.4883" rx="2.5" ry="2.5" style="stroke:#181818;stroke-width:0.5;" width="66.5273" x="358.6475" y="313.8398"/><text fill="#000000" font-family="sans-serif" font-size="14" lengthAdjust="spacing" textLength="52.5273" x="365.6475" y="334.375">:System</text><rect fill="#FFFFFF" height="176.8633" style="stroke:#181818;stroke-width:1.0;" width="10" x="49.8604" y="128.9766"/><rect fill="#FFFFFF" height="29.3105" style="stroke:#181818;stroke-width:1.0;" width="10" x="386.9111" y="150.2871"/><rect fill="#FFFFFF" height="29.3105" style="stroke:#181818;stroke-width:1.0;" width="10" x="386.9111" y="208.9082"/><rect fill="#FFFFFF" height="29.3105" style="stroke:#181818;stroke-width:1.0;" width="10" x="386.9111" y="267.5293"/><polygon fill="#181818" points="374.9111,146.2871,384.9111,150.2871,374.9111,154.2871,378.9111,150.2871" style="stroke:#181818;stroke-width:1.0;"/><line style="stroke:#181818;stroke-width:1.0;" x1="59.8604" x2="380.9111" y1="150.2871" y2="150.2871"/><text fill="#000000" font-family="sans-serif" font-size="13" font-weight="bold" lengthAdjust="spacing" textLength="8.5757" x="66.8604" y="145.5449">1</text><text fill="#000000" font-family="sans-serif" font-size="13" lengthAdjust="spacing" textLength="129.416" x="79.436" y="145.5449">ask to register client</text><polygon fill="#181818" points="70.8604,175.5977,60.8604,179.5977,70.8604,183.5977,66.8604,179.5977" style="stroke:#181818;stroke-width:1.0;"/><line style="stroke:#181818;stroke-width:1.0;stroke-dasharray:2.0,2.0;" x1="64.8604" x2="390.9111" y1="179.5977" y2="179.5977"/><text fill="#000000" font-family="sans-serif" font-size="13" font-weight="bold" lengthAdjust="spacing" textLength="8.5757" x="76.8604" y="174.8555">2</text><text fill="#000000" font-family="sans-serif" font-size="13" lengthAdjust="spacing" textLength="290.4751" x="89.436" y="174.8555">shows list of clients and asks for client details</text><polygon fill="#181818" points="374.9111,204.9082,384.9111,208.9082,374.9111,212.9082,378.9111,208.9082" style="stroke:#181818;stroke-width:1.0;"/><line style="stroke:#181818;stroke-width:1.0;" x1="59.8604" x2="380.9111" y1="208.9082" y2="208.9082"/><text fill="#000000" font-family="sans-serif" font-size="13" font-weight="bold" lengthAdjust="spacing" textLength="8.5757" x="66.8604" y="204.166">3</text><text fill="#000000" font-family="sans-serif" font-size="13" lengthAdjust="spacing" textLength="81.4785" x="79.436" y="204.166">selects client</text><polygon fill="#181818" points="70.8604,234.2188,60.8604,238.2188,70.8604,242.2188,66.8604,238.2188" style="stroke:#181818;stroke-width:1.0;"/><line style="stroke:#181818;stroke-width:1.0;stroke-dasharray:2.0,2.0;" x1="64.8604" x2="390.9111" y1="238.2188" y2="238.2188"/><text fill="#000000" font-family="sans-serif" font-size="13" font-weight="bold" lengthAdjust="spacing" textLength="8.5757" x="76.8604" y="233.4766">4</text><text fill="#000000" font-family="sans-serif" font-size="13" lengthAdjust="spacing" textLength="255.8042" x="89.436" y="233.4766">asks for details of client to be registered</text><polygon fill="#181818" points="374.9111,263.5293,384.9111,267.5293,374.9111,271.5293,378.9111,267.5293" style="stroke:#181818;stroke-width:1.0;"/><line style="stroke:#181818;stroke-width:1.0;" x1="59.8604" x2="380.9111" y1="267.5293" y2="267.5293"/><text fill="#000000" font-family="sans-serif" font-size="13" font-weight="bold" lengthAdjust="spacing" textLength="8.5757" x="66.8604" y="262.7871">5</text><text fill="#000000" font-family="sans-serif" font-size="13" lengthAdjust="spacing" textLength="140.626" x="79.436" y="262.7871">inputs details of client</text><polygon fill="#181818" points="70.8604,292.8398,60.8604,296.8398,70.8604,300.8398,66.8604,296.8398" style="stroke:#181818;stroke-width:1.0;"/><line style="stroke:#181818;stroke-width:1.0;stroke-dasharray:2.0,2.0;" x1="64.8604" x2="390.9111" y1="296.8398" y2="296.8398"/><text fill="#000000" font-family="sans-serif" font-size="13" font-weight="bold" lengthAdjust="spacing" textLength="8.5757" x="76.8604" y="292.0977">6</text><text fill="#000000" font-family="sans-serif" font-size="13" lengthAdjust="spacing" textLength="182.603" x="89.436" y="292.0977">Returns success of operation</text><!--SRC=[TL4xRiCm3Drr2i9B9jTeHWy5YlO4CN80HMOIeVfLf5hqzgKb8HsCBeB4zoLqk3CdcgSfEHsuUFTaefy8Fmi6W-DgzIrhhnHRTWZB3p5wM3eCxms6QynmNexFCxmvYu7XX3TBd3NR69JIXQCsRByq8yXWUuVYBvW5CopYuNNrDZH9p0DeWZC9d7HcQsoIRZ3CBRwYxLhbpRRIrNR2-DBXMPWVm15ohIEGgVLKtsCKvgQOWUxncy092UArimXqM3S7glkr8Qp8sZhQHn4wD2BwB-9Xr1t-WhQ65toKn7LlRaCguhsJzXX9QI4dv9830HLZa2en9kp_y0i0]--></g></svg>