<svg xmlns="http://www.w3.org/2000/svg" xmlns:xlink="http://www.w3.org/1999/xlink" contentStyleType="text/css" height="1015px" preserveAspectRatio="none" style="width:432px;height:1015px;background:#FFFFFF;" version="1.1" viewBox="0 0 432 1015" width="432px" zoomAndPan="magnify"><title>Use Case Diagram - First Draft</title><defs/><g><text fill="#000000" font-family="sans-serif" font-size="14" font-weight="bold" lengthAdjust="spacing" textLength="202.2891" x="107.8567" y="25.1074">Use Case Diagram - First Draft</text><!--entity Owner--><g id="elem_Owner"><ellipse cx="47.1172" cy="665.1211" fill="#F1F1F1" rx="8" ry="8" style="stroke:#181818;stroke-width:0.5;"/><path d="M47.1172,673.1211 L47.1172,700.1211 M34.1172,681.1211 L60.1172,681.1211 M47.1172,700.1211 L34.1172,715.1211 M47.1172,700.1211 L60.1172,715.1211 " fill="none" style="stroke:#181818;stroke-width:0.5;"/><text fill="#000000" font-family="sans-serif" font-size="14" lengthAdjust="spacing" textLength="41.2344" x="26.5" y="731.7285">Owner</text></g><!--entity Client--><g id="elem_Client"><ellipse cx="46.8965" cy="803.1211" fill="#F1F1F1" rx="8" ry="8" style="stroke:#181818;stroke-width:0.5;"/><path d="M46.8965,811.1211 L46.8965,838.1211 M33.8965,819.1211 L59.8965,819.1211 M46.8965,838.1211 L33.8965,853.1211 M46.8965,838.1211 L59.8965,853.1211 " fill="none" style="stroke:#181818;stroke-width:0.5;"/><text fill="#000000" font-family="sans-serif" font-size="14" lengthAdjust="spacing" textLength="35.793" x="29" y="869.7285">Client</text></g><!--entity Agent--><g id="elem_Agent"><ellipse cx="46.793" cy="409.1211" fill="#F1F1F1" rx="8" ry="8" style="stroke:#181818;stroke-width:0.5;"/><path d="M46.793,417.1211 L46.793,444.1211 M33.793,425.1211 L59.793,425.1211 M46.793,444.1211 L33.793,459.1211 M46.793,444.1211 L59.793,459.1211 " fill="none" style="stroke:#181818;stroke-width:0.5;"/><text fill="#000000" font-family="sans-serif" font-size="14" lengthAdjust="spacing" textLength="36.5859" x="28.5" y="475.7285">Agent</text></g><!--entity Manager--><g id="elem_Manager"><ellipse cx="47.1274" cy="208.1211" fill="#F1F1F1" rx="8" ry="8" style="stroke:#181818;stroke-width:0.5;"/><path d="M47.1274,216.1211 L47.1274,243.1211 M34.1274,224.1211 L60.1274,224.1211 M47.1274,243.1211 L34.1274,258.1211 M47.1274,243.1211 L60.1274,258.1211 " fill="none" style="stroke:#181818;stroke-width:0.5;"/><text fill="#000000" font-family="sans-serif" font-size="14" lengthAdjust="spacing" textLength="55.2549" x="19.5" y="274.7285">Manager</text></g><!--entity Administrator--><g id="elem_Administrator"><ellipse cx="47.2344" cy="94.1211" fill="#F1F1F1" rx="8" ry="8" style="stroke:#181818;stroke-width:0.5;"/><path d="M47.2344,102.1211 L47.2344,129.1211 M34.2344,110.1211 L60.2344,110.1211 M47.2344,129.1211 L34.2344,144.1211 M47.2344,129.1211 L60.2344,144.1211 " fill="none" style="stroke:#181818;stroke-width:0.5;"/><text fill="#000000" font-family="sans-serif" font-size="14" lengthAdjust="spacing" textLength="82.4688" x="6" y="160.7285">Administrator</text></g><g id="elem_PublishOffer"><ellipse cx="287.155" cy="315.9521" fill="#F1F1F1" rx="94.655" ry="21.331" style="stroke:#181818;stroke-width:0.5;"/><text fill="#000000" font-family="sans-serif" font-size="14" lengthAdjust="spacing" textLength="145.5166" x="211.5814" y="320.7015">UC03 - Publish an offer</text></g><g id="elem_RegisterVisit"><ellipse cx="286.939" cy="398.2089" fill="#F1F1F1" rx="113.439" ry="25.0878" style="stroke:#181818;stroke-width:0.5;"/><text fill="#000000" font-family="sans-serif" font-size="14" lengthAdjust="spacing" textLength="188.2959" x="192.791" y="402.0058">UC04 - Register visit schedule</text></g><g id="elem_AppreciateOffer"><ellipse cx="287.1749" cy="481.2561" fill="#F1F1F1" rx="103.6749" ry="23.135" style="stroke:#181818;stroke-width:0.5;"/><text fill="#000000" font-family="sans-serif" font-size="14" lengthAdjust="spacing" textLength="166.5303" x="203.8385" y="485.0803">UC05 - Appreciate an offer</text></g><g id="elem_DefineCommission"><ellipse cx="287.1598" cy="562.2531" fill="#F1F1F1" rx="103.6598" ry="23.132" style="stroke:#181818;stroke-width:0.5;"/><text fill="#000000" font-family="sans-serif" font-size="14" lengthAdjust="spacing" textLength="166.4961" x="203.8364" y="566.0788">UC06 - Define commission</text></g><g id="elem_RegisterBranches"><ellipse cx="286.9581" cy="66.3127" fill="#F1F1F1" rx="91.4581" ry="20.6916" style="stroke:#181818;stroke-width:0.5;"/><text fill="#000000" font-family="sans-serif" font-size="14" lengthAdjust="spacing" textLength="137.7168" x="215.0997" y="71.1164">UC01 - Register Store</text></g><g id="elem_RegisterAgent"><ellipse cx="287.2316" cy="143.0674" fill="#F1F1F1" rx="92.7316" ry="20.9463" style="stroke:#181818;stroke-width:0.5;"/><text fill="#000000" font-family="sans-serif" font-size="14" lengthAdjust="spacing" textLength="140.8408" x="213.8112" y="147.8711">UC02 - Register Agent</text></g><g id="elem_Registration"><ellipse cx="287.0677" cy="726.1346" fill="#F1F1F1" rx="85.5677" ry="19.5135" style="stroke:#181818;stroke-width:0.5;"/><text fill="#000000" font-family="sans-serif" font-size="14" lengthAdjust="spacing" textLength="122.9375" x="222.599" y="730.9383">UC08 - Registration</text></g><g id="elem_MakeSaleOffer"><ellipse cx="287.0664" cy="646.1344" fill="#F1F1F1" rx="115.5664" ry="25.5133" style="stroke:#181818;stroke-width:0.5;"/><text fill="#000000" font-family="sans-serif" font-size="14" lengthAdjust="spacing" textLength="192.9785" x="190.5772" y="649.9313">UC07 - Make a lease/sale offer</text></g><g id="elem_ConsultProperties"><ellipse cx="286.7941" cy="803.9799" fill="#F1F1F1" rx="102.2941" ry="22.8588" style="stroke:#181818;stroke-width:0.5;"/><text fill="#000000" font-family="sans-serif" font-size="14" lengthAdjust="spacing" textLength="163.3994" x="204.6459" y="807.9458">UC09 - Consult Properties</text></g><g id="elem_RequestSchedule"><ellipse cx="286.7653" cy="888.2742" fill="#F1F1F1" rx="118.7653" ry="26.1531" style="stroke:#181818;stroke-width:0.5;"/><text fill="#000000" font-family="sans-serif" font-size="14" lengthAdjust="spacing" textLength="199.9854" x="186.7726" y="892.071">UC10 - Request a visit schedule</text></g><g id="elem_MakeRequest"><ellipse cx="287.0012" cy="979.3213" fill="#F1F1F1" rx="139.0012" ry="30.2002" style="stroke:#181818;stroke-width:0.5;"/><text fill="#000000" font-family="sans-serif" font-size="14" lengthAdjust="spacing" textLength="243.5713" x="165.2156" y="983.1182">UC11 - Make a purchase/lease request</text></g><g id="elem_ListAgents"><ellipse cx="286.8912" cy="238.9993" fill="#F1F1F1" rx="89.8912" ry="20.3782" style="stroke:#181818;stroke-width:0.5;"/><text fill="#000000" font-family="sans-serif" font-size="14" lengthAdjust="spacing" textLength="133.8408" x="216.9707" y="243.803">UC12 - List all agents</text></g><!--link Agent to PublishOffer--><g id="link_Agent_PublishOffer"><path d="M65.79,421.1111 C84.55,402.1011 115.8,373.3111 148,356.1211 C169.01,344.9011 187.762,338.0718 210.282,331.9218 " fill="none" id="Agent-to-PublishOffer" style="stroke:#181818;stroke-width:1.0;"/><polygon fill="#181818" points="216.07,330.3411,206.3342,328.8534,211.2466,331.6583,208.4417,336.5708,216.07,330.3411" style="stroke:#181818;stroke-width:1.0;"/></g><!--link Agent to RegisterVisit--><g id="link_Agent_RegisterVisit"><path d="M65.5,437.0311 C93.25,432.1311 143.2812,423.3035 191.8612,414.7335 " fill="none" id="Agent-to-RegisterVisit" style="stroke:#181818;stroke-width:1.0;"/><polygon fill="#181818" points="197.77,413.6911,188.2119,411.3155,192.846,414.5597,189.6018,419.1938,197.77,413.6911" style="stroke:#181818;stroke-width:1.0;"/></g><!--link Agent to AppreciateOffer--><g id="link_Agent_AppreciateOffer"><path d="M65.5,443.1311 C94.59,448.1511 148.7472,457.4716 198.8572,466.1116 " fill="none" id="Agent-to-AppreciateOffer" style="stroke:#181818;stroke-width:1.0;"/><polygon fill="#181818" points="204.77,467.1311,196.5805,461.66,199.8427,466.2815,195.2212,469.5437,204.77,467.1311" style="stroke:#181818;stroke-width:1.0;"/></g><!--link Agent to DefineCommission--><g id="link_Agent_DefineCommission"><path d="M65.53,458.3211 C84.32,476.8411 115.81,505.1811 148,522.1211 C167.54,532.4011 184.2895,538.7075 205.3895,544.7175 " fill="none" id="Agent-to-DefineCommission" style="stroke:#181818;stroke-width:1.0;"/><polygon fill="#181818" points="211.16,546.3611,203.6,540.0487,206.3513,544.9914,201.4085,547.7426,211.16,546.3611" style="stroke:#181818;stroke-width:1.0;"/></g><!--link Administrator to RegisterBranches--><g id="link_Administrator_RegisterBranches"><path d="M88.1,115.1811 C125.46,105.9211 175.8764,93.4251 218.8664,82.7651 " fill="none" id="Administrator-to-RegisterBranches" style="stroke:#181818;stroke-width:1.0;"/><polygon fill="#181818" points="224.69,81.3211,214.9918,79.6048,219.837,82.5245,216.9173,87.3696,224.69,81.3211" style="stroke:#181818;stroke-width:1.0;"/></g><!--link Administrator to RegisterAgent--><g id="link_Administrator_RegisterAgent"><path d="M88.1,128.1511 C118.31,130.4411 154.877,133.2096 192.777,136.0696 " fill="none" id="Administrator-to-RegisterAgent" style="stroke:#181818;stroke-width:1.0;"/><polygon fill="#181818" points="198.76,136.5211,190.0865,131.8552,193.7742,136.1449,189.4845,139.8325,198.76,136.5211" style="stroke:#181818;stroke-width:1.0;"/></g><!--link Client to Registration--><g id="link_Client_Registration"><path d="M65.28,819.2311 C84.36,803.4811 116.55,778.9111 148,764.1211 C171.27,753.1711 192.4607,746.3226 216.3907,740.3126 " fill="none" id="Client-to-Registration" style="stroke:#181818;stroke-width:1.0;"/><polygon fill="#181818" points="222.21,738.8511,212.5067,737.1638,217.3606,740.069,214.4554,744.9229,222.21,738.8511" style="stroke:#181818;stroke-width:1.0;"/></g><!--link Client to ConsultProperties--><g id="link_Client_ConsultProperties"><path d="M65.12,831.9611 C92.62,828.5011 142.537,822.2009 191.207,816.0709 " fill="none" id="Client-to-ConsultProperties" style="stroke:#181818;stroke-width:1.0;"/><polygon fill="#181818" points="197.16,815.3211,187.7307,812.4771,192.1992,815.9459,188.7304,820.4144,197.16,815.3211" style="stroke:#181818;stroke-width:1.0;"/></g><!--link Client to RequestSchedule--><g id="link_Client_RequestSchedule"><path d="M65.12,838.0011 C93.89,844.5311 147.8988,856.7833 198.0488,868.1633 " fill="none" id="Client-to-RequestSchedule" style="stroke:#181818;stroke-width:1.0;"/><polygon fill="#181818" points="203.9,869.4911,196.0083,863.5986,199.024,868.3846,194.238,871.4003,203.9,869.4911" style="stroke:#181818;stroke-width:1.0;"/></g><!--link Client to MakeRequest--><g id="link_Client_MakeRequest"><path d="M65.32,856.1211 C83.71,878.1311 114.67,911.6011 148,932.1211 C163.41,941.6111 175.3509,947.3843 192.6709,953.7743 " fill="none" id="Client-to-MakeRequest" style="stroke:#181818;stroke-width:1.0;"/><polygon fill="#181818" points="198.3,955.8511,191.2409,948.9832,193.6091,954.1204,188.4718,956.4886,198.3,955.8511" style="stroke:#181818;stroke-width:1.0;"/></g><!--link Owner to Registration--><g id="link_Owner_Registration"><path d="M67.88,698.6311 C99.22,702.5811 155.7371,709.701 205.8171,716.011 " fill="none" id="Owner-to-Registration" style="stroke:#181818;stroke-width:1.0;"/><polygon fill="#181818" points="211.77,716.7611,203.3406,711.6674,206.8092,716.136,202.3406,719.6046,211.77,716.7611" style="stroke:#181818;stroke-width:1.0;"/></g><!--link Owner to MakeSaleOffer--><g id="link_Owner_MakeSaleOffer"><path d="M67.88,691.9411 C97.38,685.7511 148.5782,674.9947 196.9382,664.8347 " fill="none" id="Owner-to-MakeSaleOffer" style="stroke:#181818;stroke-width:1.0;"/><polygon fill="#181818" points="202.81,663.6011,193.1799,661.537,197.9168,664.6291,194.8247,669.3661,202.81,663.6011" style="stroke:#181818;stroke-width:1.0;"/></g><!--link Manager to ListAgents--><g id="link_Manager_ListAgents"><path d="M74.84,239.1211 C104.38,239.1211 147.45,239.1211 190.85,239.1211 " fill="none" id="Manager-to-ListAgents" style="stroke:#181818;stroke-width:1.0;"/><polygon fill="#181818" points="196.85,239.1211,187.85,235.1211,191.85,239.1211,187.85,243.1211,196.85,239.1211" style="stroke:#181818;stroke-width:1.0;"/></g><!--SRC=[VLDBRzim3BxhL_2sxf2bsRiv5CWSxBIYnOBshZcqJKoMFOdU_lueoOvbjzl5eB-7z8cYNZNClTzljxtHbeVMl2cxTZjut9HQFcVIjTEjKani41uzGY4u71CE6_XApZCSdQvOAOCL0tVWg6uOpkImPEgiKhhapi7-_ez5jmVj8LOJN1X2on5FvKGSwWcFrGJVQQlhSQ6nlZZEBLdoxBJy9cUEA7NrM5o_azmFmmz3lW5jeQigTA-3zcf4xoCIjUz5-nrhMG0T_2PF3Bviy3mOJ9Q9V0fSydmGpw7lvVIa6LTRp4IsoqTn7B4YYo3zRybxQLlI9xYOqMZOvR5ESh9LcYzEMudfa_fjhewjNAeJ5AMVBr9fs2N40ecwJwAxqp_bT61GHcBhjGn8Tiv0dWJBJdaZdgApVZ0C3wxhqJ59n2WVyGmEbjrrZFDhG1ao_O_-H_OqWT6sczFrWokR433619VaSyRHdtoXKTyex6KCwD2LCLu03-bVgLZ0PdEx7fYCM8r5nZmRW8nxVjbgCR_BjUTB_ezel5kLNbRWLhUPCo_SmiAtQdN6BLgfulD-OQyPNus76jznv1RD_Wi0]--></g></svg>