<svg xmlns="http://www.w3.org/2000/svg" xmlns:xlink="http://www.w3.org/1999/xlink" contentStyleType="text/css" height="1876px" preserveAspectRatio="none" style="width:3076px;height:1876px;background:#FFFFFF;" version="1.1" viewBox="0 0 3076 1876" width="3076px" zoomAndPan="magnify"><title>US20: Display listed properties</title><defs/><g><text fill="#000000" font-family="sans-serif" font-size="14" font-weight="bold" lengthAdjust="spacing" textLength="206.1787" x="1436.4824" y="30.1074">US20: Display listed properties</text><rect fill="#FFFFFF" height="1651.5801" style="stroke:#181818;stroke-width:1.0;" width="10" x="17.7793" y="133.2422"/><rect fill="#FFFFFF" height="1619.2891" style="stroke:#181818;stroke-width:1.0;" width="10" x="255.2817" y="156.5332"/><rect fill="#FFFFFF" height="1556.707" style="stroke:#181818;stroke-width:1.0;" width="10" x="475.7568" y="187.8242"/><rect fill="#FFFFFF" height="137.4941" style="stroke:#181818;stroke-width:1.0;" width="10" x="669.1558" y="219.1152"/><rect fill="#FFFFFF" height="31.291" style="stroke:#181818;stroke-width:1.0;" width="10" x="881.3438" y="250.4063"/><rect fill="#FFFFFF" height="390.5313" style="stroke:#181818;stroke-width:1.0;" width="10" x="1077.2915" y="387.9004"/><rect fill="#FFFFFF" height="31.291" style="stroke:#181818;stroke-width:1.0;" width="10" x="1287.646" y="419.1914"/><rect fill="#FFFFFF" height="31.291" style="stroke:#181818;stroke-width:1.0;" width="10" x="1452.4868" y="551.6855"/><rect fill="#FFFFFF" height="31.291" style="stroke:#181818;stroke-width:1.0;" width="10" x="1452.4868" y="614.2676"/><rect fill="#FFFFFF" height="31.291" style="stroke:#181818;stroke-width:1.0;" width="10" x="1452.4868" y="910.9258"/><rect fill="#FFFFFF" height="31.291" style="stroke:#181818;stroke-width:1.0;" width="10" x="1452.4868" y="973.5078"/><rect fill="#FFFFFF" height="31.291" style="stroke:#181818;stroke-width:1.0;" width="10" x="1452.4868" y="1036.0898"/><rect fill="#FFFFFF" height="440.0742" style="stroke:#181818;stroke-width:1.0;" width="10" x="1452.4868" y="1098.6719"/><rect fill="#FFFFFF" height="31.291" style="stroke:#181818;stroke-width:1.0;" width="10" x="1721.0083" y="1129.9629"/><rect fill="#FFFFFF" height="31.291" style="stroke:#181818;stroke-width:1.0;" width="10" x="1721.0083" y="1192.5449"/><rect fill="#FFFFFF" height="245.3281" style="stroke:#181818;stroke-width:1.0;" width="10" x="1721.0083" y="1255.127"/><rect fill="#FFFFFF" height="31.291" style="stroke:#181818;stroke-width:1.0;" width="10" x="1882.6372" y="1312.709"/><rect fill="#FFFFFF" height="31.291" style="stroke:#181818;stroke-width:1.0;" width="10" x="1882.6372" y="1375.291"/><rect fill="#FFFFFF" height="31.291" style="stroke:#181818;stroke-width:1.0;" width="10" x="1882.6372" y="1437.873"/><rect fill="#FFFFFF" height="31.291" style="stroke:#181818;stroke-width:1.0;" width="10" x="2024.1367" y="809.7227"/><rect fill="#FFFFFF" height="143.2031" style="stroke:#181818;stroke-width:1.0;" width="10" x="2024.1367" y="1570.0371"/><rect fill="#FFFFFF" height="30" style="stroke:#181818;stroke-width:1.0;" width="10" x="2247.3496" y="703.1406"/><rect fill="#FFFFFF" height="30" style="stroke:#181818;stroke-width:1.0;" width="10" x="2561.1968" y="1644.9492"/><rect fill="none" height="239.0371" style="stroke:#000000;stroke-width:1.5;" width="1432.5986" x="963.0918" y="509.1035"/><rect fill="none" height="80.582" style="stroke:#000000;stroke-width:1.5;" width="1412.5986" x="973.0918" y="660.5586"/><rect fill="none" height="814.6055" style="stroke:#000000;stroke-width:1.5;" width="2712.2104" x="357.9331" y="868.3438"/><rect fill="none" height="238.3281" style="stroke:#000000;stroke-width:1.5;" width="545.4639" x="1393.8008" y="1270.127"/><line style="stroke:#181818;stroke-width:0.5;stroke-dasharray:5.0,5.0;" x1="22" x2="22" y1="123.2422" y2="1793.8223"/><line style="stroke:#181818;stroke-width:0.5;stroke-dasharray:5.0,5.0;" x1="259.6304" x2="259.6304" y1="123.2422" y2="1793.8223"/><line style="stroke:#181818;stroke-width:0.5;stroke-dasharray:5.0,5.0;" x1="479.9331" x2="479.9331" y1="123.2422" y2="1793.8223"/><line style="stroke:#181818;stroke-width:0.5;stroke-dasharray:5.0,5.0;" x1="673.2524" x2="673.2524" y1="123.2422" y2="1793.8223"/><line style="stroke:#181818;stroke-width:0.5;stroke-dasharray:5.0,5.0;" x1="885.5957" x2="885.5957" y1="123.2422" y2="1793.8223"/><line style="stroke:#181818;stroke-width:0.5;stroke-dasharray:5.0,5.0;" x1="1082.0918" x2="1082.0918" y1="321.5078" y2="1793.8223"/><line style="stroke:#181818;stroke-width:0.5;stroke-dasharray:5.0,5.0;" x1="1292.4912" x2="1292.4912" y1="123.2422" y2="1793.8223"/><line style="stroke:#181818;stroke-width:0.5;stroke-dasharray:5.0,5.0;" x1="1456.8008" x2="1456.8008" y1="123.2422" y2="1793.8223"/><line style="stroke:#181818;stroke-width:0.5;stroke-dasharray:5.0,5.0;" x1="1725.6084" x2="1725.6084" y1="123.2422" y2="1793.8223"/><line style="stroke:#181818;stroke-width:0.5;stroke-dasharray:5.0,5.0;" x1="1887.0098" x2="1887.0098" y1="123.2422" y2="1793.8223"/><line style="stroke:#181818;stroke-width:0.5;stroke-dasharray:5.0,5.0;" x1="2028.2646" x2="2028.2646" y1="123.2422" y2="1793.8223"/><line style="stroke:#181818;stroke-width:0.5;stroke-dasharray:5.0,5.0;" x1="2252.0088" x2="2252.0088" y1="490.293" y2="1793.8223"/><line style="stroke:#181818;stroke-width:0.5;stroke-dasharray:5.0,5.0;" x1="2565.6904" x2="2565.6904" y1="849.5332" y2="1793.8223"/><line style="stroke:#181818;stroke-width:0.5;stroke-dasharray:5.0,5.0;" x1="2907.7031" x2="2907.7031" y1="1609.8477" y2="1793.8223"/><text fill="#000000" font-family="sans-serif" font-size="14" lengthAdjust="spacing" textLength="29.5586" x="5" y="119.7285">User</text><ellipse cx="22.7793" cy="53.1211" fill="#E2E2F0" rx="8" ry="8" style="stroke:#181818;stroke-width:0.5;"/><path d="M22.7793,61.1211 L22.7793,88.1211 M9.7793,69.1211 L35.7793,69.1211 M22.7793,88.1211 L9.7793,103.1211 M22.7793,88.1211 L35.7793,103.1211 " fill="none" style="stroke:#181818;stroke-width:0.5;"/><text fill="#000000" font-family="sans-serif" font-size="14" lengthAdjust="spacing" textLength="29.5586" x="5" y="1807.9297">User</text><ellipse cx="22.7793" cy="1819.9434" fill="#E2E2F0" rx="8" ry="8" style="stroke:#181818;stroke-width:0.5;"/><path d="M22.7793,1827.9434 L22.7793,1854.9434 M9.7793,1835.9434 L35.7793,1835.9434 M22.7793,1854.9434 L9.7793,1869.9434 M22.7793,1854.9434 L35.7793,1869.9434 " fill="none" style="stroke:#181818;stroke-width:0.5;"/><rect fill="#E2E2F0" height="32.6211" rx="2.5" ry="2.5" style="stroke:#181818;stroke-width:0.5;" width="195.3027" x="162.6304" y="89.6211"/><text fill="#000000" font-family="sans-serif" font-size="14" lengthAdjust="spacing" textLength="181.3027" x="169.6304" y="111.7285">:DisplayListedPropertiesView</text><rect fill="#E2E2F0" height="32.6211" rx="2.5" ry="2.5" style="stroke:#181818;stroke-width:0.5;" width="195.3027" x="162.6304" y="1792.8223"/><text fill="#000000" font-family="sans-serif" font-size="14" lengthAdjust="spacing" textLength="181.3027" x="169.6304" y="1814.9297">:DisplayListedPropertiesView</text><rect fill="#E2E2F0" height="32.6211" rx="2.5" ry="2.5" style="stroke:#181818;stroke-width:0.5;" width="225.6475" x="367.9331" y="89.6211"/><text fill="#000000" font-family="sans-serif" font-size="14" lengthAdjust="spacing" textLength="211.6475" x="374.9331" y="111.7285">:DisplayListedPropertiesController</text><rect fill="#E2E2F0" height="32.6211" rx="2.5" ry="2.5" style="stroke:#181818;stroke-width:0.5;" width="225.6475" x="367.9331" y="1792.8223"/><text fill="#000000" font-family="sans-serif" font-size="14" lengthAdjust="spacing" textLength="211.6475" x="374.9331" y="1814.9297">:DisplayListedPropertiesController</text><rect fill="#E2E2F0" height="32.6211" rx="2.5" ry="2.5" style="stroke:#181818;stroke-width:0.5;" width="77.8066" x="635.2524" y="89.6211"/><text fill="#000000" font-family="sans-serif" font-size="14" lengthAdjust="spacing" textLength="63.8066" x="642.2524" y="111.7285">:Company</text><rect fill="#E2E2F0" height="32.6211" rx="2.5" ry="2.5" style="stroke:#181818;stroke-width:0.5;" width="77.8066" x="635.2524" y="1792.8223"/><text fill="#000000" font-family="sans-serif" font-size="14" lengthAdjust="spacing" textLength="63.8066" x="642.2524" y="1814.9297">:Company</text><rect fill="#E2E2F0" height="32.6211" rx="2.5" ry="2.5" style="stroke:#181818;stroke-width:0.5;" width="173.4961" x="799.5957" y="89.6211"/><text fill="#000000" font-family="sans-serif" font-size="14" lengthAdjust="spacing" textLength="159.4961" x="806.5957" y="111.7285">factory:RepositoryFactory</text><rect fill="#E2E2F0" height="32.6211" rx="2.5" ry="2.5" style="stroke:#181818;stroke-width:0.5;" width="173.4961" x="799.5957" y="1792.8223"/><text fill="#000000" font-family="sans-serif" font-size="14" lengthAdjust="spacing" textLength="159.4961" x="806.5957" y="1814.9297">factory:RepositoryFactory</text><rect fill="#E2E2F0" height="32.6211" rx="2.5" ry="2.5" style="stroke:#181818;stroke-width:0.5;" width="198.3994" x="983.0918" y="1792.8223"/><text fill="#000000" font-family="sans-serif" font-size="14" lengthAdjust="spacing" textLength="184.3994" x="990.0918" y="1814.9297">service:AdvertisementService</text><rect fill="#E2E2F0" height="32.6211" rx="2.5" ry="2.5" style="stroke:#181818;stroke-width:0.5;" width="202.3096" x="1191.4912" y="89.6211"/><text fill="#000000" font-family="sans-serif" font-size="14" lengthAdjust="spacing" textLength="188.3096" x="1198.4912" y="111.7285">repo:AdvertisementRepository</text><rect fill="#E2E2F0" height="32.6211" rx="2.5" ry="2.5" style="stroke:#181818;stroke-width:0.5;" width="202.3096" x="1191.4912" y="1792.8223"/><text fill="#000000" font-family="sans-serif" font-size="14" lengthAdjust="spacing" textLength="188.3096" x="1198.4912" y="1814.9297">repo:AdvertisementRepository</text><rect fill="#E2E2F0" height="32.6211" rx="2.5" ry="2.5" style="stroke:#181818;stroke-width:0.5;" width="107.3721" x="1403.8008" y="89.6211"/><text fill="#000000" font-family="sans-serif" font-size="14" lengthAdjust="spacing" textLength="93.3721" x="1410.8008" y="111.7285">:Advertisement</text><rect fill="#E2E2F0" height="32.6211" rx="2.5" ry="2.5" style="stroke:#181818;stroke-width:0.5;" width="107.3721" x="1403.8008" y="1792.8223"/><text fill="#000000" font-family="sans-serif" font-size="14" lengthAdjust="spacing" textLength="93.3721" x="1410.8008" y="1814.9297">:Advertisement</text><rect fill="#E2E2F0" height="32.6211" rx="2.5" ry="2.5" style="stroke:#181818;stroke-width:0.5;" width="70.7998" x="1690.6084" y="89.6211"/><text fill="#000000" font-family="sans-serif" font-size="14" lengthAdjust="spacing" textLength="56.7998" x="1697.6084" y="111.7285">:Property</text><rect fill="#E2E2F0" height="32.6211" rx="2.5" ry="2.5" style="stroke:#181818;stroke-width:0.5;" width="70.7998" x="1690.6084" y="1792.8223"/><text fill="#000000" font-family="sans-serif" font-size="14" lengthAdjust="spacing" textLength="56.7998" x="1697.6084" y="1814.9297">:Property</text><rect fill="#E2E2F0" height="32.6211" rx="2.5" ry="2.5" style="stroke:#181818;stroke-width:0.5;" width="83.2549" x="1846.0098" y="89.6211"/><text fill="#000000" font-family="sans-serif" font-size="14" lengthAdjust="spacing" textLength="69.2549" x="1853.0098" y="111.7285">:Residency</text><rect fill="#E2E2F0" height="32.6211" rx="2.5" ry="2.5" style="stroke:#181818;stroke-width:0.5;" width="83.2549" x="1846.0098" y="1792.8223"/><text fill="#000000" font-family="sans-serif" font-size="14" lengthAdjust="spacing" textLength="69.2549" x="1853.0098" y="1814.9297">:Residency</text><rect fill="#E2E2F0" height="32.6211" rx="2.5" ry="2.5" style="stroke:#181818;stroke-width:0.5;" width="179.7441" x="1939.2646" y="89.6211"/><text fill="#000000" font-family="sans-serif" font-size="14" lengthAdjust="spacing" textLength="165.7441" x="1946.2646" y="111.7285">:DisplayedPropertyMapper</text><rect fill="#E2E2F0" height="32.6211" rx="2.5" ry="2.5" style="stroke:#181818;stroke-width:0.5;" width="179.7441" x="1939.2646" y="1792.8223"/><text fill="#000000" font-family="sans-serif" font-size="14" lengthAdjust="spacing" textLength="165.7441" x="1946.2646" y="1814.9297">:DisplayedPropertyMapper</text><rect fill="#E2E2F0" height="32.6211" rx="2.5" ry="2.5" style="stroke:#181818;stroke-width:0.5;" width="246.6816" x="2129.0088" y="1792.8223"/><text fill="#000000" font-family="sans-serif" font-size="14" lengthAdjust="spacing" textLength="232.6816" x="2136.0088" y="1814.9297">availableAdvList:List&lt;Advertisement&gt;</text><rect fill="#E2E2F0" height="32.6211" rx="2.5" ry="2.5" style="stroke:#181818;stroke-width:0.5;" width="361.0127" x="2385.6904" y="1792.8223"/><text fill="#000000" font-family="sans-serif" font-size="14" lengthAdjust="spacing" textLength="347.0127" x="2392.6904" y="1814.9297">listDisplayedPropertyDTO:List&lt;DisplayedPropertyDTO&gt;</text><rect fill="#E2E2F0" height="32.6211" rx="2.5" ry="2.5" style="stroke:#181818;stroke-width:0.5;" width="303.4404" x="2756.7031" y="1792.8223"/><text fill="#000000" font-family="sans-serif" font-size="14" lengthAdjust="spacing" textLength="289.4404" x="2763.7031" y="1814.9297">displayedPropertyDTO:DisplayedPropertyDTO</text><rect fill="#FFFFFF" height="1651.5801" style="stroke:#181818;stroke-width:1.0;" width="10" x="17.7793" y="133.2422"/><rect fill="#FFFFFF" height="1619.2891" style="stroke:#181818;stroke-width:1.0;" width="10" x="255.2817" y="156.5332"/><rect fill="#FFFFFF" height="1556.707" style="stroke:#181818;stroke-width:1.0;" width="10" x="475.7568" y="187.8242"/><rect fill="#FFFFFF" height="137.4941" style="stroke:#181818;stroke-width:1.0;" width="10" x="669.1558" y="219.1152"/><rect fill="#FFFFFF" height="31.291" style="stroke:#181818;stroke-width:1.0;" width="10" x="881.3438" y="250.4063"/><rect fill="#FFFFFF" height="390.5313" style="stroke:#181818;stroke-width:1.0;" width="10" x="1077.2915" y="387.9004"/><rect fill="#FFFFFF" height="31.291" style="stroke:#181818;stroke-width:1.0;" width="10" x="1287.646" y="419.1914"/><rect fill="#FFFFFF" height="31.291" style="stroke:#181818;stroke-width:1.0;" width="10" x="1452.4868" y="551.6855"/><rect fill="#FFFFFF" height="31.291" style="stroke:#181818;stroke-width:1.0;" width="10" x="1452.4868" y="614.2676"/><rect fill="#FFFFFF" height="31.291" style="stroke:#181818;stroke-width:1.0;" width="10" x="1452.4868" y="910.9258"/><rect fill="#FFFFFF" height="31.291" style="stroke:#181818;stroke-width:1.0;" width="10" x="1452.4868" y="973.5078"/><rect fill="#FFFFFF" height="31.291" style="stroke:#181818;stroke-width:1.0;" width="10" x="1452.4868" y="1036.0898"/><rect fill="#FFFFFF" height="440.0742" style="stroke:#181818;stroke-width:1.0;" width="10" x="1452.4868" y="1098.6719"/><rect fill="#FFFFFF" height="31.291" style="stroke:#181818;stroke-width:1.0;" width="10" x="1721.0083" y="1129.9629"/><rect fill="#FFFFFF" height="31.291" style="stroke:#181818;stroke-width:1.0;" width="10" x="1721.0083" y="1192.5449"/><rect fill="#FFFFFF" height="245.3281" style="stroke:#181818;stroke-width:1.0;" width="10" x="1721.0083" y="1255.127"/><rect fill="#FFFFFF" height="31.291" style="stroke:#181818;stroke-width:1.0;" width="10" x="1882.6372" y="1312.709"/><rect fill="#FFFFFF" height="31.291" style="stroke:#181818;stroke-width:1.0;" width="10" x="1882.6372" y="1375.291"/><rect fill="#FFFFFF" height="31.291" style="stroke:#181818;stroke-width:1.0;" width="10" x="1882.6372" y="1437.873"/><rect fill="#FFFFFF" height="31.291" style="stroke:#181818;stroke-width:1.0;" width="10" x="2024.1367" y="809.7227"/><rect fill="#FFFFFF" height="143.2031" style="stroke:#181818;stroke-width:1.0;" width="10" x="2024.1367" y="1570.0371"/><rect fill="#FFFFFF" height="30" style="stroke:#181818;stroke-width:1.0;" width="10" x="2247.3496" y="703.1406"/><rect fill="#FFFFFF" height="30" style="stroke:#181818;stroke-width:1.0;" width="10" x="2561.1968" y="1644.9492"/><polygon fill="#181818" points="243.2817,152.5332,253.2817,156.5332,243.2817,160.5332,247.2817,156.5332" style="stroke:#181818;stroke-width:1.0;"/><line style="stroke:#181818;stroke-width:1.0;" x1="27.7793" x2="249.2817" y1="156.5332" y2="156.5332"/><text fill="#000000" font-family="sans-serif" font-size="13" font-weight="bold" lengthAdjust="spacing" textLength="7.23" x="34.7793" y="151.2705">1</text><text fill="#000000" font-family="sans-serif" font-size="13" lengthAdjust="spacing" textLength="197.2725" x="46.0093" y="151.2705">request to display listed properties</text><polygon fill="#181818" points="463.7568,183.8242,473.7568,187.8242,463.7568,191.8242,467.7568,187.8242" style="stroke:#181818;stroke-width:1.0;"/><line style="stroke:#181818;stroke-width:1.0;" x1="265.2817" x2="469.7568" y1="187.8242" y2="187.8242"/><text fill="#000000" font-family="sans-serif" font-size="13" font-weight="bold" lengthAdjust="spacing" textLength="7.23" x="272.2817" y="182.5615">2</text><text fill="#000000" font-family="sans-serif" font-size="13" lengthAdjust="spacing" textLength="120.6689" x="283.5117" y="182.5615">getListedProperties()</text><polygon fill="#181818" points="657.1558,215.1152,667.1558,219.1152,657.1558,223.1152,661.1558,219.1152" style="stroke:#181818;stroke-width:1.0;"/><line style="stroke:#181818;stroke-width:1.0;" x1="485.7568" x2="663.1558" y1="219.1152" y2="219.1152"/><text fill="#000000" font-family="sans-serif" font-size="13" font-weight="bold" lengthAdjust="spacing" textLength="7.23" x="492.7568" y="213.8525">3</text><text fill="#000000" font-family="sans-serif" font-size="13" lengthAdjust="spacing" textLength="153.1689" x="503.9868" y="213.8525">getAdvertisementService()</text><polygon fill="#181818" points="869.3438,246.4063,879.3438,250.4063,869.3438,254.4063,873.3438,250.4063" style="stroke:#181818;stroke-width:1.0;"/><line style="stroke:#181818;stroke-width:1.0;" x1="679.1558" x2="875.3438" y1="250.4063" y2="250.4063"/><text fill="#000000" font-family="sans-serif" font-size="13" font-weight="bold" lengthAdjust="spacing" textLength="7.23" x="686.1558" y="245.1436">4</text><text fill="#000000" font-family="sans-serif" font-size="13" lengthAdjust="spacing" textLength="171.958" x="697.3857" y="245.1436">getAdvertisementRepository()</text><polygon fill="#181818" points="690.1558,277.6973,680.1558,281.6973,690.1558,285.6973,686.1558,281.6973" style="stroke:#181818;stroke-width:1.0;"/><line style="stroke:#181818;stroke-width:1.0;stroke-dasharray:2.0,2.0;" x1="684.1558" x2="885.3438" y1="281.6973" y2="281.6973"/><text fill="#000000" font-family="sans-serif" font-size="13" font-weight="bold" lengthAdjust="spacing" textLength="7.23" x="696.1558" y="276.4346">5</text><text fill="#000000" font-family="sans-serif" font-size="13" lengthAdjust="spacing" textLength="26.019" x="707.3857" y="276.4346">repo</text><polygon fill="#181818" points="971.0918,308.9883,981.0918,312.9883,971.0918,316.9883,975.0918,312.9883" style="stroke:#181818;stroke-width:1.0;"/><line style="stroke:#181818;stroke-width:1.0;" x1="679.1558" x2="977.0918" y1="312.9883" y2="312.9883"/><text fill="#000000" font-family="sans-serif" font-size="13" font-weight="bold" lengthAdjust="spacing" textLength="7.23" x="686.1558" y="307.7256">6</text><text fill="#000000" font-family="sans-serif" font-size="13" lengthAdjust="spacing" textLength="70.8081" x="697.3857" y="307.7256">create(repo)</text><rect fill="#E2E2F0" height="32.6211" rx="2.5" ry="2.5" style="stroke:#181818;stroke-width:0.5;" width="198.3994" x="983.0918" y="289.6973"/><text fill="#000000" font-family="sans-serif" font-size="14" lengthAdjust="spacing" textLength="184.3994" x="990.0918" y="311.8047">service:AdvertisementService</text><polygon fill="#181818" points="496.7568,352.6094,486.7568,356.6094,496.7568,360.6094,492.7568,356.6094" style="stroke:#181818;stroke-width:1.0;"/><line style="stroke:#181818;stroke-width:1.0;stroke-dasharray:2.0,2.0;" x1="490.7568" x2="673.1558" y1="356.6094" y2="356.6094"/><text fill="#000000" font-family="sans-serif" font-size="13" font-weight="bold" lengthAdjust="spacing" textLength="7.23" x="502.7568" y="351.3467">7</text><text fill="#000000" font-family="sans-serif" font-size="13" lengthAdjust="spacing" textLength="41.1772" x="513.9868" y="351.3467">service</text><polygon fill="#181818" points="1065.2915,383.9004,1075.2915,387.9004,1065.2915,391.9004,1069.2915,387.9004" style="stroke:#181818;stroke-width:1.0;"/><line style="stroke:#181818;stroke-width:1.0;" x1="485.7568" x2="1071.2915" y1="387.9004" y2="387.9004"/><text fill="#000000" font-family="sans-serif" font-size="13" font-weight="bold" lengthAdjust="spacing" textLength="7.23" x="492.7568" y="382.6377">8</text><text fill="#000000" font-family="sans-serif" font-size="13" lengthAdjust="spacing" textLength="169.0762" x="503.9868" y="382.6377">getAvailableAdvertisements()</text><polygon fill="#181818" points="1275.646,415.1914,1285.646,419.1914,1275.646,423.1914,1279.646,419.1914" style="stroke:#181818;stroke-width:1.0;"/><line style="stroke:#181818;stroke-width:1.0;" x1="1087.2915" x2="1281.646" y1="419.1914" y2="419.1914"/><text fill="#000000" font-family="sans-serif" font-size="13" font-weight="bold" lengthAdjust="spacing" textLength="7.23" x="1094.2915" y="413.9287">9</text><text fill="#000000" font-family="sans-serif" font-size="13" lengthAdjust="spacing" textLength="41.1772" x="1105.5215" y="413.9287">getAll()</text><polygon fill="#181818" points="1098.2915,446.4824,1088.2915,450.4824,1098.2915,454.4824,1094.2915,450.4824" style="stroke:#181818;stroke-width:1.0;"/><line style="stroke:#181818;stroke-width:1.0;stroke-dasharray:2.0,2.0;" x1="1092.2915" x2="1291.646" y1="450.4824" y2="450.4824"/><text fill="#000000" font-family="sans-serif" font-size="13" font-weight="bold" lengthAdjust="spacing" textLength="14.46" x="1104.2915" y="445.2197">10</text><text fill="#000000" font-family="sans-serif" font-size="13" lengthAdjust="spacing" textLength="41.1899" x="1122.7515" y="445.2197">advList</text><polygon fill="#181818" points="2117.0088,477.7734,2127.0088,481.7734,2117.0088,485.7734,2121.0088,481.7734" style="stroke:#181818;stroke-width:1.0;"/><line style="stroke:#181818;stroke-width:1.0;" x1="1087.2915" x2="2123.0088" y1="481.7734" y2="481.7734"/><text fill="#000000" font-family="sans-serif" font-size="13" font-weight="bold" lengthAdjust="spacing" textLength="14.46" x="1094.2915" y="476.5107">11</text><text fill="#000000" font-family="sans-serif" font-size="13" lengthAdjust="spacing" textLength="44.7891" x="1112.7515" y="476.5107">create()</text><rect fill="#E2E2F0" height="32.6211" rx="2.5" ry="2.5" style="stroke:#181818;stroke-width:0.5;" width="246.6816" x="2129.0088" y="458.4824"/><text fill="#000000" font-family="sans-serif" font-size="14" lengthAdjust="spacing" textLength="232.6816" x="2136.0088" y="480.5898">availableAdvList:List&lt;Advertisement&gt;</text><path d="M963.0918,509.1035 L1035.5264,509.1035 L1035.5264,518.3945 L1025.5264,528.3945 L963.0918,528.3945 L963.0918,509.1035 " fill="#EEEEEE" style="stroke:#000000;stroke-width:1.5;"/><rect fill="none" height="239.0371" style="stroke:#000000;stroke-width:1.5;" width="1432.5986" x="963.0918" y="509.1035"/><text fill="#000000" font-family="sans-serif" font-size="13" font-weight="bold" lengthAdjust="spacing" textLength="27.4346" x="978.0918" y="524.1318">loop</text><text fill="#000000" font-family="sans-serif" font-size="11" font-weight="bold" lengthAdjust="spacing" textLength="183.9868" x="1050.5264" y="522.9736">[for each Advertisement in advList]</text><polygon fill="#181818" points="1440.4868,547.6855,1450.4868,551.6855,1440.4868,555.6855,1444.4868,551.6855" style="stroke:#181818;stroke-width:1.0;"/><line style="stroke:#181818;stroke-width:1.0;" x1="1087.2915" x2="1446.4868" y1="551.6855" y2="551.6855"/><text fill="#000000" font-family="sans-serif" font-size="13" font-weight="bold" lengthAdjust="spacing" textLength="14.46" x="1094.2915" y="546.4229">12</text><text fill="#000000" font-family="sans-serif" font-size="13" lengthAdjust="spacing" textLength="75.1372" x="1112.7515" y="546.4229">getIsVisible()</text><polygon fill="#181818" points="1098.2915,578.9766,1088.2915,582.9766,1098.2915,586.9766,1094.2915,582.9766" style="stroke:#181818;stroke-width:1.0;"/><line style="stroke:#181818;stroke-width:1.0;stroke-dasharray:2.0,2.0;" x1="1092.2915" x2="1456.4868" y1="582.9766" y2="582.9766"/><text fill="#000000" font-family="sans-serif" font-size="13" font-weight="bold" lengthAdjust="spacing" textLength="14.46" x="1104.2915" y="577.7139">13</text><text fill="#000000" font-family="sans-serif" font-size="13" lengthAdjust="spacing" textLength="47.6836" x="1122.7515" y="577.7139">isVisible</text><polygon fill="#181818" points="1440.4868,610.2676,1450.4868,614.2676,1440.4868,618.2676,1444.4868,614.2676" style="stroke:#181818;stroke-width:1.0;"/><line style="stroke:#181818;stroke-width:1.0;" x1="1087.2915" x2="1446.4868" y1="614.2676" y2="614.2676"/><text fill="#000000" font-family="sans-serif" font-size="13" font-weight="bold" lengthAdjust="spacing" textLength="14.46" x="1094.2915" y="609.0049">14</text><text fill="#000000" font-family="sans-serif" font-size="13" lengthAdjust="spacing" textLength="62.8608" x="1112.7515" y="609.0049">getIsSold()</text><polygon fill="#181818" points="1098.2915,641.5586,1088.2915,645.5586,1098.2915,649.5586,1094.2915,645.5586" style="stroke:#181818;stroke-width:1.0;"/><line style="stroke:#181818;stroke-width:1.0;stroke-dasharray:2.0,2.0;" x1="1092.2915" x2="1456.4868" y1="645.5586" y2="645.5586"/><text fill="#000000" font-family="sans-serif" font-size="13" font-weight="bold" lengthAdjust="spacing" textLength="14.46" x="1104.2915" y="640.2959">15</text><text fill="#000000" font-family="sans-serif" font-size="13" lengthAdjust="spacing" textLength="35.4072" x="1122.7515" y="640.2959">isSold</text><path d="M973.0918,660.5586 L1038.3027,660.5586 L1038.3027,669.8496 L1028.3027,679.8496 L973.0918,679.8496 L973.0918,660.5586 " fill="#EEEEEE" style="stroke:#000000;stroke-width:1.5;"/><rect fill="none" height="80.582" style="stroke:#000000;stroke-width:1.5;" width="1412.5986" x="973.0918" y="660.5586"/><text fill="#000000" font-family="sans-serif" font-size="13" font-weight="bold" lengthAdjust="spacing" textLength="20.2109" x="988.0918" y="675.5869">opt</text><text fill="#000000" font-family="sans-serif" font-size="11" font-weight="bold" lengthAdjust="spacing" textLength="190.7383" x="1053.3027" y="674.4287">[isVisible == true &amp;&amp; isSold == false]</text><polygon fill="#181818" points="2235.3496,699.1406,2245.3496,703.1406,2235.3496,707.1406,2239.3496,703.1406" style="stroke:#181818;stroke-width:1.0;"/><line style="stroke:#181818;stroke-width:1.0;" x1="1087.2915" x2="2241.3496" y1="703.1406" y2="703.1406"/><text fill="#000000" font-family="sans-serif" font-size="13" font-weight="bold" lengthAdjust="spacing" textLength="14.46" x="1094.2915" y="697.8779">16</text><text fill="#000000" font-family="sans-serif" font-size="13" lengthAdjust="spacing" textLength="51.3081" x="1112.7515" y="697.8779">add(adv)</text><polygon fill="#181818" points="496.7568,774.4316,486.7568,778.4316,496.7568,782.4316,492.7568,778.4316" style="stroke:#181818;stroke-width:1.0;"/><line style="stroke:#181818;stroke-width:1.0;stroke-dasharray:2.0,2.0;" x1="490.7568" x2="1081.2915" y1="778.4316" y2="778.4316"/><text fill="#000000" font-family="sans-serif" font-size="13" font-weight="bold" lengthAdjust="spacing" textLength="14.46" x="502.7568" y="773.1689">17</text><text fill="#000000" font-family="sans-serif" font-size="13" lengthAdjust="spacing" textLength="93.9453" x="521.2168" y="773.1689">availableAdvList</text><polygon fill="#181818" points="2012.1367,805.7227,2022.1367,809.7227,2012.1367,813.7227,2016.1367,809.7227" style="stroke:#181818;stroke-width:1.0;"/><line style="stroke:#181818;stroke-width:1.0;" x1="485.7568" x2="2018.1367" y1="809.7227" y2="809.7227"/><text fill="#000000" font-family="sans-serif" font-size="13" font-weight="bold" lengthAdjust="spacing" textLength="14.46" x="492.7568" y="804.46">18</text><text fill="#000000" font-family="sans-serif" font-size="13" lengthAdjust="spacing" textLength="92.46" x="511.2168" y="804.46">createDTOList()</text><polygon fill="#181818" points="2373.6904,837.0137,2383.6904,841.0137,2373.6904,845.0137,2377.6904,841.0137" style="stroke:#181818;stroke-width:1.0;"/><line style="stroke:#181818;stroke-width:1.0;" x1="2029.1367" x2="2379.6904" y1="841.0137" y2="841.0137"/><text fill="#000000" font-family="sans-serif" font-size="13" font-weight="bold" lengthAdjust="spacing" textLength="14.46" x="2036.1367" y="835.751">19</text><text fill="#000000" font-family="sans-serif" font-size="13" lengthAdjust="spacing" textLength="44.7891" x="2054.5967" y="835.751">create()</text><rect fill="#E2E2F0" height="32.6211" rx="2.5" ry="2.5" style="stroke:#181818;stroke-width:0.5;" width="361.0127" x="2385.6904" y="817.7227"/><text fill="#000000" font-family="sans-serif" font-size="14" lengthAdjust="spacing" textLength="347.0127" x="2392.6904" y="839.8301">listDisplayedPropertyDTO:List&lt;DisplayedPropertyDTO&gt;</text><path d="M357.9331,868.3438 L430.3677,868.3438 L430.3677,877.6348 L420.3677,887.6348 L357.9331,887.6348 L357.9331,868.3438 " fill="#EEEEEE" style="stroke:#000000;stroke-width:1.5;"/><rect fill="none" height="814.6055" style="stroke:#000000;stroke-width:1.5;" width="2712.2104" x="357.9331" y="868.3438"/><text fill="#000000" font-family="sans-serif" font-size="13" font-weight="bold" lengthAdjust="spacing" textLength="27.4346" x="372.9331" y="883.3721">loop</text><text fill="#000000" font-family="sans-serif" font-size="11" font-weight="bold" lengthAdjust="spacing" textLength="237.5205" x="445.3677" y="882.2139">[for each 'Advertisement' in availableAdvList]</text><polygon fill="#181818" points="1440.4868,906.9258,1450.4868,910.9258,1440.4868,914.9258,1444.4868,910.9258" style="stroke:#181818;stroke-width:1.0;"/><line style="stroke:#181818;stroke-width:1.0;" x1="485.7568" x2="1446.4868" y1="910.9258" y2="910.9258"/><text fill="#000000" font-family="sans-serif" font-size="13" font-weight="bold" lengthAdjust="spacing" textLength="14.46" x="492.7568" y="905.6631">20</text><text fill="#000000" font-family="sans-serif" font-size="13" lengthAdjust="spacing" textLength="108.3799" x="511.2168" y="905.6631">getTypeBusiness()</text><polygon fill="#181818" points="496.7568,938.2168,486.7568,942.2168,496.7568,946.2168,492.7568,942.2168" style="stroke:#181818;stroke-width:1.0;"/><line style="stroke:#181818;stroke-width:1.0;stroke-dasharray:2.0,2.0;" x1="490.7568" x2="1456.4868" y1="942.2168" y2="942.2168"/><text fill="#000000" font-family="sans-serif" font-size="13" font-weight="bold" lengthAdjust="spacing" textLength="14.46" x="502.7568" y="936.9541">21</text><text fill="#000000" font-family="sans-serif" font-size="13" lengthAdjust="spacing" textLength="77.3208" x="521.2168" y="936.9541">typeBusiness</text><polygon fill="#181818" points="1440.4868,969.5078,1450.4868,973.5078,1440.4868,977.5078,1444.4868,973.5078" style="stroke:#181818;stroke-width:1.0;"/><line style="stroke:#181818;stroke-width:1.0;" x1="485.7568" x2="1446.4868" y1="973.5078" y2="973.5078"/><text fill="#000000" font-family="sans-serif" font-size="13" font-weight="bold" lengthAdjust="spacing" textLength="14.46" x="492.7568" y="968.2451">22</text><text fill="#000000" font-family="sans-serif" font-size="13" lengthAdjust="spacing" textLength="104.7617" x="511.2168" y="968.2451">getTypeProperty()</text><polygon fill="#181818" points="496.7568,1000.7988,486.7568,1004.7988,496.7568,1008.7988,492.7568,1004.7988" style="stroke:#181818;stroke-width:1.0;"/><line style="stroke:#181818;stroke-width:1.0;stroke-dasharray:2.0,2.0;" x1="490.7568" x2="1456.4868" y1="1004.7988" y2="1004.7988"/><text fill="#000000" font-family="sans-serif" font-size="13" font-weight="bold" lengthAdjust="spacing" textLength="14.46" x="502.7568" y="999.5361">23</text><text fill="#000000" font-family="sans-serif" font-size="13" lengthAdjust="spacing" textLength="73.7026" x="521.2168" y="999.5361">typeProperty</text><polygon fill="#181818" points="1440.4868,1032.0898,1450.4868,1036.0898,1440.4868,1040.0898,1444.4868,1036.0898" style="stroke:#181818;stroke-width:1.0;"/><line style="stroke:#181818;stroke-width:1.0;" x1="485.7568" x2="1446.4868" y1="1036.0898" y2="1036.0898"/><text fill="#000000" font-family="sans-serif" font-size="13" font-weight="bold" lengthAdjust="spacing" textLength="14.46" x="492.7568" y="1030.8271">24</text><text fill="#000000" font-family="sans-serif" font-size="13" lengthAdjust="spacing" textLength="56.3481" x="511.2168" y="1030.8271">getPrice()</text><polygon fill="#181818" points="496.7568,1063.3809,486.7568,1067.3809,496.7568,1071.3809,492.7568,1067.3809" style="stroke:#181818;stroke-width:1.0;"/><line style="stroke:#181818;stroke-width:1.0;stroke-dasharray:2.0,2.0;" x1="490.7568" x2="1456.4868" y1="1067.3809" y2="1067.3809"/><text fill="#000000" font-family="sans-serif" font-size="13" font-weight="bold" lengthAdjust="spacing" textLength="14.46" x="502.7568" y="1062.1182">25</text><text fill="#000000" font-family="sans-serif" font-size="13" lengthAdjust="spacing" textLength="28.1772" x="521.2168" y="1062.1182">price</text><polygon fill="#181818" points="1440.4868,1094.6719,1450.4868,1098.6719,1440.4868,1102.6719,1444.4868,1098.6719" style="stroke:#181818;stroke-width:1.0;"/><line style="stroke:#181818;stroke-width:1.0;" x1="485.7568" x2="1446.4868" y1="1098.6719" y2="1098.6719"/><text fill="#000000" font-family="sans-serif" font-size="13" font-weight="bold" lengthAdjust="spacing" textLength="14.46" x="492.7568" y="1093.4092">26</text><text fill="#000000" font-family="sans-serif" font-size="13" lengthAdjust="spacing" textLength="130.7744" x="511.2168" y="1093.4092">getPropertyAttributes()</text><polygon fill="#181818" points="1709.0083,1125.9629,1719.0083,1129.9629,1709.0083,1133.9629,1713.0083,1129.9629" style="stroke:#181818;stroke-width:1.0;"/><line style="stroke:#181818;stroke-width:1.0;" x1="1462.4868" x2="1715.0083" y1="1129.9629" y2="1129.9629"/><text fill="#000000" font-family="sans-serif" font-size="13" font-weight="bold" lengthAdjust="spacing" textLength="14.46" x="1469.4868" y="1124.7002">27</text><text fill="#000000" font-family="sans-serif" font-size="13" lengthAdjust="spacing" textLength="54.1899" x="1487.9468" y="1124.7002">getArea()</text><polygon fill="#181818" points="1473.4868,1157.2539,1463.4868,1161.2539,1473.4868,1165.2539,1469.4868,1161.2539" style="stroke:#181818;stroke-width:1.0;"/><line style="stroke:#181818;stroke-width:1.0;stroke-dasharray:2.0,2.0;" x1="1467.4868" x2="1725.0083" y1="1161.2539" y2="1161.2539"/><text fill="#000000" font-family="sans-serif" font-size="13" font-weight="bold" lengthAdjust="spacing" textLength="14.46" x="1479.4868" y="1155.9912">28</text><text fill="#000000" font-family="sans-serif" font-size="13" lengthAdjust="spacing" textLength="26.019" x="1497.9468" y="1155.9912">area</text><polygon fill="#181818" points="1709.0083,1188.5449,1719.0083,1192.5449,1709.0083,1196.5449,1713.0083,1192.5449" style="stroke:#181818;stroke-width:1.0;"/><line style="stroke:#181818;stroke-width:1.0;" x1="1462.4868" x2="1715.0083" y1="1192.5449" y2="1192.5449"/><text fill="#000000" font-family="sans-serif" font-size="13" font-weight="bold" lengthAdjust="spacing" textLength="14.46" x="1469.4868" y="1187.2822">29</text><text fill="#000000" font-family="sans-serif" font-size="13" lengthAdjust="spacing" textLength="75.8799" x="1487.9468" y="1187.2822">getLocation()</text><polygon fill="#181818" points="1473.4868,1219.8359,1463.4868,1223.8359,1473.4868,1227.8359,1469.4868,1223.8359" style="stroke:#181818;stroke-width:1.0;"/><line style="stroke:#181818;stroke-width:1.0;stroke-dasharray:2.0,2.0;" x1="1467.4868" x2="1725.0083" y1="1223.8359" y2="1223.8359"/><text fill="#000000" font-family="sans-serif" font-size="13" font-weight="bold" lengthAdjust="spacing" textLength="14.46" x="1479.4868" y="1218.5732">30</text><text fill="#000000" font-family="sans-serif" font-size="13" lengthAdjust="spacing" textLength="44.8081" x="1497.9468" y="1218.5732">location</text><polygon fill="#181818" points="1709.0083,1251.127,1719.0083,1255.127,1709.0083,1259.127,1713.0083,1255.127" style="stroke:#181818;stroke-width:1.0;"/><line style="stroke:#181818;stroke-width:1.0;" x1="1462.4868" x2="1715.0083" y1="1255.127" y2="1255.127"/><text fill="#000000" font-family="sans-serif" font-size="13" font-weight="bold" lengthAdjust="spacing" textLength="14.46" x="1469.4868" y="1249.8643">31</text><text fill="#000000" font-family="sans-serif" font-size="13" lengthAdjust="spacing" textLength="87.4263" x="1487.9468" y="1249.8643">getResidency()</text><path d="M1393.8008,1270.127 L1459.0117,1270.127 L1459.0117,1279.418 L1449.0117,1289.418 L1393.8008,1289.418 L1393.8008,1270.127 " fill="#EEEEEE" style="stroke:#000000;stroke-width:1.5;"/><rect fill="none" height="238.3281" style="stroke:#000000;stroke-width:1.5;" width="545.4639" x="1393.8008" y="1270.127"/><text fill="#000000" font-family="sans-serif" font-size="13" font-weight="bold" lengthAdjust="spacing" textLength="20.2109" x="1408.8008" y="1285.1553">opt</text><text fill="#000000" font-family="sans-serif" font-size="11" font-weight="bold" lengthAdjust="spacing" textLength="186.4253" x="1474.0117" y="1283.9971">[Property is an house or apartment]</text><polygon fill="#181818" points="1870.6372,1308.709,1880.6372,1312.709,1870.6372,1316.709,1874.6372,1312.709" style="stroke:#181818;stroke-width:1.0;"/><line style="stroke:#181818;stroke-width:1.0;" x1="1731.0083" x2="1876.6372" y1="1312.709" y2="1312.709"/><text fill="#000000" font-family="sans-serif" font-size="13" font-weight="bold" lengthAdjust="spacing" textLength="14.46" x="1738.0083" y="1307.4463">32</text><text fill="#000000" font-family="sans-serif" font-size="13" lengthAdjust="spacing" textLength="85.979" x="1756.4683" y="1307.4463">getBedrooms()</text><polygon fill="#181818" points="1742.0083,1340,1732.0083,1344,1742.0083,1348,1738.0083,1344" style="stroke:#181818;stroke-width:1.0;"/><line style="stroke:#181818;stroke-width:1.0;stroke-dasharray:2.0,2.0;" x1="1736.0083" x2="1886.6372" y1="1344" y2="1344"/><text fill="#000000" font-family="sans-serif" font-size="13" font-weight="bold" lengthAdjust="spacing" textLength="14.46" x="1748.0083" y="1338.7373">33</text><text fill="#000000" font-family="sans-serif" font-size="13" lengthAdjust="spacing" textLength="57.8081" x="1766.4683" y="1338.7373">bedrooms</text><polygon fill="#181818" points="1870.6372,1371.291,1880.6372,1375.291,1870.6372,1379.291,1874.6372,1375.291" style="stroke:#181818;stroke-width:1.0;"/><line style="stroke:#181818;stroke-width:1.0;" x1="1731.0083" x2="1876.6372" y1="1375.291" y2="1375.291"/><text fill="#000000" font-family="sans-serif" font-size="13" font-weight="bold" lengthAdjust="spacing" textLength="14.46" x="1738.0083" y="1370.0283">34</text><text fill="#000000" font-family="sans-serif" font-size="13" lengthAdjust="spacing" textLength="89.5908" x="1756.4683" y="1370.0283">getBathrooms()</text><polygon fill="#181818" points="1742.0083,1402.582,1732.0083,1406.582,1742.0083,1410.582,1738.0083,1406.582" style="stroke:#181818;stroke-width:1.0;"/><line style="stroke:#181818;stroke-width:1.0;stroke-dasharray:2.0,2.0;" x1="1736.0083" x2="1886.6372" y1="1406.582" y2="1406.582"/><text fill="#000000" font-family="sans-serif" font-size="13" font-weight="bold" lengthAdjust="spacing" textLength="14.46" x="1748.0083" y="1401.3193">35</text><text fill="#000000" font-family="sans-serif" font-size="13" lengthAdjust="spacing" textLength="61.4199" x="1766.4683" y="1401.3193">bathrooms</text><polygon fill="#181818" points="1870.6372,1433.873,1880.6372,1437.873,1870.6372,1441.873,1874.6372,1437.873" style="stroke:#181818;stroke-width:1.0;"/><line style="stroke:#181818;stroke-width:1.0;" x1="1731.0083" x2="1876.6372" y1="1437.873" y2="1437.873"/><text fill="#000000" font-family="sans-serif" font-size="13" font-weight="bold" lengthAdjust="spacing" textLength="14.46" x="1738.0083" y="1432.6104">36</text><text fill="#000000" font-family="sans-serif" font-size="13" lengthAdjust="spacing" textLength="114.1689" x="1756.4683" y="1432.6104">getParkingSpaces()</text><polygon fill="#181818" points="1742.0083,1465.1641,1732.0083,1469.1641,1742.0083,1473.1641,1738.0083,1469.1641" style="stroke:#181818;stroke-width:1.0;"/><line style="stroke:#181818;stroke-width:1.0;stroke-dasharray:2.0,2.0;" x1="1736.0083" x2="1886.6372" y1="1469.1641" y2="1469.1641"/><text fill="#000000" font-family="sans-serif" font-size="13" font-weight="bold" lengthAdjust="spacing" textLength="14.46" x="1748.0083" y="1463.9014">37</text><text fill="#000000" font-family="sans-serif" font-size="13" lengthAdjust="spacing" textLength="85.998" x="1766.4683" y="1463.9014">parkingSpaces</text><polygon fill="#181818" points="1473.4868,1496.4551,1463.4868,1500.4551,1473.4868,1504.4551,1469.4868,1500.4551" style="stroke:#181818;stroke-width:1.0;"/><line style="stroke:#181818;stroke-width:1.0;stroke-dasharray:2.0,2.0;" x1="1467.4868" x2="1725.0083" y1="1500.4551" y2="1500.4551"/><text fill="#000000" font-family="sans-serif" font-size="13" font-weight="bold" lengthAdjust="spacing" textLength="14.46" x="1479.4868" y="1495.1924">38</text><text fill="#000000" font-family="sans-serif" font-size="13" lengthAdjust="spacing" textLength="216.0615" x="1497.9468" y="1495.1924">bedrooms, bathrooms,parkingSpaces</text><polygon fill="#181818" points="496.7568,1534.7461,486.7568,1538.7461,496.7568,1542.7461,492.7568,1538.7461" style="stroke:#181818;stroke-width:1.0;"/><line style="stroke:#181818;stroke-width:1.0;stroke-dasharray:2.0,2.0;" x1="490.7568" x2="1456.4868" y1="1538.7461" y2="1538.7461"/><text fill="#000000" font-family="sans-serif" font-size="13" font-weight="bold" lengthAdjust="spacing" textLength="14.46" x="502.7568" y="1533.4834">39</text><text fill="#000000" font-family="sans-serif" font-size="13" lengthAdjust="spacing" textLength="304.9478" x="521.2168" y="1533.4834">area, location, bedrooms, bathrooms, parkingSpaces</text><polygon fill="#181818" points="2012.1367,1566.0371,2022.1367,1570.0371,2012.1367,1574.0371,2016.1367,1570.0371" style="stroke:#181818;stroke-width:1.0;"/><line style="stroke:#181818;stroke-width:1.0;" x1="485.7568" x2="2018.1367" y1="1570.0371" y2="1570.0371"/><text fill="#000000" font-family="sans-serif" font-size="13" font-weight="bold" lengthAdjust="spacing" textLength="14.46" x="492.7568" y="1564.7744">40</text><text fill="#000000" font-family="sans-serif" font-size="13" lengthAdjust="spacing" textLength="527.4775" x="511.2168" y="1564.7744">toDTO(typeBusiness,typeProperty,price,area,location,bedrooms,bathrooms,parkingSpaces)</text><polygon fill="#181818" points="2744.7031,1597.3281,2754.7031,1601.3281,2744.7031,1605.3281,2748.7031,1601.3281" style="stroke:#181818;stroke-width:1.0;"/><line style="stroke:#181818;stroke-width:1.0;" x1="2034.1367" x2="2750.7031" y1="1601.3281" y2="1601.3281"/><text fill="#000000" font-family="sans-serif" font-size="13" font-weight="bold" lengthAdjust="spacing" textLength="14.46" x="2041.1367" y="1596.0654">41</text><text fill="#000000" font-family="sans-serif" font-size="13" lengthAdjust="spacing" textLength="525.3257" x="2059.5967" y="1596.0654">create(typeBusiness,typeProperty,price,area,location,bedrooms,bathrooms,parkingSpaces)</text><rect fill="#E2E2F0" height="32.6211" rx="2.5" ry="2.5" style="stroke:#181818;stroke-width:0.5;" width="303.4404" x="2756.7031" y="1578.0371"/><text fill="#000000" font-family="sans-serif" font-size="14" lengthAdjust="spacing" textLength="289.4404" x="2763.7031" y="1600.1445">displayedPropertyDTO:DisplayedPropertyDTO</text><polygon fill="#181818" points="2549.1968,1640.9492,2559.1968,1644.9492,2549.1968,1648.9492,2553.1968,1644.9492" style="stroke:#181818;stroke-width:1.0;"/><line style="stroke:#181818;stroke-width:1.0;" x1="2034.1367" x2="2555.1968" y1="1644.9492" y2="1644.9492"/><text fill="#000000" font-family="sans-serif" font-size="13" font-weight="bold" lengthAdjust="spacing" textLength="14.46" x="2041.1367" y="1639.6865">42</text><text fill="#000000" font-family="sans-serif" font-size="13" lengthAdjust="spacing" textLength="161.8462" x="2059.5967" y="1639.6865">add(displayedPropertyDTO)</text><polygon fill="#181818" points="496.7568,1709.2402,486.7568,1713.2402,496.7568,1717.2402,492.7568,1713.2402" style="stroke:#181818;stroke-width:1.0;"/><line style="stroke:#181818;stroke-width:1.0;stroke-dasharray:2.0,2.0;" x1="490.7568" x2="2028.1367" y1="1713.2402" y2="1713.2402"/><text fill="#000000" font-family="sans-serif" font-size="13" font-weight="bold" lengthAdjust="spacing" textLength="14.46" x="502.7568" y="1707.9775">43</text><text fill="#000000" font-family="sans-serif" font-size="13" lengthAdjust="spacing" textLength="149.5444" x="521.2168" y="1707.9775">listDisplayedPropertyDTO</text><polygon fill="#181818" points="276.2817,1740.5313,266.2817,1744.5313,276.2817,1748.5313,272.2817,1744.5313" style="stroke:#181818;stroke-width:1.0;"/><line style="stroke:#181818;stroke-width:1.0;stroke-dasharray:2.0,2.0;" x1="270.2817" x2="479.7568" y1="1744.5313" y2="1744.5313"/><text fill="#000000" font-family="sans-serif" font-size="13" font-weight="bold" lengthAdjust="spacing" textLength="14.46" x="282.2817" y="1739.2686">44</text><text fill="#000000" font-family="sans-serif" font-size="13" lengthAdjust="spacing" textLength="149.5444" x="300.7417" y="1739.2686">listDisplayedPropertyDTO</text><polygon fill="#181818" points="38.7793,1771.8223,28.7793,1775.8223,38.7793,1779.8223,34.7793,1775.8223" style="stroke:#181818;stroke-width:1.0;"/><line style="stroke:#181818;stroke-width:1.0;stroke-dasharray:2.0,2.0;" x1="32.7793" x2="259.2817" y1="1775.8223" y2="1775.8223"/><text fill="#000000" font-family="sans-serif" font-size="13" font-weight="bold" lengthAdjust="spacing" textLength="14.46" x="44.7793" y="1770.5596">45</text><text fill="#000000" font-family="sans-serif" font-size="13" lengthAdjust="spacing" textLength="132.228" x="63.2393" y="1770.5596">shows listed properties</text><!--SRC=[jLR9Rjim4BthAmWVOYUmcg97eH6G1GK2f6WGDxtJqYGcIeiiIJdmttUuQA4igMc1vk1Gd3Tlzf6MEsEapYul9QULgVVyGo7sbnf-rL0La9QClYgwJnB330VolFdqCIDtJ2FwI3ZJ1aeYbP2W30ET9BGsWXQ67QW18YhtNDNxBIYK5KOeidZMe1Q4Qc8FYQIeMJ29niaY2ymFZlYnvVt1uCshtBzFuLPKHWdEWwLRe_X0yLRiyNJqOd-E4I_EtMFs159ePezV_8rJ2UTO1UCvi0Aow_9WtT2mXyfi_ANJ2kTOIw61MAKpwRJiuy3x2Ev0qSq07VBYsPg70UO9D2knv8t9y3IUxZRLnwzKof1aVqnSdNtzNO4J-qlI76kN4MNxIXjY12adc-ZvFirjnJBo2cPOsTLvOcM8y4LpeB64Mw27f7ceLZQ4Teb6T02bFMfRceub45zSPAHGW06khBmpqtWTsY3u6RISxGDbd6uvH4xOa08epQr7FYJEyNvfdzDyOPEKsLHyZbJpHS-PyyI1Euk4bWUhqx4lQC-3XtTnSY4aUS6v1LhiuYuZh3er4I5S9FSulfgXJMIBf7rNMGEQPze8NixJM4GYfEaOoTKLCQe6SdOMvFRcXN8DVviPcz9oXJ6V9oKqRPv0LHAqwFxRTBMiJKCCkN56baCCT_U-PVmaPRu6Tz-_MHsCsb-7RZYPHCHvdySahgXjJNk-3-gxZ09UkWgVEE-TF2tFzwE4crgp2hGUAPAFq_H0iqoDzxDCxJAROdfKVXMCKqWhJMQKFVkrCOfjQmEdOUKDniqt9XWHpLKwvAGedzD_40KrJ5Hp73nW9dciu-twHYOx2uqG-v_GYkn4hV7jh0YrszszC5fxUQlhc6wWL4BijTikGP3shMq3O9g1cjqVA1h49CSZLJzPzRgHj8197ja7JIUmSNZTsLt7giqyZ_UCBUAQD6LOap4-4XD6Ksq4pkEgFmRhVYUlNK-kdPNMI6jZmkNURYZ7ziBOIkXjXF_cpByiAhzZny8uMRfksGPZ_JqwHkoBaERsAsGIWryUYC3tDxx4T-9DZttXzlv-0m00]--></g></svg>