<svg xmlns="http://www.w3.org/2000/svg" xmlns:xlink="http://www.w3.org/1999/xlink" contentStyleType="text/css" height="1194px" preserveAspectRatio="none" style="width:1082px;height:1194px;background:#FFFFFF;" version="1.1" viewBox="0 0 1082 1194" width="1082px" zoomAndPan="magnify"><title>US20: Class Diagram</title><defs/><g><text fill="#000000" font-family="sans-serif" font-size="14" font-weight="bold" lengthAdjust="spacing" textLength="140.8408" x="463.9438" y="25.1074">US20: Class Diagram</text><!--class DisplayListedPropertiesView--><g id="elem_DisplayListedPropertiesView"><rect codeLine="9" fill="#F1F1F1" height="44.6211" id="DisplayListedPropertiesView" rx="2.5" ry="2.5" style="stroke:#181818;stroke-width:0.5;" width="183.4131" x="307" y="46.6211"/><text fill="#000000" font-family="sans-serif" font-size="14" lengthAdjust="spacing" textLength="177.4131" x="310" y="66.7285">DisplayListedPropertiesView</text><line style="stroke:#181818;stroke-width:0.5;" x1="308" x2="489.4131" y1="75.2422" y2="75.2422"/><line style="stroke:#181818;stroke-width:0.5;" x1="308" x2="489.4131" y1="83.2422" y2="83.2422"/></g><!--class DisplayListedPropertiesController--><g id="elem_DisplayListedPropertiesController"><rect codeLine="12" fill="#F1F1F1" height="63.2422" id="DisplayListedPropertiesController" rx="2.5" ry="2.5" style="stroke:#181818;stroke-width:0.5;" width="213.7578" x="291.5" y="152.6211"/><text fill="#000000" font-family="sans-serif" font-size="14" lengthAdjust="spacing" textLength="207.7578" x="294.5" y="172.7285">DisplayListedPropertiesController</text><line style="stroke:#181818;stroke-width:0.5;" x1="292.5" x2="504.2578" y1="181.2422" y2="181.2422"/><line style="stroke:#181818;stroke-width:0.5;" x1="292.5" x2="504.2578" y1="189.2422" y2="189.2422"/><text fill="#000000" font-family="sans-serif" font-size="14" lengthAdjust="spacing" textLength="138.127" x="297.5" y="208.3496">+getListedProperties()</text></g><!--class Company--><g id="elem_Company"><rect codeLine="17" fill="#F1F1F1" height="63.2422" id="Company" rx="2.5" ry="2.5" style="stroke:#181818;stroke-width:0.5;" width="185.127" x="125" y="286.1211"/><text fill="#000000" font-family="sans-serif" font-size="14" lengthAdjust="spacing" textLength="59.917" x="187.605" y="306.2285">Company</text><line style="stroke:#181818;stroke-width:0.5;" x1="126" x2="309.127" y1="314.7422" y2="314.7422"/><line style="stroke:#181818;stroke-width:0.5;" x1="126" x2="309.127" y1="322.7422" y2="322.7422"/><text fill="#000000" font-family="sans-serif" font-size="14" lengthAdjust="spacing" textLength="173.127" x="131" y="341.8496">+getAdvertisementService()</text></g><!--class RepositoryFactory--><g id="elem_RepositoryFactory"><rect codeLine="21" fill="#F1F1F1" height="79.2031" id="RepositoryFactory" rx="2.5" ry="2.5" style="stroke:#181818;stroke-width:0.5;" width="197.1855" x="7" y="421.1211"/><text fill="#000000" font-family="sans-serif" font-size="12" font-style="italic" lengthAdjust="spacing" textLength="59.373" x="75.9063" y="439.0703">&#171;interface&#187;</text><text fill="#000000" font-family="sans-serif" font-size="14" font-style="italic" lengthAdjust="spacing" textLength="113.5928" x="48.7964" y="457.1895">RepositoryFactory</text><line style="stroke:#181818;stroke-width:0.5;" x1="8" x2="203.1855" y1="465.7031" y2="465.7031"/><line style="stroke:#181818;stroke-width:0.5;" x1="8" x2="203.1855" y1="473.7031" y2="473.7031"/><text fill="#000000" font-family="sans-serif" font-size="14" lengthAdjust="spacing" textLength="185.1855" x="13" y="492.8105">getAdvertisementRepository()</text></g><!--class AdvertisementService--><g id="elem_AdvertisementService"><rect codeLine="25" fill="#F1F1F1" height="81.8633" id="AdvertisementService" rx="2.5" ry="2.5" style="stroke:#181818;stroke-width:0.5;" width="142.165" x="239.5" y="419.6211"/><text fill="#000000" font-family="sans-serif" font-size="14" lengthAdjust="spacing" textLength="136.165" x="242.5" y="439.7285">AdvertisementService</text><line style="stroke:#181818;stroke-width:0.5;" x1="240.5" x2="380.665" y1="448.2422" y2="448.2422"/><line style="stroke:#181818;stroke-width:0.5;" x1="240.5" x2="380.665" y1="456.2422" y2="456.2422"/><text fill="#000000" font-family="sans-serif" font-size="14" lengthAdjust="spacing" textLength="52.5205" x="245.5" y="475.3496">+getAll()</text><text fill="#000000" font-family="sans-serif" font-size="14" lengthAdjust="spacing" textLength="84.4307" x="245.5" y="493.9707">+create(repo)</text></g><!--class Advertisement--><g id="elem_Advertisement"><rect codeLine="30" fill="#F1F1F1" height="100.4844" id="Advertisement" rx="2.5" ry="2.5" style="stroke:#181818;stroke-width:0.5;" width="136.8926" x="299" y="782.6211"/><text fill="#000000" font-family="sans-serif" font-size="14" lengthAdjust="spacing" textLength="89.4824" x="322.7051" y="802.7285">Advertisement</text><line style="stroke:#181818;stroke-width:0.5;" x1="300" x2="434.8926" y1="811.2422" y2="811.2422"/><line style="stroke:#181818;stroke-width:0.5;" x1="300" x2="434.8926" y1="819.2422" y2="819.2422"/><text fill="#000000" font-family="sans-serif" font-size="14" lengthAdjust="spacing" textLength="124.8926" x="305" y="838.3496">+getTypeBusiness()</text><text fill="#000000" font-family="sans-serif" font-size="14" lengthAdjust="spacing" textLength="120.9961" x="305" y="856.9707">+getTypeProperty()</text><text fill="#000000" font-family="sans-serif" font-size="14" lengthAdjust="spacing" textLength="68.8584" x="305" y="875.5918">+getPrice()</text></g><!--class AdvertisementRepository--><g id="elem_AdvertisementRepository"><rect codeLine="35" fill="#F1F1F1" height="79.2031" id="AdvertisementRepository" rx="2.5" ry="2.5" style="stroke:#181818;stroke-width:0.5;" width="162.3994" x="219.5" y="562.6211"/><text fill="#000000" font-family="sans-serif" font-size="12" font-style="italic" lengthAdjust="spacing" textLength="59.373" x="271.0132" y="580.5703">&#171;interface&#187;</text><text fill="#000000" font-family="sans-serif" font-size="14" font-style="italic" lengthAdjust="spacing" textLength="156.3994" x="222.5" y="598.6895">AdvertisementRepository</text><line style="stroke:#181818;stroke-width:0.5;" x1="220.5" x2="380.8994" y1="607.2031" y2="607.2031"/><line style="stroke:#181818;stroke-width:0.5;" x1="220.5" x2="380.8994" y1="615.2031" y2="615.2031"/><text fill="#000000" font-family="sans-serif" font-size="14" lengthAdjust="spacing" textLength="52.5205" x="225.5" y="634.3105">+getAll()</text></g><!--class Property--><g id="elem_Property"><rect codeLine="38" fill="#F1F1F1" height="81.8633" id="Property" rx="2.5" ry="2.5" style="stroke:#181818;stroke-width:0.5;" width="101.8926" x="316.5" y="943.6211"/><text fill="#000000" font-family="sans-serif" font-size="14" lengthAdjust="spacing" textLength="52.9102" x="340.9912" y="963.7285">Property</text><line style="stroke:#181818;stroke-width:0.5;" x1="317.5" x2="417.3926" y1="972.2422" y2="972.2422"/><line style="stroke:#181818;stroke-width:0.5;" x1="317.5" x2="417.3926" y1="980.2422" y2="980.2422"/><text fill="#000000" font-family="sans-serif" font-size="14" lengthAdjust="spacing" textLength="66.5342" x="322.5" y="999.3496">+getArea()</text><text fill="#000000" font-family="sans-serif" font-size="14" lengthAdjust="spacing" textLength="89.8926" x="322.5" y="1017.9707">+getLocation()</text></g><!--class Residency--><g id="elem_Residency"><rect codeLine="43" fill="#F1F1F1" height="100.4844" id="Residency" rx="2.5" ry="2.5" style="stroke:#181818;stroke-width:0.5;" width="143.127" x="296" y="1086.6211"/><text fill="#000000" font-family="sans-serif" font-size="14" lengthAdjust="spacing" textLength="65.3652" x="334.8809" y="1106.7285">Residency</text><line style="stroke:#181818;stroke-width:0.5;" x1="297" x2="438.127" y1="1115.2422" y2="1115.2422"/><line style="stroke:#181818;stroke-width:0.5;" x1="297" x2="438.127" y1="1123.2422" y2="1123.2422"/><text fill="#000000" font-family="sans-serif" font-size="14" lengthAdjust="spacing" textLength="100.7686" x="302" y="1142.3496">+getBedrooms()</text><text fill="#000000" font-family="sans-serif" font-size="14" lengthAdjust="spacing" textLength="104.6582" x="302" y="1160.9707">+getBathrooms()</text><text fill="#000000" font-family="sans-serif" font-size="14" lengthAdjust="spacing" textLength="131.127" x="302" y="1179.5918">+getParkingSpaces()</text></g><!--class DisplayedPropertyMapper--><g id="elem_DisplayedPropertyMapper"><rect codeLine="49" fill="#F1F1F1" height="81.8633" id="DisplayedPropertyMapper" rx="2.5" ry="2.5" style="stroke:#181818;stroke-width:0.5;" width="588.2285" x="487.5" y="276.6211"/><text fill="#000000" font-family="sans-serif" font-size="14" lengthAdjust="spacing" textLength="161.8545" x="700.687" y="296.7285">DisplayedPropertyMapper</text><line style="stroke:#181818;stroke-width:0.5;" x1="488.5" x2="1074.7285" y1="305.2422" y2="305.2422"/><line style="stroke:#181818;stroke-width:0.5;" x1="488.5" x2="1074.7285" y1="313.2422" y2="313.2422"/><text fill="#000000" font-family="sans-serif" font-size="14" lengthAdjust="spacing" textLength="576.2285" x="493.5" y="332.3496">+toDTO(typeBusiness,typeProperty,price,area,location,bedrooms,bathrooms,parkingSpaces)</text><text fill="#000000" font-family="sans-serif" font-size="14" lengthAdjust="spacing" textLength="107.748" x="493.5" y="350.9707">+createDTOList()</text></g><!--link DisplayListedPropertiesView to DisplayListedPropertiesController--><g id="link_DisplayListedPropertiesView_DisplayListedPropertiesController"><path codeLine="54" d="M398.5,91.6411 C398.5,108.8011 398.5,127.0611 398.5,146.2911 " fill="none" id="DisplayListedPropertiesView-to-DisplayListedPropertiesController" style="stroke:#181818;stroke-width:1.0;stroke-dasharray:7.0,7.0;"/><polygon fill="#181818" points="398.5,152.2911,402.5,143.2911,398.5,147.2911,394.5,143.2911,398.5,152.2911" style="stroke:#181818;stroke-width:1.0;"/></g><!--link DisplayListedPropertiesController to Company--><g id="link_DisplayListedPropertiesController_Company"><path codeLine="55" d="M356.06,215.9511 C327.02,237.0511 293.5143,261.3947 264.5243,282.4547 " fill="none" id="DisplayListedPropertiesController-to-Company" style="stroke:#181818;stroke-width:1.0;stroke-dasharray:7.0,7.0;"/><polygon fill="#181818" points="259.67,285.9811,269.3024,283.9276,263.7152,283.0424,264.6005,277.4552,259.67,285.9811" style="stroke:#181818;stroke-width:1.0;"/></g><!--link Company to RepositoryFactory--><g id="link_Company_RepositoryFactory"><path codeLine="56" d="M193.2,349.2111 C176.47,370.2711 157.8529,393.7237 139.8929,416.3237 " fill="none" id="Company-to-RepositoryFactory" style="stroke:#181818;stroke-width:1.0;stroke-dasharray:7.0,7.0;"/><polygon fill="#181818" points="136.16,421.0211,144.891,416.4637,139.2708,417.1066,138.6278,411.4864,136.16,421.0211" style="stroke:#181818;stroke-width:1.0;"/></g><!--link Company to AdvertisementService--><g id="link_Company_AdvertisementService"><path codeLine="57" d="M237.68,349.2111 C251.25,369.7911 265.9767,392.1123 280.6967,414.4323 " fill="none" id="Company-to-AdvertisementService" style="stroke:#181818;stroke-width:1.0;stroke-dasharray:7.0,7.0;"/><polygon fill="#181818" points="284,419.4411,282.3843,409.7257,281.2472,415.2671,275.7058,414.1301,284,419.4411" style="stroke:#181818;stroke-width:1.0;"/></g><!--link DisplayListedPropertiesController to AdvertisementService--><g id="link_DisplayListedPropertiesController_AdvertisementService"><path codeLine="58" d="M388.66,215.8111 C372.69,265.6111 342.9713,358.3174 325.2313,413.6674 " fill="none" id="DisplayListedPropertiesController-to-AdvertisementService" style="stroke:#181818;stroke-width:1.0;stroke-dasharray:7.0,7.0;"/><polygon fill="#181818" points="323.4,419.3811,329.9561,412.0314,324.9261,414.6197,322.3378,409.5897,323.4,419.3811" style="stroke:#181818;stroke-width:1.0;"/></g><!--link AdvertisementService to AdvertisementRepository--><g id="link_AdvertisementService_AdvertisementRepository"><path codeLine="59" d="M307.61,501.9711 C306.25,520.9611 305.06,537.5265 303.71,556.3165 " fill="none" id="AdvertisementService-to-AdvertisementRepository" style="stroke:#181818;stroke-width:1.0;stroke-dasharray:7.0,7.0;"/><polygon fill="#181818" points="303.28,562.3011,307.9147,553.6109,303.6383,557.3139,299.9352,553.0376,303.28,562.3011" style="stroke:#181818;stroke-width:1.0;"/></g><!--link DisplayListedPropertiesController to Advertisement--><g id="link_DisplayListedPropertiesController_Advertisement"><path codeLine="60" d="M411.91,215.8211 C422.14,242.0711 434.5,281.1211 434.5,316.6211 C434.5,316.6211 434.5,316.6211 434.5,713.1211 C434.5,737.9411 426.5364,757.3243 413.2364,777.4643 " fill="none" id="DisplayListedPropertiesController-to-Advertisement" style="stroke:#181818;stroke-width:1.0;stroke-dasharray:7.0,7.0;"/><polygon fill="#181818" points="409.93,782.4711,418.2274,777.1652,412.6853,778.2988,411.5517,772.7567,409.93,782.4711" style="stroke:#181818;stroke-width:1.0;"/></g><!--link Advertisement to Property--><g id="link_Advertisement_Property"><path codeLine="61" d="M367.5,882.7411 C367.5,902.3911 367.5,918.7411 367.5,937.4011 " fill="none" id="Advertisement-to-Property" style="stroke:#181818;stroke-width:1.0;"/><polygon fill="#181818" points="367.5,943.4011,371.5,934.4011,367.5,938.4011,363.5,934.4011,367.5,943.4011" style="stroke:#181818;stroke-width:1.0;"/></g><!--link DisplayListedPropertiesController to DisplayedPropertyMapper--><g id="link_DisplayListedPropertiesController_DisplayedPropertyMapper"><path codeLine="62" d="M487.81,215.7811 C540.53,233.8911 602.1854,255.052 659.0754,274.592 " fill="none" id="DisplayListedPropertiesController-to-DisplayedPropertyMapper" style="stroke:#181818;stroke-width:1.0;stroke-dasharray:7.0,7.0;"/><polygon fill="#181818" points="664.75,276.5411,657.5375,269.8344,660.0212,274.9169,654.9387,277.4006,664.75,276.5411" style="stroke:#181818;stroke-width:1.0;"/></g><!--reverse link Property to Residency--><g id="link_Property_Residency"><path codeLine="63" d="M367.5,1043.8211 C367.5,1062.4811 367.5,1066.8311 367.5,1086.4811 " fill="none" id="Property-backto-Residency" style="stroke:#181818;stroke-width:1.0;"/><polygon fill="none" points="367.5,1025.8211,361.5,1043.8211,373.5,1043.8211,367.5,1025.8211" style="stroke:#181818;stroke-width:1.0;"/></g><!--link RepositoryFactory to AdvertisementRepository--><g id="link_RepositoryFactory_AdvertisementRepository"><path codeLine="64" d="M159.56,500.2911 C186.72,519.7311 214.6603,539.7099 241.7903,559.1199 " fill="none" id="RepositoryFactory-to-AdvertisementRepository" style="stroke:#181818;stroke-width:1.0;stroke-dasharray:7.0,7.0;"/><polygon fill="#181818" points="246.67,562.6111,241.6779,554.1212,242.6036,559.7018,237.023,560.6275,246.67,562.6111" style="stroke:#181818;stroke-width:1.0;"/></g><!--link AdvertisementRepository to Advertisement--><g id="link_AdvertisementRepository_Advertisement"><path codeLine="65" d="M311.79,641.6211 C323.16,680.4211 339.0728,734.6532 351.4328,776.8332 " fill="none" id="AdvertisementRepository-to-Advertisement" style="stroke:#181818;stroke-width:1.0;"/><polygon fill="#181818" points="353.12,782.5911,354.4277,772.8294,351.714,777.7929,346.7506,775.0791,353.12,782.5911" style="stroke:#181818;stroke-width:1.0;"/><polygon fill="#000000" points="341.9067,717.0646,342.1821,707.5581,336.5417,709.2118,341.9067,717.0646" style="stroke:#000000;stroke-width:1.0;"/><text fill="#000000" font-family="sans-serif" font-size="13" lengthAdjust="spacing" textLength="20.96" x="349.5" y="717.6494">has</text><text fill="#000000" font-family="sans-serif" font-size="13" lengthAdjust="spacing" textLength="7.23" x="306.1143" y="663.907">1</text><text fill="#000000" font-family="sans-serif" font-size="13" lengthAdjust="spacing" textLength="19.5127" x="330.8055" y="771.375">0..*</text></g><!--SRC=[ZLJ1Jkim4BpxAwnUA8yaBUzOLP5e4H8IY8hotjrrbjR2iIrx2mg5VySXJXD2Gpb5Ni_Ep6OdETaW6ZSPZOna2hUvJBZEHrmov-9CiBLbEI4RaG7bmd89n3q9PPWlqq_G1Q8Lgot2DTTgALw1ZWb1WHBel-NVyOJEInIzhAa83sVd1OiRuH2oXTK6B0fm_mMyxCZx4THSAxHQIh0xShO6xDuFJqd3CTUvOQgea1VPSmbna8F29TXdmS6ZFLWe1Fl8ED1xCDe9rBQuOhnyqEbqVvkcEzBbQHeggahta5Gm8QK7dd4B365eVNTVMuL_A0pCjaueSELeTIdCMuJImjQpDAFqsEmEr9Xw3ovgxd3ddGQL6yqP2gtQazw3y_bGFA1da5cjyzhgZE6cVLumwnEqNXelxjeqOTdxHHQtp9ZF5QE-VBWROkirHDXw0P4fHu-OTnd9u2zQ1HVHgjQFJ5jvlm1FNUQdSl93B9CaFHf7SXJXMK8WINZwohV4jUuEnUXNCWSR3nMxsCRDSHtQRVwg4CTflQHVUUw90AcFTFeMnqtUoFTFrPFqfPxqVGs3ym6DlLKw62V9dy7N_WdTC4TJ_-Fw0000]--></g></svg>