<svg xmlns="http://www.w3.org/2000/svg" xmlns:xlink="http://www.w3.org/1999/xlink" contentStyleType="text/css" height="416px" preserveAspectRatio="none" style="width:1217px;height:416px;background:#FFFFFF;" version="1.1" viewBox="0 0 1217 416" width="1217px" zoomAndPan="magnify"><title>Class Diagram for US21: Client Registration</title><defs/><g><text fill="#000000" font-family="sans-serif" font-size="14" font-weight="bold" lengthAdjust="spacing" textLength="314.6445" x="444.5972" y="23.5352">Class Diagram for US21: Client Registration</text><!--class ClientView--><g id="elem_ClientView"><rect codeLine="8" fill="#F1F1F1" height="42.4883" id="ClientView" rx="2.5" ry="2.5" style="stroke:#181818;stroke-width:0.5;" width="77.292" x="571.21" y="44.4883"/><text fill="#000000" font-family="sans-serif" font-size="14" lengthAdjust="spacing" textLength="71.292" x="574.21" y="63.0234">ClientView</text><line style="stroke:#181818;stroke-width:0.5;" x1="572.21" x2="647.502" y1="70.9766" y2="70.9766"/><line style="stroke:#181818;stroke-width:0.5;" x1="572.21" x2="647.502" y1="78.9766" y2="78.9766"/></g><!--class RegistrationController--><g id="elem_RegistrationController"><rect codeLine="11" fill="#F1F1F1" height="58.9766" id="RegistrationController" rx="2.5" ry="2.5" style="stroke:#181818;stroke-width:0.5;" width="717.749" x="250.98" y="147.9783"/><text fill="#000000" font-family="sans-serif" font-size="14" lengthAdjust="spacing" textLength="149.9941" x="534.8574" y="166.5134">RegistrationController</text><line style="stroke:#181818;stroke-width:0.5;" x1="251.98" x2="967.729" y1="174.4666" y2="174.4666"/><line style="stroke:#181818;stroke-width:0.5;" x1="251.98" x2="967.729" y1="182.4666" y2="182.4666"/><text fill="#000000" font-family="sans-serif" font-size="14" lengthAdjust="spacing" textLength="705.749" x="256.98" y="200.0017">+registerClient(String code, string name, string idNumber, string tif, string email, string phoneNumber)</text></g><!--class ClientContainer--><g id="elem_ClientContainer"><rect codeLine="15" fill="#F1F1F1" height="108.4414" id="ClientContainer" rx="2.5" ry="2.5" style="stroke:#181818;stroke-width:0.5;" width="691.3623" x="264.17" y="284.4383"/><text fill="#000000" font-family="sans-serif" font-size="14" lengthAdjust="spacing" textLength="105.7109" x="556.9957" y="302.9734">ClientContainer</text><line style="stroke:#181818;stroke-width:0.5;" x1="265.17" x2="954.5323" y1="310.9266" y2="310.9266"/><line style="stroke:#181818;stroke-width:0.5;" x1="265.17" x2="954.5323" y1="318.9266" y2="318.9266"/><text fill="#000000" font-family="sans-serif" font-size="14" lengthAdjust="spacing" textLength="158.6895" x="270.17" y="336.4617">+getAll() : List&lt;Client&gt;</text><text fill="#000000" font-family="sans-serif" font-size="14" lengthAdjust="spacing" textLength="215.5098" x="270.17" y="352.95">+getClient(code: String) : Client</text><text fill="#000000" font-family="sans-serif" font-size="14" lengthAdjust="spacing" textLength="679.3623" x="270.17" y="369.4383">+storeClient(name: String, email: String, idNumber: String, tif: String, phoneNumber: String) : Client</text><text fill="#000000" font-family="sans-serif" font-size="14" lengthAdjust="spacing" textLength="244.9727" x="270.17" y="385.9266">+clientExists(code: String) : Boolean</text></g><!--class Client--><g id="elem_Client"><rect codeLine="22" fill="#F1F1F1" height="141.418" id="Client" rx="2.5" ry="2.5" style="stroke:#181818;stroke-width:0.5;" width="165.959" x="1044.88" y="267.9483"/><text fill="#000000" font-family="sans-serif" font-size="14" lengthAdjust="spacing" textLength="39.5049" x="1108.1071" y="286.4834">Client</text><line style="stroke:#181818;stroke-width:0.5;" x1="1045.88" x2="1209.839" y1="294.4366" y2="294.4366"/><text fill="#000000" font-family="sans-serif" font-size="14" lengthAdjust="spacing" textLength="93.7412" x="1050.88" y="311.9717">-code : String</text><text fill="#000000" font-family="sans-serif" font-size="14" lengthAdjust="spacing" textLength="98.6494" x="1050.88" y="328.46">-name : String</text><text fill="#000000" font-family="sans-serif" font-size="14" lengthAdjust="spacing" textLength="128.6592" x="1050.88" y="344.9483">-idNumber : String</text><text fill="#000000" font-family="sans-serif" font-size="14" lengthAdjust="spacing" textLength="75.79" x="1050.88" y="361.4366">-tif : String</text><text fill="#000000" font-family="sans-serif" font-size="14" lengthAdjust="spacing" textLength="93.625" x="1050.88" y="377.9248">-email: String</text><text fill="#000000" font-family="sans-serif" font-size="14" lengthAdjust="spacing" textLength="153.959" x="1050.88" y="394.4131">-phoneNumber: String</text><line style="stroke:#181818;stroke-width:0.5;" x1="1045.88" x2="1209.839" y1="401.3663" y2="401.3663"/></g><!--class Company--><g id="elem_Company"><rect codeLine="31" fill="#F1F1F1" height="58.9766" id="Company" rx="2.5" ry="2.5" style="stroke:#181818;stroke-width:0.5;" width="159.7109" x="7" y="309.1683"/><text fill="#000000" font-family="sans-serif" font-size="14" lengthAdjust="spacing" textLength="63.9023" x="54.9043" y="327.7034">Company</text><line style="stroke:#181818;stroke-width:0.5;" x1="8" x2="165.7109" y1="335.6566" y2="335.6566"/><line style="stroke:#181818;stroke-width:0.5;" x1="8" x2="165.7109" y1="343.6566" y2="343.6566"/><text fill="#000000" font-family="sans-serif" font-size="14" lengthAdjust="spacing" textLength="147.7109" x="13" y="361.1917">+getClientContainer()</text></g><!--link ClientView to RegistrationController--><g id="link_ClientView_RegistrationController"><path codeLine="35" d="M609.86,87.3683 C609.86,104.3783 609.86,122.6983 609.86,141.6383 " fill="none" id="ClientView-to-RegistrationController" style="stroke:#181818;stroke-width:1.0;stroke-dasharray:7.0,7.0;"/><polygon fill="#181818" points="609.86,147.6383,613.86,138.6383,609.86,142.6383,605.86,138.6383,609.86,147.6383" style="stroke:#181818;stroke-width:1.0;"/></g><!--link RegistrationController to ClientContainer--><g id="link_RegistrationController_ClientContainer"><path codeLine="37" d="M609.86,207.2883 C609.86,228.7083 609.86,252.5383 609.86,278.2583 " fill="none" id="RegistrationController-to-ClientContainer" style="stroke:#181818;stroke-width:1.0;stroke-dasharray:7.0,7.0;"/><polygon fill="#181818" points="609.86,284.2583,613.86,275.2583,609.86,279.2583,605.86,275.2583,609.86,284.2583" style="stroke:#181818;stroke-width:1.0;"/></g><!--link RegistrationController to Company--><g id="link_RegistrationController_Company"><path codeLine="39" d="M468.64,207.4283 C400.79,222.8283 318.79,243.6083 246.86,267.9483 C212.99,279.4083 181.804,292.6175 152.144,306.2175 " fill="none" id="RegistrationController-to-Company" style="stroke:#181818;stroke-width:1.0;stroke-dasharray:7.0,7.0;"/><polygon fill="#181818" points="146.69,308.7183,156.5382,308.603,151.235,306.6343,153.2038,301.3311,146.69,308.7183" style="stroke:#181818;stroke-width:1.0;"/></g><!--link RegistrationController to Client--><g id="link_RegistrationController_Client"><path codeLine="41" d="M752.51,207.3483 C820.12,222.6283 901.52,243.3483 972.86,267.9483 C996.56,276.1283 1016.1475,284.0982 1039.0375,294.3882 " fill="none" id="RegistrationController-to-Client" style="stroke:#181818;stroke-width:1.0;stroke-dasharray:7.0,7.0;"/><polygon fill="#181818" points="1044.51,296.8483,1037.9414,289.5098,1039.9496,294.7982,1034.6612,296.8064,1044.51,296.8483" style="stroke:#181818;stroke-width:1.0;"/></g><!--link Company to ClientContainer--><g id="link_Company_ClientContainer"><path codeLine="43" d="M167.14,338.6583 C194.99,338.6583 222.23,338.6583 257.81,338.6583 " fill="none" id="Company-to-ClientContainer" style="stroke:#181818;stroke-width:1.0;"/><polygon fill="#181818" points="263.81,338.6583,254.81,334.6583,258.81,338.6583,254.81,342.6583,263.81,338.6583" style="stroke:#181818;stroke-width:1.0;"/><text fill="#000000" font-family="sans-serif" font-size="13" lengthAdjust="spacing" textLength="61.6357" x="184.94" y="332.2266">maintains</text></g><!--link ClientContainer to Client--><g id="link_ClientContainer_Client"><path codeLine="45" d="M955.73,338.6583 C988.15,338.6583 1012.52,338.6583 1038.45,338.6583 " fill="none" id="ClientContainer-to-Client" style="stroke:#181818;stroke-width:1.0;"/><polygon fill="#181818" points="1044.45,338.6583,1035.45,334.6583,1039.45,338.6583,1035.45,342.6583,1044.45,338.6583" style="stroke:#181818;stroke-width:1.0;"/><text fill="#000000" font-family="sans-serif" font-size="13" lengthAdjust="spacing" textLength="53.2061" x="973.71" y="332.2266">contains</text><text fill="#000000" font-family="sans-serif" font-size="13" lengthAdjust="spacing" textLength="8.2202" x="963.9329" y="336.0545">1</text><text fill="#000000" font-family="sans-serif" font-size="13" lengthAdjust="spacing" textLength="22.7119" x="1014.0734" y="351.9085">1..*</text></g><!--SRC=[ZP9DJyCm38Rl-HLMBsomTOnZXIQDmG49SM22UzPwdKMQL4acFYR-EqdJBpg6w2b-_TfvtFXiPsrfajci55pQVI7YL1MpL71ZfXdnNFE2iHrb22dfL20phoHBxcIeJ4jhDMts5kzJ9TVqYN39c2Kh45O-3xUX2MoLXkVrrJnnEg6qy8Gv6Qkv9IKPgvhLgHV2DpYmhqRjErTAMgs4GEqSuBuBNMLHXzhHsl7875ALuGHC22Glke2ontsnGTqAbhRj6GjEeetAdP8OtECE9rpaGJZ9ZYD7knHYD8O47XpGTR0jscJDvy4I29JU6-JWCbPfh7sUkV5D0bSNDZDqYXkY2thSfwvAg_FTkoCrHqmtIWdaSZXoFUdKsw7n1ydJ3gI6SI0xq87oOxOW_J903qOL9PSVXy6VRHzaLBrLRvNYU75YXnWxiLk-PD3sRszW-aS_HnQyC3sw8W7tAwgpQGRerYoQHxuaciVnUTIyIE8MlIxu1W00]--></g></svg>