<svg xmlns="http://www.w3.org/2000/svg" xmlns:xlink="http://www.w3.org/1999/xlink" contentStyleType="text/css" height="794px" preserveAspectRatio="none" style="width:1717px;height:794px;background:#FFFFFF;" version="1.1" viewBox="0 0 1717 794" width="1717px" zoomAndPan="magnify"><defs/><g><rect fill="#FFFFFF" height="703.832" style="stroke:#181818;stroke-width:1.0;" width="10" x="46.833" y="46.4883"/><rect fill="#FFFFFF" height="673.5215" style="stroke:#181818;stroke-width:1.0;" width="10" x="204.5645" y="67.7988"/><rect fill="#FFFFFF" height="40.3105" style="stroke:#181818;stroke-width:1.0;" width="10" x="209.5645" y="664.6992"/><rect fill="#FFFFFF" height="465.6582" style="stroke:#181818;stroke-width:1.0;" width="10" x="624.8286" y="132.4199"/><rect fill="#FFFFFF" height="87.9316" style="stroke:#181818;stroke-width:1.0;" width="10" x="775.7046" y="161.7305"/><rect fill="#FFFFFF" height="29.3105" style="stroke:#181818;stroke-width:1.0;" width="10" x="1019.2578" y="308.2832"/><rect fill="#FFFFFF" height="172.5527" style="stroke:#181818;stroke-width:1.0;" width="10" x="1019.2578" y="396.2148"/><rect fill="#FFFFFF" height="40.3105" style="stroke:#181818;stroke-width:1.0;" width="10" x="1024.2578" y="433.5254"/><rect fill="#FFFFFF" height="29.3105" style="stroke:#181818;stroke-width:1.0;" width="10" x="1198.7412" y="191.041"/><rect fill="#FFFFFF" height="29.3105" style="stroke:#181818;stroke-width:1.0;" width="10" x="1382.627" y="510.1465"/><line style="stroke:#181818;stroke-width:0.5;stroke-dasharray:5.0,5.0;" x1="51" x2="51" y1="36.4883" y2="759.3203"/><line style="stroke:#181818;stroke-width:0.5;stroke-dasharray:5.0,5.0;" x1="209.4663" x2="209.4663" y1="36.4883" y2="759.3203"/><line style="stroke:#181818;stroke-width:0.5;stroke-dasharray:5.0,5.0;" x1="629.7808" x2="629.7808" y1="36.4883" y2="759.3203"/><line style="stroke:#181818;stroke-width:0.5;stroke-dasharray:5.0,5.0;" x1="780.5386" x2="780.5386" y1="36.4883" y2="759.3203"/><line style="stroke:#181818;stroke-width:0.5;stroke-dasharray:5.0,5.0;" x1="1024.1602" x2="1024.1602" y1="36.4883" y2="759.3203"/><line style="stroke:#181818;stroke-width:0.5;stroke-dasharray:5.0,5.0;" x1="1203.3555" x2="1203.3555" y1="36.4883" y2="759.3203"/><line style="stroke:#181818;stroke-width:0.5;stroke-dasharray:5.0,5.0;" x1="1387.127" x2="1387.127" y1="36.4883" y2="759.3203"/><line style="stroke:#181818;stroke-width:0.5;stroke-dasharray:5.0,5.0;" x1="1525.127" x2="1525.127" y1="36.4883" y2="759.3203"/><line style="stroke:#181818;stroke-width:0.5;stroke-dasharray:5.0,5.0;" x1="1647.0508" x2="1647.0508" y1="36.4883" y2="759.3203"/><rect fill="#E2E2F0" height="30.4883" rx="2.5" ry="2.5" style="stroke:#181818;stroke-width:0.5;" width="93.666" x="5" y="5"/><text fill="#000000" font-family="sans-serif" font-size="14" lengthAdjust="spacing" textLength="79.666" x="12" y="25.5352">:HTTPClient</text><rect fill="#E2E2F0" height="30.4883" rx="2.5" ry="2.5" style="stroke:#181818;stroke-width:0.5;" width="93.666" x="5" y="758.3203"/><text fill="#000000" font-family="sans-serif" font-size="14" lengthAdjust="spacing" textLength="79.666" x="12" y="778.8555">:HTTPClient</text><rect fill="#E2E2F0" height="30.4883" rx="2.5" ry="2.5" style="stroke:#181818;stroke-width:0.5;" width="162.1963" x="128.4663" y="5"/><text fill="#000000" font-family="sans-serif" font-size="14" lengthAdjust="spacing" textLength="148.1963" x="135.4663" y="25.5352">handler:RouteHandler</text><rect fill="#E2E2F0" height="30.4883" rx="2.5" ry="2.5" style="stroke:#181818;stroke-width:0.5;" width="162.1963" x="128.4663" y="758.3203"/><text fill="#000000" font-family="sans-serif" font-size="14" lengthAdjust="spacing" textLength="148.1963" x="135.4663" y="778.8555">handler:RouteHandler</text><rect fill="#E2E2F0" height="30.4883" rx="2.5" ry="2.5" style="stroke:#181818;stroke-width:0.5;" width="126.0957" x="566.7808" y="5"/><text fill="#000000" font-family="sans-serif" font-size="14" lengthAdjust="spacing" textLength="112.0957" x="573.7808" y="25.5352">:ClientController</text><rect fill="#E2E2F0" height="30.4883" rx="2.5" ry="2.5" style="stroke:#181818;stroke-width:0.5;" width="126.0957" x="566.7808" y="758.3203"/><text fill="#000000" font-family="sans-serif" font-size="14" lengthAdjust="spacing" textLength="112.0957" x="573.7808" y="778.8555">:ClientController</text><rect fill="#E2E2F0" height="30.4883" rx="2.5" ry="2.5" style="stroke:#181818;stroke-width:0.5;" width="82.332" x="739.5386" y="5"/><text fill="#000000" font-family="sans-serif" font-size="14" lengthAdjust="spacing" textLength="68.332" x="746.5386" y="25.5352">:Company</text><rect fill="#E2E2F0" height="30.4883" rx="2.5" ry="2.5" style="stroke:#181818;stroke-width:0.5;" width="82.332" x="739.5386" y="758.3203"/><text fill="#000000" font-family="sans-serif" font-size="14" lengthAdjust="spacing" textLength="68.332" x="746.5386" y="778.8555">:Company</text><rect fill="#E2E2F0" height="30.4883" rx="2.5" ry="2.5" style="stroke:#181818;stroke-width:0.5;" width="152.1953" x="948.1602" y="5"/><text fill="#000000" font-family="sans-serif" font-size="14" lengthAdjust="spacing" textLength="138.1953" x="955.1602" y="25.5352">service:ClientService</text><rect fill="#E2E2F0" height="30.4883" rx="2.5" ry="2.5" style="stroke:#181818;stroke-width:0.5;" width="152.1953" x="948.1602" y="758.3203"/><text fill="#000000" font-family="sans-serif" font-size="14" lengthAdjust="spacing" textLength="138.1953" x="955.1602" y="778.8555">service:ClientService</text><rect fill="#E2E2F0" height="30.4883" rx="2.5" ry="2.5" style="stroke:#181818;stroke-width:0.5;" width="186.7715" x="1110.3555" y="5"/><text fill="#000000" font-family="sans-serif" font-size="14" lengthAdjust="spacing" textLength="172.7715" x="1117.3555" y="25.5352">factory:RepositoryFactory</text><rect fill="#E2E2F0" height="30.4883" rx="2.5" ry="2.5" style="stroke:#181818;stroke-width:0.5;" width="186.7715" x="1110.3555" y="758.3203"/><text fill="#000000" font-family="sans-serif" font-size="14" lengthAdjust="spacing" textLength="172.7715" x="1117.3555" y="778.8555">factory:RepositoryFactory</text><rect fill="#E2E2F0" height="30.4883" rx="2.5" ry="2.5" style="stroke:#181818;stroke-width:0.5;" width="161" x="1307.127" y="5"/><text fill="#000000" font-family="sans-serif" font-size="14" lengthAdjust="spacing" textLength="147" x="1314.127" y="25.5352">repo:ClientRepository</text><rect fill="#E2E2F0" height="30.4883" rx="2.5" ry="2.5" style="stroke:#181818;stroke-width:0.5;" width="161" x="1307.127" y="758.3203"/><text fill="#000000" font-family="sans-serif" font-size="14" lengthAdjust="spacing" textLength="147" x="1314.127" y="778.8555">repo:ClientRepository</text><rect fill="#E2E2F0" height="30.4883" rx="2.5" ry="2.5" style="stroke:#181818;stroke-width:0.5;" width="94.9238" x="1478.127" y="5"/><text fill="#000000" font-family="sans-serif" font-size="14" lengthAdjust="spacing" textLength="80.9238" x="1485.127" y="25.5352">client:Client</text><rect fill="#E2E2F0" height="30.4883" rx="2.5" ry="2.5" style="stroke:#181818;stroke-width:0.5;" width="94.9238" x="1478.127" y="758.3203"/><text fill="#000000" font-family="sans-serif" font-size="14" lengthAdjust="spacing" textLength="80.9238" x="1485.127" y="778.8555">client:Client</text><rect fill="#E2E2F0" height="30.4883" rx="2.5" ry="2.5" style="stroke:#181818;stroke-width:0.5;" width="128.3994" x="1583.0508" y="5"/><text fill="#000000" font-family="sans-serif" font-size="14" lengthAdjust="spacing" textLength="114.3994" x="1590.0508" y="25.5352">result:HttpResult</text><rect fill="#E2E2F0" height="30.4883" rx="2.5" ry="2.5" style="stroke:#181818;stroke-width:0.5;" width="128.3994" x="1583.0508" y="758.3203"/><text fill="#000000" font-family="sans-serif" font-size="14" lengthAdjust="spacing" textLength="114.3994" x="1590.0508" y="778.8555">result:HttpResult</text><rect fill="#FFFFFF" height="703.832" style="stroke:#181818;stroke-width:1.0;" width="10" x="46.833" y="46.4883"/><rect fill="#FFFFFF" height="673.5215" style="stroke:#181818;stroke-width:1.0;" width="10" x="204.5645" y="67.7988"/><rect fill="#FFFFFF" height="40.3105" style="stroke:#181818;stroke-width:1.0;" width="10" x="209.5645" y="664.6992"/><rect fill="#FFFFFF" height="465.6582" style="stroke:#181818;stroke-width:1.0;" width="10" x="624.8286" y="132.4199"/><rect fill="#FFFFFF" height="87.9316" style="stroke:#181818;stroke-width:1.0;" width="10" x="775.7046" y="161.7305"/><rect fill="#FFFFFF" height="29.3105" style="stroke:#181818;stroke-width:1.0;" width="10" x="1019.2578" y="308.2832"/><rect fill="#FFFFFF" height="172.5527" style="stroke:#181818;stroke-width:1.0;" width="10" x="1019.2578" y="396.2148"/><rect fill="#FFFFFF" height="40.3105" style="stroke:#181818;stroke-width:1.0;" width="10" x="1024.2578" y="433.5254"/><rect fill="#FFFFFF" height="29.3105" style="stroke:#181818;stroke-width:1.0;" width="10" x="1198.7412" y="191.041"/><rect fill="#FFFFFF" height="29.3105" style="stroke:#181818;stroke-width:1.0;" width="10" x="1382.627" y="510.1465"/><polygon fill="#181818" points="192.5645,63.7988,202.5645,67.7988,192.5645,71.7988,196.5645,67.7988" style="stroke:#181818;stroke-width:1.0;"/><line style="stroke:#181818;stroke-width:1.0;" x1="56.833" x2="198.5645" y1="67.7988" y2="67.7988"/><text fill="#000000" font-family="sans-serif" font-size="13" font-weight="bold" lengthAdjust="spacing" textLength="8.5757" x="63.833" y="63.0566">1</text><text fill="#000000" font-family="sans-serif" font-size="13" lengthAdjust="spacing" textLength="116.1558" x="76.4087" y="63.0566">POST/clients(data)</text><path d="M108,80.7988 L108,105.7988 L309,105.7988 L309,90.7988 L299,80.7988 L108,80.7988 " fill="#FEFFDD" style="stroke:#181818;stroke-width:0.5;"/><path d="M299,80.7988 L299,90.7988 L309,90.7988 L299,80.7988 " fill="#FEFFDD" style="stroke:#181818;stroke-width:0.5;"/><text fill="#000000" font-family="sans-serif" font-size="13" lengthAdjust="spacing" textLength="180.3877" x="114" y="98.3672">after doing some processing</text><polygon fill="#181818" points="612.8286,128.4199,622.8286,132.4199,612.8286,136.4199,616.8286,132.4199" style="stroke:#181818;stroke-width:1.0;"/><line style="stroke:#181818;stroke-width:1.0;" x1="214.5645" x2="618.8286" y1="132.4199" y2="132.4199"/><text fill="#000000" font-family="sans-serif" font-size="13" font-weight="bold" lengthAdjust="spacing" textLength="8.5757" x="221.5645" y="127.6777">2</text><text fill="#000000" font-family="sans-serif" font-size="13" lengthAdjust="spacing" textLength="378.6885" x="234.1401" y="127.6777">postClient(code, name, idNumber, tif, email, phoneNumber)</text><polygon fill="#181818" points="763.7046,157.7305,773.7046,161.7305,763.7046,165.7305,767.7046,161.7305" style="stroke:#181818;stroke-width:1.0;"/><line style="stroke:#181818;stroke-width:1.0;" x1="634.8286" x2="769.7046" y1="161.7305" y2="161.7305"/><text fill="#000000" font-family="sans-serif" font-size="13" font-weight="bold" lengthAdjust="spacing" textLength="8.5757" x="641.8286" y="156.9883">3</text><text fill="#000000" font-family="sans-serif" font-size="13" lengthAdjust="spacing" textLength="109.3003" x="654.4043" y="156.9883">getClientService()</text><polygon fill="#181818" points="1186.7412,187.041,1196.7412,191.041,1186.7412,195.041,1190.7412,191.041" style="stroke:#181818;stroke-width:1.0;"/><line style="stroke:#181818;stroke-width:1.0;" x1="785.7046" x2="1192.7412" y1="191.041" y2="191.041"/><text fill="#000000" font-family="sans-serif" font-size="13" font-weight="bold" lengthAdjust="spacing" textLength="8.5757" x="792.7046" y="186.2988">4</text><text fill="#000000" font-family="sans-serif" font-size="13" lengthAdjust="spacing" textLength="132.3232" x="805.2803" y="186.2988">getClientRepository()</text><polygon fill="#181818" points="796.7046,216.3516,786.7046,220.3516,796.7046,224.3516,792.7046,220.3516" style="stroke:#181818;stroke-width:1.0;"/><line style="stroke:#181818;stroke-width:1.0;stroke-dasharray:2.0,2.0;" x1="790.7046" x2="1202.7412" y1="220.3516" y2="220.3516"/><text fill="#000000" font-family="sans-serif" font-size="13" font-weight="bold" lengthAdjust="spacing" textLength="8.5757" x="802.7046" y="215.6094">5</text><text fill="#000000" font-family="sans-serif" font-size="13" lengthAdjust="spacing" textLength="28.7295" x="815.2803" y="215.6094">repo</text><polygon fill="#181818" points="1012.2578,245.6621,1022.2578,249.6621,1012.2578,253.6621,1016.2578,249.6621" style="stroke:#181818;stroke-width:1.0;"/><line style="stroke:#181818;stroke-width:1.0;stroke-dasharray:2.0,2.0;" x1="780.7046" x2="1018.2578" y1="249.6621" y2="249.6621"/><text fill="#000000" font-family="sans-serif" font-size="13" font-weight="bold" lengthAdjust="spacing" textLength="8.5757" x="787.7046" y="244.9199">6</text><text fill="#000000" font-family="sans-serif" font-size="13" lengthAdjust="spacing" textLength="75.6895" x="800.2803" y="244.9199">create(repo)</text><polygon fill="#181818" points="645.8286,274.9727,635.8286,278.9727,645.8286,282.9727,641.8286,278.9727" style="stroke:#181818;stroke-width:1.0;"/><line style="stroke:#181818;stroke-width:1.0;stroke-dasharray:2.0,2.0;" x1="639.8286" x2="779.7046" y1="278.9727" y2="278.9727"/><text fill="#000000" font-family="sans-serif" font-size="13" font-weight="bold" lengthAdjust="spacing" textLength="8.5757" x="651.8286" y="274.2305">7</text><text fill="#000000" font-family="sans-serif" font-size="13" lengthAdjust="spacing" textLength="43.5767" x="664.4043" y="274.2305">service</text><polygon fill="#181818" points="1007.2578,304.2832,1017.2578,308.2832,1007.2578,312.2832,1011.2578,308.2832" style="stroke:#181818;stroke-width:1.0;"/><line style="stroke:#181818;stroke-width:1.0;" x1="634.8286" x2="1013.2578" y1="308.2832" y2="308.2832"/><text fill="#000000" font-family="sans-serif" font-size="13" font-weight="bold" lengthAdjust="spacing" textLength="8.5757" x="641.8286" y="303.541">8</text><text fill="#000000" font-family="sans-serif" font-size="13" lengthAdjust="spacing" textLength="352.8535" x="654.4043" y="303.541">create(code, name, idNumber, tif, email, phoneNumber)</text><polygon fill="#181818" points="1513.5889,333.5938,1523.5889,337.5938,1513.5889,341.5938,1517.5889,337.5938" style="stroke:#181818;stroke-width:1.0;"/><line style="stroke:#181818;stroke-width:1.0;stroke-dasharray:2.0,2.0;" x1="1024.2578" x2="1519.5889" y1="337.5938" y2="337.5938"/><text fill="#000000" font-family="sans-serif" font-size="13" font-weight="bold" lengthAdjust="spacing" textLength="8.5757" x="1031.2578" y="332.8516">9</text><text fill="#000000" font-family="sans-serif" font-size="13" lengthAdjust="spacing" textLength="352.8535" x="1043.8335" y="332.8516">create(code, name, idNumber, tif, email, phoneNumber)</text><polygon fill="#181818" points="645.8286,362.9043,635.8286,366.9043,645.8286,370.9043,641.8286,366.9043" style="stroke:#181818;stroke-width:1.0;"/><line style="stroke:#181818;stroke-width:1.0;stroke-dasharray:2.0,2.0;" x1="639.8286" x2="1023.2578" y1="366.9043" y2="366.9043"/><text fill="#000000" font-family="sans-serif" font-size="13" font-weight="bold" lengthAdjust="spacing" textLength="17.1514" x="651.8286" y="362.1621">10</text><text fill="#000000" font-family="sans-serif" font-size="13" lengthAdjust="spacing" textLength="34.3472" x="672.98" y="362.1621">client</text><polygon fill="#181818" points="1007.2578,392.2148,1017.2578,396.2148,1007.2578,400.2148,1011.2578,396.2148" style="stroke:#181818;stroke-width:1.0;"/><line style="stroke:#181818;stroke-width:1.0;" x1="634.8286" x2="1013.2578" y1="396.2148" y2="396.2148"/><text fill="#000000" font-family="sans-serif" font-size="13" font-weight="bold" lengthAdjust="spacing" textLength="17.1514" x="641.8286" y="391.4727">11</text><text fill="#000000" font-family="sans-serif" font-size="13" lengthAdjust="spacing" textLength="126.4199" x="662.98" y="391.4727">addOrUpdate(client)</text><line style="stroke:#181818;stroke-width:1.0;" x1="1029.2578" x2="1076.2578" y1="420.5254" y2="420.5254"/><line style="stroke:#181818;stroke-width:1.0;" x1="1076.2578" x2="1076.2578" y1="420.5254" y2="433.5254"/><line style="stroke:#181818;stroke-width:1.0;" x1="1035.2578" x2="1076.2578" y1="433.5254" y2="433.5254"/><polygon fill="#181818" points="1045.2578,429.5254,1035.2578,433.5254,1045.2578,437.5254,1041.2578,433.5254" style="stroke:#181818;stroke-width:1.0;"/><text fill="#000000" font-family="sans-serif" font-size="13" font-weight="bold" lengthAdjust="spacing" textLength="17.1514" x="1041.2578" y="415.7832">12</text><text fill="#000000" font-family="sans-serif" font-size="13" lengthAdjust="spacing" textLength="91.6919" x="1062.4092" y="415.7832">validate(client)</text><line style="stroke:#181818;stroke-width:1.0;stroke-dasharray:2.0,2.0;" x1="1034.2578" x2="1076.2578" y1="472.8359" y2="472.8359"/><line style="stroke:#181818;stroke-width:1.0;stroke-dasharray:2.0,2.0;" x1="1076.2578" x2="1076.2578" y1="472.8359" y2="485.8359"/><line style="stroke:#181818;stroke-width:1.0;stroke-dasharray:2.0,2.0;" x1="1029.2578" x2="1076.2578" y1="485.8359" y2="485.8359"/><polygon fill="#181818" points="1039.2578,481.8359,1029.2578,485.8359,1039.2578,489.8359,1035.2578,485.8359" style="stroke:#181818;stroke-width:1.0;"/><text fill="#000000" font-family="sans-serif" font-size="13" font-weight="bold" lengthAdjust="spacing" textLength="17.1514" x="1041.2578" y="468.0938">13</text><text fill="#000000" font-family="sans-serif" font-size="13" lengthAdjust="spacing" textLength="15.5835" x="1062.4092" y="468.0938">ok</text><polygon fill="#181818" points="1370.627,506.1465,1380.627,510.1465,1370.627,514.1465,1374.627,510.1465" style="stroke:#181818;stroke-width:1.0;"/><line style="stroke:#181818;stroke-width:1.0;" x1="1029.2578" x2="1376.627" y1="510.1465" y2="510.1465"/><text fill="#000000" font-family="sans-serif" font-size="13" font-weight="bold" lengthAdjust="spacing" textLength="17.1514" x="1036.2578" y="505.4043">14</text><text fill="#000000" font-family="sans-serif" font-size="13" lengthAdjust="spacing" textLength="70.5796" x="1057.4092" y="505.4043">save(client)</text><polygon fill="#181818" points="1040.2578,535.457,1030.2578,539.457,1040.2578,543.457,1036.2578,539.457" style="stroke:#181818;stroke-width:1.0;"/><line style="stroke:#181818;stroke-width:1.0;stroke-dasharray:2.0,2.0;" x1="1034.2578" x2="1386.627" y1="539.457" y2="539.457"/><text fill="#000000" font-family="sans-serif" font-size="13" font-weight="bold" lengthAdjust="spacing" textLength="17.1514" x="1046.2578" y="534.7148">15</text><text fill="#000000" font-family="sans-serif" font-size="13" lengthAdjust="spacing" textLength="15.5835" x="1067.4092" y="534.7148">ok</text><polygon fill="#181818" points="645.8286,564.7676,635.8286,568.7676,645.8286,572.7676,641.8286,568.7676" style="stroke:#181818;stroke-width:1.0;"/><line style="stroke:#181818;stroke-width:1.0;stroke-dasharray:2.0,2.0;" x1="639.8286" x2="1023.2578" y1="568.7676" y2="568.7676"/><text fill="#000000" font-family="sans-serif" font-size="13" font-weight="bold" lengthAdjust="spacing" textLength="17.1514" x="651.8286" y="564.0254">16</text><text fill="#000000" font-family="sans-serif" font-size="13" lengthAdjust="spacing" textLength="15.5835" x="672.98" y="564.0254">ok</text><polygon fill="#181818" points="1635.2505,594.0781,1645.2505,598.0781,1635.2505,602.0781,1639.2505,598.0781" style="stroke:#181818;stroke-width:1.0;"/><line style="stroke:#181818;stroke-width:1.0;stroke-dasharray:2.0,2.0;" x1="629.8286" x2="1641.2505" y1="598.0781" y2="598.0781"/><text fill="#000000" font-family="sans-serif" font-size="13" font-weight="bold" lengthAdjust="spacing" textLength="17.1514" x="636.8286" y="593.3359">17</text><text fill="#000000" font-family="sans-serif" font-size="13" lengthAdjust="spacing" textLength="71.6206" x="657.98" y="593.3359">create(201)</text><polygon fill="#181818" points="225.5645,623.3887,215.5645,627.3887,225.5645,631.3887,221.5645,627.3887" style="stroke:#181818;stroke-width:1.0;"/><line style="stroke:#181818;stroke-width:1.0;stroke-dasharray:2.0,2.0;" x1="219.5645" x2="628.8286" y1="627.3887" y2="627.3887"/><text fill="#000000" font-family="sans-serif" font-size="13" font-weight="bold" lengthAdjust="spacing" textLength="17.1514" x="231.5645" y="622.6465">18</text><text fill="#000000" font-family="sans-serif" font-size="13" lengthAdjust="spacing" textLength="35.877" x="252.7158" y="622.6465">result</text><line style="stroke:#181818;stroke-width:1.0;" x1="214.5645" x2="261.5645" y1="651.6992" y2="651.6992"/><line style="stroke:#181818;stroke-width:1.0;" x1="261.5645" x2="261.5645" y1="651.6992" y2="664.6992"/><line style="stroke:#181818;stroke-width:1.0;" x1="220.5645" x2="261.5645" y1="664.6992" y2="664.6992"/><polygon fill="#181818" points="230.5645,660.6992,220.5645,664.6992,230.5645,668.6992,226.5645,664.6992" style="stroke:#181818;stroke-width:1.0;"/><text fill="#000000" font-family="sans-serif" font-size="13" font-weight="bold" lengthAdjust="spacing" textLength="17.1514" x="226.5645" y="646.957">19</text><text fill="#000000" font-family="sans-serif" font-size="13" lengthAdjust="spacing" textLength="164.8994" x="247.7158" y="646.957">setHttpResult(resp, result)</text><line style="stroke:#181818;stroke-width:1.0;stroke-dasharray:2.0,2.0;" x1="219.5645" x2="261.5645" y1="704.0098" y2="704.0098"/><line style="stroke:#181818;stroke-width:1.0;stroke-dasharray:2.0,2.0;" x1="261.5645" x2="261.5645" y1="704.0098" y2="717.0098"/><line style="stroke:#181818;stroke-width:1.0;stroke-dasharray:2.0,2.0;" x1="214.5645" x2="261.5645" y1="717.0098" y2="717.0098"/><polygon fill="#181818" points="224.5645,713.0098,214.5645,717.0098,224.5645,721.0098,220.5645,717.0098" style="stroke:#181818;stroke-width:1.0;"/><text fill="#000000" font-family="sans-serif" font-size="13" font-weight="bold" lengthAdjust="spacing" textLength="17.1514" x="226.5645" y="699.2676">20</text><text fill="#000000" font-family="sans-serif" font-size="13" lengthAdjust="spacing" textLength="4.1133" x="247.7158" y="699.2676">&#160;</text><polygon fill="#181818" points="67.833,737.3203,57.833,741.3203,67.833,745.3203,63.833,741.3203" style="stroke:#181818;stroke-width:1.0;"/><line style="stroke:#181818;stroke-width:1.0;stroke-dasharray:2.0,2.0;" x1="61.833" x2="208.5645" y1="741.3203" y2="741.3203"/><text fill="#000000" font-family="sans-serif" font-size="13" font-weight="bold" lengthAdjust="spacing" textLength="17.1514" x="73.833" y="736.5781">21</text><text fill="#000000" font-family="sans-serif" font-size="13" lengthAdjust="spacing" textLength="27.3711" x="94.9844" y="736.5781">resp</text><!--SRC=[hLF1ZjiW4Btp5MWl6qlEfksHmruYLJbrLqdw0TIU9AWsK1XRojyN66piT5MfKY_M3FFU6tWpVhuXMYzsEzj9ZKFVlJIcttduDO1kODigUNMoPt908njKeqJWHgTS3_qFS8nPwL0roWO-VnA7y_bztodG-CIbvoLTusvIjnquSJG3me6IH3ZTFKB_84eAUwFHcMv2xj5rZpZJX-XEPOhN20zkL0ramHDbr9VYDVmItcpSNHp16gzY-9LE4YN7QueBq2nVM0aUqpMsIJ2niEiZgnpueKDn28CwfZ2hnP2nUIeBfrc9-VOrMohu-zlflAEUVjDAb1LZsiI1Zk1cbBnWo5gZz9LxqmEtpZJWVSWP8r0KZUuB7Xw8r6ZJc1PghcKVlghzbfQZvgWkDOTUggxczcOqKA5YaPzqQ4o2Nm5NKza43DKYB7lD5xXYRu1EzUrICiwYY6nVixBWZODWsIRMgoKWlofloNp7Hzu_FZNJgG6D_7yefQlIEF-ygMpRD_VTjgb9mYpOCoxOESfEVOnQmSpF9JrQ7soIOw75exzmvWk7GxfiaacRFPdnvTFdgXIdVQJrNspULF20vPy8i_Ispk1gHXVuygZy7adU_WO0]--></g></svg>