<svg xmlns="http://www.w3.org/2000/svg" xmlns:xlink="http://www.w3.org/1999/xlink" contentStyleType="text/css" height="681px" preserveAspectRatio="none" style="width:1889px;height:681px;background:#FFFFFF;" version="1.1" viewBox="0 0 1889 681" width="1889px" zoomAndPan="magnify"><title>US21: Register a New Client</title><defs/><g><text fill="#000000" font-family="sans-serif" font-size="14" font-weight="bold" lengthAdjust="spacing" textLength="199.9238" x="843.9341" y="28.5352">US21: Register a New Client</text><rect fill="#FFFFFF" height="462.5254" style="stroke:#181818;stroke-width:1.0;" width="10" x="49.8604" y="128.9766"/><rect fill="#FFFFFF" height="29.3105" style="stroke:#181818;stroke-width:1.0;" width="10" x="512.8125" y="150.2871"/><rect fill="#FFFFFF" height="373.5938" style="stroke:#181818;stroke-width:1.0;" width="10" x="512.8125" y="208.9082"/><rect fill="#FFFFFF" height="314.9727" style="stroke:#181818;stroke-width:1.0;" width="10" x="953.897" y="238.2188"/><rect fill="#FFFFFF" height="29.3105" style="stroke:#181818;stroke-width:1.0;" width="10" x="1385.0093" y="267.5293"/><rect fill="#FFFFFF" height="265.3516" style="stroke:#181818;stroke-width:1.0;" width="10" x="1385.0093" y="326.1504"/><rect fill="#FFFFFF" height="40.3105" style="stroke:#181818;stroke-width:1.0;" width="10" x="1390.0093" y="404.9492"/><rect fill="#FFFFFF" height="34.3105" style="stroke:#181818;stroke-width:1.0;" width="10" x="1390.0093" y="489.5703"/><line style="stroke:#181818;stroke-width:0.5;stroke-dasharray:5.0,5.0;" x1="54" x2="54" y1="118.9766" y2="600.502"/><line style="stroke:#181818;stroke-width:0.5;stroke-dasharray:5.0,5.0;" x1="516.9517" x2="516.9517" y1="118.9766" y2="600.502"/><line style="stroke:#181818;stroke-width:0.5;stroke-dasharray:5.0,5.0;" x1="958.6851" x2="958.6851" y1="118.9766" y2="600.502"/><line style="stroke:#181818;stroke-width:0.5;stroke-dasharray:5.0,5.0;" x1="1094.1089" x2="1094.1089" y1="118.9766" y2="600.502"/><line style="stroke:#181818;stroke-width:0.5;stroke-dasharray:5.0,5.0;" x1="1389.0938" x2="1389.0938" y1="118.9766" y2="600.502"/><line style="stroke:#181818;stroke-width:0.5;stroke-dasharray:5.0,5.0;" x1="1833.4385" x2="1833.4385" y1="364.8945" y2="600.502"/><text fill="#000000" font-family="sans-serif" font-size="14" lengthAdjust="spacing" textLength="93.7207" x="5" y="116.0234">Administrator</text><ellipse cx="54.8604" cy="50.9883" fill="#E2E2F0" rx="8" ry="8" style="stroke:#181818;stroke-width:0.5;"/><path d="M54.8604,58.9883 L54.8604,85.9883 M41.8604,66.9883 L67.8604,66.9883 M54.8604,85.9883 L41.8604,100.9883 M54.8604,85.9883 L67.8604,100.9883 " fill="none" style="stroke:#181818;stroke-width:0.5;"/><text fill="#000000" font-family="sans-serif" font-size="14" lengthAdjust="spacing" textLength="93.7207" x="5" y="613.0371">Administrator</text><ellipse cx="54.8604" cy="624.4902" fill="#E2E2F0" rx="8" ry="8" style="stroke:#181818;stroke-width:0.5;"/><path d="M54.8604,632.4902 L54.8604,659.4902 M41.8604,640.4902 L67.8604,640.4902 M54.8604,659.4902 L41.8604,674.4902 M54.8604,659.4902 L67.8604,674.4902 " fill="none" style="stroke:#181818;stroke-width:0.5;"/><rect fill="#E2E2F0" height="30.4883" rx="2.5" ry="2.5" style="stroke:#181818;stroke-width:0.5;" width="89.7217" x="472.9517" y="87.4883"/><text fill="#000000" font-family="sans-serif" font-size="14" lengthAdjust="spacing" textLength="75.7217" x="479.9517" y="108.0234">:ClientView</text><rect fill="#E2E2F0" height="30.4883" rx="2.5" ry="2.5" style="stroke:#181818;stroke-width:0.5;" width="89.7217" x="472.9517" y="599.502"/><text fill="#000000" font-family="sans-serif" font-size="14" lengthAdjust="spacing" textLength="75.7217" x="479.9517" y="620.0371">:ClientView</text><rect fill="#E2E2F0" height="30.4883" rx="2.5" ry="2.5" style="stroke:#181818;stroke-width:0.5;" width="168.4238" x="874.6851" y="87.4883"/><text fill="#000000" font-family="sans-serif" font-size="14" lengthAdjust="spacing" textLength="154.4238" x="881.6851" y="108.0234">:RegistrationController</text><rect fill="#E2E2F0" height="30.4883" rx="2.5" ry="2.5" style="stroke:#181818;stroke-width:0.5;" width="168.4238" x="874.6851" y="599.502"/><text fill="#000000" font-family="sans-serif" font-size="14" lengthAdjust="spacing" textLength="154.4238" x="881.6851" y="620.0371">:RegistrationController</text><rect fill="#E2E2F0" height="30.4883" rx="2.5" ry="2.5" style="stroke:#181818;stroke-width:0.5;" width="82.332" x="1053.1089" y="87.4883"/><text fill="#000000" font-family="sans-serif" font-size="14" lengthAdjust="spacing" textLength="68.332" x="1060.1089" y="108.0234">:Company</text><rect fill="#E2E2F0" height="30.4883" rx="2.5" ry="2.5" style="stroke:#181818;stroke-width:0.5;" width="82.332" x="1053.1089" y="599.502"/><text fill="#000000" font-family="sans-serif" font-size="14" lengthAdjust="spacing" textLength="68.332" x="1060.1089" y="620.0371">:Company</text><rect fill="#E2E2F0" height="30.4883" rx="2.5" ry="2.5" style="stroke:#181818;stroke-width:0.5;" width="187.8311" x="1296.0938" y="87.4883"/><text fill="#000000" font-family="sans-serif" font-size="14" lengthAdjust="spacing" textLength="173.8311" x="1303.0938" y="108.0234">container:ClientContainer</text><rect fill="#E2E2F0" height="30.4883" rx="2.5" ry="2.5" style="stroke:#181818;stroke-width:0.5;" width="187.8311" x="1296.0938" y="599.502"/><text fill="#000000" font-family="sans-serif" font-size="14" lengthAdjust="spacing" textLength="173.8311" x="1303.0938" y="620.0371">container:ClientContainer</text><rect fill="#E2E2F0" height="30.4883" rx="2.5" ry="2.5" style="stroke:#181818;stroke-width:0.5;" width="99.3535" x="1784.4385" y="599.502"/><text fill="#000000" font-family="sans-serif" font-size="14" lengthAdjust="spacing" textLength="85.3535" x="1791.4385" y="620.0371">client: Client</text><rect fill="#FFFFFF" height="462.5254" style="stroke:#181818;stroke-width:1.0;" width="10" x="49.8604" y="128.9766"/><rect fill="#FFFFFF" height="29.3105" style="stroke:#181818;stroke-width:1.0;" width="10" x="512.8125" y="150.2871"/><rect fill="#FFFFFF" height="373.5938" style="stroke:#181818;stroke-width:1.0;" width="10" x="512.8125" y="208.9082"/><rect fill="#FFFFFF" height="314.9727" style="stroke:#181818;stroke-width:1.0;" width="10" x="953.897" y="238.2188"/><rect fill="#FFFFFF" height="29.3105" style="stroke:#181818;stroke-width:1.0;" width="10" x="1385.0093" y="267.5293"/><rect fill="#FFFFFF" height="265.3516" style="stroke:#181818;stroke-width:1.0;" width="10" x="1385.0093" y="326.1504"/><rect fill="#FFFFFF" height="40.3105" style="stroke:#181818;stroke-width:1.0;" width="10" x="1390.0093" y="404.9492"/><rect fill="#FFFFFF" height="34.3105" style="stroke:#181818;stroke-width:1.0;" width="10" x="1390.0093" y="489.5703"/><polygon fill="#181818" points="500.8125,146.2871,510.8125,150.2871,500.8125,154.2871,504.8125,150.2871" style="stroke:#181818;stroke-width:1.0;"/><line style="stroke:#181818;stroke-width:1.0;" x1="59.8604" x2="506.8125" y1="150.2871" y2="150.2871"/><text fill="#000000" font-family="sans-serif" font-size="13" font-weight="bold" lengthAdjust="spacing" textLength="8.5757" x="66.8604" y="145.5449">1</text><text fill="#000000" font-family="sans-serif" font-size="13" lengthAdjust="spacing" textLength="155.5557" x="79.436" y="145.5449">request to register client</text><polygon fill="#181818" points="70.8604,175.5977,60.8604,179.5977,70.8604,183.5977,66.8604,179.5977" style="stroke:#181818;stroke-width:1.0;"/><line style="stroke:#181818;stroke-width:1.0;stroke-dasharray:2.0,2.0;" x1="64.8604" x2="516.8125" y1="179.5977" y2="179.5977"/><text fill="#000000" font-family="sans-serif" font-size="13" font-weight="bold" lengthAdjust="spacing" textLength="8.5757" x="76.8604" y="174.8555">2</text><text fill="#000000" font-family="sans-serif" font-size="13" lengthAdjust="spacing" textLength="217.4897" x="89.436" y="174.8555">shows request form for client data</text><polygon fill="#181818" points="500.8125,204.9082,510.8125,208.9082,500.8125,212.9082,504.8125,208.9082" style="stroke:#181818;stroke-width:1.0;"/><line style="stroke:#181818;stroke-width:1.0;" x1="59.8604" x2="506.8125" y1="208.9082" y2="208.9082"/><text fill="#000000" font-family="sans-serif" font-size="13" font-weight="bold" lengthAdjust="spacing" textLength="8.5757" x="66.8604" y="204.166">3</text><text fill="#000000" font-family="sans-serif" font-size="13" lengthAdjust="spacing" textLength="421.3765" x="79.436" y="204.166">input client data (code, name, idNumber, tif, email, phoneNumber)</text><polygon fill="#181818" points="941.897,234.2188,951.897,238.2188,941.897,242.2188,945.897,238.2188" style="stroke:#181818;stroke-width:1.0;"/><line style="stroke:#181818;stroke-width:1.0;" x1="522.8125" x2="947.897" y1="238.2188" y2="238.2188"/><text fill="#000000" font-family="sans-serif" font-size="13" font-weight="bold" lengthAdjust="spacing" textLength="8.5757" x="529.8125" y="233.4766">4</text><text fill="#000000" font-family="sans-serif" font-size="13" lengthAdjust="spacing" textLength="399.5088" x="542.3882" y="233.4766">registerClient(code, name, idNumber, tif, email, phoneNumber)</text><polygon fill="#181818" points="1373.0093,263.5293,1383.0093,267.5293,1373.0093,271.5293,1377.0093,267.5293" style="stroke:#181818;stroke-width:1.0;"/><line style="stroke:#181818;stroke-width:1.0;" x1="963.897" x2="1379.0093" y1="267.5293" y2="267.5293"/><text fill="#000000" font-family="sans-serif" font-size="13" font-weight="bold" lengthAdjust="spacing" textLength="8.5757" x="970.897" y="262.7871">5</text><text fill="#000000" font-family="sans-serif" font-size="13" lengthAdjust="spacing" textLength="144.3647" x="983.4727" y="262.7871">generateInternalCode()</text><polygon fill="#181818" points="974.897,292.8398,964.897,296.8398,974.897,300.8398,970.897,296.8398" style="stroke:#181818;stroke-width:1.0;"/><line style="stroke:#181818;stroke-width:1.0;stroke-dasharray:2.0,2.0;" x1="968.897" x2="1389.0093" y1="296.8398" y2="296.8398"/><text fill="#000000" font-family="sans-serif" font-size="13" font-weight="bold" lengthAdjust="spacing" textLength="8.5757" x="980.897" y="292.0977">6</text><text fill="#000000" font-family="sans-serif" font-size="13" lengthAdjust="spacing" textLength="80.6597" x="993.4727" y="292.0977">internalCode</text><polygon fill="#181818" points="1373.0093,322.1504,1383.0093,326.1504,1373.0093,330.1504,1377.0093,326.1504" style="stroke:#181818;stroke-width:1.0;"/><line style="stroke:#181818;stroke-width:1.0;" x1="963.897" x2="1379.0093" y1="326.1504" y2="326.1504"/><text fill="#000000" font-family="sans-serif" font-size="13" font-weight="bold" lengthAdjust="spacing" textLength="8.5757" x="970.897" y="321.4082">7</text><text fill="#000000" font-family="sans-serif" font-size="13" lengthAdjust="spacing" textLength="389.5366" x="983.4727" y="321.4082">createClient(code, name, idNumber, tif, email, phoneNumber)</text><polygon fill="#181818" points="1772.4385,351.4609,1782.4385,355.4609,1772.4385,359.4609,1776.4385,355.4609" style="stroke:#181818;stroke-width:1.0;"/><line style="stroke:#181818;stroke-width:1.0;stroke-dasharray:2.0,2.0;" x1="1395.0093" x2="1778.4385" y1="355.4609" y2="355.4609"/><text fill="#000000" font-family="sans-serif" font-size="13" font-weight="bold" lengthAdjust="spacing" textLength="8.5757" x="1402.0093" y="350.7188">8</text><text fill="#000000" font-family="sans-serif" font-size="13" lengthAdjust="spacing" textLength="352.8535" x="1414.585" y="350.7188">create(code, name, idNumber, tif, email, phoneNumber)</text><rect fill="#E2E2F0" height="30.4883" rx="2.5" ry="2.5" style="stroke:#181818;stroke-width:0.5;" width="99.3535" x="1784.4385" y="334.1504"/><text fill="#000000" font-family="sans-serif" font-size="14" lengthAdjust="spacing" textLength="85.3535" x="1791.4385" y="354.6855">client: Client</text><line style="stroke:#181818;stroke-width:1.0;" x1="1395.0093" x2="1442.0093" y1="391.9492" y2="391.9492"/><line style="stroke:#181818;stroke-width:1.0;" x1="1442.0093" x2="1442.0093" y1="391.9492" y2="404.9492"/><line style="stroke:#181818;stroke-width:1.0;" x1="1401.0093" x2="1442.0093" y1="404.9492" y2="404.9492"/><polygon fill="#181818" points="1411.0093,400.9492,1401.0093,404.9492,1411.0093,408.9492,1407.0093,404.9492" style="stroke:#181818;stroke-width:1.0;"/><text fill="#000000" font-family="sans-serif" font-size="13" font-weight="bold" lengthAdjust="spacing" textLength="8.5757" x="1407.0093" y="387.207">9</text><text fill="#000000" font-family="sans-serif" font-size="13" lengthAdjust="spacing" textLength="91.6919" x="1419.585" y="387.207">validate(client)</text><line style="stroke:#181818;stroke-width:1.0;stroke-dasharray:2.0,2.0;" x1="1400.0093" x2="1442.0093" y1="444.2598" y2="444.2598"/><line style="stroke:#181818;stroke-width:1.0;stroke-dasharray:2.0,2.0;" x1="1442.0093" x2="1442.0093" y1="444.2598" y2="457.2598"/><line style="stroke:#181818;stroke-width:1.0;stroke-dasharray:2.0,2.0;" x1="1395.0093" x2="1442.0093" y1="457.2598" y2="457.2598"/><polygon fill="#181818" points="1405.0093,453.2598,1395.0093,457.2598,1405.0093,461.2598,1401.0093,457.2598" style="stroke:#181818;stroke-width:1.0;"/><text fill="#000000" font-family="sans-serif" font-size="13" font-weight="bold" lengthAdjust="spacing" textLength="17.1514" x="1407.0093" y="439.5176">10</text><text fill="#000000" font-family="sans-serif" font-size="13" lengthAdjust="spacing" textLength="15.5835" x="1428.1606" y="439.5176">ok</text><line style="stroke:#181818;stroke-width:1.0;" x1="1395.0093" x2="1442.0093" y1="476.5703" y2="476.5703"/><line style="stroke:#181818;stroke-width:1.0;" x1="1442.0093" x2="1442.0093" y1="476.5703" y2="489.5703"/><line style="stroke:#181818;stroke-width:1.0;" x1="1401.0093" x2="1442.0093" y1="489.5703" y2="489.5703"/><polygon fill="#181818" points="1411.0093,485.5703,1401.0093,489.5703,1411.0093,493.5703,1407.0093,489.5703" style="stroke:#181818;stroke-width:1.0;"/><text fill="#000000" font-family="sans-serif" font-size="13" font-weight="bold" lengthAdjust="spacing" textLength="17.1514" x="1407.0093" y="471.8281">11</text><text fill="#000000" font-family="sans-serif" font-size="13" lengthAdjust="spacing" textLength="66.3457" x="1428.1606" y="471.8281">add(client)</text><polygon fill="#181818" points="974.897,519.8809,964.897,523.8809,974.897,527.8809,970.897,523.8809" style="stroke:#181818;stroke-width:1.0;"/><line style="stroke:#181818;stroke-width:1.0;stroke-dasharray:2.0,2.0;" x1="968.897" x2="1384.0093" y1="523.8809" y2="523.8809"/><text fill="#000000" font-family="sans-serif" font-size="13" font-weight="bold" lengthAdjust="spacing" textLength="17.1514" x="980.897" y="519.1387">12</text><text fill="#000000" font-family="sans-serif" font-size="13" lengthAdjust="spacing" textLength="15.5835" x="1002.0483" y="519.1387">ok</text><polygon fill="#181818" points="533.8125,549.1914,523.8125,553.1914,533.8125,557.1914,529.8125,553.1914" style="stroke:#181818;stroke-width:1.0;"/><line style="stroke:#181818;stroke-width:1.0;stroke-dasharray:2.0,2.0;" x1="527.8125" x2="957.897" y1="553.1914" y2="553.1914"/><text fill="#000000" font-family="sans-serif" font-size="13" font-weight="bold" lengthAdjust="spacing" textLength="17.1514" x="539.8125" y="548.4492">13</text><text fill="#000000" font-family="sans-serif" font-size="13" lengthAdjust="spacing" textLength="134.4941" x="560.9639" y="548.4492">registration response</text><polygon fill="#181818" points="70.8604,578.502,60.8604,582.502,70.8604,586.502,66.8604,582.502" style="stroke:#181818;stroke-width:1.0;"/><line style="stroke:#181818;stroke-width:1.0;stroke-dasharray:2.0,2.0;" x1="64.8604" x2="516.8125" y1="582.502" y2="582.502"/><text fill="#000000" font-family="sans-serif" font-size="13" font-weight="bold" lengthAdjust="spacing" textLength="17.1514" x="76.8604" y="577.7598">14</text><text fill="#000000" font-family="sans-serif" font-size="13" lengthAdjust="spacing" textLength="91.5015" x="98.0117" y="577.7598">return success</text><!--SRC=[fPDDJ-Cm48Rl_XMZNlXGIyKUSq1QvRIN7dO5zy4Psj7w8zWJAluz4pjbIwWGi1V7zhpp-FMRv6mdqkTclUuT1XcykxBHhpCz3XGihJh6RK9lZB0uWji_FwuR-4rRpa8943QqXzOn1J461ubeXPzG268ewp3uUqfQin8JB7vsdeFs9jJb0Z33RTPoZqdOSgyEOD5KtXtJlYZ6oKnH3IY4OsXZa1ITeyfh9RavBtgTFPToCV2sRXM072XD1xU7TMcmR_TchQNOJ0dKymzX788e5pJZ2AkRSfa6qXXl5f2eqodBoZAZ05Qg73iQoBkupw_wXvZyE4nYw51mXkRG3t9SXtCRErf2GAyZTvloHfOW_B04yiXk2Vqk1gg5Yyd1JKcoUVLNx_LLbXaX8smMOmDRqeVcyoieFA1h5Nn-OMQwaaGrmaV23xWsaLA_v_RauMNlyl90_c_c2SzFwBWhx58vRUHTL_pxAJXstOVScgx2faoFFj9_FvakSXz3fldtcKY6520FrbBEvWK0]--></g></svg>