<svg xmlns="http://www.w3.org/2000/svg" xmlns:xlink="http://www.w3.org/1999/xlink" contentStyleType="text/css" height="768px" preserveAspectRatio="none" style="width:1723px;height:768px;background:#FFFFFF;" version="1.1" viewBox="0 0 1723 768" width="1723px" zoomAndPan="magnify"><defs/><g><rect fill="#FFFFFF" height="587.2109" style="stroke:#181818;stroke-width:1.0;" width="10" x="23.0566" y="91.4883"/><line style="stroke:#181818;stroke-width:0.5;stroke-dasharray:5.0,5.0;" x1="28" x2="28" y1="81.4883" y2="687.6992"/><line style="stroke:#181818;stroke-width:0.5;stroke-dasharray:5.0,5.0;" x1="289.8442" x2="289.8442" y1="81.4883" y2="687.6992"/><line style="stroke:#181818;stroke-width:0.5;stroke-dasharray:5.0,5.0;" x1="515.4292" x2="515.4292" y1="81.4883" y2="687.6992"/><line style="stroke:#181818;stroke-width:0.5;stroke-dasharray:5.0,5.0;" x1="750.3135" x2="750.3135" y1="81.4883" y2="687.6992"/><line style="stroke:#181818;stroke-width:0.5;stroke-dasharray:5.0,5.0;" x1="1261.8481" x2="1261.8481" y1="81.4883" y2="687.6992"/><line style="stroke:#181818;stroke-width:0.5;stroke-dasharray:5.0,5.0;" x1="1421.7212" x2="1421.7212" y1="81.4883" y2="687.6992"/><line style="stroke:#181818;stroke-width:0.5;stroke-dasharray:5.0,5.0;" x1="1573.6978" x2="1573.6978" y1="81.4883" y2="687.6992"/><line style="stroke:#181818;stroke-width:0.5;stroke-dasharray:5.0,5.0;" x1="1679.3872" x2="1679.3872" y1="81.4883" y2="687.6992"/><text fill="#000000" font-family="sans-serif" font-size="14" lengthAdjust="spacing" textLength="40.1133" x="5" y="78.5352">Agent</text><ellipse cx="28.0566" cy="13.5" fill="#E2E2F0" rx="8" ry="8" style="stroke:#181818;stroke-width:0.5;"/><path d="M28.0566,21.5 L28.0566,48.5 M15.0566,29.5 L41.0566,29.5 M28.0566,48.5 L15.0566,63.5 M28.0566,48.5 L41.0566,63.5 " fill="none" style="stroke:#181818;stroke-width:0.5;"/><text fill="#000000" font-family="sans-serif" font-size="14" lengthAdjust="spacing" textLength="40.1133" x="5" y="700.2344">Agent</text><ellipse cx="28.0566" cy="711.6875" fill="#E2E2F0" rx="8" ry="8" style="stroke:#181818;stroke-width:0.5;"/><path d="M28.0566,719.6875 L28.0566,746.6875 M15.0566,727.6875 L41.0566,727.6875 M28.0566,746.6875 L15.0566,761.6875 M28.0566,746.6875 L41.0566,761.6875 " fill="none" style="stroke:#181818;stroke-width:0.5;"/><rect fill="#E2E2F0" height="30.4883" rx="2.5" ry="2.5" style="stroke:#181818;stroke-width:0.5;" width="90.3301" x="244.8442" y="50"/><text fill="#000000" font-family="sans-serif" font-size="14" lengthAdjust="spacing" textLength="76.3301" x="251.8442" y="70.5352">:AgentView</text><rect fill="#E2E2F0" height="30.4883" rx="2.5" ry="2.5" style="stroke:#181818;stroke-width:0.5;" width="90.3301" x="244.8442" y="686.6992"/><text fill="#000000" font-family="sans-serif" font-size="14" lengthAdjust="spacing" textLength="76.3301" x="251.8442" y="707.2344">:AgentView</text><rect fill="#E2E2F0" height="30.4883" rx="2.5" ry="2.5" style="stroke:#181818;stroke-width:0.5;" width="234.0078" x="398.4292" y="50"/><text fill="#000000" font-family="sans-serif" font-size="14" lengthAdjust="spacing" textLength="220.0078" x="405.4292" y="70.5352">:PublishAdvertisementController</text><rect fill="#E2E2F0" height="30.4883" rx="2.5" ry="2.5" style="stroke:#181818;stroke-width:0.5;" width="234.0078" x="398.4292" y="686.6992"/><text fill="#000000" font-family="sans-serif" font-size="14" lengthAdjust="spacing" textLength="220.0078" x="405.4292" y="707.2344">:PublishAdvertisementController</text><rect fill="#E2E2F0" height="30.4883" rx="2.5" ry="2.5" style="stroke:#181818;stroke-width:0.5;" width="188.8154" x="656.3135" y="50"/><text fill="#000000" font-family="sans-serif" font-size="14" lengthAdjust="spacing" textLength="174.8154" x="663.3135" y="70.5352">:AdvertisementRepository</text><rect fill="#E2E2F0" height="30.4883" rx="2.5" ry="2.5" style="stroke:#181818;stroke-width:0.5;" width="188.8154" x="656.3135" y="686.6992"/><text fill="#000000" font-family="sans-serif" font-size="14" lengthAdjust="spacing" textLength="174.8154" x="663.3135" y="707.2344">:AdvertisementRepository</text><rect fill="#E2E2F0" height="30.4883" rx="2.5" ry="2.5" style="stroke:#181818;stroke-width:0.5;" width="134.873" x="1194.8481" y="50"/><text fill="#000000" font-family="sans-serif" font-size="14" lengthAdjust="spacing" textLength="120.873" x="1201.8481" y="70.5352">:DatabaseAdapter</text><rect fill="#E2E2F0" height="30.4883" rx="2.5" ry="2.5" style="stroke:#181818;stroke-width:0.5;" width="134.873" x="1194.8481" y="686.6992"/><text fill="#000000" font-family="sans-serif" font-size="14" lengthAdjust="spacing" textLength="120.873" x="1201.8481" y="707.2344">:DatabaseAdapter</text><rect fill="#E2E2F0" height="30.4883" rx="2.5" ry="2.5" style="stroke:#181818;stroke-width:0.5;" width="165.9766" x="1339.7212" y="50"/><text fill="#000000" font-family="sans-serif" font-size="14" lengthAdjust="spacing" textLength="151.9766" x="1346.7212" y="70.5352">:AdvertisementFactory</text><rect fill="#E2E2F0" height="30.4883" rx="2.5" ry="2.5" style="stroke:#181818;stroke-width:0.5;" width="165.9766" x="1339.7212" y="686.6992"/><text fill="#000000" font-family="sans-serif" font-size="14" lengthAdjust="spacing" textLength="151.9766" x="1346.7212" y="707.2344">:AdvertisementFactory</text><rect fill="#E2E2F0" height="30.4883" rx="2.5" ry="2.5" style="stroke:#181818;stroke-width:0.5;" width="116.6895" x="1515.6978" y="50"/><text fill="#000000" font-family="sans-serif" font-size="14" lengthAdjust="spacing" textLength="102.6895" x="1522.6978" y="70.5352">:Advertisement</text><rect fill="#E2E2F0" height="30.4883" rx="2.5" ry="2.5" style="stroke:#181818;stroke-width:0.5;" width="116.6895" x="1515.6978" y="686.6992"/><text fill="#000000" font-family="sans-serif" font-size="14" lengthAdjust="spacing" textLength="102.6895" x="1522.6978" y="707.2344">:Advertisement</text><rect fill="#E2E2F0" height="30.4883" rx="2.5" ry="2.5" style="stroke:#181818;stroke-width:0.5;" width="75.3867" x="1642.3872" y="50"/><text fill="#000000" font-family="sans-serif" font-size="14" lengthAdjust="spacing" textLength="61.3867" x="1649.3872" y="70.5352">:Property</text><rect fill="#E2E2F0" height="30.4883" rx="2.5" ry="2.5" style="stroke:#181818;stroke-width:0.5;" width="75.3867" x="1642.3872" y="686.6992"/><text fill="#000000" font-family="sans-serif" font-size="14" lengthAdjust="spacing" textLength="61.3867" x="1649.3872" y="707.2344">:Property</text><rect fill="#FFFFFF" height="587.2109" style="stroke:#181818;stroke-width:1.0;" width="10" x="23.0566" y="91.4883"/><polygon fill="#181818" points="278.0093,108.7988,288.0093,112.7988,278.0093,116.7988,282.0093,112.7988" style="stroke:#181818;stroke-width:1.0;"/><line style="stroke:#181818;stroke-width:1.0;" x1="33.0566" x2="284.0093" y1="112.7988" y2="112.7988"/><text fill="#000000" font-family="sans-serif" font-size="13" lengthAdjust="spacing" textLength="232.9526" x="40.0566" y="108.0566">Request unpublished advertisements</text><polygon fill="#181818" points="503.4331,138.1094,513.4331,142.1094,503.4331,146.1094,507.4331,142.1094" style="stroke:#181818;stroke-width:1.0;"/><line style="stroke:#181818;stroke-width:1.0;" x1="290.0093" x2="509.4331" y1="142.1094" y2="142.1094"/><text fill="#000000" font-family="sans-serif" font-size="13" lengthAdjust="spacing" textLength="201.4238" x="297.0093" y="137.3672">retrieveAdvertisements(agentId)</text><polygon fill="#181818" points="738.7212,167.4199,748.7212,171.4199,738.7212,175.4199,742.7212,171.4199" style="stroke:#181818;stroke-width:1.0;"/><line style="stroke:#181818;stroke-width:1.0;" x1="515.4331" x2="744.7212" y1="171.4199" y2="171.4199"/><text fill="#000000" font-family="sans-serif" font-size="13" lengthAdjust="spacing" textLength="211.2881" x="522.4331" y="166.6777">findUnpublishedByAgent(agentId)</text><polygon fill="#181818" points="1250.2847,196.7305,1260.2847,200.7305,1250.2847,204.7305,1254.2847,200.7305" style="stroke:#181818;stroke-width:1.0;"/><line style="stroke:#181818;stroke-width:1.0;" x1="750.7212" x2="1256.2847" y1="200.7305" y2="200.7305"/><text fill="#000000" font-family="sans-serif" font-size="13" lengthAdjust="spacing" textLength="487.5635" x="757.7212" y="195.9883">query("SELECT * FROM advertisements WHERE unpublished AND agentId = ?")</text><polygon fill="#181818" points="761.7212,226.041,751.7212,230.041,761.7212,234.041,757.7212,230.041" style="stroke:#181818;stroke-width:1.0;"/><line style="stroke:#181818;stroke-width:1.0;stroke-dasharray:2.0,2.0;" x1="755.7212" x2="1261.2847" y1="230.041" y2="230.041"/><text fill="#000000" font-family="sans-serif" font-size="13" lengthAdjust="spacing" textLength="57.8843" x="767.7212" y="225.2988">ResultSet</text><polygon fill="#181818" points="526.4331,255.3516,516.4331,259.3516,526.4331,263.3516,522.4331,259.3516" style="stroke:#181818;stroke-width:1.0;"/><line style="stroke:#181818;stroke-width:1.0;stroke-dasharray:2.0,2.0;" x1="520.4331" x2="749.7212" y1="259.3516" y2="259.3516"/><text fill="#000000" font-family="sans-serif" font-size="13" lengthAdjust="spacing" textLength="162.1445" x="532.4331" y="254.6094">List&lt;AdvertisementDTO&gt;</text><polygon fill="#181818" points="301.0093,284.6621,291.0093,288.6621,301.0093,292.6621,297.0093,288.6621" style="stroke:#181818;stroke-width:1.0;"/><line style="stroke:#181818;stroke-width:1.0;stroke-dasharray:2.0,2.0;" x1="295.0093" x2="514.4331" y1="288.6621" y2="288.6621"/><text fill="#000000" font-family="sans-serif" font-size="13" lengthAdjust="spacing" textLength="139.2485" x="307.0093" y="283.9199">List of advertisements</text><polygon fill="#181818" points="278.0093,313.9727,288.0093,317.9727,278.0093,321.9727,282.0093,317.9727" style="stroke:#181818;stroke-width:1.0;"/><line style="stroke:#181818;stroke-width:1.0;" x1="33.0566" x2="284.0093" y1="317.9727" y2="317.9727"/><text fill="#000000" font-family="sans-serif" font-size="13" lengthAdjust="spacing" textLength="217.4072" x="40.0566" y="313.2305">Select an advertisement to publish</text><polygon fill="#181818" points="503.4331,343.2832,513.4331,347.2832,503.4331,351.2832,507.4331,347.2832" style="stroke:#181818;stroke-width:1.0;"/><line style="stroke:#181818;stroke-width:1.0;" x1="290.0093" x2="509.4331" y1="347.2832" y2="347.2832"/><text fill="#000000" font-family="sans-serif" font-size="13" lengthAdjust="spacing" textLength="189.7568" x="297.0093" y="342.541">publishAdvertisement(adDTO)</text><polygon fill="#181818" points="1410.7095,372.5938,1420.7095,376.5938,1410.7095,380.5938,1414.7095,376.5938" style="stroke:#181818;stroke-width:1.0;"/><line style="stroke:#181818;stroke-width:1.0;" x1="515.4331" x2="1416.7095" y1="376.5938" y2="376.5938"/><text fill="#000000" font-family="sans-serif" font-size="13" lengthAdjust="spacing" textLength="181.6191" x="522.4331" y="371.8516">createAdvertisement(adDTO)</text><polygon fill="#181818" points="526.4331,401.9043,516.4331,405.9043,526.4331,409.9043,522.4331,405.9043" style="stroke:#181818;stroke-width:1.0;"/><line style="stroke:#181818;stroke-width:1.0;stroke-dasharray:2.0,2.0;" x1="520.4331" x2="1421.7095" y1="405.9043" y2="405.9043"/><text fill="#000000" font-family="sans-serif" font-size="13" lengthAdjust="spacing" textLength="91.2412" x="532.4331" y="401.1621">Advertisement</text><polygon fill="#181818" points="1668.0806,431.2148,1678.0806,435.2148,1668.0806,439.2148,1672.0806,435.2148" style="stroke:#181818;stroke-width:1.0;"/><line style="stroke:#181818;stroke-width:1.0;" x1="515.4331" x2="1674.0806" y1="435.2148" y2="435.2148"/><text fill="#000000" font-family="sans-serif" font-size="13" lengthAdjust="spacing" textLength="137.6426" x="522.4331" y="430.4727">getDetails(propertyId)</text><polygon fill="#181818" points="526.4331,460.5254,516.4331,464.5254,526.4331,468.5254,522.4331,464.5254" style="stroke:#181818;stroke-width:1.0;"/><line style="stroke:#181818;stroke-width:1.0;stroke-dasharray:2.0,2.0;" x1="520.4331" x2="1679.0806" y1="464.5254" y2="464.5254"/><text fill="#000000" font-family="sans-serif" font-size="13" lengthAdjust="spacing" textLength="100.166" x="532.4331" y="459.7832">Property Details</text><polygon fill="#181818" points="1562.0425,489.8359,1572.0425,493.8359,1562.0425,497.8359,1566.0425,493.8359" style="stroke:#181818;stroke-width:1.0;"/><line style="stroke:#181818;stroke-width:1.0;" x1="515.4331" x2="1568.0425" y1="493.8359" y2="493.8359"/><text fill="#000000" font-family="sans-serif" font-size="13" lengthAdjust="spacing" textLength="244.3213" x="522.4331" y="489.0938">associateWithProperty(propertyDetails)</text><polygon fill="#181818" points="738.7212,519.1465,748.7212,523.1465,738.7212,527.1465,742.7212,523.1465" style="stroke:#181818;stroke-width:1.0;"/><line style="stroke:#181818;stroke-width:1.0;" x1="515.4331" x2="744.7212" y1="523.1465" y2="523.1465"/><text fill="#000000" font-family="sans-serif" font-size="13" lengthAdjust="spacing" textLength="51.5938" x="522.4331" y="518.4043">save(ad)</text><polygon fill="#181818" points="1250.2847,548.457,1260.2847,552.457,1250.2847,556.457,1254.2847,552.457" style="stroke:#181818;stroke-width:1.0;"/><line style="stroke:#181818;stroke-width:1.0;" x1="750.7212" x2="1256.2847" y1="552.457" y2="552.457"/><text fill="#000000" font-family="sans-serif" font-size="13" lengthAdjust="spacing" textLength="441.6255" x="757.7212" y="547.7148">execute("UPDATE advertisements SET published = true WHERE id = ?")</text><polygon fill="#181818" points="761.7212,577.7676,751.7212,581.7676,761.7212,585.7676,757.7212,581.7676" style="stroke:#181818;stroke-width:1.0;"/><line style="stroke:#181818;stroke-width:1.0;stroke-dasharray:2.0,2.0;" x1="755.7212" x2="1261.2847" y1="581.7676" y2="581.7676"/><text fill="#000000" font-family="sans-serif" font-size="13" lengthAdjust="spacing" textLength="48.5088" x="767.7212" y="577.0254">success</text><polygon fill="#181818" points="526.4331,607.0781,516.4331,611.0781,526.4331,615.0781,522.4331,611.0781" style="stroke:#181818;stroke-width:1.0;"/><line style="stroke:#181818;stroke-width:1.0;stroke-dasharray:2.0,2.0;" x1="520.4331" x2="749.7212" y1="611.0781" y2="611.0781"/><text fill="#000000" font-family="sans-serif" font-size="13" lengthAdjust="spacing" textLength="80.5581" x="532.4331" y="606.3359">confirmation</text><polygon fill="#181818" points="301.0093,636.3887,291.0093,640.3887,301.0093,644.3887,297.0093,640.3887" style="stroke:#181818;stroke-width:1.0;"/><line style="stroke:#181818;stroke-width:1.0;stroke-dasharray:2.0,2.0;" x1="295.0093" x2="514.4331" y1="640.3887" y2="640.3887"/><text fill="#000000" font-family="sans-serif" font-size="13" lengthAdjust="spacing" textLength="181.3589" x="307.0093" y="635.6465">Publication success message</text><polygon fill="#181818" points="44.0566,665.6992,34.0566,669.6992,44.0566,673.6992,40.0566,669.6992" style="stroke:#181818;stroke-width:1.0;"/><line style="stroke:#181818;stroke-width:1.0;stroke-dasharray:2.0,2.0;" x1="38.0566" x2="289.0093" y1="669.6992" y2="669.6992"/><text fill="#000000" font-family="sans-serif" font-size="13" lengthAdjust="spacing" textLength="130.7046" x="50.0566" y="664.957">Display confirmation</text><!--SRC=[VPHFZvim4CNlV8eHbqqgfRcZxbPiODMLjjrL_dJFNZD9B86Xzf0qtxvZOaYmqhqWOtxpFFDuSBSdQcmodpUbqDHMvLTPLtEBVrhK4cU54ZiZgYWIace3SRf3JJ482nkB9cg48ILLmwKG9zt3tmgF7U0M0V3MVfJAxjFYWBnjiM9-KMioTLcYwQeMPCfGzXfVObDRnRsSEjpT1dWcI7m8YsaX6lAgVlsPy5CtuLdLhp_3lMmueAaRPiug_KrddZe8mhDfaRl2xA5pAE4Hs6jBqEhcR0yM8AwFif43NO4p9m63P1GUSDIFdGZd_dCnZHpbQETD0bkbYyr5-l7KlQKBxIX7UuiIu6xCQHAlyfTyiOOlyBHy_Haq1Ey_ycK-wZZzbO7NX7lu7ayZBmYpePKbshQa5P8_T9ZeHLdwDXedMxy- -446enm5zJOq9x1pXILA0g77750Dljl0pkP6A2UYu0ukLlf0920DydkyoNhcQgmH5aLtyApP41U6MiCZqX5HZo5kkxZafZ-ztqXWXvGX2LNQIUCttJliWQkpXotF3s9faN0uRIqL3_AkQD-JWwAlcBgEL-A0GOj7hhcIvwyjI9pb6ZRbHhJmBygMS19lth9qdOUfMkLhk2Jg7iYqwAEc_fygsqg9reQPahNUAbC9PtQOfEu_9Bj7VJbKVE40-t0mwcALGAOi_nbFOxb_]--></g></svg>