<svg xmlns="http://www.w3.org/2000/svg" xmlns:xlink="http://www.w3.org/1999/xlink" contentStyleType="text/css" height="1928px" preserveAspectRatio="none" style="width:3860px;height:1928px;background:#FFFFFF;" version="1.1" viewBox="0 0 3860 1928" width="3860px" zoomAndPan="magnify"><defs/><g><rect fill="#FFFFFF" height="1743.1621" style="stroke:#181818;stroke-width:1.0;" width="10" x="58.2446" y="93.6211"/><rect fill="#FFFFFF" height="1710.8711" style="stroke:#181818;stroke-width:1.0;" width="10" x="252.3271" y="116.9121"/><rect fill="#FFFFFF" height="1648.2891" style="stroke:#181818;stroke-width:1.0;" width="10" x="463.8042" y="148.2031"/><rect fill="#FFFFFF" height="137.4941" style="stroke:#181818;stroke-width:1.0;" width="10" x="657.2031" y="179.4941"/><rect fill="#FFFFFF" height="31.291" style="stroke:#181818;stroke-width:1.0;" width="10" x="869.3911" y="210.7852"/><rect fill="#FFFFFF" height="327.9492" style="stroke:#181818;stroke-width:1.0;" width="10" x="1077.7939" y="348.2793"/><rect fill="#FFFFFF" height="169.4941" style="stroke:#181818;stroke-width:1.0;" width="10" x="1077.7939" y="1595.707"/><rect fill="#FFFFFF" height="31.291" style="stroke:#181818;stroke-width:1.0;" width="10" x="1314.6138" y="379.5703"/><rect fill="#FFFFFF" height="856.8965" style="stroke:#181818;stroke-width:1.0;" width="10" x="1517.1992" y="707.5195"/><rect fill="#FFFFFF" height="53.582" style="stroke:#181818;stroke-width:1.0;" width="10" x="1522.1992" y="1411.252"/><rect fill="#FFFFFF" height="31.291" style="stroke:#181818;stroke-width:1.0;" width="10" x="1693.5654" y="512.0645"/><rect fill="#FFFFFF" height="93.873" style="stroke:#181818;stroke-width:1.0;" width="10" x="1693.5654" y="870.0137"/><rect fill="#FFFFFF" height="31.291" style="stroke:#181818;stroke-width:1.0;" width="10" x="1693.5654" y="1167.9238"/><rect fill="#FFFFFF" height="30" style="stroke:#181818;stroke-width:1.0;" width="10" x="1865.8027" y="600.9375"/><rect fill="#FFFFFF" height="30" style="stroke:#181818;stroke-width:1.0;" width="10" x="1865.8027" y="808.7227"/><rect fill="#FFFFFF" height="30" style="stroke:#181818;stroke-width:1.0;" width="10" x="2122.457" y="1496.125"/><rect fill="#FFFFFF" height="31.291" style="stroke:#181818;stroke-width:1.0;" width="10" x="2481.3145" y="901.3047"/><rect fill="#FFFFFF" height="141.4551" style="stroke:#181818;stroke-width:1.0;" width="10" x="2567.9624" y="995.1777"/><rect fill="#FFFFFF" height="70.873" style="stroke:#181818;stroke-width:1.0;" width="10" x="2572.9624" y="1034.4688"/><rect fill="#FFFFFF" height="141.4551" style="stroke:#181818;stroke-width:1.0;" width="10" x="2897.0918" y="1230.5059"/><rect fill="#FFFFFF" height="70.873" style="stroke:#181818;stroke-width:1.0;" width="10" x="2902.0918" y="1269.7969"/><rect fill="#FFFFFF" height="30" style="stroke:#181818;stroke-width:1.0;" width="10" x="3559.4756" y="1696.9102"/><rect fill="none" height="176.4551" style="stroke:#000000;stroke-width:1.5;" width="1048.2148" x="951.1392" y="469.4824"/><rect fill="none" height="80.582" style="stroke:#000000;stroke-width:1.5;" width="1028.2148" x="961.1392" y="558.3555"/><rect fill="none" height="767.9844" style="stroke:#000000;stroke-width:1.5;" width="1849.9634" x="1434.7788" y="766.1406"/><rect fill="none" height="80.582" style="stroke:#000000;stroke-width:1.5;" width="2893.0698" x="961.1392" y="1654.3281"/><line style="stroke:#181818;stroke-width:0.5;stroke-dasharray:5.0,5.0;" x1="63" x2="63" y1="83.6211" y2="1845.7832"/><line style="stroke:#181818;stroke-width:0.5;stroke-dasharray:5.0,5.0;" x1="256.4204" x2="256.4204" y1="83.6211" y2="1845.7832"/><line style="stroke:#181818;stroke-width:0.5;stroke-dasharray:5.0,5.0;" x1="468.7251" x2="468.7251" y1="83.6211" y2="1845.7832"/><line style="stroke:#181818;stroke-width:0.5;stroke-dasharray:5.0,5.0;" x1="661.2998" x2="661.2998" y1="83.6211" y2="1845.7832"/><line style="stroke:#181818;stroke-width:0.5;stroke-dasharray:5.0,5.0;" x1="873.6431" x2="873.6431" y1="83.6211" y2="1845.7832"/><line style="stroke:#181818;stroke-width:0.5;stroke-dasharray:5.0,5.0;" x1="1082.1392" x2="1082.1392" y1="281.8867" y2="1845.7832"/><line style="stroke:#181818;stroke-width:0.5;stroke-dasharray:5.0,5.0;" x1="1319.4487" x2="1319.4487" y1="83.6211" y2="1845.7832"/><line style="stroke:#181818;stroke-width:0.5;stroke-dasharray:5.0,5.0;" x1="1521.7788" x2="1521.7788" y1="83.6211" y2="1845.7832"/><line style="stroke:#181818;stroke-width:0.5;stroke-dasharray:5.0,5.0;" x1="1697.8794" x2="1697.8794" y1="83.6211" y2="1845.7832"/><line style="stroke:#181818;stroke-width:0.5;stroke-dasharray:5.0,5.0;" x1="1870.2515" x2="1870.2515" y1="450.6719" y2="1845.7832"/><line style="stroke:#181818;stroke-width:0.5;stroke-dasharray:5.0,5.0;" x1="2127.354" x2="2127.354" y1="747.3301" y2="1845.7832"/><line style="stroke:#181818;stroke-width:0.5;stroke-dasharray:5.0,5.0;" x1="2361.5601" x2="2361.5601" y1="1458.543" y2="1845.7832"/><line style="stroke:#181818;stroke-width:0.5;stroke-dasharray:5.0,5.0;" x1="2486.0767" x2="2486.0767" y1="83.6211" y2="1845.7832"/><line style="stroke:#181818;stroke-width:0.5;stroke-dasharray:5.0,5.0;" x1="2572.5522" x2="2572.5522" y1="83.6211" y2="1845.7832"/><line style="stroke:#181818;stroke-width:0.5;stroke-dasharray:5.0,5.0;" x1="2765.144" x2="2765.144" y1="1090.4053" y2="1845.7832"/><line style="stroke:#181818;stroke-width:0.5;stroke-dasharray:5.0,5.0;" x1="2901.9575" x2="2901.9575" y1="83.6211" y2="1845.7832"/><line style="stroke:#181818;stroke-width:0.5;stroke-dasharray:5.0,5.0;" x1="3187.2461" x2="3187.2461" y1="1325.7334" y2="1845.7832"/><line style="stroke:#181818;stroke-width:0.5;stroke-dasharray:5.0,5.0;" x1="3563.7422" x2="3563.7422" y1="1635.5176" y2="1845.7832"/><text fill="#000000" font-family="sans-serif" font-size="14" lengthAdjust="spacing" textLength="110.4893" x="5" y="80.1074">Network Manager</text><ellipse cx="63.2446" cy="13.5" fill="#E2E2F0" rx="8" ry="8" style="stroke:#181818;stroke-width:0.5;"/><path d="M63.2446,21.5 L63.2446,48.5 M50.2446,29.5 L76.2446,29.5 M63.2446,48.5 L50.2446,63.5 M63.2446,48.5 L76.2446,63.5 " fill="none" style="stroke:#181818;stroke-width:0.5;"/><text fill="#000000" font-family="sans-serif" font-size="14" lengthAdjust="spacing" textLength="110.4893" x="5" y="1859.8906">Network Manager</text><ellipse cx="63.2446" cy="1871.9043" fill="#E2E2F0" rx="8" ry="8" style="stroke:#181818;stroke-width:0.5;"/><path d="M63.2446,1879.9043 L63.2446,1906.9043 M50.2446,1887.9043 L76.2446,1887.9043 M63.2446,1906.9043 L50.2446,1921.9043 M63.2446,1906.9043 L76.2446,1921.9043 " fill="none" style="stroke:#181818;stroke-width:0.5;"/><rect fill="#E2E2F0" height="32.6211" rx="2.5" ry="2.5" style="stroke:#181818;stroke-width:0.5;" width="105.8135" x="204.4204" y="50"/><text fill="#000000" font-family="sans-serif" font-size="14" lengthAdjust="spacing" textLength="91.8135" x="211.4204" y="72.1074">:ListDealsView</text><rect fill="#E2E2F0" height="32.6211" rx="2.5" ry="2.5" style="stroke:#181818;stroke-width:0.5;" width="105.8135" x="204.4204" y="1844.7832"/><text fill="#000000" font-family="sans-serif" font-size="14" lengthAdjust="spacing" textLength="91.8135" x="211.4204" y="1866.8906">:ListDealsView</text><rect fill="#E2E2F0" height="32.6211" rx="2.5" ry="2.5" style="stroke:#181818;stroke-width:0.5;" width="136.1582" x="400.7251" y="50"/><text fill="#000000" font-family="sans-serif" font-size="14" lengthAdjust="spacing" textLength="122.1582" x="407.7251" y="72.1074">:ListDealsController</text><rect fill="#E2E2F0" height="32.6211" rx="2.5" ry="2.5" style="stroke:#181818;stroke-width:0.5;" width="136.1582" x="400.7251" y="1844.7832"/><text fill="#000000" font-family="sans-serif" font-size="14" lengthAdjust="spacing" textLength="122.1582" x="407.7251" y="1866.8906">:ListDealsController</text><rect fill="#E2E2F0" height="32.6211" rx="2.5" ry="2.5" style="stroke:#181818;stroke-width:0.5;" width="77.8066" x="623.2998" y="50"/><text fill="#000000" font-family="sans-serif" font-size="14" lengthAdjust="spacing" textLength="63.8066" x="630.2998" y="72.1074">:Company</text><rect fill="#E2E2F0" height="32.6211" rx="2.5" ry="2.5" style="stroke:#181818;stroke-width:0.5;" width="77.8066" x="623.2998" y="1844.7832"/><text fill="#000000" font-family="sans-serif" font-size="14" lengthAdjust="spacing" textLength="63.8066" x="630.2998" y="1866.8906">:Company</text><rect fill="#E2E2F0" height="32.6211" rx="2.5" ry="2.5" style="stroke:#181818;stroke-width:0.5;" width="173.4961" x="787.6431" y="50"/><text fill="#000000" font-family="sans-serif" font-size="14" lengthAdjust="spacing" textLength="159.4961" x="794.6431" y="72.1074">factory:RepositoryFactory</text><rect fill="#E2E2F0" height="32.6211" rx="2.5" ry="2.5" style="stroke:#181818;stroke-width:0.5;" width="173.4961" x="787.6431" y="1844.7832"/><text fill="#000000" font-family="sans-serif" font-size="14" lengthAdjust="spacing" textLength="159.4961" x="794.6431" y="1866.8906">factory:RepositoryFactory</text><rect fill="#E2E2F0" height="32.6211" rx="2.5" ry="2.5" style="stroke:#181818;stroke-width:0.5;" width="223.3096" x="971.1392" y="1844.7832"/><text fill="#000000" font-family="sans-serif" font-size="14" lengthAdjust="spacing" textLength="209.3096" x="978.1392" y="1866.8906">advService:AdvertisementService</text><rect fill="#E2E2F0" height="32.6211" rx="2.5" ry="2.5" style="stroke:#181818;stroke-width:0.5;" width="230.3301" x="1204.4487" y="50"/><text fill="#000000" font-family="sans-serif" font-size="14" lengthAdjust="spacing" textLength="216.3301" x="1211.4487" y="72.1074">advRepo:AdvertisementRepository</text><rect fill="#E2E2F0" height="32.6211" rx="2.5" ry="2.5" style="stroke:#181818;stroke-width:0.5;" width="230.3301" x="1204.4487" y="1844.7832"/><text fill="#000000" font-family="sans-serif" font-size="14" lengthAdjust="spacing" textLength="216.3301" x="1211.4487" y="1866.8906">advRepo:AdvertisementRepository</text><rect fill="#E2E2F0" height="32.6211" rx="2.5" ry="2.5" style="stroke:#181818;stroke-width:0.5;" width="154.8408" x="1444.7788" y="50"/><text fill="#000000" font-family="sans-serif" font-size="14" lengthAdjust="spacing" textLength="140.8408" x="1451.7788" y="72.1074">:AdvertisementMapper</text><rect fill="#E2E2F0" height="32.6211" rx="2.5" ry="2.5" style="stroke:#181818;stroke-width:0.5;" width="154.8408" x="1444.7788" y="1844.7832"/><text fill="#000000" font-family="sans-serif" font-size="14" lengthAdjust="spacing" textLength="140.8408" x="1451.7788" y="1866.8906">:AdvertisementMapper</text><rect fill="#E2E2F0" height="32.6211" rx="2.5" ry="2.5" style="stroke:#181818;stroke-width:0.5;" width="107.3721" x="1644.8794" y="50"/><text fill="#000000" font-family="sans-serif" font-size="14" lengthAdjust="spacing" textLength="93.3721" x="1651.8794" y="72.1074">:Advertisement</text><rect fill="#E2E2F0" height="32.6211" rx="2.5" ry="2.5" style="stroke:#181818;stroke-width:0.5;" width="107.3721" x="1644.8794" y="1844.7832"/><text fill="#000000" font-family="sans-serif" font-size="14" lengthAdjust="spacing" textLength="93.3721" x="1651.8794" y="1866.8906">:Advertisement</text><rect fill="#E2E2F0" height="32.6211" rx="2.5" ry="2.5" style="stroke:#181818;stroke-width:0.5;" width="217.1025" x="1762.2515" y="1844.7832"/><text fill="#000000" font-family="sans-serif" font-size="14" lengthAdjust="spacing" textLength="203.1025" x="1769.2515" y="1866.8906">soldAdvList:List&lt;Advertisement&gt;</text><rect fill="#E2E2F0" height="32.6211" rx="2.5" ry="2.5" style="stroke:#181818;stroke-width:0.5;" width="276.2061" x="1989.354" y="1844.7832"/><text fill="#000000" font-family="sans-serif" font-size="14" lengthAdjust="spacing" textLength="262.2061" x="1996.354" y="1866.8906">soldAdvListDTO:List&lt;AdvertisementDTO&gt;</text><rect fill="#E2E2F0" height="32.6211" rx="2.5" ry="2.5" style="stroke:#181818;stroke-width:0.5;" width="173.5166" x="2275.5601" y="1844.7832"/><text fill="#000000" font-family="sans-serif" font-size="14" lengthAdjust="spacing" textLength="159.5166" x="2282.5601" y="1866.8906">advDto:AdvertisementDto</text><rect fill="#E2E2F0" height="32.6211" rx="2.5" ry="2.5" style="stroke:#181818;stroke-width:0.5;" width="54.4756" x="2459.0767" y="50"/><text fill="#000000" font-family="sans-serif" font-size="14" lengthAdjust="spacing" textLength="40.4756" x="2466.0767" y="72.1074">:Agent</text><rect fill="#E2E2F0" height="32.6211" rx="2.5" ry="2.5" style="stroke:#181818;stroke-width:0.5;" width="54.4756" x="2459.0767" y="1844.7832"/><text fill="#000000" font-family="sans-serif" font-size="14" lengthAdjust="spacing" textLength="40.4756" x="2466.0767" y="1866.8906">:Agent</text><rect fill="#E2E2F0" height="32.6211" rx="2.5" ry="2.5" style="stroke:#181818;stroke-width:0.5;" width="98.8203" x="2523.5522" y="50"/><text fill="#000000" font-family="sans-serif" font-size="14" lengthAdjust="spacing" textLength="84.8203" x="2530.5522" y="72.1074">:StoreMapper</text><rect fill="#E2E2F0" height="32.6211" rx="2.5" ry="2.5" style="stroke:#181818;stroke-width:0.5;" width="98.8203" x="2523.5522" y="1844.7832"/><text fill="#000000" font-family="sans-serif" font-size="14" lengthAdjust="spacing" textLength="84.8203" x="2530.5522" y="1866.8906">:StoreMapper</text><rect fill="#E2E2F0" height="32.6211" rx="2.5" ry="2.5" style="stroke:#181818;stroke-width:0.5;" width="133.8135" x="2699.144" y="1844.7832"/><text fill="#000000" font-family="sans-serif" font-size="14" lengthAdjust="spacing" textLength="119.8135" x="2706.144" y="1866.8906">storeDto:StoreDTO</text><rect fill="#E2E2F0" height="32.6211" rx="2.5" ry="2.5" style="stroke:#181818;stroke-width:0.5;" width="118.2686" x="2842.9575" y="50"/><text fill="#000000" font-family="sans-serif" font-size="14" lengthAdjust="spacing" textLength="104.2686" x="2849.9575" y="72.1074">:PropertyMapper</text><rect fill="#E2E2F0" height="32.6211" rx="2.5" ry="2.5" style="stroke:#181818;stroke-width:0.5;" width="118.2686" x="2842.9575" y="1844.7832"/><text fill="#000000" font-family="sans-serif" font-size="14" lengthAdjust="spacing" textLength="104.2686" x="2849.9575" y="1866.8906">:PropertyMapper</text><rect fill="#E2E2F0" height="32.6211" rx="2.5" ry="2.5" style="stroke:#181818;stroke-width:0.5;" width="173.4961" x="3101.2461" y="1844.7832"/><text fill="#000000" font-family="sans-serif" font-size="14" lengthAdjust="spacing" textLength="159.4961" x="3108.2461" y="1866.8906">propertyDto:PropertyDTO</text><rect fill="#E2E2F0" height="32.6211" rx="2.5" ry="2.5" style="stroke:#181818;stroke-width:0.5;" width="559.4668" x="3284.7422" y="1844.7832"/><text fill="#000000" font-family="sans-serif" font-size="14" lengthAdjust="spacing" textLength="545.4668" x="3291.7422" y="1866.8906">storeGroupedAdsDTO:Map&lt;StoreDTO,Map&lt;typeBusiness, List&lt;AdvertisementDTO&gt;&gt;&gt;</text><rect fill="#FFFFFF" height="1743.1621" style="stroke:#181818;stroke-width:1.0;" width="10" x="58.2446" y="93.6211"/><rect fill="#FFFFFF" height="1710.8711" style="stroke:#181818;stroke-width:1.0;" width="10" x="252.3271" y="116.9121"/><rect fill="#FFFFFF" height="1648.2891" style="stroke:#181818;stroke-width:1.0;" width="10" x="463.8042" y="148.2031"/><rect fill="#FFFFFF" height="137.4941" style="stroke:#181818;stroke-width:1.0;" width="10" x="657.2031" y="179.4941"/><rect fill="#FFFFFF" height="31.291" style="stroke:#181818;stroke-width:1.0;" width="10" x="869.3911" y="210.7852"/><rect fill="#FFFFFF" height="327.9492" style="stroke:#181818;stroke-width:1.0;" width="10" x="1077.7939" y="348.2793"/><rect fill="#FFFFFF" height="169.4941" style="stroke:#181818;stroke-width:1.0;" width="10" x="1077.7939" y="1595.707"/><rect fill="#FFFFFF" height="31.291" style="stroke:#181818;stroke-width:1.0;" width="10" x="1314.6138" y="379.5703"/><rect fill="#FFFFFF" height="856.8965" style="stroke:#181818;stroke-width:1.0;" width="10" x="1517.1992" y="707.5195"/><rect fill="#FFFFFF" height="53.582" style="stroke:#181818;stroke-width:1.0;" width="10" x="1522.1992" y="1411.252"/><rect fill="#FFFFFF" height="31.291" style="stroke:#181818;stroke-width:1.0;" width="10" x="1693.5654" y="512.0645"/><rect fill="#FFFFFF" height="93.873" style="stroke:#181818;stroke-width:1.0;" width="10" x="1693.5654" y="870.0137"/><rect fill="#FFFFFF" height="31.291" style="stroke:#181818;stroke-width:1.0;" width="10" x="1693.5654" y="1167.9238"/><rect fill="#FFFFFF" height="30" style="stroke:#181818;stroke-width:1.0;" width="10" x="1865.8027" y="600.9375"/><rect fill="#FFFFFF" height="30" style="stroke:#181818;stroke-width:1.0;" width="10" x="1865.8027" y="808.7227"/><rect fill="#FFFFFF" height="30" style="stroke:#181818;stroke-width:1.0;" width="10" x="2122.457" y="1496.125"/><rect fill="#FFFFFF" height="31.291" style="stroke:#181818;stroke-width:1.0;" width="10" x="2481.3145" y="901.3047"/><rect fill="#FFFFFF" height="141.4551" style="stroke:#181818;stroke-width:1.0;" width="10" x="2567.9624" y="995.1777"/><rect fill="#FFFFFF" height="70.873" style="stroke:#181818;stroke-width:1.0;" width="10" x="2572.9624" y="1034.4688"/><rect fill="#FFFFFF" height="141.4551" style="stroke:#181818;stroke-width:1.0;" width="10" x="2897.0918" y="1230.5059"/><rect fill="#FFFFFF" height="70.873" style="stroke:#181818;stroke-width:1.0;" width="10" x="2902.0918" y="1269.7969"/><rect fill="#FFFFFF" height="30" style="stroke:#181818;stroke-width:1.0;" width="10" x="3559.4756" y="1696.9102"/><polygon fill="#181818" points="240.3271,112.9121,250.3271,116.9121,240.3271,120.9121,244.3271,116.9121" style="stroke:#181818;stroke-width:1.0;"/><line style="stroke:#181818;stroke-width:1.0;" x1="68.2446" x2="246.3271" y1="116.9121" y2="116.9121"/><text fill="#000000" font-family="sans-serif" font-size="13" font-weight="bold" lengthAdjust="spacing" textLength="7.23" x="75.2446" y="111.6494">1</text><text fill="#000000" font-family="sans-serif" font-size="13" lengthAdjust="spacing" textLength="148.1226" x="86.4746" y="111.6494">asks to list all deals made</text><polygon fill="#181818" points="451.8042,144.2031,461.8042,148.2031,451.8042,152.2031,455.8042,148.2031" style="stroke:#181818;stroke-width:1.0;"/><line style="stroke:#181818;stroke-width:1.0;" x1="262.3271" x2="457.8042" y1="148.2031" y2="148.2031"/><text fill="#000000" font-family="sans-serif" font-size="13" font-weight="bold" lengthAdjust="spacing" textLength="7.23" x="269.3271" y="142.9404">2</text><text fill="#000000" font-family="sans-serif" font-size="13" lengthAdjust="spacing" textLength="171.2471" x="280.5571" y="142.9404">getAllDealsGroupedByStore()</text><polygon fill="#181818" points="645.2031,175.4941,655.2031,179.4941,645.2031,183.4941,649.2031,179.4941" style="stroke:#181818;stroke-width:1.0;"/><line style="stroke:#181818;stroke-width:1.0;" x1="473.8042" x2="651.2031" y1="179.4941" y2="179.4941"/><text fill="#000000" font-family="sans-serif" font-size="13" font-weight="bold" lengthAdjust="spacing" textLength="7.23" x="480.8042" y="174.2314">3</text><text fill="#000000" font-family="sans-serif" font-size="13" lengthAdjust="spacing" textLength="153.1689" x="492.0342" y="174.2314">getAdvertisementService()</text><polygon fill="#181818" points="857.3911,206.7852,867.3911,210.7852,857.3911,214.7852,861.3911,210.7852" style="stroke:#181818;stroke-width:1.0;"/><line style="stroke:#181818;stroke-width:1.0;" x1="667.2031" x2="863.3911" y1="210.7852" y2="210.7852"/><text fill="#000000" font-family="sans-serif" font-size="13" font-weight="bold" lengthAdjust="spacing" textLength="7.23" x="674.2031" y="205.5225">4</text><text fill="#000000" font-family="sans-serif" font-size="13" lengthAdjust="spacing" textLength="171.958" x="685.4331" y="205.5225">getAdvertisementRepository()</text><polygon fill="#181818" points="678.2031,238.0762,668.2031,242.0762,678.2031,246.0762,674.2031,242.0762" style="stroke:#181818;stroke-width:1.0;"/><line style="stroke:#181818;stroke-width:1.0;stroke-dasharray:2.0,2.0;" x1="672.2031" x2="873.3911" y1="242.0762" y2="242.0762"/><text fill="#000000" font-family="sans-serif" font-size="13" font-weight="bold" lengthAdjust="spacing" textLength="7.23" x="684.2031" y="236.8135">5</text><text fill="#000000" font-family="sans-serif" font-size="13" lengthAdjust="spacing" textLength="26.019" x="695.4331" y="236.8135">repo</text><polygon fill="#181818" points="959.1392,269.3672,969.1392,273.3672,959.1392,277.3672,963.1392,273.3672" style="stroke:#181818;stroke-width:1.0;"/><line style="stroke:#181818;stroke-width:1.0;" x1="667.2031" x2="965.1392" y1="273.3672" y2="273.3672"/><text fill="#000000" font-family="sans-serif" font-size="13" font-weight="bold" lengthAdjust="spacing" textLength="7.23" x="674.2031" y="268.1045">6</text><text fill="#000000" font-family="sans-serif" font-size="13" lengthAdjust="spacing" textLength="70.8081" x="685.4331" y="268.1045">create(repo)</text><rect fill="#E2E2F0" height="32.6211" rx="2.5" ry="2.5" style="stroke:#181818;stroke-width:0.5;" width="223.3096" x="971.1392" y="250.0762"/><text fill="#000000" font-family="sans-serif" font-size="14" lengthAdjust="spacing" textLength="209.3096" x="978.1392" y="272.1836">advService:AdvertisementService</text><polygon fill="#181818" points="484.8042,312.9883,474.8042,316.9883,484.8042,320.9883,480.8042,316.9883" style="stroke:#181818;stroke-width:1.0;"/><line style="stroke:#181818;stroke-width:1.0;stroke-dasharray:2.0,2.0;" x1="478.8042" x2="661.2031" y1="316.9883" y2="316.9883"/><text fill="#000000" font-family="sans-serif" font-size="13" font-weight="bold" lengthAdjust="spacing" textLength="7.23" x="490.8042" y="311.7256">7</text><text fill="#000000" font-family="sans-serif" font-size="13" lengthAdjust="spacing" textLength="41.1772" x="502.0342" y="311.7256">service</text><polygon fill="#181818" points="1065.7939,344.2793,1075.7939,348.2793,1065.7939,352.2793,1069.7939,348.2793" style="stroke:#181818;stroke-width:1.0;"/><line style="stroke:#181818;stroke-width:1.0;" x1="473.8042" x2="1071.7939" y1="348.2793" y2="348.2793"/><text fill="#000000" font-family="sans-serif" font-size="13" font-weight="bold" lengthAdjust="spacing" textLength="7.23" x="480.8042" y="343.0166">8</text><text fill="#000000" font-family="sans-serif" font-size="13" lengthAdjust="spacing" textLength="106.9326" x="492.0342" y="343.0166">getAllDealsMade()</text><polygon fill="#181818" points="1302.6138,375.5703,1312.6138,379.5703,1302.6138,383.5703,1306.6138,379.5703" style="stroke:#181818;stroke-width:1.0;"/><line style="stroke:#181818;stroke-width:1.0;" x1="1087.7939" x2="1308.6138" y1="379.5703" y2="379.5703"/><text fill="#000000" font-family="sans-serif" font-size="13" font-weight="bold" lengthAdjust="spacing" textLength="7.23" x="1094.7939" y="374.3076">9</text><text fill="#000000" font-family="sans-serif" font-size="13" lengthAdjust="spacing" textLength="41.1772" x="1106.0239" y="374.3076">getAll()</text><polygon fill="#181818" points="1098.7939,406.8613,1088.7939,410.8613,1098.7939,414.8613,1094.7939,410.8613" style="stroke:#181818;stroke-width:1.0;"/><line style="stroke:#181818;stroke-width:1.0;stroke-dasharray:2.0,2.0;" x1="1092.7939" x2="1318.6138" y1="410.8613" y2="410.8613"/><text fill="#000000" font-family="sans-serif" font-size="13" font-weight="bold" lengthAdjust="spacing" textLength="14.46" x="1104.7939" y="405.5986">10</text><text fill="#000000" font-family="sans-serif" font-size="13" lengthAdjust="spacing" textLength="41.1899" x="1123.2539" y="405.5986">advList</text><polygon fill="#181818" points="1750.2515,438.1523,1760.2515,442.1523,1750.2515,446.1523,1754.2515,442.1523" style="stroke:#181818;stroke-width:1.0;"/><line style="stroke:#181818;stroke-width:1.0;stroke-dasharray:2.0,2.0;" x1="1087.7939" x2="1756.2515" y1="442.1523" y2="442.1523"/><text fill="#000000" font-family="sans-serif" font-size="13" font-weight="bold" lengthAdjust="spacing" textLength="14.46" x="1094.7939" y="436.8896">11</text><text fill="#000000" font-family="sans-serif" font-size="13" lengthAdjust="spacing" textLength="44.7891" x="1113.2539" y="436.8896">create()</text><rect fill="#E2E2F0" height="32.6211" rx="2.5" ry="2.5" style="stroke:#181818;stroke-width:0.5;" width="217.1025" x="1762.2515" y="418.8613"/><text fill="#000000" font-family="sans-serif" font-size="14" lengthAdjust="spacing" textLength="203.1025" x="1769.2515" y="440.9688">soldAdvList:List&lt;Advertisement&gt;</text><path d="M951.1392,469.4824 L1023.5737,469.4824 L1023.5737,478.7734 L1013.5737,488.7734 L951.1392,488.7734 L951.1392,469.4824 " fill="#EEEEEE" style="stroke:#000000;stroke-width:1.5;"/><rect fill="none" height="176.4551" style="stroke:#000000;stroke-width:1.5;" width="1048.2148" x="951.1392" y="469.4824"/><text fill="#000000" font-family="sans-serif" font-size="13" font-weight="bold" lengthAdjust="spacing" textLength="27.4346" x="966.1392" y="484.5107">loop</text><text fill="#000000" font-family="sans-serif" font-size="11" font-weight="bold" lengthAdjust="spacing" textLength="182.1606" x="1038.5737" y="483.3525">[for each advertisement in advList]</text><polygon fill="#181818" points="1681.5654,508.0645,1691.5654,512.0645,1681.5654,516.0645,1685.5654,512.0645" style="stroke:#181818;stroke-width:1.0;"/><line style="stroke:#181818;stroke-width:1.0;" x1="1087.7939" x2="1687.5654" y1="512.0645" y2="512.0645"/><text fill="#000000" font-family="sans-serif" font-size="13" font-weight="bold" lengthAdjust="spacing" textLength="14.46" x="1094.7939" y="506.8018">12</text><text fill="#000000" font-family="sans-serif" font-size="13" lengthAdjust="spacing" textLength="127.1563" x="1113.2539" y="506.8018">isAdvertisementSold()</text><polygon fill="#181818" points="1098.7939,539.3555,1088.7939,543.3555,1098.7939,547.3555,1094.7939,543.3555" style="stroke:#181818;stroke-width:1.0;"/><line style="stroke:#181818;stroke-width:1.0;stroke-dasharray:2.0,2.0;" x1="1092.7939" x2="1697.5654" y1="543.3555" y2="543.3555"/><text fill="#000000" font-family="sans-serif" font-size="13" font-weight="bold" lengthAdjust="spacing" textLength="14.46" x="1104.7939" y="538.0928">13</text><text fill="#000000" font-family="sans-serif" font-size="13" lengthAdjust="spacing" textLength="35.4072" x="1123.2539" y="538.0928">isSold</text><path d="M961.1392,558.3555 L1026.3501,558.3555 L1026.3501,567.6465 L1016.3501,577.6465 L961.1392,577.6465 L961.1392,558.3555 " fill="#EEEEEE" style="stroke:#000000;stroke-width:1.5;"/><rect fill="none" height="80.582" style="stroke:#000000;stroke-width:1.5;" width="1028.2148" x="961.1392" y="558.3555"/><text fill="#000000" font-family="sans-serif" font-size="13" font-weight="bold" lengthAdjust="spacing" textLength="20.2109" x="976.1392" y="573.3838">opt</text><text fill="#000000" font-family="sans-serif" font-size="11" font-weight="bold" lengthAdjust="spacing" textLength="123.4546" x="1041.3501" y="572.2256">[isSold attribute is true]</text><polygon fill="#181818" points="1853.8027,596.9375,1863.8027,600.9375,1853.8027,604.9375,1857.8027,600.9375" style="stroke:#181818;stroke-width:1.0;"/><line style="stroke:#181818;stroke-width:1.0;" x1="1087.7939" x2="1859.8027" y1="600.9375" y2="600.9375"/><text fill="#000000" font-family="sans-serif" font-size="13" font-weight="bold" lengthAdjust="spacing" textLength="14.46" x="1094.7939" y="595.6748">14</text><text fill="#000000" font-family="sans-serif" font-size="13" lengthAdjust="spacing" textLength="51.3081" x="1113.2539" y="595.6748">add(adv)</text><polygon fill="#181818" points="484.8042,672.2285,474.8042,676.2285,484.8042,680.2285,480.8042,676.2285" style="stroke:#181818;stroke-width:1.0;"/><line style="stroke:#181818;stroke-width:1.0;stroke-dasharray:2.0,2.0;" x1="478.8042" x2="1081.7939" y1="676.2285" y2="676.2285"/><text fill="#000000" font-family="sans-serif" font-size="13" font-weight="bold" lengthAdjust="spacing" textLength="14.46" x="490.8042" y="670.9658">15</text><text fill="#000000" font-family="sans-serif" font-size="13" lengthAdjust="spacing" textLength="66.479" x="509.2642" y="670.9658">soldAdvList</text><polygon fill="#181818" points="1505.1992,703.5195,1515.1992,707.5195,1505.1992,711.5195,1509.1992,707.5195" style="stroke:#181818;stroke-width:1.0;"/><line style="stroke:#181818;stroke-width:1.0;" x1="473.8042" x2="1511.1992" y1="707.5195" y2="707.5195"/><text fill="#000000" font-family="sans-serif" font-size="13" font-weight="bold" lengthAdjust="spacing" textLength="14.46" x="480.8042" y="702.2568">16</text><text fill="#000000" font-family="sans-serif" font-size="13" lengthAdjust="spacing" textLength="113.4199" x="499.2642" y="702.2568">toDTO(soldAdvList)</text><polygon fill="#181818" points="1977.354,734.8105,1987.354,738.8105,1977.354,742.8105,1981.354,738.8105" style="stroke:#181818;stroke-width:1.0;"/><line style="stroke:#181818;stroke-width:1.0;stroke-dasharray:2.0,2.0;" x1="1527.1992" x2="1983.354" y1="738.8105" y2="738.8105"/><text fill="#000000" font-family="sans-serif" font-size="13" font-weight="bold" lengthAdjust="spacing" textLength="14.46" x="1534.1992" y="733.5479">17</text><text fill="#000000" font-family="sans-serif" font-size="13" lengthAdjust="spacing" textLength="44.7891" x="1552.6592" y="733.5479">create()</text><rect fill="#E2E2F0" height="32.6211" rx="2.5" ry="2.5" style="stroke:#181818;stroke-width:0.5;" width="276.2061" x="1989.354" y="715.5195"/><text fill="#000000" font-family="sans-serif" font-size="14" lengthAdjust="spacing" textLength="262.2061" x="1996.354" y="737.627">soldAdvListDTO:List&lt;AdvertisementDTO&gt;</text><path d="M1434.7788,766.1406 L1507.2134,766.1406 L1507.2134,775.4316 L1497.2134,785.4316 L1434.7788,785.4316 L1434.7788,766.1406 " fill="#EEEEEE" style="stroke:#000000;stroke-width:1.5;"/><rect fill="none" height="767.9844" style="stroke:#000000;stroke-width:1.5;" width="1849.9634" x="1434.7788" y="766.1406"/><text fill="#000000" font-family="sans-serif" font-size="13" font-weight="bold" lengthAdjust="spacing" textLength="27.4346" x="1449.7788" y="781.1689">loop</text><text fill="#000000" font-family="sans-serif" font-size="11" font-weight="bold" lengthAdjust="spacing" textLength="206.5991" x="1522.2134" y="780.0107">[for each advertisement in soldAdvList]</text><polygon fill="#181818" points="1853.8027,804.7227,1863.8027,808.7227,1853.8027,812.7227,1857.8027,808.7227" style="stroke:#181818;stroke-width:1.0;"/><line style="stroke:#181818;stroke-width:1.0;" x1="1527.1992" x2="1859.8027" y1="808.7227" y2="808.7227"/><text fill="#000000" font-family="sans-serif" font-size="13" font-weight="bold" lengthAdjust="spacing" textLength="14.46" x="1534.1992" y="803.46">18</text><text fill="#000000" font-family="sans-serif" font-size="13" lengthAdjust="spacing" textLength="65.3936" x="1552.6592" y="803.46">adv = get(i)</text><polygon fill="#181818" points="1681.5654,866.0137,1691.5654,870.0137,1681.5654,874.0137,1685.5654,870.0137" style="stroke:#181818;stroke-width:1.0;"/><line style="stroke:#181818;stroke-width:1.0;" x1="1527.1992" x2="1687.5654" y1="870.0137" y2="870.0137"/><text fill="#000000" font-family="sans-serif" font-size="13" font-weight="bold" lengthAdjust="spacing" textLength="14.46" x="1534.1992" y="864.751">19</text><text fill="#000000" font-family="sans-serif" font-size="13" lengthAdjust="spacing" textLength="106.9453" x="1552.6592" y="864.751">getStoreByAgent()</text><polygon fill="#181818" points="2469.3145,897.3047,2479.3145,901.3047,2469.3145,905.3047,2473.3145,901.3047" style="stroke:#181818;stroke-width:1.0;"/><line style="stroke:#181818;stroke-width:1.0;" x1="1703.5654" x2="2475.3145" y1="901.3047" y2="901.3047"/><text fill="#000000" font-family="sans-serif" font-size="13" font-weight="bold" lengthAdjust="spacing" textLength="14.46" x="1710.5654" y="896.042">20</text><text fill="#000000" font-family="sans-serif" font-size="13" lengthAdjust="spacing" textLength="57.8018" x="1729.0254" y="896.042">getStore()</text><polygon fill="#181818" points="1714.5654,928.5957,1704.5654,932.5957,1714.5654,936.5957,1710.5654,932.5957" style="stroke:#181818;stroke-width:1.0;"/><line style="stroke:#181818;stroke-width:1.0;stroke-dasharray:2.0,2.0;" x1="1708.5654" x2="2485.3145" y1="932.5957" y2="932.5957"/><text fill="#000000" font-family="sans-serif" font-size="13" font-weight="bold" lengthAdjust="spacing" textLength="14.46" x="1720.5654" y="927.333">21</text><text fill="#000000" font-family="sans-serif" font-size="13" lengthAdjust="spacing" textLength="28.9009" x="1739.0254" y="927.333">store</text><polygon fill="#181818" points="1538.1992,959.8867,1528.1992,963.8867,1538.1992,967.8867,1534.1992,963.8867" style="stroke:#181818;stroke-width:1.0;"/><line style="stroke:#181818;stroke-width:1.0;stroke-dasharray:2.0,2.0;" x1="1532.1992" x2="1697.5654" y1="963.8867" y2="963.8867"/><text fill="#000000" font-family="sans-serif" font-size="13" font-weight="bold" lengthAdjust="spacing" textLength="14.46" x="1544.1992" y="958.624">22</text><text fill="#000000" font-family="sans-serif" font-size="13" lengthAdjust="spacing" textLength="28.9009" x="1562.6592" y="958.624">store</text><polygon fill="#181818" points="2555.9624,991.1777,2565.9624,995.1777,2555.9624,999.1777,2559.9624,995.1777" style="stroke:#181818;stroke-width:1.0;"/><line style="stroke:#181818;stroke-width:1.0;" x1="1527.1992" x2="2561.9624" y1="995.1777" y2="995.1777"/><text fill="#000000" font-family="sans-serif" font-size="13" font-weight="bold" lengthAdjust="spacing" textLength="14.46" x="1534.1992" y="989.915">23</text><text fill="#000000" font-family="sans-serif" font-size="13" lengthAdjust="spacing" textLength="75.8418" x="1552.6592" y="989.915">toDTO(store)</text><line style="stroke:#181818;stroke-width:1.0;" x1="2577.9624" x2="2624.9624" y1="1021.4688" y2="1021.4688"/><line style="stroke:#181818;stroke-width:1.0;" x1="2624.9624" x2="2624.9624" y1="1021.4688" y2="1034.4688"/><line style="stroke:#181818;stroke-width:1.0;" x1="2583.9624" x2="2624.9624" y1="1034.4688" y2="1034.4688"/><polygon fill="#181818" points="2593.9624,1030.4688,2583.9624,1034.4688,2593.9624,1038.4688,2589.9624,1034.4688" style="stroke:#181818;stroke-width:1.0;"/><text fill="#000000" font-family="sans-serif" font-size="13" font-weight="bold" lengthAdjust="spacing" textLength="14.46" x="2589.9624" y="1016.2061">24</text><text fill="#000000" font-family="sans-serif" font-size="13" lengthAdjust="spacing" textLength="139.7881" x="2608.4224" y="1016.2061">storeDto = toDTO(store)</text><polygon fill="#181818" points="2687.144,1101.3418,2697.144,1105.3418,2687.144,1109.3418,2691.144,1105.3418" style="stroke:#181818;stroke-width:1.0;"/><line style="stroke:#181818;stroke-width:1.0;stroke-dasharray:2.0,2.0;" x1="2577.9624" x2="2693.144" y1="1105.3418" y2="1105.3418"/><text fill="#000000" font-family="sans-serif" font-size="13" font-weight="bold" lengthAdjust="spacing" textLength="14.46" x="2584.9624" y="1082.7881">25</text><text fill="#000000" font-family="sans-serif" font-size="13" lengthAdjust="spacing" textLength="72.2617" x="2603.4224" y="1065.4971">create(code,</text><text fill="#000000" font-family="sans-serif" font-size="13" lengthAdjust="spacing" textLength="70.1099" x="2607.0342" y="1082.7881">designation,</text><text fill="#000000" font-family="sans-serif" font-size="13" lengthAdjust="spacing" textLength="51.3081" x="2607.0342" y="1100.0791">revenue)</text><rect fill="#E2E2F0" height="32.6211" rx="2.5" ry="2.5" style="stroke:#181818;stroke-width:0.5;" width="133.8135" x="2699.144" y="1069.7207"/><text fill="#000000" font-family="sans-serif" font-size="14" lengthAdjust="spacing" textLength="119.8135" x="2706.144" y="1091.8281">storeDto:StoreDTO</text><polygon fill="#181818" points="1538.1992,1132.6328,1528.1992,1136.6328,1538.1992,1140.6328,1534.1992,1136.6328" style="stroke:#181818;stroke-width:1.0;"/><line style="stroke:#181818;stroke-width:1.0;stroke-dasharray:2.0,2.0;" x1="1532.1992" x2="2571.9624" y1="1136.6328" y2="1136.6328"/><text fill="#000000" font-family="sans-serif" font-size="13" font-weight="bold" lengthAdjust="spacing" textLength="14.46" x="1544.1992" y="1131.3701">26</text><text fill="#000000" font-family="sans-serif" font-size="13" lengthAdjust="spacing" textLength="49.1309" x="1562.6592" y="1131.3701">storeDto</text><polygon fill="#181818" points="1681.5654,1163.9238,1691.5654,1167.9238,1681.5654,1171.9238,1685.5654,1167.9238" style="stroke:#181818;stroke-width:1.0;"/><line style="stroke:#181818;stroke-width:1.0;" x1="1527.1992" x2="1687.5654" y1="1167.9238" y2="1167.9238"/><text fill="#000000" font-family="sans-serif" font-size="13" font-weight="bold" lengthAdjust="spacing" textLength="14.46" x="1534.1992" y="1162.6611">27</text><text fill="#000000" font-family="sans-serif" font-size="13" lengthAdjust="spacing" textLength="75.8608" x="1552.6592" y="1162.6611">getProperty()</text><polygon fill="#181818" points="1538.1992,1195.2148,1528.1992,1199.2148,1538.1992,1203.2148,1534.1992,1199.2148" style="stroke:#181818;stroke-width:1.0;"/><line style="stroke:#181818;stroke-width:1.0;stroke-dasharray:2.0,2.0;" x1="1532.1992" x2="1697.5654" y1="1199.2148" y2="1199.2148"/><text fill="#000000" font-family="sans-serif" font-size="13" font-weight="bold" lengthAdjust="spacing" textLength="14.46" x="1544.1992" y="1193.9521">28</text><text fill="#000000" font-family="sans-serif" font-size="13" lengthAdjust="spacing" textLength="47.6899" x="1562.6592" y="1193.9521">property</text><polygon fill="#181818" points="2885.0918,1226.5059,2895.0918,1230.5059,2885.0918,1234.5059,2889.0918,1230.5059" style="stroke:#181818;stroke-width:1.0;"/><line style="stroke:#181818;stroke-width:1.0;" x1="1527.1992" x2="2891.0918" y1="1230.5059" y2="1230.5059"/><text fill="#000000" font-family="sans-serif" font-size="13" font-weight="bold" lengthAdjust="spacing" textLength="14.46" x="1534.1992" y="1225.2432">29</text><text fill="#000000" font-family="sans-serif" font-size="13" lengthAdjust="spacing" textLength="94.6309" x="1552.6592" y="1225.2432">toDTO(property)</text><line style="stroke:#181818;stroke-width:1.0;" x1="2907.0918" x2="2954.0918" y1="1256.7969" y2="1256.7969"/><line style="stroke:#181818;stroke-width:1.0;" x1="2954.0918" x2="2954.0918" y1="1256.7969" y2="1269.7969"/><line style="stroke:#181818;stroke-width:1.0;" x1="2913.0918" x2="2954.0918" y1="1269.7969" y2="1269.7969"/><polygon fill="#181818" points="2923.0918,1265.7969,2913.0918,1269.7969,2923.0918,1273.7969,2919.0918,1269.7969" style="stroke:#181818;stroke-width:1.0;"/><text fill="#000000" font-family="sans-serif" font-size="13" font-weight="bold" lengthAdjust="spacing" textLength="14.46" x="2919.0918" y="1251.5342">30</text><text fill="#000000" font-family="sans-serif" font-size="13" lengthAdjust="spacing" textLength="177.3662" x="2937.5518" y="1251.5342">propertyDto = toDTO(property)</text><polygon fill="#181818" points="3089.2461,1336.6699,3099.2461,1340.6699,3089.2461,1344.6699,3093.2461,1340.6699" style="stroke:#181818;stroke-width:1.0;"/><line style="stroke:#181818;stroke-width:1.0;stroke-dasharray:2.0,2.0;" x1="2907.0918" x2="3095.2461" y1="1340.6699" y2="1340.6699"/><text fill="#000000" font-family="sans-serif" font-size="13" font-weight="bold" lengthAdjust="spacing" textLength="14.46" x="2914.0918" y="1318.1162">31</text><text fill="#000000" font-family="sans-serif" font-size="13" lengthAdjust="spacing" textLength="105.5044" x="2932.5518" y="1300.8252">create(code, area,</text><text fill="#000000" font-family="sans-serif" font-size="13" lengthAdjust="spacing" textLength="143.0825" x="2936.1636" y="1318.1162">location, distanceCenter,</text><text fill="#000000" font-family="sans-serif" font-size="13" lengthAdjust="spacing" textLength="70.1099" x="2936.1636" y="1335.4072">photograph)</text><rect fill="#E2E2F0" height="32.6211" rx="2.5" ry="2.5" style="stroke:#181818;stroke-width:0.5;" width="173.4961" x="3101.2461" y="1305.0488"/><text fill="#000000" font-family="sans-serif" font-size="14" lengthAdjust="spacing" textLength="159.4961" x="3108.2461" y="1327.1563">propertyDto:PropertyDTO</text><polygon fill="#181818" points="1538.1992,1367.9609,1528.1992,1371.9609,1538.1992,1375.9609,1534.1992,1371.9609" style="stroke:#181818;stroke-width:1.0;"/><line style="stroke:#181818;stroke-width:1.0;stroke-dasharray:2.0,2.0;" x1="1532.1992" x2="2901.0918" y1="1371.9609" y2="1371.9609"/><text fill="#000000" font-family="sans-serif" font-size="13" font-weight="bold" lengthAdjust="spacing" textLength="14.46" x="1544.1992" y="1366.6982">32</text><text fill="#000000" font-family="sans-serif" font-size="13" lengthAdjust="spacing" textLength="67.9199" x="1562.6592" y="1366.6982">propertyDto</text><line style="stroke:#181818;stroke-width:1.0;" x1="1527.1992" x2="1574.1992" y1="1398.252" y2="1398.252"/><line style="stroke:#181818;stroke-width:1.0;" x1="1574.1992" x2="1574.1992" y1="1398.252" y2="1411.252"/><line style="stroke:#181818;stroke-width:1.0;" x1="1533.1992" x2="1574.1992" y1="1411.252" y2="1411.252"/><polygon fill="#181818" points="1543.1992,1407.252,1533.1992,1411.252,1543.1992,1415.252,1539.1992,1411.252" style="stroke:#181818;stroke-width:1.0;"/><text fill="#000000" font-family="sans-serif" font-size="13" font-weight="bold" lengthAdjust="spacing" textLength="14.46" x="1539.1992" y="1392.9893">33</text><text fill="#000000" font-family="sans-serif" font-size="13" lengthAdjust="spacing" textLength="123.9063" x="1557.6592" y="1392.9893">advDto = toDTO(adv)</text><polygon fill="#181818" points="2263.5601,1460.834,2273.5601,1464.834,2263.5601,1468.834,2267.5601,1464.834" style="stroke:#181818;stroke-width:1.0;"/><line style="stroke:#181818;stroke-width:1.0;stroke-dasharray:2.0,2.0;" x1="1527.1992" x2="2269.5601" y1="1464.834" y2="1464.834"/><text fill="#000000" font-family="sans-serif" font-size="13" font-weight="bold" lengthAdjust="spacing" textLength="14.46" x="1534.1992" y="1450.9258">34</text><text fill="#000000" font-family="sans-serif" font-size="13" lengthAdjust="spacing" textLength="202.3188" x="1552.6592" y="1442.2803">create(typeProperty, typeBusiness,</text><text fill="#000000" font-family="sans-serif" font-size="13" lengthAdjust="spacing" textLength="239.8525" x="1556.271" y="1459.5713">price, propertyDto, storeDto, commission)</text><rect fill="#E2E2F0" height="32.6211" rx="2.5" ry="2.5" style="stroke:#181818;stroke-width:0.5;" width="173.5166" x="2275.5601" y="1429.2129"/><text fill="#000000" font-family="sans-serif" font-size="14" lengthAdjust="spacing" textLength="159.5166" x="2282.5601" y="1451.3203">advDto:AdvertisementDto</text><polygon fill="#181818" points="2110.457,1492.125,2120.457,1496.125,2110.457,1500.125,2114.457,1496.125" style="stroke:#181818;stroke-width:1.0;"/><line style="stroke:#181818;stroke-width:1.0;" x1="1527.1992" x2="2116.457" y1="1496.125" y2="1496.125"/><text fill="#000000" font-family="sans-serif" font-size="13" font-weight="bold" lengthAdjust="spacing" textLength="14.46" x="1534.1992" y="1490.8623">35</text><text fill="#000000" font-family="sans-serif" font-size="13" lengthAdjust="spacing" textLength="78.749" x="1552.6592" y="1490.8623">add(advDTO)</text><polygon fill="#181818" points="484.8042,1560.416,474.8042,1564.416,484.8042,1568.416,480.8042,1564.416" style="stroke:#181818;stroke-width:1.0;"/><line style="stroke:#181818;stroke-width:1.0;stroke-dasharray:2.0,2.0;" x1="478.8042" x2="1521.1992" y1="1564.416" y2="1564.416"/><text fill="#000000" font-family="sans-serif" font-size="13" font-weight="bold" lengthAdjust="spacing" textLength="14.46" x="490.8042" y="1559.1533">36</text><text fill="#000000" font-family="sans-serif" font-size="13" lengthAdjust="spacing" textLength="93.9199" x="509.2642" y="1559.1533">soldAdvListDTO</text><polygon fill="#181818" points="1065.7939,1591.707,1075.7939,1595.707,1065.7939,1599.707,1069.7939,1595.707" style="stroke:#181818;stroke-width:1.0;"/><line style="stroke:#181818;stroke-width:1.0;" x1="473.8042" x2="1071.7939" y1="1595.707" y2="1595.707"/><text fill="#000000" font-family="sans-serif" font-size="13" font-weight="bold" lengthAdjust="spacing" textLength="14.46" x="480.8042" y="1590.4443">37</text><text fill="#000000" font-family="sans-serif" font-size="13" lengthAdjust="spacing" textLength="265.167" x="499.2642" y="1590.4443">getAllDealsGroupedByStore(soldAdvListDTO)</text><polygon fill="#181818" points="3272.7422,1622.998,3282.7422,1626.998,3272.7422,1630.998,3276.7422,1626.998" style="stroke:#181818;stroke-width:1.0;"/><line style="stroke:#181818;stroke-width:1.0;stroke-dasharray:2.0,2.0;" x1="1087.7939" x2="3278.7422" y1="1626.998" y2="1626.998"/><text fill="#000000" font-family="sans-serif" font-size="13" font-weight="bold" lengthAdjust="spacing" textLength="14.46" x="1094.7939" y="1621.7354">38</text><text fill="#000000" font-family="sans-serif" font-size="13" lengthAdjust="spacing" textLength="44.7891" x="1113.2539" y="1621.7354">create()</text><rect fill="#E2E2F0" height="32.6211" rx="2.5" ry="2.5" style="stroke:#181818;stroke-width:0.5;" width="559.4668" x="3284.7422" y="1603.707"/><text fill="#000000" font-family="sans-serif" font-size="14" lengthAdjust="spacing" textLength="545.4668" x="3291.7422" y="1625.8145">storeGroupedAdsDTO:Map&lt;StoreDTO,Map&lt;typeBusiness, List&lt;AdvertisementDTO&gt;&gt;&gt;</text><path d="M961.1392,1654.3281 L1033.5737,1654.3281 L1033.5737,1663.6191 L1023.5737,1673.6191 L961.1392,1673.6191 L961.1392,1654.3281 " fill="#EEEEEE" style="stroke:#000000;stroke-width:1.5;"/><rect fill="none" height="80.582" style="stroke:#000000;stroke-width:1.5;" width="2893.0698" x="961.1392" y="1654.3281"/><text fill="#000000" font-family="sans-serif" font-size="13" font-weight="bold" lengthAdjust="spacing" textLength="27.4346" x="976.1392" y="1669.3564">loop</text><text fill="#000000" font-family="sans-serif" font-size="11" font-weight="bold" lengthAdjust="spacing" textLength="197.4038" x="1048.5737" y="1668.1982">[for each advDTO in soldAdvListDTO]</text><polygon fill="#181818" points="3547.4756,1692.9102,3557.4756,1696.9102,3547.4756,1700.9102,3551.4756,1696.9102" style="stroke:#181818;stroke-width:1.0;"/><line style="stroke:#181818;stroke-width:1.0;" x1="1087.7939" x2="3553.4756" y1="1696.9102" y2="1696.9102"/><text fill="#000000" font-family="sans-serif" font-size="13" font-weight="bold" lengthAdjust="spacing" textLength="14.46" x="1094.7939" y="1691.6475">39</text><text fill="#000000" font-family="sans-serif" font-size="13" lengthAdjust="spacing" textLength="347.5024" x="1113.2539" y="1691.6475">add(advDTO-&gt;storeDTO, advDTO-&gt;typeBusiness, advDTO)</text><polygon fill="#181818" points="484.8042,1761.2012,474.8042,1765.2012,484.8042,1769.2012,480.8042,1765.2012" style="stroke:#181818;stroke-width:1.0;"/><line style="stroke:#181818;stroke-width:1.0;stroke-dasharray:2.0,2.0;" x1="478.8042" x2="1081.7939" y1="1765.2012" y2="1765.2012"/><text fill="#000000" font-family="sans-serif" font-size="13" font-weight="bold" lengthAdjust="spacing" textLength="14.46" x="490.8042" y="1759.9385">40</text><text fill="#000000" font-family="sans-serif" font-size="13" lengthAdjust="spacing" textLength="129.3335" x="509.2642" y="1759.9385">storeGroupedAdsDTO</text><polygon fill="#181818" points="273.3271,1792.4922,263.3271,1796.4922,273.3271,1800.4922,269.3271,1796.4922" style="stroke:#181818;stroke-width:1.0;"/><line style="stroke:#181818;stroke-width:1.0;stroke-dasharray:2.0,2.0;" x1="267.3271" x2="467.8042" y1="1796.4922" y2="1796.4922"/><text fill="#000000" font-family="sans-serif" font-size="13" font-weight="bold" lengthAdjust="spacing" textLength="14.46" x="279.3271" y="1791.2295">41</text><text fill="#000000" font-family="sans-serif" font-size="13" lengthAdjust="spacing" textLength="129.3335" x="297.7871" y="1791.2295">storeGroupedAdsDTO</text><polygon fill="#181818" points="79.2446,1823.7832,69.2446,1827.7832,79.2446,1831.7832,75.2446,1827.7832" style="stroke:#181818;stroke-width:1.0;"/><line style="stroke:#181818;stroke-width:1.0;stroke-dasharray:2.0,2.0;" x1="73.2446" x2="256.3271" y1="1827.7832" y2="1827.7832"/><text fill="#000000" font-family="sans-serif" font-size="13" font-weight="bold" lengthAdjust="spacing" textLength="14.46" x="85.2446" y="1822.5205">42</text><text fill="#000000" font-family="sans-serif" font-size="13" lengthAdjust="spacing" textLength="141.6226" x="103.7046" y="1822.5205">shows list of deals made</text><!--SRC=[XLPDRzim3BtxLmYzB2cSzMvq0TeK6mgisx2kE-sYscmYrBOyIKwHVpzI7xPaE-l9alX8aSzwb3uSZEbqSNNLrRmrVLD_B6LpfU5l3sq9cqhmlU9Dbl7UI5uQSUG6c6pjlEsRPr1eAurKxE8Rc3UfNja3R_aUr0NZchLW_3Jhk3AY51rkmowAhqARE-2r_YtWpKAVxiz1Th8rIjQrZxapgfv0TxB1qScPtJX5lDWSJyLFwAGMDFpiLgoB7wSkl3e-WZgA4egRwWXeqT10Q_oYTHmnCr_QANKSzmw-j3Af9F5uu5tdYqQqc_qF7v0fHikwGXZHQJczJdosrYd2d7M- -_LzmHzNCSJD8qkHCpxkp8GENBYO5hCVYg3HnFg8r454YHxdavp9GFjP3qncXCyoAtueYG7CAGhS9KifFjWeV70DEv1jje7TzekIVGT8ZoOICUvrI2sdYJbrSDjhqOBMELlcUBiTgnZ3MV4vKKPIoyOnssnHMGMwlcfc9AinEEDrpIfI5cju1TdJFQ58LWNRWxcfQoixlyljoUQwMcSPGIpKISoX5xI1M0yXj5VN73qA0XqyYctY-8e44eKQzNPvMR1I0HQ-8j2m8RgxGhJNvP1qfEUuoWTa0BSVhHvhzUk1pauhDhqu4lUYIG8W9b93b2foM4lPiHViby3B0xcFV33H3l5c-HHCw9HhtC4bDajAQ39ciZD-oBWnIZptU4m47WFLmsI3k4TWg6g5vdM6PyIVhWpQYc4y-wKIPWLxrgC-4X7lb5JW0SIZl8f0DdzddTA6I6Hk8EuTtkADev2poexi4_tKbKYgIpmisOYnn_xsP9jI87hhEjDe9mEjX7zGE8N6loKKFnYYvCOMDf13I-iiiio0eRzXAUTzWfEZCHp0KbQG_sbH_LhiMsw4R6cgu0Xj3madqsZJIZ21PTv2MqmFP_0D3JJrJLjku2AihhFKlkGHDUQ1b_F-Fi02EOpZX3YfPUduOHMU7OwleHt-Pr1awmxII7mOTOU4ieLT5YfFYDji8uIx9eVqhGPJVPozIQCow3O9_o1doTr2gIjKR1udam__CsVu-6k4rbZsUNrCdWI-M-0mTfa-1yR6aHOqQniM_4xFdjnCgVTwrehJA_ETTemH9ls4CffqopJYq34HkTa6rUKihAJN-vohgAcUwQgpDuHdo5_k2tQwqz4wFWGGTP1lsZq0v4jy__y3]--></g></svg>