<svg xmlns="http://www.w3.org/2000/svg" xmlns:xlink="http://www.w3.org/1999/xlink" contentStyleType="text/css" height="704px" preserveAspectRatio="none" style="width:1761px;height:704px;background:#FFFFFF;" version="1.1" viewBox="0 0 1761 704" width="1761px" zoomAndPan="magnify"><defs/><g><!--class ListDealsView--><g id="elem_ListDealsView"><rect codeLine="6" fill="#F1F1F1" height="44.6211" id="ListDealsView" rx="2.5" ry="2.5" style="stroke:#181818;stroke-width:0.5;" width="93.9238" x="938.5" y="7"/><text fill="#000000" font-family="sans-serif" font-size="14" lengthAdjust="spacing" textLength="87.9238" x="941.5" y="27.1074">ListDealsView</text><line style="stroke:#181818;stroke-width:0.5;" x1="939.5" x2="1031.4238" y1="35.6211" y2="35.6211"/><line style="stroke:#181818;stroke-width:0.5;" x1="939.5" x2="1031.4238" y1="43.6211" y2="43.6211"/></g><!--class ListDealsController--><g id="elem_ListDealsController"><rect codeLine="8" fill="#F1F1F1" height="63.2422" id="ListDealsController" rx="2.5" ry="2.5" style="stroke:#181818;stroke-width:0.5;" width="204.5957" x="883" y="113"/><text fill="#000000" font-family="sans-serif" font-size="14" lengthAdjust="spacing" textLength="118.2686" x="926.1636" y="133.1074">ListDealsController</text><line style="stroke:#181818;stroke-width:0.5;" x1="884" x2="1086.5957" y1="141.6211" y2="141.6211"/><line style="stroke:#181818;stroke-width:0.5;" x1="884" x2="1086.5957" y1="149.6211" y2="149.6211"/><text fill="#000000" font-family="sans-serif" font-size="14" lengthAdjust="spacing" textLength="192.5957" x="889" y="168.7285">+getAllDealsGroupedByStore()</text></g><!--class Company--><g id="elem_Company"><rect codeLine="12" fill="#F1F1F1" height="63.2422" id="Company" rx="2.5" ry="2.5" style="stroke:#181818;stroke-width:0.5;" width="185.127" x="7" y="246.5"/><text fill="#000000" font-family="sans-serif" font-size="14" lengthAdjust="spacing" textLength="59.917" x="69.605" y="266.6074">Company</text><line style="stroke:#181818;stroke-width:0.5;" x1="8" x2="191.127" y1="275.1211" y2="275.1211"/><line style="stroke:#181818;stroke-width:0.5;" x1="8" x2="191.127" y1="283.1211" y2="283.1211"/><text fill="#000000" font-family="sans-serif" font-size="14" lengthAdjust="spacing" textLength="173.127" x="13" y="302.2285">+getAdvertisementService()</text></g><!--class RepositoryFactory--><g id="elem_RepositoryFactory"><rect codeLine="16" fill="#F1F1F1" height="79.2031" id="RepositoryFactory" rx="2.5" ry="2.5" style="stroke:#181818;stroke-width:0.5;" width="205.3613" x="250" y="455.5"/><text fill="#000000" font-family="sans-serif" font-size="12" font-style="italic" lengthAdjust="spacing" textLength="59.373" x="322.9941" y="473.4492">&#171;interface&#187;</text><text fill="#000000" font-family="sans-serif" font-size="14" font-style="italic" lengthAdjust="spacing" textLength="113.5928" x="295.8843" y="491.5684">RepositoryFactory</text><line style="stroke:#181818;stroke-width:0.5;" x1="251" x2="454.3613" y1="500.082" y2="500.082"/><line style="stroke:#181818;stroke-width:0.5;" x1="251" x2="454.3613" y1="508.082" y2="508.082"/><text fill="#000000" font-family="sans-serif" font-size="14" lengthAdjust="spacing" textLength="193.3613" x="256" y="527.1895">+getAdvertisementRepository()</text></g><!--class AdvertisementService--><g id="elem_AdvertisementService"><rect codeLine="20" fill="#F1F1F1" height="81.8633" id="AdvertisementService" rx="2.5" ry="2.5" style="stroke:#181818;stroke-width:0.5;" width="775.7314" x="267.5" y="237"/><text fill="#000000" font-family="sans-serif" font-size="14" lengthAdjust="spacing" textLength="136.165" x="587.2832" y="257.1074">AdvertisementService</text><line style="stroke:#181818;stroke-width:0.5;" x1="268.5" x2="1042.2314" y1="265.6211" y2="265.6211"/><line style="stroke:#181818;stroke-width:0.5;" x1="268.5" x2="1042.2314" y1="273.6211" y2="273.6211"/><text fill="#000000" font-family="sans-serif" font-size="14" lengthAdjust="spacing" textLength="258.7334" x="273.5" y="292.7285">+getAllDealsMade(): List&lt;Advertisement&gt;</text><text fill="#000000" font-family="sans-serif" font-size="14" lengthAdjust="spacing" textLength="763.7314" x="273.5" y="311.3496">+getAllDealsGroupedByStore(List&lt;AdvertisementDTO&gt;): Map&lt;StoreDTO, Map&lt;typeBusiness, List&lt;AdvertisementDTO&gt;&gt;&gt;</text></g><!--class AdvertisementRepository--><g id="elem_AdvertisementRepository"><rect codeLine="25" fill="#F1F1F1" height="79.2031" id="AdvertisementRepository" rx="2.5" ry="2.5" style="stroke:#181818;stroke-width:0.5;" width="162.3994" x="574.5" y="455.5"/><text fill="#000000" font-family="sans-serif" font-size="12" font-style="italic" lengthAdjust="spacing" textLength="59.373" x="626.0132" y="473.4492">&#171;interface&#187;</text><text fill="#000000" font-family="sans-serif" font-size="14" font-style="italic" lengthAdjust="spacing" textLength="156.3994" x="577.5" y="491.5684">AdvertisementRepository</text><line style="stroke:#181818;stroke-width:0.5;" x1="575.5" x2="735.8994" y1="500.082" y2="500.082"/><line style="stroke:#181818;stroke-width:0.5;" x1="575.5" x2="735.8994" y1="508.082" y2="508.082"/><text fill="#000000" font-family="sans-serif" font-size="14" lengthAdjust="spacing" textLength="52.5205" x="580.5" y="527.1895">+getAll()</text></g><!--class AdvertisementMapper--><g id="elem_AdvertisementMapper"><rect codeLine="29" fill="#F1F1F1" height="63.2422" id="AdvertisementMapper" rx="2.5" ry="2.5" style="stroke:#181818;stroke-width:0.5;" width="363.2988" x="1150" y="246.5"/><text fill="#000000" font-family="sans-serif" font-size="14" lengthAdjust="spacing" textLength="136.9512" x="1263.1738" y="266.6074">AdvertisementMapper</text><line style="stroke:#181818;stroke-width:0.5;" x1="1151" x2="1512.2988" y1="275.1211" y2="275.1211"/><line style="stroke:#181818;stroke-width:0.5;" x1="1151" x2="1512.2988" y1="283.1211" y2="283.1211"/><text fill="#000000" font-family="sans-serif" font-size="14" lengthAdjust="spacing" textLength="351.2988" x="1156" y="302.2285">+toDTO(List&lt;Advertisement&gt;): List&lt;AdvertisementDTO&gt;</text></g><!--class Advertisement--><g id="elem_Advertisement"><rect codeLine="33" fill="#F1F1F1" height="193.5898" id="Advertisement" rx="2.5" ry="2.5" style="stroke:#181818;stroke-width:0.5;" width="141.9443" x="983.5" y="398"/><text fill="#000000" font-family="sans-serif" font-size="14" lengthAdjust="spacing" textLength="89.4824" x="1009.731" y="418.1074">Advertisement</text><line style="stroke:#181818;stroke-width:0.5;" x1="984.5" x2="1124.4443" y1="426.6211" y2="426.6211"/><text fill="#000000" font-family="sans-serif" font-size="14" lengthAdjust="spacing" textLength="126.0479" x="989.5" y="445.7285">-typeProperty: string</text><text fill="#000000" font-family="sans-serif" font-size="14" lengthAdjust="spacing" textLength="129.9443" x="989.5" y="464.3496">-typeBusiness: string</text><text fill="#000000" font-family="sans-serif" font-size="14" lengthAdjust="spacing" textLength="65.3584" x="989.5" y="482.9707">-price:float</text><text fill="#000000" font-family="sans-serif" font-size="14" lengthAdjust="spacing" textLength="112.8203" x="989.5" y="501.5918">-property:Property</text><text fill="#000000" font-family="sans-serif" font-size="14" lengthAdjust="spacing" textLength="77.0273" x="989.5" y="520.2129">-client:Client</text><text fill="#000000" font-family="sans-serif" font-size="14" lengthAdjust="spacing" textLength="80.1719" x="989.5" y="538.834">-agent:Agent</text><text fill="#000000" font-family="sans-serif" font-size="14" lengthAdjust="spacing" textLength="77.041" x="989.5" y="557.4551">-isSold: bool</text><text fill="#000000" font-family="sans-serif" font-size="14" lengthAdjust="spacing" textLength="101.1445" x="989.5" y="576.0762">-comission: float</text><line style="stroke:#181818;stroke-width:0.5;" x1="984.5" x2="1124.4443" y1="583.5898" y2="583.5898"/></g><!--class Agent--><g id="elem_Agent"><rect codeLine="44" fill="#F1F1F1" height="44.6211" id="Agent" rx="2.5" ry="2.5" style="stroke:#181818;stroke-width:0.5;" width="42.5859" x="1033" y="653"/><text fill="#000000" font-family="sans-serif" font-size="14" lengthAdjust="spacing" textLength="36.5859" x="1036" y="673.1074">Agent</text><line style="stroke:#181818;stroke-width:0.5;" x1="1034" x2="1074.5859" y1="681.6211" y2="681.6211"/><line style="stroke:#181818;stroke-width:0.5;" x1="1034" x2="1074.5859" y1="689.6211" y2="689.6211"/></g><!--class StoreMapper--><g id="elem_StoreMapper"><rect codeLine="46" fill="#F1F1F1" height="63.2422" id="StoreMapper" rx="2.5" ry="2.5" style="stroke:#181818;stroke-width:0.5;" width="213.8857" x="1231.5" y="463.5"/><text fill="#000000" font-family="sans-serif" font-size="14" lengthAdjust="spacing" textLength="80.9307" x="1297.9775" y="483.6074">StoreMapper</text><line style="stroke:#181818;stroke-width:0.5;" x1="1232.5" x2="1444.3857" y1="492.1211" y2="492.1211"/><line style="stroke:#181818;stroke-width:0.5;" x1="1232.5" x2="1444.3857" y1="500.1211" y2="500.1211"/><text fill="#000000" font-family="sans-serif" font-size="14" lengthAdjust="spacing" textLength="201.8857" x="1237.5" y="519.2285">+toDTO(store: Store): StoreDTO</text></g><!--class PropertyMapper--><g id="elem_PropertyMapper"><rect codeLine="50" fill="#F1F1F1" height="63.2422" id="PropertyMapper" rx="2.5" ry="2.5" style="stroke:#181818;stroke-width:0.5;" width="273.0166" x="1481" y="463.5"/><text fill="#000000" font-family="sans-serif" font-size="14" lengthAdjust="spacing" textLength="100.3789" x="1567.3188" y="483.6074">PropertyMapper</text><line style="stroke:#181818;stroke-width:0.5;" x1="1482" x2="1753.0166" y1="492.1211" y2="492.1211"/><line style="stroke:#181818;stroke-width:0.5;" x1="1482" x2="1753.0166" y1="500.1211" y2="500.1211"/><text fill="#000000" font-family="sans-serif" font-size="14" lengthAdjust="spacing" textLength="261.0166" x="1487" y="519.2285">+toDTO(property: Property): PropertyDTO</text></g><!--class Store--><g id="elem_Store"><rect codeLine="54" fill="#F1F1F1" height="44.6211" id="Store" rx="2.5" ry="2.5" style="stroke:#181818;stroke-width:0.5;" width="39.4619" x="1159" y="653"/><text fill="#000000" font-family="sans-serif" font-size="14" lengthAdjust="spacing" textLength="33.4619" x="1162" y="673.1074">Store</text><line style="stroke:#181818;stroke-width:0.5;" x1="1160" x2="1197.4619" y1="681.6211" y2="681.6211"/><line style="stroke:#181818;stroke-width:0.5;" x1="1160" x2="1197.4619" y1="689.6211" y2="689.6211"/></g><!--link ListDealsView to ListDealsController--><g id="link_ListDealsView_ListDealsController"><path codeLine="58" d="M985.5,52.02 C985.5,69.18 985.5,87.44 985.5,106.67 " fill="none" id="ListDealsView-to-ListDealsController" style="stroke:#181818;stroke-width:1.0;stroke-dasharray:7.0,7.0;"/><polygon fill="#181818" points="985.5,112.67,989.5,103.67,985.5,107.67,981.5,103.67,985.5,112.67" style="stroke:#181818;stroke-width:1.0;"/></g><!--link ListDealsController to Company--><g id="link_ListDealsController_Company"><path codeLine="59" d="M882.71,153.8 C739.79,166.36 473.37,193.45 249.5,237 C230.85,240.63 216.8996,243.7905 198.0696,248.6505 " fill="none" id="ListDealsController-to-Company" style="stroke:#181818;stroke-width:1.0;stroke-dasharray:7.0,7.0;"/><polygon fill="#181818" points="192.26,250.15,201.9741,251.7739,197.1013,248.9005,199.9748,244.0277,192.26,250.15" style="stroke:#181818;stroke-width:1.0;"/></g><!--link ListDealsController to AdvertisementService--><g id="link_ListDealsController_AdvertisementService"><path codeLine="60" d="M908.55,176.16 C863.12,194.27 810.6835,215.1583 761.6635,234.6983 " fill="none" id="ListDealsController-to-AdvertisementService" style="stroke:#181818;stroke-width:1.0;stroke-dasharray:7.0,7.0;"/><polygon fill="#181818" points="756.09,236.92,765.9314,237.3032,760.7346,235.0686,762.9692,229.8718,756.09,236.92" style="stroke:#181818;stroke-width:1.0;"/></g><!--link ListDealsController to Advertisement--><g id="link_ListDealsController_Advertisement"><path codeLine="61" d="M1020.33,176.21 C1036.14,192.49 1053.15,213.89 1061.5,237 C1079.92,288.01 1079.9739,342.5303 1074.2139,392.0003 " fill="none" id="ListDealsController-to-Advertisement" style="stroke:#181818;stroke-width:1.0;stroke-dasharray:7.0,7.0;"/><polygon fill="#181818" points="1073.52,397.96,1078.534,389.483,1074.0983,392.9936,1070.5877,388.5578,1073.52,397.96" style="stroke:#181818;stroke-width:1.0;"/></g><!--link ListDealsController to AdvertisementMapper--><g id="link_ListDealsController_AdvertisementMapper"><path codeLine="62" d="M1066.18,176.16 C1121.8,197.3 1189.8013,223.1487 1245.3813,244.2687 " fill="none" id="ListDealsController-to-AdvertisementMapper" style="stroke:#181818;stroke-width:1.0;stroke-dasharray:7.0,7.0;"/><polygon fill="#181818" points="1250.99,246.4,1243.9978,239.4639,1246.3161,244.6239,1241.1561,246.9422,1250.99,246.4" style="stroke:#181818;stroke-width:1.0;"/></g><!--link AdvertisementMapper to PropertyMapper--><g id="link_AdvertisementMapper_PropertyMapper"><path codeLine="63" d="M1372.17,309.58 C1426.46,350.38 1517.2642,418.6444 1571.7042,459.5744 " fill="none" id="AdvertisementMapper-to-PropertyMapper" style="stroke:#181818;stroke-width:1.0;stroke-dasharray:7.0,7.0;"/><polygon fill="#181818" points="1576.5,463.18,1571.7101,454.5744,1572.5035,460.1753,1566.9026,460.9687,1576.5,463.18" style="stroke:#181818;stroke-width:1.0;"/></g><!--link AdvertisementMapper to StoreMapper--><g id="link_AdvertisementMapper_StoreMapper"><path codeLine="64" d="M1332.5,309.8 C1333.83,350.68 1335.9747,416.4132 1337.3047,457.2532 " fill="none" id="AdvertisementMapper-to-StoreMapper" style="stroke:#181818;stroke-width:1.0;stroke-dasharray:7.0,7.0;"/><polygon fill="#181818" points="1337.5,463.25,1341.2049,454.1246,1337.3373,458.2526,1333.2092,454.385,1337.5,463.25" style="stroke:#181818;stroke-width:1.0;"/></g><!--link Company to AdvertisementService--><g id="link_Company_AdvertisementService"><path codeLine="65" d="M192.25,278 C214.73,278 234.17,278 261.28,278 " fill="none" id="Company-to-AdvertisementService" style="stroke:#181818;stroke-width:1.0;"/><polygon fill="#181818" points="267.28,278,258.28,274,262.28,278,258.28,282,267.28,278" style="stroke:#181818;stroke-width:1.0;"/><text fill="#000000" font-family="sans-serif" font-size="13" lengthAdjust="spacing" textLength="39.0317" x="210.25" y="271.0283">adopts</text></g><!--link Company to RepositoryFactory--><g id="link_Company_RepositoryFactory"><path codeLine="66" d="M135.48,309.58 C180.5,347.83 253.068,409.5045 302.218,451.2745 " fill="none" id="Company-to-RepositoryFactory" style="stroke:#181818;stroke-width:1.0;"/><polygon fill="#181818" points="306.79,455.16,302.5224,446.2838,302.98,451.9221,297.3417,452.3798,306.79,455.16" style="stroke:#181818;stroke-width:1.0;"/><text fill="#000000" font-family="sans-serif" font-size="13" lengthAdjust="spacing" textLength="27.46" x="204.5" y="364.0283">uses</text><text fill="#000000" font-family="sans-serif" font-size="13" lengthAdjust="spacing" textLength="7.23" x="135.1896" y="331.8799">1</text><text fill="#000000" font-family="sans-serif" font-size="13" lengthAdjust="spacing" textLength="7.23" x="291.6287" y="444.1893">1</text></g><!--link RepositoryFactory to AdvertisementRepository--><g id="link_RepositoryFactory_AdvertisementRepository"><path codeLine="67" d="M455.18,495 C494.82,495 528.47,495 568.12,495 " fill="none" id="RepositoryFactory-to-AdvertisementRepository" style="stroke:#181818;stroke-width:1.0;stroke-dasharray:7.0,7.0;"/><polygon fill="#181818" points="574.12,495,565.12,491,569.12,495,565.12,499,574.12,495" style="stroke:#181818;stroke-width:1.0;"/></g><!--link AdvertisementService to AdvertisementRepository--><g id="link_AdvertisementService_AdvertisementRepository"><path codeLine="68" d="M655.5,319.19 C655.5,358.2 655.5,411.01 655.5,449.46 " fill="none" id="AdvertisementService-to-AdvertisementRepository" style="stroke:#181818;stroke-width:1.0;stroke-dasharray:7.0,7.0;"/><polygon fill="#181818" points="655.5,455.46,659.5,446.46,655.5,450.46,651.5,446.46,655.5,455.46" style="stroke:#181818;stroke-width:1.0;"/></g><!--link AdvertisementService to Advertisement--><g id="link_AdvertisementService_Advertisement"><path codeLine="69" d="M730.08,319.19 C802.6,358.26 906.6783,414.3433 978.0183,452.7933 " fill="none" id="AdvertisementService-to-Advertisement" style="stroke:#181818;stroke-width:1.0;stroke-dasharray:7.0,7.0;"/><polygon fill="#181818" points="983.3,455.64,977.2752,447.8489,978.8986,453.2678,973.4797,454.8911,983.3,455.64" style="stroke:#181818;stroke-width:1.0;"/></g><!--link AdvertisementRepository to Advertisement--><g id="link_AdvertisementRepository_Advertisement"><path codeLine="70" d="M736.72,495 C809.18,495 908.22,495 977.41,495 " fill="none" id="AdvertisementRepository-to-Advertisement" style="stroke:#181818;stroke-width:1.0;"/><polygon fill="#181818" points="983.41,495,974.41,491,978.41,495,974.41,499,983.41,495" style="stroke:#181818;stroke-width:1.0;"/><text fill="#000000" font-family="sans-serif" font-size="13" lengthAdjust="spacing" textLength="43.3481" x="838.5" y="488.0283">records</text><text fill="#000000" font-family="sans-serif" font-size="13" lengthAdjust="spacing" textLength="7.23" x="744.7868" y="491.2224">1</text><text fill="#000000" font-family="sans-serif" font-size="13" lengthAdjust="spacing" textLength="5.0591" x="970.3674" y="491.137">*</text></g><!--link AdvertisementMapper to Advertisement--><g id="link_AdvertisementMapper_Advertisement"><path codeLine="71" d="M1229.51,309.63 C1205.11,319.79 1180.17,332.78 1159.5,349 C1142.02,362.72 1129.7804,375.3336 1115.9304,393.2436 " fill="none" id="AdvertisementMapper-to-Advertisement" style="stroke:#181818;stroke-width:1.0;stroke-dasharray:7.0,7.0;"/><polygon fill="#181818" points="1112.26,397.99,1120.9299,393.3174,1115.3187,394.0347,1114.6014,388.4235,1112.26,397.99" style="stroke:#181818;stroke-width:1.0;"/></g><!--link StoreMapper to Store--><g id="link_StoreMapper_Store"><path codeLine="72" d="M1311,526.69 C1278.74,562.67 1230.1045,616.9219 1201.8645,648.4319 " fill="none" id="StoreMapper-to-Store" style="stroke:#181818;stroke-width:1.0;stroke-dasharray:7.0,7.0;"/><polygon fill="#181818" points="1197.86,652.9,1206.8454,648.8674,1201.197,649.1765,1200.8879,643.5281,1197.86,652.9" style="stroke:#181818;stroke-width:1.0;"/></g><!--link Advertisement to Agent--><g id="link_Advertisement_Agent"><path codeLine="73" d="M1054.5,592.04 C1054.5,614.98 1054.5,631.32 1054.5,646.95 " fill="none" id="Advertisement-to-Agent" style="stroke:#181818;stroke-width:1.0;stroke-dasharray:7.0,7.0;"/><polygon fill="#181818" points="1054.5,652.95,1058.5,643.95,1054.5,647.95,1050.5,643.95,1054.5,652.95" style="stroke:#181818;stroke-width:1.0;"/></g><!--link Advertisement to Store--><g id="link_Advertisement_Store"><path codeLine="74" d="M1121.22,592.04 C1137.15,614.98 1149.2464,632.3926 1160.1064,648.0226 " fill="none" id="Advertisement-to-Store" style="stroke:#181818;stroke-width:1.0;stroke-dasharray:7.0,7.0;"/><polygon fill="#181818" points="1163.53,652.95,1161.6795,643.2766,1160.677,648.8439,1155.1097,647.8414,1163.53,652.95" style="stroke:#181818;stroke-width:1.0;"/></g><!--link AdvertisementMapper to Store--><g id="link_AdvertisementMapper_Store"><path codeLine="75" d="M1289.85,309.58 C1263.69,331.2 1231.75,362.57 1214.5,398 C1172.22,484.83 1173.6191,598.2603 1176.4591,646.7403 " fill="none" id="AdvertisementMapper-to-Store" style="stroke:#181818;stroke-width:1.0;stroke-dasharray:7.0,7.0;"/><polygon fill="#181818" points="1176.81,652.73,1180.2768,643.5115,1176.5176,647.7386,1172.2905,643.9793,1176.81,652.73" style="stroke:#181818;stroke-width:1.0;"/></g><!--SRC=[bLHDRzim3BthLmYvTDcQPBiAWO4qnOO1ApOiG- -gp3f2PKaGvGvUiVy-MVwAPndhSb5CllV8Hvc-EdjlaUrsLd7jgr9jXIbtGd74JIvvuNX9o5dcG8LqGW719waj3s4QGGVldNoeF7mMHf_aBw3l2OaP-aMYlmMky5x2pvVVi_3HQE-CKk1U20s_TmNuWr8nzycPoa9-Kv-ySV1cJGRwqPIMw_g2aZ-3ynAX1ErFu9wbw0XIUt2FN03z3jQW35BrHowQW-xtGpRBw8BQIBli85Lmxk2Evw4D5ktk9vJiNsxdbDiVNxEWTSVjFaB2ytLyyhM5cmgb1iHhcYPcsNGO2nQNHwBKeltGWntkpvjGBj5zbXn3qzg2QgktQSnzSoOKy3MZ65uqNOoPtlOqOrsu3VQe3FTze1FebTgmK38KOiTuj25UD953CGGadepA6NqmHdKiKqf4QJIZROcn_uOslkJnbXB3mIREslIwEqDyrEcxJ7079mDeFVwTY4JPfXb29aj8jziijNya4OlORjaMywbLU1tuTQXs2YGHYzZfi1PX5vT1EaVXBZEQR9zHdXlhSK2kFgpe9g2RS_OTORH2G3B_lcoTBCx-RpyZZgHgpmVmtmIojDtHHd3nTZKbCEf069VZulYc-XV378SxvRQiOjODJSDxiJxv1m00]--></g></svg>