<svg xmlns="http://www.w3.org/2000/svg" xmlns:xlink="http://www.w3.org/1999/xlink" contentStyleType="text/css" height="794px" preserveAspectRatio="none" style="width:1179px;height:794px;background:#FFFFFF;" version="1.1" viewBox="0 0 1179 794" width="1179px" zoomAndPan="magnify"><defs/><g><rect fill="#FFFFFF" height="608.8203" style="stroke:#181818;stroke-width:1.0;" width="10" x="44.2344" y="93.6211"/><rect fill="#FFFFFF" height="48.582" style="stroke:#181818;stroke-width:1.0;" width="10" x="302.6123" y="116.9121"/><rect fill="#FFFFFF" height="496.6563" style="stroke:#181818;stroke-width:1.0;" width="10" x="302.6123" y="196.7852"/><rect fill="#FFFFFF" height="416.7832" style="stroke:#181818;stroke-width:1.0;" width="10" x="555.9902" y="245.3672"/><rect fill="#FFFFFF" height="31.291" style="stroke:#181818;stroke-width:1.0;" width="10" x="710.3892" y="276.6582"/><rect fill="#FFFFFF" height="257.0371" style="stroke:#181818;stroke-width:1.0;" width="10" x="846.061" y="373.8223"/><rect fill="#FFFFFF" height="42.291" style="stroke:#181818;stroke-width:1.0;" width="10" x="851.061" y="461.6953"/><rect fill="#FFFFFF" height="42.291" style="stroke:#181818;stroke-width:1.0;" width="10" x="851.061" y="550.2773"/><line style="stroke:#181818;stroke-width:0.5;stroke-dasharray:5.0,5.0;" x1="49" x2="49" y1="83.6211" y2="711.4414"/><line style="stroke:#181818;stroke-width:0.5;stroke-dasharray:5.0,5.0;" x1="306.6987" x2="306.6987" y1="83.6211" y2="711.4414"/><line style="stroke:#181818;stroke-width:0.5;stroke-dasharray:5.0,5.0;" x1="560.9043" x2="560.9043" y1="83.6211" y2="711.4414"/><line style="stroke:#181818;stroke-width:0.5;stroke-dasharray:5.0,5.0;" x1="714.4858" x2="714.4858" y1="83.6211" y2="711.4414"/><line style="stroke:#181818;stroke-width:0.5;stroke-dasharray:5.0,5.0;" x1="850.2925" x2="850.2925" y1="83.6211" y2="711.4414"/><line style="stroke:#181818;stroke-width:0.5;stroke-dasharray:5.0,5.0;" x1="1130.1353" x2="1130.1353" y1="416.1133" y2="711.4414"/><text fill="#000000" font-family="sans-serif" font-size="14" lengthAdjust="spacing" textLength="82.4688" x="5" y="80.1074">Administrator</text><ellipse cx="49.2344" cy="13.5" fill="#E2E2F0" rx="8" ry="8" style="stroke:#181818;stroke-width:0.5;"/><path d="M49.2344,21.5 L49.2344,48.5 M36.2344,29.5 L62.2344,29.5 M49.2344,48.5 L36.2344,63.5 M49.2344,48.5 L62.2344,63.5 " fill="none" style="stroke:#181818;stroke-width:0.5;"/><text fill="#000000" font-family="sans-serif" font-size="14" lengthAdjust="spacing" textLength="82.4688" x="5" y="725.5488">Administrator</text><ellipse cx="49.2344" cy="737.5625" fill="#E2E2F0" rx="8" ry="8" style="stroke:#181818;stroke-width:0.5;"/><path d="M49.2344,745.5625 L49.2344,772.5625 M36.2344,753.5625 L62.2344,753.5625 M49.2344,772.5625 L36.2344,787.5625 M49.2344,772.5625 L62.2344,787.5625 " fill="none" style="stroke:#181818;stroke-width:0.5;"/><rect fill="#E2E2F0" height="32.6211" rx="2.5" ry="2.5" style="stroke:#181818;stroke-width:0.5;" width="133.8271" x="240.6987" y="50"/><text fill="#000000" font-family="sans-serif" font-size="14" lengthAdjust="spacing" textLength="119.8271" x="247.6987" y="72.1074">:RegisterStoreView</text><rect fill="#E2E2F0" height="32.6211" rx="2.5" ry="2.5" style="stroke:#181818;stroke-width:0.5;" width="133.8271" x="240.6987" y="710.4414"/><text fill="#000000" font-family="sans-serif" font-size="14" lengthAdjust="spacing" textLength="119.8271" x="247.6987" y="732.5488">:RegisterStoreView</text><rect fill="#E2E2F0" height="32.6211" rx="2.5" ry="2.5" style="stroke:#181818;stroke-width:0.5;" width="164.1719" x="478.9043" y="50"/><text fill="#000000" font-family="sans-serif" font-size="14" lengthAdjust="spacing" textLength="150.1719" x="485.9043" y="72.1074">:RegisterStoreController</text><rect fill="#E2E2F0" height="32.6211" rx="2.5" ry="2.5" style="stroke:#181818;stroke-width:0.5;" width="164.1719" x="478.9043" y="710.4414"/><text fill="#000000" font-family="sans-serif" font-size="14" lengthAdjust="spacing" textLength="150.1719" x="485.9043" y="732.5488">:RegisterStoreController</text><rect fill="#E2E2F0" height="32.6211" rx="2.5" ry="2.5" style="stroke:#181818;stroke-width:0.5;" width="77.8066" x="676.4858" y="50"/><text fill="#000000" font-family="sans-serif" font-size="14" lengthAdjust="spacing" textLength="63.8066" x="683.4858" y="72.1074">:Company</text><rect fill="#E2E2F0" height="32.6211" rx="2.5" ry="2.5" style="stroke:#181818;stroke-width:0.5;" width="77.8066" x="676.4858" y="710.4414"/><text fill="#000000" font-family="sans-serif" font-size="14" lengthAdjust="spacing" textLength="63.8066" x="683.4858" y="732.5488">:Company</text><rect fill="#E2E2F0" height="32.6211" rx="2.5" ry="2.5" style="stroke:#181818;stroke-width:0.5;" width="173.5371" x="764.2925" y="50"/><text fill="#000000" font-family="sans-serif" font-size="14" lengthAdjust="spacing" textLength="159.5371" x="771.2925" y="72.1074">:container:StoreContainer</text><rect fill="#E2E2F0" height="32.6211" rx="2.5" ry="2.5" style="stroke:#181818;stroke-width:0.5;" width="173.5371" x="764.2925" y="710.4414"/><text fill="#000000" font-family="sans-serif" font-size="14" lengthAdjust="spacing" textLength="159.5371" x="771.2925" y="732.5488">:container:StoreContainer</text><rect fill="#E2E2F0" height="32.6211" rx="2.5" ry="2.5" style="stroke:#181818;stroke-width:0.5;" width="86.3652" x="1087.1353" y="710.4414"/><text fill="#000000" font-family="sans-serif" font-size="14" lengthAdjust="spacing" textLength="72.3652" x="1094.1353" y="732.5488">:store:Store</text><rect fill="#FFFFFF" height="608.8203" style="stroke:#181818;stroke-width:1.0;" width="10" x="44.2344" y="93.6211"/><rect fill="#FFFFFF" height="48.582" style="stroke:#181818;stroke-width:1.0;" width="10" x="302.6123" y="116.9121"/><rect fill="#FFFFFF" height="496.6563" style="stroke:#181818;stroke-width:1.0;" width="10" x="302.6123" y="196.7852"/><rect fill="#FFFFFF" height="416.7832" style="stroke:#181818;stroke-width:1.0;" width="10" x="555.9902" y="245.3672"/><rect fill="#FFFFFF" height="31.291" style="stroke:#181818;stroke-width:1.0;" width="10" x="710.3892" y="276.6582"/><rect fill="#FFFFFF" height="257.0371" style="stroke:#181818;stroke-width:1.0;" width="10" x="846.061" y="373.8223"/><rect fill="#FFFFFF" height="42.291" style="stroke:#181818;stroke-width:1.0;" width="10" x="851.061" y="461.6953"/><rect fill="#FFFFFF" height="42.291" style="stroke:#181818;stroke-width:1.0;" width="10" x="851.061" y="550.2773"/><polygon fill="#181818" points="290.6123,112.9121,300.6123,116.9121,290.6123,120.9121,294.6123,116.9121" style="stroke:#181818;stroke-width:1.0;"/><line style="stroke:#181818;stroke-width:1.0;" x1="54.2344" x2="296.6123" y1="116.9121" y2="116.9121"/><text fill="#000000" font-family="sans-serif" font-size="13" font-weight="bold" lengthAdjust="spacing" textLength="7.23" x="61.2344" y="111.6494">1</text><text fill="#000000" font-family="sans-serif" font-size="13" lengthAdjust="spacing" textLength="131.498" x="72.4644" y="111.6494">asks to register a store</text><polygon fill="#181818" points="65.2344,161.4941,55.2344,165.4941,65.2344,169.4941,61.2344,165.4941" style="stroke:#181818;stroke-width:1.0;"/><line style="stroke:#181818;stroke-width:1.0;stroke-dasharray:2.0,2.0;" x1="59.2344" x2="306.6123" y1="165.4941" y2="165.4941"/><text fill="#000000" font-family="sans-serif" font-size="13" font-weight="bold" lengthAdjust="spacing" textLength="7.23" x="71.2344" y="151.5859">2</text><text fill="#000000" font-family="sans-serif" font-size="13" lengthAdjust="spacing" textLength="192.2388" x="82.4644" y="142.9404">requests data (code, designation,</text><text fill="#000000" font-family="sans-serif" font-size="13" lengthAdjust="spacing" textLength="209.5361" x="86.0762" y="160.2314">address, openingTime, closingTime)</text><polygon fill="#181818" points="290.6123,192.7852,300.6123,196.7852,290.6123,200.7852,294.6123,196.7852" style="stroke:#181818;stroke-width:1.0;"/><line style="stroke:#181818;stroke-width:1.0;" x1="54.2344" x2="296.6123" y1="196.7852" y2="196.7852"/><text fill="#000000" font-family="sans-serif" font-size="13" font-weight="bold" lengthAdjust="spacing" textLength="7.23" x="61.2344" y="191.5225">3</text><text fill="#000000" font-family="sans-serif" font-size="13" lengthAdjust="spacing" textLength="121.418" x="72.4644" y="191.5225">types requested data</text><polygon fill="#181818" points="543.9902,241.3672,553.9902,245.3672,543.9902,249.3672,547.9902,245.3672" style="stroke:#181818;stroke-width:1.0;"/><line style="stroke:#181818;stroke-width:1.0;" x1="312.6123" x2="549.9902" y1="245.3672" y2="245.3672"/><text fill="#000000" font-family="sans-serif" font-size="13" font-weight="bold" lengthAdjust="spacing" textLength="7.23" x="319.6123" y="231.459">4</text><text fill="#000000" font-family="sans-serif" font-size="13" lengthAdjust="spacing" textLength="184.2725" x="330.8423" y="222.8135">registerStore(code, designation,</text><text fill="#000000" font-family="sans-serif" font-size="13" lengthAdjust="spacing" textLength="209.5361" x="334.4541" y="240.1045">address, openingTime, closingTime)</text><polygon fill="#181818" points="698.3892,272.6582,708.3892,276.6582,698.3892,280.6582,702.3892,276.6582" style="stroke:#181818;stroke-width:1.0;"/><line style="stroke:#181818;stroke-width:1.0;" x1="565.9902" x2="704.3892" y1="276.6582" y2="276.6582"/><text fill="#000000" font-family="sans-serif" font-size="13" font-weight="bold" lengthAdjust="spacing" textLength="7.23" x="572.9902" y="271.3955">5</text><text fill="#000000" font-family="sans-serif" font-size="13" lengthAdjust="spacing" textLength="114.1689" x="584.2202" y="271.3955">getStoreContainer()</text><polygon fill="#181818" points="576.9902,303.9492,566.9902,307.9492,576.9902,311.9492,572.9902,307.9492" style="stroke:#181818;stroke-width:1.0;"/><line style="stroke:#181818;stroke-width:1.0;stroke-dasharray:2.0,2.0;" x1="570.9902" x2="714.3892" y1="307.9492" y2="307.9492"/><text fill="#000000" font-family="sans-serif" font-size="13" font-weight="bold" lengthAdjust="spacing" textLength="7.23" x="582.9902" y="302.6865">6</text><text fill="#000000" font-family="sans-serif" font-size="13" lengthAdjust="spacing" textLength="53.479" x="594.2202" y="302.6865">container</text><polygon fill="#181818" points="834.061,369.8223,844.061,373.8223,834.061,377.8223,838.061,373.8223" style="stroke:#181818;stroke-width:1.0;"/><line style="stroke:#181818;stroke-width:1.0;" x1="565.9902" x2="840.061" y1="373.8223" y2="373.8223"/><text fill="#000000" font-family="sans-serif" font-size="13" font-weight="bold" lengthAdjust="spacing" textLength="7.23" x="572.9902" y="351.2686">7</text><text fill="#000000" font-family="sans-serif" font-size="13" lengthAdjust="spacing" textLength="177.0552" x="584.2202" y="333.9775">createStore(code, designation,</text><text fill="#000000" font-family="sans-serif" font-size="13" lengthAdjust="spacing" textLength="132.2407" x="587.832" y="351.2686">address, openingTime,</text><text fill="#000000" font-family="sans-serif" font-size="13" lengthAdjust="spacing" textLength="73.6836" x="587.832" y="368.5596">closingTime)</text><polygon fill="#181818" points="1075.1353,418.4043,1085.1353,422.4043,1075.1353,426.4043,1079.1353,422.4043" style="stroke:#181818;stroke-width:1.0;"/><line style="stroke:#181818;stroke-width:1.0;stroke-dasharray:2.0,2.0;" x1="856.061" x2="1081.1353" y1="422.4043" y2="422.4043"/><text fill="#000000" font-family="sans-serif" font-size="13" font-weight="bold" lengthAdjust="spacing" textLength="7.23" x="863.061" y="408.4961">8</text><text fill="#000000" font-family="sans-serif" font-size="13" lengthAdjust="spacing" textLength="195.8442" x="874.291" y="399.8506">create(code, designation,address,</text><text fill="#000000" font-family="sans-serif" font-size="13" lengthAdjust="spacing" textLength="156.0635" x="877.9028" y="417.1416">openingTime, closingTime)</text><rect fill="#E2E2F0" height="32.6211" rx="2.5" ry="2.5" style="stroke:#181818;stroke-width:0.5;" width="86.3652" x="1087.1353" y="386.7832"/><text fill="#000000" font-family="sans-serif" font-size="14" lengthAdjust="spacing" textLength="72.3652" x="1094.1353" y="408.8906">:store:Store</text><line style="stroke:#181818;stroke-width:1.0;" x1="856.061" x2="903.061" y1="448.6953" y2="448.6953"/><line style="stroke:#181818;stroke-width:1.0;" x1="903.061" x2="903.061" y1="448.6953" y2="461.6953"/><line style="stroke:#181818;stroke-width:1.0;" x1="862.061" x2="903.061" y1="461.6953" y2="461.6953"/><polygon fill="#181818" points="872.061,457.6953,862.061,461.6953,872.061,465.6953,868.061,461.6953" style="stroke:#181818;stroke-width:1.0;"/><text fill="#000000" font-family="sans-serif" font-size="13" font-weight="bold" lengthAdjust="spacing" textLength="7.23" x="868.061" y="443.4326">9</text><text fill="#000000" font-family="sans-serif" font-size="13" lengthAdjust="spacing" textLength="82.3672" x="879.291" y="443.4326">validate(store)</text><line style="stroke:#181818;stroke-width:1.0;stroke-dasharray:2.0,2.0;" x1="861.061" x2="903.061" y1="502.9863" y2="502.9863"/><line style="stroke:#181818;stroke-width:1.0;stroke-dasharray:2.0,2.0;" x1="903.061" x2="903.061" y1="502.9863" y2="515.9863"/><line style="stroke:#181818;stroke-width:1.0;stroke-dasharray:2.0,2.0;" x1="856.061" x2="903.061" y1="515.9863" y2="515.9863"/><polygon fill="#181818" points="866.061,511.9863,856.061,515.9863,866.061,519.9863,862.061,515.9863" style="stroke:#181818;stroke-width:1.0;"/><text fill="#000000" font-family="sans-serif" font-size="13" font-weight="bold" lengthAdjust="spacing" textLength="14.46" x="868.061" y="497.7236">10</text><text fill="#000000" font-family="sans-serif" font-size="13" lengthAdjust="spacing" textLength="13.73" x="886.521" y="497.7236">ok</text><line style="stroke:#181818;stroke-width:1.0;" x1="856.061" x2="903.061" y1="537.2773" y2="537.2773"/><line style="stroke:#181818;stroke-width:1.0;" x1="903.061" x2="903.061" y1="537.2773" y2="550.2773"/><line style="stroke:#181818;stroke-width:1.0;" x1="862.061" x2="903.061" y1="550.2773" y2="550.2773"/><polygon fill="#181818" points="872.061,546.2773,862.061,550.2773,872.061,554.2773,868.061,550.2773" style="stroke:#181818;stroke-width:1.0;"/><text fill="#000000" font-family="sans-serif" font-size="13" font-weight="bold" lengthAdjust="spacing" textLength="14.46" x="868.061" y="532.0146">11</text><text fill="#000000" font-family="sans-serif" font-size="13" lengthAdjust="spacing" textLength="59.249" x="886.521" y="532.0146">add(store)</text><line style="stroke:#181818;stroke-width:1.0;stroke-dasharray:2.0,2.0;" x1="861.061" x2="903.061" y1="591.5684" y2="591.5684"/><line style="stroke:#181818;stroke-width:1.0;stroke-dasharray:2.0,2.0;" x1="903.061" x2="903.061" y1="591.5684" y2="604.5684"/><line style="stroke:#181818;stroke-width:1.0;stroke-dasharray:2.0,2.0;" x1="856.061" x2="903.061" y1="604.5684" y2="604.5684"/><polygon fill="#181818" points="866.061,600.5684,856.061,604.5684,866.061,608.5684,862.061,604.5684" style="stroke:#181818;stroke-width:1.0;"/><text fill="#000000" font-family="sans-serif" font-size="13" font-weight="bold" lengthAdjust="spacing" textLength="14.46" x="868.061" y="586.3057">12</text><text fill="#000000" font-family="sans-serif" font-size="13" lengthAdjust="spacing" textLength="13.73" x="886.521" y="586.3057">ok</text><polygon fill="#181818" points="576.9902,626.8594,566.9902,630.8594,576.9902,634.8594,572.9902,630.8594" style="stroke:#181818;stroke-width:1.0;"/><line style="stroke:#181818;stroke-width:1.0;stroke-dasharray:2.0,2.0;" x1="570.9902" x2="850.061" y1="630.8594" y2="630.8594"/><text fill="#000000" font-family="sans-serif" font-size="13" font-weight="bold" lengthAdjust="spacing" textLength="14.46" x="582.9902" y="625.5967">13</text><text fill="#000000" font-family="sans-serif" font-size="13" lengthAdjust="spacing" textLength="13.73" x="601.4502" y="625.5967">ok</text><polygon fill="#181818" points="323.6123,658.1504,313.6123,662.1504,323.6123,666.1504,319.6123,662.1504" style="stroke:#181818;stroke-width:1.0;"/><line style="stroke:#181818;stroke-width:1.0;stroke-dasharray:2.0,2.0;" x1="317.6123" x2="559.9902" y1="662.1504" y2="662.1504"/><text fill="#000000" font-family="sans-serif" font-size="13" font-weight="bold" lengthAdjust="spacing" textLength="14.46" x="329.6123" y="656.8877">14</text><text fill="#000000" font-family="sans-serif" font-size="13" lengthAdjust="spacing" textLength="13.73" x="348.0723" y="656.8877">ok</text><polygon fill="#181818" points="65.2344,689.4414,55.2344,693.4414,65.2344,697.4414,61.2344,693.4414" style="stroke:#181818;stroke-width:1.0;"/><line style="stroke:#181818;stroke-width:1.0;stroke-dasharray:2.0,2.0;" x1="59.2344" x2="306.6123" y1="693.4414" y2="693.4414"/><text fill="#000000" font-family="sans-serif" font-size="13" font-weight="bold" lengthAdjust="spacing" textLength="14.46" x="71.2344" y="688.1787">15</text><text fill="#000000" font-family="sans-serif" font-size="13" lengthAdjust="spacing" textLength="151.0107" x="89.6943" y="688.1787">informs operation success</text><!--SRC=[dPB1JiCm38RlVGfh5mRQsBs7IMXlm80Jbv2O4gr9IkmExUrnaxPi7KmQbofsVd_sx_JcWxcXShLgQkMvTVMz3cv5-DcYrxWqLbLHkQ9GBGUbsUuL8mIVOj-wDunofpb4c3qOPxqbZah26IY2PvBhHaMssZQ2XrdvY9L8C6v5WoyMlv9mUv2SkoJT1Cynr3LcyePZFP5lWfFJ8L_dyqIXXQ6inrYEo1Js9NqqAQ9EcWlogDqfUSwxI1wBxWlBTM-a5E6EW0F4tWCeIA0Y2s0fsgwc58MicfZ0A5Omry7W0WoIhRnY6_pYrOCo9YBH0aA3tlhgoJeHwJfG7zoUJy271ccWeqduiViwBR0Snqkc_jsxOoLctde95VBfXkSYofV9UMu-FiSHO7WWq15bkzVE9VdJoGPWQfjeTtS3_1Vk01NE1Ri_q9EHzwgsfkEcbvusFnA6tPyC6U3Ayd6TNJhjyUWdaDpP3sVzUuYEEeCnkGPgjHRNnJS0]--></g></svg>