<svg xmlns="http://www.w3.org/2000/svg" xmlns:xlink="http://www.w3.org/1999/xlink" contentStyleType="text/css" height="400px" preserveAspectRatio="none" style="width:1686px;height:400px;background:#FFFFFF;" version="1.1" viewBox="0 0 1686 400" width="1686px" zoomAndPan="magnify"><defs/><g><!--class RegisterStoreView--><g id="elem_RegisterStoreView"><rect codeLine="6" fill="#F1F1F1" height="44.6211" id="RegisterStoreView" rx="2.5" ry="2.5" style="stroke:#181818;stroke-width:0.5;" width="121.9375" x="618.5" y="7"/><text fill="#000000" font-family="sans-serif" font-size="14" lengthAdjust="spacing" textLength="115.9375" x="621.5" y="27.1074">RegisterStoreView</text><line style="stroke:#181818;stroke-width:0.5;" x1="619.5" x2="739.4375" y1="35.6211" y2="35.6211"/><line style="stroke:#181818;stroke-width:0.5;" x1="619.5" x2="739.4375" y1="43.6211" y2="43.6211"/></g><!--class RegisterStoreController--><g id="elem_RegisterStoreController"><rect codeLine="8" fill="#F1F1F1" height="63.2422" id="RegisterStoreController" rx="2.5" ry="2.5" style="stroke:#181818;stroke-width:0.5;" width="686.249" x="336.5" y="113"/><text fill="#000000" font-family="sans-serif" font-size="14" lengthAdjust="spacing" textLength="146.2822" x="606.4834" y="133.1074">RegisterStoreController</text><line style="stroke:#181818;stroke-width:0.5;" x1="337.5" x2="1021.749" y1="141.6211" y2="141.6211"/><line style="stroke:#181818;stroke-width:0.5;" x1="337.5" x2="1021.749" y1="149.6211" y2="149.6211"/><text fill="#000000" font-family="sans-serif" font-size="14" lengthAdjust="spacing" textLength="674.249" x="342.5" y="168.7285">+registerStore(string code, string designation, string address, string openingTime, string closingTime): Result</text></g><!--class Company--><g id="elem_Company"><rect codeLine="12" fill="#F1F1F1" height="63.2422" id="Company" rx="2.5" ry="2.5" style="stroke:#181818;stroke-width:0.5;" width="245.0713" x="7" y="283.5"/><text fill="#000000" font-family="sans-serif" font-size="14" lengthAdjust="spacing" textLength="59.917" x="99.5771" y="303.6074">Company</text><line style="stroke:#181818;stroke-width:0.5;" x1="8" x2="251.0713" y1="312.1211" y2="312.1211"/><line style="stroke:#181818;stroke-width:0.5;" x1="8" x2="251.0713" y1="320.1211" y2="320.1211"/><text fill="#000000" font-family="sans-serif" font-size="14" lengthAdjust="spacing" textLength="233.0713" x="13" y="339.2285">+getStoreContainer(): StoreContainer</text></g><!--class StoreContainer--><g id="elem_StoreContainer"><rect codeLine="16" fill="#F1F1F1" height="63.2422" id="StoreContainer" rx="2.5" ry="2.5" style="stroke:#181818;stroke-width:0.5;" width="672.2559" x="343.5" y="283.5"/><text fill="#000000" font-family="sans-serif" font-size="14" lengthAdjust="spacing" textLength="94.165" x="632.5454" y="303.6074">StoreContainer</text><line style="stroke:#181818;stroke-width:0.5;" x1="344.5" x2="1014.7559" y1="312.1211" y2="312.1211"/><line style="stroke:#181818;stroke-width:0.5;" x1="344.5" x2="1014.7559" y1="320.1211" y2="320.1211"/><text fill="#000000" font-family="sans-serif" font-size="14" lengthAdjust="spacing" textLength="660.2559" x="349.5" y="339.2285">+createStore(string code, string designation, string address, string openingTime, string closingTime): Store</text></g><!--class Store--><g id="elem_Store"><rect codeLine="20" fill="#F1F1F1" height="156.3477" id="Store" rx="2.5" ry="2.5" style="stroke:#181818;stroke-width:0.5;" width="583.9287" x="1095.5" y="237"/><text fill="#000000" font-family="sans-serif" font-size="14" lengthAdjust="spacing" textLength="33.4619" x="1370.7334" y="257.1074">Store</text><line style="stroke:#181818;stroke-width:0.5;" x1="1096.5" x2="1678.4287" y1="265.6211" y2="265.6211"/><text fill="#000000" font-family="sans-serif" font-size="14" lengthAdjust="spacing" textLength="35.0205" x="1101.5" y="284.7285">-code</text><text fill="#000000" font-family="sans-serif" font-size="14" lengthAdjust="spacing" textLength="76.2754" x="1101.5" y="303.3496">-designation</text><text fill="#000000" font-family="sans-serif" font-size="14" lengthAdjust="spacing" textLength="54.4688" x="1101.5" y="321.9707">-address</text><text fill="#000000" font-family="sans-serif" font-size="14" lengthAdjust="spacing" textLength="85.5996" x="1101.5" y="340.5918">-openingTime</text><text fill="#000000" font-family="sans-serif" font-size="14" lengthAdjust="spacing" textLength="79.3516" x="1101.5" y="359.2129">-closingTime</text><line style="stroke:#181818;stroke-width:0.5;" x1="1096.5" x2="1678.4287" y1="366.7266" y2="366.7266"/><text fill="#000000" font-family="sans-serif" font-size="14" lengthAdjust="spacing" textLength="571.9287" x="1101.5" y="385.834">Store(string code, string designation, string address, string openingTime, string closingTime)</text></g><!--link Company to StoreContainer--><g id="link_Company_StoreContainer"><path codeLine="29" d="M252.25,315 C280.19,315 305.19,315 337.36,315 " fill="none" id="Company-to-StoreContainer" style="stroke:#181818;stroke-width:1.0;"/><polygon fill="#181818" points="343.36,315,334.36,311,338.36,315,334.36,319,343.36,315" style="stroke:#181818;stroke-width:1.0;"/><text fill="#000000" font-family="sans-serif" font-size="13" lengthAdjust="spacing" textLength="55.6372" x="270.25" y="308.0283">maintains</text><text fill="#000000" font-family="sans-serif" font-size="13" lengthAdjust="spacing" textLength="7.23" x="259.9482" y="311.5118">1</text><text fill="#000000" font-family="sans-serif" font-size="13" lengthAdjust="spacing" textLength="7.23" x="328.3994" y="311.8297">1</text></g><!--link StoreContainer to Store--><g id="link_StoreContainer_Store"><path codeLine="30" d="M1015.62,315 C1042.3,315 1063.12,315 1089.46,315 " fill="none" id="StoreContainer-to-Store" style="stroke:#181818;stroke-width:1.0;"/><polygon fill="#181818" points="1095.46,315,1086.46,311,1090.46,315,1086.46,319,1095.46,315" style="stroke:#181818;stroke-width:1.0;"/><text fill="#000000" font-family="sans-serif" font-size="13" lengthAdjust="spacing" textLength="43.3481" x="1034" y="308.0283">records</text><text fill="#000000" font-family="sans-serif" font-size="13" lengthAdjust="spacing" textLength="7.23" x="1023.5795" y="311.8297">1</text><text fill="#000000" font-family="sans-serif" font-size="13" lengthAdjust="spacing" textLength="19.5127" x="1067.5167" y="329.2798">0..*</text></g><!--link RegisterStoreView to RegisterStoreController--><g id="link_RegisterStoreView_RegisterStoreController"><path codeLine="32" d="M679.5,52.02 C679.5,69.18 679.5,87.44 679.5,106.67 " fill="none" id="RegisterStoreView-to-RegisterStoreController" style="stroke:#181818;stroke-width:1.0;stroke-dasharray:7.0,7.0;"/><polygon fill="#181818" points="679.5,112.67,683.5,103.67,679.5,107.67,675.5,103.67,679.5,112.67" style="stroke:#181818;stroke-width:1.0;"/></g><!--link RegisterStoreController to Company--><g id="link_RegisterStoreController_Company"><path codeLine="33" d="M545.6,176.04 C478.9,192.28 397.35,213.69 325.5,237 C283.77,250.54 243.6419,266.0249 206.8919,281.0849 " fill="none" id="RegisterStoreController-to-Company" style="stroke:#181818;stroke-width:1.0;stroke-dasharray:7.0,7.0;"/><polygon fill="#181818" points="201.34,283.36,211.1846,283.6485,205.9666,281.464,208.1511,276.246,201.34,283.36" style="stroke:#181818;stroke-width:1.0;"/></g><!--link RegisterStoreController to StoreContainer--><g id="link_RegisterStoreController_StoreContainer"><path codeLine="34" d="M679.5,176.01 C679.5,206.46 679.5,246.97 679.5,277.43 " fill="none" id="RegisterStoreController-to-StoreContainer" style="stroke:#181818;stroke-width:1.0;stroke-dasharray:7.0,7.0;"/><polygon fill="#181818" points="679.5,283.43,683.5,274.43,679.5,278.43,675.5,274.43,679.5,283.43" style="stroke:#181818;stroke-width:1.0;"/></g><!--link RegisterStoreController to Store--><g id="link_RegisterStoreController_Store"><path codeLine="35" d="M807.71,176.01 C888.11,195.15 989.333,219.2411 1089.563,243.0911 " fill="none" id="RegisterStoreController-to-Store" style="stroke:#181818;stroke-width:1.0;stroke-dasharray:7.0,7.0;"/><polygon fill="#181818" points="1095.4,244.48,1087.5704,238.5052,1090.5358,243.3226,1085.7185,246.2879,1095.4,244.48" style="stroke:#181818;stroke-width:1.0;"/></g><!--SRC=[jL9DJyCm3BtdLqIxC3xQZMiFaz1EN1dY7XAhiqYJolQ4OEA_axLHkmu6f-MI-DalxzdorLQavMgnQBq9icjyQMEpiDum5mvDJQPHQeiEj4Mo7XI_OMXDWdLNz212-BeJUBGnRF0Jz5AfBgEVe4OMe8r4WXU4z_tNhwbr34BHUw2zqkdSqd5spaaWrDf61tSw1muOws04OnWmunm1yn375aAwdx4PUTP7pjXrbLpmpeiQNArZqvhmaLtK88CzWm5edYXJPAHEyVo39J02b-wY-__4IM-WEAZrhoEf7iWwVN0aaecZGWTSjeU3-JnxFRkVwOAmtagnweBfP2lTfFlmPZNDd32NPNcJoPKci94SA_LZ9NLPhivjepg3Tvpizy-QasNvjrHz0m00]--></g></svg>