<svg xmlns="http://www.w3.org/2000/svg" xmlns:xlink="http://www.w3.org/1999/xlink" contentStyleType="text/css" height="1336px" preserveAspectRatio="none" style="width:855px;height:1336px;background:#FFFFFF;" version="1.1" viewBox="0 0 855 1336" width="855px" zoomAndPan="magnify"><title>US32: Class Diagram</title><defs/><g><text fill="#000000" font-family="sans-serif" font-size="14" font-weight="bold" lengthAdjust="spacing" textLength="140.8408" x="350.2378" y="25.1074">US32: Class Diagram</text><!--class PurchaseOfferView--><g id="elem_PurchaseOfferView"><rect codeLine="9" fill="#F1F1F1" height="44.6211" id="PurchaseOfferView" rx="2.5" ry="2.5" style="stroke:#181818;stroke-width:0.5;" width="126.6064" x="435.5" y="46.6211"/><text fill="#000000" font-family="sans-serif" font-size="14" lengthAdjust="spacing" textLength="120.6064" x="438.5" y="66.7285">PurchaseOfferView</text><line style="stroke:#181818;stroke-width:0.5;" x1="436.5" x2="561.1064" y1="75.2422" y2="75.2422"/><line style="stroke:#181818;stroke-width:0.5;" x1="436.5" x2="561.1064" y1="83.2422" y2="83.2422"/></g><!--class PurchaseOfferController--><g id="elem_PurchaseOfferController"><rect codeLine="12" fill="#F1F1F1" height="81.8633" id="PurchaseOfferController" rx="2.5" ry="2.5" style="stroke:#181818;stroke-width:0.5;" width="195.2646" x="401.5" y="152.6211"/><text fill="#000000" font-family="sans-serif" font-size="14" lengthAdjust="spacing" textLength="150.9512" x="423.6567" y="172.7285">PurchaseOfferController</text><line style="stroke:#181818;stroke-width:0.5;" x1="402.5" x2="595.7646" y1="181.2422" y2="181.2422"/><line style="stroke:#181818;stroke-width:0.5;" x1="402.5" x2="595.7646" y1="189.2422" y2="189.2422"/><text fill="#000000" font-family="sans-serif" font-size="14" lengthAdjust="spacing" textLength="183.2646" x="407.5" y="208.3496">+getAdvByCode(code: string)</text><text fill="#000000" font-family="sans-serif" font-size="14" lengthAdjust="spacing" textLength="155.2373" x="407.5" y="226.9707">+createOffer(value: float)</text></g><!--class Company--><g id="elem_Company"><rect codeLine="17" fill="#F1F1F1" height="81.8633" id="Company" rx="2.5" ry="2.5" style="stroke:#181818;stroke-width:0.5;" width="185.9063" x="406" y="295.6211"/><text fill="#000000" font-family="sans-serif" font-size="14" lengthAdjust="spacing" textLength="59.917" x="468.9946" y="315.7285">Company</text><line style="stroke:#181818;stroke-width:0.5;" x1="407" x2="590.9063" y1="324.2422" y2="324.2422"/><line style="stroke:#181818;stroke-width:0.5;" x1="407" x2="590.9063" y1="332.2422" y2="332.2422"/><text fill="#000000" font-family="sans-serif" font-size="14" lengthAdjust="spacing" textLength="173.127" x="412" y="351.3496">+getAdvertisementService()</text><text fill="#000000" font-family="sans-serif" font-size="14" lengthAdjust="spacing" textLength="173.9063" x="412" y="369.9707">+getPurchaseOfferService()</text></g><!--class RepositoryFactory--><g id="elem_RepositoryFactory"><rect codeLine="22" fill="#F1F1F1" height="97.8242" id="RepositoryFactory" rx="2.5" ry="2.5" style="stroke:#181818;stroke-width:0.5;" width="206.1406" x="396" y="449.1211"/><text fill="#000000" font-family="sans-serif" font-size="12" font-style="italic" lengthAdjust="spacing" textLength="59.373" x="469.3838" y="467.0703">&#171;interface&#187;</text><text fill="#000000" font-family="sans-serif" font-size="14" font-style="italic" lengthAdjust="spacing" textLength="113.5928" x="442.2739" y="485.1895">RepositoryFactory</text><line style="stroke:#181818;stroke-width:0.5;" x1="397" x2="601.1406" y1="493.7031" y2="493.7031"/><line style="stroke:#181818;stroke-width:0.5;" x1="397" x2="601.1406" y1="501.7031" y2="501.7031"/><text fill="#000000" font-family="sans-serif" font-size="14" lengthAdjust="spacing" textLength="193.3613" x="402" y="520.8105">+getAdvertisementRepository()</text><text fill="#000000" font-family="sans-serif" font-size="14" lengthAdjust="spacing" textLength="194.1406" x="402" y="539.4316">+getPurchaseOfferRepository()</text></g><!--class AdvertisementRepository--><g id="elem_AdvertisementRepository"><rect codeLine="27" fill="#F1F1F1" height="79.2031" id="AdvertisementRepository" rx="2.5" ry="2.5" style="stroke:#181818;stroke-width:0.5;" width="162.3994" x="440" y="618.6211"/><text fill="#000000" font-family="sans-serif" font-size="12" font-style="italic" lengthAdjust="spacing" textLength="59.373" x="491.5132" y="636.5703">&#171;interface&#187;</text><text fill="#000000" font-family="sans-serif" font-size="14" font-style="italic" lengthAdjust="spacing" textLength="156.3994" x="443" y="654.6895">AdvertisementRepository</text><line style="stroke:#181818;stroke-width:0.5;" x1="441" x2="601.3994" y1="663.2031" y2="663.2031"/><line style="stroke:#181818;stroke-width:0.5;" x1="441" x2="601.3994" y1="671.2031" y2="671.2031"/><text fill="#000000" font-family="sans-serif" font-size="14" lengthAdjust="spacing" textLength="137.3477" x="446" y="690.3105">+getById(code: string)</text></g><!--class AdvertisementService--><g id="elem_AdvertisementService"><rect codeLine="31" fill="#F1F1F1" height="81.8633" id="AdvertisementService" rx="2.5" ry="2.5" style="stroke:#181818;stroke-width:0.5;" width="210.8164" x="637.5" y="457.1211"/><text fill="#000000" font-family="sans-serif" font-size="14" lengthAdjust="spacing" textLength="136.165" x="674.8257" y="477.2285">AdvertisementService</text><line style="stroke:#181818;stroke-width:0.5;" x1="638.5" x2="847.3164" y1="485.7422" y2="485.7422"/><line style="stroke:#181818;stroke-width:0.5;" x1="638.5" x2="847.3164" y1="493.7422" y2="493.7422"/><text fill="#000000" font-family="sans-serif" font-size="14" lengthAdjust="spacing" textLength="112.4512" x="643.5" y="512.8496">+create(advRepo)</text><text fill="#000000" font-family="sans-serif" font-size="14" lengthAdjust="spacing" textLength="198.8164" x="643.5" y="531.4707">+getAdvertisement(code: string)</text></g><!--class PurchaseOfferService--><g id="elem_PurchaseOfferService"><rect codeLine="36" fill="#F1F1F1" height="119.1055" id="PurchaseOfferService" rx="2.5" ry="2.5" style="stroke:#181818;stroke-width:0.5;" width="353.9951" x="7" y="438.6211"/><text fill="#000000" font-family="sans-serif" font-size="14" lengthAdjust="spacing" textLength="136.9443" x="115.5254" y="458.7285">PurchaseOfferService</text><line style="stroke:#181818;stroke-width:0.5;" x1="8" x2="359.9951" y1="467.2422" y2="467.2422"/><line style="stroke:#181818;stroke-width:0.5;" x1="8" x2="359.9951" y1="475.2422" y2="475.2422"/><text fill="#000000" font-family="sans-serif" font-size="14" lengthAdjust="spacing" textLength="173.9268" x="13" y="494.3496">+create(purchaseOfferRepo</text><text fill="#000000" font-family="sans-serif" font-size="14" lengthAdjust="spacing" textLength="154.4648" x="13" y="512.9707">+validate(purchaseOffer)</text><text fill="#000000" font-family="sans-serif" font-size="14" lengthAdjust="spacing" textLength="341.9951" x="13" y="531.5918">+createPurchaseOffer(value: float, adv: Advertisement)</text><text fill="#000000" font-family="sans-serif" font-size="14" lengthAdjust="spacing" textLength="135.7822" x="13" y="550.2129">+save(purchaseOffer)</text></g><!--class PurchaseOffer--><g id="elem_PurchaseOffer"><rect codeLine="43" fill="#F1F1F1" height="100.4844" id="PurchaseOffer" rx="2.5" ry="2.5" style="stroke:#181818;stroke-width:0.5;" width="290.5781" x="159.5" y="838.6211"/><text fill="#000000" font-family="sans-serif" font-size="14" lengthAdjust="spacing" textLength="90.2617" x="259.6582" y="858.7285">PurchaseOffer</text><line style="stroke:#181818;stroke-width:0.5;" x1="160.5" x2="449.0781" y1="867.2422" y2="867.2422"/><text fill="#000000" font-family="sans-serif" font-size="14" lengthAdjust="spacing" textLength="72.3721" x="165.5" y="886.3496">-value: float</text><text fill="#000000" font-family="sans-serif" font-size="14" lengthAdjust="spacing" textLength="278.5781" x="165.5" y="904.9707">-&lt;shared_ptr&gt;Advertisement : Advertisement</text><line style="stroke:#181818;stroke-width:0.5;" x1="160.5" x2="449.0781" y1="912.4844" y2="912.4844"/><text fill="#000000" font-family="sans-serif" font-size="14" lengthAdjust="spacing" textLength="247.8438" x="165.5" y="931.5918">+create(value: float,adv: Advertisement)</text></g><!--class PurchaseOfferRepository--><g id="elem_PurchaseOfferRepository"><rect codeLine="49" fill="#F1F1F1" height="79.2031" id="PurchaseOfferRepository" rx="2.5" ry="2.5" style="stroke:#181818;stroke-width:0.5;" width="163.1787" x="237.5" y="618.6211"/><text fill="#000000" font-family="sans-serif" font-size="12" font-style="italic" lengthAdjust="spacing" textLength="59.373" x="289.4028" y="636.5703">&#171;interface&#187;</text><text fill="#000000" font-family="sans-serif" font-size="14" font-style="italic" lengthAdjust="spacing" textLength="157.1787" x="240.5" y="654.6895">PurchaseOfferRepository</text><line style="stroke:#181818;stroke-width:0.5;" x1="238.5" x2="399.6787" y1="663.2031" y2="663.2031"/><line style="stroke:#181818;stroke-width:0.5;" x1="238.5" x2="399.6787" y1="671.2031" y2="671.2031"/><text fill="#000000" font-family="sans-serif" font-size="14" lengthAdjust="spacing" textLength="135.7822" x="243.5" y="690.3105">+save(purchaseOffer)</text></g><!--class Advertisement--><g id="elem_Advertisement"><rect codeLine="53" fill="#F1F1F1" height="249.4531" id="Advertisement" rx="2.5" ry="2.5" style="stroke:#181818;stroke-width:0.5;" width="376.1777" x="225" y="1079.6211"/><text fill="#000000" font-family="sans-serif" font-size="14" lengthAdjust="spacing" textLength="89.4824" x="368.3477" y="1099.7285">Advertisement</text><line style="stroke:#181818;stroke-width:0.5;" x1="226" x2="600.1777" y1="1108.2422" y2="1108.2422"/><text fill="#000000" font-family="sans-serif" font-size="14" lengthAdjust="spacing" textLength="126.0479" x="231" y="1127.3496">-typeProperty: string</text><text fill="#000000" font-family="sans-serif" font-size="14" lengthAdjust="spacing" textLength="129.9443" x="231" y="1145.9707">-typeBusiness: string</text><text fill="#000000" font-family="sans-serif" font-size="14" lengthAdjust="spacing" textLength="65.3584" x="231" y="1164.5918">-price:float</text><text fill="#000000" font-family="sans-serif" font-size="14" lengthAdjust="spacing" textLength="112.8203" x="231" y="1183.2129">-property:Property</text><text fill="#000000" font-family="sans-serif" font-size="14" lengthAdjust="spacing" textLength="77.0273" x="231" y="1201.834">-client:Client</text><text fill="#000000" font-family="sans-serif" font-size="14" lengthAdjust="spacing" textLength="80.1719" x="231" y="1220.4551">-agent:Agent</text><text fill="#000000" font-family="sans-serif" font-size="14" lengthAdjust="spacing" textLength="77.041" x="231" y="1239.0762">-isSold: bool</text><text fill="#000000" font-family="sans-serif" font-size="14" lengthAdjust="spacing" textLength="90.2617" x="231" y="1257.6973">-isVisible: bool</text><text fill="#000000" font-family="sans-serif" font-size="14" lengthAdjust="spacing" textLength="101.1445" x="231" y="1276.3184">-comission: float</text><line style="stroke:#181818;stroke-width:0.5;" x1="226" x2="600.1777" y1="1283.832" y2="1283.832"/><text fill="#000000" font-family="sans-serif" font-size="14" lengthAdjust="spacing" textLength="352.4814" x="231" y="1302.9395">Advertisement(typeProperty: string, typeBusiness: string,</text><text fill="#000000" font-family="sans-serif" font-size="14" lengthAdjust="spacing" textLength="360.2881" x="234.8896" y="1321.5605">price: float, property: Property, client: Client, agent: Agent)</text></g><!--link PurchaseOfferView to PurchaseOfferController--><g id="link_PurchaseOfferView_PurchaseOfferController"><path codeLine="75" d="M499,91.7411 C499,108.5011 499,126.1911 499,146.4111 " fill="none" id="PurchaseOfferView-to-PurchaseOfferController" style="stroke:#181818;stroke-width:1.0;stroke-dasharray:7.0,7.0;"/><polygon fill="#181818" points="499,152.4111,503,143.4111,499,147.4111,495,143.4111,499,152.4111" style="stroke:#181818;stroke-width:1.0;"/></g><!--link PurchaseOfferController to Company--><g id="link_PurchaseOfferController_Company"><path codeLine="76" d="M499,234.6511 C499,253.7011 499,270.4311 499,289.4911 " fill="none" id="PurchaseOfferController-to-Company" style="stroke:#181818;stroke-width:1.0;stroke-dasharray:7.0,7.0;"/><polygon fill="#181818" points="499,295.4911,503,286.4911,499,290.4911,495,286.4911,499,295.4911" style="stroke:#181818;stroke-width:1.0;"/></g><!--link PurchaseOfferController to AdvertisementService--><g id="link_PurchaseOfferController_AdvertisementService"><path codeLine="77" d="M548.22,234.7011 C568.46,252.3411 591.45,273.9511 610,295.6211 C654.29,347.3611 692.9262,409.4229 717.4462,451.6329 " fill="none" id="PurchaseOfferController-to-AdvertisementService" style="stroke:#181818;stroke-width:1.0;stroke-dasharray:7.0,7.0;"/><polygon fill="#181818" points="720.46,456.8211,719.398,447.0297,717.9485,452.4976,712.4805,451.0481,720.46,456.8211" style="stroke:#181818;stroke-width:1.0;"/></g><!--link Company to RepositoryFactory--><g id="link_Company_RepositoryFactory"><path codeLine="78" d="M499,377.8711 C499,399.4611 499,420.2311 499,442.9311 " fill="none" id="Company-to-RepositoryFactory" style="stroke:#181818;stroke-width:1.0;stroke-dasharray:7.0,7.0;"/><polygon fill="#181818" points="499,448.9311,503,439.9311,499,443.9311,495,439.9311,499,448.9311" style="stroke:#181818;stroke-width:1.0;"/></g><!--link Company to AdvertisementService--><g id="link_Company_AdvertisementService"><path codeLine="79" d="M560.26,377.6611 C597.38,401.9311 639.5677,429.5083 676.6977,453.7783 " fill="none" id="Company-to-AdvertisementService" style="stroke:#181818;stroke-width:1.0;stroke-dasharray:7.0,7.0;"/><polygon fill="#181818" points="681.72,457.0611,676.3751,448.7887,677.5348,454.3254,671.9981,455.4851,681.72,457.0611" style="stroke:#181818;stroke-width:1.0;"/></g><!--link AdvertisementService to AdvertisementRepository--><g id="link_AdvertisementService_AdvertisementRepository"><path codeLine="80" d="M686.69,539.1911 C652.52,563.5111 614.0285,590.9123 580.2185,614.9723 " fill="none" id="AdvertisementService-to-AdvertisementRepository" style="stroke:#181818;stroke-width:1.0;stroke-dasharray:7.0,7.0;"/><polygon fill="#181818" points="575.33,618.4511,584.982,616.4919,579.4038,615.5521,580.3436,609.9739,575.33,618.4511" style="stroke:#181818;stroke-width:1.0;"/></g><!--link Company to PurchaseOfferService--><g id="link_Company_PurchaseOfferService"><path codeLine="81" d="M419.92,377.6611 C383.56,396.0711 345.0731,415.5611 305.0931,435.8011 " fill="none" id="Company-to-PurchaseOfferService" style="stroke:#181818;stroke-width:1.0;stroke-dasharray:7.0,7.0;"/><polygon fill="#181818" points="299.74,438.5111,309.5763,438.0148,304.2009,436.2527,305.963,430.8773,299.74,438.5111" style="stroke:#181818;stroke-width:1.0;"/></g><!--link PurchaseOfferController to PurchaseOfferService--><g id="link_PurchaseOfferController_PurchaseOfferService"><path codeLine="82" d="M454.52,234.8211 C434.37,253.2011 410.33,275.3511 389,295.6211 C339.07,343.0511 287.6541,393.67 246.9441,434.16 " fill="none" id="PurchaseOfferController-to-PurchaseOfferService" style="stroke:#181818;stroke-width:1.0;stroke-dasharray:7.0,7.0;"/><polygon fill="#181818" points="242.69,438.3911,251.8919,434.8805,246.2351,434.8652,246.2504,429.2083,242.69,438.3911" style="stroke:#181818;stroke-width:1.0;"/></g><!--link PurchaseOfferService to PurchaseOffer--><g id="link_PurchaseOfferService_PurchaseOffer"><path codeLine="83" d="M190.85,557.7711 C196.44,597.7611 205.77,651.6111 220,697.6211 C235.33,747.1611 257.4893,795.4982 276.3693,833.1282 " fill="none" id="PurchaseOfferService-to-PurchaseOffer" style="stroke:#181818;stroke-width:1.0;stroke-dasharray:7.0,7.0;"/><polygon fill="#181818" points="279.06,838.4911,278.5992,828.653,276.8178,834.022,271.4487,832.2406,279.06,838.4911" style="stroke:#181818;stroke-width:1.0;"/></g><!--link PurchaseOfferService to PurchaseOfferRepository--><g id="link_PurchaseOfferService_PurchaseOfferRepository"><path codeLine="84" d="M234.27,557.9511 C251.51,578.1311 266.4629,595.629 281.9929,613.809 " fill="none" id="PurchaseOfferService-to-PurchaseOfferRepository" style="stroke:#181818;stroke-width:1.0;stroke-dasharray:7.0,7.0;"/><polygon fill="#181818" points="285.89,618.3711,283.0857,608.9299,282.6424,614.5694,277.003,614.126,285.89,618.3711" style="stroke:#181818;stroke-width:1.0;"/></g><!--link RepositoryFactory to AdvertisementRepository--><g id="link_RepositoryFactory_AdvertisementRepository"><path codeLine="85" d="M505.72,547.3811 C508.89,570.1611 511.8032,591.0383 514.7832,612.4583 " fill="none" id="RepositoryFactory-to-AdvertisementRepository" style="stroke:#181818;stroke-width:1.0;stroke-dasharray:7.0,7.0;"/><polygon fill="#181818" points="515.61,618.4011,518.3317,608.9358,514.921,613.4488,510.408,610.0381,515.61,618.4011" style="stroke:#181818;stroke-width:1.0;"/></g><!--link RepositoryFactory to PurchaseOfferRepository--><g id="link_RepositoryFactory_PurchaseOfferRepository"><path codeLine="86" d="M444.02,547.3811 C418.07,570.1611 392.019,593.0227 367.619,614.4427 " fill="none" id="RepositoryFactory-to-PurchaseOfferRepository" style="stroke:#181818;stroke-width:1.0;stroke-dasharray:7.0,7.0;"/><polygon fill="#181818" points="363.11,618.4011,372.5125,615.4696,366.8675,615.1025,367.2347,609.4575,363.11,618.4011" style="stroke:#181818;stroke-width:1.0;"/></g><!--link PurchaseOfferRepository to PurchaseOffer--><g id="link_PurchaseOfferRepository_PurchaseOffer"><path codeLine="87" d="M316.64,697.6211 C314.26,736.4211 310.9577,790.4224 308.3677,832.6024 " fill="none" id="PurchaseOfferRepository-to-PurchaseOffer" style="stroke:#181818;stroke-width:1.0;"/><polygon fill="#181818" points="308,838.5911,312.5441,829.8532,308.3064,833.6005,304.5591,829.3629,308,838.5911" style="stroke:#181818;stroke-width:1.0;"/><polygon fill="#000000" points="316.6942,773.2572,320.1809,764.4089,314.314,764.0493,316.6942,773.2572" style="stroke:#000000;stroke-width:1.0;"/><text fill="#000000" font-family="sans-serif" font-size="13" lengthAdjust="spacing" textLength="20.96" x="326" y="773.6494">has</text><text fill="#000000" font-family="sans-serif" font-size="13" lengthAdjust="spacing" textLength="7.23" x="308.6372" y="719.907">1</text><text fill="#000000" font-family="sans-serif" font-size="13" lengthAdjust="spacing" textLength="19.5127" x="288.1516" y="827.375">1..*</text></g><!--link PurchaseOffer to Advertisement--><g id="link_PurchaseOffer_Advertisement"><path codeLine="88" d="M321.99,938.9511 C334.97,976.6311 351.4952,1024.5885 368.4152,1073.6885 " fill="none" id="PurchaseOffer-to-Advertisement" style="stroke:#181818;stroke-width:1.0;"/><polygon fill="#181818" points="370.37,1079.3611,371.2195,1069.5489,368.741,1074.6339,363.656,1072.1554,370.37,1079.3611" style="stroke:#181818;stroke-width:1.0;"/><polygon fill="#000000" points="352.3712,1004.5393,352.5391,1014.0484,358.0964,1012.1336,352.3712,1004.5393" style="stroke:#000000;stroke-width:1.0;"/><text fill="#000000" font-family="sans-serif" font-size="13" lengthAdjust="spacing" textLength="20.96" x="363" y="1014.6494">has</text><text fill="#000000" font-family="sans-serif" font-size="13" lengthAdjust="spacing" textLength="19.5127" x="304.109" y="961.2388">0..*</text><text fill="#000000" font-family="sans-serif" font-size="13" lengthAdjust="spacing" textLength="7.23" x="360.5605" y="1068.2639">1</text></g><!--link AdvertisementRepository to Advertisement--><g id="link_AdvertisementRepository_Advertisement"><path codeLine="89" d="M521,697.8611 C521,718.4311 521,744.1511 521,767.1211 C521,767.1211 521,767.1211 521,1010.1211 C521,1033.9311 517.0635,1052.0192 507.4535,1074.1092 " fill="none" id="AdvertisementRepository-to-Advertisement" style="stroke:#181818;stroke-width:1.0;"/><polygon fill="#181818" points="505.06,1079.6111,512.3182,1072.9539,507.0546,1075.0262,504.9824,1069.7625,505.06,1079.6111" style="stroke:#181818;stroke-width:1.0;"/><polygon fill="#000000" points="525.8201,893.7634,529.0826,884.8299,523.2085,884.6184,525.8201,893.7634" style="stroke:#000000;stroke-width:1.0;"/><text fill="#000000" font-family="sans-serif" font-size="13" lengthAdjust="spacing" textLength="20.96" x="535" y="894.1494">has</text><text fill="#000000" font-family="sans-serif" font-size="13" lengthAdjust="spacing" textLength="7.23" x="513.4063" y="719.8864">1</text><text fill="#000000" font-family="sans-serif" font-size="13" lengthAdjust="spacing" textLength="19.5127" x="491.1012" y="1068.5292">0..*</text></g><!--SRC=[ZLHDZzem4BtxLuou50g1RNkBK2IWghIdhegwfvKgumnWrTYHRQXIrFzUuto0YKER0qGpyzwyvt7ctTxQmgIpMI6ejCU3c39rc351ZKboJdUQ7WZPyno1SSq44lEJouAwCFYYXRMQRuuMdvcIQ_uRuOaGowr0-Bx-z365rQKAFZTKnAFWvQZPdXhykjsYVkNuwqp-H7Ch9QrMGg0-a_4ExI8_BSkLod78t4yAnhMNkn4PCutKLfZXYOgZoss5edPq9LwfGq5bsHAXjjpW0QLTepvnXiEHJmK2hYd7mwL5lQKCuHiMod2hTFc5iiiVpETjDiiYFQw8M9iW6tJg8OdrMvRF-TsvjEPZVi_DiGrfVhfGZxgo-_XYXtJbA-wzaR4R2iyxkNPo0LymmGauTMbemC4CFNMuukhE9Bdb8ydSxAd6_4TXTHRGmbsRra-W9oOd65dFP3iZUsWX57OcaDYom1Uj2XSkcuaGS8_FB8-6IpGcp1JQpIMjVDU1cg1Xgi9CSDScNVc_AaHtbyXYrmQuMIkHfx1HIZIHLsxuHk1jq2qGRWnNiZdlIpIyKp4d4uYvcBn9g3mqbw4r00t316hrKCbt5yPB1w_T7sdxT1RFT9hrB1pI4tU8UfFqLO0hYNvmf0RwWiuA2R9HU2pOhRuI1uonB_Q1nt-Ntme84lzPTgEpkquVkOfNzt7tVOs33mD8aYHpBzFf-q68Jy6zGXQ2OV3aAptAumE55MPE-ZQsRvZL915avc_eNm00]--></g></svg>