<svg xmlns="http://www.w3.org/2000/svg" xmlns:xlink="http://www.w3.org/1999/xlink" contentStyleType="text/css" height="956.8px" preserveAspectRatio="none" style="width:1952px;height:956px;background:#FFFFFF;" version="1.1" viewBox="0 0 1952 956" width="1952.8px" zoomAndPan="magnify"><title>US32: Place order to purchase/lease property</title><defs/><g><text fill="#000000" font-family="sans-serif" font-size="11.2" font-weight="bold" lengthAdjust="spacing" textLength="242.1398" x="854.7398" y="24.0859">US32: Place order to purchase/lease property</text><rect fill="#FFFFFF" height="777.1438" style="stroke:#181818;stroke-width:0.8000000000000002;" width="8" x="16.7172" y="106.5938"/><rect fill="#FFFFFF" height="310.2578" style="stroke:#181818;stroke-width:0.8000000000000002;" width="8" x="207.298" y="125.2266"/><rect fill="#FFFFFF" height="416.0203" style="stroke:#181818;stroke-width:0.8000000000000002;" width="8" x="207.298" y="460.5172"/><rect fill="#FFFFFF" height="260.1922" style="stroke:#181818;stroke-width:0.8000000000000002;" width="8" x="526.7508" y="150.2594"/><rect fill="#FFFFFF" height="365.9547" style="stroke:#181818;stroke-width:0.8000000000000002;" width="8" x="526.7508" y="485.55"/><rect fill="#FFFFFF" height="109.9953" style="stroke:#181818;stroke-width:0.8000000000000002;" width="8" x="687.8328" y="175.2922"/><rect fill="#FFFFFF" height="109.9953" style="stroke:#181818;stroke-width:0.8000000000000002;" width="8" x="687.8328" y="510.5828"/><rect fill="#FFFFFF" height="25.0328" style="stroke:#181818;stroke-width:0.8000000000000002;" width="8" x="863.9461" y="200.325"/><rect fill="#FFFFFF" height="25.0328" style="stroke:#181818;stroke-width:0.8000000000000002;" width="8" x="863.9461" y="535.6156"/><rect fill="#FFFFFF" height="75.0984" style="stroke:#181818;stroke-width:0.8000000000000002;" width="8" x="1030.6684" y="310.3203"/><rect fill="#FFFFFF" height="25.0328" style="stroke:#181818;stroke-width:0.8000000000000002;" width="8" x="1208.916" y="335.3531"/><rect fill="#FFFFFF" height="180.8609" style="stroke:#181818;stroke-width:0.8000000000000002;" width="8" x="1415.4863" y="645.6109"/><rect fill="#FFFFFF" height="33.8328" style="stroke:#181818;stroke-width:0.8000000000000002;" width="8" x="1419.4863" y="711.9406"/><rect fill="#FFFFFF" height="25.0328" style="stroke:#181818;stroke-width:0.8000000000000002;" width="8" x="1825.5207" y="776.4063"/><line style="stroke:#181818;stroke-width:0.4000000000000001;stroke-dasharray:5.0,5.0;" x1="20" x2="20" y1="98.5938" y2="890.9375"/><line style="stroke:#181818;stroke-width:0.4000000000000001;stroke-dasharray:5.0,5.0;" x1="211.0996" x2="211.0996" y1="98.5938" y2="890.9375"/><line style="stroke:#181818;stroke-width:0.4000000000000001;stroke-dasharray:5.0,5.0;" x1="364.2965" x2="364.2965" y1="98.5938" y2="890.9375"/><line style="stroke:#181818;stroke-width:0.4000000000000001;stroke-dasharray:5.0,5.0;" x1="530.4145" x2="530.4145" y1="98.5938" y2="890.9375"/><line style="stroke:#181818;stroke-width:0.4000000000000001;stroke-dasharray:5.0,5.0;" x1="691.1102" x2="691.1102" y1="98.5938" y2="890.9375"/><line style="stroke:#181818;stroke-width:0.4000000000000001;stroke-dasharray:5.0,5.0;" x1="867.3477" x2="867.3477" y1="98.5938" y2="890.9375"/><line style="stroke:#181818;stroke-width:0.4000000000000001;stroke-dasharray:5.0,5.0;" x1="1034.1445" x2="1034.1445" y1="257.2063" y2="890.9375"/><line style="stroke:#181818;stroke-width:0.4000000000000001;stroke-dasharray:5.0,5.0;" x1="1212.7922" x2="1212.7922" y1="98.5938" y2="890.9375"/><line style="stroke:#181818;stroke-width:0.4000000000000001;stroke-dasharray:5.0,5.0;" x1="1419.4398" x2="1419.4398" y1="592.4969" y2="890.9375"/><line style="stroke:#181818;stroke-width:0.4000000000000001;stroke-dasharray:5.0,5.0;" x1="1623.5328" x2="1623.5328" y1="677.4594" y2="890.9375"/><line style="stroke:#181818;stroke-width:0.4000000000000001;stroke-dasharray:5.0,5.0;" x1="1829.0219" x2="1829.0219" y1="98.5938" y2="890.9375"/><text fill="#000000" font-family="sans-serif" font-size="11.2" lengthAdjust="spacing" textLength="28.6344" x="4" y="95.7828">Client</text><ellipse cx="20.7172" cy="42.4969" fill="#E2E2F0" rx="6.4" ry="6.4" style="stroke:#181818;stroke-width:0.4000000000000001;"/><path d="M20.7172,48.8969 L20.7172,70.4969 M10.3172,55.2969 L31.1172,55.2969 M20.7172,70.4969 L10.3172,82.4969 M20.7172,70.4969 L31.1172,82.4969 " fill="none" style="stroke:#181818;stroke-width:0.4000000000000001;"/><text fill="#000000" font-family="sans-serif" font-size="11.2" lengthAdjust="spacing" textLength="28.6344" x="4" y="902.2234">Client</text><ellipse cx="20.7172" cy="911.8344" fill="#E2E2F0" rx="6.4" ry="6.4" style="stroke:#181818;stroke-width:0.4000000000000001;"/><path d="M20.7172,918.2344 L20.7172,939.8344 M10.3172,924.6344 L31.1172,924.6344 M20.7172,939.8344 L10.3172,951.8344 M20.7172,939.8344 L31.1172,951.8344 " fill="none" style="stroke:#181818;stroke-width:0.4000000000000001;"/><rect fill="#E2E2F0" height="26.0969" rx="2" ry="2" style="stroke:#181818;stroke-width:0.4000000000000001;" width="110.7969" x="155.8996" y="71.6969"/><text fill="#000000" font-family="sans-serif" font-size="11.2" lengthAdjust="spacing" textLength="99.5969" x="161.4996" y="89.3828">:PurchaseOfferView</text><rect fill="#E2E2F0" height="26.0969" rx="2" ry="2" style="stroke:#181818;stroke-width:0.4000000000000001;" width="110.7969" x="155.8996" y="890.1375"/><text fill="#000000" font-family="sans-serif" font-size="11.2" lengthAdjust="spacing" textLength="99.5969" x="161.4996" y="907.8234">:PurchaseOfferView</text><rect fill="#E2E2F0" height="26.0969" rx="2" ry="2" style="stroke:#181818;stroke-width:0.4000000000000001;" width="180.518" x="274.6965" y="71.6969"/><text fill="#000000" font-family="sans-serif" font-size="11.2" lengthAdjust="spacing" textLength="169.318" x="280.2965" y="89.3828">:DisplayListedPropertiesController</text><rect fill="#E2E2F0" height="26.0969" rx="2" ry="2" style="stroke:#181818;stroke-width:0.4000000000000001;" width="180.518" x="274.6965" y="890.1375"/><text fill="#000000" font-family="sans-serif" font-size="11.2" lengthAdjust="spacing" textLength="169.318" x="280.2965" y="907.8234">:DisplayListedPropertiesController</text><rect fill="#E2E2F0" height="26.0969" rx="2" ry="2" style="stroke:#181818;stroke-width:0.4000000000000001;" width="135.0727" x="463.2145" y="71.6969"/><text fill="#000000" font-family="sans-serif" font-size="11.2" lengthAdjust="spacing" textLength="123.8727" x="468.8145" y="89.3828">:PurchaseOfferController</text><rect fill="#E2E2F0" height="26.0969" rx="2" ry="2" style="stroke:#181818;stroke-width:0.4000000000000001;" width="135.0727" x="463.2145" y="890.1375"/><text fill="#000000" font-family="sans-serif" font-size="11.2" lengthAdjust="spacing" textLength="123.8727" x="468.8145" y="907.8234">:PurchaseOfferController</text><rect fill="#E2E2F0" height="26.0969" rx="2" ry="2" style="stroke:#181818;stroke-width:0.4000000000000001;" width="62.2453" x="660.7102" y="71.6969"/><text fill="#000000" font-family="sans-serif" font-size="11.2" lengthAdjust="spacing" textLength="51.0453" x="666.3102" y="89.3828">:Company</text><rect fill="#E2E2F0" height="26.0969" rx="2" ry="2" style="stroke:#181818;stroke-width:0.4000000000000001;" width="62.2453" x="660.7102" y="890.1375"/><text fill="#000000" font-family="sans-serif" font-size="11.2" lengthAdjust="spacing" textLength="51.0453" x="666.3102" y="907.8234">:Company</text><rect fill="#E2E2F0" height="26.0969" rx="2" ry="2" style="stroke:#181818;stroke-width:0.4000000000000001;" width="138.7969" x="798.5477" y="71.6969"/><text fill="#000000" font-family="sans-serif" font-size="11.2" lengthAdjust="spacing" textLength="127.5969" x="804.1477" y="89.3828">factory:RepositoryFactory</text><rect fill="#E2E2F0" height="26.0969" rx="2" ry="2" style="stroke:#181818;stroke-width:0.4000000000000001;" width="138.7969" x="798.5477" y="890.1375"/><text fill="#000000" font-family="sans-serif" font-size="11.2" lengthAdjust="spacing" textLength="127.5969" x="804.1477" y="907.8234">factory:RepositoryFactory</text><rect fill="#E2E2F0" height="26.0969" rx="2" ry="2" style="stroke:#181818;stroke-width:0.4000000000000001;" width="178.6477" x="945.3445" y="890.1375"/><text fill="#000000" font-family="sans-serif" font-size="11.2" lengthAdjust="spacing" textLength="167.4477" x="950.9445" y="907.8234">advService:AdvertisementService</text><rect fill="#E2E2F0" height="26.0969" rx="2" ry="2" style="stroke:#181818;stroke-width:0.4000000000000001;" width="161.8477" x="1131.9922" y="71.6969"/><text fill="#000000" font-family="sans-serif" font-size="11.2" lengthAdjust="spacing" textLength="150.6477" x="1137.5922" y="89.3828">repo:AdvertisementRepository</text><rect fill="#E2E2F0" height="26.0969" rx="2" ry="2" style="stroke:#181818;stroke-width:0.4000000000000001;" width="161.8477" x="1131.9922" y="890.1375"/><text fill="#000000" font-family="sans-serif" font-size="11.2" lengthAdjust="spacing" textLength="150.6477" x="1137.5922" y="907.8234">repo:AdvertisementRepository</text><rect fill="#E2E2F0" height="26.0969" rx="2" ry="2" style="stroke:#181818;stroke-width:0.4000000000000001;" width="235.293" x="1301.8398" y="890.1375"/><text fill="#000000" font-family="sans-serif" font-size="11.2" lengthAdjust="spacing" textLength="224.093" x="1307.4398" y="907.8234">purchaseOfferService: PurchaseOfferService</text><rect fill="#E2E2F0" height="26.0969" rx="2" ry="2" style="stroke:#181818;stroke-width:0.4000000000000001;" width="157.4891" x="1545.1328" y="890.1375"/><text fill="#000000" font-family="sans-serif" font-size="11.2" lengthAdjust="spacing" textLength="146.2891" x="1550.7328" y="907.8234">purchaseOffer:PurchaseOffer</text><rect fill="#E2E2F0" height="26.0969" rx="2" ry="2" style="stroke:#181818;stroke-width:0.4000000000000001;" width="237.7977" x="1710.6219" y="71.6969"/><text fill="#000000" font-family="sans-serif" font-size="11.2" lengthAdjust="spacing" textLength="226.5977" x="1716.2219" y="89.3828">purchaseOfferRepo:PurchaseOfferRepository</text><rect fill="#E2E2F0" height="26.0969" rx="2" ry="2" style="stroke:#181818;stroke-width:0.4000000000000001;" width="237.7977" x="1710.6219" y="890.1375"/><text fill="#000000" font-family="sans-serif" font-size="11.2" lengthAdjust="spacing" textLength="226.5977" x="1716.2219" y="907.8234">purchaseOfferRepo:PurchaseOfferRepository</text><rect fill="#FFFFFF" height="777.1438" style="stroke:#181818;stroke-width:0.8000000000000002;" width="8" x="16.7172" y="106.5938"/><rect fill="#FFFFFF" height="310.2578" style="stroke:#181818;stroke-width:0.8000000000000002;" width="8" x="207.298" y="125.2266"/><rect fill="#FFFFFF" height="416.0203" style="stroke:#181818;stroke-width:0.8000000000000002;" width="8" x="207.298" y="460.5172"/><rect fill="#FFFFFF" height="260.1922" style="stroke:#181818;stroke-width:0.8000000000000002;" width="8" x="526.7508" y="150.2594"/><rect fill="#FFFFFF" height="365.9547" style="stroke:#181818;stroke-width:0.8000000000000002;" width="8" x="526.7508" y="485.55"/><rect fill="#FFFFFF" height="109.9953" style="stroke:#181818;stroke-width:0.8000000000000002;" width="8" x="687.8328" y="175.2922"/><rect fill="#FFFFFF" height="109.9953" style="stroke:#181818;stroke-width:0.8000000000000002;" width="8" x="687.8328" y="510.5828"/><rect fill="#FFFFFF" height="25.0328" style="stroke:#181818;stroke-width:0.8000000000000002;" width="8" x="863.9461" y="200.325"/><rect fill="#FFFFFF" height="25.0328" style="stroke:#181818;stroke-width:0.8000000000000002;" width="8" x="863.9461" y="535.6156"/><rect fill="#FFFFFF" height="75.0984" style="stroke:#181818;stroke-width:0.8000000000000002;" width="8" x="1030.6684" y="310.3203"/><rect fill="#FFFFFF" height="25.0328" style="stroke:#181818;stroke-width:0.8000000000000002;" width="8" x="1208.916" y="335.3531"/><rect fill="#FFFFFF" height="180.8609" style="stroke:#181818;stroke-width:0.8000000000000002;" width="8" x="1415.4863" y="645.6109"/><rect fill="#FFFFFF" height="33.8328" style="stroke:#181818;stroke-width:0.8000000000000002;" width="8" x="1419.4863" y="711.9406"/><rect fill="#FFFFFF" height="25.0328" style="stroke:#181818;stroke-width:0.8000000000000002;" width="8" x="1825.5207" y="776.4063"/><polygon fill="#181818" points="197.698,122.0266,205.698,125.2266,197.698,128.4266,200.898,125.2266" style="stroke:#181818;stroke-width:0.8000000000000002;"/><line style="stroke:#181818;stroke-width:0.8000000000000002;" x1="24.7172" x2="202.498" y1="125.2266" y2="125.2266"/><text fill="#000000" font-family="sans-serif" font-size="10.4" font-weight="bold" lengthAdjust="spacing" textLength="5.784" x="30.3172" y="121.0164">1</text><text fill="#000000" font-family="sans-serif" font-size="10.4" lengthAdjust="spacing" textLength="158.3969" x="39.3012" y="121.0164">selects property to purchase/lease</text><polygon fill="#181818" points="517.1508,147.0594,525.1508,150.2594,517.1508,153.4594,520.3508,150.2594" style="stroke:#181818;stroke-width:0.8000000000000002;"/><line style="stroke:#181818;stroke-width:0.8000000000000002;" x1="215.298" x2="521.9508" y1="150.2594" y2="150.2594"/><text fill="#000000" font-family="sans-serif" font-size="10.4" font-weight="bold" lengthAdjust="spacing" textLength="5.784" x="220.898" y="146.0492">2</text><text fill="#000000" font-family="sans-serif" font-size="10.4" lengthAdjust="spacing" textLength="98.8559" x="229.882" y="146.0492">getAdvByCode(code)</text><polygon fill="#181818" points="678.2328,172.0922,686.2328,175.2922,678.2328,178.4922,681.4328,175.2922" style="stroke:#181818;stroke-width:0.8000000000000002;"/><line style="stroke:#181818;stroke-width:0.8000000000000002;" x1="534.7508" x2="683.0328" y1="175.2922" y2="175.2922"/><text fill="#000000" font-family="sans-serif" font-size="10.4" font-weight="bold" lengthAdjust="spacing" textLength="5.784" x="540.3508" y="171.082">3</text><text fill="#000000" font-family="sans-serif" font-size="10.4" lengthAdjust="spacing" textLength="122.5352" x="549.3348" y="171.082">getAdvertisementService()</text><polygon fill="#181818" points="854.3461,197.125,862.3461,200.325,854.3461,203.525,857.5461,200.325" style="stroke:#181818;stroke-width:0.8000000000000002;"/><line style="stroke:#181818;stroke-width:0.8000000000000002;" x1="695.8328" x2="859.1461" y1="200.325" y2="200.325"/><text fill="#000000" font-family="sans-serif" font-size="10.4" font-weight="bold" lengthAdjust="spacing" textLength="5.784" x="701.4328" y="196.1148">4</text><text fill="#000000" font-family="sans-serif" font-size="10.4" lengthAdjust="spacing" textLength="137.5664" x="710.4168" y="196.1148">getAdvertisementRepository()</text><polygon fill="#181818" points="704.6328,222.1578,696.6328,225.3578,704.6328,228.5578,701.4328,225.3578" style="stroke:#181818;stroke-width:0.8000000000000002;"/><line style="stroke:#181818;stroke-width:0.8000000000000002;stroke-dasharray:2.0,2.0;" x1="699.8328" x2="867.1461" y1="225.3578" y2="225.3578"/><text fill="#000000" font-family="sans-serif" font-size="10.4" font-weight="bold" lengthAdjust="spacing" textLength="5.784" x="709.4328" y="221.1477">5</text><text fill="#000000" font-family="sans-serif" font-size="10.4" lengthAdjust="spacing" textLength="41.6305" x="718.4168" y="221.1477">advRepo</text><polygon fill="#181818" points="935.7445,247.1906,943.7445,250.3906,935.7445,253.5906,938.9445,250.3906" style="stroke:#181818;stroke-width:0.8000000000000002;"/><line style="stroke:#181818;stroke-width:0.8000000000000002;" x1="695.8328" x2="940.5445" y1="250.3906" y2="250.3906"/><text fill="#000000" font-family="sans-serif" font-size="10.4" font-weight="bold" lengthAdjust="spacing" textLength="5.784" x="701.4328" y="246.1805">6</text><text fill="#000000" font-family="sans-serif" font-size="10.4" lengthAdjust="spacing" textLength="77.4617" x="710.4168" y="246.1805">create(advRepo)</text><rect fill="#E2E2F0" height="26.0969" rx="2" ry="2" style="stroke:#181818;stroke-width:0.4000000000000001;" width="178.6477" x="945.3445" y="231.7578"/><text fill="#000000" font-family="sans-serif" font-size="11.2" lengthAdjust="spacing" textLength="167.4477" x="950.9445" y="249.4438">advService:AdvertisementService</text><polygon fill="#181818" points="543.5508,282.0875,535.5508,285.2875,543.5508,288.4875,540.3508,285.2875" style="stroke:#181818;stroke-width:0.8000000000000002;"/><line style="stroke:#181818;stroke-width:0.8000000000000002;stroke-dasharray:2.0,2.0;" x1="538.7508" x2="691.0328" y1="285.2875" y2="285.2875"/><text fill="#000000" font-family="sans-serif" font-size="10.4" font-weight="bold" lengthAdjust="spacing" textLength="5.784" x="548.3508" y="281.0773">7</text><text fill="#000000" font-family="sans-serif" font-size="10.4" lengthAdjust="spacing" textLength="51.4465" x="557.3348" y="281.0773">advService</text><polygon fill="#181818" points="1021.0684,307.1203,1029.0684,310.3203,1021.0684,313.5203,1024.2684,310.3203" style="stroke:#181818;stroke-width:0.8000000000000002;"/><line style="stroke:#181818;stroke-width:0.8000000000000002;" x1="534.7508" x2="1025.8684" y1="310.3203" y2="310.3203"/><text fill="#000000" font-family="sans-serif" font-size="10.4" font-weight="bold" lengthAdjust="spacing" textLength="5.784" x="540.3508" y="306.1102">8</text><text fill="#000000" font-family="sans-serif" font-size="10.4" lengthAdjust="spacing" textLength="110.4086" x="549.3348" y="306.1102">getAdvertisement(code)</text><polygon fill="#181818" points="1199.316,332.1531,1207.316,335.3531,1199.316,338.5531,1202.516,335.3531" style="stroke:#181818;stroke-width:0.8000000000000002;"/><line style="stroke:#181818;stroke-width:0.8000000000000002;" x1="1038.6684" x2="1204.116" y1="335.3531" y2="335.3531"/><text fill="#000000" font-family="sans-serif" font-size="10.4" font-weight="bold" lengthAdjust="spacing" textLength="5.784" x="1044.2684" y="331.143">9</text><text fill="#000000" font-family="sans-serif" font-size="10.4" lengthAdjust="spacing" textLength="64.7461" x="1053.2523" y="331.143">getById(code)</text><polygon fill="#181818" points="1047.4684,357.1859,1039.4684,360.3859,1047.4684,363.5859,1044.2684,360.3859" style="stroke:#181818;stroke-width:0.8000000000000002;"/><line style="stroke:#181818;stroke-width:0.8000000000000002;stroke-dasharray:2.0,2.0;" x1="1042.6684" x2="1212.116" y1="360.3859" y2="360.3859"/><text fill="#000000" font-family="sans-serif" font-size="10.4" font-weight="bold" lengthAdjust="spacing" textLength="11.568" x="1052.2684" y="356.1758">10</text><text fill="#000000" font-family="sans-serif" font-size="10.4" lengthAdjust="spacing" textLength="16.768" x="1067.0363" y="356.1758">adv</text><polygon fill="#181818" points="543.5508,382.2188,535.5508,385.4188,543.5508,388.6188,540.3508,385.4188" style="stroke:#181818;stroke-width:0.8000000000000002;"/><line style="stroke:#181818;stroke-width:0.8000000000000002;stroke-dasharray:2.0,2.0;" x1="538.7508" x2="1033.8684" y1="385.4188" y2="385.4188"/><text fill="#000000" font-family="sans-serif" font-size="10.4" font-weight="bold" lengthAdjust="spacing" textLength="11.568" x="548.3508" y="381.2086">11</text><text fill="#000000" font-family="sans-serif" font-size="10.4" lengthAdjust="spacing" textLength="16.768" x="563.1188" y="381.2086">adv</text><polygon fill="#181818" points="224.098,407.2516,216.098,410.4516,224.098,413.6516,220.898,410.4516" style="stroke:#181818;stroke-width:0.8000000000000002;"/><line style="stroke:#181818;stroke-width:0.8000000000000002;stroke-dasharray:2.0,2.0;" x1="219.298" x2="529.9508" y1="410.4516" y2="410.4516"/><text fill="#000000" font-family="sans-serif" font-size="10.4" font-weight="bold" lengthAdjust="spacing" textLength="11.568" x="228.898" y="406.2414">12</text><text fill="#000000" font-family="sans-serif" font-size="10.4" lengthAdjust="spacing" textLength="10.984" x="243.666" y="406.2414">ok</text><polygon fill="#181818" points="33.5172,432.2844,25.5172,435.4844,33.5172,438.6844,30.3172,435.4844" style="stroke:#181818;stroke-width:0.8000000000000002;"/><line style="stroke:#181818;stroke-width:0.8000000000000002;stroke-dasharray:2.0,2.0;" x1="28.7172" x2="210.498" y1="435.4844" y2="435.4844"/><text fill="#000000" font-family="sans-serif" font-size="10.4" font-weight="bold" lengthAdjust="spacing" textLength="11.568" x="38.3172" y="431.2742">13</text><text fill="#000000" font-family="sans-serif" font-size="10.4" lengthAdjust="spacing" textLength="101.7453" x="53.0852" y="431.2742">asks value of the offer</text><polygon fill="#181818" points="197.698,457.3172,205.698,460.5172,197.698,463.7172,200.898,460.5172" style="stroke:#181818;stroke-width:0.8000000000000002;"/><line style="stroke:#181818;stroke-width:0.8000000000000002;" x1="24.7172" x2="202.498" y1="460.5172" y2="460.5172"/><text fill="#000000" font-family="sans-serif" font-size="10.4" font-weight="bold" lengthAdjust="spacing" textLength="11.568" x="30.3172" y="456.307">14</text><text fill="#000000" font-family="sans-serif" font-size="10.4" lengthAdjust="spacing" textLength="105.2188" x="45.0852" y="456.307">types value of the offer</text><polygon fill="#181818" points="517.1508,482.35,525.1508,485.55,517.1508,488.75,520.3508,485.55" style="stroke:#181818;stroke-width:0.8000000000000002;"/><line style="stroke:#181818;stroke-width:0.8000000000000002;" x1="215.298" x2="521.9508" y1="485.55" y2="485.55"/><text fill="#000000" font-family="sans-serif" font-size="10.4" font-weight="bold" lengthAdjust="spacing" textLength="11.568" x="220.898" y="481.3398">15</text><text fill="#000000" font-family="sans-serif" font-size="10.4" lengthAdjust="spacing" textLength="83.8094" x="235.666" y="481.3398">createOffer(value)</text><polygon fill="#181818" points="678.2328,507.3828,686.2328,510.5828,678.2328,513.7828,681.4328,510.5828" style="stroke:#181818;stroke-width:0.8000000000000002;"/><line style="stroke:#181818;stroke-width:0.8000000000000002;" x1="534.7508" x2="683.0328" y1="510.5828" y2="510.5828"/><text fill="#000000" font-family="sans-serif" font-size="10.4" font-weight="bold" lengthAdjust="spacing" textLength="11.568" x="540.3508" y="506.3727">16</text><text fill="#000000" font-family="sans-serif" font-size="10.4" lengthAdjust="spacing" textLength="123.1141" x="555.1188" y="506.3727">getPurchaseOfferService()</text><polygon fill="#181818" points="854.3461,532.4156,862.3461,535.6156,854.3461,538.8156,857.5461,535.6156" style="stroke:#181818;stroke-width:0.8000000000000002;"/><line style="stroke:#181818;stroke-width:0.8000000000000002;" x1="695.8328" x2="859.1461" y1="535.6156" y2="535.6156"/><text fill="#000000" font-family="sans-serif" font-size="10.4" font-weight="bold" lengthAdjust="spacing" textLength="11.568" x="701.4328" y="531.4055">17</text><text fill="#000000" font-family="sans-serif" font-size="10.4" lengthAdjust="spacing" textLength="138.1453" x="716.2008" y="531.4055">getPurchaseOfferRepository()</text><polygon fill="#181818" points="704.6328,557.4484,696.6328,560.6484,704.6328,563.8484,701.4328,560.6484" style="stroke:#181818;stroke-width:0.8000000000000002;"/><line style="stroke:#181818;stroke-width:0.8000000000000002;stroke-dasharray:2.0,2.0;" x1="699.8328" x2="867.1461" y1="560.6484" y2="560.6484"/><text fill="#000000" font-family="sans-serif" font-size="10.4" font-weight="bold" lengthAdjust="spacing" textLength="11.568" x="709.4328" y="556.4383">18</text><text fill="#000000" font-family="sans-serif" font-size="10.4" lengthAdjust="spacing" textLength="90.7613" x="724.2008" y="556.4383">purchaseOfferRepo</text><polygon fill="#181818" points="1292.2398,582.4813,1300.2398,585.6813,1292.2398,588.8813,1295.4398,585.6813" style="stroke:#181818;stroke-width:0.8000000000000002;"/><line style="stroke:#181818;stroke-width:0.8000000000000002;" x1="695.8328" x2="1297.0398" y1="585.6813" y2="585.6813"/><text fill="#000000" font-family="sans-serif" font-size="10.4" font-weight="bold" lengthAdjust="spacing" textLength="11.568" x="701.4328" y="581.4711">19</text><text fill="#000000" font-family="sans-serif" font-size="10.4" lengthAdjust="spacing" textLength="126.5926" x="716.2008" y="581.4711">create(purchaseOfferRepo)</text><rect fill="#E2E2F0" height="26.0969" rx="2" ry="2" style="stroke:#181818;stroke-width:0.4000000000000001;" width="235.293" x="1301.8398" y="567.0484"/><text fill="#000000" font-family="sans-serif" font-size="11.2" lengthAdjust="spacing" textLength="224.093" x="1307.4398" y="584.7344">purchaseOfferService: PurchaseOfferService</text><polygon fill="#181818" points="543.5508,617.3781,535.5508,620.5781,543.5508,623.7781,540.3508,620.5781" style="stroke:#181818;stroke-width:0.8000000000000002;"/><line style="stroke:#181818;stroke-width:0.8000000000000002;stroke-dasharray:2.0,2.0;" x1="538.7508" x2="691.0328" y1="620.5781" y2="620.5781"/><text fill="#000000" font-family="sans-serif" font-size="10.4" font-weight="bold" lengthAdjust="spacing" textLength="11.568" x="548.3508" y="616.368">20</text><text fill="#000000" font-family="sans-serif" font-size="10.4" lengthAdjust="spacing" textLength="100.5773" x="563.1188" y="616.368">purchaseOfferService</text><polygon fill="#181818" points="1405.8863,642.4109,1413.8863,645.6109,1405.8863,648.8109,1409.0863,645.6109" style="stroke:#181818;stroke-width:0.8000000000000002;"/><line style="stroke:#181818;stroke-width:0.8000000000000002;" x1="534.7508" x2="1410.6863" y1="645.6109" y2="645.6109"/><text fill="#000000" font-family="sans-serif" font-size="10.4" font-weight="bold" lengthAdjust="spacing" textLength="11.568" x="540.3508" y="641.4008">21</text><text fill="#000000" font-family="sans-serif" font-size="10.4" lengthAdjust="spacing" textLength="147.4027" x="555.1188" y="641.4008">createPurchaseOffer(value,adv)</text><polygon fill="#181818" points="1535.5328,667.4438,1543.5328,670.6438,1535.5328,673.8438,1538.7328,670.6438" style="stroke:#181818;stroke-width:0.8000000000000002;"/><line style="stroke:#181818;stroke-width:0.8000000000000002;" x1="1423.4863" x2="1540.3328" y1="670.6438" y2="670.6438"/><text fill="#000000" font-family="sans-serif" font-size="10.4" font-weight="bold" lengthAdjust="spacing" textLength="11.568" x="1429.0863" y="666.4336">22</text><text fill="#000000" font-family="sans-serif" font-size="10.4" lengthAdjust="spacing" textLength="80.3512" x="1443.8543" y="666.4336">create(value,adv)</text><rect fill="#E2E2F0" height="26.0969" rx="2" ry="2" style="stroke:#181818;stroke-width:0.4000000000000001;" width="157.4891" x="1545.1328" y="652.0109"/><text fill="#000000" font-family="sans-serif" font-size="11.2" lengthAdjust="spacing" textLength="146.2891" x="1550.7328" y="669.6969">purchaseOffer:PurchaseOffer</text><line style="stroke:#181818;stroke-width:0.8000000000000002;" x1="1423.4863" x2="1461.0863" y1="701.5406" y2="701.5406"/><line style="stroke:#181818;stroke-width:0.8000000000000002;" x1="1461.0863" x2="1461.0863" y1="701.5406" y2="711.9406"/><line style="stroke:#181818;stroke-width:0.8000000000000002;" x1="1428.2863" x2="1461.0863" y1="711.9406" y2="711.9406"/><polygon fill="#181818" points="1436.2863,708.7406,1428.2863,711.9406,1436.2863,715.1406,1433.0863,711.9406" style="stroke:#181818;stroke-width:0.8000000000000002;"/><text fill="#000000" font-family="sans-serif" font-size="10.4" font-weight="bold" lengthAdjust="spacing" textLength="11.568" x="1433.0863" y="697.3305">23</text><text fill="#000000" font-family="sans-serif" font-size="10.4" lengthAdjust="spacing" textLength="108.6719" x="1447.8543" y="697.3305">validate(purchaseOffer)</text><line style="stroke:#181818;stroke-width:0.8000000000000002;stroke-dasharray:2.0,2.0;" x1="1427.4863" x2="1461.0863" y1="744.9734" y2="744.9734"/><line style="stroke:#181818;stroke-width:0.8000000000000002;stroke-dasharray:2.0,2.0;" x1="1461.0863" x2="1461.0863" y1="744.9734" y2="755.3734"/><line style="stroke:#181818;stroke-width:0.8000000000000002;stroke-dasharray:2.0,2.0;" x1="1423.4863" x2="1461.0863" y1="755.3734" y2="755.3734"/><polygon fill="#181818" points="1431.4863,752.1734,1423.4863,755.3734,1431.4863,758.5734,1428.2863,755.3734" style="stroke:#181818;stroke-width:0.8000000000000002;"/><text fill="#000000" font-family="sans-serif" font-size="10.4" font-weight="bold" lengthAdjust="spacing" textLength="11.568" x="1433.0863" y="740.7633">24</text><text fill="#000000" font-family="sans-serif" font-size="10.4" lengthAdjust="spacing" textLength="10.984" x="1447.8543" y="740.7633">ok</text><polygon fill="#181818" points="1815.9207,773.2063,1823.9207,776.4063,1815.9207,779.6063,1819.1207,776.4063" style="stroke:#181818;stroke-width:0.8000000000000002;"/><line style="stroke:#181818;stroke-width:0.8000000000000002;" x1="1423.4863" x2="1820.7207" y1="776.4063" y2="776.4063"/><text fill="#000000" font-family="sans-serif" font-size="10.4" font-weight="bold" lengthAdjust="spacing" textLength="11.568" x="1429.0863" y="772.1961">25</text><text fill="#000000" font-family="sans-serif" font-size="10.4" lengthAdjust="spacing" textLength="94.7934" x="1443.8543" y="772.1961">save(purchaseOffer)</text><polygon fill="#181818" points="1432.2863,798.2391,1424.2863,801.4391,1432.2863,804.6391,1429.0863,801.4391" style="stroke:#181818;stroke-width:0.8000000000000002;"/><line style="stroke:#181818;stroke-width:0.8000000000000002;stroke-dasharray:2.0,2.0;" x1="1427.4863" x2="1828.7207" y1="801.4391" y2="801.4391"/><text fill="#000000" font-family="sans-serif" font-size="10.4" font-weight="bold" lengthAdjust="spacing" textLength="11.568" x="1437.0863" y="797.2289">26</text><text fill="#000000" font-family="sans-serif" font-size="10.4" lengthAdjust="spacing" textLength="10.984" x="1451.8543" y="797.2289">ok</text><polygon fill="#181818" points="543.5508,823.2719,535.5508,826.4719,543.5508,829.6719,540.3508,826.4719" style="stroke:#181818;stroke-width:0.8000000000000002;"/><line style="stroke:#181818;stroke-width:0.8000000000000002;stroke-dasharray:2.0,2.0;" x1="538.7508" x2="1418.6863" y1="826.4719" y2="826.4719"/><text fill="#000000" font-family="sans-serif" font-size="10.4" font-weight="bold" lengthAdjust="spacing" textLength="11.568" x="548.3508" y="822.2617">27</text><text fill="#000000" font-family="sans-serif" font-size="10.4" lengthAdjust="spacing" textLength="10.984" x="563.1188" y="822.2617">ok</text><polygon fill="#181818" points="224.098,848.3047,216.098,851.5047,224.098,854.7047,220.898,851.5047" style="stroke:#181818;stroke-width:0.8000000000000002;"/><line style="stroke:#181818;stroke-width:0.8000000000000002;stroke-dasharray:2.0,2.0;" x1="219.298" x2="529.9508" y1="851.5047" y2="851.5047"/><text fill="#000000" font-family="sans-serif" font-size="10.4" font-weight="bold" lengthAdjust="spacing" textLength="11.568" x="228.898" y="847.2945">28</text><text fill="#000000" font-family="sans-serif" font-size="10.4" lengthAdjust="spacing" textLength="10.984" x="243.666" y="847.2945">ok</text><polygon fill="#181818" points="33.5172,873.3375,25.5172,876.5375,33.5172,879.7375,30.3172,876.5375" style="stroke:#181818;stroke-width:0.8000000000000002;"/><line style="stroke:#181818;stroke-width:0.8000000000000002;stroke-dasharray:2.0,2.0;" x1="28.7172" x2="210.498" y1="876.5375" y2="876.5375"/><text fill="#000000" font-family="sans-serif" font-size="10.4" font-weight="bold" lengthAdjust="spacing" textLength="11.568" x="38.3172" y="872.3273">29</text><text fill="#000000" font-family="sans-serif" font-size="10.4" lengthAdjust="spacing" textLength="120.8086" x="53.0852" y="872.3273">informs operation success</text><!--SRC=[VLF1Zfim4BtxAwnScbsLfcfl72BjfgeKgLAZhjAxQuQDjGPJsr3nzntR16DWuG1c_6RcpRoP3pTh6vCV3erajMqh-Ochwc3WRmirXwmGx5MpYX0hh0HwVVdw9QSNoJXGfGlGr2hQj9hVc86317pJHgi6jEq9OQrLZ5lHCOlmsl_NRVK7DDvngpJTdQI0skueC_HgqDumRGKN3NAXk_moHFvPbg1_2_WNWESPx9imoBx_8Oo5uXBI2p0dLLkjf0JjtKvMoyzR2LRmC_X9LNZgmtKufuZIbzNdlw1HHhZZzs3nBiwQubdHlO3k18VygUWSRGCLDcGmUg-d4PFwQeoMUiMiOxhmcpesqwBlwUbbnUh3J0qRWT9UUi_4ik7gYARkiqf66_7FE5D-P0Xnd-nuFUVKW0HkpJY3o_4artDsTDBcz1Kijk-vFwa2zXnV3yHTu7MGzevOoB97O81aHyzzZelq4Uf-iabGrDoNCeQ80Zy-vfHhmDBs0ofckhEE8pEmZUvBmaDP4H881suU_joVYm4LRx8qAgQSXfWm2HH2xzMRwosUKGsyD6-6TaoskFabjJVtAMTgsRw1LL3KA7J3wx_tm3MDraPtgf7VX2LoKwN5WCPmqpGJnHOUI-tMDc-e9rd6434X6wh_Y3r_85DiTanW4pxlEgHxZp1HBFZFVEPEg7KQCwueBY7hrgCDFTuETUyLsjyTBb6NIbU6kYLdLgYQcfPpC8Qapty0]--></g></svg>