<svg xmlns="http://www.w3.org/2000/svg" xmlns:xlink="http://www.w3.org/1999/xlink" contentStyleType="text/css" height="712.2px" preserveAspectRatio="none" style="width:975px;height:712px;background:#FFFFFF;" version="1.1" viewBox="0 0 975 712" width="975px" zoomAndPan="magnify"><title>US11: Register a New Agent</title><defs/><g><text fill="#000000" font-family="sans-serif" font-size="8.4" font-weight="bold" lengthAdjust="spacing" textLength="112.4977" x="430.6668" y="18.0645">US11: Register a New Agent</text><rect fill="#FFFFFF" height="577.2363" style="stroke:#181818;stroke-width:0.6;" width="6" x="26.5406" y="79.9453"/><rect fill="#FFFFFF" height="152.1715" style="stroke:#181818;stroke-width:0.6;" width="6" x="161.1952" y="93.9199"/><rect fill="#FFFFFF" height="93.873" style="stroke:#181818;stroke-width:0.6;" width="6" x="161.1952" y="275.2406"/><rect fill="#FFFFFF" height="263.8934" style="stroke:#181818;stroke-width:0.6;" width="6" x="161.1952" y="387.8883"/><rect fill="#FFFFFF" height="93.873" style="stroke:#181818;stroke-width:0.6;" width="6" x="388.6626" y="112.6945"/><rect fill="#FFFFFF" height="56.3238" style="stroke:#181818;stroke-width:0.6;" width="6" x="388.6626" y="294.0152"/><rect fill="#FFFFFF" height="226.3441" style="stroke:#181818;stroke-width:0.6;" width="6" x="388.6626" y="406.6629"/><rect fill="#FFFFFF" height="18.7746" style="stroke:#181818;stroke-width:0.6;" width="6" x="481.302" y="131.4691"/><rect fill="#FFFFFF" height="18.7746" style="stroke:#181818;stroke-width:0.6;" width="6" x="561.5382" y="169.0184"/><rect fill="#FFFFFF" height="18.7746" style="stroke:#181818;stroke-width:0.6;" width="6" x="561.5382" y="312.7898"/><rect fill="#FFFFFF" height="18.7746" style="stroke:#181818;stroke-width:0.6;" width="6" x="643.1751" y="425.4375"/><rect fill="#FFFFFF" height="151.2457" style="stroke:#181818;stroke-width:0.6;" width="6" x="709.6383" y="462.9867"/><rect fill="#FFFFFF" height="25.3746" style="stroke:#181818;stroke-width:0.6;" width="6" x="712.6383" y="512.734"/><rect fill="#FFFFFF" height="25.3746" style="stroke:#181818;stroke-width:0.6;" width="6" x="712.6383" y="565.8832"/><line style="stroke:#181818;stroke-width:0.3;stroke-dasharray:5.0,5.0;" x1="29.4" x2="29.4" y1="73.9453" y2="662.5816"/><line style="stroke:#181818;stroke-width:0.3;stroke-dasharray:5.0,5.0;" x1="163.9099" x2="163.9099" y1="73.9453" y2="662.5816"/><line style="stroke:#181818;stroke-width:0.3;stroke-dasharray:5.0,5.0;" x1="391.2738" x2="391.2738" y1="73.9453" y2="662.5816"/><line style="stroke:#181818;stroke-width:0.3;stroke-dasharray:5.0,5.0;" x1="483.76" x2="483.76" y1="73.9453" y2="662.5816"/><line style="stroke:#181818;stroke-width:0.3;stroke-dasharray:5.0,5.0;" x1="564.0439" x2="564.0439" y1="73.9453" y2="662.5816"/><line style="stroke:#181818;stroke-width:0.3;stroke-dasharray:5.0,5.0;" x1="646.0324" x2="646.0324" y1="73.9453" y2="662.5816"/><line style="stroke:#181818;stroke-width:0.3;stroke-dasharray:5.0,5.0;" x1="712.3178" x2="712.3178" y1="73.9453" y2="662.5816"/><line style="stroke:#181818;stroke-width:0.3;stroke-dasharray:5.0,5.0;" x1="942.9917" x2="942.9917" y1="486.873" y2="662.5816"/><text fill="#000000" font-family="sans-serif" font-size="8.4" lengthAdjust="spacing" textLength="49.4812" x="3" y="71.8371">Administrator</text><ellipse cx="29.5406" cy="31.8727" fill="#E2E2F0" rx="4.8" ry="4.8" style="stroke:#181818;stroke-width:0.3;"/><path d="M29.5406,36.6727 L29.5406,52.8727 M21.7406,41.4727 L37.3406,41.4727 M29.5406,52.8727 L21.7406,61.8727 M29.5406,52.8727 L37.3406,61.8727 " fill="none" style="stroke:#181818;stroke-width:0.3;"/><text fill="#000000" font-family="sans-serif" font-size="8.4" lengthAdjust="spacing" textLength="49.4812" x="3" y="671.0461">Administrator</text><ellipse cx="29.5406" cy="678.2543" fill="#E2E2F0" rx="4.8" ry="4.8" style="stroke:#181818;stroke-width:0.3;"/><path d="M29.5406,683.0543 L29.5406,699.2543 M21.7406,687.8543 L37.3406,687.8543 M29.5406,699.2543 L21.7406,708.2543 M29.5406,699.2543 L37.3406,708.2543 " fill="none" style="stroke:#181818;stroke-width:0.3;"/><rect fill="#E2E2F0" height="19.5727" rx="1.5" ry="1.5" style="stroke:#181818;stroke-width:0.3;" width="82.1707" x="123.1099" y="53.7727"/><text fill="#000000" font-family="sans-serif" font-size="8.4" lengthAdjust="spacing" textLength="73.7707" x="127.3099" y="67.0371">:RegisterAgentView</text><rect fill="#E2E2F0" height="19.5727" rx="1.5" ry="1.5" style="stroke:#181818;stroke-width:0.3;" width="82.1707" x="123.1099" y="661.9816"/><text fill="#000000" font-family="sans-serif" font-size="8.4" lengthAdjust="spacing" textLength="73.7707" x="127.3099" y="675.2461">:RegisterAgentView</text><rect fill="#E2E2F0" height="19.5727" rx="1.5" ry="1.5" style="stroke:#181818;stroke-width:0.3;" width="100.3775" x="341.4738" y="53.7727"/><text fill="#000000" font-family="sans-serif" font-size="8.4" lengthAdjust="spacing" textLength="91.9775" x="345.6738" y="67.0371">:RegisterAgentController</text><rect fill="#E2E2F0" height="19.5727" rx="1.5" ry="1.5" style="stroke:#181818;stroke-width:0.3;" width="100.3775" x="341.4738" y="661.9816"/><text fill="#000000" font-family="sans-serif" font-size="8.4" lengthAdjust="spacing" textLength="91.9775" x="345.6738" y="675.2461">:RegisterAgentController</text><rect fill="#E2E2F0" height="19.5727" rx="1.5" ry="1.5" style="stroke:#181818;stroke-width:0.3;" width="46.684" x="460.96" y="53.7727"/><text fill="#000000" font-family="sans-serif" font-size="8.4" lengthAdjust="spacing" textLength="38.284" x="465.16" y="67.0371">:Company</text><rect fill="#E2E2F0" height="19.5727" rx="1.5" ry="1.5" style="stroke:#181818;stroke-width:0.3;" width="46.684" x="460.96" y="661.9816"/><text fill="#000000" font-family="sans-serif" font-size="8.4" lengthAdjust="spacing" textLength="38.284" x="465.16" y="675.2461">:Company</text><rect fill="#E2E2F0" height="19.5727" rx="1.5" ry="1.5" style="stroke:#181818;stroke-width:0.3;" width="101.7885" x="513.6439" y="53.7727"/><text fill="#000000" font-family="sans-serif" font-size="8.4" lengthAdjust="spacing" textLength="93.3885" x="517.8439" y="67.0371">container:StoreContainer</text><rect fill="#E2E2F0" height="19.5727" rx="1.5" ry="1.5" style="stroke:#181818;stroke-width:0.3;" width="101.7885" x="513.6439" y="661.9816"/><text fill="#000000" font-family="sans-serif" font-size="8.4" lengthAdjust="spacing" textLength="93.3885" x="517.8439" y="675.2461">container:StoreContainer</text><rect fill="#E2E2F0" height="19.5727" rx="1.5" ry="1.5" style="stroke:#181818;stroke-width:0.3;" width="49.4854" x="621.4324" y="53.7727"/><text fill="#000000" font-family="sans-serif" font-size="8.4" lengthAdjust="spacing" textLength="41.0854" x="625.6324" y="67.0371">store:Store</text><rect fill="#E2E2F0" height="19.5727" rx="1.5" ry="1.5" style="stroke:#181818;stroke-width:0.3;" width="49.4854" x="621.4324" y="661.9816"/><text fill="#000000" font-family="sans-serif" font-size="8.4" lengthAdjust="spacing" textLength="41.0854" x="625.6324" y="675.2461">store:Store</text><rect fill="#E2E2F0" height="19.5727" rx="1.5" ry="1.5" style="stroke:#181818;stroke-width:0.3;" width="71.441" x="676.9178" y="53.7727"/><text fill="#000000" font-family="sans-serif" font-size="8.4" lengthAdjust="spacing" textLength="63.041" x="681.1178" y="67.0371">container:Agents</text><rect fill="#E2E2F0" height="19.5727" rx="1.5" ry="1.5" style="stroke:#181818;stroke-width:0.3;" width="71.441" x="676.9178" y="661.9816"/><text fill="#000000" font-family="sans-serif" font-size="8.4" lengthAdjust="spacing" textLength="63.041" x="681.1178" y="675.2461">container:Agents</text><rect fill="#E2E2F0" height="19.5727" rx="1.5" ry="1.5" style="stroke:#181818;stroke-width:0.3;" width="56.0396" x="915.3917" y="661.9816"/><text fill="#000000" font-family="sans-serif" font-size="8.4" lengthAdjust="spacing" textLength="47.6396" x="919.5917" y="675.2461">agent: Agent</text><rect fill="#FFFFFF" height="577.2363" style="stroke:#181818;stroke-width:0.6;" width="6" x="26.5406" y="79.9453"/><rect fill="#FFFFFF" height="152.1715" style="stroke:#181818;stroke-width:0.6;" width="6" x="161.1952" y="93.9199"/><rect fill="#FFFFFF" height="93.873" style="stroke:#181818;stroke-width:0.6;" width="6" x="161.1952" y="275.2406"/><rect fill="#FFFFFF" height="263.8934" style="stroke:#181818;stroke-width:0.6;" width="6" x="161.1952" y="387.8883"/><rect fill="#FFFFFF" height="93.873" style="stroke:#181818;stroke-width:0.6;" width="6" x="388.6626" y="112.6945"/><rect fill="#FFFFFF" height="56.3238" style="stroke:#181818;stroke-width:0.6;" width="6" x="388.6626" y="294.0152"/><rect fill="#FFFFFF" height="226.3441" style="stroke:#181818;stroke-width:0.6;" width="6" x="388.6626" y="406.6629"/><rect fill="#FFFFFF" height="18.7746" style="stroke:#181818;stroke-width:0.6;" width="6" x="481.302" y="131.4691"/><rect fill="#FFFFFF" height="18.7746" style="stroke:#181818;stroke-width:0.6;" width="6" x="561.5382" y="169.0184"/><rect fill="#FFFFFF" height="18.7746" style="stroke:#181818;stroke-width:0.6;" width="6" x="561.5382" y="312.7898"/><rect fill="#FFFFFF" height="18.7746" style="stroke:#181818;stroke-width:0.6;" width="6" x="643.1751" y="425.4375"/><rect fill="#FFFFFF" height="151.2457" style="stroke:#181818;stroke-width:0.6;" width="6" x="709.6383" y="462.9867"/><rect fill="#FFFFFF" height="25.3746" style="stroke:#181818;stroke-width:0.6;" width="6" x="712.6383" y="512.734"/><rect fill="#FFFFFF" height="25.3746" style="stroke:#181818;stroke-width:0.6;" width="6" x="712.6383" y="565.8832"/><polygon fill="#181818" points="153.9952,91.5199,159.9952,93.9199,153.9952,96.3199,156.3952,93.9199" style="stroke:#181818;stroke-width:0.6;"/><line style="stroke:#181818;stroke-width:0.6;" x1="32.5406" x2="157.5952" y1="93.9199" y2="93.9199"/><text fill="#000000" font-family="sans-serif" font-size="7.8" font-weight="bold" lengthAdjust="spacing" textLength="4.338" x="36.7406" y="90.7623">1</text><text fill="#000000" font-family="sans-serif" font-size="7.8" lengthAdjust="spacing" textLength="84.5508" x="43.4786" y="90.7623">request to register agent</text><polygon fill="#181818" points="381.4626,110.2945,387.4626,112.6945,381.4626,115.0945,383.8626,112.6945" style="stroke:#181818;stroke-width:0.6;"/><line style="stroke:#181818;stroke-width:0.6;" x1="167.1952" x2="385.0626" y1="112.6945" y2="112.6945"/><text fill="#000000" font-family="sans-serif" font-size="7.8" font-weight="bold" lengthAdjust="spacing" textLength="4.338" x="171.3952" y="109.5369">2</text><text fill="#000000" font-family="sans-serif" font-size="7.8" lengthAdjust="spacing" textLength="47.2494" x="178.1332" y="109.5369">getAllStores()</text><polygon fill="#181818" points="474.102,129.0691,480.102,131.4691,474.102,133.8691,476.502,131.4691" style="stroke:#181818;stroke-width:0.6;"/><line style="stroke:#181818;stroke-width:0.6;" x1="394.6626" x2="477.702" y1="131.4691" y2="131.4691"/><text fill="#000000" font-family="sans-serif" font-size="7.8" font-weight="bold" lengthAdjust="spacing" textLength="4.338" x="398.8626" y="128.3115">3</text><text fill="#000000" font-family="sans-serif" font-size="7.8" lengthAdjust="spacing" textLength="68.5014" x="405.6006" y="128.3115">getStoreContainer()</text><polygon fill="#181818" points="401.2626,147.8438,395.2626,150.2438,401.2626,152.6437,398.8626,150.2438" style="stroke:#181818;stroke-width:0.6;"/><line style="stroke:#181818;stroke-width:0.6;stroke-dasharray:2.0,2.0;" x1="397.6626" x2="483.702" y1="150.2438" y2="150.2438"/><text fill="#000000" font-family="sans-serif" font-size="7.8" font-weight="bold" lengthAdjust="spacing" textLength="4.338" x="404.8626" y="147.0861">4</text><text fill="#000000" font-family="sans-serif" font-size="7.8" lengthAdjust="spacing" textLength="32.0874" x="411.6006" y="147.0861">container</text><polygon fill="#181818" points="554.3382,166.6184,560.3382,169.0184,554.3382,171.4184,556.7382,169.0184" style="stroke:#181818;stroke-width:0.6;"/><line style="stroke:#181818;stroke-width:0.6;" x1="394.6626" x2="557.9382" y1="169.0184" y2="169.0184"/><text fill="#000000" font-family="sans-serif" font-size="7.8" font-weight="bold" lengthAdjust="spacing" textLength="4.338" x="398.8626" y="165.8607">5</text><text fill="#000000" font-family="sans-serif" font-size="7.8" lengthAdjust="spacing" textLength="24.7063" x="405.6006" y="165.8607">getAll()</text><polygon fill="#181818" points="401.2626,185.393,395.2626,187.793,401.2626,190.193,398.8626,187.793" style="stroke:#181818;stroke-width:0.6;"/><line style="stroke:#181818;stroke-width:0.6;stroke-dasharray:2.0,2.0;" x1="397.6626" x2="563.9382" y1="187.793" y2="187.793"/><text fill="#000000" font-family="sans-serif" font-size="7.8" font-weight="bold" lengthAdjust="spacing" textLength="4.338" x="404.8626" y="184.6354">6</text><text fill="#000000" font-family="sans-serif" font-size="7.8" lengthAdjust="spacing" textLength="9.5329" x="411.6006" y="184.6354">list</text><polygon fill="#181818" points="173.7952,204.1676,167.7952,206.5676,173.7952,208.9676,171.3952,206.5676" style="stroke:#181818;stroke-width:0.6;"/><line style="stroke:#181818;stroke-width:0.6;stroke-dasharray:2.0,2.0;" x1="170.1952" x2="391.0626" y1="206.5676" y2="206.5676"/><text fill="#000000" font-family="sans-serif" font-size="7.8" font-weight="bold" lengthAdjust="spacing" textLength="4.338" x="177.3952" y="203.41">7</text><text fill="#000000" font-family="sans-serif" font-size="7.8" lengthAdjust="spacing" textLength="9.5329" x="184.1332" y="203.41">list</text><polygon fill="#181818" points="39.1406,243.6914,33.1406,246.0914,39.1406,248.4914,36.7406,246.0914" style="stroke:#181818;stroke-width:0.6;"/><line style="stroke:#181818;stroke-width:0.6;stroke-dasharray:2.0,2.0;" x1="35.5406" x2="163.5952" y1="246.0914" y2="246.0914"/><text fill="#000000" font-family="sans-serif" font-size="7.8" font-weight="bold" lengthAdjust="spacing" textLength="4.338" x="42.7406" y="232.5592">8</text><text fill="#000000" font-family="sans-serif" font-size="7.8" lengthAdjust="spacing" textLength="99.2824" x="49.4786" y="222.1846">shows all existing stores and</text><text fill="#000000" font-family="sans-serif" font-size="7.8" lengthAdjust="spacing" textLength="103.1824" x="51.6457" y="232.5592">asks to select the store where</text><text fill="#000000" font-family="sans-serif" font-size="7.8" lengthAdjust="spacing" textLength="96.6964" x="51.6457" y="242.9338">the agent is to be registered</text><polygon fill="#181818" points="153.9952,272.8406,159.9952,275.2406,153.9952,277.6406,156.3952,275.2406" style="stroke:#181818;stroke-width:0.6;"/><line style="stroke:#181818;stroke-width:0.6;" x1="32.5406" x2="157.5952" y1="275.2406" y2="275.2406"/><text fill="#000000" font-family="sans-serif" font-size="7.8" font-weight="bold" lengthAdjust="spacing" textLength="4.338" x="36.7406" y="266.8957">9</text><text fill="#000000" font-family="sans-serif" font-size="7.8" lengthAdjust="spacing" textLength="102.3293" x="43.4786" y="261.7084">types store code where agent</text><text fill="#000000" font-family="sans-serif" font-size="7.8" lengthAdjust="spacing" textLength="42.4849" x="45.6457" y="272.083">is registered</text><polygon fill="#181818" points="381.4626,291.6152,387.4626,294.0152,381.4626,296.4152,383.8626,294.0152" style="stroke:#181818;stroke-width:0.6;"/><line style="stroke:#181818;stroke-width:0.6;" x1="167.1952" x2="385.0626" y1="294.0152" y2="294.0152"/><text fill="#000000" font-family="sans-serif" font-size="7.8" font-weight="bold" lengthAdjust="spacing" textLength="8.676" x="171.3952" y="290.8576">10</text><text fill="#000000" font-family="sans-serif" font-size="7.8" lengthAdjust="spacing" textLength="79.3444" x="182.4712" y="290.8576">getStoreByCode(code)</text><polygon fill="#181818" points="554.3382,310.3898,560.3382,312.7898,554.3382,315.1898,556.7382,312.7898" style="stroke:#181818;stroke-width:0.6;"/><line style="stroke:#181818;stroke-width:0.6;" x1="394.6626" x2="557.9382" y1="312.7898" y2="312.7898"/><text fill="#000000" font-family="sans-serif" font-size="7.8" font-weight="bold" lengthAdjust="spacing" textLength="8.676" x="398.8626" y="309.6322">11</text><text fill="#000000" font-family="sans-serif" font-size="7.8" lengthAdjust="spacing" textLength="51.595" x="409.9386" y="309.6322">getStore(code)</text><polygon fill="#181818" points="401.2626,329.1645,395.2626,331.5645,401.2626,333.9645,398.8626,331.5645" style="stroke:#181818;stroke-width:0.6;"/><line style="stroke:#181818;stroke-width:0.6;stroke-dasharray:2.0,2.0;" x1="397.6626" x2="563.9382" y1="331.5645" y2="331.5645"/><text fill="#000000" font-family="sans-serif" font-size="7.8" font-weight="bold" lengthAdjust="spacing" textLength="8.676" x="404.8626" y="328.4068">12</text><text fill="#000000" font-family="sans-serif" font-size="7.8" lengthAdjust="spacing" textLength="17.3405" x="415.9386" y="328.4068">store</text><polygon fill="#181818" points="173.7952,347.9391,167.7952,350.3391,173.7952,352.7391,171.3952,350.3391" style="stroke:#181818;stroke-width:0.6;"/><line style="stroke:#181818;stroke-width:0.6;stroke-dasharray:2.0,2.0;" x1="170.1952" x2="391.0626" y1="350.3391" y2="350.3391"/><text fill="#000000" font-family="sans-serif" font-size="7.8" font-weight="bold" lengthAdjust="spacing" textLength="8.676" x="177.3952" y="347.1814">13</text><text fill="#000000" font-family="sans-serif" font-size="7.8" lengthAdjust="spacing" textLength="17.3405" x="188.4712" y="347.1814">store</text><polygon fill="#181818" points="39.1406,366.7137,33.1406,369.1137,39.1406,371.5137,36.7406,369.1137" style="stroke:#181818;stroke-width:0.6;"/><line style="stroke:#181818;stroke-width:0.6;stroke-dasharray:2.0,2.0;" x1="35.5406" x2="163.5952" y1="369.1137" y2="369.1137"/><text fill="#000000" font-family="sans-serif" font-size="7.8" font-weight="bold" lengthAdjust="spacing" textLength="8.676" x="42.7406" y="365.9561">14</text><text fill="#000000" font-family="sans-serif" font-size="7.8" lengthAdjust="spacing" textLength="68.9508" x="53.8166" y="365.9561">requests agent data</text><polygon fill="#181818" points="153.9952,385.4883,159.9952,387.8883,153.9952,390.2883,156.3952,387.8883" style="stroke:#181818;stroke-width:0.6;"/><line style="stroke:#181818;stroke-width:0.6;" x1="32.5406" x2="157.5952" y1="387.8883" y2="387.8883"/><text fill="#000000" font-family="sans-serif" font-size="7.8" font-weight="bold" lengthAdjust="spacing" textLength="8.676" x="36.7406" y="384.7307">15</text><text fill="#000000" font-family="sans-serif" font-size="7.8" lengthAdjust="spacing" textLength="72.8508" x="47.8166" y="384.7307">types requested data</text><polygon fill="#181818" points="381.4626,404.2629,387.4626,406.6629,381.4626,409.0629,383.8626,406.6629" style="stroke:#181818;stroke-width:0.6;"/><line style="stroke:#181818;stroke-width:0.6;" x1="167.1952" x2="385.0626" y1="406.6629" y2="406.6629"/><text fill="#000000" font-family="sans-serif" font-size="7.8" font-weight="bold" lengthAdjust="spacing" textLength="8.676" x="171.3952" y="403.5053">16</text><text fill="#000000" font-family="sans-serif" font-size="7.8" lengthAdjust="spacing" textLength="198.9914" x="182.4712" y="403.5053">registerAgent(name,email,phoneNumber,idNumber,store)</text><polygon fill="#181818" points="635.9751,423.0375,641.9751,425.4375,635.9751,427.8375,638.3751,425.4375" style="stroke:#181818;stroke-width:0.6;"/><line style="stroke:#181818;stroke-width:0.6;" x1="394.6626" x2="639.5751" y1="425.4375" y2="425.4375"/><text fill="#000000" font-family="sans-serif" font-size="7.8" font-weight="bold" lengthAdjust="spacing" textLength="8.676" x="398.8626" y="422.2799">17</text><text fill="#000000" font-family="sans-serif" font-size="7.8" lengthAdjust="spacing" textLength="70.2419" x="409.9386" y="422.2799">getAgentContainer()</text><polygon fill="#181818" points="401.2626,441.8121,395.2626,444.2121,401.2626,446.6121,398.8626,444.2121" style="stroke:#181818;stroke-width:0.6;"/><line style="stroke:#181818;stroke-width:0.6;stroke-dasharray:2.0,2.0;" x1="397.6626" x2="645.5751" y1="444.2121" y2="444.2121"/><text fill="#000000" font-family="sans-serif" font-size="7.8" font-weight="bold" lengthAdjust="spacing" textLength="8.676" x="404.8626" y="441.0545">18</text><text fill="#000000" font-family="sans-serif" font-size="7.8" lengthAdjust="spacing" textLength="32.0874" x="415.9386" y="441.0545">container</text><polygon fill="#181818" points="702.4383,460.5867,708.4383,462.9867,702.4383,465.3867,704.8383,462.9867" style="stroke:#181818;stroke-width:0.6;"/><line style="stroke:#181818;stroke-width:0.6;" x1="394.6626" x2="706.0383" y1="462.9867" y2="462.9867"/><text fill="#000000" font-family="sans-serif" font-size="7.8" font-weight="bold" lengthAdjust="spacing" textLength="8.676" x="398.8626" y="459.8291">19</text><text fill="#000000" font-family="sans-serif" font-size="7.8" lengthAdjust="spacing" textLength="194.661" x="409.9386" y="459.8291">createAgent(name,email,phoneNumber,idNumber,store)</text><polygon fill="#181818" points="908.1917,479.3613,914.1917,481.7613,908.1917,484.1613,910.5917,481.7613" style="stroke:#181818;stroke-width:0.6;"/><line style="stroke:#181818;stroke-width:0.6;stroke-dasharray:2.0,2.0;" x1="715.6383" x2="911.7917" y1="481.7613" y2="481.7613"/><text fill="#000000" font-family="sans-serif" font-size="7.8" font-weight="bold" lengthAdjust="spacing" textLength="8.676" x="719.8383" y="478.6037">20</text><text fill="#000000" font-family="sans-serif" font-size="7.8" lengthAdjust="spacing" textLength="174.2774" x="730.9143" y="478.6037">create(name,email,phoneNumber,idNumber,store)</text><rect fill="#E2E2F0" height="19.5727" rx="1.5" ry="1.5" style="stroke:#181818;stroke-width:0.3;" width="56.0396" x="915.3917" y="467.7867"/><text fill="#000000" font-family="sans-serif" font-size="8.4" lengthAdjust="spacing" textLength="47.6396" x="919.5917" y="481.0512">agent: Agent</text><line style="stroke:#181818;stroke-width:0.6;" x1="715.6383" x2="743.8383" y1="504.934" y2="504.934"/><line style="stroke:#181818;stroke-width:0.6;" x1="743.8383" x2="743.8383" y1="504.934" y2="512.734"/><line style="stroke:#181818;stroke-width:0.6;" x1="719.2383" x2="743.8383" y1="512.734" y2="512.734"/><polygon fill="#181818" points="725.2383,510.334,719.2383,512.734,725.2383,515.134,722.8383,512.734" style="stroke:#181818;stroke-width:0.6;"/><text fill="#000000" font-family="sans-serif" font-size="7.8" font-weight="bold" lengthAdjust="spacing" textLength="8.676" x="722.8383" y="501.7764">21</text><text fill="#000000" font-family="sans-serif" font-size="7.8" lengthAdjust="spacing" textLength="51.5988" x="733.9143" y="501.7764">validate(agent)</text><line style="stroke:#181818;stroke-width:0.6;stroke-dasharray:2.0,2.0;" x1="718.6383" x2="743.8383" y1="537.5086" y2="537.5086"/><line style="stroke:#181818;stroke-width:0.6;stroke-dasharray:2.0,2.0;" x1="743.8383" x2="743.8383" y1="537.5086" y2="545.3086"/><line style="stroke:#181818;stroke-width:0.6;stroke-dasharray:2.0,2.0;" x1="715.6383" x2="743.8383" y1="545.3086" y2="545.3086"/><polygon fill="#181818" points="721.6383,542.9086,715.6383,545.3086,721.6383,547.7086,719.2383,545.3086" style="stroke:#181818;stroke-width:0.6;"/><text fill="#000000" font-family="sans-serif" font-size="7.8" font-weight="bold" lengthAdjust="spacing" textLength="8.676" x="722.8383" y="534.351">22</text><text fill="#000000" font-family="sans-serif" font-size="7.8" lengthAdjust="spacing" textLength="8.238" x="733.9143" y="534.351">ok</text><line style="stroke:#181818;stroke-width:0.6;" x1="715.6383" x2="743.8383" y1="558.0832" y2="558.0832"/><line style="stroke:#181818;stroke-width:0.6;" x1="743.8383" x2="743.8383" y1="558.0832" y2="565.8832"/><line style="stroke:#181818;stroke-width:0.6;" x1="719.2383" x2="743.8383" y1="565.8832" y2="565.8832"/><polygon fill="#181818" points="725.2383,563.4832,719.2383,565.8832,725.2383,568.2832,722.8383,565.8832" style="stroke:#181818;stroke-width:0.6;"/><text fill="#000000" font-family="sans-serif" font-size="7.8" font-weight="bold" lengthAdjust="spacing" textLength="8.676" x="722.8383" y="554.9256">23</text><text fill="#000000" font-family="sans-serif" font-size="7.8" lengthAdjust="spacing" textLength="37.7279" x="733.9143" y="554.9256">add(agent)</text><line style="stroke:#181818;stroke-width:0.6;stroke-dasharray:2.0,2.0;" x1="718.6383" x2="743.8383" y1="590.6578" y2="590.6578"/><line style="stroke:#181818;stroke-width:0.6;stroke-dasharray:2.0,2.0;" x1="743.8383" x2="743.8383" y1="590.6578" y2="598.4578"/><line style="stroke:#181818;stroke-width:0.6;stroke-dasharray:2.0,2.0;" x1="715.6383" x2="743.8383" y1="598.4578" y2="598.4578"/><polygon fill="#181818" points="721.6383,596.0578,715.6383,598.4578,721.6383,600.8578,719.2383,598.4578" style="stroke:#181818;stroke-width:0.6;"/><text fill="#000000" font-family="sans-serif" font-size="7.8" font-weight="bold" lengthAdjust="spacing" textLength="8.676" x="722.8383" y="587.5002">24</text><text fill="#000000" font-family="sans-serif" font-size="7.8" lengthAdjust="spacing" textLength="8.238" x="733.9143" y="587.5002">ok</text><polygon fill="#181818" points="401.2626,611.8324,395.2626,614.2324,401.2626,616.6324,398.8626,614.2324" style="stroke:#181818;stroke-width:0.6;"/><line style="stroke:#181818;stroke-width:0.6;stroke-dasharray:2.0,2.0;" x1="397.6626" x2="712.0383" y1="614.2324" y2="614.2324"/><text fill="#000000" font-family="sans-serif" font-size="7.8" font-weight="bold" lengthAdjust="spacing" textLength="8.676" x="404.8626" y="611.0748">25</text><text fill="#000000" font-family="sans-serif" font-size="7.8" lengthAdjust="spacing" textLength="8.238" x="415.9386" y="611.0748">ok</text><polygon fill="#181818" points="173.7952,630.607,167.7952,633.007,173.7952,635.407,171.3952,633.007" style="stroke:#181818;stroke-width:0.6;"/><line style="stroke:#181818;stroke-width:0.6;stroke-dasharray:2.0,2.0;" x1="170.1952" x2="391.0626" y1="633.007" y2="633.007"/><text fill="#000000" font-family="sans-serif" font-size="7.8" font-weight="bold" lengthAdjust="spacing" textLength="8.676" x="177.3952" y="629.8494">26</text><text fill="#000000" font-family="sans-serif" font-size="7.8" lengthAdjust="spacing" textLength="8.238" x="188.4712" y="629.8494">ok</text><polygon fill="#181818" points="39.1406,649.3816,33.1406,651.7816,39.1406,654.1816,36.7406,651.7816" style="stroke:#181818;stroke-width:0.6;"/><line style="stroke:#181818;stroke-width:0.6;stroke-dasharray:2.0,2.0;" x1="35.5406" x2="163.5952" y1="651.7816" y2="651.7816"/><text fill="#000000" font-family="sans-serif" font-size="7.8" font-weight="bold" lengthAdjust="spacing" textLength="8.676" x="42.7406" y="648.624">27</text><text fill="#000000" font-family="sans-serif" font-size="7.8" lengthAdjust="spacing" textLength="50.719" x="53.8166" y="648.624">return success</text><!--SRC=[fLInRjim4Dtr5GSlSGAxHbOD1LnDNZ8aSASkZ7YmY52aIb9n_VSz7Yd5T1EZQJtO9D-znxjtHzzq8Go-tcm6BKmOU_sbjVt6uyyHJOjhgSJ1YRwgWWeQOVzqVr_38nwK3-X0m0CUONj04wfAZC6ADgXN4H2iuRqP-sTqXBN1EbXiPQyCKPsWxGA4XxqdU10kg5ODb00iwacTPRyhFAR0tRMmnfhWhDQOL9lWz4LuOtjQdHWMmr2YBT65CkZg9qeCcsdBqRuuAecC9HB7ykeZRSxKfmocfD_HPAnEhdBmvE_aBNj6d_WBwwzaJGqkDim729QMKtUOjz_5cEX83GSCMwqvIR-yhU8XOMG7GsNjX1Emdhbp7KoBcgKnaphnIW3UD3GbbkavRpxPxtZheuZlx97yqHhm5s7A7D8zT6Oa_31ao8kFPNhKs5B17QO0E7P8tnGHZxXsK1pvZBCdADcrV7au3PZxI-N9II9nIOZevyJTkOzirhTJGxHbvDvUiuM3SzY7vZ2GUfBpIoUnWRCzkSzvWa2A88evI2NbA9Gvu6m4tFcpMHhHumfxeVHgwAp11twlAoNpWZDuAuthI8qk1fXwpX1S6vTovYd28Ktpf_8e9VWsvj_TJNB_glHdUgz2AnaL6NZtxakAVVaBNI7b_qdE5XDMl2NQNynA69q1FxOjUX__CQhV]--></g></svg>