<svg xmlns="http://www.w3.org/2000/svg" xmlns:xlink="http://www.w3.org/1999/xlink" contentStyleType="text/css" height="656px" preserveAspectRatio="none" style="width:1097px;height:656px;background:#FFFFFF;" version="1.1" viewBox="0 0 1097 656" width="1097px" zoomAndPan="magnify"><title>Class Diagrams Of Register Agent User Case</title><defs/><g><text fill="#000000" font-family="sans-serif" font-size="14" font-weight="bold" lengthAdjust="spacing" textLength="300.3369" x="391.3892" y="25.1074">Class Diagrams Of Register Agent User Case</text><!--class RegisterAgentUI--><g id="elem_RegisterAgentUI"><rect codeLine="8" fill="#F1F1F1" height="44.6211" id="RegisterAgentUI" rx="2.5" ry="2.5" style="stroke:#181818;stroke-width:0.5;" width="108.7168" x="341" y="46.6211"/><text fill="#000000" font-family="sans-serif" font-size="14" lengthAdjust="spacing" textLength="102.7168" x="344" y="66.7285">RegisterAgentUI</text><line style="stroke:#181818;stroke-width:0.5;" x1="342" x2="448.7168" y1="75.2422" y2="75.2422"/><line style="stroke:#181818;stroke-width:0.5;" x1="342" x2="448.7168" y1="83.2422" y2="83.2422"/></g><!--class RegisterAgentController--><g id="elem_RegisterAgentController"><rect codeLine="12" fill="#F1F1F1" height="63.2422" id="RegisterAgentController" rx="2.5" ry="2.5" style="stroke:#181818;stroke-width:0.5;" width="441.167" x="175" y="152.6211"/><text fill="#000000" font-family="sans-serif" font-size="14" lengthAdjust="spacing" textLength="149.4063" x="320.8804" y="172.7285">RegisterAgentController</text><line style="stroke:#181818;stroke-width:0.5;" x1="176" x2="615.167" y1="181.2422" y2="181.2422"/><line style="stroke:#181818;stroke-width:0.5;" x1="176" x2="615.167" y1="189.2422" y2="189.2422"/><text fill="#000000" font-family="sans-serif" font-size="14" lengthAdjust="spacing" textLength="429.167" x="181" y="208.3496">+registerAgent(string name, string email, unsigned int phoneNumber)</text></g><!--class Agents--><g id="elem_Agents"><rect codeLine="16" fill="#F1F1F1" height="63.2422" id="Agents" rx="2.5" ry="2.5" style="stroke:#181818;stroke-width:0.5;" width="425.6152" x="664.5" y="323.1211"/><text fill="#000000" font-family="sans-serif" font-size="14" lengthAdjust="spacing" textLength="43.5859" x="855.5146" y="343.2285">Agents</text><line style="stroke:#181818;stroke-width:0.5;" x1="665.5" x2="1089.1152" y1="351.7422" y2="351.7422"/><line style="stroke:#181818;stroke-width:0.5;" x1="665.5" x2="1089.1152" y1="359.7422" y2="359.7422"/><text fill="#000000" font-family="sans-serif" font-size="14" lengthAdjust="spacing" textLength="413.6152" x="670.5" y="378.8496">+createAgent(string name,string email,unsigned int phoneNumber)</text></g><!--class StoreContainer--><g id="elem_StoreContainer"><rect codeLine="20" fill="#F1F1F1" height="63.2422" id="StoreContainer" rx="2.5" ry="2.5" style="stroke:#181818;stroke-width:0.5;" width="100.165" x="241.5" y="323.1211"/><text fill="#000000" font-family="sans-serif" font-size="14" lengthAdjust="spacing" textLength="94.165" x="244.5" y="343.2285">StoreContainer</text><line style="stroke:#181818;stroke-width:0.5;" x1="242.5" x2="340.665" y1="351.7422" y2="351.7422"/><line style="stroke:#181818;stroke-width:0.5;" x1="242.5" x2="340.665" y1="359.7422" y2="359.7422"/><text fill="#000000" font-family="sans-serif" font-size="14" lengthAdjust="spacing" textLength="52.5205" x="247.5" y="378.8496">+getAll()</text></g><!--class Company--><g id="elem_Company"><rect codeLine="24" fill="#F1F1F1" height="63.2422" id="Company" rx="2.5" ry="2.5" style="stroke:#181818;stroke-width:0.5;" width="143.127" x="7" y="323.1211"/><text fill="#000000" font-family="sans-serif" font-size="14" lengthAdjust="spacing" textLength="59.917" x="48.605" y="343.2285">Company</text><line style="stroke:#181818;stroke-width:0.5;" x1="8" x2="149.127" y1="351.7422" y2="351.7422"/><line style="stroke:#181818;stroke-width:0.5;" x1="8" x2="149.127" y1="359.7422" y2="359.7422"/><text fill="#000000" font-family="sans-serif" font-size="14" lengthAdjust="spacing" textLength="131.127" x="13" y="378.8496">+getStoreContainer()</text></g><!--class Agent--><g id="elem_Agent"><rect codeLine="28" fill="#F1F1F1" height="137.7266" id="Agent" rx="2.5" ry="2.5" style="stroke:#181818;stroke-width:0.5;" width="231.0645" x="762" y="511.6211"/><text fill="#000000" font-family="sans-serif" font-size="14" lengthAdjust="spacing" textLength="36.5859" x="859.2393" y="531.7285">Agent</text><line style="stroke:#181818;stroke-width:0.5;" x1="763" x2="992.0645" y1="540.2422" y2="540.2422"/><text fill="#000000" font-family="sans-serif" font-size="14" lengthAdjust="spacing" textLength="15.5586" x="768" y="559.3496">-id</text><text fill="#000000" font-family="sans-serif" font-size="14" lengthAdjust="spacing" textLength="39.6826" x="768" y="577.9707">-name</text><text fill="#000000" font-family="sans-serif" font-size="14" lengthAdjust="spacing" textLength="38.1172" x="768" y="596.5918">-email</text><text fill="#000000" font-family="sans-serif" font-size="14" lengthAdjust="spacing" textLength="93.3857" x="768" y="615.2129">-phoneNumber</text><line style="stroke:#181818;stroke-width:0.5;" x1="763" x2="992.0645" y1="622.7266" y2="622.7266"/><text fill="#000000" font-family="sans-serif" font-size="14" lengthAdjust="spacing" textLength="219.0645" x="768" y="641.834">+Agent(name,email,phoneNumber)</text></g><!--class Store--><g id="elem_Store"><rect codeLine="36" fill="#F1F1F1" height="156.3477" id="Store" rx="2.5" ry="2.5" style="stroke:#181818;stroke-width:0.5;" width="146.251" x="426.5" y="276.6211"/><text fill="#000000" font-family="sans-serif" font-size="14" lengthAdjust="spacing" textLength="33.4619" x="482.8945" y="296.7285">Store</text><line style="stroke:#181818;stroke-width:0.5;" x1="427.5" x2="571.751" y1="305.2422" y2="305.2422"/><text fill="#000000" font-family="sans-serif" font-size="14" lengthAdjust="spacing" textLength="35.0205" x="432.5" y="324.3496">-code</text><text fill="#000000" font-family="sans-serif" font-size="14" lengthAdjust="spacing" textLength="76.2754" x="432.5" y="342.9707">-designation</text><text fill="#000000" font-family="sans-serif" font-size="14" lengthAdjust="spacing" textLength="54.4688" x="432.5" y="361.5918">-address</text><text fill="#000000" font-family="sans-serif" font-size="14" lengthAdjust="spacing" textLength="85.5996" x="432.5" y="380.2129">-openingTime</text><text fill="#000000" font-family="sans-serif" font-size="14" lengthAdjust="spacing" textLength="79.3516" x="432.5" y="398.834">-closingTime</text><line style="stroke:#181818;stroke-width:0.5;" x1="427.5" x2="571.751" y1="406.3477" y2="406.3477"/><text fill="#000000" font-family="sans-serif" font-size="14" lengthAdjust="spacing" textLength="134.251" x="432.5" y="425.4551">+getAgentContainer()</text></g><!--link RegisterAgentUI to RegisterAgentController--><g id="link_RegisterAgentUI_RegisterAgentController"><path codeLine="46" d="M395.5,91.6411 C395.5,108.8011 395.5,127.0611 395.5,146.2911 " fill="none" id="RegisterAgentUI-to-RegisterAgentController" style="stroke:#181818;stroke-width:1.0;stroke-dasharray:7.0,7.0;"/><polygon fill="#181818" points="395.5,152.2911,399.5,143.2911,395.5,147.2911,391.5,143.2911,395.5,152.2911" style="stroke:#181818;stroke-width:1.0;"/></g><!--link RegisterAgentController to Company--><g id="link_RegisterAgentController_Company"><path codeLine="48" d="M338.09,215.6311 C280.82,246.0811 198.6182,289.7751 141.3082,320.2351 " fill="none" id="RegisterAgentController-to-Company" style="stroke:#181818;stroke-width:1.0;stroke-dasharray:7.0,7.0;"/><polygon fill="#181818" points="136.01,323.0511,145.8345,322.3593,140.4251,320.7045,142.0799,315.2951,136.01,323.0511" style="stroke:#181818;stroke-width:1.0;"/></g><!--link RegisterAgentController to StoreContainer--><g id="link_RegisterAgentController_StoreContainer"><path codeLine="50" d="M376.67,215.6311 C357.88,246.0811 332.3213,287.4853 313.5213,317.9453 " fill="none" id="RegisterAgentController-to-StoreContainer" style="stroke:#181818;stroke-width:1.0;stroke-dasharray:7.0,7.0;"/><polygon fill="#181818" points="310.37,323.0511,318.5008,317.4933,312.9961,318.7963,311.6931,313.2915,310.37,323.0511" style="stroke:#181818;stroke-width:1.0;"/></g><!--link RegisterAgentController to Store--><g id="link_RegisterAgentController_Store"><path codeLine="52" d="M414.33,215.6311 C424.87,232.7011 435.368,249.7257 448.648,271.2357 " fill="none" id="RegisterAgentController-to-Store" style="stroke:#181818;stroke-width:1.0;stroke-dasharray:7.0,7.0;"/><polygon fill="#181818" points="451.8,276.3411,450.4756,266.5817,449.1733,272.0866,443.6684,270.7844,451.8,276.3411" style="stroke:#181818;stroke-width:1.0;"/></g><!--link RegisterAgentController to Agents--><g id="link_RegisterAgentController_Agents"><path codeLine="54" d="M482.79,215.6311 C569.87,246.0811 697.2461,290.6112 784.3861,321.0712 " fill="none" id="RegisterAgentController-to-Agents" style="stroke:#181818;stroke-width:1.0;stroke-dasharray:7.0,7.0;"/><polygon fill="#181818" points="790.05,323.0511,782.874,316.3054,785.33,321.4012,780.2342,323.8573,790.05,323.0511" style="stroke:#181818;stroke-width:1.0;"/></g><!--link Company to StoreContainer--><g id="link_Company_StoreContainer"><path codeLine="56" d="M150.02,354.6211 C179.99,354.6211 208.12,354.6211 235.35,354.6211 " fill="none" id="Company-to-StoreContainer" style="stroke:#181818;stroke-width:1.0;"/><polygon fill="#181818" points="241.35,354.6211,232.35,350.6211,236.35,354.6211,232.35,358.6211,241.35,354.6211" style="stroke:#181818;stroke-width:1.0;"/><text fill="#000000" font-family="sans-serif" font-size="13" lengthAdjust="spacing" textLength="55.6372" x="168.25" y="347.6494">maintains</text></g><!--link StoreContainer to Store--><g id="link_StoreContainer_Store"><path codeLine="58" d="M341.59,354.6211 C366.95,354.6211 392.23,354.6211 420.24,354.6211 " fill="none" id="StoreContainer-to-Store" style="stroke:#181818;stroke-width:1.0;"/><polygon fill="#181818" points="426.24,354.6211,417.24,350.6211,421.24,354.6211,417.24,358.6211,426.24,354.6211" style="stroke:#181818;stroke-width:1.0;"/><text fill="#000000" font-family="sans-serif" font-size="13" lengthAdjust="spacing" textLength="48.4199" x="360" y="347.6494">contains</text><text fill="#000000" font-family="sans-serif" font-size="13" lengthAdjust="spacing" textLength="7.23" x="349.8009" y="350.3516">1</text><text fill="#000000" font-family="sans-serif" font-size="13" lengthAdjust="spacing" textLength="19.5127" x="399.1062" y="369.4833">1..*</text></g><!--link Store to Agents--><g id="link_Store_Agents"><path codeLine="60" d="M572.83,354.6211 C599.67,354.6211 625.56,354.6211 658.44,354.6211 " fill="none" id="Store-to-Agents" style="stroke:#181818;stroke-width:1.0;"/><polygon fill="#181818" points="664.44,354.6211,655.44,350.6211,659.44,354.6211,655.44,358.6211,664.44,354.6211" style="stroke:#181818;stroke-width:1.0;"/><text fill="#000000" font-family="sans-serif" font-size="13" lengthAdjust="spacing" textLength="55.6372" x="591" y="347.6494">maintains</text></g><!--link Agents to Agent--><g id="link_Agents_Agent"><path codeLine="62" d="M877.5,386.3011 C877.5,418.2911 877.5,463.4911 877.5,505.1611 " fill="none" id="Agents-to-Agent" style="stroke:#181818;stroke-width:1.0;"/><polygon fill="#181818" points="877.5,511.1611,881.5,502.1611,877.5,506.1611,873.5,502.1611,877.5,511.1611" style="stroke:#181818;stroke-width:1.0;"/><text fill="#000000" font-family="sans-serif" font-size="13" lengthAdjust="spacing" textLength="48.4199" x="878.5" y="477.6494">contains</text><text fill="#000000" font-family="sans-serif" font-size="13" lengthAdjust="spacing" textLength="7.23" x="869.8415" y="408.6216">1</text><text fill="#000000" font-family="sans-serif" font-size="13" lengthAdjust="spacing" textLength="19.5127" x="857.5434" y="500.1789">1..*</text></g><!--SRC=[ZLB1JiCm3BtdAwnU6B1rxBe3qbGkku34s0TaYUaYqgHAKY6O-7VIfALfWMczrCbxVdvsV7LqhhRhvRAMLBccaZdJrP99Qks22reQMX5o51o12SCa4licL4tzDGJInZaZ3et3BTDg9puHxWXnmac4eiNX8OfOU7g5Poo5TMXWKw9oiBS-BAX5GeBM3nxW_HPEX7pzYHLQEQEbzFad0lwxDIayizwKAa7H2kVG7R2YGiwXKLQK2Za8xw0-QeMFJNL0SpsK2XgsLsO6gSFVkYFP2rHtJXjiZLEX1jybkesKiuHNwAgcwcF0nucpgT5EQI5u_BVcOXIinJ2n57LZFw6HsC4Pqtq5fdcdpB5jbpgXLRoWd1kqDXvqZSgFvaNqHfZKDhq8NVVlc7H5fWkGv_V_FVo4d6n4czGDyJnfFDWBkESfSMq8wMh3ObfX3NxI8VQioJfagwnDo5PvVfF5l3KmFMAtX5XafDIjQr3W-bqDCW59PGZv1W00]--></g></svg>