<svg xmlns="http://www.w3.org/2000/svg" xmlns:xlink="http://www.w3.org/1999/xlink" contentStyleType="text/css" height="901px" preserveAspectRatio="none" style="width:1546px;height:901px;background:#FFFFFF;" version="1.1" viewBox="0 0 1546 901" width="1546px" zoomAndPan="magnify"><defs/><g><rect fill="#FFFFFF" height="806.6445" style="stroke:#181818;stroke-width:1.0;" width="10" x="45.1172" y="48.6211"/><rect fill="#FFFFFF" height="774.3535" style="stroke:#181818;stroke-width:1.0;" width="10" x="197.3452" y="71.9121"/><rect fill="#FFFFFF" height="42.291" style="stroke:#181818;stroke-width:1.0;" width="10" x="202.3452" y="765.6836"/><rect fill="#FFFFFF" height="585.8984" style="stroke:#181818;stroke-width:1.0;" width="10" x="564.8984" y="140.4941"/><rect fill="#FFFFFF" height="137.4941" style="stroke:#181818;stroke-width:1.0;" width="10" x="709.1792" y="171.7852"/><rect fill="#FFFFFF" height="79.873" style="stroke:#181818;stroke-width:1.0;" width="10" x="892.9688" y="357.8613"/><rect fill="#FFFFFF" height="182.4551" style="stroke:#181818;stroke-width:1.0;" width="10" x="892.9688" y="469.0254"/><rect fill="#FFFFFF" height="42.291" style="stroke:#181818;stroke-width:1.0;" width="10" x="897.9688" y="508.3164"/><rect fill="#FFFFFF" height="31.291" style="stroke:#181818;stroke-width:1.0;" width="10" x="1062.4683" y="203.0762"/><rect fill="#FFFFFF" height="31.291" style="stroke:#181818;stroke-width:1.0;" width="10" x="1233.9229" y="588.8984"/><line style="stroke:#181818;stroke-width:0.5;stroke-dasharray:5.0,5.0;" x1="50" x2="50" y1="38.6211" y2="864.2656"/><line style="stroke:#181818;stroke-width:0.5;stroke-dasharray:5.0,5.0;" x1="201.856" x2="201.856" y1="38.6211" y2="864.2656"/><line style="stroke:#181818;stroke-width:0.5;stroke-dasharray:5.0,5.0;" x1="569.3159" x2="569.3159" y1="38.6211" y2="864.2656"/><line style="stroke:#181818;stroke-width:0.5;stroke-dasharray:5.0,5.0;" x1="713.2759" x2="713.2759" y1="38.6211" y2="864.2656"/><line style="stroke:#181818;stroke-width:0.5;stroke-dasharray:5.0,5.0;" x1="897.2173" x2="897.2173" y1="274.1777" y2="864.2656"/><line style="stroke:#181818;stroke-width:0.5;stroke-dasharray:5.0,5.0;" x1="1066.7202" x2="1066.7202" y1="38.6211" y2="864.2656"/><line style="stroke:#181818;stroke-width:0.5;stroke-dasharray:5.0,5.0;" x1="1238.2163" x2="1238.2163" y1="38.6211" y2="864.2656"/><line style="stroke:#181818;stroke-width:0.5;stroke-dasharray:5.0,5.0;" x1="1367.6294" x2="1367.6294" y1="400.1523" y2="864.2656"/><line style="stroke:#181818;stroke-width:0.5;stroke-dasharray:5.0,5.0;" x1="1481.1392" x2="1481.1392" y1="691.291" y2="864.2656"/><rect fill="#E2E2F0" height="32.6211" rx="2.5" ry="2.5" style="stroke:#181818;stroke-width:0.5;" width="90.2344" x="5" y="5"/><text fill="#000000" font-family="sans-serif" font-size="14" lengthAdjust="spacing" textLength="76.2344" x="12" y="27.1074">:HTTPClient</text><rect fill="#E2E2F0" height="32.6211" rx="2.5" ry="2.5" style="stroke:#181818;stroke-width:0.5;" width="90.2344" x="5" y="863.2656"/><text fill="#000000" font-family="sans-serif" font-size="14" lengthAdjust="spacing" textLength="76.2344" x="12" y="885.373">:HTTPClient</text><rect fill="#E2E2F0" height="32.6211" rx="2.5" ry="2.5" style="stroke:#181818;stroke-width:0.5;" width="150.9785" x="126.856" y="5"/><text fill="#000000" font-family="sans-serif" font-size="14" lengthAdjust="spacing" textLength="136.9785" x="133.856" y="27.1074">handler:RouteHandler</text><rect fill="#E2E2F0" height="32.6211" rx="2.5" ry="2.5" style="stroke:#181818;stroke-width:0.5;" width="150.9785" x="126.856" y="863.2656"/><text fill="#000000" font-family="sans-serif" font-size="14" lengthAdjust="spacing" textLength="136.9785" x="133.856" y="885.373">handler:RouteHandler</text><rect fill="#E2E2F0" height="32.6211" rx="2.5" ry="2.5" style="stroke:#181818;stroke-width:0.5;" width="115.165" x="512.3159" y="5"/><text fill="#000000" font-family="sans-serif" font-size="14" lengthAdjust="spacing" textLength="101.165" x="519.3159" y="27.1074">:AgentController</text><rect fill="#E2E2F0" height="32.6211" rx="2.5" ry="2.5" style="stroke:#181818;stroke-width:0.5;" width="115.165" x="512.3159" y="863.2656"/><text fill="#000000" font-family="sans-serif" font-size="14" lengthAdjust="spacing" textLength="101.165" x="519.3159" y="885.373">:AgentController</text><rect fill="#E2E2F0" height="32.6211" rx="2.5" ry="2.5" style="stroke:#181818;stroke-width:0.5;" width="77.8066" x="675.2759" y="5"/><text fill="#000000" font-family="sans-serif" font-size="14" lengthAdjust="spacing" textLength="63.8066" x="682.2759" y="27.1074">:Company</text><rect fill="#E2E2F0" height="32.6211" rx="2.5" ry="2.5" style="stroke:#181818;stroke-width:0.5;" width="77.8066" x="675.2759" y="863.2656"/><text fill="#000000" font-family="sans-serif" font-size="14" lengthAdjust="spacing" textLength="63.8066" x="682.2759" y="885.373">:Company</text><rect fill="#E2E2F0" height="32.6211" rx="2.5" ry="2.5" style="stroke:#181818;stroke-width:0.5;" width="145.5029" x="825.2173" y="863.2656"/><text fill="#000000" font-family="sans-serif" font-size="14" lengthAdjust="spacing" textLength="131.5029" x="832.2173" y="885.373">service:AgentService</text><rect fill="#E2E2F0" height="32.6211" rx="2.5" ry="2.5" style="stroke:#181818;stroke-width:0.5;" width="173.4961" x="980.7202" y="5"/><text fill="#000000" font-family="sans-serif" font-size="14" lengthAdjust="spacing" textLength="159.4961" x="987.7202" y="27.1074">factory:RepositoryFactory</text><rect fill="#E2E2F0" height="32.6211" rx="2.5" ry="2.5" style="stroke:#181818;stroke-width:0.5;" width="173.4961" x="980.7202" y="863.2656"/><text fill="#000000" font-family="sans-serif" font-size="14" lengthAdjust="spacing" textLength="159.4961" x="987.7202" y="885.373">factory:RepositoryFactory</text><rect fill="#E2E2F0" height="32.6211" rx="2.5" ry="2.5" style="stroke:#181818;stroke-width:0.5;" width="149.4131" x="1164.2163" y="5"/><text fill="#000000" font-family="sans-serif" font-size="14" lengthAdjust="spacing" textLength="135.4131" x="1171.2163" y="27.1074">repo:AgentRepository</text><rect fill="#E2E2F0" height="32.6211" rx="2.5" ry="2.5" style="stroke:#181818;stroke-width:0.5;" width="149.4131" x="1164.2163" y="863.2656"/><text fill="#000000" font-family="sans-serif" font-size="14" lengthAdjust="spacing" textLength="135.4131" x="1171.2163" y="885.373">repo:AgentRepository</text><rect fill="#E2E2F0" height="32.6211" rx="2.5" ry="2.5" style="stroke:#181818;stroke-width:0.5;" width="89.5098" x="1323.6294" y="863.2656"/><text fill="#000000" font-family="sans-serif" font-size="14" lengthAdjust="spacing" textLength="75.5098" x="1330.6294" y="885.373">agent:Agent</text><rect fill="#E2E2F0" height="32.6211" rx="2.5" ry="2.5" style="stroke:#181818;stroke-width:0.5;" width="117.4824" x="1423.1392" y="863.2656"/><text fill="#000000" font-family="sans-serif" font-size="14" lengthAdjust="spacing" textLength="103.4824" x="1430.1392" y="885.373">result:HttpResult</text><rect fill="#FFFFFF" height="806.6445" style="stroke:#181818;stroke-width:1.0;" width="10" x="45.1172" y="48.6211"/><rect fill="#FFFFFF" height="774.3535" style="stroke:#181818;stroke-width:1.0;" width="10" x="197.3452" y="71.9121"/><rect fill="#FFFFFF" height="42.291" style="stroke:#181818;stroke-width:1.0;" width="10" x="202.3452" y="765.6836"/><rect fill="#FFFFFF" height="585.8984" style="stroke:#181818;stroke-width:1.0;" width="10" x="564.8984" y="140.4941"/><rect fill="#FFFFFF" height="137.4941" style="stroke:#181818;stroke-width:1.0;" width="10" x="709.1792" y="171.7852"/><rect fill="#FFFFFF" height="79.873" style="stroke:#181818;stroke-width:1.0;" width="10" x="892.9688" y="357.8613"/><rect fill="#FFFFFF" height="182.4551" style="stroke:#181818;stroke-width:1.0;" width="10" x="892.9688" y="469.0254"/><rect fill="#FFFFFF" height="42.291" style="stroke:#181818;stroke-width:1.0;" width="10" x="897.9688" y="508.3164"/><rect fill="#FFFFFF" height="31.291" style="stroke:#181818;stroke-width:1.0;" width="10" x="1062.4683" y="203.0762"/><rect fill="#FFFFFF" height="31.291" style="stroke:#181818;stroke-width:1.0;" width="10" x="1233.9229" y="588.8984"/><polygon fill="#181818" points="185.3452,67.9121,195.3452,71.9121,185.3452,75.9121,189.3452,71.9121" style="stroke:#181818;stroke-width:1.0;"/><line style="stroke:#181818;stroke-width:1.0;" x1="55.1172" x2="191.3452" y1="71.9121" y2="71.9121"/><text fill="#000000" font-family="sans-serif" font-size="13" font-weight="bold" lengthAdjust="spacing" textLength="7.23" x="62.1172" y="66.6494">1</text><text fill="#000000" font-family="sans-serif" font-size="13" lengthAdjust="spacing" textLength="111.998" x="73.3472" y="66.6494">POST/agents(data)</text><path d="M129,84.9121 L129,111.9121 L275,111.9121 L275,94.9121 L265,84.9121 L129,84.9121 " fill="#FEFFDD" style="stroke:#181818;stroke-width:0.5;"/><path d="M265,84.9121 L265,94.9121 L275,94.9121 L265,84.9121 " fill="#FEFFDD" style="stroke:#181818;stroke-width:0.5;"/><text fill="#000000" font-family="sans-serif" font-size="13" lengthAdjust="spacing" textLength="125.0107" x="135" y="103.9404">after doing some stuff</text><polygon fill="#181818" points="552.8984,136.4941,562.8984,140.4941,552.8984,144.4941,556.8984,140.4941" style="stroke:#181818;stroke-width:1.0;"/><line style="stroke:#181818;stroke-width:1.0;" x1="207.3452" x2="558.8984" y1="140.4941" y2="140.4941"/><text fill="#000000" font-family="sans-serif" font-size="13" font-weight="bold" lengthAdjust="spacing" textLength="7.23" x="214.3452" y="135.2314">2</text><text fill="#000000" font-family="sans-serif" font-size="13" lengthAdjust="spacing" textLength="327.3232" x="225.5752" y="135.2314">postAgent(name, idNumber, email, phoneNumber, store)</text><polygon fill="#181818" points="697.1792,167.7852,707.1792,171.7852,697.1792,175.7852,701.1792,171.7852" style="stroke:#181818;stroke-width:1.0;"/><line style="stroke:#181818;stroke-width:1.0;" x1="574.8984" x2="703.1792" y1="171.7852" y2="171.7852"/><text fill="#000000" font-family="sans-serif" font-size="13" font-weight="bold" lengthAdjust="spacing" textLength="7.23" x="581.8984" y="166.5225">3</text><text fill="#000000" font-family="sans-serif" font-size="13" lengthAdjust="spacing" textLength="104.0508" x="593.1284" y="166.5225">getAgentService()</text><polygon fill="#181818" points="1050.4683,199.0762,1060.4683,203.0762,1050.4683,207.0762,1054.4683,203.0762" style="stroke:#181818;stroke-width:1.0;"/><line style="stroke:#181818;stroke-width:1.0;" x1="719.1792" x2="1056.4683" y1="203.0762" y2="203.0762"/><text fill="#000000" font-family="sans-serif" font-size="13" font-weight="bold" lengthAdjust="spacing" textLength="7.23" x="726.1792" y="197.8135">4</text><text fill="#000000" font-family="sans-serif" font-size="13" lengthAdjust="spacing" textLength="122.8398" x="737.4092" y="197.8135">getAgentRepository()</text><polygon fill="#181818" points="730.1792,230.3672,720.1792,234.3672,730.1792,238.3672,726.1792,234.3672" style="stroke:#181818;stroke-width:1.0;"/><line style="stroke:#181818;stroke-width:1.0;stroke-dasharray:2.0,2.0;" x1="724.1792" x2="1066.4683" y1="234.3672" y2="234.3672"/><text fill="#000000" font-family="sans-serif" font-size="13" font-weight="bold" lengthAdjust="spacing" textLength="7.23" x="736.1792" y="229.1045">5</text><text fill="#000000" font-family="sans-serif" font-size="13" lengthAdjust="spacing" textLength="26.019" x="747.4092" y="229.1045">repo</text><polygon fill="#181818" points="813.2173,261.6582,823.2173,265.6582,813.2173,269.6582,817.2173,265.6582" style="stroke:#181818;stroke-width:1.0;"/><line style="stroke:#181818;stroke-width:1.0;stroke-dasharray:2.0,2.0;" x1="719.1792" x2="819.2173" y1="265.6582" y2="265.6582"/><text fill="#000000" font-family="sans-serif" font-size="13" font-weight="bold" lengthAdjust="spacing" textLength="7.23" x="726.1792" y="260.3955">6</text><text fill="#000000" font-family="sans-serif" font-size="13" lengthAdjust="spacing" textLength="70.8081" x="737.4092" y="260.3955">create(repo)</text><rect fill="#E2E2F0" height="32.6211" rx="2.5" ry="2.5" style="stroke:#181818;stroke-width:0.5;" width="145.5029" x="825.2173" y="242.3672"/><text fill="#000000" font-family="sans-serif" font-size="14" lengthAdjust="spacing" textLength="131.5029" x="832.2173" y="264.4746">service:AgentService</text><polygon fill="#181818" points="585.8984,305.2793,575.8984,309.2793,585.8984,313.2793,581.8984,309.2793" style="stroke:#181818;stroke-width:1.0;"/><line style="stroke:#181818;stroke-width:1.0;stroke-dasharray:2.0,2.0;" x1="579.8984" x2="713.1792" y1="309.2793" y2="309.2793"/><text fill="#000000" font-family="sans-serif" font-size="13" font-weight="bold" lengthAdjust="spacing" textLength="7.23" x="591.8984" y="304.0166">7</text><text fill="#000000" font-family="sans-serif" font-size="13" lengthAdjust="spacing" textLength="41.1772" x="603.1284" y="304.0166">service</text><polygon fill="#181818" points="880.9688,353.8613,890.9688,357.8613,880.9688,361.8613,884.9688,357.8613" style="stroke:#181818;stroke-width:1.0;"/><line style="stroke:#181818;stroke-width:1.0;" x1="574.8984" x2="886.9688" y1="357.8613" y2="357.8613"/><text fill="#000000" font-family="sans-serif" font-size="13" font-weight="bold" lengthAdjust="spacing" textLength="7.23" x="581.8984" y="343.9531">8</text><text fill="#000000" font-family="sans-serif" font-size="13" lengthAdjust="spacing" textLength="178.458" x="593.1284" y="335.3076">create(name, idNumber, email,</text><text fill="#000000" font-family="sans-serif" font-size="13" lengthAdjust="spacing" textLength="122.8398" x="596.7402" y="352.5986">phoneNumber, store)</text><polygon fill="#181818" points="1311.6294,402.4434,1321.6294,406.4434,1311.6294,410.4434,1315.6294,406.4434" style="stroke:#181818;stroke-width:1.0;"/><line style="stroke:#181818;stroke-width:1.0;stroke-dasharray:2.0,2.0;" x1="902.9688" x2="1317.6294" y1="406.4434" y2="406.4434"/><text fill="#000000" font-family="sans-serif" font-size="13" font-weight="bold" lengthAdjust="spacing" textLength="7.23" x="909.9688" y="392.5352">9</text><text fill="#000000" font-family="sans-serif" font-size="13" lengthAdjust="spacing" textLength="178.458" x="921.1987" y="383.8896">create(name, idNumber, email,</text><text fill="#000000" font-family="sans-serif" font-size="13" lengthAdjust="spacing" textLength="122.8398" x="924.8105" y="401.1807">phoneNumber, store)</text><rect fill="#E2E2F0" height="32.6211" rx="2.5" ry="2.5" style="stroke:#181818;stroke-width:0.5;" width="89.5098" x="1323.6294" y="370.8223"/><text fill="#000000" font-family="sans-serif" font-size="14" lengthAdjust="spacing" textLength="75.5098" x="1330.6294" y="392.9297">agent:Agent</text><polygon fill="#181818" points="585.8984,433.7344,575.8984,437.7344,585.8984,441.7344,581.8984,437.7344" style="stroke:#181818;stroke-width:1.0;"/><line style="stroke:#181818;stroke-width:1.0;stroke-dasharray:2.0,2.0;" x1="579.8984" x2="896.9688" y1="437.7344" y2="437.7344"/><text fill="#000000" font-family="sans-serif" font-size="13" font-weight="bold" lengthAdjust="spacing" textLength="14.46" x="591.8984" y="432.4717">10</text><text fill="#000000" font-family="sans-serif" font-size="13" lengthAdjust="spacing" textLength="32.5317" x="610.3584" y="432.4717">agent</text><polygon fill="#181818" points="880.9688,465.0254,890.9688,469.0254,880.9688,473.0254,884.9688,469.0254" style="stroke:#181818;stroke-width:1.0;"/><line style="stroke:#181818;stroke-width:1.0;" x1="574.8984" x2="886.9688" y1="469.0254" y2="469.0254"/><text fill="#000000" font-family="sans-serif" font-size="13" font-weight="bold" lengthAdjust="spacing" textLength="14.46" x="581.8984" y="463.7627">11</text><text fill="#000000" font-family="sans-serif" font-size="13" lengthAdjust="spacing" textLength="119.2407" x="600.3584" y="463.7627">addOrUpdate(agent)</text><line style="stroke:#181818;stroke-width:1.0;" x1="902.9688" x2="949.9688" y1="495.3164" y2="495.3164"/><line style="stroke:#181818;stroke-width:1.0;" x1="949.9688" x2="949.9688" y1="495.3164" y2="508.3164"/><line style="stroke:#181818;stroke-width:1.0;" x1="908.9688" x2="949.9688" y1="508.3164" y2="508.3164"/><polygon fill="#181818" points="918.9688,504.3164,908.9688,508.3164,918.9688,512.3164,914.9688,508.3164" style="stroke:#181818;stroke-width:1.0;"/><text fill="#000000" font-family="sans-serif" font-size="13" font-weight="bold" lengthAdjust="spacing" textLength="14.46" x="914.9688" y="490.0537">12</text><text fill="#000000" font-family="sans-serif" font-size="13" lengthAdjust="spacing" textLength="85.998" x="933.4287" y="490.0537">validate(agent)</text><line style="stroke:#181818;stroke-width:1.0;stroke-dasharray:2.0,2.0;" x1="907.9688" x2="949.9688" y1="549.6074" y2="549.6074"/><line style="stroke:#181818;stroke-width:1.0;stroke-dasharray:2.0,2.0;" x1="949.9688" x2="949.9688" y1="549.6074" y2="562.6074"/><line style="stroke:#181818;stroke-width:1.0;stroke-dasharray:2.0,2.0;" x1="902.9688" x2="949.9688" y1="562.6074" y2="562.6074"/><polygon fill="#181818" points="912.9688,558.6074,902.9688,562.6074,912.9688,566.6074,908.9688,562.6074" style="stroke:#181818;stroke-width:1.0;"/><text fill="#000000" font-family="sans-serif" font-size="13" font-weight="bold" lengthAdjust="spacing" textLength="14.46" x="914.9688" y="544.3447">13</text><text fill="#000000" font-family="sans-serif" font-size="13" lengthAdjust="spacing" textLength="13.73" x="933.4287" y="544.3447">ok</text><polygon fill="#181818" points="1221.9229,584.8984,1231.9229,588.8984,1221.9229,592.8984,1225.9229,588.8984" style="stroke:#181818;stroke-width:1.0;"/><line style="stroke:#181818;stroke-width:1.0;" x1="902.9688" x2="1227.9229" y1="588.8984" y2="588.8984"/><text fill="#000000" font-family="sans-serif" font-size="13" font-weight="bold" lengthAdjust="spacing" textLength="14.46" x="909.9688" y="583.6357">14</text><text fill="#000000" font-family="sans-serif" font-size="13" lengthAdjust="spacing" textLength="68.6499" x="928.4287" y="583.6357">save(agent)</text><polygon fill="#181818" points="913.9688,616.1895,903.9688,620.1895,913.9688,624.1895,909.9688,620.1895" style="stroke:#181818;stroke-width:1.0;"/><line style="stroke:#181818;stroke-width:1.0;stroke-dasharray:2.0,2.0;" x1="907.9688" x2="1237.9229" y1="620.1895" y2="620.1895"/><text fill="#000000" font-family="sans-serif" font-size="13" font-weight="bold" lengthAdjust="spacing" textLength="14.46" x="919.9688" y="614.9268">15</text><text fill="#000000" font-family="sans-serif" font-size="13" lengthAdjust="spacing" textLength="13.73" x="938.4287" y="614.9268">ok</text><polygon fill="#181818" points="585.8984,647.4805,575.8984,651.4805,585.8984,655.4805,581.8984,651.4805" style="stroke:#181818;stroke-width:1.0;"/><line style="stroke:#181818;stroke-width:1.0;stroke-dasharray:2.0,2.0;" x1="579.8984" x2="896.9688" y1="651.4805" y2="651.4805"/><text fill="#000000" font-family="sans-serif" font-size="13" font-weight="bold" lengthAdjust="spacing" textLength="14.46" x="591.8984" y="646.2178">16</text><text fill="#000000" font-family="sans-serif" font-size="13" lengthAdjust="spacing" textLength="13.73" x="610.3584" y="646.2178">ok</text><polygon fill="#181818" points="1411.1392,678.7715,1421.1392,682.7715,1411.1392,686.7715,1415.1392,682.7715" style="stroke:#181818;stroke-width:1.0;"/><line style="stroke:#181818;stroke-width:1.0;stroke-dasharray:2.0,2.0;" x1="574.8984" x2="1417.1392" y1="682.7715" y2="682.7715"/><text fill="#000000" font-family="sans-serif" font-size="13" font-weight="bold" lengthAdjust="spacing" textLength="14.46" x="581.8984" y="677.5088">17</text><text fill="#000000" font-family="sans-serif" font-size="13" lengthAdjust="spacing" textLength="66.479" x="600.3584" y="677.5088">create(201)</text><rect fill="#E2E2F0" height="32.6211" rx="2.5" ry="2.5" style="stroke:#181818;stroke-width:0.5;" width="117.4824" x="1423.1392" y="659.4805"/><text fill="#000000" font-family="sans-serif" font-size="14" lengthAdjust="spacing" textLength="103.4824" x="1430.1392" y="681.5879">result:HttpResult</text><polygon fill="#181818" points="218.3452,722.3926,208.3452,726.3926,218.3452,730.3926,214.3452,726.3926" style="stroke:#181818;stroke-width:1.0;"/><line style="stroke:#181818;stroke-width:1.0;stroke-dasharray:2.0,2.0;" x1="212.3452" x2="568.8984" y1="726.3926" y2="726.3926"/><text fill="#000000" font-family="sans-serif" font-size="13" font-weight="bold" lengthAdjust="spacing" textLength="14.46" x="224.3452" y="721.1299">18</text><text fill="#000000" font-family="sans-serif" font-size="13" lengthAdjust="spacing" textLength="31.7891" x="242.8052" y="721.1299">result</text><line style="stroke:#181818;stroke-width:1.0;" x1="207.3452" x2="254.3452" y1="752.6836" y2="752.6836"/><line style="stroke:#181818;stroke-width:1.0;" x1="254.3452" x2="254.3452" y1="752.6836" y2="765.6836"/><line style="stroke:#181818;stroke-width:1.0;" x1="213.3452" x2="254.3452" y1="765.6836" y2="765.6836"/><polygon fill="#181818" points="223.3452,761.6836,213.3452,765.6836,223.3452,769.6836,219.3452,765.6836" style="stroke:#181818;stroke-width:1.0;"/><text fill="#000000" font-family="sans-serif" font-size="13" font-weight="bold" lengthAdjust="spacing" textLength="14.46" x="219.3452" y="747.4209">19</text><text fill="#000000" font-family="sans-serif" font-size="13" lengthAdjust="spacing" textLength="150.9917" x="237.8052" y="747.4209">setHttpResult(resp, result)</text><line style="stroke:#181818;stroke-width:1.0;stroke-dasharray:2.0,2.0;" x1="212.3452" x2="254.3452" y1="806.9746" y2="806.9746"/><line style="stroke:#181818;stroke-width:1.0;stroke-dasharray:2.0,2.0;" x1="254.3452" x2="254.3452" y1="806.9746" y2="819.9746"/><line style="stroke:#181818;stroke-width:1.0;stroke-dasharray:2.0,2.0;" x1="207.3452" x2="254.3452" y1="819.9746" y2="819.9746"/><polygon fill="#181818" points="217.3452,815.9746,207.3452,819.9746,217.3452,823.9746,213.3452,819.9746" style="stroke:#181818;stroke-width:1.0;"/><text fill="#000000" font-family="sans-serif" font-size="13" font-weight="bold" lengthAdjust="spacing" textLength="14.46" x="219.3452" y="801.7119">20</text><text fill="#000000" font-family="sans-serif" font-size="13" lengthAdjust="spacing" textLength="3.6118" x="237.8052" y="801.7119">&#160;</text><polygon fill="#181818" points="66.1172,842.2656,56.1172,846.2656,66.1172,850.2656,62.1172,846.2656" style="stroke:#181818;stroke-width:1.0;"/><line style="stroke:#181818;stroke-width:1.0;stroke-dasharray:2.0,2.0;" x1="60.1172" x2="201.3452" y1="846.2656" y2="846.2656"/><text fill="#000000" font-family="sans-serif" font-size="13" font-weight="bold" lengthAdjust="spacing" textLength="14.46" x="72.1172" y="841.0029">21</text><text fill="#000000" font-family="sans-serif" font-size="13" lengthAdjust="spacing" textLength="25.2891" x="90.5771" y="841.0029">resp</text><!--SRC=[dPEvZjim48PxFWMnJQo57ISfMImG60XSPHUsqwLXfB5DH3n2ZWJuxSDB8kKOMwIRuNppQovzk28QnxPRqtE5W-m_jbfk7VmPGBMmwGI_M2u9uGDgtg8OEGBLAlfgaB_04cAuHT4AumNe4zkVJc-xNe329yeTBUwIktBLzM3PGGy8- -J4XEFD8SWxqQyNBx3J2gtk9t27jh_3TbfwwvR2oLuI3kmeMaXwn-IahoPxIPzznzhUs06CTYAOtz9BJCdsCiLwDAcNf4W7TudoG2KsbU1Pk5TpGuzixtTqY6QM2gRVoRIFQiQas7JpaeV9wDlhyRID7tIhZYDl254wR784EqFyZDxhj50NwhG4wd0udmb9yI0NHiwexmjZsIl59QofwBx7IrXJa5pqQsgkMi7qva9R3GcfKIAjXT4BOBs5bKTIA51vjhHWPPoUdCARMZ2ClcXiNhBmypEZhGK_frKWcXh93UMhc6lCcNFUupP_geUDvkGe7rTQ5V3VGgdEkC1_g-HTzsf_c2vy8I9LxepvKOwy5m-X1QL_rzbXx7v0V9opmiixANEn_Z5L6bN2nLQ3-FBfSrF2qm6cSw_kRGeumF8F-3KwiyvmCzC5hv_Axn3b3I5_0G00]--></g></svg>