<svg xmlns="http://www.w3.org/2000/svg" xmlns:xlink="http://www.w3.org/1999/xlink" contentStyleType="text/css" height="561px" preserveAspectRatio="none" style="width:1295px;height:561px;background:#FFFFFF;" version="1.1" viewBox="0 0 1295 561" width="1295px" zoomAndPan="magnify"><defs/><g><!--class RegisterStoreView--><g id="elem_RegisterStoreView"><rect codeLine="6" fill="#F1F1F1" height="44.6211" id="RegisterStoreView" rx="2.5" ry="2.5" style="stroke:#181818;stroke-width:0.5;" width="121.9375" x="586.5" y="7"/><text fill="#000000" font-family="sans-serif" font-size="14" lengthAdjust="spacing" textLength="115.9375" x="589.5" y="27.1074">RegisterStoreView</text><line style="stroke:#181818;stroke-width:0.5;" x1="587.5" x2="707.4375" y1="35.6211" y2="35.6211"/><line style="stroke:#181818;stroke-width:0.5;" x1="587.5" x2="707.4375" y1="43.6211" y2="43.6211"/></g><!--class RegisterStoreController--><g id="elem_RegisterStoreController"><rect codeLine="8" fill="#F1F1F1" height="63.2422" id="RegisterStoreController" rx="2.5" ry="2.5" style="stroke:#181818;stroke-width:0.5;" width="686.249" x="304.5" y="113"/><text fill="#000000" font-family="sans-serif" font-size="14" lengthAdjust="spacing" textLength="146.2822" x="574.4834" y="133.1074">RegisterStoreController</text><line style="stroke:#181818;stroke-width:0.5;" x1="305.5" x2="989.749" y1="141.6211" y2="141.6211"/><line style="stroke:#181818;stroke-width:0.5;" x1="305.5" x2="989.749" y1="149.6211" y2="149.6211"/><text fill="#000000" font-family="sans-serif" font-size="14" lengthAdjust="spacing" textLength="674.249" x="310.5" y="168.7285">+registerStore(string code, string designation, string address, string openingTime, string closingTime): Result</text></g><!--class Company--><g id="elem_Company"><rect codeLine="12" fill="#F1F1F1" height="63.2422" id="Company" rx="2.5" ry="2.5" style="stroke:#181818;stroke-width:0.5;" width="245.0713" x="7" y="246.5"/><text fill="#000000" font-family="sans-serif" font-size="14" lengthAdjust="spacing" textLength="59.917" x="99.5771" y="266.6074">Company</text><line style="stroke:#181818;stroke-width:0.5;" x1="8" x2="251.0713" y1="275.1211" y2="275.1211"/><line style="stroke:#181818;stroke-width:0.5;" x1="8" x2="251.0713" y1="283.1211" y2="283.1211"/><text fill="#000000" font-family="sans-serif" font-size="14" lengthAdjust="spacing" textLength="233.0713" x="13" y="302.2285">+getStoreContainer(): StoreContainer</text></g><!--class StoreService--><g id="elem_StoreService"><rect codeLine="16" fill="#F1F1F1" height="81.8633" id="StoreService" rx="2.5" ry="2.5" style="stroke:#181818;stroke-width:0.5;" width="638.7939" x="328" y="237"/><text fill="#000000" font-family="sans-serif" font-size="14" lengthAdjust="spacing" textLength="80.1445" x="607.3247" y="257.1074">StoreService</text><line style="stroke:#181818;stroke-width:0.5;" x1="329" x2="965.7939" y1="265.6211" y2="265.6211"/><line style="stroke:#181818;stroke-width:0.5;" x1="329" x2="965.7939" y1="273.6211" y2="273.6211"/><text fill="#000000" font-family="sans-serif" font-size="14" lengthAdjust="spacing" textLength="266.5059" x="334" y="292.7285">+StoreService(StoreRepository storeRepo)</text><text fill="#000000" font-family="sans-serif" font-size="14" lengthAdjust="spacing" textLength="626.7939" x="334" y="311.3496">+create(string code, string designation, string address, string openingTime, string closingTime): Store</text></g><!--class StoreRepository--><g id="elem_StoreRepository"><rect codeLine="21" fill="#F1F1F1" height="79.2031" id="StoreRepository" rx="2.5" ry="2.5" style="stroke:#181818;stroke-width:0.5;" width="162.5684" x="462" y="436.5"/><text fill="#000000" font-family="sans-serif" font-size="12" font-style="italic" lengthAdjust="spacing" textLength="59.373" x="513.5977" y="454.4492">&#171;interface&#187;</text><text fill="#000000" font-family="sans-serif" font-size="14" font-style="italic" lengthAdjust="spacing" textLength="100.3789" x="493.0947" y="472.5684">StoreRepository</text><line style="stroke:#181818;stroke-width:0.5;" x1="463" x2="623.5684" y1="481.082" y2="481.082"/><line style="stroke:#181818;stroke-width:0.5;" x1="463" x2="623.5684" y1="489.082" y2="489.082"/><text fill="#000000" font-family="sans-serif" font-size="14" lengthAdjust="spacing" textLength="150.5684" x="468" y="508.1895">+save(Store obj): Result</text></g><!--class RepositoryFactory--><g id="elem_RepositoryFactory"><rect codeLine="25" fill="#F1F1F1" height="79.2031" id="RepositoryFactory" rx="2.5" ry="2.5" style="stroke:#181818;stroke-width:0.5;" width="257.499" x="122" y="436.5"/><text fill="#000000" font-family="sans-serif" font-size="12" font-style="italic" lengthAdjust="spacing" textLength="59.373" x="221.063" y="454.4492">&#171;interface&#187;</text><text fill="#000000" font-family="sans-serif" font-size="14" font-style="italic" lengthAdjust="spacing" textLength="113.5928" x="193.9531" y="472.5684">RepositoryFactory</text><line style="stroke:#181818;stroke-width:0.5;" x1="123" x2="378.499" y1="481.082" y2="481.082"/><line style="stroke:#181818;stroke-width:0.5;" x1="123" x2="378.499" y1="489.082" y2="489.082"/><text fill="#000000" font-family="sans-serif" font-size="14" lengthAdjust="spacing" textLength="245.499" x="128" y="508.1895">+getStoreRepository(): StoreRepository</text></g><!--class Store--><g id="elem_Store"><rect codeLine="29" fill="#F1F1F1" height="156.3477" id="Store" rx="2.5" ry="2.5" style="stroke:#181818;stroke-width:0.5;" width="583.9287" x="704.5" y="398"/><text fill="#000000" font-family="sans-serif" font-size="14" lengthAdjust="spacing" textLength="33.4619" x="979.7334" y="418.1074">Store</text><line style="stroke:#181818;stroke-width:0.5;" x1="705.5" x2="1287.4287" y1="426.6211" y2="426.6211"/><text fill="#000000" font-family="sans-serif" font-size="14" lengthAdjust="spacing" textLength="35.0205" x="710.5" y="445.7285">-code</text><text fill="#000000" font-family="sans-serif" font-size="14" lengthAdjust="spacing" textLength="76.2754" x="710.5" y="464.3496">-designation</text><text fill="#000000" font-family="sans-serif" font-size="14" lengthAdjust="spacing" textLength="54.4688" x="710.5" y="482.9707">-address</text><text fill="#000000" font-family="sans-serif" font-size="14" lengthAdjust="spacing" textLength="85.5996" x="710.5" y="501.5918">-openingTime</text><text fill="#000000" font-family="sans-serif" font-size="14" lengthAdjust="spacing" textLength="79.3516" x="710.5" y="520.2129">-closingTime</text><line style="stroke:#181818;stroke-width:0.5;" x1="705.5" x2="1287.4287" y1="527.7266" y2="527.7266"/><text fill="#000000" font-family="sans-serif" font-size="14" lengthAdjust="spacing" textLength="571.9287" x="710.5" y="546.834">Store(string code, string designation, string address, string openingTime, string closingTime)</text></g><!--link Company to RepositoryFactory--><g id="link_Company_RepositoryFactory"><path codeLine="38" d="M148.41,309.62 C169.48,343.76 200.438,393.9146 223.368,431.0546 " fill="none" id="Company-to-RepositoryFactory" style="stroke:#181818;stroke-width:1.0;"/><polygon fill="#181818" points="226.52,436.16,225.1955,426.4006,223.8933,431.9055,218.3884,430.6033,226.52,436.16" style="stroke:#181818;stroke-width:1.0;"/><text fill="#000000" font-family="sans-serif" font-size="13" lengthAdjust="spacing" textLength="27.46" x="184.5" y="364.0283">uses</text><text fill="#000000" font-family="sans-serif" font-size="13" lengthAdjust="spacing" textLength="7.23" x="144.6047" y="331.9281">1</text><text fill="#000000" font-family="sans-serif" font-size="13" lengthAdjust="spacing" textLength="7.23" x="214.9463" y="425.1893">1</text></g><!--link StoreRepository to Store--><g id="link_StoreRepository_Store"><path codeLine="39" d="M625.01,476 C648.57,476 669.75,476 698.46,476 " fill="none" id="StoreRepository-to-Store" style="stroke:#181818;stroke-width:1.0;"/><polygon fill="#181818" points="704.46,476,695.46,472,699.46,476,695.46,480,704.46,476" style="stroke:#181818;stroke-width:1.0;"/><text fill="#000000" font-family="sans-serif" font-size="13" lengthAdjust="spacing" textLength="43.3481" x="643.25" y="469.0283">records</text><text fill="#000000" font-family="sans-serif" font-size="13" lengthAdjust="spacing" textLength="7.23" x="632.6107" y="472.2752">1</text><text fill="#000000" font-family="sans-serif" font-size="13" lengthAdjust="spacing" textLength="19.5127" x="676.5167" y="490.2798">0..*</text></g><!--link RegisterStoreView to RegisterStoreController--><g id="link_RegisterStoreView_RegisterStoreController"><path codeLine="41" d="M647.5,52.02 C647.5,69.18 647.5,87.44 647.5,106.67 " fill="none" id="RegisterStoreView-to-RegisterStoreController" style="stroke:#181818;stroke-width:1.0;stroke-dasharray:7.0,7.0;"/><polygon fill="#181818" points="647.5,112.67,651.5,103.67,647.5,107.67,643.5,103.67,647.5,112.67" style="stroke:#181818;stroke-width:1.0;"/></g><!--link RegisterStoreController to Company--><g id="link_RegisterStoreController_Company"><path codeLine="42" d="M527.03,176.08 C443.64,197.25 338.8955,223.8435 255.5555,245.0035 " fill="none" id="RegisterStoreController-to-Company" style="stroke:#181818;stroke-width:1.0;stroke-dasharray:7.0,7.0;"/><polygon fill="#181818" points="249.74,246.48,259.4476,248.1422,254.5862,245.2495,257.4789,240.3882,249.74,246.48" style="stroke:#181818;stroke-width:1.0;"/></g><!--link RegisterStoreController to StoreService--><g id="link_RegisterStoreController_StoreService"><path codeLine="43" d="M647.5,176.33 C647.5,194.4 647.5,211.42 647.5,230.89 " fill="none" id="RegisterStoreController-to-StoreService" style="stroke:#181818;stroke-width:1.0;stroke-dasharray:7.0,7.0;"/><polygon fill="#181818" points="647.5,236.89,651.5,227.89,647.5,231.89,643.5,227.89,647.5,236.89" style="stroke:#181818;stroke-width:1.0;"/></g><!--link StoreService to StoreRepository--><g id="link_StoreService_StoreRepository"><path codeLine="44" d="M626.2,319.14 C608.02,353.41 584.8427,397.0901 566.8727,430.9501 " fill="none" id="StoreService-to-StoreRepository" style="stroke:#181818;stroke-width:1.0;stroke-dasharray:7.0,7.0;"/><polygon fill="#181818" points="564.06,436.25,571.8123,430.1753,566.4039,431.8334,564.7458,426.4251,564.06,436.25" style="stroke:#181818;stroke-width:1.0;"/></g><!--link StoreService to Store--><g id="link_StoreService_Store"><path codeLine="45" d="M718.97,319.14 C759.35,341.82 805.9684,368.0023 853.9084,394.9223 " fill="none" id="StoreService-to-Store" style="stroke:#181818;stroke-width:1.0;stroke-dasharray:7.0,7.0;"/><polygon fill="#181818" points="859.14,397.86,853.2511,389.9657,854.7803,395.4119,849.3341,396.9411,859.14,397.86" style="stroke:#181818;stroke-width:1.0;"/></g><!--link RegisterStoreController to Store--><g id="link_RegisterStoreController_Store"><path codeLine="46" d="M833.2,176.01 C899.9,190.95 963.82,211.33 984.5,237 C1020.25,281.38 1021.8068,340.9645 1014.8768,392.0345 " fill="none" id="RegisterStoreController-to-Store" style="stroke:#181818;stroke-width:1.0;stroke-dasharray:7.0,7.0;"/><polygon fill="#181818" points="1014.07,397.98,1019.2438,389.5996,1014.7423,393.0254,1011.3165,388.5239,1014.07,397.98" style="stroke:#181818;stroke-width:1.0;"/></g><!--link Company to StoreService--><g id="link_Company_StoreService"><path codeLine="48" d="M252.26,278 C275.74,278 295.32,278 321.79,278 " fill="none" id="Company-to-StoreService" style="stroke:#181818;stroke-width:1.0;"/><polygon fill="#181818" points="327.79,278,318.79,274,322.79,278,318.79,282,327.79,278" style="stroke:#181818;stroke-width:1.0;"/><text fill="#000000" font-family="sans-serif" font-size="13" lengthAdjust="spacing" textLength="39.0317" x="270.5" y="271.0283">adopts</text></g><!--link RepositoryFactory to StoreRepository--><g id="link_RepositoryFactory_StoreRepository"><path codeLine="49" d="M379.26,476 C406.74,476 428.22,476 455.7,476 " fill="none" id="RepositoryFactory-to-StoreRepository" style="stroke:#181818;stroke-width:1.0;stroke-dasharray:7.0,7.0;"/><polygon fill="#181818" points="461.7,476,452.7,472,456.7,476,452.7,480,461.7,476" style="stroke:#181818;stroke-width:1.0;"/></g><!--SRC=[jLFBRi8m4BpxAomkXT84UerGf0gfKgzGzMwSRN2Rs97N0L7KVw_Zk772epsHIxoph_7i-cvhJ8N9R5OLJ9gwB6AkoXal66AK2PPhLXAo5HbGBZGlWE2da1MpC7L1JyPeiQaDl70br-8Bw9mGvw4ho0KQq6kZDBm9s1-_BxgMIXgjYWBqaL3xJNNVEqRRGEQKgmmUg3SoG95BPeII7SQoJ0DYPwiAfFs_YZBayKAXnoQ9PO5rOKZ7QgdAYic3Pv63wUWn8K6FRSeG2QaENuFU2Gv7CXtOOsUieBAzxUbWoNXxqdRY6fYvvKKTWOQia5RMTyQ1dd9QB3fVcjBc2iXsdZfLcu-1NA5CgF3C-9L2lqA6s4x909r8sSuWQhHeJpqXMi2hq1ez2NnYkBy3RhjA3Nc_F7JqEB9irLv6gJkVAPJG6W79wG1SdXRvrZI9ypY-7xMi4wg1AvqX8MSlYiPnUkqnaIkuo_5i_upfxp3f6y7Rcz_bWFyR1EMYOSl4Za5L1idvZiLEfpWzvV03]--></g></svg>