<svg xmlns="http://www.w3.org/2000/svg" xmlns:xlink="http://www.w3.org/1999/xlink" contentStyleType="text/css" height="857px" preserveAspectRatio="none" style="width:1394px;height:857px;background:#FFFFFF;" version="1.1" viewBox="0 0 1394 857" width="1394px" zoomAndPan="magnify"><defs/><g><rect fill="#FFFFFF" height="671.7324" style="stroke:#181818;stroke-width:1.0;" width="10" x="44.2344" y="93.6211"/><rect fill="#FFFFFF" height="48.582" style="stroke:#181818;stroke-width:1.0;" width="10" x="302.6123" y="116.9121"/><rect fill="#FFFFFF" height="559.5684" style="stroke:#181818;stroke-width:1.0;" width="10" x="302.6123" y="196.7852"/><rect fill="#FFFFFF" height="479.6953" style="stroke:#181818;stroke-width:1.0;" width="10" x="555.9902" y="245.3672"/><rect fill="#FFFFFF" height="137.4941" style="stroke:#181818;stroke-width:1.0;" width="10" x="697.3701" y="276.6582"/><rect fill="#FFFFFF" height="231.0371" style="stroke:#181818;stroke-width:1.0;" width="10" x="879.5977" y="462.7344"/><rect fill="#FFFFFF" height="42.291" style="stroke:#181818;stroke-width:1.0;" width="10" x="884.5977" y="550.6074"/><rect fill="#FFFFFF" height="31.291" style="stroke:#181818;stroke-width:1.0;" width="10" x="1047.5352" y="307.9492"/><rect fill="#FFFFFF" height="31.291" style="stroke:#181818;stroke-width:1.0;" width="10" x="1217.4277" y="631.1895"/><line style="stroke:#181818;stroke-width:0.5;stroke-dasharray:5.0,5.0;" x1="49" x2="49" y1="83.6211" y2="774.3535"/><line style="stroke:#181818;stroke-width:0.5;stroke-dasharray:5.0,5.0;" x1="306.6987" x2="306.6987" y1="83.6211" y2="774.3535"/><line style="stroke:#181818;stroke-width:0.5;stroke-dasharray:5.0,5.0;" x1="560.9043" x2="560.9043" y1="83.6211" y2="774.3535"/><line style="stroke:#181818;stroke-width:0.5;stroke-dasharray:5.0,5.0;" x1="701.4668" x2="701.4668" y1="83.6211" y2="774.3535"/><line style="stroke:#181818;stroke-width:0.5;stroke-dasharray:5.0,5.0;" x1="884.4082" x2="884.4082" y1="379.0508" y2="774.3535"/><line style="stroke:#181818;stroke-width:0.5;stroke-dasharray:5.0,5.0;" x1="1051.7871" x2="1051.7871" y1="83.6211" y2="774.3535"/><line style="stroke:#181818;stroke-width:0.5;stroke-dasharray:5.0,5.0;" x1="1222.2832" x2="1222.2832" y1="83.6211" y2="774.3535"/><line style="stroke:#181818;stroke-width:0.5;stroke-dasharray:5.0,5.0;" x1="1346.5723" x2="1346.5723" y1="505.0254" y2="774.3535"/><text fill="#000000" font-family="sans-serif" font-size="14" lengthAdjust="spacing" textLength="82.4688" x="5" y="80.1074">Administrator</text><ellipse cx="49.2344" cy="13.5" fill="#E2E2F0" rx="8" ry="8" style="stroke:#181818;stroke-width:0.5;"/><path d="M49.2344,21.5 L49.2344,48.5 M36.2344,29.5 L62.2344,29.5 M49.2344,48.5 L36.2344,63.5 M49.2344,48.5 L62.2344,63.5 " fill="none" style="stroke:#181818;stroke-width:0.5;"/><text fill="#000000" font-family="sans-serif" font-size="14" lengthAdjust="spacing" textLength="82.4688" x="5" y="788.4609">Administrator</text><ellipse cx="49.2344" cy="800.4746" fill="#E2E2F0" rx="8" ry="8" style="stroke:#181818;stroke-width:0.5;"/><path d="M49.2344,808.4746 L49.2344,835.4746 M36.2344,816.4746 L62.2344,816.4746 M49.2344,835.4746 L36.2344,850.4746 M49.2344,835.4746 L62.2344,850.4746 " fill="none" style="stroke:#181818;stroke-width:0.5;"/><rect fill="#E2E2F0" height="32.6211" rx="2.5" ry="2.5" style="stroke:#181818;stroke-width:0.5;" width="133.8271" x="240.6987" y="50"/><text fill="#000000" font-family="sans-serif" font-size="14" lengthAdjust="spacing" textLength="119.8271" x="247.6987" y="72.1074">:RegisterStoreView</text><rect fill="#E2E2F0" height="32.6211" rx="2.5" ry="2.5" style="stroke:#181818;stroke-width:0.5;" width="133.8271" x="240.6987" y="773.3535"/><text fill="#000000" font-family="sans-serif" font-size="14" lengthAdjust="spacing" textLength="119.8271" x="247.6987" y="795.4609">:RegisterStoreView</text><rect fill="#E2E2F0" height="32.6211" rx="2.5" ry="2.5" style="stroke:#181818;stroke-width:0.5;" width="164.1719" x="478.9043" y="50"/><text fill="#000000" font-family="sans-serif" font-size="14" lengthAdjust="spacing" textLength="150.1719" x="485.9043" y="72.1074">:RegisterStoreController</text><rect fill="#E2E2F0" height="32.6211" rx="2.5" ry="2.5" style="stroke:#181818;stroke-width:0.5;" width="164.1719" x="478.9043" y="773.3535"/><text fill="#000000" font-family="sans-serif" font-size="14" lengthAdjust="spacing" textLength="150.1719" x="485.9043" y="795.4609">:RegisterStoreController</text><rect fill="#E2E2F0" height="32.6211" rx="2.5" ry="2.5" style="stroke:#181818;stroke-width:0.5;" width="77.8066" x="663.4668" y="50"/><text fill="#000000" font-family="sans-serif" font-size="14" lengthAdjust="spacing" textLength="63.8066" x="670.4668" y="72.1074">:Company</text><rect fill="#E2E2F0" height="32.6211" rx="2.5" ry="2.5" style="stroke:#181818;stroke-width:0.5;" width="77.8066" x="663.4668" y="773.3535"/><text fill="#000000" font-family="sans-serif" font-size="14" lengthAdjust="spacing" textLength="63.8066" x="670.4668" y="795.4609">:Company</text><rect fill="#E2E2F0" height="32.6211" rx="2.5" ry="2.5" style="stroke:#181818;stroke-width:0.5;" width="142.3789" x="813.4082" y="773.3535"/><text fill="#000000" font-family="sans-serif" font-size="14" lengthAdjust="spacing" textLength="128.3789" x="820.4082" y="795.4609">service:StoreService</text><rect fill="#E2E2F0" height="32.6211" rx="2.5" ry="2.5" style="stroke:#181818;stroke-width:0.5;" width="173.4961" x="965.7871" y="50"/><text fill="#000000" font-family="sans-serif" font-size="14" lengthAdjust="spacing" textLength="159.4961" x="972.7871" y="72.1074">factory:RepositoryFactory</text><rect fill="#E2E2F0" height="32.6211" rx="2.5" ry="2.5" style="stroke:#181818;stroke-width:0.5;" width="173.4961" x="965.7871" y="773.3535"/><text fill="#000000" font-family="sans-serif" font-size="14" lengthAdjust="spacing" textLength="159.4961" x="972.7871" y="795.4609">factory:RepositoryFactory</text><rect fill="#E2E2F0" height="32.6211" rx="2.5" ry="2.5" style="stroke:#181818;stroke-width:0.5;" width="146.2891" x="1149.2832" y="50"/><text fill="#000000" font-family="sans-serif" font-size="14" lengthAdjust="spacing" textLength="132.2891" x="1156.2832" y="72.1074">repo:StoreRepository</text><rect fill="#E2E2F0" height="32.6211" rx="2.5" ry="2.5" style="stroke:#181818;stroke-width:0.5;" width="146.2891" x="1149.2832" y="773.3535"/><text fill="#000000" font-family="sans-serif" font-size="14" lengthAdjust="spacing" textLength="132.2891" x="1156.2832" y="795.4609">repo:StoreRepository</text><rect fill="#E2E2F0" height="32.6211" rx="2.5" ry="2.5" style="stroke:#181818;stroke-width:0.5;" width="82.4756" x="1305.5723" y="773.3535"/><text fill="#000000" font-family="sans-serif" font-size="14" lengthAdjust="spacing" textLength="68.4756" x="1312.5723" y="795.4609">store:Store</text><rect fill="#FFFFFF" height="671.7324" style="stroke:#181818;stroke-width:1.0;" width="10" x="44.2344" y="93.6211"/><rect fill="#FFFFFF" height="48.582" style="stroke:#181818;stroke-width:1.0;" width="10" x="302.6123" y="116.9121"/><rect fill="#FFFFFF" height="559.5684" style="stroke:#181818;stroke-width:1.0;" width="10" x="302.6123" y="196.7852"/><rect fill="#FFFFFF" height="479.6953" style="stroke:#181818;stroke-width:1.0;" width="10" x="555.9902" y="245.3672"/><rect fill="#FFFFFF" height="137.4941" style="stroke:#181818;stroke-width:1.0;" width="10" x="697.3701" y="276.6582"/><rect fill="#FFFFFF" height="231.0371" style="stroke:#181818;stroke-width:1.0;" width="10" x="879.5977" y="462.7344"/><rect fill="#FFFFFF" height="42.291" style="stroke:#181818;stroke-width:1.0;" width="10" x="884.5977" y="550.6074"/><rect fill="#FFFFFF" height="31.291" style="stroke:#181818;stroke-width:1.0;" width="10" x="1047.5352" y="307.9492"/><rect fill="#FFFFFF" height="31.291" style="stroke:#181818;stroke-width:1.0;" width="10" x="1217.4277" y="631.1895"/><polygon fill="#181818" points="290.6123,112.9121,300.6123,116.9121,290.6123,120.9121,294.6123,116.9121" style="stroke:#181818;stroke-width:1.0;"/><line style="stroke:#181818;stroke-width:1.0;" x1="54.2344" x2="296.6123" y1="116.9121" y2="116.9121"/><text fill="#000000" font-family="sans-serif" font-size="13" font-weight="bold" lengthAdjust="spacing" textLength="7.23" x="61.2344" y="111.6494">1</text><text fill="#000000" font-family="sans-serif" font-size="13" lengthAdjust="spacing" textLength="131.498" x="72.4644" y="111.6494">asks to register a store</text><polygon fill="#181818" points="65.2344,161.4941,55.2344,165.4941,65.2344,169.4941,61.2344,165.4941" style="stroke:#181818;stroke-width:1.0;"/><line style="stroke:#181818;stroke-width:1.0;stroke-dasharray:2.0,2.0;" x1="59.2344" x2="306.6123" y1="165.4941" y2="165.4941"/><text fill="#000000" font-family="sans-serif" font-size="13" font-weight="bold" lengthAdjust="spacing" textLength="7.23" x="71.2344" y="151.5859">2</text><text fill="#000000" font-family="sans-serif" font-size="13" lengthAdjust="spacing" textLength="192.2388" x="82.4644" y="142.9404">requests data (code, designation,</text><text fill="#000000" font-family="sans-serif" font-size="13" lengthAdjust="spacing" textLength="209.5361" x="86.0762" y="160.2314">address, openingTime, closingTime)</text><polygon fill="#181818" points="290.6123,192.7852,300.6123,196.7852,290.6123,200.7852,294.6123,196.7852" style="stroke:#181818;stroke-width:1.0;"/><line style="stroke:#181818;stroke-width:1.0;" x1="54.2344" x2="296.6123" y1="196.7852" y2="196.7852"/><text fill="#000000" font-family="sans-serif" font-size="13" font-weight="bold" lengthAdjust="spacing" textLength="7.23" x="61.2344" y="191.5225">3</text><text fill="#000000" font-family="sans-serif" font-size="13" lengthAdjust="spacing" textLength="121.418" x="72.4644" y="191.5225">types requested data</text><polygon fill="#181818" points="543.9902,241.3672,553.9902,245.3672,543.9902,249.3672,547.9902,245.3672" style="stroke:#181818;stroke-width:1.0;"/><line style="stroke:#181818;stroke-width:1.0;" x1="312.6123" x2="549.9902" y1="245.3672" y2="245.3672"/><text fill="#000000" font-family="sans-serif" font-size="13" font-weight="bold" lengthAdjust="spacing" textLength="7.23" x="319.6123" y="231.459">4</text><text fill="#000000" font-family="sans-serif" font-size="13" lengthAdjust="spacing" textLength="184.2725" x="330.8423" y="222.8135">registerStore(code, designation,</text><text fill="#000000" font-family="sans-serif" font-size="13" lengthAdjust="spacing" textLength="209.5361" x="334.4541" y="240.1045">address, openingTime, closingTime)</text><polygon fill="#181818" points="685.3701,272.6582,695.3701,276.6582,685.3701,280.6582,689.3701,276.6582" style="stroke:#181818;stroke-width:1.0;"/><line style="stroke:#181818;stroke-width:1.0;" x1="565.9902" x2="691.3701" y1="276.6582" y2="276.6582"/><text fill="#000000" font-family="sans-serif" font-size="13" font-weight="bold" lengthAdjust="spacing" textLength="7.23" x="572.9902" y="271.3955">5</text><text fill="#000000" font-family="sans-serif" font-size="13" lengthAdjust="spacing" textLength="101.1499" x="584.2202" y="271.3955">getStoreService()</text><polygon fill="#181818" points="1035.5352,303.9492,1045.5352,307.9492,1035.5352,311.9492,1039.5352,307.9492" style="stroke:#181818;stroke-width:1.0;"/><line style="stroke:#181818;stroke-width:1.0;" x1="707.3701" x2="1041.5352" y1="307.9492" y2="307.9492"/><text fill="#000000" font-family="sans-serif" font-size="13" font-weight="bold" lengthAdjust="spacing" textLength="7.23" x="714.3701" y="302.6865">6</text><text fill="#000000" font-family="sans-serif" font-size="13" lengthAdjust="spacing" textLength="119.939" x="725.6001" y="302.6865">getStoreRepository()</text><polygon fill="#181818" points="718.3701,335.2402,708.3701,339.2402,718.3701,343.2402,714.3701,339.2402" style="stroke:#181818;stroke-width:1.0;"/><line style="stroke:#181818;stroke-width:1.0;stroke-dasharray:2.0,2.0;" x1="712.3701" x2="1051.5352" y1="339.2402" y2="339.2402"/><text fill="#000000" font-family="sans-serif" font-size="13" font-weight="bold" lengthAdjust="spacing" textLength="7.23" x="724.3701" y="333.9775">7</text><text fill="#000000" font-family="sans-serif" font-size="13" lengthAdjust="spacing" textLength="26.019" x="735.6001" y="333.9775">repo</text><polygon fill="#181818" points="801.4082,366.5313,811.4082,370.5313,801.4082,374.5313,805.4082,370.5313" style="stroke:#181818;stroke-width:1.0;"/><line style="stroke:#181818;stroke-width:1.0;" x1="707.3701" x2="807.4082" y1="370.5313" y2="370.5313"/><text fill="#000000" font-family="sans-serif" font-size="13" font-weight="bold" lengthAdjust="spacing" textLength="7.23" x="714.3701" y="365.2686">8</text><text fill="#000000" font-family="sans-serif" font-size="13" lengthAdjust="spacing" textLength="70.8081" x="725.6001" y="365.2686">create(repo)</text><rect fill="#E2E2F0" height="32.6211" rx="2.5" ry="2.5" style="stroke:#181818;stroke-width:0.5;" width="142.3789" x="813.4082" y="347.2402"/><text fill="#000000" font-family="sans-serif" font-size="14" lengthAdjust="spacing" textLength="128.3789" x="820.4082" y="369.3477">service:StoreService</text><polygon fill="#181818" points="576.9902,410.1523,566.9902,414.1523,576.9902,418.1523,572.9902,414.1523" style="stroke:#181818;stroke-width:1.0;"/><line style="stroke:#181818;stroke-width:1.0;stroke-dasharray:2.0,2.0;" x1="570.9902" x2="701.3701" y1="414.1523" y2="414.1523"/><text fill="#000000" font-family="sans-serif" font-size="13" font-weight="bold" lengthAdjust="spacing" textLength="7.23" x="582.9902" y="408.8896">9</text><text fill="#000000" font-family="sans-serif" font-size="13" lengthAdjust="spacing" textLength="41.1772" x="594.2202" y="408.8896">service</text><polygon fill="#181818" points="867.5977,458.7344,877.5977,462.7344,867.5977,466.7344,871.5977,462.7344" style="stroke:#181818;stroke-width:1.0;"/><line style="stroke:#181818;stroke-width:1.0;" x1="565.9902" x2="873.5977" y1="462.7344" y2="462.7344"/><text fill="#000000" font-family="sans-serif" font-size="13" font-weight="bold" lengthAdjust="spacing" textLength="14.46" x="572.9902" y="448.8262">10</text><text fill="#000000" font-family="sans-serif" font-size="13" lengthAdjust="spacing" textLength="229.8169" x="591.4502" y="440.1807">createAndSaveStore(code, designation,</text><text fill="#000000" font-family="sans-serif" font-size="13" lengthAdjust="spacing" textLength="209.5361" x="595.062" y="457.4717">address, openingTime, closingTime)</text><polygon fill="#181818" points="1293.5723,507.3164,1303.5723,511.3164,1293.5723,515.3164,1297.5723,511.3164" style="stroke:#181818;stroke-width:1.0;"/><line style="stroke:#181818;stroke-width:1.0;stroke-dasharray:2.0,2.0;" x1="889.5977" x2="1299.5723" y1="511.3164" y2="511.3164"/><text fill="#000000" font-family="sans-serif" font-size="13" font-weight="bold" lengthAdjust="spacing" textLength="14.46" x="896.5977" y="497.4082">11</text><text fill="#000000" font-family="sans-serif" font-size="13" lengthAdjust="spacing" textLength="195.8442" x="915.0576" y="488.7627">create(code, designation,address,</text><text fill="#000000" font-family="sans-serif" font-size="13" lengthAdjust="spacing" textLength="156.0635" x="918.6694" y="506.0537">openingTime, closingTime)</text><rect fill="#E2E2F0" height="32.6211" rx="2.5" ry="2.5" style="stroke:#181818;stroke-width:0.5;" width="82.4756" x="1305.5723" y="475.6953"/><text fill="#000000" font-family="sans-serif" font-size="14" lengthAdjust="spacing" textLength="68.4756" x="1312.5723" y="497.8027">store:Store</text><line style="stroke:#181818;stroke-width:1.0;" x1="889.5977" x2="936.5977" y1="537.6074" y2="537.6074"/><line style="stroke:#181818;stroke-width:1.0;" x1="936.5977" x2="936.5977" y1="537.6074" y2="550.6074"/><line style="stroke:#181818;stroke-width:1.0;" x1="895.5977" x2="936.5977" y1="550.6074" y2="550.6074"/><polygon fill="#181818" points="905.5977,546.6074,895.5977,550.6074,905.5977,554.6074,901.5977,550.6074" style="stroke:#181818;stroke-width:1.0;"/><text fill="#000000" font-family="sans-serif" font-size="13" font-weight="bold" lengthAdjust="spacing" textLength="14.46" x="901.5977" y="532.3447">12</text><text fill="#000000" font-family="sans-serif" font-size="13" lengthAdjust="spacing" textLength="82.3672" x="920.0576" y="532.3447">validate(store)</text><line style="stroke:#181818;stroke-width:1.0;stroke-dasharray:2.0,2.0;" x1="894.5977" x2="936.5977" y1="591.8984" y2="591.8984"/><line style="stroke:#181818;stroke-width:1.0;stroke-dasharray:2.0,2.0;" x1="936.5977" x2="936.5977" y1="591.8984" y2="604.8984"/><line style="stroke:#181818;stroke-width:1.0;stroke-dasharray:2.0,2.0;" x1="889.5977" x2="936.5977" y1="604.8984" y2="604.8984"/><polygon fill="#181818" points="899.5977,600.8984,889.5977,604.8984,899.5977,608.8984,895.5977,604.8984" style="stroke:#181818;stroke-width:1.0;"/><text fill="#000000" font-family="sans-serif" font-size="13" font-weight="bold" lengthAdjust="spacing" textLength="14.46" x="901.5977" y="586.6357">13</text><text fill="#000000" font-family="sans-serif" font-size="13" lengthAdjust="spacing" textLength="13.73" x="920.0576" y="586.6357">ok</text><polygon fill="#181818" points="1205.4277,627.1895,1215.4277,631.1895,1205.4277,635.1895,1209.4277,631.1895" style="stroke:#181818;stroke-width:1.0;"/><line style="stroke:#181818;stroke-width:1.0;" x1="889.5977" x2="1211.4277" y1="631.1895" y2="631.1895"/><text fill="#000000" font-family="sans-serif" font-size="13" font-weight="bold" lengthAdjust="spacing" textLength="14.46" x="896.5977" y="625.9268">14</text><text fill="#000000" font-family="sans-serif" font-size="13" lengthAdjust="spacing" textLength="65.019" x="915.0576" y="625.9268">save(store)</text><polygon fill="#181818" points="900.5977,658.4805,890.5977,662.4805,900.5977,666.4805,896.5977,662.4805" style="stroke:#181818;stroke-width:1.0;"/><line style="stroke:#181818;stroke-width:1.0;stroke-dasharray:2.0,2.0;" x1="894.5977" x2="1221.4277" y1="662.4805" y2="662.4805"/><text fill="#000000" font-family="sans-serif" font-size="13" font-weight="bold" lengthAdjust="spacing" textLength="14.46" x="906.5977" y="657.2178">15</text><text fill="#000000" font-family="sans-serif" font-size="13" lengthAdjust="spacing" textLength="13.73" x="925.0576" y="657.2178">ok</text><polygon fill="#181818" points="576.9902,689.7715,566.9902,693.7715,576.9902,697.7715,572.9902,693.7715" style="stroke:#181818;stroke-width:1.0;"/><line style="stroke:#181818;stroke-width:1.0;stroke-dasharray:2.0,2.0;" x1="570.9902" x2="883.5977" y1="693.7715" y2="693.7715"/><text fill="#000000" font-family="sans-serif" font-size="13" font-weight="bold" lengthAdjust="spacing" textLength="14.46" x="582.9902" y="688.5088">16</text><text fill="#000000" font-family="sans-serif" font-size="13" lengthAdjust="spacing" textLength="13.73" x="601.4502" y="688.5088">ok</text><polygon fill="#181818" points="323.6123,721.0625,313.6123,725.0625,323.6123,729.0625,319.6123,725.0625" style="stroke:#181818;stroke-width:1.0;"/><line style="stroke:#181818;stroke-width:1.0;stroke-dasharray:2.0,2.0;" x1="317.6123" x2="559.9902" y1="725.0625" y2="725.0625"/><text fill="#000000" font-family="sans-serif" font-size="13" font-weight="bold" lengthAdjust="spacing" textLength="14.46" x="329.6123" y="719.7998">17</text><text fill="#000000" font-family="sans-serif" font-size="13" lengthAdjust="spacing" textLength="13.73" x="348.0723" y="719.7998">ok</text><polygon fill="#181818" points="65.2344,752.3535,55.2344,756.3535,65.2344,760.3535,61.2344,756.3535" style="stroke:#181818;stroke-width:1.0;"/><line style="stroke:#181818;stroke-width:1.0;stroke-dasharray:2.0,2.0;" x1="59.2344" x2="306.6123" y1="756.3535" y2="756.3535"/><text fill="#000000" font-family="sans-serif" font-size="13" font-weight="bold" lengthAdjust="spacing" textLength="14.46" x="71.2344" y="751.0908">18</text><text fill="#000000" font-family="sans-serif" font-size="13" lengthAdjust="spacing" textLength="151.0107" x="89.6943" y="751.0908">informs operation success</text><!--SRC=[fPBDRXiX4CVl-nGZN-f6Tdtd42cob0U8svvoeJ3PeYom1TQHtxx335wltGzLpGKDp6_-yyM7xwMCMUrsuw13cVpmoKI_o_XZmc1mQvtka_PTfwSIjIdkg0j237mFa_-6YNocn0Ih1-jTSBaaJTSLw0nVChb7dOepRYHvMAadx0d1T206lpfyO_1meZV_DtGVGqbn652KzoKDD_W-Uh9EuXRxcg1YZiwWOhs3N2IxsDVq2tTreYh6c5qr7-M5Gvfz7P885VLB4DFrUbDBfOIL4gh5avG9y-IwUiBsler74VYQeKH8RJAWWOKw0M1BR8rHHD02SybWTT6mDj7Y1YncrmTTN0oRvm3QseGvRo2E65peFpjFa1ceShby_BM2SXendzNHiloS_PxNekRokAd_pbsrM5DsgQ37ibpTcX1nLQejv49TLa1Wy_A0PhswhgL4qxsxKoOXBM5TWKMIkR_saUOAMw02YNi8zg2F-BxkcoPdPIKgg-d_HlCiIDh_8Bce-AW7Pwic_wERj6SelYvZws1f1jJXEQY-_3bY7XizoiGM_wc2jt_NXPUOVAwT96uFycGCjTVz1000]--></g></svg>