<svg xmlns="http://www.w3.org/2000/svg" xmlns:xlink="http://www.w3.org/1999/xlink" contentStyleType="text/css" height="931px" preserveAspectRatio="none" style="width:1364px;height:931px;background:#FFFFFF;" version="1.1" viewBox="0 0 1364 931" width="1364px" zoomAndPan="magnify"><defs/><g><rect fill="#FFFFFF" height="836.2656" style="stroke:#181818;stroke-width:1.0;" width="10" x="45.1172" y="48.6211"/><rect fill="#FFFFFF" height="803.9746" style="stroke:#181818;stroke-width:1.0;" width="10" x="193.7144" y="71.9121"/><rect fill="#FFFFFF" height="42.291" style="stroke:#181818;stroke-width:1.0;" width="10" x="198.7144" y="795.3047"/><rect fill="#FFFFFF" height="580.9375" style="stroke:#181818;stroke-width:1.0;" width="10" x="399.4404" y="175.0762"/><rect fill="#FFFFFF" height="137.4941" style="stroke:#181818;stroke-width:1.0;" width="10" x="540.8203" y="206.3672"/><rect fill="#FFFFFF" height="74.9121" style="stroke:#181818;stroke-width:1.0;" width="10" x="723.0479" y="392.4434"/><rect fill="#FFFFFF" height="182.4551" style="stroke:#181818;stroke-width:1.0;" width="10" x="723.0479" y="498.6465"/><rect fill="#FFFFFF" height="42.291" style="stroke:#181818;stroke-width:1.0;" width="10" x="728.0479" y="537.9375"/><rect fill="#FFFFFF" height="31.291" style="stroke:#181818;stroke-width:1.0;" width="10" x="890.9854" y="237.6582"/><rect fill="#FFFFFF" height="31.291" style="stroke:#181818;stroke-width:1.0;" width="10" x="1060.8779" y="618.5195"/><line style="stroke:#181818;stroke-width:0.5;stroke-dasharray:5.0,5.0;" x1="50" x2="50" y1="38.6211" y2="893.8867"/><line style="stroke:#181818;stroke-width:0.5;stroke-dasharray:5.0,5.0;" x1="198.2251" x2="198.2251" y1="38.6211" y2="893.8867"/><line style="stroke:#181818;stroke-width:0.5;stroke-dasharray:5.0,5.0;" x1="404.4199" x2="404.4199" y1="38.6211" y2="893.8867"/><line style="stroke:#181818;stroke-width:0.5;stroke-dasharray:5.0,5.0;" x1="544.917" x2="544.917" y1="38.6211" y2="893.8867"/><line style="stroke:#181818;stroke-width:0.5;stroke-dasharray:5.0,5.0;" x1="727.8584" x2="727.8584" y1="308.7598" y2="893.8867"/><line style="stroke:#181818;stroke-width:0.5;stroke-dasharray:5.0,5.0;" x1="895.2373" x2="895.2373" y1="38.6211" y2="893.8867"/><line style="stroke:#181818;stroke-width:0.5;stroke-dasharray:5.0,5.0;" x1="1065.7334" x2="1065.7334" y1="38.6211" y2="893.8867"/><line style="stroke:#181818;stroke-width:0.5;stroke-dasharray:5.0,5.0;" x1="1190.0225" x2="1190.0225" y1="432.2539" y2="893.8867"/><line style="stroke:#181818;stroke-width:0.5;stroke-dasharray:5.0,5.0;" x1="1299.498" x2="1299.498" y1="720.9121" y2="893.8867"/><rect fill="#E2E2F0" height="32.6211" rx="2.5" ry="2.5" style="stroke:#181818;stroke-width:0.5;" width="90.2344" x="5" y="5"/><text fill="#000000" font-family="sans-serif" font-size="14" lengthAdjust="spacing" textLength="76.2344" x="12" y="27.1074">:HTTPClient</text><rect fill="#E2E2F0" height="32.6211" rx="2.5" ry="2.5" style="stroke:#181818;stroke-width:0.5;" width="90.2344" x="5" y="892.8867"/><text fill="#000000" font-family="sans-serif" font-size="14" lengthAdjust="spacing" textLength="76.2344" x="12" y="914.9941">:HTTPClient</text><rect fill="#E2E2F0" height="32.6211" rx="2.5" ry="2.5" style="stroke:#181818;stroke-width:0.5;" width="150.9785" x="123.2251" y="5"/><text fill="#000000" font-family="sans-serif" font-size="14" lengthAdjust="spacing" textLength="136.9785" x="130.2251" y="27.1074">handler:RouteHandler</text><rect fill="#E2E2F0" height="32.6211" rx="2.5" ry="2.5" style="stroke:#181818;stroke-width:0.5;" width="150.9785" x="123.2251" y="892.8867"/><text fill="#000000" font-family="sans-serif" font-size="14" lengthAdjust="spacing" textLength="136.9785" x="130.2251" y="914.9941">handler:RouteHandler</text><rect fill="#E2E2F0" height="32.6211" rx="2.5" ry="2.5" style="stroke:#181818;stroke-width:0.5;" width="112.041" x="348.4199" y="5"/><text fill="#000000" font-family="sans-serif" font-size="14" lengthAdjust="spacing" textLength="98.041" x="355.4199" y="27.1074">:StoreController</text><rect fill="#E2E2F0" height="32.6211" rx="2.5" ry="2.5" style="stroke:#181818;stroke-width:0.5;" width="112.041" x="348.4199" y="892.8867"/><text fill="#000000" font-family="sans-serif" font-size="14" lengthAdjust="spacing" textLength="98.041" x="355.4199" y="914.9941">:StoreController</text><rect fill="#E2E2F0" height="32.6211" rx="2.5" ry="2.5" style="stroke:#181818;stroke-width:0.5;" width="77.8066" x="506.917" y="5"/><text fill="#000000" font-family="sans-serif" font-size="14" lengthAdjust="spacing" textLength="63.8066" x="513.917" y="27.1074">:Company</text><rect fill="#E2E2F0" height="32.6211" rx="2.5" ry="2.5" style="stroke:#181818;stroke-width:0.5;" width="77.8066" x="506.917" y="892.8867"/><text fill="#000000" font-family="sans-serif" font-size="14" lengthAdjust="spacing" textLength="63.8066" x="513.917" y="914.9941">:Company</text><rect fill="#E2E2F0" height="32.6211" rx="2.5" ry="2.5" style="stroke:#181818;stroke-width:0.5;" width="142.3789" x="656.8584" y="892.8867"/><text fill="#000000" font-family="sans-serif" font-size="14" lengthAdjust="spacing" textLength="128.3789" x="663.8584" y="914.9941">service:StoreService</text><rect fill="#E2E2F0" height="32.6211" rx="2.5" ry="2.5" style="stroke:#181818;stroke-width:0.5;" width="173.4961" x="809.2373" y="5"/><text fill="#000000" font-family="sans-serif" font-size="14" lengthAdjust="spacing" textLength="159.4961" x="816.2373" y="27.1074">factory:RepositoryFactory</text><rect fill="#E2E2F0" height="32.6211" rx="2.5" ry="2.5" style="stroke:#181818;stroke-width:0.5;" width="173.4961" x="809.2373" y="892.8867"/><text fill="#000000" font-family="sans-serif" font-size="14" lengthAdjust="spacing" textLength="159.4961" x="816.2373" y="914.9941">factory:RepositoryFactory</text><rect fill="#E2E2F0" height="32.6211" rx="2.5" ry="2.5" style="stroke:#181818;stroke-width:0.5;" width="146.2891" x="992.7334" y="5"/><text fill="#000000" font-family="sans-serif" font-size="14" lengthAdjust="spacing" textLength="132.2891" x="999.7334" y="27.1074">repo:StoreRepository</text><rect fill="#E2E2F0" height="32.6211" rx="2.5" ry="2.5" style="stroke:#181818;stroke-width:0.5;" width="146.2891" x="992.7334" y="892.8867"/><text fill="#000000" font-family="sans-serif" font-size="14" lengthAdjust="spacing" textLength="132.2891" x="999.7334" y="914.9941">repo:StoreRepository</text><rect fill="#E2E2F0" height="32.6211" rx="2.5" ry="2.5" style="stroke:#181818;stroke-width:0.5;" width="82.4756" x="1149.0225" y="892.8867"/><text fill="#000000" font-family="sans-serif" font-size="14" lengthAdjust="spacing" textLength="68.4756" x="1156.0225" y="914.9941">store:Store</text><rect fill="#E2E2F0" height="32.6211" rx="2.5" ry="2.5" style="stroke:#181818;stroke-width:0.5;" width="117.4824" x="1241.498" y="892.8867"/><text fill="#000000" font-family="sans-serif" font-size="14" lengthAdjust="spacing" textLength="103.4824" x="1248.498" y="914.9941">result:HttpResult</text><rect fill="#FFFFFF" height="836.2656" style="stroke:#181818;stroke-width:1.0;" width="10" x="45.1172" y="48.6211"/><rect fill="#FFFFFF" height="803.9746" style="stroke:#181818;stroke-width:1.0;" width="10" x="193.7144" y="71.9121"/><rect fill="#FFFFFF" height="42.291" style="stroke:#181818;stroke-width:1.0;" width="10" x="198.7144" y="795.3047"/><rect fill="#FFFFFF" height="580.9375" style="stroke:#181818;stroke-width:1.0;" width="10" x="399.4404" y="175.0762"/><rect fill="#FFFFFF" height="137.4941" style="stroke:#181818;stroke-width:1.0;" width="10" x="540.8203" y="206.3672"/><rect fill="#FFFFFF" height="74.9121" style="stroke:#181818;stroke-width:1.0;" width="10" x="723.0479" y="392.4434"/><rect fill="#FFFFFF" height="182.4551" style="stroke:#181818;stroke-width:1.0;" width="10" x="723.0479" y="498.6465"/><rect fill="#FFFFFF" height="42.291" style="stroke:#181818;stroke-width:1.0;" width="10" x="728.0479" y="537.9375"/><rect fill="#FFFFFF" height="31.291" style="stroke:#181818;stroke-width:1.0;" width="10" x="890.9854" y="237.6582"/><rect fill="#FFFFFF" height="31.291" style="stroke:#181818;stroke-width:1.0;" width="10" x="1060.8779" y="618.5195"/><polygon fill="#181818" points="181.7144,67.9121,191.7144,71.9121,181.7144,75.9121,185.7144,71.9121" style="stroke:#181818;stroke-width:1.0;"/><line style="stroke:#181818;stroke-width:1.0;" x1="55.1172" x2="187.7144" y1="71.9121" y2="71.9121"/><text fill="#000000" font-family="sans-serif" font-size="13" font-weight="bold" lengthAdjust="spacing" textLength="7.23" x="62.1172" y="66.6494">1</text><text fill="#000000" font-family="sans-serif" font-size="13" lengthAdjust="spacing" textLength="108.3672" x="73.3472" y="66.6494">POST/stores(data)</text><path d="M125,84.9121 L125,111.9121 L271,111.9121 L271,94.9121 L261,84.9121 L125,84.9121 " fill="#FEFFDD" style="stroke:#181818;stroke-width:0.5;"/><path d="M261,84.9121 L261,94.9121 L271,94.9121 L261,84.9121 " fill="#FEFFDD" style="stroke:#181818;stroke-width:0.5;"/><text fill="#000000" font-family="sans-serif" font-size="13" lengthAdjust="spacing" textLength="125.0107" x="131" y="103.9404">after doing some stuff</text><polygon fill="#181818" points="387.4404,171.0762,397.4404,175.0762,387.4404,179.0762,391.4404,175.0762" style="stroke:#181818;stroke-width:1.0;"/><line style="stroke:#181818;stroke-width:1.0;" x1="203.7144" x2="393.4404" y1="175.0762" y2="175.0762"/><text fill="#000000" font-family="sans-serif" font-size="13" font-weight="bold" lengthAdjust="spacing" textLength="7.23" x="210.7144" y="152.5225">2</text><text fill="#000000" font-family="sans-serif" font-size="13" lengthAdjust="spacing" textLength="165.4961" x="221.9443" y="135.2314">postStore(code, designation,</text><text fill="#000000" font-family="sans-serif" font-size="13" lengthAdjust="spacing" textLength="132.2407" x="225.5562" y="152.5225">address, openingTime,</text><text fill="#000000" font-family="sans-serif" font-size="13" lengthAdjust="spacing" textLength="73.6836" x="225.5562" y="169.8135">closingTime)</text><polygon fill="#181818" points="528.8203,202.3672,538.8203,206.3672,528.8203,210.3672,532.8203,206.3672" style="stroke:#181818;stroke-width:1.0;"/><line style="stroke:#181818;stroke-width:1.0;" x1="409.4404" x2="534.8203" y1="206.3672" y2="206.3672"/><text fill="#000000" font-family="sans-serif" font-size="13" font-weight="bold" lengthAdjust="spacing" textLength="7.23" x="416.4404" y="201.1045">3</text><text fill="#000000" font-family="sans-serif" font-size="13" lengthAdjust="spacing" textLength="101.1499" x="427.6704" y="201.1045">getStoreService()</text><polygon fill="#181818" points="878.9854,233.6582,888.9854,237.6582,878.9854,241.6582,882.9854,237.6582" style="stroke:#181818;stroke-width:1.0;"/><line style="stroke:#181818;stroke-width:1.0;" x1="550.8203" x2="884.9854" y1="237.6582" y2="237.6582"/><text fill="#000000" font-family="sans-serif" font-size="13" font-weight="bold" lengthAdjust="spacing" textLength="7.23" x="557.8203" y="232.3955">4</text><text fill="#000000" font-family="sans-serif" font-size="13" lengthAdjust="spacing" textLength="119.939" x="569.0503" y="232.3955">getStoreRepository()</text><polygon fill="#181818" points="561.8203,264.9492,551.8203,268.9492,561.8203,272.9492,557.8203,268.9492" style="stroke:#181818;stroke-width:1.0;"/><line style="stroke:#181818;stroke-width:1.0;stroke-dasharray:2.0,2.0;" x1="555.8203" x2="894.9854" y1="268.9492" y2="268.9492"/><text fill="#000000" font-family="sans-serif" font-size="13" font-weight="bold" lengthAdjust="spacing" textLength="7.23" x="567.8203" y="263.6865">5</text><text fill="#000000" font-family="sans-serif" font-size="13" lengthAdjust="spacing" textLength="26.019" x="579.0503" y="263.6865">repo</text><polygon fill="#181818" points="644.8584,296.2402,654.8584,300.2402,644.8584,304.2402,648.8584,300.2402" style="stroke:#181818;stroke-width:1.0;"/><line style="stroke:#181818;stroke-width:1.0;stroke-dasharray:2.0,2.0;" x1="550.8203" x2="650.8584" y1="300.2402" y2="300.2402"/><text fill="#000000" font-family="sans-serif" font-size="13" font-weight="bold" lengthAdjust="spacing" textLength="7.23" x="557.8203" y="294.9775">6</text><text fill="#000000" font-family="sans-serif" font-size="13" lengthAdjust="spacing" textLength="70.8081" x="569.0503" y="294.9775">create(repo)</text><rect fill="#E2E2F0" height="32.6211" rx="2.5" ry="2.5" style="stroke:#181818;stroke-width:0.5;" width="142.3789" x="656.8584" y="276.9492"/><text fill="#000000" font-family="sans-serif" font-size="14" lengthAdjust="spacing" textLength="128.3789" x="663.8584" y="299.0566">service:StoreService</text><polygon fill="#181818" points="420.4404,339.8613,410.4404,343.8613,420.4404,347.8613,416.4404,343.8613" style="stroke:#181818;stroke-width:1.0;"/><line style="stroke:#181818;stroke-width:1.0;stroke-dasharray:2.0,2.0;" x1="414.4404" x2="544.8203" y1="343.8613" y2="343.8613"/><text fill="#000000" font-family="sans-serif" font-size="13" font-weight="bold" lengthAdjust="spacing" textLength="7.23" x="426.4404" y="338.5986">7</text><text fill="#000000" font-family="sans-serif" font-size="13" lengthAdjust="spacing" textLength="41.1772" x="437.6704" y="338.5986">service</text><polygon fill="#181818" points="711.0479,388.4434,721.0479,392.4434,711.0479,396.4434,715.0479,392.4434" style="stroke:#181818;stroke-width:1.0;"/><line style="stroke:#181818;stroke-width:1.0;" x1="409.4404" x2="717.0479" y1="392.4434" y2="392.4434"/><text fill="#000000" font-family="sans-serif" font-size="13" font-weight="bold" lengthAdjust="spacing" textLength="7.23" x="416.4404" y="378.5352">8</text><text fill="#000000" font-family="sans-serif" font-size="13" lengthAdjust="spacing" textLength="199.4561" x="427.6704" y="369.8896">create(code, designation, address,</text><text fill="#000000" font-family="sans-serif" font-size="13" lengthAdjust="spacing" textLength="156.0635" x="431.2822" y="387.1807">openingTime, closingTime)</text><polygon fill="#181818" points="1137.0225,419.7344,1147.0225,423.7344,1137.0225,427.7344,1141.0225,423.7344" style="stroke:#181818;stroke-width:1.0;"/><line style="stroke:#181818;stroke-width:1.0;stroke-dasharray:2.0,2.0;" x1="733.0479" x2="1143.0225" y1="423.7344" y2="423.7344"/><text fill="#000000" font-family="sans-serif" font-size="13" font-weight="bold" lengthAdjust="spacing" textLength="7.23" x="740.0479" y="418.4717">9</text><text fill="#000000" font-family="sans-serif" font-size="13" lengthAdjust="spacing" textLength="359.1313" x="751.2778" y="418.4717">create(code, designation, address, openingTime, closingTime)</text><rect fill="#E2E2F0" height="32.6211" rx="2.5" ry="2.5" style="stroke:#181818;stroke-width:0.5;" width="82.4756" x="1149.0225" y="400.4434"/><text fill="#000000" font-family="sans-serif" font-size="14" lengthAdjust="spacing" textLength="68.4756" x="1156.0225" y="422.5508">store:Store</text><polygon fill="#181818" points="420.4404,463.3555,410.4404,467.3555,420.4404,471.3555,416.4404,467.3555" style="stroke:#181818;stroke-width:1.0;"/><line style="stroke:#181818;stroke-width:1.0;stroke-dasharray:2.0,2.0;" x1="414.4404" x2="727.0479" y1="467.3555" y2="467.3555"/><text fill="#000000" font-family="sans-serif" font-size="13" font-weight="bold" lengthAdjust="spacing" textLength="14.46" x="426.4404" y="462.0928">10</text><text fill="#000000" font-family="sans-serif" font-size="13" lengthAdjust="spacing" textLength="28.9009" x="444.9004" y="462.0928">store</text><polygon fill="#181818" points="711.0479,494.6465,721.0479,498.6465,711.0479,502.6465,715.0479,498.6465" style="stroke:#181818;stroke-width:1.0;"/><line style="stroke:#181818;stroke-width:1.0;" x1="409.4404" x2="717.0479" y1="498.6465" y2="498.6465"/><text fill="#000000" font-family="sans-serif" font-size="13" font-weight="bold" lengthAdjust="spacing" textLength="14.46" x="416.4404" y="493.3838">11</text><text fill="#000000" font-family="sans-serif" font-size="13" lengthAdjust="spacing" textLength="115.6099" x="434.9004" y="493.3838">addOrUpdate(store)</text><line style="stroke:#181818;stroke-width:1.0;" x1="733.0479" x2="780.0479" y1="524.9375" y2="524.9375"/><line style="stroke:#181818;stroke-width:1.0;" x1="780.0479" x2="780.0479" y1="524.9375" y2="537.9375"/><line style="stroke:#181818;stroke-width:1.0;" x1="739.0479" x2="780.0479" y1="537.9375" y2="537.9375"/><polygon fill="#181818" points="749.0479,533.9375,739.0479,537.9375,749.0479,541.9375,745.0479,537.9375" style="stroke:#181818;stroke-width:1.0;"/><text fill="#000000" font-family="sans-serif" font-size="13" font-weight="bold" lengthAdjust="spacing" textLength="14.46" x="745.0479" y="519.6748">12</text><text fill="#000000" font-family="sans-serif" font-size="13" lengthAdjust="spacing" textLength="82.3672" x="763.5078" y="519.6748">validate(store)</text><line style="stroke:#181818;stroke-width:1.0;stroke-dasharray:2.0,2.0;" x1="738.0479" x2="780.0479" y1="579.2285" y2="579.2285"/><line style="stroke:#181818;stroke-width:1.0;stroke-dasharray:2.0,2.0;" x1="780.0479" x2="780.0479" y1="579.2285" y2="592.2285"/><line style="stroke:#181818;stroke-width:1.0;stroke-dasharray:2.0,2.0;" x1="733.0479" x2="780.0479" y1="592.2285" y2="592.2285"/><polygon fill="#181818" points="743.0479,588.2285,733.0479,592.2285,743.0479,596.2285,739.0479,592.2285" style="stroke:#181818;stroke-width:1.0;"/><text fill="#000000" font-family="sans-serif" font-size="13" font-weight="bold" lengthAdjust="spacing" textLength="14.46" x="745.0479" y="573.9658">13</text><text fill="#000000" font-family="sans-serif" font-size="13" lengthAdjust="spacing" textLength="13.73" x="763.5078" y="573.9658">ok</text><polygon fill="#181818" points="1048.8779,614.5195,1058.8779,618.5195,1048.8779,622.5195,1052.8779,618.5195" style="stroke:#181818;stroke-width:1.0;"/><line style="stroke:#181818;stroke-width:1.0;" x1="733.0479" x2="1054.8779" y1="618.5195" y2="618.5195"/><text fill="#000000" font-family="sans-serif" font-size="13" font-weight="bold" lengthAdjust="spacing" textLength="14.46" x="740.0479" y="613.2568">14</text><text fill="#000000" font-family="sans-serif" font-size="13" lengthAdjust="spacing" textLength="65.019" x="758.5078" y="613.2568">save(store)</text><polygon fill="#181818" points="744.0479,645.8105,734.0479,649.8105,744.0479,653.8105,740.0479,649.8105" style="stroke:#181818;stroke-width:1.0;"/><line style="stroke:#181818;stroke-width:1.0;stroke-dasharray:2.0,2.0;" x1="738.0479" x2="1064.8779" y1="649.8105" y2="649.8105"/><text fill="#000000" font-family="sans-serif" font-size="13" font-weight="bold" lengthAdjust="spacing" textLength="14.46" x="750.0479" y="644.5479">15</text><text fill="#000000" font-family="sans-serif" font-size="13" lengthAdjust="spacing" textLength="13.73" x="768.5078" y="644.5479">ok</text><polygon fill="#181818" points="420.4404,677.1016,410.4404,681.1016,420.4404,685.1016,416.4404,681.1016" style="stroke:#181818;stroke-width:1.0;"/><line style="stroke:#181818;stroke-width:1.0;stroke-dasharray:2.0,2.0;" x1="414.4404" x2="727.0479" y1="681.1016" y2="681.1016"/><text fill="#000000" font-family="sans-serif" font-size="13" font-weight="bold" lengthAdjust="spacing" textLength="14.46" x="426.4404" y="675.8389">16</text><text fill="#000000" font-family="sans-serif" font-size="13" lengthAdjust="spacing" textLength="13.73" x="444.9004" y="675.8389">ok</text><polygon fill="#181818" points="1229.498,708.3926,1239.498,712.3926,1229.498,716.3926,1233.498,712.3926" style="stroke:#181818;stroke-width:1.0;"/><line style="stroke:#181818;stroke-width:1.0;stroke-dasharray:2.0,2.0;" x1="409.4404" x2="1235.498" y1="712.3926" y2="712.3926"/><text fill="#000000" font-family="sans-serif" font-size="13" font-weight="bold" lengthAdjust="spacing" textLength="14.46" x="416.4404" y="707.1299">17</text><text fill="#000000" font-family="sans-serif" font-size="13" lengthAdjust="spacing" textLength="66.479" x="434.9004" y="707.1299">create(201)</text><rect fill="#E2E2F0" height="32.6211" rx="2.5" ry="2.5" style="stroke:#181818;stroke-width:0.5;" width="117.4824" x="1241.498" y="689.1016"/><text fill="#000000" font-family="sans-serif" font-size="14" lengthAdjust="spacing" textLength="103.4824" x="1248.498" y="711.209">result:HttpResult</text><polygon fill="#181818" points="214.7144,752.0137,204.7144,756.0137,214.7144,760.0137,210.7144,756.0137" style="stroke:#181818;stroke-width:1.0;"/><line style="stroke:#181818;stroke-width:1.0;stroke-dasharray:2.0,2.0;" x1="208.7144" x2="403.4404" y1="756.0137" y2="756.0137"/><text fill="#000000" font-family="sans-serif" font-size="13" font-weight="bold" lengthAdjust="spacing" textLength="14.46" x="220.7144" y="750.751">18</text><text fill="#000000" font-family="sans-serif" font-size="13" lengthAdjust="spacing" textLength="31.7891" x="239.1743" y="750.751">result</text><line style="stroke:#181818;stroke-width:1.0;" x1="203.7144" x2="250.7144" y1="782.3047" y2="782.3047"/><line style="stroke:#181818;stroke-width:1.0;" x1="250.7144" x2="250.7144" y1="782.3047" y2="795.3047"/><line style="stroke:#181818;stroke-width:1.0;" x1="209.7144" x2="250.7144" y1="795.3047" y2="795.3047"/><polygon fill="#181818" points="219.7144,791.3047,209.7144,795.3047,219.7144,799.3047,215.7144,795.3047" style="stroke:#181818;stroke-width:1.0;"/><text fill="#000000" font-family="sans-serif" font-size="13" font-weight="bold" lengthAdjust="spacing" textLength="14.46" x="215.7144" y="777.042">19</text><text fill="#000000" font-family="sans-serif" font-size="13" lengthAdjust="spacing" textLength="150.9917" x="234.1743" y="777.042">setHttpResult(resp, result)</text><line style="stroke:#181818;stroke-width:1.0;stroke-dasharray:2.0,2.0;" x1="208.7144" x2="250.7144" y1="836.5957" y2="836.5957"/><line style="stroke:#181818;stroke-width:1.0;stroke-dasharray:2.0,2.0;" x1="250.7144" x2="250.7144" y1="836.5957" y2="849.5957"/><line style="stroke:#181818;stroke-width:1.0;stroke-dasharray:2.0,2.0;" x1="203.7144" x2="250.7144" y1="849.5957" y2="849.5957"/><polygon fill="#181818" points="213.7144,845.5957,203.7144,849.5957,213.7144,853.5957,209.7144,849.5957" style="stroke:#181818;stroke-width:1.0;"/><text fill="#000000" font-family="sans-serif" font-size="13" font-weight="bold" lengthAdjust="spacing" textLength="14.46" x="215.7144" y="831.333">20</text><text fill="#000000" font-family="sans-serif" font-size="13" lengthAdjust="spacing" textLength="3.6118" x="234.1743" y="831.333">&#160;</text><polygon fill="#181818" points="66.1172,871.8867,56.1172,875.8867,66.1172,879.8867,62.1172,875.8867" style="stroke:#181818;stroke-width:1.0;"/><line style="stroke:#181818;stroke-width:1.0;stroke-dasharray:2.0,2.0;" x1="60.1172" x2="197.7144" y1="875.8867" y2="875.8867"/><text fill="#000000" font-family="sans-serif" font-size="13" font-weight="bold" lengthAdjust="spacing" textLength="14.46" x="72.1172" y="870.624">21</text><text fill="#000000" font-family="sans-serif" font-size="13" lengthAdjust="spacing" textLength="25.2891" x="90.5771" y="870.624">resp</text><!--SRC=[ZPCzRzim48Pt_WeYIwp0hjkE7B8O2BmbiDsj2okU7Q8IgP8d0VxtFNvOf9mYw7P7FlVU5_duZZXuiTqEdJGuzjsNrlPR3tz6C2rib9ON9ticHxIoHJr916vDzCtO_mB7s20TwbOF5CyVnFvqUjjr6Wm-SEbvSPVSkpIg0oSETaJO9oS67AyUeRyJFQ9riBC6dUrku0vTTuVjR4_MDLqdUqbuS9Dk8UaTavEo9dj9dwbZwwxY08FrEfWlwII6P7iPuWXDwYKeqi6zgoLGYKqb1EjUpOyTYZsjw13DB1LCnkPzL3DcnUQRvpnCmTzUZwTjJEXNIg9i63CsR782DqFoZEGfgys5Uzi3zpYUpuob-o0NHYuuzOMns5Lh5Qov0gylHgAsPltJSAaKfV5hRWSmf7NIFOJpjgDv9BTXGIagfYq9VW6ibx8Y95q5Ae-Q5wnCbyZRzQOM39ie6fldBFpq97ZhWCQs2aHJ8xc__4Zc6dFa7FUnwxbdQhFkUjbprecPOXDLBPze_gTYhZq-eW-LazQh-p6ea2eYLUoCqNWdsUb_GWlA_gwZmoeeiPpcg73oISXSB1scIgDAUDJLHBv__TQKwziRJJ-YUfAt2mzOlWcjrW_h33SpNV3wgFoOA3_y1G00]--></g></svg>