<svg xmlns="http://www.w3.org/2000/svg" xmlns:xlink="http://www.w3.org/1999/xlink" contentStyleType="text/css" height="403.2px" preserveAspectRatio="none" style="width:286px;height:403px;background:#FFFFFF;" version="1.1" viewBox="0 0 286 403" width="286.8px" zoomAndPan="magnify"><title>Class Diagram for US31 - Schedule Visit Booking</title><defs/><g><text fill="#000000" font-family="sans-serif" font-size="8.4" font-weight="bold" lengthAdjust="spacing" textLength="212.4609" x="32.9741" y="14.1211">Class Diagram for US31 - Schedule Visit Booking</text><!--class Client--><g id="elem_Client"><rect codeLine="6" fill="#F1F1F1" height="55.1719" id="Client" rx="1.5" ry="1.5" style="stroke:#181818;stroke-width:0.3;" width="103.923" x="133.896" y="344.027"/><text fill="#000000" font-family="sans-serif" font-size="8.4" lengthAdjust="spacing" textLength="23.7029" x="174.0061" y="355.1481">Client</text><line style="stroke:#181818;stroke-width:0.3;" x1="134.496" x2="237.219" y1="359.9199" y2="359.9199"/><text fill="#000000" font-family="sans-serif" font-size="8.4" lengthAdjust="spacing" textLength="56.5318" x="137.496" y="370.441">-name: String</text><text fill="#000000" font-family="sans-serif" font-size="8.4" lengthAdjust="spacing" textLength="56.175" x="137.496" y="380.334">-email: String</text><text fill="#000000" font-family="sans-serif" font-size="8.4" lengthAdjust="spacing" textLength="96.723" x="137.496" y="390.227">-contactNumber: String</text><line style="stroke:#181818;stroke-width:0.3;" x1="134.496" x2="237.219" y1="394.3988" y2="394.3988"/></g><!--class Visit--><g id="elem_Visit"><rect codeLine="12" fill="#F1F1F1" height="55.1719" id="Visit" rx="1.5" ry="1.5" style="stroke:#181818;stroke-width:0.3;" width="70.5199" x="4.2" y="344.027"/><text fill="#000000" font-family="sans-serif" font-size="8.4" lengthAdjust="spacing" textLength="17.7721" x="30.5739" y="355.1481">Visit</text><line style="stroke:#181818;stroke-width:0.3;" x1="4.8" x2="74.1199" y1="359.9199" y2="359.9199"/><text fill="#000000" font-family="sans-serif" font-size="8.4" lengthAdjust="spacing" textLength="63.3199" x="7.8" y="370.441">-visitId: Integer</text><text fill="#000000" font-family="sans-serif" font-size="8.4" lengthAdjust="spacing" textLength="51.9053" x="7.8" y="380.334">-date: String</text><text fill="#000000" font-family="sans-serif" font-size="8.4" lengthAdjust="spacing" textLength="58.8574" x="7.8" y="390.227">-status: String</text><line style="stroke:#181818;stroke-width:0.3;" x1="4.8" x2="74.1199" y1="394.3988" y2="394.3988"/></g><!--class VisitRepository--><g id="elem_VisitRepository"><rect codeLine="18" fill="#F1F1F1" height="35.3859" id="VisitRepository" rx="1.5" ry="1.5" style="stroke:#181818;stroke-width:0.3;" width="64.6477" x="7.134" y="262.439"/><text fill="#000000" font-family="sans-serif" font-size="8.4" lengthAdjust="spacing" textLength="61.0477" x="8.934" y="273.5601">VisitRepository</text><line style="stroke:#181818;stroke-width:0.3;" x1="7.734" x2="71.1817" y1="278.3319" y2="278.3319"/><line style="stroke:#181818;stroke-width:0.3;" x1="7.734" x2="71.1817" y1="283.1319" y2="283.1319"/><text fill="#000000" font-family="sans-serif" font-size="8.4" lengthAdjust="spacing" textLength="47.8611" x="10.734" y="293.653">+save(Visit)</text></g><!--class VisitFactory--><g id="elem_VisitFactory"><rect codeLine="22" fill="#F1F1F1" height="35.3859" id="VisitFactory" rx="1.5" ry="1.5" style="stroke:#181818;stroke-width:0.3;" width="86.7703" x="92.676" y="262.439"/><text fill="#000000" font-family="sans-serif" font-size="8.4" lengthAdjust="spacing" textLength="47.3443" x="112.389" y="273.5601">VisitFactory</text><line style="stroke:#181818;stroke-width:0.3;" x1="93.276" x2="178.8463" y1="278.3319" y2="278.3319"/><line style="stroke:#181818;stroke-width:0.3;" x1="93.276" x2="178.8463" y1="283.1319" y2="283.1319"/><text fill="#000000" font-family="sans-serif" font-size="8.4" lengthAdjust="spacing" textLength="79.5703" x="96.276" y="293.653">getVisitRepository()</text></g><!--class VisitService--><g id="elem_VisitService"><rect codeLine="26" fill="#F1F1F1" height="55.1719" id="VisitService" rx="1.5" ry="1.5" style="stroke:#181818;stroke-width:0.3;" width="129.1477" x="22.884" y="170.669"/><text fill="#000000" font-family="sans-serif" font-size="8.4" lengthAdjust="spacing" textLength="46.1713" x="64.3722" y="181.7901">VisitService</text><line style="stroke:#181818;stroke-width:0.3;" x1="23.484" x2="151.4317" y1="186.5619" y2="186.5619"/><text fill="#000000" font-family="sans-serif" font-size="8.4" lengthAdjust="spacing" textLength="112.6248" x="26.484" y="197.083">-repository: VisitRepository</text><line style="stroke:#181818;stroke-width:0.3;" x1="23.484" x2="151.4317" y1="201.2549" y2="201.2549"/><text fill="#000000" font-family="sans-serif" font-size="8.4" lengthAdjust="spacing" textLength="65.6332" x="26.484" y="211.776">+saveVisit(Visit)</text><text fill="#000000" font-family="sans-serif" font-size="8.4" lengthAdjust="spacing" textLength="121.9477" x="26.484" y="221.669">+create(repo: VisitRepository)</text></g><!--class VisitBookingController--><g id="elem_VisitBookingController"><rect codeLine="32" fill="#F1F1F1" height="45.2789" id="VisitBookingController" rx="1.5" ry="1.5" style="stroke:#181818;stroke-width:0.3;" width="95.2084" x="110.058" y="88.787"/><text fill="#000000" font-family="sans-serif" font-size="8.4" lengthAdjust="spacing" textLength="91.6084" x="111.858" y="99.9081">VisitBookingController</text><line style="stroke:#181818;stroke-width:0.3;" x1="110.658" x2="204.6664" y1="104.6799" y2="104.6799"/><text fill="#000000" font-family="sans-serif" font-size="8.4" lengthAdjust="spacing" textLength="84.5045" x="113.658" y="115.201">-service: VisitService</text><line style="stroke:#181818;stroke-width:0.3;" x1="110.658" x2="204.6664" y1="119.3729" y2="119.3729"/><text fill="#000000" font-family="sans-serif" font-size="8.4" lengthAdjust="spacing" textLength="62.3643" x="113.658" y="129.894">+confirmDate()</text></g><!--class VisitMapper--><g id="elem_VisitMapper"><rect codeLine="37" fill="#F1F1F1" height="45.2789" id="VisitMapper" rx="1.5" ry="1.5" style="stroke:#181818;stroke-width:0.3;" width="109.4971" x="173.112" y="175.613"/><text fill="#000000" font-family="sans-serif" font-size="8.4" lengthAdjust="spacing" textLength="48.3369" x="203.6921" y="186.7341">VisitMapper</text><line style="stroke:#181818;stroke-width:0.3;" x1="173.712" x2="282.0091" y1="191.5059" y2="191.5059"/><line style="stroke:#181818;stroke-width:0.3;" x1="173.712" x2="282.0091" y1="196.3059" y2="196.3059"/><text fill="#000000" font-family="sans-serif" font-size="8.4" lengthAdjust="spacing" textLength="97.5598" x="176.712" y="206.827">+toDTO(Visit): VisitDTO</text><text fill="#000000" font-family="sans-serif" font-size="8.4" lengthAdjust="spacing" textLength="102.2971" x="176.712" y="216.72">+toEntity(VisitDTO): Visit</text></g><!--class ClientView--><g id="elem_ClientView"><rect codeLine="42" fill="#F1F1F1" height="25.493" id="ClientView" rx="1.5" ry="1.5" style="stroke:#181818;stroke-width:0.3;" width="46.3752" x="134.472" y="26.693"/><text fill="#000000" font-family="sans-serif" font-size="8.4" lengthAdjust="spacing" textLength="42.7752" x="136.272" y="37.8141">ClientView</text><line style="stroke:#181818;stroke-width:0.3;" x1="135.072" x2="180.2472" y1="42.5859" y2="42.5859"/><line style="stroke:#181818;stroke-width:0.3;" x1="135.072" x2="180.2472" y1="47.3859" y2="47.3859"/></g><!--link ClientView to VisitBookingController--><g id="link_ClientView_VisitBookingController"><path codeLine="45" d="M157.662,52.373 C157.662,62.351 157.662,73.073 157.662,85.037 " fill="none" id="ClientView-to-VisitBookingController" style="stroke:#181818;stroke-width:0.6;stroke-dasharray:7.0,7.0;"/><polygon fill="#181818" points="157.662,88.637,160.062,83.237,157.662,85.637,155.262,83.237,157.662,88.637" style="stroke:#181818;stroke-width:0.6;"/></g><!--link VisitBookingController to VisitMapper--><g id="link_VisitBookingController_VisitMapper"><path codeLine="46" d="M175.92,134.303 C186.318,146.987 197.0261,160.0425 207.4061,172.7085 " fill="none" id="VisitBookingController-to-VisitMapper" style="stroke:#181818;stroke-width:0.6;stroke-dasharray:7.0,7.0;"/><polygon fill="#181818" points="209.688,175.493,208.1215,169.7951,207.7864,173.1726,204.4089,172.8376,209.688,175.493" style="stroke:#181818;stroke-width:0.6;"/></g><!--link VisitBookingController to VisitService--><g id="link_VisitBookingController_VisitService"><path codeLine="47" d="M139.398,134.303 C130.338,145.349 121.5983,156.0109 112.0463,167.6629 " fill="none" id="VisitBookingController-to-VisitService" style="stroke:#181818;stroke-width:0.6;stroke-dasharray:7.0,7.0;"/><polygon fill="#181818" points="109.764,170.447,115.0435,167.7924,111.6659,168.1269,111.3314,164.7493,109.764,170.447" style="stroke:#181818;stroke-width:0.6;"/></g><!--link VisitService to VisitRepository--><g id="link_VisitService_VisitRepository"><path codeLine="48" d="M71.346,225.941 C64.206,237.935 57.8683,248.5929 51.5803,259.1649 " fill="none" id="VisitService-to-VisitRepository" style="stroke:#181818;stroke-width:0.6;stroke-dasharray:7.0,7.0;"/><polygon fill="#181818" points="49.74,262.259,54.5632,258.8447,51.2736,259.6806,50.4377,256.391,49.74,262.259" style="stroke:#181818;stroke-width:0.6;"/></g><!--link VisitRepository to Visit--><g id="link_VisitRepository_Visit"><path codeLine="49" d="M39.462,297.923 C39.462,310.871 39.462,325.265 39.462,340.163 " fill="none" id="VisitRepository-to-Visit" style="stroke:#181818;stroke-width:0.6;"/><polygon fill="#181818" points="39.462,343.763,41.862,338.363,39.462,340.763,37.062,338.363,39.462,343.763" style="stroke:#181818;stroke-width:0.6;"/><text fill="#000000" font-family="sans-serif" font-size="7.8" lengthAdjust="spacing" textLength="23.1981" x="40.062" y="323.968">stores</text><text fill="#000000" font-family="sans-serif" font-size="7.8" lengthAdjust="spacing" textLength="4.9321" x="34.1815" y="310.0807">1</text><text fill="#000000" font-family="sans-serif" font-size="7.8" lengthAdjust="spacing" textLength="13.6271" x="25.3243" y="337.5663">0..*</text></g><!--link Visit to Client--><g id="link_Visit_Client"><path codeLine="50" d="M74.898,371.609 C92.586,371.609 110.724,371.609 130.254,371.609 " fill="none" id="Visit-to-Client" style="stroke:#181818;stroke-width:0.6;"/><polygon fill="#181818" points="133.854,371.609,128.454,369.209,130.854,371.609,128.454,374.009,133.854,371.609" style="stroke:#181818;stroke-width:0.6;"/><text fill="#000000" font-family="sans-serif" font-size="7.8" lengthAdjust="spacing" textLength="37.7813" x="85.71" y="367.75">requested</text><text fill="#000000" font-family="sans-serif" font-size="7.8" lengthAdjust="spacing" textLength="14.8002" x="79.5834" y="379.6519">1..3</text><text fill="#000000" font-family="sans-serif" font-size="7.8" lengthAdjust="spacing" textLength="16.0951" x="112.9498" y="379.5587">1...*</text></g><!--link VisitService to VisitFactory--><g id="link_VisitService_VisitFactory"><path codeLine="51" d="M103.776,225.941 C111.006,237.935 117.4289,248.6029 123.7949,259.1749 " fill="none" id="VisitService-to-VisitFactory" style="stroke:#181818;stroke-width:0.6;stroke-dasharray:7.0,7.0;"/><polygon fill="#181818" points="125.652,262.259,124.9224,256.3949,124.1044,259.6889,120.8104,258.871,125.652,262.259" style="stroke:#181818;stroke-width:0.6;"/></g><!--SRC=[XLB1JeD04Btp5PEUqAQaJMySccYhIGzg8jhx5gPq8x2uEzHKuxyx2miM3F74ykRDUsztvYWJX5ZgE4FFlCcY55ha46V2c1iYBVSLuJPMHIG_4UQUHv8oXBMjmqQArB8FIiDhj5p03ABuY4d5Z9qqak1MATPCFQyMv3Q91S6N1qmjH8uXHEp110jWBcJMGzYNH4oFLRv7tLM-Mxd6er4xsVCs2M5R4AQeQp0HrBSm9AWo8qhFM2h-A7skDQTWn0dzkdGreDvpgfQN8WtQ_I4zGdsICRgekYE6G-FEjiPRRml66laolktzqpMqSw- -vjVJAijGEsFJn0XxeHfrLHoapZVMOgZs8ChIIKo1rERboULoEWouqbt1st7sMxGb_Eeryzz9_60vHY_-Ws0r4juRkLFNqGJybzRUjpUHhdenW-4oJ1OJcCrMC9a7mVN4RLt8kwGqceRDd21OMfgMwP5gDYEMxdO-vB6_LsW8av44RgT-0000]--></g></svg>