<svg xmlns="http://www.w3.org/2000/svg" xmlns:xlink="http://www.w3.org/1999/xlink" contentStyleType="text/css" height="462.6px" preserveAspectRatio="none" style="width:1092px;height:462px;background:#FFFFFF;" version="1.1" viewBox="0 0 1092 462" width="1092.6px" zoomAndPan="magnify"><title>US31: Schedule Visit Booking - System Sequence Diagram</title><defs/><g><text fill="#000000" font-family="sans-serif" font-size="8.4" font-weight="bold" lengthAdjust="spacing" textLength="250.2691" x="420.8114" y="17.1211">US31: Schedule Visit Booking - System Sequence Diagram</text><rect fill="#FFFFFF" height="326.3672" style="stroke:#181818;stroke-width:0.6;" width="6" x="13.6515" y="77.3859"/><rect fill="#FFFFFF" height="313.5809" style="stroke:#181818;stroke-width:0.6;" width="6" x="214.4271" y="90.1723"/><rect fill="#FFFFFF" height="70.3453" style="stroke:#181818;stroke-width:0.6;" width="6" x="450.0753" y="107.7586"/><rect fill="#FFFFFF" height="17.5863" style="stroke:#181818;stroke-width:0.6;" width="6" x="550.6881" y="125.3449"/><rect fill="#FFFFFF" height="248.6355" style="stroke:#181818;stroke-width:0.6;" width="6" x="642.6609" y="160.5176"/><rect fill="#FFFFFF" height="52.759" style="stroke:#181818;stroke-width:0.6;" width="6" x="645.6609" y="255.7559"/><rect fill="#FFFFFF" height="17.5863" style="stroke:#181818;stroke-width:0.6;" width="6" x="745.9937" y="273.3422"/><rect fill="#FFFFFF" height="42.4793" style="stroke:#181818;stroke-width:0.6;" width="6" x="827.0256" y="195.6902"/><rect fill="#FFFFFF" height="42.4793" style="stroke:#181818;stroke-width:0.6;" width="6" x="827.0256" y="326.1012"/><line style="stroke:#181818;stroke-width:0.3;stroke-dasharray:5.0,5.0;" x1="16.2" x2="16.2" y1="71.3859" y2="414.5531"/><line style="stroke:#181818;stroke-width:0.3;stroke-dasharray:5.0,5.0;" x1="216.9105" x2="216.9105" y1="71.3859" y2="414.5531"/><line style="stroke:#181818;stroke-width:0.3;stroke-dasharray:5.0,5.0;" x1="452.7422" x2="452.7422" y1="71.3859" y2="414.5531"/><line style="stroke:#181818;stroke-width:0.3;stroke-dasharray:5.0,5.0;" x1="553.6084" x2="553.6084" y1="71.3859" y2="414.5531"/><line style="stroke:#181818;stroke-width:0.3;stroke-dasharray:5.0,5.0;" x1="645.5678" x2="645.5678" y1="71.3859" y2="414.5531"/><line style="stroke:#181818;stroke-width:0.3;stroke-dasharray:5.0,5.0;" x1="748.6591" x2="748.6591" y1="71.3859" y2="414.5531"/><line style="stroke:#181818;stroke-width:0.3;stroke-dasharray:5.0,5.0;" x1="829.7282" x2="829.7282" y1="71.3859" y2="414.5531"/><line style="stroke:#181818;stroke-width:0.3;stroke-dasharray:5.0,5.0;" x1="923.947" x2="923.947" y1="218.9367" y2="414.5531"/><line style="stroke:#181818;stroke-width:0.3;stroke-dasharray:5.0,5.0;" x1="1029.9905" x2="1029.9905" y1="349.3477" y2="414.5531"/><text fill="#000000" font-family="sans-serif" font-size="8.4" lengthAdjust="spacing" textLength="23.7029" x="3" y="69.6141">Client</text><ellipse cx="16.6515" cy="30.593" fill="#E2E2F0" rx="4.8" ry="4.8" style="stroke:#181818;stroke-width:0.3;"/><path d="M16.6515,35.393 L16.6515,51.593 M8.8515,40.193 L24.4515,40.193 M16.6515,51.593 L8.8515,60.593 M16.6515,51.593 L24.4515,60.593 " fill="none" style="stroke:#181818;stroke-width:0.3;"/><text fill="#000000" font-family="sans-serif" font-size="8.4" lengthAdjust="spacing" textLength="23.7029" x="3" y="422.0742">Client</text><ellipse cx="16.6515" cy="428.9461" fill="#E2E2F0" rx="4.8" ry="4.8" style="stroke:#181818;stroke-width:0.3;"/><path d="M16.6515,433.7461 L16.6515,449.9461 M8.8515,438.5461 L24.4515,438.5461 M16.6515,449.9461 L8.8515,458.9461 M16.6515,449.9461 L24.4515,458.9461 " fill="none" style="stroke:#181818;stroke-width:0.3;"/><rect fill="#E2E2F0" height="18.293" rx="1.5" ry="1.5" style="stroke:#181818;stroke-width:0.3;" width="53.833" x="190.5105" y="52.493"/><text fill="#000000" font-family="sans-serif" font-size="8.4" lengthAdjust="spacing" textLength="45.433" x="194.7105" y="64.8141">:ClientView</text><rect fill="#E2E2F0" height="18.293" rx="1.5" ry="1.5" style="stroke:#181818;stroke-width:0.3;" width="53.833" x="190.5105" y="413.9531"/><text fill="#000000" font-family="sans-serif" font-size="8.4" lengthAdjust="spacing" textLength="45.433" x="194.7105" y="426.2742">:ClientView</text><rect fill="#E2E2F0" height="18.293" rx="1.5" ry="1.5" style="stroke:#181818;stroke-width:0.3;" width="102.6662" x="401.7422" y="52.493"/><text fill="#000000" font-family="sans-serif" font-size="8.4" lengthAdjust="spacing" textLength="94.2662" x="405.9422" y="64.8141">:VisitBookingController</text><rect fill="#E2E2F0" height="18.293" rx="1.5" ry="1.5" style="stroke:#181818;stroke-width:0.3;" width="102.6662" x="401.7422" y="413.9531"/><text fill="#000000" font-family="sans-serif" font-size="8.4" lengthAdjust="spacing" textLength="94.2662" x="405.9422" y="426.2742">:VisitBookingController</text><rect fill="#E2E2F0" height="18.293" rx="1.5" ry="1.5" style="stroke:#181818;stroke-width:0.3;" width="86.5594" x="510.4084" y="52.493"/><text fill="#000000" font-family="sans-serif" font-size="8.4" lengthAdjust="spacing" textLength="78.1594" x="514.6084" y="64.8141">factory:VisitFactory</text><rect fill="#E2E2F0" height="18.293" rx="1.5" ry="1.5" style="stroke:#181818;stroke-width:0.3;" width="86.5594" x="510.4084" y="413.9531"/><text fill="#000000" font-family="sans-serif" font-size="8.4" lengthAdjust="spacing" textLength="78.1594" x="514.6084" y="426.2742">factory:VisitFactory</text><rect fill="#E2E2F0" height="18.293" rx="1.5" ry="1.5" style="stroke:#181818;stroke-width:0.3;" width="85.3863" x="602.9678" y="52.493"/><text fill="#000000" font-family="sans-serif" font-size="8.4" lengthAdjust="spacing" textLength="76.9863" x="607.1678" y="64.8141">service:VisitService</text><rect fill="#E2E2F0" height="18.293" rx="1.5" ry="1.5" style="stroke:#181818;stroke-width:0.3;" width="85.3863" x="602.9678" y="413.9531"/><text fill="#000000" font-family="sans-serif" font-size="8.4" lengthAdjust="spacing" textLength="76.9863" x="607.1678" y="426.2742">service:VisitService</text><rect fill="#E2E2F0" height="18.293" rx="1.5" ry="1.5" style="stroke:#181818;stroke-width:0.3;" width="90.6691" x="703.6591" y="52.493"/><text fill="#000000" font-family="sans-serif" font-size="8.4" lengthAdjust="spacing" textLength="82.2691" x="707.8591" y="64.8141">repo:VisitRepository</text><rect fill="#E2E2F0" height="18.293" rx="1.5" ry="1.5" style="stroke:#181818;stroke-width:0.3;" width="90.6691" x="703.6591" y="413.9531"/><text fill="#000000" font-family="sans-serif" font-size="8.4" lengthAdjust="spacing" textLength="82.2691" x="707.8591" y="426.2742">repo:VisitRepository</text><rect fill="#E2E2F0" height="18.293" rx="1.5" ry="1.5" style="stroke:#181818;stroke-width:0.3;" width="59.3947" x="800.3282" y="52.493"/><text fill="#000000" font-family="sans-serif" font-size="8.4" lengthAdjust="spacing" textLength="50.9947" x="804.5282" y="64.8141">:VisitMapper</text><rect fill="#E2E2F0" height="18.293" rx="1.5" ry="1.5" style="stroke:#181818;stroke-width:0.3;" width="59.3947" x="800.3282" y="413.9531"/><text fill="#000000" font-family="sans-serif" font-size="8.4" lengthAdjust="spacing" textLength="50.9947" x="804.5282" y="426.2742">:VisitMapper</text><rect fill="#E2E2F0" height="18.293" rx="1.5" ry="1.5" style="stroke:#181818;stroke-width:0.3;" width="82.0436" x="883.147" y="413.9531"/><text fill="#000000" font-family="sans-serif" font-size="8.4" lengthAdjust="spacing" textLength="73.6436" x="887.347" y="426.2742">selectedDate:Date</text><rect fill="#E2E2F0" height="18.293" rx="1.5" ry="1.5" style="stroke:#181818;stroke-width:0.3;" width="118.3014" x="971.1905" y="413.9531"/><text fill="#000000" font-family="sans-serif" font-size="8.4" lengthAdjust="spacing" textLength="109.9014" x="975.3905" y="426.2742">selectedDateDTO:DateDTO</text><rect fill="#FFFFFF" height="326.3672" style="stroke:#181818;stroke-width:0.6;" width="6" x="13.6515" y="77.3859"/><rect fill="#FFFFFF" height="313.5809" style="stroke:#181818;stroke-width:0.6;" width="6" x="214.4271" y="90.1723"/><rect fill="#FFFFFF" height="70.3453" style="stroke:#181818;stroke-width:0.6;" width="6" x="450.0753" y="107.7586"/><rect fill="#FFFFFF" height="17.5863" style="stroke:#181818;stroke-width:0.6;" width="6" x="550.6881" y="125.3449"/><rect fill="#FFFFFF" height="248.6355" style="stroke:#181818;stroke-width:0.6;" width="6" x="642.6609" y="160.5176"/><rect fill="#FFFFFF" height="52.759" style="stroke:#181818;stroke-width:0.6;" width="6" x="645.6609" y="255.7559"/><rect fill="#FFFFFF" height="17.5863" style="stroke:#181818;stroke-width:0.6;" width="6" x="745.9937" y="273.3422"/><rect fill="#FFFFFF" height="42.4793" style="stroke:#181818;stroke-width:0.6;" width="6" x="827.0256" y="195.6902"/><rect fill="#FFFFFF" height="42.4793" style="stroke:#181818;stroke-width:0.6;" width="6" x="827.0256" y="326.1012"/><polygon fill="#181818" points="207.2271,87.7723,213.2271,90.1723,207.2271,92.5723,209.6271,90.1723" style="stroke:#181818;stroke-width:0.6;"/><line style="stroke:#181818;stroke-width:0.6;" x1="19.6515" x2="210.8271" y1="90.1723" y2="90.1723"/><text fill="#000000" font-family="sans-serif" font-size="7.8" font-weight="bold" lengthAdjust="spacing" textLength="5.1454" x="23.8515" y="87.327">1</text><text fill="#000000" font-family="sans-serif" font-size="7.8" lengthAdjust="spacing" textLength="41.0071" x="31.3969" y="87.327">Select date</text><polygon fill="#181818" points="442.8753,105.3586,448.8753,107.7586,442.8753,110.1586,445.2753,107.7586" style="stroke:#181818;stroke-width:0.6;"/><line style="stroke:#181818;stroke-width:0.6;" x1="220.4271" x2="446.4753" y1="107.7586" y2="107.7586"/><text fill="#000000" font-family="sans-serif" font-size="7.8" font-weight="bold" lengthAdjust="spacing" textLength="5.1454" x="224.6271" y="104.9133">2</text><text fill="#000000" font-family="sans-serif" font-size="7.8" lengthAdjust="spacing" textLength="85.023" x="232.1725" y="104.9133">confirmDate(dateDTO)</text><polygon fill="#181818" points="543.4881,122.9449,549.4881,125.3449,543.4881,127.7449,545.8881,125.3449" style="stroke:#181818;stroke-width:0.6;"/><line style="stroke:#181818;stroke-width:0.6;" x1="456.0753" x2="547.0881" y1="125.3449" y2="125.3449"/><text fill="#000000" font-family="sans-serif" font-size="7.8" font-weight="bold" lengthAdjust="spacing" textLength="5.1454" x="460.2753" y="122.4996">3</text><text fill="#000000" font-family="sans-serif" font-size="7.8" lengthAdjust="spacing" textLength="73.8867" x="467.8207" y="122.4996">getVisitRepository()</text><polygon fill="#181818" points="462.6753,140.5313,456.6753,142.9313,462.6753,145.3312,460.2753,142.9313" style="stroke:#181818;stroke-width:0.6;"/><line style="stroke:#181818;stroke-width:0.6;stroke-dasharray:2.0,2.0;" x1="459.0753" x2="553.0881" y1="142.9313" y2="142.9313"/><text fill="#000000" font-family="sans-serif" font-size="7.8" font-weight="bold" lengthAdjust="spacing" textLength="5.1454" x="466.2753" y="140.0859">4</text><text fill="#000000" font-family="sans-serif" font-size="7.8" lengthAdjust="spacing" textLength="17.2377" x="473.8207" y="140.0859">repo</text><polygon fill="#181818" points="635.4609,158.1176,641.4609,160.5176,635.4609,162.9176,637.8609,160.5176" style="stroke:#181818;stroke-width:0.6;"/><line style="stroke:#181818;stroke-width:0.6;" x1="456.0753" x2="639.0609" y1="160.5176" y2="160.5176"/><text fill="#000000" font-family="sans-serif" font-size="7.8" font-weight="bold" lengthAdjust="spacing" textLength="5.1454" x="460.2753" y="157.6723">5</text><text fill="#000000" font-family="sans-serif" font-size="7.8" lengthAdjust="spacing" textLength="45.4137" x="467.8207" y="157.6723">create(repo)</text><polygon fill="#181818" points="635.4609,175.7039,641.4609,178.1039,635.4609,180.5039,637.8609,178.1039" style="stroke:#181818;stroke-width:0.6;"/><line style="stroke:#181818;stroke-width:0.6;stroke-dasharray:2.0,2.0;" x1="453.0753" x2="639.0609" y1="178.1039" y2="178.1039"/><text fill="#000000" font-family="sans-serif" font-size="7.8" font-weight="bold" lengthAdjust="spacing" textLength="5.1454" x="457.2753" y="175.2586">6</text><text fill="#000000" font-family="sans-serif" font-size="7.8" lengthAdjust="spacing" textLength="26.146" x="464.8207" y="175.2586">service</text><polygon fill="#181818" points="819.8256,193.2902,825.8256,195.6902,819.8256,198.0902,822.2256,195.6902" style="stroke:#181818;stroke-width:0.6;"/><line style="stroke:#181818;stroke-width:0.6;" x1="453.0753" x2="823.4256" y1="195.6902" y2="195.6902"/><text fill="#000000" font-family="sans-serif" font-size="7.8" font-weight="bold" lengthAdjust="spacing" textLength="5.1454" x="457.2753" y="192.8449">7</text><text fill="#000000" font-family="sans-serif" font-size="7.8" lengthAdjust="spacing" textLength="67.3283" x="464.8207" y="192.8449">toEntity(dateDTO)</text><polygon fill="#181818" points="875.947,210.8766,881.947,213.2766,875.947,215.6766,878.347,213.2766" style="stroke:#181818;stroke-width:0.6;"/><line style="stroke:#181818;stroke-width:0.6;" x1="833.0256" x2="879.547" y1="213.2766" y2="213.2766"/><text fill="#000000" font-family="sans-serif" font-size="7.8" font-weight="bold" lengthAdjust="spacing" textLength="5.1454" x="837.2256" y="210.4313">8</text><text fill="#000000" font-family="sans-serif" font-size="7.8" lengthAdjust="spacing" textLength="28.176" x="844.771" y="210.4313">create()</text><rect fill="#E2E2F0" height="18.293" rx="1.5" ry="1.5" style="stroke:#181818;stroke-width:0.3;" width="82.0436" x="883.147" y="200.4902"/><text fill="#000000" font-family="sans-serif" font-size="8.4" lengthAdjust="spacing" textLength="73.6436" x="887.347" y="212.8113">selectedDate:Date</text><polygon fill="#181818" points="459.6753,235.7695,453.6753,238.1695,459.6753,240.5695,457.2753,238.1695" style="stroke:#181818;stroke-width:0.6;"/><line style="stroke:#181818;stroke-width:0.6;stroke-dasharray:2.0,2.0;" x1="456.0753" x2="829.4256" y1="238.1695" y2="238.1695"/><text fill="#000000" font-family="sans-serif" font-size="7.8" font-weight="bold" lengthAdjust="spacing" textLength="5.1454" x="463.2753" y="235.3242">9</text><text fill="#000000" font-family="sans-serif" font-size="7.8" lengthAdjust="spacing" textLength="48.5024" x="470.8207" y="235.3242">selectedDate</text><polygon fill="#181818" points="638.4609,253.3559,644.4609,255.7559,638.4609,258.1559,640.8609,255.7559" style="stroke:#181818;stroke-width:0.6;"/><line style="stroke:#181818;stroke-width:0.6;" x1="453.0753" x2="642.0609" y1="255.7559" y2="255.7559"/><text fill="#000000" font-family="sans-serif" font-size="7.8" font-weight="bold" lengthAdjust="spacing" textLength="10.2908" x="457.2753" y="252.9105">10</text><text fill="#000000" font-family="sans-serif" font-size="7.8" lengthAdjust="spacing" textLength="86.7445" x="469.9661" y="252.9105">saveVisit(selectedDate)</text><polygon fill="#181818" points="738.7937,270.9422,744.7937,273.3422,738.7937,275.7422,741.1937,273.3422" style="stroke:#181818;stroke-width:0.6;"/><line style="stroke:#181818;stroke-width:0.6;" x1="651.6609" x2="742.3937" y1="273.3422" y2="273.3422"/><text fill="#000000" font-family="sans-serif" font-size="7.8" font-weight="bold" lengthAdjust="spacing" textLength="10.2908" x="655.8609" y="270.4969">11</text><text fill="#000000" font-family="sans-serif" font-size="7.8" lengthAdjust="spacing" textLength="70.2419" x="668.5518" y="270.4969">save(selectedDate)</text><polygon fill="#181818" points="658.2609,288.5285,652.2609,290.9285,658.2609,293.3285,655.8609,290.9285" style="stroke:#181818;stroke-width:0.6;"/><line style="stroke:#181818;stroke-width:0.6;stroke-dasharray:2.0,2.0;" x1="654.6609" x2="748.3937" y1="290.9285" y2="290.9285"/><text fill="#000000" font-family="sans-serif" font-size="7.8" font-weight="bold" lengthAdjust="spacing" textLength="10.2908" x="661.8609" y="288.0832">12</text><text fill="#000000" font-family="sans-serif" font-size="7.8" lengthAdjust="spacing" textLength="29.1053" x="674.5518" y="288.0832">success</text><polygon fill="#181818" points="459.6753,306.1148,453.6753,308.5148,459.6753,310.9148,457.2753,308.5148" style="stroke:#181818;stroke-width:0.6;"/><line style="stroke:#181818;stroke-width:0.6;stroke-dasharray:2.0,2.0;" x1="456.0753" x2="642.0609" y1="308.5148" y2="308.5148"/><text fill="#000000" font-family="sans-serif" font-size="7.8" font-weight="bold" lengthAdjust="spacing" textLength="10.2908" x="463.2753" y="305.6695">13</text><text fill="#000000" font-family="sans-serif" font-size="7.8" lengthAdjust="spacing" textLength="29.1053" x="475.9661" y="305.6695">success</text><polygon fill="#181818" points="819.8256,323.7012,825.8256,326.1012,819.8256,328.5012,822.2256,326.1012" style="stroke:#181818;stroke-width:0.6;"/><line style="stroke:#181818;stroke-width:0.6;" x1="453.0753" x2="823.4256" y1="326.1012" y2="326.1012"/><text fill="#000000" font-family="sans-serif" font-size="7.8" font-weight="bold" lengthAdjust="spacing" textLength="10.2908" x="457.2753" y="323.2559">14</text><text fill="#000000" font-family="sans-serif" font-size="7.8" lengthAdjust="spacing" textLength="78.1181" x="469.9661" y="323.2559">toDTO(selectedDate)</text><polygon fill="#181818" points="963.9905,341.2875,969.9905,343.6875,963.9905,346.0875,966.3905,343.6875" style="stroke:#181818;stroke-width:0.6;"/><line style="stroke:#181818;stroke-width:0.6;" x1="833.0256" x2="967.5905" y1="343.6875" y2="343.6875"/><text fill="#000000" font-family="sans-serif" font-size="7.8" font-weight="bold" lengthAdjust="spacing" textLength="10.2908" x="837.2256" y="340.8422">15</text><text fill="#000000" font-family="sans-serif" font-size="7.8" lengthAdjust="spacing" textLength="28.176" x="849.9164" y="340.8422">create()</text><rect fill="#E2E2F0" height="18.293" rx="1.5" ry="1.5" style="stroke:#181818;stroke-width:0.3;" width="118.3014" x="971.1905" y="330.9012"/><text fill="#000000" font-family="sans-serif" font-size="8.4" lengthAdjust="spacing" textLength="109.9014" x="975.3905" y="343.2223">selectedDateDTO:DateDTO</text><polygon fill="#181818" points="459.6753,366.1805,453.6753,368.5805,459.6753,370.9805,457.2753,368.5805" style="stroke:#181818;stroke-width:0.6;"/><line style="stroke:#181818;stroke-width:0.6;stroke-dasharray:2.0,2.0;" x1="456.0753" x2="829.4256" y1="368.5805" y2="368.5805"/><text fill="#000000" font-family="sans-serif" font-size="7.8" font-weight="bold" lengthAdjust="spacing" textLength="10.2908" x="463.2753" y="365.7352">16</text><text fill="#000000" font-family="sans-serif" font-size="7.8" lengthAdjust="spacing" textLength="65.3364" x="475.9661" y="365.7352">selectedDateDTO</text><polygon fill="#181818" points="227.0271,383.7668,221.0271,386.1668,227.0271,388.5668,224.6271,386.1668" style="stroke:#181818;stroke-width:0.6;"/><line style="stroke:#181818;stroke-width:0.6;stroke-dasharray:2.0,2.0;" x1="223.4271" x2="452.4753" y1="386.1668" y2="386.1668"/><text fill="#000000" font-family="sans-serif" font-size="7.8" font-weight="bold" lengthAdjust="spacing" textLength="10.2908" x="230.6271" y="383.3215">17</text><text fill="#000000" font-family="sans-serif" font-size="7.8" lengthAdjust="spacing" textLength="205.5574" x="243.3179" y="383.3215">Booking successfully registered with selectedDateDTO</text><polygon fill="#181818" points="23.2515,401.3531,17.2515,403.7531,23.2515,406.1531,20.8515,403.7531" style="stroke:#181818;stroke-width:0.6;"/><line style="stroke:#181818;stroke-width:0.6;stroke-dasharray:2.0,2.0;" x1="19.6515" x2="216.8271" y1="403.7531" y2="403.7531"/><text fill="#000000" font-family="sans-serif" font-size="7.8" font-weight="bold" lengthAdjust="spacing" textLength="10.2908" x="26.8515" y="400.9078">18</text><text fill="#000000" font-family="sans-serif" font-size="7.8" lengthAdjust="spacing" textLength="167.6848" x="39.5423" y="400.9078">Booking confirmation with selectedDateDTO</text><!--SRC=[bLEnRi8m4Dtz5QTCWCHGTSlGeT1A35Mbfh2xpX6i1ZjrBY3-lZxR913eq2M-yti-ltSvawOQOLqyFkHGg1sMdKytkjK4pzP-QrF178fJIxY70dywD0fXgMNbv5u8sP6LYlH14e8r8JVT_WkTnnHP1zcYrcWe0zb234KZ7Mcb6sa8iZnkRZGU0sUz6k51IvAoi8QShMjqiHwv-fgz3PUUug7Nc0HgYg_PBRg3LXZPHKm2EyNNR8UDZTGF7_dbN9lJUwBVPDCafJ4CFOczIgqGSONvapVkVm3Mg0XApn3h5U-onHoKDLljzak_Fs5m-Va-5Gmn9LdBeK8QoPjCHK9XtXTZ7_tXvDHVuP2hCtWkVGcdLed-O7IK0zaNGvfEWww8CCStcFrWoS9p_cIpMN_LmEobNVB5hSPM7Z0ud5mIfo8HcClU8t74OM1agLCAstOuFSX8o1sptk6ey1zsFJ5FwpzCU_RGV9w8ynjCahPTNP_y7woqVv0EIpXgsjrKuD7Xyc6sXXffYYHfQ-uV52ME9_GN]--></g></svg>