<svg xmlns="http://www.w3.org/2000/svg" xmlns:xlink="http://www.w3.org/1999/xlink" contentStyleType="text/css" height="751.2px" preserveAspectRatio="none" style="width:3329px;height:751px;background:#FFFFFF;" version="1.1" viewBox="0 0 3329 751" width="3329.6px" zoomAndPan="magnify"><defs/><g><!--class Client--><g id="elem_Client"><rect codeLine="5" fill="#F1F1F1" height="35.6969" id="Client" rx="2" ry="2" style="stroke:#181818;stroke-width:0.4000000000000001;" width="33.4344" x="513.2" y="5.6"/><text fill="#000000" font-family="sans-serif" font-size="11.2" lengthAdjust="spacing" textLength="28.6344" x="515.6" y="21.6859">Client</text><line style="stroke:#181818;stroke-width:0.4000000000000001;" x1="514" x2="545.8344" y1="28.4969" y2="28.4969"/><line style="stroke:#181818;stroke-width:0.4000000000000001;" x1="514" x2="545.8344" y1="34.8969" y2="34.8969"/></g><!--class ListPropertyView--><g id="elem_ListPropertyView"><rect codeLine="8" fill="#F1F1F1" height="35.6969" id="ListPropertyView" rx="2" ry="2" style="stroke:#181818;stroke-width:0.4000000000000001;" width="88.8328" x="1156.8" y="5.6"/><text fill="#000000" font-family="sans-serif" font-size="11.2" lengthAdjust="spacing" textLength="84.0328" x="1159.2" y="21.6859">ListPropertyView</text><line style="stroke:#181818;stroke-width:0.4000000000000001;" x1="1157.6" x2="1244.8328" y1="28.4969" y2="28.4969"/><line style="stroke:#181818;stroke-width:0.4000000000000001;" x1="1157.6" x2="1244.8328" y1="34.8969" y2="34.8969"/></g><!--class ListPropertyController--><g id="elem_ListPropertyController"><rect codeLine="11" fill="#F1F1F1" height="110.1813" id="ListPropertyController" rx="2" ry="2" style="stroke:#181818;stroke-width:0.4000000000000001;" width="203.5" x="1099.6" y="104.8"/><text fill="#000000" font-family="sans-serif" font-size="11.2" lengthAdjust="spacing" textLength="108.3086" x="1147.1957" y="120.8859">ListPropertyController</text><line style="stroke:#181818;stroke-width:0.4000000000000001;" x1="1100.4" x2="1302.3" y1="127.6969" y2="127.6969"/><line style="stroke:#181818;stroke-width:0.4000000000000001;" x1="1100.4" x2="1302.3" y1="134.0969" y2="134.0969"/><text fill="#000000" font-family="sans-serif" font-size="11.2" lengthAdjust="spacing" textLength="140.3938" x="1104.4" y="149.3828">+createLand(dto: LandDTO)</text><text fill="#000000" font-family="sans-serif" font-size="11.2" lengthAdjust="spacing" textLength="193.9" x="1104.4" y="164.2797">+createApartment(dto: ApartmentDTO)</text><text fill="#000000" font-family="sans-serif" font-size="11.2" lengthAdjust="spacing" textLength="155.3125" x="1104.4" y="179.1766">+createHouse(dto: HouseDTO)</text><text fill="#000000" font-family="sans-serif" font-size="11.2" lengthAdjust="spacing" textLength="96.1844" x="1104.4" y="194.0734">+getAgentService()</text><text fill="#000000" font-family="sans-serif" font-size="11.2" lengthAdjust="spacing" textLength="138.5016" x="1104.4" y="208.9703">+getAdvertisementService()</text></g><!--class Land--><g id="elem_Land"><rect codeLine="19" fill="#F1F1F1" height="50.5938" id="Land" rx="2" ry="2" style="stroke:#181818;stroke-width:0.4000000000000001;" width="412.3898" x="5.6" y="430.4"/><text fill="#000000" font-family="sans-serif" font-size="11.2" lengthAdjust="spacing" textLength="24.9156" x="199.3371" y="446.4859">Land</text><line style="stroke:#181818;stroke-width:0.4000000000000001;" x1="6.4" x2="417.1898" y1="453.2969" y2="453.2969"/><line style="stroke:#181818;stroke-width:0.4000000000000001;" x1="6.4" x2="417.1898" y1="459.6969" y2="459.6969"/><text fill="#000000" font-family="sans-serif" font-size="11.2" lengthAdjust="spacing" textLength="402.7898" x="10.4" y="474.9828">Land(area: string, location: string, distance: string, price: float, photograph: string)</text></g><!--class Apartment--><g id="elem_Apartment"><rect codeLine="23" fill="#F1F1F1" height="50.5938" id="Apartment" rx="2" ry="2" style="stroke:#181818;stroke-width:0.4000000000000001;" width="826.3688" x="445.6" y="430.4"/><text fill="#000000" font-family="sans-serif" font-size="11.2" lengthAdjust="spacing" textLength="51.6688" x="832.95" y="446.4859">Apartment</text><line style="stroke:#181818;stroke-width:0.4000000000000001;" x1="446.4" x2="1271.1688" y1="453.2969" y2="453.2969"/><line style="stroke:#181818;stroke-width:0.4000000000000001;" x1="446.4" x2="1271.1688" y1="459.6969" y2="459.6969"/><text fill="#000000" font-family="sans-serif" font-size="11.2" lengthAdjust="spacing" textLength="816.7688" x="450.4" y="474.9828">Apartment(area: string, location: string, distance: string, price: float, photograph: string, bedrooms: int, bathrooms: int, parkingSpaces: int, availableEquipment: string)</text></g><!--class House--><g id="elem_House"><rect codeLine="27" fill="#F1F1F1" height="95.2844" id="House" rx="2" ry="2" style="stroke:#181818;stroke-width:0.4000000000000001;" width="1086.6266" x="1300.4" y="408"/><text fill="#000000" font-family="sans-serif" font-size="11.2" lengthAdjust="spacing" textLength="32.375" x="1827.5258" y="424.0859">House</text><line style="stroke:#181818;stroke-width:0.4000000000000001;" x1="1301.2" x2="2386.2266" y1="430.8969" y2="430.8969"/><text fill="#000000" font-family="sans-serif" font-size="11.2" lengthAdjust="spacing" textLength="147.5578" x="1305.2" y="446.1828">-existenceBasement: boolean</text><text fill="#000000" font-family="sans-serif" font-size="11.2" lengthAdjust="spacing" textLength="120.1703" x="1305.2" y="461.0797">-habittableAttic: boolean</text><text fill="#000000" font-family="sans-serif" font-size="11.2" lengthAdjust="spacing" textLength="115.1883" x="1305.2" y="475.9766">-sunExposure: boolean</text><line style="stroke:#181818;stroke-width:0.4000000000000001;" x1="1301.2" x2="2386.2266" y1="481.9875" y2="481.9875"/><text fill="#000000" font-family="sans-serif" font-size="11.2" lengthAdjust="spacing" textLength="1077.0266" x="1305.2" y="497.2734">House(area: string, location: string, distance: string, price: float, photograph: string, bedrooms: int, bathrooms: int, parkingSpaces: int, availableEquipment: string, basement: boolean, attic: boolean, sunExposure: string)</text></g><!--class LandMapper--><g id="elem_LandMapper"><rect codeLine="34" fill="#F1F1F1" height="50.5938" id="LandMapper" rx="2" ry="2" style="stroke:#181818;stroke-width:0.4000000000000001;" width="164.9344" x="428.4" y="286.4"/><text fill="#000000" font-family="sans-serif" font-size="11.2" lengthAdjust="spacing" textLength="62.8906" x="479.4219" y="302.4859">LandMapper</text><line style="stroke:#181818;stroke-width:0.4000000000000001;" x1="429.2" x2="592.5344" y1="309.2969" y2="309.2969"/><line style="stroke:#181818;stroke-width:0.4000000000000001;" x1="429.2" x2="592.5344" y1="315.6969" y2="315.6969"/><text fill="#000000" font-family="sans-serif" font-size="11.2" lengthAdjust="spacing" textLength="155.3344" x="433.2" y="330.9828">+toModel(dto: LandDTO): Land</text></g><!--class ApartmentMapper--><g id="elem_ApartmentMapper"><rect codeLine="38" fill="#F1F1F1" height="50.5938" id="ApartmentMapper" rx="2" ry="2" style="stroke:#181818;stroke-width:0.4000000000000001;" width="218.4406" x="950.4" y="286.4"/><text fill="#000000" font-family="sans-serif" font-size="11.2" lengthAdjust="spacing" textLength="89.6438" x="1014.7984" y="302.4859">ApartmentMapper</text><line style="stroke:#181818;stroke-width:0.4000000000000001;" x1="951.2" x2="1168.0406" y1="309.2969" y2="309.2969"/><line style="stroke:#181818;stroke-width:0.4000000000000001;" x1="951.2" x2="1168.0406" y1="315.6969" y2="315.6969"/><text fill="#000000" font-family="sans-serif" font-size="11.2" lengthAdjust="spacing" textLength="208.8406" x="955.2" y="330.9828">+toModel(dto: ApartmentDTO): Apartment</text></g><!--class HouseMapper--><g id="elem_HouseMapper"><rect codeLine="42" fill="#F1F1F1" height="50.5938" id="HouseMapper" rx="2" ry="2" style="stroke:#181818;stroke-width:0.4000000000000001;" width="179.8531" x="1196.8" y="286.4"/><text fill="#000000" font-family="sans-serif" font-size="11.2" lengthAdjust="spacing" textLength="70.35" x="1251.5516" y="302.4859">HouseMapper</text><line style="stroke:#181818;stroke-width:0.4000000000000001;" x1="1197.6" x2="1375.8531" y1="309.2969" y2="309.2969"/><line style="stroke:#181818;stroke-width:0.4000000000000001;" x1="1197.6" x2="1375.8531" y1="315.6969" y2="315.6969"/><text fill="#000000" font-family="sans-serif" font-size="11.2" lengthAdjust="spacing" textLength="170.2531" x="1201.6" y="330.9828">+toModel(dto: HouseDTO): House</text></g><!--class AgentService--><g id="elem_AgentService"><rect codeLine="46" fill="#F1F1F1" height="65.4906" id="AgentService" rx="2" ry="2" style="stroke:#181818;stroke-width:0.4000000000000001;" width="117.6188" x="2415.2" y="422.8"/><text fill="#000000" font-family="sans-serif" font-size="11.2" lengthAdjust="spacing" textLength="66.6148" x="2440.702" y="438.8859">AgentService</text><line style="stroke:#181818;stroke-width:0.4000000000000001;" x1="2416" x2="2532.0188" y1="445.6969" y2="445.6969"/><line style="stroke:#181818;stroke-width:0.4000000000000001;" x1="2416" x2="2532.0188" y1="452.0969" y2="452.0969"/><text fill="#000000" font-family="sans-serif" font-size="11.2" lengthAdjust="spacing" textLength="42.0164" x="2420" y="467.3828">+getAll()</text><text fill="#000000" font-family="sans-serif" font-size="11.2" lengthAdjust="spacing" textLength="108.0188" x="2420" y="482.2797">+getAgentById(id: int)</text></g><!--class AdvertisementService--><g id="elem_AdvertisementService"><rect codeLine="51" fill="#F1F1F1" height="80.3875" id="AdvertisementService" rx="2" ry="2" style="stroke:#181818;stroke-width:0.4000000000000001;" width="431.3391" x="2885.6" y="415.6"/><text fill="#000000" font-family="sans-serif" font-size="11.2" lengthAdjust="spacing" textLength="108.932" x="3046.8035" y="431.6859">AdvertisementService</text><line style="stroke:#181818;stroke-width:0.4000000000000001;" x1="2886.4" x2="3316.1391" y1="438.4969" y2="438.4969"/><line style="stroke:#181818;stroke-width:0.4000000000000001;" x1="2886.4" x2="3316.1391" y1="444.8969" y2="444.8969"/><text fill="#000000" font-family="sans-serif" font-size="11.2" lengthAdjust="spacing" textLength="421.7391" x="2890.4" y="460.1828">+createAdv(typeProperty: string, typeBusiness: string, price: float, property: Property)</text><text fill="#000000" font-family="sans-serif" font-size="11.2" lengthAdjust="spacing" textLength="133.525" x="2890.4" y="475.0797">+save(adv: Advertisement)</text><text fill="#000000" font-family="sans-serif" font-size="11.2" lengthAdjust="spacing" textLength="148.4711" x="2890.4" y="489.9766">+validate(adv: Advertisement)</text></g><!--class Advertisement--><g id="elem_Advertisement"><rect codeLine="57" fill="#F1F1F1" height="50.5938" id="Advertisement" rx="2" ry="2" style="stroke:#181818;stroke-width:0.4000000000000001;" width="445.957" x="2878.4" y="695.2"/><text fill="#000000" font-family="sans-serif" font-size="11.2" lengthAdjust="spacing" textLength="71.5859" x="3065.5855" y="711.2859">Advertisement</text><line style="stroke:#181818;stroke-width:0.4000000000000001;" x1="2879.2" x2="3323.557" y1="718.0969" y2="718.0969"/><line style="stroke:#181818;stroke-width:0.4000000000000001;" x1="2879.2" x2="3323.557" y1="724.4969" y2="724.4969"/><text fill="#000000" font-family="sans-serif" font-size="11.2" lengthAdjust="spacing" textLength="436.357" x="2883.2" y="739.7828">Advertisement(typeProperty: string, typeBusiness: string, price: float, property: Property)</text></g><!--class AgentRepository--><g id="elem_AgentRepository"><rect codeLine="61" fill="#F1F1F1" height="65.4906" id="AgentRepository" rx="2" ry="2" style="stroke:#181818;stroke-width:0.4000000000000001;" width="153.1109" x="2532" y="559.2"/><text fill="#000000" font-family="sans-serif" font-size="11.2" lengthAdjust="spacing" textLength="82.8023" x="2567.1543" y="575.2859">AgentRepository</text><line style="stroke:#181818;stroke-width:0.4000000000000001;" x1="2532.8" x2="2684.3109" y1="582.0969" y2="582.0969"/><line style="stroke:#181818;stroke-width:0.4000000000000001;" x1="2532.8" x2="2684.3109" y1="588.4969" y2="588.4969"/><text fill="#000000" font-family="sans-serif" font-size="11.2" lengthAdjust="spacing" textLength="108.0188" x="2536.8" y="603.7828">+getAll(): List&lt;Agent&gt;</text><text fill="#000000" font-family="sans-serif" font-size="11.2" lengthAdjust="spacing" textLength="143.5109" x="2536.8" y="618.6797">+getAgentById(id: int): Agent</text></g><!--class AdvertisementRepository--><g id="elem_AdvertisementRepository"><rect codeLine="66" fill="#F1F1F1" height="50.5938" id="AdvertisementRepository" rx="2" ry="2" style="stroke:#181818;stroke-width:0.4000000000000001;" width="143.125" x="2915.2" y="566.8"/><text fill="#000000" font-family="sans-serif" font-size="11.2" lengthAdjust="spacing" textLength="125.1195" x="2924.2027" y="582.8859">AdvertisementRepository</text><line style="stroke:#181818;stroke-width:0.4000000000000001;" x1="2916" x2="3057.525" y1="589.6969" y2="589.6969"/><line style="stroke:#181818;stroke-width:0.4000000000000001;" x1="2916" x2="3057.525" y1="596.0969" y2="596.0969"/><text fill="#000000" font-family="sans-serif" font-size="11.2" lengthAdjust="spacing" textLength="133.525" x="2920" y="611.3828">+save(adv: Advertisement)</text></g><!--class RepositoryFactory--><g id="elem_RepositoryFactory"><rect codeLine="70" fill="#F1F1F1" height="65.4906" id="RepositoryFactory" rx="2" ry="2" style="stroke:#181818;stroke-width:0.4000000000000001;" width="295.632" x="2561.2" y="422.8"/><text fill="#000000" font-family="sans-serif" font-size="11.2" lengthAdjust="spacing" textLength="90.8742" x="2663.5789" y="438.8859">RepositoryFactory</text><line style="stroke:#181818;stroke-width:0.4000000000000001;" x1="2562" x2="2856.032" y1="445.6969" y2="445.6969"/><line style="stroke:#181818;stroke-width:0.4000000000000001;" x1="2562" x2="2856.032" y1="452.0969" y2="452.0969"/><text fill="#000000" font-family="sans-serif" font-size="11.2" lengthAdjust="spacing" textLength="201.3977" x="2566" y="467.3828">+getAgentRepository(): AgentRepository</text><text fill="#000000" font-family="sans-serif" font-size="11.2" lengthAdjust="spacing" textLength="286.032" x="2566" y="482.2797">+getAdvertisementRepository(): AdvertisementRepository</text></g><!--class Company--><g id="elem_Company"><rect codeLine="75" fill="#F1F1F1" height="65.4906" id="Company" rx="2" ry="2" style="stroke:#181818;stroke-width:0.4000000000000001;" width="263.257" x="2460" y="278.8"/><text fill="#000000" font-family="sans-serif" font-size="11.2" lengthAdjust="spacing" textLength="47.9336" x="2567.6617" y="294.8859">Company</text><line style="stroke:#181818;stroke-width:0.4000000000000001;" x1="2460.8" x2="2722.457" y1="301.6969" y2="301.6969"/><line style="stroke:#181818;stroke-width:0.4000000000000001;" x1="2460.8" x2="2722.457" y1="308.0969" y2="308.0969"/><text fill="#000000" font-family="sans-serif" font-size="11.2" lengthAdjust="spacing" textLength="169.0227" x="2464.8" y="323.3828">+getAgentService(): AgentService</text><text fill="#000000" font-family="sans-serif" font-size="11.2" lengthAdjust="spacing" textLength="253.657" x="2464.8" y="338.2797">+getAdvertisementService(): AdvertisementService</text></g><!--class Agent--><g id="elem_Agent"><rect codeLine="81" fill="#F1F1F1" height="80.3875" id="Agent" rx="2" ry="2" style="stroke:#181818;stroke-width:0.4000000000000001;" width="104.543" x="3144" y="552"/><text fill="#000000" font-family="sans-serif" font-size="11.2" lengthAdjust="spacing" textLength="29.2688" x="3181.6371" y="568.0859">Agent</text><line style="stroke:#181818;stroke-width:0.4000000000000001;" x1="3144.8" x2="3247.743" y1="574.8969" y2="574.8969"/><text fill="#000000" font-family="sans-serif" font-size="11.2" lengthAdjust="spacing" textLength="33.3102" x="3148.8" y="590.1828">+id: int</text><text fill="#000000" font-family="sans-serif" font-size="11.2" lengthAdjust="spacing" textLength="68.168" x="3148.8" y="605.0797">+name: string</text><text fill="#000000" font-family="sans-serif" font-size="11.2" lengthAdjust="spacing" textLength="94.943" x="3148.8" y="619.9766">+contactInfo: string</text><line style="stroke:#181818;stroke-width:0.4000000000000001;" x1="3144.8" x2="3247.743" y1="625.9875" y2="625.9875"/></g><!--class AgentMapper--><g id="elem_AgentMapper"><rect codeLine="87" fill="#F1F1F1" height="50.5938" id="AgentMapper" rx="2" ry="2" style="stroke:#181818;stroke-width:0.4000000000000001;" width="179.2352" x="1405.2" y="286.4"/><text fill="#000000" font-family="sans-serif" font-size="11.2" lengthAdjust="spacing" textLength="67.2438" x="1461.1957" y="302.4859">AgentMapper</text><line style="stroke:#181818;stroke-width:0.4000000000000001;" x1="1406" x2="1583.6352" y1="309.2969" y2="309.2969"/><line style="stroke:#181818;stroke-width:0.4000000000000001;" x1="1406" x2="1583.6352" y1="315.6969" y2="315.6969"/><text fill="#000000" font-family="sans-serif" font-size="11.2" lengthAdjust="spacing" textLength="169.6352" x="1410" y="330.9828">+toDTO(agent: Agent): AgentDTO</text></g><!--class Property--><g id="elem_Property"><rect codeLine="91" fill="#F1F1F1" height="80.3875" id="Property" rx="2" ry="2" style="stroke:#181818;stroke-width:0.4000000000000001;" width="88.6617" x="485.6" y="120"/><text fill="#000000" font-family="sans-serif" font-size="11.2" lengthAdjust="spacing" textLength="42.3281" x="508.7668" y="136.0859">Property</text><line style="stroke:#181818;stroke-width:0.4000000000000001;" x1="486.4" x2="573.4617" y1="142.8969" y2="142.8969"/><text fill="#000000" font-family="sans-serif" font-size="11.2" lengthAdjust="spacing" textLength="26.1461" x="490.4" y="158.1828">-area</text><text fill="#000000" font-family="sans-serif" font-size="11.2" lengthAdjust="spacing" textLength="42.3336" x="490.4" y="173.0797">-location</text><text fill="#000000" font-family="sans-serif" font-size="11.2" lengthAdjust="spacing" textLength="79.0617" x="490.4" y="187.9766">-distanceCenter</text><line style="stroke:#181818;stroke-width:0.4000000000000001;" x1="486.4" x2="573.4617" y1="193.9875" y2="193.9875"/></g><!--class Residency--><g id="elem_Residency"><rect codeLine="97" fill="#F1F1F1" height="95.2844" id="Residency" rx="2" ry="2" style="stroke:#181818;stroke-width:0.4000000000000001;" width="111.0836" x="753.6" y="264"/><text fill="#000000" font-family="sans-serif" font-size="11.2" lengthAdjust="spacing" textLength="52.2922" x="782.9957" y="280.0859">Residency</text><line style="stroke:#181818;stroke-width:0.4000000000000001;" x1="754.4" x2="863.8836" y1="286.8969" y2="286.8969"/><text fill="#000000" font-family="sans-serif" font-size="11.2" lengthAdjust="spacing" textLength="92.75" x="758.4" y="302.1828">-numberBedrooms</text><text fill="#000000" font-family="sans-serif" font-size="11.2" lengthAdjust="spacing" textLength="95.8617" x="758.4" y="317.0797">-numberBathrooms</text><text fill="#000000" font-family="sans-serif" font-size="11.2" lengthAdjust="spacing" textLength="77.8203" x="758.4" y="331.9766">-parkingSpaces</text><text fill="#000000" font-family="sans-serif" font-size="11.2" lengthAdjust="spacing" textLength="101.4836" x="758.4" y="346.8734">-availableEquipment</text><line style="stroke:#181818;stroke-width:0.4000000000000001;" x1="754.4" x2="863.8836" y1="352.8844" y2="352.8844"/></g><!--link ListPropertyView to ListPropertyController--><g id="link_ListPropertyView_ListPropertyController"><path codeLine="105" d="M1201.2,41.744 C1201.2,57.672 1201.2,77.344 1201.2,99.84 " fill="none" id="ListPropertyView-to-ListPropertyController" style="stroke:#181818;stroke-width:0.8000000000000002;stroke-dasharray:7.0,7.0;"/><polygon fill="#181818" points="1201.2,104.64,1204.4,97.44,1201.2,100.64,1198,97.44,1201.2,104.64" style="stroke:#181818;stroke-width:0.8000000000000002;"/></g><!--link ListPropertyController to Land--><g id="link_ListPropertyController_Land"><path codeLine="106" d="M1099.6,171.624 C1003.52,184.568 856.984,211.44 739.6,264 C673.32,293.672 672.824,328.952 606.8,359.2 C580.832,371.096 434.3712,405.1237 326.7392,429.3077 " fill="none" id="ListPropertyController-to-Land" style="stroke:#181818;stroke-width:0.8000000000000002;stroke-dasharray:7.0,7.0;"/><polygon fill="#181818" points="322.056,430.36,329.7824,431.9037,325.9587,429.4831,328.3793,425.6594,322.056,430.36" style="stroke:#181818;stroke-width:0.8000000000000002;"/></g><!--link ListPropertyController to Apartment--><g id="link_ListPropertyController_Apartment"><path codeLine="107" d="M1099.304,180.032 C1045.008,194.888 980.504,220.536 936.4,264 C889.024,310.688 870.3687,385.5302 863.2487,425.5542 " fill="none" id="ListPropertyController-to-Apartment" style="stroke:#181818;stroke-width:0.8000000000000002;stroke-dasharray:7.0,7.0;"/><polygon fill="#181818" points="862.408,430.28,866.8196,423.7518,863.1086,426.3418,860.5185,422.6308,862.408,430.28" style="stroke:#181818;stroke-width:0.8000000000000002;"/></g><!--link ListPropertyController to House--><g id="link_ListPropertyController_House"><path codeLine="108" d="M1302.816,175.416 C1385.632,190.04 1503.968,217.256 1598.8,264 C1674.56,301.344 1745.8059,361.2263 1792.3899,404.5703 " fill="none" id="ListPropertyController-to-House" style="stroke:#181818;stroke-width:0.8000000000000002;stroke-dasharray:7.0,7.0;"/><polygon fill="#181818" points="1795.904,407.84,1792.8126,400.5927,1792.9756,405.1152,1788.453,405.2782,1795.904,407.84" style="stroke:#181818;stroke-width:0.8000000000000002;"/></g><!--link ListPropertyController to AgentMapper--><g id="link_ListPropertyController_AgentMapper"><path codeLine="109" d="M1302.856,212.736 C1351.736,237.712 1403.7337,264.2719 1442.6537,284.1599 " fill="none" id="ListPropertyController-to-AgentMapper" style="stroke:#181818;stroke-width:0.8000000000000002;stroke-dasharray:7.0,7.0;"/><polygon fill="#181818" points="1446.928,286.344,1441.9727,280.2183,1443.3661,284.5239,1439.0605,285.9173,1446.928,286.344" style="stroke:#181818;stroke-width:0.8000000000000002;"/></g><!--link ListPropertyController to HouseMapper--><g id="link_ListPropertyController_HouseMapper"><path codeLine="110" d="M1232.344,215.376 C1246.208,239.672 1259.4615,262.8867 1270.4055,282.0707 " fill="none" id="ListPropertyController-to-HouseMapper" style="stroke:#181818;stroke-width:0.8000000000000002;stroke-dasharray:7.0,7.0;"/><polygon fill="#181818" points="1272.784,286.24,1271.9958,278.4004,1270.8019,282.7656,1266.4368,281.5717,1272.784,286.24" style="stroke:#181818;stroke-width:0.8000000000000002;"/></g><!--link ListPropertyController to ApartmentMapper--><g id="link_ListPropertyController_ApartmentMapper"><path codeLine="111" d="M1149.68,215.376 C1126.744,239.672 1104.1912,263.5658 1086.0792,282.7498 " fill="none" id="ListPropertyController-to-ApartmentMapper" style="stroke:#181818;stroke-width:0.8000000000000002;stroke-dasharray:7.0,7.0;"/><polygon fill="#181818" points="1082.784,286.24,1090.0536,283.2015,1085.53,283.3315,1085.4,278.8079,1082.784,286.24" style="stroke:#181818;stroke-width:0.8000000000000002;"/></g><!--link ListPropertyController to LandMapper--><g id="link_ListPropertyController_LandMapper"><path codeLine="112" d="M1099.552,166.904 C990.32,175.472 812.56,195.272 665.2,239.2 C626.408,250.768 589.1641,268.2291 558.9801,284.0371 " fill="none" id="ListPropertyController-to-LandMapper" style="stroke:#181818;stroke-width:0.8000000000000002;stroke-dasharray:7.0,7.0;"/><polygon fill="#181818" points="554.728,286.264,562.5908,285.7584,558.2715,284.4082,559.6216,280.0888,554.728,286.264" style="stroke:#181818;stroke-width:0.8000000000000002;"/></g><!--link LandMapper to Land--><g id="link_LandMapper_Land"><path codeLine="113" d="M459.368,336.88 C404.48,363 322.3662,402.0814 267.4462,428.2174 " fill="none" id="LandMapper-to-Land" style="stroke:#181818;stroke-width:0.8000000000000002;stroke-dasharray:7.0,7.0;"/><polygon fill="#181818" points="263.112,430.28,270.9884,430.0755,266.7239,428.5611,268.2383,424.2966,263.112,430.28" style="stroke:#181818;stroke-width:0.8000000000000002;"/></g><!--link ApartmentMapper to Apartment--><g id="link_ApartmentMapper_Apartment"><path codeLine="114" d="M1025.08,336.88 C988.304,362.96 934.3237,401.2478 897.4597,427.3838 " fill="none" id="ApartmentMapper-to-Apartment" style="stroke:#181818;stroke-width:0.8000000000000002;stroke-dasharray:7.0,7.0;"/><polygon fill="#181818" points="893.544,430.16,901.2684,428.6062,896.8071,427.8465,897.5668,423.3853,893.544,430.16" style="stroke:#181818;stroke-width:0.8000000000000002;"/></g><!--link HouseMapper to House--><g id="link_HouseMapper_House"><path codeLine="115" d="M1335.8,336.856 C1353.12,344.808 1372.936,353.136 1391.6,359.2 C1450.336,378.288 1509.9431,393.5172 1571.1351,406.9172 " fill="none" id="HouseMapper-to-House" style="stroke:#181818;stroke-width:0.8000000000000002;stroke-dasharray:7.0,7.0;"/><polygon fill="#181818" points="1575.824,407.944,1569.4752,403.2779,1571.9166,407.0883,1568.1061,409.5297,1575.824,407.944" style="stroke:#181818;stroke-width:0.8000000000000002;"/></g><!--link ListPropertyController to Company--><g id="link_ListPropertyController_Company"><path codeLine="116" d="M1302.88,171.768 C1550.392,198.472 2179.3557,266.3252 2455.2197,296.0852 " fill="none" id="ListPropertyController-to-Company" style="stroke:#181818;stroke-width:0.8000000000000002;stroke-dasharray:7.0,7.0;"/><polygon fill="#181818" points="2459.992,296.6,2453.1768,292.6462,2456.0151,296.171,2452.4903,299.0093,2459.992,296.6" style="stroke:#181818;stroke-width:0.8000000000000002;"/></g><!--link Company to AgentService--><g id="link_Company_AgentService"><path codeLine="117" d="M2564.912,344.712 C2545.672,368.016 2522.8563,395.6348 2503.6323,418.9148 " fill="none" id="Company-to-AgentService" style="stroke:#181818;stroke-width:0.8000000000000002;stroke-dasharray:7.0,7.0;"/><polygon fill="#181818" points="2500.576,422.616,2507.628,419.1018,2503.123,419.5317,2502.6931,415.0267,2500.576,422.616" style="stroke:#181818;stroke-width:0.8000000000000002;"/></g><!--link Company to AdvertisementService--><g id="link_Company_AdvertisementService"><path codeLine="118" d="M2706.28,344.448 C2781.64,365.504 2876.1051,391.9 2956.1691,414.276 " fill="none" id="Company-to-AdvertisementService" style="stroke:#181818;stroke-width:0.8000000000000002;stroke-dasharray:7.0,7.0;"/><polygon fill="#181818" points="2960.792,415.568,2954.719,410.5481,2956.9396,414.4914,2952.9964,416.7119,2960.792,415.568" style="stroke:#181818;stroke-width:0.8000000000000002;"/></g><!--link AgentService to AgentRepository--><g id="link_AgentService_AgentRepository"><path codeLine="119" d="M2506.192,488.688 C2527.472,510.032 2551.859,534.4888 2573.083,555.7768 " fill="none" id="AgentService-to-AgentRepository" style="stroke:#181818;stroke-width:0.8000000000000002;stroke-dasharray:7.0,7.0;"/><polygon fill="#181818" points="2576.472,559.176,2573.6546,551.8178,2573.6478,556.3433,2569.1224,556.3365,2576.472,559.176" style="stroke:#181818;stroke-width:0.8000000000000002;"/></g><!--link AdvertisementService to AdvertisementRepository--><g id="link_AdvertisementService_AdvertisementRepository"><path codeLine="120" d="M3067.8,495.752 C3048.344,518.68 3027.5308,543.2131 3010.7388,562.9891 " fill="none" id="AdvertisementService-to-AdvertisementRepository" style="stroke:#181818;stroke-width:0.8000000000000002;stroke-dasharray:7.0,7.0;"/><polygon fill="#181818" points="3007.632,566.648,3014.7315,563.2308,3010.221,563.5989,3009.853,559.0884,3007.632,566.648" style="stroke:#181818;stroke-width:0.8000000000000002;"/></g><!--link AdvertisementService to Advertisement--><g id="link_AdvertisementService_Advertisement"><path codeLine="121" d="M3101.2,495.8 C3101.2,550.872 3101.2,644.424 3101.2,690.16 " fill="none" id="AdvertisementService-to-Advertisement" style="stroke:#181818;stroke-width:0.8000000000000002;stroke-dasharray:7.0,7.0;"/><polygon fill="#181818" points="3101.2,694.96,3104.4,687.76,3101.2,690.96,3098,687.76,3101.2,694.96" style="stroke:#181818;stroke-width:0.8000000000000002;"/></g><!--link AdvertisementRepository to Advertisement--><g id="link_AdvertisementRepository_Advertisement"><path codeLine="122" d="M3007.288,617.52 C3020.4,633.128 3037.912,653.608 3054,671.2 C3061.208,679.08 3065.9003,684.0479 3073.2763,691.5919 " fill="none" id="AdvertisementRepository-to-Advertisement" style="stroke:#181818;stroke-width:0.8000000000000002;"/><polygon fill="#181818" points="3076.632,695.024,3073.8866,687.6387,3073.8356,692.1639,3069.3104,692.113,3076.632,695.024" style="stroke:#181818;stroke-width:0.8000000000000002;"/><text fill="#000000" font-family="sans-serif" font-size="10.4" lengthAdjust="spacing" textLength="24.8625" x="3054.8" y="668.0227">holds</text><text fill="#000000" font-family="sans-serif" font-size="10.4" lengthAdjust="spacing" textLength="5.784" x="3005.1958" y="635.1095">1</text><text fill="#000000" font-family="sans-serif" font-size="10.4" lengthAdjust="spacing" textLength="4.0473" x="3067.1204" y="686.0144">*</text></g><!--link Client to Property--><g id="link_Client_Property"><path codeLine="123" d="M530,41.744 C530,61.376 530,89.168 530,115.048 " fill="none" id="Client-to-Property" style="stroke:#181818;stroke-width:0.8000000000000002;"/><polygon fill="#181818" points="530,119.848,533.2,112.648,530,115.848,526.8,112.648,530,119.848" style="stroke:#181818;stroke-width:0.8000000000000002;"/><text fill="#000000" font-family="sans-serif" font-size="10.4" lengthAdjust="spacing" textLength="24.2785" x="530.8" y="77.6227">owns</text><text fill="#000000" font-family="sans-serif" font-size="10.4" lengthAdjust="spacing" textLength="5.784" x="523.7929" y="58.7969">1</text><text fill="#000000" font-family="sans-serif" font-size="10.4" lengthAdjust="spacing" textLength="4.0473" x="525.7318" y="110.8572">*</text></g><!--reverse link Property to Residency--><g id="link_Property_Residency"><path codeLine="124" d="M587.2369,191.5517 C635.8049,217.6477 700.936,252.632 753.504,280.88 " fill="none" id="Property-backto-Residency" style="stroke:#181818;stroke-width:0.8000000000000002;"/><polygon fill="none" points="574.552,184.736,584.965,195.78,589.5088,187.3234,574.552,184.736" style="stroke:#181818;stroke-width:0.8000000000000002;"/></g><!--reverse link Property to Land--><g id="link_Property_Land"><path codeLine="125" d="M474.6019,209.4879 C452.9219,228.6479 437.36,242.608 414,264 C349.72,322.872 275.464,393.576 237.256,430.16 " fill="none" id="Property-backto-Land" style="stroke:#181818;stroke-width:0.8000000000000002;"/><polygon fill="none" points="485.392,199.952,471.4233,205.8912,477.7805,213.0846,485.392,199.952" style="stroke:#181818;stroke-width:0.8000000000000002;"/></g><!--reverse link Residency to House--><g id="link_Residency_House"><path codeLine="126" d="M878.3791,341.5151 C900.2831,350.0031 912.448,353.624 936.4,359.2 C1008.848,376.072 1150.28,393.432 1300.312,408.648 " fill="none" id="Residency-backto-House" style="stroke:#181818;stroke-width:0.8000000000000002;"/><polygon fill="none" points="864.952,336.312,876.6447,345.9908,880.1135,337.0394,864.952,336.312" style="stroke:#181818;stroke-width:0.8000000000000002;"/></g><!--reverse link Residency to Apartment--><g id="link_Residency_Apartment"><path codeLine="127" d="M830.3128,373.0226 C838.5528,396.6786 843.464,410.776 850.232,430.208 " fill="none" id="Residency-backto-Apartment" style="stroke:#181818;stroke-width:0.8000000000000002;"/><polygon fill="none" points="825.576,359.424,825.7799,374.6016,834.8456,371.4437,825.576,359.424" style="stroke:#181818;stroke-width:0.8000000000000002;"/></g><!--link Agent to Advertisement--><g id="link_Agent_Advertisement"><path codeLine="128" d="M3166.8,632.224 C3151.408,652.728 3135.9537,673.3132 3122.5857,691.1212 " fill="none" id="Agent-to-Advertisement" style="stroke:#181818;stroke-width:0.8000000000000002;"/><polygon fill="#181818" points="3119.704,694.96,3126.5857,691.123,3122.1054,691.761,3121.4673,687.2808,3119.704,694.96" style="stroke:#181818;stroke-width:0.8000000000000002;"/><text fill="#000000" font-family="sans-serif" font-size="10.4" lengthAdjust="spacing" textLength="38.7258" x="3149.2" y="668.0227">receives</text><text fill="#000000" font-family="sans-serif" font-size="10.4" lengthAdjust="spacing" textLength="5.784" x="3156.6748" y="650.0485">1</text><text fill="#000000" font-family="sans-serif" font-size="10.4" lengthAdjust="spacing" textLength="15.6102" x="3106.656" y="686.2393">1..*</text></g><!--link Company to RepositoryFactory--><g id="link_Company_RepositoryFactory"><path codeLine="129" d="M2618.288,344.712 C2637.528,368.016 2660.3437,395.6348 2679.5677,418.9148 " fill="none" id="Company-to-RepositoryFactory" style="stroke:#181818;stroke-width:0.8000000000000002;stroke-dasharray:7.0,7.0;"/><polygon fill="#181818" points="2682.624,422.616,2680.5069,415.0267,2680.077,419.5317,2675.572,419.1018,2682.624,422.616" style="stroke:#181818;stroke-width:0.8000000000000002;"/></g><!--link RepositoryFactory to AdvertisementRepository--><g id="link_RepositoryFactory_AdvertisementRepository"><path codeLine="130" d="M2775.336,488.52 C2824.736,512.504 2886.9061,542.6954 2932.0501,564.6154 " fill="none" id="RepositoryFactory-to-AdvertisementRepository" style="stroke:#181818;stroke-width:0.8000000000000002;stroke-dasharray:7.0,7.0;"/><polygon fill="#181818" points="2936.368,566.712,2931.2889,560.6885,2932.7697,564.9648,2928.4934,566.4457,2936.368,566.712" style="stroke:#181818;stroke-width:0.8000000000000002;"/></g><!--link RepositoryFactory to AgentRepository--><g id="link_RepositoryFactory_AgentRepository"><path codeLine="131" d="M2685.056,488.688 C2669.096,510.032 2651.1387,534.044 2635.2187,555.332 " fill="none" id="RepositoryFactory-to-AgentRepository" style="stroke:#181818;stroke-width:0.8000000000000002;stroke-dasharray:7.0,7.0;"/><polygon fill="#181818" points="2632.344,559.176,2639.2187,555.3265,2634.7396,555.9727,2634.0934,551.4936,2632.344,559.176" style="stroke:#181818;stroke-width:0.8000000000000002;"/></g><!--SRC=[pLPRRzCm57xFhx3wL62js6iqJMhB49CsWHZYtKtEMWlN3hQJhLp-EoTn7Dkvj23jWJx5v-9p_Rvwpt8W6LCPXqH_OwAWYXv8ngdMAsCKsvO6RZCf7jWF86-JfD6G3MSW3FcP_7QIEwRD9oKBKERubS7Jb6uZXL6ISr1eGV3t9bD03TnHaSzp8rDIVxtxyl5Lg5rXMkQ08Qr9T-pRVP2b1clJV7hz3ingXnuFe2gMmJmGvnKcnZGS8hNF7lDfSssIf1Wf9Hfx8tONXCkC6YQ5b-HOBHKPU4cXM7ryv98QFEsbaJj5Yxsp289rbRKHVU4l7_Q2R25NKXvqIfX0aoqr-_2CiN4ZTWy5pS39Q4KPfriEDzzBLjIPZLJHzBwjO07Fc1bWPcjgUvoIhPGSgB3wFTqoO-ehSU5OrjFgKjmy5rAN2cAD7VL_tvNQlrSscaU5Nf2eo44twwsxfqNX8MFalSo1ntYnNoEhTC8t0b9mx8ton0qTpDhF87u0D-TQmutpUG-Jw-DjFcTvqyiG2oF0Z4a3BURcM80Z5z_qMhekDHEWzUJiEo_dt-QbQOMRbLTfd4AhhIXdEGOVjHXFte4vbBrmud7RFmDk4pDI7VkTJnislcgiha-C8RKNJHGql7-oPzq5tkSzpVgfnKdFNNWl6gVhdikuogUmaOU2Ya7WZlJJQ6dF_4EaemjQ1miduMArVRK7GGyTqDjznhz5xCgjU9IT8Xvf7uE8kJdTDRpIw5toAFUURZzQAgxPqduvfhGdnv8Rz0SLZapZyq1apb-KXoseTSkFaSoHf1L67Dd67b1aqwh1ks6vl9vuC2GJxuZ6ewQ-4thFR2UCB86TkiKFukmzvyrw17skF6Vb_mswmljK7rSSKlXVbTd2975mwKftEnufna0GSN_d7a1obDi7r_spGpB5KhFB6LaihidizIncvfJi9Szrqhve0plYoLa-2Psu8xdwjLXuQFJapJmwfPNPXlU4VZwM9xh8byib1e-oJ8c235Y5M0fRFs3KPCYnftewOTqRrHy0]--></g></svg>