<svg xmlns="http://www.w3.org/2000/svg" xmlns:xlink="http://www.w3.org/1999/xlink" contentStyleType="text/css" height="374px" preserveAspectRatio="none" style="width:378px;height:374px;background:#FFFFFF;" version="1.1" viewBox="0 0 378 374" width="378px" zoomAndPan="magnify"><defs/><g><rect fill="#FFFFFF" height="188.7461" style="stroke:#181818;stroke-width:1.0;" width="10" x="20.8965" y="93.6211"/><rect fill="#FFFFFF" height="31.291" style="stroke:#181818;stroke-width:1.0;" width="10" x="334.9307" y="116.9121"/><rect fill="#FFFFFF" height="31.291" style="stroke:#181818;stroke-width:1.0;" width="10" x="334.9307" y="179.4941"/><rect fill="#FFFFFF" height="31.291" style="stroke:#181818;stroke-width:1.0;" width="10" x="334.9307" y="242.0762"/><line style="stroke:#181818;stroke-width:0.5;stroke-dasharray:5.0,5.0;" x1="25" x2="25" y1="83.6211" y2="291.3672"/><line style="stroke:#181818;stroke-width:0.5;stroke-dasharray:5.0,5.0;" x1="339.6479" x2="339.6479" y1="83.6211" y2="291.3672"/><text fill="#000000" font-family="sans-serif" font-size="14" lengthAdjust="spacing" textLength="35.793" x="5" y="80.1074">Client</text><ellipse cx="25.8965" cy="13.5" fill="#E2E2F0" rx="8" ry="8" style="stroke:#181818;stroke-width:0.5;"/><path d="M25.8965,21.5 L25.8965,48.5 M12.8965,29.5 L38.8965,29.5 M25.8965,48.5 L12.8965,63.5 M25.8965,48.5 L38.8965,63.5 " fill="none" style="stroke:#181818;stroke-width:0.5;"/><text fill="#000000" font-family="sans-serif" font-size="14" lengthAdjust="spacing" textLength="35.793" x="5" y="305.4746">Client</text><ellipse cx="25.8965" cy="317.4883" fill="#E2E2F0" rx="8" ry="8" style="stroke:#181818;stroke-width:0.5;"/><path d="M25.8965,325.4883 L25.8965,352.4883 M12.8965,333.4883 L38.8965,333.4883 M25.8965,352.4883 L12.8965,367.4883 M25.8965,352.4883 L38.8965,367.4883 " fill="none" style="stroke:#181818;stroke-width:0.5;"/><rect fill="#E2E2F0" height="32.6211" rx="2.5" ry="2.5" style="stroke:#181818;stroke-width:0.5;" width="64.5654" x="307.6479" y="50"/><text fill="#000000" font-family="sans-serif" font-size="14" lengthAdjust="spacing" textLength="50.5654" x="314.6479" y="72.1074">:System</text><rect fill="#E2E2F0" height="32.6211" rx="2.5" ry="2.5" style="stroke:#181818;stroke-width:0.5;" width="64.5654" x="307.6479" y="290.3672"/><text fill="#000000" font-family="sans-serif" font-size="14" lengthAdjust="spacing" textLength="50.5654" x="314.6479" y="312.4746">:System</text><rect fill="#FFFFFF" height="188.7461" style="stroke:#181818;stroke-width:1.0;" width="10" x="20.8965" y="93.6211"/><rect fill="#FFFFFF" height="31.291" style="stroke:#181818;stroke-width:1.0;" width="10" x="334.9307" y="116.9121"/><rect fill="#FFFFFF" height="31.291" style="stroke:#181818;stroke-width:1.0;" width="10" x="334.9307" y="179.4941"/><rect fill="#FFFFFF" height="31.291" style="stroke:#181818;stroke-width:1.0;" width="10" x="334.9307" y="242.0762"/><polygon fill="#181818" points="322.9307,112.9121,332.9307,116.9121,322.9307,120.9121,326.9307,116.9121" style="stroke:#181818;stroke-width:1.0;"/><line style="stroke:#181818;stroke-width:1.0;" x1="30.8965" x2="328.9307" y1="116.9121" y2="116.9121"/><text fill="#000000" font-family="sans-serif" font-size="13" font-weight="bold" lengthAdjust="spacing" textLength="7.23" x="37.8965" y="111.6494">1</text><text fill="#000000" font-family="sans-serif" font-size="13" lengthAdjust="spacing" textLength="145.958" x="49.1265" y="111.6494">requests to list a property</text><polygon fill="#181818" points="41.8965,144.2031,31.8965,148.2031,41.8965,152.2031,37.8965,148.2031" style="stroke:#181818;stroke-width:1.0;"/><line style="stroke:#181818;stroke-width:1.0;stroke-dasharray:2.0,2.0;" x1="35.8965" x2="338.9307" y1="148.2031" y2="148.2031"/><text fill="#000000" font-family="sans-serif" font-size="13" font-weight="bold" lengthAdjust="spacing" textLength="7.23" x="47.8965" y="142.9404">2</text><text fill="#000000" font-family="sans-serif" font-size="13" lengthAdjust="spacing" textLength="125.728" x="59.1265" y="142.9404">asks for property data</text><polygon fill="#181818" points="322.9307,175.4941,332.9307,179.4941,322.9307,183.4941,326.9307,179.4941" style="stroke:#181818;stroke-width:1.0;"/><line style="stroke:#181818;stroke-width:1.0;" x1="30.8965" x2="328.9307" y1="179.4941" y2="179.4941"/><text fill="#000000" font-family="sans-serif" font-size="13" font-weight="bold" lengthAdjust="spacing" textLength="7.23" x="37.8965" y="174.2314">3</text><text fill="#000000" font-family="sans-serif" font-size="13" lengthAdjust="spacing" textLength="121.418" x="49.1265" y="174.2314">types requested data</text><polygon fill="#181818" points="41.8965,206.7852,31.8965,210.7852,41.8965,214.7852,37.8965,210.7852" style="stroke:#181818;stroke-width:1.0;"/><line style="stroke:#181818;stroke-width:1.0;stroke-dasharray:2.0,2.0;" x1="35.8965" x2="338.9307" y1="210.7852" y2="210.7852"/><text fill="#000000" font-family="sans-serif" font-size="13" font-weight="bold" lengthAdjust="spacing" textLength="7.23" x="47.8965" y="205.5225">4</text><text fill="#000000" font-family="sans-serif" font-size="13" lengthAdjust="spacing" textLength="268.8042" x="59.1265" y="205.5225">shows list of all agents to promote the property</text><polygon fill="#181818" points="322.9307,238.0762,332.9307,242.0762,322.9307,246.0762,326.9307,242.0762" style="stroke:#181818;stroke-width:1.0;"/><line style="stroke:#181818;stroke-width:1.0;" x1="30.8965" x2="328.9307" y1="242.0762" y2="242.0762"/><text fill="#000000" font-family="sans-serif" font-size="13" font-weight="bold" lengthAdjust="spacing" textLength="7.23" x="37.8965" y="236.8135">5</text><text fill="#000000" font-family="sans-serif" font-size="13" lengthAdjust="spacing" textLength="80.2217" x="49.1265" y="236.8135">chooses an id</text><polygon fill="#181818" points="41.8965,269.3672,31.8965,273.3672,41.8965,277.3672,37.8965,273.3672" style="stroke:#181818;stroke-width:1.0;"/><line style="stroke:#181818;stroke-width:1.0;stroke-dasharray:2.0,2.0;" x1="35.8965" x2="338.9307" y1="273.3672" y2="273.3672"/><text fill="#000000" font-family="sans-serif" font-size="13" font-weight="bold" lengthAdjust="spacing" textLength="7.23" x="47.8965" y="268.1045">6</text><text fill="#000000" font-family="sans-serif" font-size="13" lengthAdjust="spacing" textLength="144.5107" x="59.1265" y="268.1045">informs operation sucess</text><!--SRC=[ROwnaiCW34HxlaBZ9fNFlOjhxXFo1JginCm18aWauxy_nIIJnXLYTlVjdbRL8lCqbOXPMufVdjCaT6kKFOrBm6l5v1msPVGQxgW4dFT_RkcNgcbUkSBm4mDb7G05-kaALWq-52F3C9ytKKgxtiyzsOclWEilZDylomprEKLKG1bY40M4KhbGrSrr3uncxy7Pu7y25vlpDi62YaTWtGh96qzBznqGPUM7z6g-0CO8U3LX7sGbYMs-hlHPTT3bLsQnDimGbgEIa6rp4dWYK0DdaEP9v1y0]--></g></svg>