<svg xmlns="http://www.w3.org/2000/svg" xmlns:xlink="http://www.w3.org/1999/xlink" contentStyleType="text/css" height="358px" preserveAspectRatio="none" style="width:307px;height:358px;background:#FFFFFF;" version="1.1" viewBox="0 0 307 358" width="307px" zoomAndPan="magnify"><defs/><g><rect fill="#FFFFFF" height="176.8633" style="stroke:#181818;stroke-width:1.0;" width="10" x="23.0566" y="91.4883"/><rect fill="#FFFFFF" height="29.3105" style="stroke:#181818;stroke-width:1.0;" width="10" x="263.5742" y="112.7988"/><rect fill="#FFFFFF" height="29.3105" style="stroke:#181818;stroke-width:1.0;" width="10" x="263.5742" y="171.4199"/><rect fill="#FFFFFF" height="29.3105" style="stroke:#181818;stroke-width:1.0;" width="10" x="263.5742" y="230.041"/><line style="stroke:#181818;stroke-width:0.5;stroke-dasharray:5.0,5.0;" x1="28" x2="28" y1="81.4883" y2="277.3516"/><line style="stroke:#181818;stroke-width:0.5;stroke-dasharray:5.0,5.0;" x1="268.3105" x2="268.3105" y1="81.4883" y2="277.3516"/><text fill="#000000" font-family="sans-serif" font-size="14" lengthAdjust="spacing" textLength="40.1133" x="5" y="78.5352">Agent</text><ellipse cx="28.0566" cy="13.5" fill="#E2E2F0" rx="8" ry="8" style="stroke:#181818;stroke-width:0.5;"/><path d="M28.0566,21.5 L28.0566,48.5 M15.0566,29.5 L41.0566,29.5 M28.0566,48.5 L15.0566,63.5 M28.0566,48.5 L41.0566,63.5 " fill="none" style="stroke:#181818;stroke-width:0.5;"/><text fill="#000000" font-family="sans-serif" font-size="14" lengthAdjust="spacing" textLength="40.1133" x="5" y="289.8867">Agent</text><ellipse cx="28.0566" cy="301.3398" fill="#E2E2F0" rx="8" ry="8" style="stroke:#181818;stroke-width:0.5;"/><path d="M28.0566,309.3398 L28.0566,336.3398 M15.0566,317.3398 L41.0566,317.3398 M28.0566,336.3398 L15.0566,351.3398 M28.0566,336.3398 L41.0566,351.3398 " fill="none" style="stroke:#181818;stroke-width:0.5;"/><rect fill="#E2E2F0" height="30.4883" rx="2.5" ry="2.5" style="stroke:#181818;stroke-width:0.5;" width="66.5273" x="235.3105" y="50"/><text fill="#000000" font-family="sans-serif" font-size="14" lengthAdjust="spacing" textLength="52.5273" x="242.3105" y="70.5352">:System</text><rect fill="#E2E2F0" height="30.4883" rx="2.5" ry="2.5" style="stroke:#181818;stroke-width:0.5;" width="66.5273" x="235.3105" y="276.3516"/><text fill="#000000" font-family="sans-serif" font-size="14" lengthAdjust="spacing" textLength="52.5273" x="242.3105" y="296.8867">:System</text><rect fill="#FFFFFF" height="176.8633" style="stroke:#181818;stroke-width:1.0;" width="10" x="23.0566" y="91.4883"/><rect fill="#FFFFFF" height="29.3105" style="stroke:#181818;stroke-width:1.0;" width="10" x="263.5742" y="112.7988"/><rect fill="#FFFFFF" height="29.3105" style="stroke:#181818;stroke-width:1.0;" width="10" x="263.5742" y="171.4199"/><rect fill="#FFFFFF" height="29.3105" style="stroke:#181818;stroke-width:1.0;" width="10" x="263.5742" y="230.041"/><polygon fill="#181818" points="251.5742,108.7988,261.5742,112.7988,251.5742,116.7988,255.5742,112.7988" style="stroke:#181818;stroke-width:1.0;"/><line style="stroke:#181818;stroke-width:1.0;" x1="33.0566" x2="257.5742" y1="112.7988" y2="112.7988"/><text fill="#000000" font-family="sans-serif" font-size="13" font-weight="bold" lengthAdjust="spacing" textLength="8.5757" x="40.0566" y="108.0566">1</text><text fill="#000000" font-family="sans-serif" font-size="13" lengthAdjust="spacing" textLength="198.9419" x="52.6323" y="108.0566">requests to list assigned orders</text><polygon fill="#181818" points="44.0566,138.1094,34.0566,142.1094,44.0566,146.1094,40.0566,142.1094" style="stroke:#181818;stroke-width:1.0;"/><line style="stroke:#181818;stroke-width:1.0;stroke-dasharray:2.0,2.0;" x1="38.0566" x2="267.5742" y1="142.1094" y2="142.1094"/><text fill="#000000" font-family="sans-serif" font-size="13" font-weight="bold" lengthAdjust="spacing" textLength="8.5757" x="50.0566" y="137.3672">2</text><text fill="#000000" font-family="sans-serif" font-size="13" lengthAdjust="spacing" textLength="184.0122" x="62.6323" y="137.3672">shows list of assigned orders</text><polygon fill="#181818" points="251.5742,167.4199,261.5742,171.4199,251.5742,175.4199,255.5742,171.4199" style="stroke:#181818;stroke-width:1.0;"/><line style="stroke:#181818;stroke-width:1.0;" x1="33.0566" x2="257.5742" y1="171.4199" y2="171.4199"/><text fill="#000000" font-family="sans-serif" font-size="13" font-weight="bold" lengthAdjust="spacing" textLength="8.5757" x="40.0566" y="166.6777">3</text><text fill="#000000" font-family="sans-serif" font-size="13" lengthAdjust="spacing" textLength="154.5146" x="52.6323" y="166.6777">selects order to evaluate</text><polygon fill="#181818" points="44.0566,196.7305,34.0566,200.7305,44.0566,204.7305,40.0566,200.7305" style="stroke:#181818;stroke-width:1.0;"/><line style="stroke:#181818;stroke-width:1.0;stroke-dasharray:2.0,2.0;" x1="38.0566" x2="267.5742" y1="200.7305" y2="200.7305"/><text fill="#000000" font-family="sans-serif" font-size="13" font-weight="bold" lengthAdjust="spacing" textLength="8.5757" x="50.0566" y="195.9883">4</text><text fill="#000000" font-family="sans-serif" font-size="13" lengthAdjust="spacing" textLength="134.9893" x="62.6323" y="195.9883">displays order details</text><polygon fill="#181818" points="251.5742,226.041,261.5742,230.041,251.5742,234.041,255.5742,230.041" style="stroke:#181818;stroke-width:1.0;"/><line style="stroke:#181818;stroke-width:1.0;" x1="33.0566" x2="257.5742" y1="230.041" y2="230.041"/><text fill="#000000" font-family="sans-serif" font-size="13" font-weight="bold" lengthAdjust="spacing" textLength="8.5757" x="40.0566" y="225.2988">5</text><text fill="#000000" font-family="sans-serif" font-size="13" lengthAdjust="spacing" textLength="97.0493" x="52.6323" y="225.2988">evaluates order</text><polygon fill="#181818" points="44.0566,255.3516,34.0566,259.3516,44.0566,263.3516,40.0566,259.3516" style="stroke:#181818;stroke-width:1.0;"/><line style="stroke:#181818;stroke-width:1.0;stroke-dasharray:2.0,2.0;" x1="38.0566" x2="267.5742" y1="259.3516" y2="259.3516"/><text fill="#000000" font-family="sans-serif" font-size="13" font-weight="bold" lengthAdjust="spacing" textLength="8.5757" x="50.0566" y="254.6094">6</text><text fill="#000000" font-family="sans-serif" font-size="13" lengthAdjust="spacing" textLength="124.2744" x="62.6323" y="254.6094">confirms evaluation</text><!--SRC=[RP0nRiCm34LtdOBmaidrxg50pj0Ji1BZ4914LwGIvFQLvNYA9r7W-uy4BtUpLUTfMYDcgob-UKcJqb-bx6aCZ4l1v1nM4_J63pG2oVsVQ_gbqdhUfC1mNIZR0AY0M-LMBCQUr-Q5OVvvgL7gxRtikTstywu_C7w_WHdAjeQQWWb4LcjXvILJ02c1YheTXB5bUdW6lSjJTrXk7_pd2AL8latem3Q77XXhM-h47LZRbLu77CYGuvdqSBp94vMNVEEIz41PyZy0]--></g></svg>