<svg xmlns="http://www.w3.org/2000/svg" xmlns:xlink="http://www.w3.org/1999/xlink" contentStyleType="text/css" height="1358px" preserveAspectRatio="none" style="width:1749px;height:1358px;background:#FFFFFF;" version="1.1" viewBox="0 0 1749 1358" width="1749px" zoomAndPan="magnify"><defs/><g><rect fill="#FFFFFF" height="1177.4219" style="stroke:#181818;stroke-width:1.0;" width="10" x="23.0566" y="91.4883"/><rect fill="#FFFFFF" height="1156.1113" style="stroke:#181818;stroke-width:1.0;" width="10" x="237.4346" y="112.7988"/><rect fill="#FFFFFF" height="360.7266" style="stroke:#181818;stroke-width:1.0;" width="10" x="242.4346" y="908.1836"/><rect fill="#FFFFFF" height="205.1738" style="stroke:#181818;stroke-width:1.0;" width="10" x="247.4346" y="1054.7363"/><rect fill="#FFFFFF" height="376.0371" style="stroke:#181818;stroke-width:1.0;" width="10" x="485.4849" y="142.1094"/><rect fill="#FFFFFF" height="87.9316" style="stroke:#181818;stroke-width:1.0;" width="10" x="485.4849" y="937.4941"/><rect fill="#FFFFFF" height="146.5527" style="stroke:#181818;stroke-width:1.0;" width="10" x="485.4849" y="1084.0469"/><rect fill="#FFFFFF" height="117.2422" style="stroke:#181818;stroke-width:1.0;" width="10" x="635.8403" y="171.4199"/><rect fill="#FFFFFF" height="29.3105" style="stroke:#181818;stroke-width:1.0;" width="10" x="809.2188" y="200.7305"/><rect fill="#FFFFFF" height="258.7949" style="stroke:#181818;stroke-width:1.0;" width="10" x="960.9653" y="259.3516"/><rect fill="#FFFFFF" height="87.9316" style="stroke:#181818;stroke-width:1.0;" width="10" x="965.9653" y="317.9727"/><rect fill="#FFFFFF" height="29.3105" style="stroke:#181818;stroke-width:1.0;" width="10" x="960.9653" y="966.8047"/><rect fill="#FFFFFF" height="29.3105" style="stroke:#181818;stroke-width:1.0;" width="10" x="960.9653" y="1113.3574"/><rect fill="#FFFFFF" height="29.3105" style="stroke:#181818;stroke-width:1.0;" width="10" x="1198.4932" y="347.2832"/><rect fill="#FFFFFF" height="29.3105" style="stroke:#181818;stroke-width:1.0;" width="10" x="1327.4009" y="583.7676"/><rect fill="#FFFFFF" height="29.3105" style="stroke:#181818;stroke-width:1.0;" width="10" x="1480.5449" y="459.5254"/><rect fill="#FFFFFF" height="29.3105" style="stroke:#181818;stroke-width:1.0;" width="10" x="1480.5449" y="696.0098"/><rect fill="#FFFFFF" height="29.3105" style="stroke:#181818;stroke-width:1.0;" width="10" x="1563.0264" y="754.6309"/><rect fill="#FFFFFF" height="117.2422" style="stroke:#181818;stroke-width:1.0;" width="10" x="1672.5576" y="666.6992"/><rect fill="none" height="105.2422" style="stroke:#000000;stroke-width:1.5;" width="839.6821" x="903.6123" y="420.9043"/><rect fill="none" height="193.1738" style="stroke:#000000;stroke-width:1.5;" width="475.0513" x="1268.2432" y="628.0781"/><line style="stroke:#181818;stroke-width:0.5;stroke-dasharray:5.0,5.0;" x1="28" x2="28" y1="81.4883" y2="1277.9102"/><line style="stroke:#181818;stroke-width:0.5;stroke-dasharray:5.0,5.0;" x1="242.3433" x2="242.3433" y1="81.4883" y2="1277.9102"/><line style="stroke:#181818;stroke-width:0.5;stroke-dasharray:5.0,5.0;" x1="490.2065" x2="490.2065" y1="81.4883" y2="1277.9102"/><line style="stroke:#181818;stroke-width:0.5;stroke-dasharray:5.0,5.0;" x1="640.6743" x2="640.6743" y1="81.4883" y2="1277.9102"/><line style="stroke:#181818;stroke-width:0.5;stroke-dasharray:5.0,5.0;" x1="813.8252" x2="813.8252" y1="81.4883" y2="1277.9102"/><line style="stroke:#181818;stroke-width:0.5;stroke-dasharray:5.0,5.0;" x1="965.6123" x2="965.6123" y1="81.4883" y2="1277.9102"/><line style="stroke:#181818;stroke-width:0.5;stroke-dasharray:5.0,5.0;" x1="1202.7432" x2="1202.7432" y1="81.4883" y2="1277.9102"/><line style="stroke:#181818;stroke-width:0.5;stroke-dasharray:5.0,5.0;" x1="1332.2432" x2="1332.2432" y1="81.4883" y2="1277.9102"/><line style="stroke:#181818;stroke-width:0.5;stroke-dasharray:5.0,5.0;" x1="1484.8579" x2="1484.8579" y1="81.4883" y2="1277.9102"/><line style="stroke:#181818;stroke-width:0.5;stroke-dasharray:5.0,5.0;" x1="1567.2319" x2="1567.2319" y1="81.4883" y2="1277.9102"/><line style="stroke:#181818;stroke-width:0.5;stroke-dasharray:5.0,5.0;" x1="1676.8208" x2="1676.8208" y1="81.4883" y2="1277.9102"/><text fill="#000000" font-family="sans-serif" font-size="14" lengthAdjust="spacing" textLength="40.1133" x="5" y="78.5352">Agent</text><ellipse cx="28.0566" cy="13.5" fill="#E2E2F0" rx="8" ry="8" style="stroke:#181818;stroke-width:0.5;"/><path d="M28.0566,21.5 L28.0566,48.5 M15.0566,29.5 L41.0566,29.5 M28.0566,48.5 L15.0566,63.5 M28.0566,48.5 L41.0566,63.5 " fill="none" style="stroke:#181818;stroke-width:0.5;"/><text fill="#000000" font-family="sans-serif" font-size="14" lengthAdjust="spacing" textLength="40.1133" x="5" y="1290.4453">Agent</text><ellipse cx="28.0566" cy="1301.8984" fill="#E2E2F0" rx="8" ry="8" style="stroke:#181818;stroke-width:0.5;"/><path d="M28.0566,1309.8984 L28.0566,1336.8984 M15.0566,1317.8984 L41.0566,1317.8984 M28.0566,1336.8984 L15.0566,1351.8984 M28.0566,1336.8984 L41.0566,1351.8984 " fill="none" style="stroke:#181818;stroke-width:0.5;"/><rect fill="#E2E2F0" height="30.4883" rx="2.5" ry="2.5" style="stroke:#181818;stroke-width:0.5;" width="120.1826" x="182.3433" y="50"/><text fill="#000000" font-family="sans-serif" font-size="14" lengthAdjust="spacing" textLength="106.1826" x="189.3433" y="70.5352">:ListOrdersView</text><rect fill="#E2E2F0" height="30.4883" rx="2.5" ry="2.5" style="stroke:#181818;stroke-width:0.5;" width="120.1826" x="182.3433" y="1276.9102"/><text fill="#000000" font-family="sans-serif" font-size="14" lengthAdjust="spacing" textLength="106.1826" x="189.3433" y="1297.4453">:ListOrdersView</text><rect fill="#E2E2F0" height="30.4883" rx="2.5" ry="2.5" style="stroke:#181818;stroke-width:0.5;" width="156.5566" x="412.2065" y="50"/><text fill="#000000" font-family="sans-serif" font-size="14" lengthAdjust="spacing" textLength="142.5566" x="419.2065" y="70.5352">:ListOrdersController</text><rect fill="#E2E2F0" height="30.4883" rx="2.5" ry="2.5" style="stroke:#181818;stroke-width:0.5;" width="156.5566" x="412.2065" y="1276.9102"/><text fill="#000000" font-family="sans-serif" font-size="14" lengthAdjust="spacing" textLength="142.5566" x="419.2065" y="1297.4453">:ListOrdersController</text><rect fill="#E2E2F0" height="30.4883" rx="2.5" ry="2.5" style="stroke:#181818;stroke-width:0.5;" width="82.332" x="599.6743" y="50"/><text fill="#000000" font-family="sans-serif" font-size="14" lengthAdjust="spacing" textLength="68.332" x="606.6743" y="70.5352">:Company</text><rect fill="#E2E2F0" height="30.4883" rx="2.5" ry="2.5" style="stroke:#181818;stroke-width:0.5;" width="82.332" x="599.6743" y="1276.9102"/><text fill="#000000" font-family="sans-serif" font-size="14" lengthAdjust="spacing" textLength="68.332" x="606.6743" y="1297.4453">:Company</text><rect fill="#E2E2F0" height="30.4883" rx="2.5" ry="2.5" style="stroke:#181818;stroke-width:0.5;" width="178.7871" x="724.8252" y="50"/><text fill="#000000" font-family="sans-serif" font-size="14" lengthAdjust="spacing" textLength="164.7871" x="731.8252" y="70.5352">:OrderRepositoryFactory</text><rect fill="#E2E2F0" height="30.4883" rx="2.5" ry="2.5" style="stroke:#181818;stroke-width:0.5;" width="178.7871" x="724.8252" y="1276.9102"/><text fill="#000000" font-family="sans-serif" font-size="14" lengthAdjust="spacing" textLength="164.7871" x="731.8252" y="1297.4453">:OrderRepositoryFactory</text><rect fill="#E2E2F0" height="30.4883" rx="2.5" ry="2.5" style="stroke:#181818;stroke-width:0.5;" width="104.7061" x="913.6123" y="50"/><text fill="#000000" font-family="sans-serif" font-size="14" lengthAdjust="spacing" textLength="90.7061" x="920.6123" y="70.5352">:OrderService</text><rect fill="#E2E2F0" height="30.4883" rx="2.5" ry="2.5" style="stroke:#181818;stroke-width:0.5;" width="104.7061" x="913.6123" y="1276.9102"/><text fill="#000000" font-family="sans-serif" font-size="14" lengthAdjust="spacing" textLength="90.7061" x="920.6123" y="1297.4453">:OrderService</text><rect fill="#E2E2F0" height="30.4883" rx="2.5" ry="2.5" style="stroke:#181818;stroke-width:0.5;" width="129.5" x="1138.7432" y="50"/><text fill="#000000" font-family="sans-serif" font-size="14" lengthAdjust="spacing" textLength="115.5" x="1145.7432" y="70.5352">:OrderRepository</text><rect fill="#E2E2F0" height="30.4883" rx="2.5" ry="2.5" style="stroke:#181818;stroke-width:0.5;" width="129.5" x="1138.7432" y="1276.9102"/><text fill="#000000" font-family="sans-serif" font-size="14" lengthAdjust="spacing" textLength="115.5" x="1145.7432" y="1297.4453">:OrderRepository</text><rect fill="#E2E2F0" height="30.4883" rx="2.5" ry="2.5" style="stroke:#181818;stroke-width:0.5;" width="108.3154" x="1278.2432" y="50"/><text fill="#000000" font-family="sans-serif" font-size="14" lengthAdjust="spacing" textLength="94.3154" x="1285.2432" y="70.5352">:OrderMapper</text><rect fill="#E2E2F0" height="30.4883" rx="2.5" ry="2.5" style="stroke:#181818;stroke-width:0.5;" width="108.3154" x="1278.2432" y="1276.9102"/><text fill="#000000" font-family="sans-serif" font-size="14" lengthAdjust="spacing" textLength="94.3154" x="1285.2432" y="1297.4453">:OrderMapper</text><rect fill="#E2E2F0" height="30.4883" rx="2.5" ry="2.5" style="stroke:#181818;stroke-width:0.5;" width="57.374" x="1456.8579" y="50"/><text fill="#000000" font-family="sans-serif" font-size="14" lengthAdjust="spacing" textLength="43.374" x="1463.8579" y="70.5352">:Order</text><rect fill="#E2E2F0" height="30.4883" rx="2.5" ry="2.5" style="stroke:#181818;stroke-width:0.5;" width="57.374" x="1456.8579" y="1276.9102"/><text fill="#000000" font-family="sans-serif" font-size="14" lengthAdjust="spacing" textLength="43.374" x="1463.8579" y="1297.4453">:Order</text><rect fill="#E2E2F0" height="30.4883" rx="2.5" ry="2.5" style="stroke:#181818;stroke-width:0.5;" width="87.5889" x="1524.2319" y="50"/><text fill="#000000" font-family="sans-serif" font-size="14" lengthAdjust="spacing" textLength="73.5889" x="1531.2319" y="70.5352">:OrderDTO</text><rect fill="#E2E2F0" height="30.4883" rx="2.5" ry="2.5" style="stroke:#181818;stroke-width:0.5;" width="87.5889" x="1524.2319" y="1276.9102"/><text fill="#000000" font-family="sans-serif" font-size="14" lengthAdjust="spacing" textLength="73.5889" x="1531.2319" y="1297.4453">:OrderDTO</text><rect fill="#E2E2F0" height="30.4883" rx="2.5" ry="2.5" style="stroke:#181818;stroke-width:0.5;" width="111.4736" x="1621.8208" y="50"/><text fill="#000000" font-family="sans-serif" font-size="14" lengthAdjust="spacing" textLength="97.4736" x="1628.8208" y="70.5352">:OrderListDTO</text><rect fill="#E2E2F0" height="30.4883" rx="2.5" ry="2.5" style="stroke:#181818;stroke-width:0.5;" width="111.4736" x="1621.8208" y="1276.9102"/><text fill="#000000" font-family="sans-serif" font-size="14" lengthAdjust="spacing" textLength="97.4736" x="1628.8208" y="1297.4453">:OrderListDTO</text><rect fill="#FFFFFF" height="1177.4219" style="stroke:#181818;stroke-width:1.0;" width="10" x="23.0566" y="91.4883"/><rect fill="#FFFFFF" height="1156.1113" style="stroke:#181818;stroke-width:1.0;" width="10" x="237.4346" y="112.7988"/><rect fill="#FFFFFF" height="360.7266" style="stroke:#181818;stroke-width:1.0;" width="10" x="242.4346" y="908.1836"/><rect fill="#FFFFFF" height="205.1738" style="stroke:#181818;stroke-width:1.0;" width="10" x="247.4346" y="1054.7363"/><rect fill="#FFFFFF" height="376.0371" style="stroke:#181818;stroke-width:1.0;" width="10" x="485.4849" y="142.1094"/><rect fill="#FFFFFF" height="87.9316" style="stroke:#181818;stroke-width:1.0;" width="10" x="485.4849" y="937.4941"/><rect fill="#FFFFFF" height="146.5527" style="stroke:#181818;stroke-width:1.0;" width="10" x="485.4849" y="1084.0469"/><rect fill="#FFFFFF" height="117.2422" style="stroke:#181818;stroke-width:1.0;" width="10" x="635.8403" y="171.4199"/><rect fill="#FFFFFF" height="29.3105" style="stroke:#181818;stroke-width:1.0;" width="10" x="809.2188" y="200.7305"/><rect fill="#FFFFFF" height="258.7949" style="stroke:#181818;stroke-width:1.0;" width="10" x="960.9653" y="259.3516"/><rect fill="#FFFFFF" height="87.9316" style="stroke:#181818;stroke-width:1.0;" width="10" x="965.9653" y="317.9727"/><rect fill="#FFFFFF" height="29.3105" style="stroke:#181818;stroke-width:1.0;" width="10" x="960.9653" y="966.8047"/><rect fill="#FFFFFF" height="29.3105" style="stroke:#181818;stroke-width:1.0;" width="10" x="960.9653" y="1113.3574"/><rect fill="#FFFFFF" height="29.3105" style="stroke:#181818;stroke-width:1.0;" width="10" x="1198.4932" y="347.2832"/><rect fill="#FFFFFF" height="29.3105" style="stroke:#181818;stroke-width:1.0;" width="10" x="1327.4009" y="583.7676"/><rect fill="#FFFFFF" height="29.3105" style="stroke:#181818;stroke-width:1.0;" width="10" x="1480.5449" y="459.5254"/><rect fill="#FFFFFF" height="29.3105" style="stroke:#181818;stroke-width:1.0;" width="10" x="1480.5449" y="696.0098"/><rect fill="#FFFFFF" height="29.3105" style="stroke:#181818;stroke-width:1.0;" width="10" x="1563.0264" y="754.6309"/><rect fill="#FFFFFF" height="117.2422" style="stroke:#181818;stroke-width:1.0;" width="10" x="1672.5576" y="666.6992"/><polygon fill="#181818" points="225.4346,108.7988,235.4346,112.7988,225.4346,116.7988,229.4346,112.7988" style="stroke:#181818;stroke-width:1.0;"/><line style="stroke:#181818;stroke-width:1.0;" x1="33.0566" x2="231.4346" y1="112.7988" y2="112.7988"/><text fill="#000000" font-family="sans-serif" font-size="13" font-weight="bold" lengthAdjust="spacing" textLength="8.5757" x="40.0566" y="108.0566">1</text><text fill="#000000" font-family="sans-serif" font-size="13" lengthAdjust="spacing" textLength="172.8022" x="52.6323" y="108.0566">asks to list assigned orders</text><polygon fill="#181818" points="473.4849,138.1094,483.4849,142.1094,473.4849,146.1094,477.4849,142.1094" style="stroke:#181818;stroke-width:1.0;"/><line style="stroke:#181818;stroke-width:1.0;" x1="247.4346" x2="479.4849" y1="142.1094" y2="142.1094"/><text fill="#000000" font-family="sans-serif" font-size="13" font-weight="bold" lengthAdjust="spacing" textLength="8.5757" x="254.4346" y="137.3672">2</text><text fill="#000000" font-family="sans-serif" font-size="13" lengthAdjust="spacing" textLength="198.9736" x="267.0103" y="137.3672">getAllOrdersAssignedToAgent()</text><polygon fill="#181818" points="623.8403,167.4199,633.8403,171.4199,623.8403,175.4199,627.8403,171.4199" style="stroke:#181818;stroke-width:1.0;"/><line style="stroke:#181818;stroke-width:1.0;" x1="495.4849" x2="629.8403" y1="171.4199" y2="171.4199"/><text fill="#000000" font-family="sans-serif" font-size="13" font-weight="bold" lengthAdjust="spacing" textLength="8.5757" x="502.4849" y="166.6777">3</text><text fill="#000000" font-family="sans-serif" font-size="13" lengthAdjust="spacing" textLength="108.7798" x="515.0605" y="166.6777">getOrderService()</text><polygon fill="#181818" points="797.2188,196.7305,807.2188,200.7305,797.2188,204.7305,801.2188,200.7305" style="stroke:#181818;stroke-width:1.0;"/><line style="stroke:#181818;stroke-width:1.0;" x1="645.8403" x2="803.2188" y1="200.7305" y2="200.7305"/><text fill="#000000" font-family="sans-serif" font-size="13" font-weight="bold" lengthAdjust="spacing" textLength="8.5757" x="652.8403" y="195.9883">4</text><text fill="#000000" font-family="sans-serif" font-size="13" lengthAdjust="spacing" textLength="131.8027" x="665.416" y="195.9883">getOrderRepository()</text><polygon fill="#181818" points="656.8403,226.041,646.8403,230.041,656.8403,234.041,652.8403,230.041" style="stroke:#181818;stroke-width:1.0;"/><line style="stroke:#181818;stroke-width:1.0;stroke-dasharray:2.0,2.0;" x1="650.8403" x2="813.2188" y1="230.041" y2="230.041"/><text fill="#000000" font-family="sans-serif" font-size="13" font-weight="bold" lengthAdjust="spacing" textLength="8.5757" x="662.8403" y="225.2988">5</text><text fill="#000000" font-family="sans-serif" font-size="13" lengthAdjust="spacing" textLength="28.7295" x="675.416" y="225.2988">repo</text><polygon fill="#181818" points="948.9653,255.3516,958.9653,259.3516,948.9653,263.3516,952.9653,259.3516" style="stroke:#181818;stroke-width:1.0;"/><line style="stroke:#181818;stroke-width:1.0;" x1="645.8403" x2="954.9653" y1="259.3516" y2="259.3516"/><text fill="#000000" font-family="sans-serif" font-size="13" font-weight="bold" lengthAdjust="spacing" textLength="8.5757" x="652.8403" y="254.6094">6</text><text fill="#000000" font-family="sans-serif" font-size="13" lengthAdjust="spacing" textLength="75.6895" x="665.416" y="254.6094">create(repo)</text><polygon fill="#181818" points="506.4849,284.6621,496.4849,288.6621,506.4849,292.6621,502.4849,288.6621" style="stroke:#181818;stroke-width:1.0;"/><line style="stroke:#181818;stroke-width:1.0;stroke-dasharray:2.0,2.0;" x1="500.4849" x2="639.8403" y1="288.6621" y2="288.6621"/><text fill="#000000" font-family="sans-serif" font-size="13" font-weight="bold" lengthAdjust="spacing" textLength="8.5757" x="512.4849" y="283.9199">7</text><text fill="#000000" font-family="sans-serif" font-size="13" lengthAdjust="spacing" textLength="43.5767" x="525.0605" y="283.9199">service</text><polygon fill="#181818" points="953.9653,313.9727,963.9653,317.9727,953.9653,321.9727,957.9653,317.9727" style="stroke:#181818;stroke-width:1.0;"/><line style="stroke:#181818;stroke-width:1.0;" x1="495.4849" x2="959.9653" y1="317.9727" y2="317.9727"/><text fill="#000000" font-family="sans-serif" font-size="13" font-weight="bold" lengthAdjust="spacing" textLength="8.5757" x="502.4849" y="313.2305">8</text><text fill="#000000" font-family="sans-serif" font-size="13" lengthAdjust="spacing" textLength="129.0352" x="515.0605" y="313.2305">getAssignedOrders()</text><polygon fill="#181818" points="1186.4932,343.2832,1196.4932,347.2832,1186.4932,351.2832,1190.4932,347.2832" style="stroke:#181818;stroke-width:1.0;"/><line style="stroke:#181818;stroke-width:1.0;" x1="975.9653" x2="1192.4932" y1="347.2832" y2="347.2832"/><text fill="#000000" font-family="sans-serif" font-size="13" font-weight="bold" lengthAdjust="spacing" textLength="8.5757" x="982.9653" y="342.541">9</text><text fill="#000000" font-family="sans-serif" font-size="13" lengthAdjust="spacing" textLength="145.52" x="995.541" y="342.541">getAllOrdersAssigned()</text><polygon fill="#181818" points="986.9653,372.5938,976.9653,376.5938,986.9653,380.5938,982.9653,376.5938" style="stroke:#181818;stroke-width:1.0;"/><line style="stroke:#181818;stroke-width:1.0;stroke-dasharray:2.0,2.0;" x1="980.9653" x2="1202.4932" y1="376.5938" y2="376.5938"/><text fill="#000000" font-family="sans-serif" font-size="13" font-weight="bold" lengthAdjust="spacing" textLength="17.1514" x="992.9653" y="371.8516">10</text><text fill="#000000" font-family="sans-serif" font-size="13" lengthAdjust="spacing" textLength="56.2275" x="1014.1167" y="371.8516">orderList</text><polygon fill="#181818" points="1665.5576,401.9043,1675.5576,405.9043,1665.5576,409.9043,1669.5576,405.9043" style="stroke:#181818;stroke-width:1.0;"/><line style="stroke:#181818;stroke-width:1.0;stroke-dasharray:2.0,2.0;" x1="970.9653" x2="1671.5576" y1="405.9043" y2="405.9043"/><text fill="#000000" font-family="sans-serif" font-size="13" font-weight="bold" lengthAdjust="spacing" textLength="17.1514" x="977.9653" y="401.1621">11</text><text fill="#000000" font-family="sans-serif" font-size="13" lengthAdjust="spacing" textLength="46.96" x="999.1167" y="401.1621">create()</text><path d="M903.6123,420.9043 L978.0591,420.9043 L978.0591,428.2148 L968.0591,438.2148 L903.6123,438.2148 L903.6123,420.9043 " fill="#EEEEEE" style="stroke:#000000;stroke-width:1.5;"/><rect fill="none" height="105.2422" style="stroke:#000000;stroke-width:1.5;" width="839.6821" x="903.6123" y="420.9043"/><text fill="#000000" font-family="sans-serif" font-size="13" font-weight="bold" lengthAdjust="spacing" textLength="29.4468" x="918.6123" y="434.4727">loop</text><text fill="#000000" font-family="sans-serif" font-size="11" font-weight="bold" lengthAdjust="spacing" textLength="124.6255" x="993.0591" y="433.5391">[for each order in list]</text><polygon fill="#181818" points="1468.5449,455.5254,1478.5449,459.5254,1468.5449,463.5254,1472.5449,459.5254" style="stroke:#181818;stroke-width:1.0;"/><line style="stroke:#181818;stroke-width:1.0;" x1="970.9653" x2="1474.5449" y1="459.5254" y2="459.5254"/><text fill="#000000" font-family="sans-serif" font-size="13" font-weight="bold" lengthAdjust="spacing" textLength="17.1514" x="977.9653" y="454.7832">12</text><text fill="#000000" font-family="sans-serif" font-size="13" lengthAdjust="spacing" textLength="107.9927" x="999.1167" y="454.7832">getOrderDetails()</text><polygon fill="#181818" points="981.9653,484.8359,971.9653,488.8359,981.9653,492.8359,977.9653,488.8359" style="stroke:#181818;stroke-width:1.0;"/><line style="stroke:#181818;stroke-width:1.0;stroke-dasharray:2.0,2.0;" x1="975.9653" x2="1484.5449" y1="488.8359" y2="488.8359"/><text fill="#000000" font-family="sans-serif" font-size="13" font-weight="bold" lengthAdjust="spacing" textLength="17.1514" x="987.9653" y="484.0938">13</text><text fill="#000000" font-family="sans-serif" font-size="13" lengthAdjust="spacing" textLength="41.6089" x="1009.1167" y="484.0938">details</text><polygon fill="#181818" points="1665.5576,514.1465,1675.5576,518.1465,1665.5576,522.1465,1669.5576,518.1465" style="stroke:#181818;stroke-width:1.0;"/><line style="stroke:#181818;stroke-width:1.0;stroke-dasharray:2.0,2.0;" x1="965.9653" x2="1671.5576" y1="518.1465" y2="518.1465"/><text fill="#000000" font-family="sans-serif" font-size="13" font-weight="bold" lengthAdjust="spacing" textLength="17.1514" x="972.9653" y="513.4043">14</text><text fill="#000000" font-family="sans-serif" font-size="13" lengthAdjust="spacing" textLength="94.104" x="994.1167" y="513.4043">add(orderDTO)</text><polygon fill="#181818" points="501.4849,550.457,491.4849,554.457,501.4849,558.457,497.4849,554.457" style="stroke:#181818;stroke-width:1.0;"/><line style="stroke:#181818;stroke-width:1.0;stroke-dasharray:2.0,2.0;" x1="495.4849" x2="964.9653" y1="554.457" y2="554.457"/><text fill="#000000" font-family="sans-serif" font-size="13" font-weight="bold" lengthAdjust="spacing" textLength="17.1514" x="507.4849" y="549.7148">15</text><text fill="#000000" font-family="sans-serif" font-size="13" lengthAdjust="spacing" textLength="84.2842" x="528.6362" y="549.7148">orderListDTO</text><polygon fill="#181818" points="1315.4009,579.7676,1325.4009,583.7676,1315.4009,587.7676,1319.4009,583.7676" style="stroke:#181818;stroke-width:1.0;"/><line style="stroke:#181818;stroke-width:1.0;" x1="490.4849" x2="1321.4009" y1="583.7676" y2="583.7676"/><text fill="#000000" font-family="sans-serif" font-size="13" font-weight="bold" lengthAdjust="spacing" textLength="17.1514" x="497.4849" y="579.0254">16</text><text fill="#000000" font-family="sans-serif" font-size="13" lengthAdjust="spacing" textLength="133.6436" x="518.6362" y="579.0254">toDTO(orderListDTO)</text><polygon fill="#181818" points="1665.5576,609.0781,1675.5576,613.0781,1665.5576,617.0781,1669.5576,613.0781" style="stroke:#181818;stroke-width:1.0;"/><line style="stroke:#181818;stroke-width:1.0;stroke-dasharray:2.0,2.0;" x1="1332.4009" x2="1671.5576" y1="613.0781" y2="613.0781"/><text fill="#000000" font-family="sans-serif" font-size="13" font-weight="bold" lengthAdjust="spacing" textLength="17.1514" x="1339.4009" y="608.3359">17</text><text fill="#000000" font-family="sans-serif" font-size="13" lengthAdjust="spacing" textLength="46.96" x="1360.5522" y="608.3359">create()</text><path d="M1268.2432,628.0781 L1342.6899,628.0781 L1342.6899,635.3887 L1332.6899,645.3887 L1268.2432,645.3887 L1268.2432,628.0781 " fill="#EEEEEE" style="stroke:#000000;stroke-width:1.5;"/><rect fill="none" height="193.1738" style="stroke:#000000;stroke-width:1.5;" width="475.0513" x="1268.2432" y="628.0781"/><text fill="#000000" font-family="sans-serif" font-size="13" font-weight="bold" lengthAdjust="spacing" textLength="29.4468" x="1283.2432" y="641.6465">loop</text><text fill="#000000" font-family="sans-serif" font-size="11" font-weight="bold" lengthAdjust="spacing" textLength="183.5732" x="1357.6899" y="640.7129">[for each order in orderListDTO]</text><polygon fill="#181818" points="1660.5576,662.6992,1670.5576,666.6992,1660.5576,670.6992,1664.5576,666.6992" style="stroke:#181818;stroke-width:1.0;"/><line style="stroke:#181818;stroke-width:1.0;" x1="1332.4009" x2="1666.5576" y1="666.6992" y2="666.6992"/><text fill="#000000" font-family="sans-serif" font-size="13" font-weight="bold" lengthAdjust="spacing" textLength="17.1514" x="1339.4009" y="661.957">18</text><text fill="#000000" font-family="sans-serif" font-size="13" lengthAdjust="spacing" textLength="85.0332" x="1360.5522" y="661.957">order = get(i)</text><polygon fill="#181818" points="1468.5449,692.0098,1478.5449,696.0098,1468.5449,700.0098,1472.5449,696.0098" style="stroke:#181818;stroke-width:1.0;"/><line style="stroke:#181818;stroke-width:1.0;" x1="1332.4009" x2="1474.5449" y1="696.0098" y2="696.0098"/><text fill="#000000" font-family="sans-serif" font-size="13" font-weight="bold" lengthAdjust="spacing" textLength="17.1514" x="1339.4009" y="691.2676">19</text><text fill="#000000" font-family="sans-serif" font-size="13" lengthAdjust="spacing" textLength="107.9927" x="1360.5522" y="691.2676">getOrderDetails()</text><polygon fill="#181818" points="1343.4009,721.3203,1333.4009,725.3203,1343.4009,729.3203,1339.4009,725.3203" style="stroke:#181818;stroke-width:1.0;"/><line style="stroke:#181818;stroke-width:1.0;stroke-dasharray:2.0,2.0;" x1="1337.4009" x2="1484.5449" y1="725.3203" y2="725.3203"/><text fill="#000000" font-family="sans-serif" font-size="13" font-weight="bold" lengthAdjust="spacing" textLength="17.1514" x="1349.4009" y="720.5781">20</text><text fill="#000000" font-family="sans-serif" font-size="13" lengthAdjust="spacing" textLength="41.6089" x="1370.5522" y="720.5781">details</text><polygon fill="#181818" points="1551.0264,750.6309,1561.0264,754.6309,1551.0264,758.6309,1555.0264,754.6309" style="stroke:#181818;stroke-width:1.0;"/><line style="stroke:#181818;stroke-width:1.0;" x1="1332.4009" x2="1557.0264" y1="754.6309" y2="754.6309"/><text fill="#000000" font-family="sans-serif" font-size="13" font-weight="bold" lengthAdjust="spacing" textLength="17.1514" x="1339.4009" y="749.8887">21</text><text fill="#000000" font-family="sans-serif" font-size="13" lengthAdjust="spacing" textLength="83.4082" x="1360.5522" y="749.8887">toDTO(order)</text><polygon fill="#181818" points="1343.4009,779.9414,1333.4009,783.9414,1343.4009,787.9414,1339.4009,783.9414" style="stroke:#181818;stroke-width:1.0;"/><line style="stroke:#181818;stroke-width:1.0;stroke-dasharray:2.0,2.0;" x1="1337.4009" x2="1567.0264" y1="783.9414" y2="783.9414"/><text fill="#000000" font-family="sans-serif" font-size="13" font-weight="bold" lengthAdjust="spacing" textLength="17.1514" x="1349.4009" y="779.1992">22</text><text fill="#000000" font-family="sans-serif" font-size="13" lengthAdjust="spacing" textLength="156.9521" x="1370.5522" y="779.1992">create(order.getDetails())</text><polygon fill="#181818" points="1665.5576,809.252,1675.5576,813.252,1665.5576,817.252,1669.5576,813.252" style="stroke:#181818;stroke-width:1.0;"/><line style="stroke:#181818;stroke-width:1.0;stroke-dasharray:2.0,2.0;" x1="1332.4009" x2="1671.5576" y1="813.252" y2="813.252"/><text fill="#000000" font-family="sans-serif" font-size="13" font-weight="bold" lengthAdjust="spacing" textLength="17.1514" x="1339.4009" y="808.5098">23</text><text fill="#000000" font-family="sans-serif" font-size="13" lengthAdjust="spacing" textLength="94.104" x="1360.5522" y="808.5098">add(orderDTO)</text><polygon fill="#181818" points="501.4849,845.5625,491.4849,849.5625,501.4849,853.5625,497.4849,849.5625" style="stroke:#181818;stroke-width:1.0;"/><line style="stroke:#181818;stroke-width:1.0;stroke-dasharray:2.0,2.0;" x1="495.4849" x2="1331.4009" y1="849.5625" y2="849.5625"/><text fill="#000000" font-family="sans-serif" font-size="13" font-weight="bold" lengthAdjust="spacing" textLength="17.1514" x="507.4849" y="844.8203">24</text><text fill="#000000" font-family="sans-serif" font-size="13" lengthAdjust="spacing" textLength="84.2842" x="528.6362" y="844.8203">orderListDTO</text><polygon fill="#181818" points="258.4346,874.873,248.4346,878.873,258.4346,882.873,254.4346,878.873" style="stroke:#181818;stroke-width:1.0;"/><line style="stroke:#181818;stroke-width:1.0;stroke-dasharray:2.0,2.0;" x1="252.4346" x2="489.4849" y1="878.873" y2="878.873"/><text fill="#000000" font-family="sans-serif" font-size="13" font-weight="bold" lengthAdjust="spacing" textLength="17.1514" x="264.4346" y="874.1309">25</text><text fill="#000000" font-family="sans-serif" font-size="13" lengthAdjust="spacing" textLength="184.0122" x="285.5859" y="874.1309">shows list of orders assigned</text><polygon fill="#181818" points="230.4346,904.1836,240.4346,908.1836,230.4346,912.1836,234.4346,908.1836" style="stroke:#181818;stroke-width:1.0;"/><line style="stroke:#181818;stroke-width:1.0;" x1="33.0566" x2="236.4346" y1="908.1836" y2="908.1836"/><text fill="#000000" font-family="sans-serif" font-size="13" font-weight="bold" lengthAdjust="spacing" textLength="17.1514" x="40.0566" y="903.4414">26</text><text fill="#000000" font-family="sans-serif" font-size="13" lengthAdjust="spacing" textLength="154.5146" x="61.208" y="903.4414">selects order to evaluate</text><polygon fill="#181818" points="473.4849,933.4941,483.4849,937.4941,473.4849,941.4941,477.4849,937.4941" style="stroke:#181818;stroke-width:1.0;"/><line style="stroke:#181818;stroke-width:1.0;" x1="252.4346" x2="479.4849" y1="937.4941" y2="937.4941"/><text fill="#000000" font-family="sans-serif" font-size="13" font-weight="bold" lengthAdjust="spacing" textLength="17.1514" x="259.4346" y="932.752">27</text><text fill="#000000" font-family="sans-serif" font-size="13" lengthAdjust="spacing" textLength="192.8989" x="280.5859" y="932.752">getOrderDetailsForEvaluation()</text><polygon fill="#181818" points="948.9653,962.8047,958.9653,966.8047,948.9653,970.8047,952.9653,966.8047" style="stroke:#181818;stroke-width:1.0;"/><line style="stroke:#181818;stroke-width:1.0;" x1="495.4849" x2="954.9653" y1="966.8047" y2="966.8047"/><text fill="#000000" font-family="sans-serif" font-size="13" font-weight="bold" lengthAdjust="spacing" textLength="17.1514" x="502.4849" y="962.0625">28</text><text fill="#000000" font-family="sans-serif" font-size="13" lengthAdjust="spacing" textLength="226.9478" x="523.6362" y="962.0625">getOrderDetailsForEvaluation(order)</text><polygon fill="#181818" points="1556.0264,992.1152,1566.0264,996.1152,1556.0264,1000.1152,1560.0264,996.1152" style="stroke:#181818;stroke-width:1.0;"/><line style="stroke:#181818;stroke-width:1.0;stroke-dasharray:2.0,2.0;" x1="965.9653" x2="1562.0264" y1="996.1152" y2="996.1152"/><text fill="#000000" font-family="sans-serif" font-size="13" font-weight="bold" lengthAdjust="spacing" textLength="17.1514" x="972.9653" y="991.373">29</text><text fill="#000000" font-family="sans-serif" font-size="13" lengthAdjust="spacing" textLength="41.6089" x="994.1167" y="991.373">details</text><polygon fill="#181818" points="263.4346,1021.4258,253.4346,1025.4258,263.4346,1029.4258,259.4346,1025.4258" style="stroke:#181818;stroke-width:1.0;"/><line style="stroke:#181818;stroke-width:1.0;stroke-dasharray:2.0,2.0;" x1="257.4346" x2="489.4849" y1="1025.4258" y2="1025.4258"/><text fill="#000000" font-family="sans-serif" font-size="13" font-weight="bold" lengthAdjust="spacing" textLength="17.1514" x="269.4346" y="1020.6836">30</text><text fill="#000000" font-family="sans-serif" font-size="13" lengthAdjust="spacing" textLength="134.9893" x="290.5859" y="1020.6836">displays order details</text><polygon fill="#181818" points="235.4346,1050.7363,245.4346,1054.7363,235.4346,1058.7363,239.4346,1054.7363" style="stroke:#181818;stroke-width:1.0;"/><line style="stroke:#181818;stroke-width:1.0;" x1="33.0566" x2="241.4346" y1="1054.7363" y2="1054.7363"/><text fill="#000000" font-family="sans-serif" font-size="13" font-weight="bold" lengthAdjust="spacing" textLength="17.1514" x="40.0566" y="1049.9941">31</text><text fill="#000000" font-family="sans-serif" font-size="13" lengthAdjust="spacing" textLength="97.0493" x="61.208" y="1049.9941">evaluates order</text><polygon fill="#181818" points="473.4849,1080.0469,483.4849,1084.0469,473.4849,1088.0469,477.4849,1084.0469" style="stroke:#181818;stroke-width:1.0;"/><line style="stroke:#181818;stroke-width:1.0;" x1="257.4346" x2="479.4849" y1="1084.0469" y2="1084.0469"/><text fill="#000000" font-family="sans-serif" font-size="13" font-weight="bold" lengthAdjust="spacing" textLength="17.1514" x="264.4346" y="1079.3047">32</text><text fill="#000000" font-family="sans-serif" font-size="13" lengthAdjust="spacing" textLength="130.9268" x="285.5859" y="1079.3047">evaluateOrder(order)</text><polygon fill="#181818" points="948.9653,1109.3574,958.9653,1113.3574,948.9653,1117.3574,952.9653,1113.3574" style="stroke:#181818;stroke-width:1.0;"/><line style="stroke:#181818;stroke-width:1.0;" x1="495.4849" x2="954.9653" y1="1113.3574" y2="1113.3574"/><text fill="#000000" font-family="sans-serif" font-size="13" font-weight="bold" lengthAdjust="spacing" textLength="17.1514" x="502.4849" y="1108.6152">33</text><text fill="#000000" font-family="sans-serif" font-size="13" lengthAdjust="spacing" textLength="130.9268" x="523.6362" y="1108.6152">evaluateOrder(order)</text><polygon fill="#181818" points="1191.4932,1138.668,1201.4932,1142.668,1191.4932,1146.668,1195.4932,1142.668" style="stroke:#181818;stroke-width:1.0;"/><line style="stroke:#181818;stroke-width:1.0;stroke-dasharray:2.0,2.0;" x1="965.9653" x2="1197.4932" y1="1142.668" y2="1142.668"/><text fill="#000000" font-family="sans-serif" font-size="13" font-weight="bold" lengthAdjust="spacing" textLength="17.1514" x="972.9653" y="1137.9258">34</text><text fill="#000000" font-family="sans-serif" font-size="13" lengthAdjust="spacing" textLength="187.3765" x="994.1167" y="1137.9258">updateOrderStatus(evaluated)</text><polygon fill="#181818" points="976.9653,1167.9785,966.9653,1171.9785,976.9653,1175.9785,972.9653,1171.9785" style="stroke:#181818;stroke-width:1.0;"/><line style="stroke:#181818;stroke-width:1.0;stroke-dasharray:2.0,2.0;" x1="970.9653" x2="1202.4932" y1="1171.9785" y2="1171.9785"/><text fill="#000000" font-family="sans-serif" font-size="13" font-weight="bold" lengthAdjust="spacing" textLength="17.1514" x="982.9653" y="1167.2363">35</text><text fill="#000000" font-family="sans-serif" font-size="13" lengthAdjust="spacing" textLength="80.5581" x="1004.1167" y="1167.2363">confirmation</text><polygon fill="#181818" points="506.4849,1197.2891,496.4849,1201.2891,506.4849,1205.2891,502.4849,1201.2891" style="stroke:#181818;stroke-width:1.0;"/><line style="stroke:#181818;stroke-width:1.0;stroke-dasharray:2.0,2.0;" x1="500.4849" x2="964.9653" y1="1201.2891" y2="1201.2891"/><text fill="#000000" font-family="sans-serif" font-size="13" font-weight="bold" lengthAdjust="spacing" textLength="17.1514" x="512.4849" y="1196.5469">36</text><text fill="#000000" font-family="sans-serif" font-size="13" lengthAdjust="spacing" textLength="183.2759" x="533.6362" y="1196.5469">order evaluated confirmation</text><polygon fill="#181818" points="268.4346,1226.5996,258.4346,1230.5996,268.4346,1234.5996,264.4346,1230.5996" style="stroke:#181818;stroke-width:1.0;"/><line style="stroke:#181818;stroke-width:1.0;stroke-dasharray:2.0,2.0;" x1="262.4346" x2="489.4849" y1="1230.5996" y2="1230.5996"/><text fill="#000000" font-family="sans-serif" font-size="13" font-weight="bold" lengthAdjust="spacing" textLength="17.1514" x="274.4346" y="1225.8574">37</text><text fill="#000000" font-family="sans-serif" font-size="13" lengthAdjust="spacing" textLength="148.2559" x="295.5859" y="1225.8574">shows evaluation result</text><polygon fill="#181818" points="44.0566,1255.9102,34.0566,1259.9102,44.0566,1263.9102,40.0566,1259.9102" style="stroke:#181818;stroke-width:1.0;"/><line style="stroke:#181818;stroke-width:1.0;stroke-dasharray:2.0,2.0;" x1="38.0566" x2="241.4346" y1="1259.9102" y2="1259.9102"/><text fill="#000000" font-family="sans-serif" font-size="13" font-weight="bold" lengthAdjust="spacing" textLength="17.1514" x="50.0566" y="1255.168">38</text><text fill="#000000" font-family="sans-serif" font-size="13" lengthAdjust="spacing" textLength="148.2559" x="71.208" y="1255.168">shows evaluation result</text><!--SRC=[ZPLDZziW48Rl_XKebpg7REwMMYdATgMLMgtKtUsTcac2YeqBEAly-mvVDZWaxId6F3EyymwUV3ePC-Xcknq4xStOYOTMTbiDVqReMzWmJe-ATbL5HoDfQ_YP6Y2oT-j-x7w1mhtMI4LMkoFqPaMe9jG-LGDLXhTymBnarNpZshme1ah_vF3XiFVdcynUzaP98K0vSc-KMB1xsU7JnM_xvmNXCls0GMgE-YvFJgOF2C-bW5TGPzw2msJoudxo6RVlIkntEWoX6ZclI-JCb7OVtrvc01SbnlgOSU65QvLleMzHvNx8vWlsea7wjoP64e4qBZG_zi1y0bszFrlCDg8XHp0x8NodTe5xawx_zRggBEHWtnR7fzuY4xOi5NenKxEh28PTiadpAUjnaYBjKqDQ1LXXRQ7ae4cy3lsSPERHjhPGaYyGHQJ4565bbgs84PPm1-SdJ1sf5eaZ6RerLOAM2Ya7Si2l36XxyXJXlUjKMTrivoCOoiLKHa4GyyI_r536wdZhrXM3U9Sgw1cn0WlrUCkpEvZPxh-21cyTRjKf5-Hwu9utDwp9pinIBJFvaC_Mi9glY-n_k1ahoSnSf7779QM69BY-pXFgS-yUyFJfuCpw-nxb7LkqAOcwsQKm6FH9VcW_5kGX38HfG2o6Y0O1hGbpnquJE5CnMgsB2PBQ-IJLLuznsQSZvEhRl1sLEdfrYPqTiJLPROnh_EkxHC6HoOkADSIvd9OIzvoogAAiluYM1VlfCWuiug-6cb7NCGMxFsDQsH-uwfmpzp_BIHJBWmeN02QpSGBhKHZd0oBEgzlKNm00]--></g></svg>