<svg xmlns="http://www.w3.org/2000/svg" xmlns:xlink="http://www.w3.org/1999/xlink" contentStyleType="text/css" height="379px" preserveAspectRatio="none" style="width:548px;height:379px;background:#FFFFFF;" version="1.1" viewBox="0 0 548 379" width="548px" zoomAndPan="magnify"><title>Sequence Diagram for Publishing Advertisement</title><defs/><g><text fill="#000000" font-family="sans-serif" font-size="14" font-weight="bold" lengthAdjust="spacing" textLength="350.2871" x="103.416" y="28.5352">Sequence Diagram for Publishing Advertisement</text><rect fill="#FFFFFF" height="160.5527" style="stroke:#181818;stroke-width:1.0;" width="10" x="23.0566" y="128.9766"/><rect fill="#FFFFFF" height="29.3105" style="stroke:#181818;stroke-width:1.0;" width="10" x="297.585" y="150.2871"/><rect fill="#FFFFFF" height="80.6211" style="stroke:#181818;stroke-width:1.0;" width="10" x="297.585" y="208.9082"/><rect fill="#FFFFFF" height="34.3105" style="stroke:#181818;stroke-width:1.0;" width="10" x="302.585" y="246.2188"/><line style="stroke:#181818;stroke-width:0.5;stroke-dasharray:5.0,5.0;" x1="28" x2="28" y1="118.9766" y2="298.5293"/><line style="stroke:#181818;stroke-width:0.5;stroke-dasharray:5.0,5.0;" x1="302.3213" x2="302.3213" y1="118.9766" y2="298.5293"/><text fill="#000000" font-family="sans-serif" font-size="14" lengthAdjust="spacing" textLength="40.1133" x="5" y="116.0234">Agent</text><ellipse cx="28.0566" cy="50.9883" fill="#E2E2F0" rx="8" ry="8" style="stroke:#181818;stroke-width:0.5;"/><path d="M28.0566,58.9883 L28.0566,85.9883 M15.0566,66.9883 L41.0566,66.9883 M28.0566,85.9883 L15.0566,100.9883 M28.0566,85.9883 L41.0566,100.9883 " fill="none" style="stroke:#181818;stroke-width:0.5;"/><text fill="#000000" font-family="sans-serif" font-size="14" lengthAdjust="spacing" textLength="40.1133" x="5" y="311.0645">Agent</text><ellipse cx="28.0566" cy="322.5176" fill="#E2E2F0" rx="8" ry="8" style="stroke:#181818;stroke-width:0.5;"/><path d="M28.0566,330.5176 L28.0566,357.5176 M15.0566,338.5176 L41.0566,338.5176 M28.0566,357.5176 L15.0566,372.5176 M28.0566,357.5176 L41.0566,372.5176 " fill="none" style="stroke:#181818;stroke-width:0.5;"/><rect fill="#E2E2F0" height="30.4883" rx="2.5" ry="2.5" style="stroke:#181818;stroke-width:0.5;" width="66.5273" x="269.3213" y="87.4883"/><text fill="#000000" font-family="sans-serif" font-size="14" lengthAdjust="spacing" textLength="52.5273" x="276.3213" y="108.0234">:System</text><rect fill="#E2E2F0" height="30.4883" rx="2.5" ry="2.5" style="stroke:#181818;stroke-width:0.5;" width="66.5273" x="269.3213" y="297.5293"/><text fill="#000000" font-family="sans-serif" font-size="14" lengthAdjust="spacing" textLength="52.5273" x="276.3213" y="318.0645">:System</text><rect fill="#FFFFFF" height="160.5527" style="stroke:#181818;stroke-width:1.0;" width="10" x="23.0566" y="128.9766"/><rect fill="#FFFFFF" height="29.3105" style="stroke:#181818;stroke-width:1.0;" width="10" x="297.585" y="150.2871"/><rect fill="#FFFFFF" height="80.6211" style="stroke:#181818;stroke-width:1.0;" width="10" x="297.585" y="208.9082"/><rect fill="#FFFFFF" height="34.3105" style="stroke:#181818;stroke-width:1.0;" width="10" x="302.585" y="246.2188"/><polygon fill="#181818" points="285.585,146.2871,295.585,150.2871,285.585,154.2871,289.585,150.2871" style="stroke:#181818;stroke-width:1.0;"/><line style="stroke:#181818;stroke-width:1.0;" x1="33.0566" x2="291.585" y1="150.2871" y2="150.2871"/><text fill="#000000" font-family="sans-serif" font-size="13" font-weight="bold" lengthAdjust="spacing" textLength="8.5757" x="40.0566" y="145.5449">1</text><text fill="#000000" font-family="sans-serif" font-size="13" lengthAdjust="spacing" textLength="232.9526" x="52.6323" y="145.5449">Request unpublished advertisements</text><polygon fill="#181818" points="44.0566,175.5977,34.0566,179.5977,44.0566,183.5977,40.0566,179.5977" style="stroke:#181818;stroke-width:1.0;"/><line style="stroke:#181818;stroke-width:1.0;stroke-dasharray:2.0,2.0;" x1="38.0566" x2="301.585" y1="179.5977" y2="179.5977"/><text fill="#000000" font-family="sans-serif" font-size="13" font-weight="bold" lengthAdjust="spacing" textLength="8.5757" x="50.0566" y="174.8555">2</text><text fill="#000000" font-family="sans-serif" font-size="13" lengthAdjust="spacing" textLength="221.5649" x="62.6323" y="174.8555">List of unpublished advertisements</text><polygon fill="#181818" points="285.585,204.9082,295.585,208.9082,285.585,212.9082,289.585,208.9082" style="stroke:#181818;stroke-width:1.0;"/><line style="stroke:#181818;stroke-width:1.0;" x1="33.0566" x2="291.585" y1="208.9082" y2="208.9082"/><text fill="#000000" font-family="sans-serif" font-size="13" font-weight="bold" lengthAdjust="spacing" textLength="8.5757" x="40.0566" y="204.166">3</text><text fill="#000000" font-family="sans-serif" font-size="13" lengthAdjust="spacing" textLength="217.4072" x="52.6323" y="204.166">Select an advertisement to publish</text><line style="stroke:#181818;stroke-width:1.0;" x1="307.585" x2="354.585" y1="233.2188" y2="233.2188"/><line style="stroke:#181818;stroke-width:1.0;" x1="354.585" x2="354.585" y1="233.2188" y2="246.2188"/><line style="stroke:#181818;stroke-width:1.0;" x1="313.585" x2="354.585" y1="246.2188" y2="246.2188"/><polygon fill="#181818" points="323.585,242.2188,313.585,246.2188,323.585,250.2188,319.585,246.2188" style="stroke:#181818;stroke-width:1.0;"/><text fill="#000000" font-family="sans-serif" font-size="13" font-weight="bold" lengthAdjust="spacing" textLength="8.5757" x="319.585" y="228.4766">4</text><text fill="#000000" font-family="sans-serif" font-size="13" lengthAdjust="spacing" textLength="208.9585" x="332.1606" y="228.4766">Mark advertisement as published</text><polygon fill="#181818" points="44.0566,276.5293,34.0566,280.5293,44.0566,284.5293,40.0566,280.5293" style="stroke:#181818;stroke-width:1.0;"/><line style="stroke:#181818;stroke-width:1.0;stroke-dasharray:2.0,2.0;" x1="38.0566" x2="296.585" y1="280.5293" y2="280.5293"/><text fill="#000000" font-family="sans-serif" font-size="13" font-weight="bold" lengthAdjust="spacing" textLength="8.5757" x="50.0566" y="275.7871">5</text><text fill="#000000" font-family="sans-serif" font-size="13" lengthAdjust="spacing" textLength="174.3447" x="62.6323" y="275.7871">Confirmation of publication</text><!--SRC=[VO_BJiGm34Nt-Ggh6rQb-owGHh042Kt51tXIjsEH5uap4dzFcbJ3OoGsKNnzZtrzTnO9QHo6OD19jkPUUpia-iZaDFKpunhHAYKiXc3QTNXgEYm-mci-6KvdTYiSvWj5uKIMd2Y5MJnguGiAWNUrTjcUA9QUbi9sXxKuEy04Rwd80GkkEPGiq8tJPnAojTk-5MlZgbrjB_GFUtk4unOm2MGNMYgQ0N-6IgfPeI_KHe_mp0Nmot_CpPw936a1TB-T81xs8TSztz0BnlS__dBPTUbjiaVl5euMXRtR4bQhhgNw0W00]--></g></svg>