<svg xmlns="http://www.w3.org/2000/svg" xmlns:xlink="http://www.w3.org/1999/xlink" contentStyleType="text/css" height="1116px" preserveAspectRatio="none" style="width:1861px;height:1116px;background:#FFFFFF;" version="1.1" viewBox="0 0 1861 1116" width="1861px" zoomAndPan="magnify"><title>US40: Publish Advertisement</title><defs/><g><text fill="#000000" font-family="sans-serif" font-size="14" font-weight="bold" lengthAdjust="spacing" textLength="208.1885" x="825.6047" y="28.5352">US40: Publish Advertisement</text><rect fill="#FFFFFF" height="897.1836" style="stroke:#181818;stroke-width:1.0;" width="10" x="23.0566" y="128.9766"/><rect fill="#FFFFFF" height="483.1465" style="stroke:#181818;stroke-width:1.0;" width="10" x="297.585" y="150.2871"/><rect fill="#FFFFFF" height="354.416" style="stroke:#181818;stroke-width:1.0;" width="10" x="297.585" y="662.7441"/><rect fill="#FFFFFF" height="424.5254" style="stroke:#181818;stroke-width:1.0;" width="10" x="540.5845" y="179.5977"/><rect fill="#FFFFFF" height="295.7949" style="stroke:#181818;stroke-width:1.0;" width="10" x="540.5845" y="692.0547"/><rect fill="#FFFFFF" height="129.4199" style="stroke:#181818;stroke-width:1.0;" width="10" x="746.0186" y="208.9082"/><rect fill="#FFFFFF" height="29.3105" style="stroke:#181818;stroke-width:1.0;" width="10" x="974.4756" y="238.2188"/><rect fill="#FFFFFF" height="148.5527" style="stroke:#181818;stroke-width:1.0;" width="10" x="1183.3364" y="367.6387"/><rect fill="#FFFFFF" height="154.2422" style="stroke:#181818;stroke-width:1.0;" width="10" x="1183.3364" y="804.2969"/><rect fill="#FFFFFF" height="53.6211" style="stroke:#181818;stroke-width:1.0;" width="10" x="1436.2002" y="396.9492"/><rect fill="#FFFFFF" height="59.3105" style="stroke:#181818;stroke-width:1.0;" width="10" x="1436.2002" y="862.918"/><rect fill="#FFFFFF" height="59.3105" style="stroke:#181818;stroke-width:1.0;" width="10" x="1614.4224" y="833.6074"/><rect fill="#FFFFFF" height="29.3105" style="stroke:#181818;stroke-width:1.0;" width="10" x="1766.5825" y="545.502"/><rect fill="#FFFFFF" height="29.3105" style="stroke:#181818;stroke-width:1.0;" width="10" x="1766.5825" y="721.3652"/><rect fill="none" height="75.9316" style="stroke:#000000;stroke-width:1.5;" width="488.2163" x="1072.8613" y="411.9492"/><rect fill="none" height="164.5527" style="stroke:#000000;stroke-width:1.5;" width="1269.1865" x="418.5806" y="765.6758"/><line style="stroke:#181818;stroke-width:0.5;stroke-dasharray:5.0,5.0;" x1="28" x2="28" y1="118.9766" y2="1035.1602"/><line style="stroke:#181818;stroke-width:0.5;stroke-dasharray:5.0,5.0;" x1="302.4199" x2="302.4199" y1="118.9766" y2="1035.1602"/><line style="stroke:#181818;stroke-width:0.5;stroke-dasharray:5.0,5.0;" x1="545.5806" x2="545.5806" y1="118.9766" y2="1035.1602"/><line style="stroke:#181818;stroke-width:0.5;stroke-dasharray:5.0,5.0;" x1="750.8525" x2="750.8525" y1="118.9766" y2="1035.1602"/><line style="stroke:#181818;stroke-width:0.5;stroke-dasharray:5.0,5.0;" x1="979.0898" x2="979.0898" y1="118.9766" y2="1035.1602"/><line style="stroke:#181818;stroke-width:0.5;stroke-dasharray:5.0,5.0;" x1="1187.8613" x2="1187.8613" y1="306.2734" y2="1035.1602"/><line style="stroke:#181818;stroke-width:0.5;stroke-dasharray:5.0,5.0;" x1="1440.3228" x2="1440.3228" y1="118.9766" y2="1035.1602"/><line style="stroke:#181818;stroke-width:0.5;stroke-dasharray:5.0,5.0;" x1="1619.0776" x2="1619.0776" y1="118.9766" y2="1035.1602"/><line style="stroke:#181818;stroke-width:0.5;stroke-dasharray:5.0,5.0;" x1="1770.7671" x2="1770.7671" y1="118.9766" y2="1035.1602"/><text fill="#000000" font-family="sans-serif" font-size="14" lengthAdjust="spacing" textLength="40.1133" x="5" y="116.0234">Agent</text><ellipse cx="28.0566" cy="50.9883" fill="#E2E2F0" rx="8" ry="8" style="stroke:#181818;stroke-width:0.5;"/><path d="M28.0566,58.9883 L28.0566,85.9883 M15.0566,66.9883 L41.0566,66.9883 M28.0566,85.9883 L15.0566,100.9883 M28.0566,85.9883 L41.0566,100.9883 " fill="none" style="stroke:#181818;stroke-width:0.5;"/><text fill="#000000" font-family="sans-serif" font-size="14" lengthAdjust="spacing" textLength="40.1133" x="5" y="1047.6953">Agent</text><ellipse cx="28.0566" cy="1059.1484" fill="#E2E2F0" rx="8" ry="8" style="stroke:#181818;stroke-width:0.5;"/><path d="M28.0566,1067.1484 L28.0566,1094.1484 M15.0566,1075.1484 L41.0566,1075.1484 M28.0566,1094.1484 L15.0566,1109.1484 M28.0566,1094.1484 L41.0566,1109.1484 " fill="none" style="stroke:#181818;stroke-width:0.5;"/><rect fill="#E2E2F0" height="30.4883" rx="2.5" ry="2.5" style="stroke:#181818;stroke-width:0.5;" width="90.3301" x="257.4199" y="87.4883"/><text fill="#000000" font-family="sans-serif" font-size="14" lengthAdjust="spacing" textLength="76.3301" x="264.4199" y="108.0234">:AgentView</text><rect fill="#E2E2F0" height="30.4883" rx="2.5" ry="2.5" style="stroke:#181818;stroke-width:0.5;" width="90.3301" x="257.4199" y="1034.1602"/><text fill="#000000" font-family="sans-serif" font-size="14" lengthAdjust="spacing" textLength="76.3301" x="264.4199" y="1054.6953">:AgentView</text><rect fill="#E2E2F0" height="30.4883" rx="2.5" ry="2.5" style="stroke:#181818;stroke-width:0.5;" width="234.0078" x="428.5806" y="87.4883"/><text fill="#000000" font-family="sans-serif" font-size="14" lengthAdjust="spacing" textLength="220.0078" x="435.5806" y="108.0234">:PublishAdvertisementController</text><rect fill="#E2E2F0" height="30.4883" rx="2.5" ry="2.5" style="stroke:#181818;stroke-width:0.5;" width="234.0078" x="428.5806" y="1034.1602"/><text fill="#000000" font-family="sans-serif" font-size="14" lengthAdjust="spacing" textLength="220.0078" x="435.5806" y="1054.6953">:PublishAdvertisementController</text><rect fill="#E2E2F0" height="30.4883" rx="2.5" ry="2.5" style="stroke:#181818;stroke-width:0.5;" width="82.332" x="709.8525" y="87.4883"/><text fill="#000000" font-family="sans-serif" font-size="14" lengthAdjust="spacing" textLength="68.332" x="716.8525" y="108.0234">:Company</text><rect fill="#E2E2F0" height="30.4883" rx="2.5" ry="2.5" style="stroke:#181818;stroke-width:0.5;" width="82.332" x="709.8525" y="1034.1602"/><text fill="#000000" font-family="sans-serif" font-size="14" lengthAdjust="spacing" textLength="68.332" x="716.8525" y="1054.6953">:Company</text><rect fill="#E2E2F0" height="30.4883" rx="2.5" ry="2.5" style="stroke:#181818;stroke-width:0.5;" width="186.7715" x="886.0898" y="87.4883"/><text fill="#000000" font-family="sans-serif" font-size="14" lengthAdjust="spacing" textLength="172.7715" x="893.0898" y="108.0234">factory:RepositoryFactory</text><rect fill="#E2E2F0" height="30.4883" rx="2.5" ry="2.5" style="stroke:#181818;stroke-width:0.5;" width="186.7715" x="886.0898" y="1034.1602"/><text fill="#000000" font-family="sans-serif" font-size="14" lengthAdjust="spacing" textLength="172.7715" x="893.0898" y="1054.6953">factory:RepositoryFactory</text><rect fill="#E2E2F0" height="30.4883" rx="2.5" ry="2.5" style="stroke:#181818;stroke-width:0.5;" width="210.9502" x="1082.8613" y="1034.1602"/><text fill="#000000" font-family="sans-serif" font-size="14" lengthAdjust="spacing" textLength="196.9502" x="1089.8613" y="1054.6953">service:AdvertisementService</text><rect fill="#E2E2F0" height="30.4883" rx="2.5" ry="2.5" style="stroke:#181818;stroke-width:0.5;" width="219.7549" x="1331.3228" y="87.4883"/><text fill="#000000" font-family="sans-serif" font-size="14" lengthAdjust="spacing" textLength="205.7549" x="1338.3228" y="108.0234">repo:AdvertisementRepository</text><rect fill="#E2E2F0" height="30.4883" rx="2.5" ry="2.5" style="stroke:#181818;stroke-width:0.5;" width="219.7549" x="1331.3228" y="1034.1602"/><text fill="#000000" font-family="sans-serif" font-size="14" lengthAdjust="spacing" textLength="205.7549" x="1338.3228" y="1054.6953">repo:AdvertisementRepository</text><rect fill="#E2E2F0" height="30.4883" rx="2.5" ry="2.5" style="stroke:#181818;stroke-width:0.5;" width="116.6895" x="1561.0776" y="87.4883"/><text fill="#000000" font-family="sans-serif" font-size="14" lengthAdjust="spacing" textLength="102.6895" x="1568.0776" y="108.0234">:Advertisement</text><rect fill="#E2E2F0" height="30.4883" rx="2.5" ry="2.5" style="stroke:#181818;stroke-width:0.5;" width="116.6895" x="1561.0776" y="1034.1602"/><text fill="#000000" font-family="sans-serif" font-size="14" lengthAdjust="spacing" textLength="102.6895" x="1568.0776" y="1054.6953">:Advertisement</text><rect fill="#E2E2F0" height="30.4883" rx="2.5" ry="2.5" style="stroke:#181818;stroke-width:0.5;" width="167.6309" x="1687.7671" y="87.4883"/><text fill="#000000" font-family="sans-serif" font-size="14" lengthAdjust="spacing" textLength="153.6309" x="1694.7671" y="108.0234">:AdvertisementMapper</text><rect fill="#E2E2F0" height="30.4883" rx="2.5" ry="2.5" style="stroke:#181818;stroke-width:0.5;" width="167.6309" x="1687.7671" y="1034.1602"/><text fill="#000000" font-family="sans-serif" font-size="14" lengthAdjust="spacing" textLength="153.6309" x="1694.7671" y="1054.6953">:AdvertisementMapper</text><rect fill="#FFFFFF" height="897.1836" style="stroke:#181818;stroke-width:1.0;" width="10" x="23.0566" y="128.9766"/><rect fill="#FFFFFF" height="483.1465" style="stroke:#181818;stroke-width:1.0;" width="10" x="297.585" y="150.2871"/><rect fill="#FFFFFF" height="354.416" style="stroke:#181818;stroke-width:1.0;" width="10" x="297.585" y="662.7441"/><rect fill="#FFFFFF" height="424.5254" style="stroke:#181818;stroke-width:1.0;" width="10" x="540.5845" y="179.5977"/><rect fill="#FFFFFF" height="295.7949" style="stroke:#181818;stroke-width:1.0;" width="10" x="540.5845" y="692.0547"/><rect fill="#FFFFFF" height="129.4199" style="stroke:#181818;stroke-width:1.0;" width="10" x="746.0186" y="208.9082"/><rect fill="#FFFFFF" height="29.3105" style="stroke:#181818;stroke-width:1.0;" width="10" x="974.4756" y="238.2188"/><rect fill="#FFFFFF" height="148.5527" style="stroke:#181818;stroke-width:1.0;" width="10" x="1183.3364" y="367.6387"/><rect fill="#FFFFFF" height="154.2422" style="stroke:#181818;stroke-width:1.0;" width="10" x="1183.3364" y="804.2969"/><rect fill="#FFFFFF" height="53.6211" style="stroke:#181818;stroke-width:1.0;" width="10" x="1436.2002" y="396.9492"/><rect fill="#FFFFFF" height="59.3105" style="stroke:#181818;stroke-width:1.0;" width="10" x="1436.2002" y="862.918"/><rect fill="#FFFFFF" height="59.3105" style="stroke:#181818;stroke-width:1.0;" width="10" x="1614.4224" y="833.6074"/><rect fill="#FFFFFF" height="29.3105" style="stroke:#181818;stroke-width:1.0;" width="10" x="1766.5825" y="545.502"/><rect fill="#FFFFFF" height="29.3105" style="stroke:#181818;stroke-width:1.0;" width="10" x="1766.5825" y="721.3652"/><polygon fill="#181818" points="285.585,146.2871,295.585,150.2871,285.585,154.2871,289.585,150.2871" style="stroke:#181818;stroke-width:1.0;"/><line style="stroke:#181818;stroke-width:1.0;" x1="33.0566" x2="291.585" y1="150.2871" y2="150.2871"/><text fill="#000000" font-family="sans-serif" font-size="13" font-weight="bold" lengthAdjust="spacing" textLength="8.5757" x="40.0566" y="145.5449">1</text><text fill="#000000" font-family="sans-serif" font-size="13" lengthAdjust="spacing" textLength="232.9526" x="52.6323" y="145.5449">Request unpublished advertisements</text><polygon fill="#181818" points="528.5845,175.5977,538.5845,179.5977,528.5845,183.5977,532.5845,179.5977" style="stroke:#181818;stroke-width:1.0;"/><line style="stroke:#181818;stroke-width:1.0;" x1="307.585" x2="534.5845" y1="179.5977" y2="179.5977"/><text fill="#000000" font-family="sans-serif" font-size="13" font-weight="bold" lengthAdjust="spacing" textLength="8.5757" x="314.585" y="174.8555">2</text><text fill="#000000" font-family="sans-serif" font-size="13" lengthAdjust="spacing" textLength="201.4238" x="327.1606" y="174.8555">retrieveAdvertisements(agentId)</text><polygon fill="#181818" points="734.0186,204.9082,744.0186,208.9082,734.0186,212.9082,738.0186,208.9082" style="stroke:#181818;stroke-width:1.0;"/><line style="stroke:#181818;stroke-width:1.0;" x1="550.5845" x2="740.0186" y1="208.9082" y2="208.9082"/><text fill="#000000" font-family="sans-serif" font-size="13" font-weight="bold" lengthAdjust="spacing" textLength="8.5757" x="557.5845" y="204.166">3</text><text fill="#000000" font-family="sans-serif" font-size="13" lengthAdjust="spacing" textLength="163.8584" x="570.1602" y="204.166">getAdvertisementService()</text><polygon fill="#181818" points="962.4756,234.2188,972.4756,238.2188,962.4756,242.2188,966.4756,238.2188" style="stroke:#181818;stroke-width:1.0;"/><line style="stroke:#181818;stroke-width:1.0;" x1="756.0186" x2="968.4756" y1="238.2188" y2="238.2188"/><text fill="#000000" font-family="sans-serif" font-size="13" font-weight="bold" lengthAdjust="spacing" textLength="8.5757" x="763.0186" y="233.4766">4</text><text fill="#000000" font-family="sans-serif" font-size="13" lengthAdjust="spacing" textLength="186.8813" x="775.5942" y="233.4766">getAdvertisementRepository()</text><polygon fill="#181818" points="767.0186,263.5293,757.0186,267.5293,767.0186,271.5293,763.0186,267.5293" style="stroke:#181818;stroke-width:1.0;"/><line style="stroke:#181818;stroke-width:1.0;stroke-dasharray:2.0,2.0;" x1="761.0186" x2="978.4756" y1="267.5293" y2="267.5293"/><text fill="#000000" font-family="sans-serif" font-size="13" font-weight="bold" lengthAdjust="spacing" textLength="8.5757" x="773.0186" y="262.7871">5</text><text fill="#000000" font-family="sans-serif" font-size="13" lengthAdjust="spacing" textLength="28.7295" x="785.5942" y="262.7871">repo</text><polygon fill="#181818" points="1070.8613,292.8398,1080.8613,296.8398,1070.8613,300.8398,1074.8613,296.8398" style="stroke:#181818;stroke-width:1.0;"/><line style="stroke:#181818;stroke-width:1.0;" x1="756.0186" x2="1076.8613" y1="296.8398" y2="296.8398"/><text fill="#000000" font-family="sans-serif" font-size="13" font-weight="bold" lengthAdjust="spacing" textLength="8.5757" x="763.0186" y="292.0977">6</text><text fill="#000000" font-family="sans-serif" font-size="13" lengthAdjust="spacing" textLength="75.6895" x="775.5942" y="292.0977">create(repo)</text><rect fill="#E2E2F0" height="30.4883" rx="2.5" ry="2.5" style="stroke:#181818;stroke-width:0.5;" width="210.9502" x="1082.8613" y="275.5293"/><text fill="#000000" font-family="sans-serif" font-size="14" lengthAdjust="spacing" textLength="196.9502" x="1089.8613" y="296.0645">service:AdvertisementService</text><polygon fill="#181818" points="561.5845,334.3281,551.5845,338.3281,561.5845,342.3281,557.5845,338.3281" style="stroke:#181818;stroke-width:1.0;"/><line style="stroke:#181818;stroke-width:1.0;stroke-dasharray:2.0,2.0;" x1="555.5845" x2="750.0186" y1="338.3281" y2="338.3281"/><text fill="#000000" font-family="sans-serif" font-size="13" font-weight="bold" lengthAdjust="spacing" textLength="8.5757" x="567.5845" y="333.5859">7</text><text fill="#000000" font-family="sans-serif" font-size="13" lengthAdjust="spacing" textLength="43.5767" x="580.1602" y="333.5859">service</text><polygon fill="#181818" points="1171.3364,363.6387,1181.3364,367.6387,1171.3364,371.6387,1175.3364,367.6387" style="stroke:#181818;stroke-width:1.0;"/><line style="stroke:#181818;stroke-width:1.0;" x1="550.5845" x2="1177.3364" y1="367.6387" y2="367.6387"/><text fill="#000000" font-family="sans-serif" font-size="13" font-weight="bold" lengthAdjust="spacing" textLength="8.5757" x="557.5845" y="362.8965">8</text><text fill="#000000" font-family="sans-serif" font-size="13" lengthAdjust="spacing" textLength="206.7114" x="570.1602" y="362.8965">getUnpublishedByAgent(agentId)</text><polygon fill="#181818" points="1424.2002,392.9492,1434.2002,396.9492,1424.2002,400.9492,1428.2002,396.9492" style="stroke:#181818;stroke-width:1.0;"/><line style="stroke:#181818;stroke-width:1.0;" x1="1193.3364" x2="1430.2002" y1="396.9492" y2="396.9492"/><text fill="#000000" font-family="sans-serif" font-size="13" font-weight="bold" lengthAdjust="spacing" textLength="8.5757" x="1200.3364" y="392.207">9</text><text fill="#000000" font-family="sans-serif" font-size="13" lengthAdjust="spacing" textLength="211.2881" x="1212.9121" y="392.207">findUnpublishedByAgent(agentId)</text><path d="M1072.8613,411.9492 L1147.3081,411.9492 L1147.3081,419.2598 L1137.3081,429.2598 L1072.8613,429.2598 L1072.8613,411.9492 " fill="#EEEEEE" style="stroke:#000000;stroke-width:1.5;"/><rect fill="none" height="75.9316" style="stroke:#000000;stroke-width:1.5;" width="488.2163" x="1072.8613" y="411.9492"/><text fill="#000000" font-family="sans-serif" font-size="13" font-weight="bold" lengthAdjust="spacing" textLength="29.4468" x="1087.8613" y="425.5176">loop</text><text fill="#000000" font-family="sans-serif" font-size="11" font-weight="bold" lengthAdjust="spacing" textLength="215.166" x="1162.3081" y="424.584">[For each unpublished advertisement]</text><polygon fill="#181818" points="1204.3364,446.5703,1194.3364,450.5703,1204.3364,454.5703,1200.3364,450.5703" style="stroke:#181818;stroke-width:1.0;"/><line style="stroke:#181818;stroke-width:1.0;stroke-dasharray:2.0,2.0;" x1="1198.3364" x2="1440.2002" y1="450.5703" y2="450.5703"/><text fill="#000000" font-family="sans-serif" font-size="13" font-weight="bold" lengthAdjust="spacing" textLength="17.1514" x="1210.3364" y="445.8281">10</text><text fill="#000000" font-family="sans-serif" font-size="13" lengthAdjust="spacing" textLength="178.9341" x="1231.4878" y="445.8281">Advertisement (isSold: false)</text><polygon fill="#181818" points="1204.3364,475.8809,1194.3364,479.8809,1204.3364,483.8809,1200.3364,479.8809" style="stroke:#181818;stroke-width:1.0;"/><line style="stroke:#181818;stroke-width:1.0;stroke-dasharray:2.0,2.0;" x1="1198.3364" x2="1440.2002" y1="479.8809" y2="479.8809"/><text fill="#000000" font-family="sans-serif" font-size="13" font-weight="bold" lengthAdjust="spacing" textLength="17.1514" x="1210.3364" y="475.1387">11</text><text fill="#000000" font-family="sans-serif" font-size="13" lengthAdjust="spacing" textLength="195.3745" x="1231.4878" y="475.1387">Advertisement (Visibility: false)</text><polygon fill="#181818" points="561.5845,512.1914,551.5845,516.1914,561.5845,520.1914,557.5845,516.1914" style="stroke:#181818;stroke-width:1.0;"/><line style="stroke:#181818;stroke-width:1.0;stroke-dasharray:2.0,2.0;" x1="555.5845" x2="1187.3364" y1="516.1914" y2="516.1914"/><text fill="#000000" font-family="sans-serif" font-size="13" font-weight="bold" lengthAdjust="spacing" textLength="17.1514" x="567.5845" y="511.4492">12</text><text fill="#000000" font-family="sans-serif" font-size="13" lengthAdjust="spacing" textLength="184.7485" x="588.7358" y="511.4492">List of Advertisement Entities</text><polygon fill="#181818" points="1754.5825,541.502,1764.5825,545.502,1754.5825,549.502,1758.5825,545.502" style="stroke:#181818;stroke-width:1.0;"/><line style="stroke:#181818;stroke-width:1.0;" x1="550.5845" x2="1760.5825" y1="545.502" y2="545.502"/><text fill="#000000" font-family="sans-serif" font-size="13" font-weight="bold" lengthAdjust="spacing" textLength="17.1514" x="557.5845" y="540.7598">13</text><text fill="#000000" font-family="sans-serif" font-size="13" lengthAdjust="spacing" textLength="207.2129" x="578.7358" y="540.7598">toDTOList(advertisementEntities)</text><polygon fill="#181818" points="561.5845,570.8125,551.5845,574.8125,561.5845,578.8125,557.5845,574.8125" style="stroke:#181818;stroke-width:1.0;"/><line style="stroke:#181818;stroke-width:1.0;stroke-dasharray:2.0,2.0;" x1="555.5845" x2="1770.5825" y1="574.8125" y2="574.8125"/><text fill="#000000" font-family="sans-serif" font-size="13" font-weight="bold" lengthAdjust="spacing" textLength="17.1514" x="567.5845" y="570.0703">14</text><text fill="#000000" font-family="sans-serif" font-size="13" lengthAdjust="spacing" textLength="162.1445" x="588.7358" y="570.0703">List&lt;AdvertisementDTO&gt;</text><polygon fill="#181818" points="318.585,600.123,308.585,604.123,318.585,608.123,314.585,604.123" style="stroke:#181818;stroke-width:1.0;"/><line style="stroke:#181818;stroke-width:1.0;stroke-dasharray:2.0,2.0;" x1="312.585" x2="544.5845" y1="604.123" y2="604.123"/><text fill="#000000" font-family="sans-serif" font-size="13" font-weight="bold" lengthAdjust="spacing" textLength="17.1514" x="324.585" y="599.3809">15</text><text fill="#000000" font-family="sans-serif" font-size="13" lengthAdjust="spacing" textLength="169.0952" x="345.7363" y="599.3809">List of AdvertisementDTOs</text><polygon fill="#181818" points="44.0566,629.4336,34.0566,633.4336,44.0566,637.4336,40.0566,633.4336" style="stroke:#181818;stroke-width:1.0;"/><line style="stroke:#181818;stroke-width:1.0;stroke-dasharray:2.0,2.0;" x1="38.0566" x2="301.585" y1="633.4336" y2="633.4336"/><text fill="#000000" font-family="sans-serif" font-size="13" font-weight="bold" lengthAdjust="spacing" textLength="17.1514" x="50.0566" y="628.6914">16</text><text fill="#000000" font-family="sans-serif" font-size="13" lengthAdjust="spacing" textLength="146.2246" x="71.208" y="628.6914">Display advertisements</text><polygon fill="#181818" points="285.585,658.7441,295.585,662.7441,285.585,666.7441,289.585,662.7441" style="stroke:#181818;stroke-width:1.0;"/><line style="stroke:#181818;stroke-width:1.0;" x1="33.0566" x2="291.585" y1="662.7441" y2="662.7441"/><text fill="#000000" font-family="sans-serif" font-size="13" font-weight="bold" lengthAdjust="spacing" textLength="17.1514" x="40.0566" y="658.002">17</text><text fill="#000000" font-family="sans-serif" font-size="13" lengthAdjust="spacing" textLength="149.6904" x="61.208" y="658.002">Select an advertisement</text><polygon fill="#181818" points="528.5845,688.0547,538.5845,692.0547,528.5845,696.0547,532.5845,692.0547" style="stroke:#181818;stroke-width:1.0;"/><line style="stroke:#181818;stroke-width:1.0;" x1="307.585" x2="534.5845" y1="692.0547" y2="692.0547"/><text fill="#000000" font-family="sans-serif" font-size="13" font-weight="bold" lengthAdjust="spacing" textLength="17.1514" x="314.585" y="687.3125">18</text><text fill="#000000" font-family="sans-serif" font-size="13" lengthAdjust="spacing" textLength="189.7568" x="335.7363" y="687.3125">publishAdvertisement(adDTO)</text><polygon fill="#181818" points="1754.5825,717.3652,1764.5825,721.3652,1754.5825,725.3652,1758.5825,721.3652" style="stroke:#181818;stroke-width:1.0;"/><line style="stroke:#181818;stroke-width:1.0;" x1="550.5845" x2="1760.5825" y1="721.3652" y2="721.3652"/><text fill="#000000" font-family="sans-serif" font-size="13" font-weight="bold" lengthAdjust="spacing" textLength="17.1514" x="557.5845" y="716.623">19</text><text fill="#000000" font-family="sans-serif" font-size="13" lengthAdjust="spacing" textLength="100.1089" x="578.7358" y="716.623">toEntity(adDTO)</text><polygon fill="#181818" points="561.5845,746.6758,551.5845,750.6758,561.5845,754.6758,557.5845,750.6758" style="stroke:#181818;stroke-width:1.0;"/><line style="stroke:#181818;stroke-width:1.0;stroke-dasharray:2.0,2.0;" x1="555.5845" x2="1770.5825" y1="750.6758" y2="750.6758"/><text fill="#000000" font-family="sans-serif" font-size="13" font-weight="bold" lengthAdjust="spacing" textLength="17.1514" x="567.5845" y="745.9336">20</text><text fill="#000000" font-family="sans-serif" font-size="13" lengthAdjust="spacing" textLength="91.2412" x="588.7358" y="745.9336">Advertisement</text><path d="M418.5806,765.6758 L485.7656,765.6758 L485.7656,772.9863 L475.7656,782.9863 L418.5806,782.9863 L418.5806,765.6758 " fill="#EEEEEE" style="stroke:#000000;stroke-width:1.5;"/><rect fill="none" height="164.5527" style="stroke:#000000;stroke-width:1.5;" width="1269.1865" x="418.5806" y="765.6758"/><text fill="#000000" font-family="sans-serif" font-size="13" font-weight="bold" lengthAdjust="spacing" textLength="22.1851" x="433.5806" y="779.2441">opt</text><text fill="#000000" font-family="sans-serif" font-size="11" font-weight="bold" lengthAdjust="spacing" textLength="183.0737" x="500.7656" y="778.3105">[If advertisement meets criteria]</text><polygon fill="#181818" points="1171.3364,800.2969,1181.3364,804.2969,1171.3364,808.2969,1175.3364,804.2969" style="stroke:#181818;stroke-width:1.0;"/><line style="stroke:#181818;stroke-width:1.0;" x1="550.5845" x2="1177.3364" y1="804.2969" y2="804.2969"/><text fill="#000000" font-family="sans-serif" font-size="13" font-weight="bold" lengthAdjust="spacing" textLength="17.1514" x="557.5845" y="799.5547">21</text><text fill="#000000" font-family="sans-serif" font-size="13" lengthAdjust="spacing" textLength="237.5801" x="578.7358" y="799.5547">publishAdvertisement(Advertisement)</text><polygon fill="#181818" points="1602.4224,829.6074,1612.4224,833.6074,1602.4224,837.6074,1606.4224,833.6074" style="stroke:#181818;stroke-width:1.0;"/><line style="stroke:#181818;stroke-width:1.0;" x1="1193.3364" x2="1608.4224" y1="833.6074" y2="833.6074"/><text fill="#000000" font-family="sans-serif" font-size="13" font-weight="bold" lengthAdjust="spacing" textLength="17.1514" x="1200.3364" y="828.8652">22</text><text fill="#000000" font-family="sans-serif" font-size="13" lengthAdjust="spacing" textLength="117.3555" x="1221.4878" y="828.8652">markAsPublished()</text><polygon fill="#181818" points="1457.2002,858.918,1447.2002,862.918,1457.2002,866.918,1453.2002,862.918" style="stroke:#181818;stroke-width:1.0;"/><line style="stroke:#181818;stroke-width:1.0;" x1="1451.2002" x2="1613.4224" y1="862.918" y2="862.918"/><text fill="#000000" font-family="sans-serif" font-size="13" font-weight="bold" lengthAdjust="spacing" textLength="17.1514" x="1463.2002" y="858.1758">23</text><text fill="#000000" font-family="sans-serif" font-size="13" lengthAdjust="spacing" textLength="51.5938" x="1484.3516" y="858.1758">save(ad)</text><polygon fill="#181818" points="1204.3364,918.2285,1194.3364,922.2285,1204.3364,926.2285,1200.3364,922.2285" style="stroke:#181818;stroke-width:1.0;"/><line style="stroke:#181818;stroke-width:1.0;stroke-dasharray:2.0,2.0;" x1="1198.3364" x2="1440.2002" y1="922.2285" y2="922.2285"/><text fill="#000000" font-family="sans-serif" font-size="13" font-weight="bold" lengthAdjust="spacing" textLength="17.1514" x="1210.3364" y="917.4863">24</text><text fill="#000000" font-family="sans-serif" font-size="13" lengthAdjust="spacing" textLength="80.5581" x="1231.4878" y="917.4863">confirmation</text><polygon fill="#181818" points="561.5845,954.5391,551.5845,958.5391,561.5845,962.5391,557.5845,958.5391" style="stroke:#181818;stroke-width:1.0;"/><line style="stroke:#181818;stroke-width:1.0;stroke-dasharray:2.0,2.0;" x1="555.5845" x2="1187.3364" y1="958.5391" y2="958.5391"/><text fill="#000000" font-family="sans-serif" font-size="13" font-weight="bold" lengthAdjust="spacing" textLength="17.1514" x="567.5845" y="953.7969">25</text><text fill="#000000" font-family="sans-serif" font-size="13" lengthAdjust="spacing" textLength="48.5088" x="588.7358" y="953.7969">success</text><polygon fill="#181818" points="318.585,983.8496,308.585,987.8496,318.585,991.8496,314.585,987.8496" style="stroke:#181818;stroke-width:1.0;"/><line style="stroke:#181818;stroke-width:1.0;stroke-dasharray:2.0,2.0;" x1="312.585" x2="544.5845" y1="987.8496" y2="987.8496"/><text fill="#000000" font-family="sans-serif" font-size="13" font-weight="bold" lengthAdjust="spacing" textLength="17.1514" x="324.585" y="983.1074">26</text><text fill="#000000" font-family="sans-serif" font-size="13" lengthAdjust="spacing" textLength="181.3589" x="345.7363" y="983.1074">Publication success message</text><polygon fill="#181818" points="44.0566,1013.1602,34.0566,1017.1602,44.0566,1021.1602,40.0566,1017.1602" style="stroke:#181818;stroke-width:1.0;"/><line style="stroke:#181818;stroke-width:1.0;stroke-dasharray:2.0,2.0;" x1="38.0566" x2="301.585" y1="1017.1602" y2="1017.1602"/><text fill="#000000" font-family="sans-serif" font-size="13" font-weight="bold" lengthAdjust="spacing" textLength="17.1514" x="50.0566" y="1012.418">27</text><text fill="#000000" font-family="sans-serif" font-size="13" lengthAdjust="spacing" textLength="130.7046" x="71.208" y="1012.418">Display confirmation</text><!--SRC=[ZLHDJnin4BtlhnXn8K6Yj5LF5a9AeKX8LA2cuMwyayJghktQtbJvznr_P1ER4B6dyVgz-NWpu_ErzyQngolJSUM7lliaT7_byE-0Ik1bA_dAyhvflFGTmcB-xJE3v-6rasuDitQ3rak7FIhVD7pmcWilDzmZQ1NFQkXVqTATyDh2sMn5o3FW3XQEVXjET24DHOOp5YzV9FwBW61KW1ot27khbRUwwz16rgstNSMwrJrPstITx1AnZCbjsIyqsibWtgS_aPBjaaB9RwH0LgGoJpyZAziborA0ah8F6LdXM8jo28-WKlKJw9_Sc2nBCcCRKdkY_Cqvp3qQ-C8eihSIDmY3CabbR84VUdDDuC3bJUnCOD28E7-A482149h2mEOGHOvkmaFN7zff4r0HdNh4O8N-cBuJWYP8GEVsl4NlfIL2Hi7beV_GZaDNsV_51GDXaLIQ1CH1jB6KtFunvSoCIIpsUdpVnf7UbvXnWHBIOx2KgZr5e0uzQct0hwqULkjJOdS1TqzBXboS03P0NmWUonaJBwI3YNHptRMK7-ySJZ_6UP5ElifE-kt8GzL2o6jV-2ZXewJPqSlAoGz5xun4rupIfibbuFNTxwT0cXJbx0ZJ9W6h2DU5U_9mansFOtmq3mBkffU0OUuPt4b7J-IsbdstGryP2TEXyC1LYQ7K8JUZMg5t2DNUc2El7eb0EKwFg1G5sUxktuXIFTddy6Iyr8ftrFCb2ArQ6SxJkhizedUq5jAZbRpHniF3iggpmeIXURCWHuifJcdQ3ZQbk6NGS_jdvfvtqpr9-3BRSRySto1faJ0jZi_Vx0ChGM8ifUrvq2DECXNT79baDmY1pjM35JCKaRs3a4BEqMw_Drf5nFy0]--></g></svg>