<svg xmlns="http://www.w3.org/2000/svg" xmlns:xlink="http://www.w3.org/1999/xlink" contentStyleType="text/css" height="1112px" preserveAspectRatio="none" style="width:1619px;height:1112px;background:#FFFFFF;" version="1.1" viewBox="0 0 1619 1112" width="1619px" zoomAndPan="magnify"><defs/><g><rect fill="#FFFFFF" height="1017.0898" style="stroke:#181818;stroke-width:1.0;" width="10" x="45.1172" y="48.6211"/><rect fill="#FFFFFF" height="984.7988" style="stroke:#181818;stroke-width:1.0;" width="10" x="334.626" y="71.9121"/><rect fill="#FFFFFF" height="42.291" style="stroke:#181818;stroke-width:1.0;" width="10" x="339.626" y="198.4453"/><rect fill="#FFFFFF" height="31.291" style="stroke:#181818;stroke-width:1.0;" width="10" x="783.4717" y="855.9648"/><rect fill="#FFFFFF" height="31.291" style="stroke:#181818;stroke-width:1.0;" width="10" x="783.4717" y="918.5469"/><rect fill="#FFFFFF" height="746.3926" style="stroke:#181818;stroke-width:1.0;" width="10" x="983.3833" y="279.0273"/><rect fill="#FFFFFF" height="167.4551" style="stroke:#181818;stroke-width:1.0;" width="10" x="988.3833" y="819.6738"/><rect fill="#FFFFFF" height="426.4434" style="stroke:#181818;stroke-width:1.0;" width="10" x="1186.835" y="353.9395"/><rect fill="#FFFFFF" height="56.082" style="stroke:#181818;stroke-width:1.0;" width="10" x="1191.835" y="407.0215"/><rect fill="#FFFFFF" height="170.7852" style="stroke:#181818;stroke-width:1.0;" width="10" x="1315.9448" y="527.6855"/><rect fill="#FFFFFF" height="31.291" style="stroke:#181818;stroke-width:1.0;" width="10" x="1444.7661" y="628.8887"/><rect fill="none" height="221.3672" style="stroke:#000000;stroke-width:1.5;" width="382.4756" x="1123.8628" y="485.1035"/><rect fill="none" height="81.873" style="stroke:#000000;stroke-width:1.5;" width="234.8105" x="1261.5278" y="586.3066"/><line style="stroke:#181818;stroke-width:0.5;stroke-dasharray:5.0,5.0;" x1="50" x2="50" y1="38.6211" y2="1074.7109"/><line style="stroke:#181818;stroke-width:0.5;stroke-dasharray:5.0,5.0;" x1="338.7881" x2="338.7881" y1="38.6211" y2="1074.7109"/><line style="stroke:#181818;stroke-width:0.5;stroke-dasharray:5.0,5.0;" x1="642.293" x2="642.293" y1="111.7227" y2="1074.7109"/><line style="stroke:#181818;stroke-width:0.5;stroke-dasharray:5.0,5.0;" x1="788.1133" x2="788.1133" y1="155.3438" y2="1074.7109"/><line style="stroke:#181818;stroke-width:0.5;stroke-dasharray:5.0,5.0;" x1="987.894" x2="987.894" y1="38.6211" y2="1074.7109"/><line style="stroke:#181818;stroke-width:0.5;stroke-dasharray:5.0,5.0;" x1="1190.8628" x2="1190.8628" y1="318.8379" y2="1074.7109"/><line style="stroke:#181818;stroke-width:0.5;stroke-dasharray:5.0,5.0;" x1="1320.5278" x2="1320.5278" y1="38.6211" y2="1074.7109"/><line style="stroke:#181818;stroke-width:0.5;stroke-dasharray:5.0,5.0;" x1="1449.1938" x2="1449.1938" y1="567.4961" y2="1074.7109"/><line style="stroke:#181818;stroke-width:0.5;stroke-dasharray:5.0,5.0;" x1="1554.3384" x2="1554.3384" y1="745.2813" y2="1074.7109"/><rect fill="#E2E2F0" height="32.6211" rx="2.5" ry="2.5" style="stroke:#181818;stroke-width:0.5;" width="90.2344" x="5" y="5"/><text fill="#000000" font-family="sans-serif" font-size="14" lengthAdjust="spacing" textLength="76.2344" x="12" y="27.1074">:HTTPClient</text><rect fill="#E2E2F0" height="32.6211" rx="2.5" ry="2.5" style="stroke:#181818;stroke-width:0.5;" width="90.2344" x="5" y="1073.7109"/><text fill="#000000" font-family="sans-serif" font-size="14" lengthAdjust="spacing" textLength="76.2344" x="12" y="1095.8184">:HTTPClient</text><rect fill="#E2E2F0" height="32.6211" rx="2.5" ry="2.5" style="stroke:#181818;stroke-width:0.5;" width="95.6758" x="291.7881" y="5"/><text fill="#000000" font-family="sans-serif" font-size="14" lengthAdjust="spacing" textLength="81.6758" x="298.7881" y="27.1074">:HTTPServer</text><rect fill="#E2E2F0" height="32.6211" rx="2.5" ry="2.5" style="stroke:#181818;stroke-width:0.5;" width="95.6758" x="291.7881" y="1073.7109"/><text fill="#000000" font-family="sans-serif" font-size="14" lengthAdjust="spacing" textLength="81.6758" x="298.7881" y="1095.8184">:HTTPServer</text><rect fill="#E2E2F0" height="32.6211" rx="2.5" ry="2.5" style="stroke:#181818;stroke-width:0.5;" width="126.8203" x="579.293" y="1073.7109"/><text fill="#000000" font-family="sans-serif" font-size="14" lengthAdjust="spacing" textLength="112.8203" x="586.293" y="1095.8184">req:HTTPRequest</text><rect fill="#E2E2F0" height="32.6211" rx="2.5" ry="2.5" style="stroke:#181818;stroke-width:0.5;" width="144.7168" x="716.1133" y="1073.7109"/><text fill="#000000" font-family="sans-serif" font-size="14" lengthAdjust="spacing" textLength="130.7168" x="723.1133" y="1095.8184">resp:HTTPResponse</text><rect fill="#E2E2F0" height="32.6211" rx="2.5" ry="2.5" style="stroke:#181818;stroke-width:0.5;" width="150.9785" x="912.894" y="5"/><text fill="#000000" font-family="sans-serif" font-size="14" lengthAdjust="spacing" textLength="136.9785" x="919.894" y="27.1074">handler:RouteHandler</text><rect fill="#E2E2F0" height="32.6211" rx="2.5" ry="2.5" style="stroke:#181818;stroke-width:0.5;" width="150.9785" x="912.894" y="1073.7109"/><text fill="#000000" font-family="sans-serif" font-size="14" lengthAdjust="spacing" textLength="136.9785" x="919.894" y="1095.8184">handler:RouteHandler</text><rect fill="#E2E2F0" height="32.6211" rx="2.5" ry="2.5" style="stroke:#181818;stroke-width:0.5;" width="115.9443" x="1133.8628" y="1073.7109"/><text fill="#000000" font-family="sans-serif" font-size="14" lengthAdjust="spacing" textLength="101.9443" x="1140.8628" y="1095.8184">:{XXX}Controller</text><rect fill="#E2E2F0" height="32.6211" rx="2.5" ry="2.5" style="stroke:#181818;stroke-width:0.5;" width="98.834" x="1271.5278" y="5"/><text fill="#000000" font-family="sans-serif" font-size="14" lengthAdjust="spacing" textLength="84.834" x="1278.5278" y="27.1074">{XXX}Mapper</text><rect fill="#E2E2F0" height="32.6211" rx="2.5" ry="2.5" style="stroke:#181818;stroke-width:0.5;" width="98.834" x="1271.5278" y="1073.7109"/><text fill="#000000" font-family="sans-serif" font-size="14" lengthAdjust="spacing" textLength="84.834" x="1278.5278" y="1095.8184">{XXX}Mapper</text><rect fill="#E2E2F0" height="32.6211" rx="2.5" ry="2.5" style="stroke:#181818;stroke-width:0.5;" width="73.1445" x="1413.1938" y="1073.7109"/><text fill="#000000" font-family="sans-serif" font-size="14" lengthAdjust="spacing" textLength="59.1445" x="1420.1938" y="1095.8184">json:Json</text><rect fill="#E2E2F0" height="32.6211" rx="2.5" ry="2.5" style="stroke:#181818;stroke-width:0.5;" width="117.4824" x="1496.3384" y="1073.7109"/><text fill="#000000" font-family="sans-serif" font-size="14" lengthAdjust="spacing" textLength="103.4824" x="1503.3384" y="1095.8184">result:HttpResult</text><rect fill="#FFFFFF" height="1017.0898" style="stroke:#181818;stroke-width:1.0;" width="10" x="45.1172" y="48.6211"/><rect fill="#FFFFFF" height="984.7988" style="stroke:#181818;stroke-width:1.0;" width="10" x="334.626" y="71.9121"/><rect fill="#FFFFFF" height="42.291" style="stroke:#181818;stroke-width:1.0;" width="10" x="339.626" y="198.4453"/><rect fill="#FFFFFF" height="31.291" style="stroke:#181818;stroke-width:1.0;" width="10" x="783.4717" y="855.9648"/><rect fill="#FFFFFF" height="31.291" style="stroke:#181818;stroke-width:1.0;" width="10" x="783.4717" y="918.5469"/><rect fill="#FFFFFF" height="746.3926" style="stroke:#181818;stroke-width:1.0;" width="10" x="983.3833" y="279.0273"/><rect fill="#FFFFFF" height="167.4551" style="stroke:#181818;stroke-width:1.0;" width="10" x="988.3833" y="819.6738"/><rect fill="#FFFFFF" height="426.4434" style="stroke:#181818;stroke-width:1.0;" width="10" x="1186.835" y="353.9395"/><rect fill="#FFFFFF" height="56.082" style="stroke:#181818;stroke-width:1.0;" width="10" x="1191.835" y="407.0215"/><rect fill="#FFFFFF" height="170.7852" style="stroke:#181818;stroke-width:1.0;" width="10" x="1315.9448" y="527.6855"/><rect fill="#FFFFFF" height="31.291" style="stroke:#181818;stroke-width:1.0;" width="10" x="1444.7661" y="628.8887"/><polygon fill="#181818" points="322.626,67.9121,332.626,71.9121,322.626,75.9121,326.626,71.9121" style="stroke:#181818;stroke-width:1.0;"/><line style="stroke:#181818;stroke-width:1.0;" x1="55.1172" x2="328.626" y1="71.9121" y2="71.9121"/><text fill="#000000" font-family="sans-serif" font-size="13" font-weight="bold" lengthAdjust="spacing" textLength="7.23" x="62.1172" y="66.6494">1</text><text fill="#000000" font-family="sans-serif" font-size="13" lengthAdjust="spacing" textLength="249.2788" x="73.3472" y="66.6494">HTTP Request(method, uri, headers, body)</text><polygon fill="#181818" points="567.293,99.2031,577.293,103.2031,567.293,107.2031,571.293,103.2031" style="stroke:#181818;stroke-width:1.0;"/><line style="stroke:#181818;stroke-width:1.0;" x1="344.626" x2="573.293" y1="103.2031" y2="103.2031"/><text fill="#000000" font-family="sans-serif" font-size="13" font-weight="bold" lengthAdjust="spacing" textLength="7.23" x="351.626" y="97.9404">2</text><text fill="#000000" font-family="sans-serif" font-size="13" lengthAdjust="spacing" textLength="199.437" x="362.856" y="97.9404">create(method, uri, headers, body)</text><rect fill="#E2E2F0" height="32.6211" rx="2.5" ry="2.5" style="stroke:#181818;stroke-width:0.5;" width="126.8203" x="579.293" y="79.9121"/><text fill="#000000" font-family="sans-serif" font-size="14" lengthAdjust="spacing" textLength="112.8203" x="586.293" y="102.0195">req:HTTPRequest</text><polygon fill="#181818" points="704.1133,142.8242,714.1133,146.8242,704.1133,150.8242,708.1133,146.8242" style="stroke:#181818;stroke-width:1.0;"/><line style="stroke:#181818;stroke-width:1.0;" x1="344.626" x2="710.1133" y1="146.8242" y2="146.8242"/><text fill="#000000" font-family="sans-serif" font-size="13" font-weight="bold" lengthAdjust="spacing" textLength="7.23" x="351.626" y="141.5615">3</text><text fill="#000000" font-family="sans-serif" font-size="13" lengthAdjust="spacing" textLength="66.479" x="362.856" y="141.5615">create(404)</text><rect fill="#E2E2F0" height="32.6211" rx="2.5" ry="2.5" style="stroke:#181818;stroke-width:0.5;" width="144.7168" x="716.1133" y="123.5332"/><text fill="#000000" font-family="sans-serif" font-size="14" lengthAdjust="spacing" textLength="130.7168" x="723.1133" y="145.6406">resp:HTTPResponse</text><line style="stroke:#181818;stroke-width:1.0;" x1="344.626" x2="391.626" y1="185.4453" y2="185.4453"/><line style="stroke:#181818;stroke-width:1.0;" x1="391.626" x2="391.626" y1="185.4453" y2="198.4453"/><line style="stroke:#181818;stroke-width:1.0;" x1="350.626" x2="391.626" y1="198.4453" y2="198.4453"/><polygon fill="#181818" points="360.626,194.4453,350.626,198.4453,360.626,202.4453,356.626,198.4453" style="stroke:#181818;stroke-width:1.0;"/><text fill="#000000" font-family="sans-serif" font-size="13" font-weight="bold" lengthAdjust="spacing" textLength="7.23" x="356.626" y="180.1826">4</text><text fill="#000000" font-family="sans-serif" font-size="13" lengthAdjust="spacing" textLength="93.9326" x="367.856" y="180.1826">findHandler(req)</text><line style="stroke:#181818;stroke-width:1.0;stroke-dasharray:2.0,2.0;" x1="349.626" x2="391.626" y1="239.7363" y2="239.7363"/><line style="stroke:#181818;stroke-width:1.0;stroke-dasharray:2.0,2.0;" x1="391.626" x2="391.626" y1="239.7363" y2="252.7363"/><line style="stroke:#181818;stroke-width:1.0;stroke-dasharray:2.0,2.0;" x1="344.626" x2="391.626" y1="252.7363" y2="252.7363"/><polygon fill="#181818" points="354.626,248.7363,344.626,252.7363,354.626,256.7363,350.626,252.7363" style="stroke:#181818;stroke-width:1.0;"/><text fill="#000000" font-family="sans-serif" font-size="13" font-weight="bold" lengthAdjust="spacing" textLength="7.23" x="356.626" y="234.4736">5</text><text fill="#000000" font-family="sans-serif" font-size="13" lengthAdjust="spacing" textLength="43.3672" x="367.856" y="234.4736">handler</text><polygon fill="#181818" points="971.3833,275.0273,981.3833,279.0273,971.3833,283.0273,975.3833,279.0273" style="stroke:#181818;stroke-width:1.0;"/><line style="stroke:#181818;stroke-width:1.0;" x1="344.626" x2="977.3833" y1="279.0273" y2="279.0273"/><text fill="#000000" font-family="sans-serif" font-size="13" font-weight="bold" lengthAdjust="spacing" textLength="7.23" x="351.626" y="273.7646">6</text><text fill="#000000" font-family="sans-serif" font-size="13" lengthAdjust="spacing" textLength="75.1372" x="362.856" y="273.7646">run(req,resp)</text><polygon fill="#181818" points="1121.8628,306.3184,1131.8628,310.3184,1121.8628,314.3184,1125.8628,310.3184" style="stroke:#181818;stroke-width:1.0;"/><line style="stroke:#181818;stroke-width:1.0;" x1="993.3833" x2="1127.8628" y1="310.3184" y2="310.3184"/><text fill="#000000" font-family="sans-serif" font-size="13" font-weight="bold" lengthAdjust="spacing" textLength="7.23" x="1000.3833" y="305.0557">7</text><text fill="#000000" font-family="sans-serif" font-size="13" lengthAdjust="spacing" textLength="55.6245" x="1011.6133" y="305.0557">create(...)</text><rect fill="#E2E2F0" height="32.6211" rx="2.5" ry="2.5" style="stroke:#181818;stroke-width:0.5;" width="115.9443" x="1133.8628" y="287.0273"/><text fill="#000000" font-family="sans-serif" font-size="14" lengthAdjust="spacing" textLength="101.9443" x="1140.8628" y="309.1348">:{XXX}Controller</text><polygon fill="#181818" points="1174.835,349.9395,1184.835,353.9395,1174.835,357.9395,1178.835,353.9395" style="stroke:#181818;stroke-width:1.0;"/><line style="stroke:#181818;stroke-width:1.0;" x1="993.3833" x2="1180.835" y1="353.9395" y2="353.9395"/><text fill="#000000" font-family="sans-serif" font-size="13" font-weight="bold" lengthAdjust="spacing" textLength="7.23" x="1000.3833" y="348.6768">8</text><text fill="#000000" font-family="sans-serif" font-size="13" lengthAdjust="spacing" textLength="82.3608" x="1011.6133" y="348.6768">callMethod(...)</text><line style="stroke:#181818;stroke-width:1.0;" x1="1196.835" x2="1243.835" y1="394.0215" y2="394.0215"/><line style="stroke:#181818;stroke-width:1.0;" x1="1243.835" x2="1243.835" y1="394.0215" y2="407.0215"/><line style="stroke:#181818;stroke-width:1.0;" x1="1202.835" x2="1243.835" y1="407.0215" y2="407.0215"/><polygon fill="#181818" points="1212.835,403.0215,1202.835,407.0215,1212.835,411.0215,1208.835,407.0215" style="stroke:#181818;stroke-width:1.0;"/><text fill="#000000" font-family="sans-serif" font-size="13" font-weight="bold" lengthAdjust="spacing" textLength="7.23" x="1208.835" y="388.7588">9</text><text fill="#000000" font-family="sans-serif" font-size="13" lengthAdjust="spacing" textLength="83.8145" x="1220.0649" y="388.7588">doSomeStuff()</text><path d="M1325.0444,366.9395 L1325.0444,427.9395 L1529.0444,427.9395 L1529.0444,376.9395 L1519.0444,366.9395 L1325.0444,366.9395 " fill="#FEFFDD" style="stroke:#181818;stroke-width:0.5;"/><path d="M1519.0444,366.9395 L1519.0444,376.9395 L1529.0444,376.9395 L1519.0444,366.9395 " fill="#FEFFDD" style="stroke:#181818;stroke-width:0.5;"/><text fill="#000000" font-family="sans-serif" font-size="13" lengthAdjust="spacing" textLength="177.0234" x="1331.0444" y="385.9678">some interactions with Person,</text><text fill="#000000" font-family="sans-serif" font-size="13" lengthAdjust="spacing" textLength="138.7598" x="1331.0444" y="403.2588">{XXX}Service and so on</text><text fill="#000000" font-family="sans-serif" font-size="13" lengthAdjust="spacing" textLength="183.7964" x="1331.0444" y="420.5498">Similar to any other Controller. "</text><line style="stroke:#181818;stroke-width:1.0;stroke-dasharray:2.0,2.0;" x1="1201.835" x2="1243.835" y1="462.1035" y2="462.1035"/><line style="stroke:#181818;stroke-width:1.0;stroke-dasharray:2.0,2.0;" x1="1243.835" x2="1243.835" y1="462.1035" y2="475.1035"/><line style="stroke:#181818;stroke-width:1.0;stroke-dasharray:2.0,2.0;" x1="1196.835" x2="1243.835" y1="475.1035" y2="475.1035"/><polygon fill="#181818" points="1206.835,471.1035,1196.835,475.1035,1206.835,479.1035,1202.835,475.1035" style="stroke:#181818;stroke-width:1.0;"/><text fill="#000000" font-family="sans-serif" font-size="13" font-weight="bold" lengthAdjust="spacing" textLength="14.46" x="1208.835" y="456.8408">10</text><text fill="#000000" font-family="sans-serif" font-size="13" lengthAdjust="spacing" textLength="34.6899" x="1227.2949" y="456.8408">object</text><path d="M1288.1499,442.3125 L1288.1499,469.3125 L1524.1499,469.3125 L1524.1499,452.3125 L1514.1499,442.3125 L1288.1499,442.3125 " fill="#FEFFDD" style="stroke:#181818;stroke-width:0.5;"/><path d="M1514.1499,442.3125 L1514.1499,452.3125 L1524.1499,452.3125 L1514.1499,442.3125 " fill="#FEFFDD" style="stroke:#181818;stroke-width:0.5;"/><text fill="#000000" font-family="sans-serif" font-size="13" lengthAdjust="spacing" textLength="215.2363" x="1294.1499" y="461.3408">'object' is some domain object or void</text><path d="M1123.8628,485.1035 L1189.0737,485.1035 L1189.0737,494.3945 L1179.0737,504.3945 L1123.8628,504.3945 L1123.8628,485.1035 " fill="#EEEEEE" style="stroke:#000000;stroke-width:1.5;"/><rect fill="none" height="221.3672" style="stroke:#000000;stroke-width:1.5;" width="382.4756" x="1123.8628" y="485.1035"/><text fill="#000000" font-family="sans-serif" font-size="13" font-weight="bold" lengthAdjust="spacing" textLength="20.2109" x="1138.8628" y="500.1318">opt</text><polygon fill="#181818" points="1303.9448,523.6855,1313.9448,527.6855,1303.9448,531.6855,1307.9448,527.6855" style="stroke:#181818;stroke-width:1.0;"/><line style="stroke:#181818;stroke-width:1.0;" x1="1196.835" x2="1309.9448" y1="527.6855" y2="527.6855"/><text fill="#000000" font-family="sans-serif" font-size="13" font-weight="bold" lengthAdjust="spacing" textLength="14.46" x="1203.835" y="522.4229">11</text><text fill="#000000" font-family="sans-serif" font-size="13" lengthAdjust="spacing" textLength="81.6499" x="1222.2949" y="522.4229">toJson(object)</text><polygon fill="#181818" points="1401.1938,554.9766,1411.1938,558.9766,1401.1938,562.9766,1405.1938,558.9766" style="stroke:#181818;stroke-width:1.0;"/><line style="stroke:#181818;stroke-width:1.0;" x1="1325.9448" x2="1407.1938" y1="558.9766" y2="558.9766"/><text fill="#000000" font-family="sans-serif" font-size="13" font-weight="bold" lengthAdjust="spacing" textLength="14.46" x="1332.9448" y="553.7139">12</text><text fill="#000000" font-family="sans-serif" font-size="13" lengthAdjust="spacing" textLength="44.7891" x="1351.4048" y="553.7139">create()</text><rect fill="#E2E2F0" height="32.6211" rx="2.5" ry="2.5" style="stroke:#181818;stroke-width:0.5;" width="73.1445" x="1413.1938" y="535.6855"/><text fill="#000000" font-family="sans-serif" font-size="14" lengthAdjust="spacing" textLength="59.1445" x="1420.1938" y="557.793">json:Json</text><path d="M1261.5278,586.3066 L1333.9624,586.3066 L1333.9624,595.5977 L1323.9624,605.5977 L1261.5278,605.5977 L1261.5278,586.3066 " fill="#EEEEEE" style="stroke:#000000;stroke-width:1.5;"/><rect fill="none" height="81.873" style="stroke:#000000;stroke-width:1.5;" width="234.8105" x="1261.5278" y="586.3066"/><text fill="#000000" font-family="sans-serif" font-size="13" font-weight="bold" lengthAdjust="spacing" textLength="27.4346" x="1276.5278" y="601.335">loop</text><polygon fill="#181818" points="1432.7661,624.8887,1442.7661,628.8887,1432.7661,632.8887,1436.7661,628.8887" style="stroke:#181818;stroke-width:1.0;"/><line style="stroke:#181818;stroke-width:1.0;" x1="1325.9448" x2="1438.7661" y1="628.8887" y2="628.8887"/><text fill="#000000" font-family="sans-serif" font-size="13" font-weight="bold" lengthAdjust="spacing" textLength="14.46" x="1332.9448" y="623.626">13</text><text fill="#000000" font-family="sans-serif" font-size="13" lengthAdjust="spacing" textLength="71.5317" x="1351.4048" y="623.626">set{XXX}(...)</text><polygon fill="#181818" points="1336.9448,656.1797,1326.9448,660.1797,1336.9448,664.1797,1332.9448,660.1797" style="stroke:#181818;stroke-width:1.0;"/><line style="stroke:#181818;stroke-width:1.0;stroke-dasharray:2.0,2.0;" x1="1330.9448" x2="1448.7661" y1="660.1797" y2="660.1797"/><text fill="#000000" font-family="sans-serif" font-size="13" font-weight="bold" lengthAdjust="spacing" textLength="14.46" x="1342.9448" y="654.917">14</text><text fill="#000000" font-family="sans-serif" font-size="13" lengthAdjust="spacing" textLength="3.6118" x="1361.4048" y="654.917">&#160;</text><polygon fill="#181818" points="1207.835,694.4707,1197.835,698.4707,1207.835,702.4707,1203.835,698.4707" style="stroke:#181818;stroke-width:1.0;"/><line style="stroke:#181818;stroke-width:1.0;stroke-dasharray:2.0,2.0;" x1="1201.835" x2="1319.9448" y1="698.4707" y2="698.4707"/><text fill="#000000" font-family="sans-serif" font-size="13" font-weight="bold" lengthAdjust="spacing" textLength="14.46" x="1213.835" y="693.208">15</text><text fill="#000000" font-family="sans-serif" font-size="13" lengthAdjust="spacing" textLength="23.8481" x="1232.2949" y="693.208">json</text><polygon fill="#181818" points="1484.3384,732.7617,1494.3384,736.7617,1484.3384,740.7617,1488.3384,736.7617" style="stroke:#181818;stroke-width:1.0;"/><line style="stroke:#181818;stroke-width:1.0;stroke-dasharray:2.0,2.0;" x1="1196.835" x2="1490.3384" y1="736.7617" y2="736.7617"/><text fill="#000000" font-family="sans-serif" font-size="13" font-weight="bold" lengthAdjust="spacing" textLength="14.46" x="1203.835" y="731.499">16</text><text fill="#000000" font-family="sans-serif" font-size="13" lengthAdjust="spacing" textLength="106.9326" x="1222.2949" y="731.499">create(status,json)</text><rect fill="#E2E2F0" height="32.6211" rx="2.5" ry="2.5" style="stroke:#181818;stroke-width:0.5;" width="117.4824" x="1496.3384" y="713.4707"/><text fill="#000000" font-family="sans-serif" font-size="14" lengthAdjust="spacing" textLength="103.4824" x="1503.3384" y="735.5781">result:HttpResult</text><polygon fill="#181818" points="1004.3833,776.3828,994.3833,780.3828,1004.3833,784.3828,1000.3833,780.3828" style="stroke:#181818;stroke-width:1.0;"/><line style="stroke:#181818;stroke-width:1.0;stroke-dasharray:2.0,2.0;" x1="998.3833" x2="1190.835" y1="780.3828" y2="780.3828"/><text fill="#000000" font-family="sans-serif" font-size="13" font-weight="bold" lengthAdjust="spacing" textLength="14.46" x="1010.3833" y="775.1201">17</text><text fill="#000000" font-family="sans-serif" font-size="13" lengthAdjust="spacing" textLength="31.7891" x="1028.8433" y="775.1201">result</text><line style="stroke:#181818;stroke-width:1.0;" x1="993.3833" x2="1040.3833" y1="806.6738" y2="806.6738"/><line style="stroke:#181818;stroke-width:1.0;" x1="1040.3833" x2="1040.3833" y1="806.6738" y2="819.6738"/><line style="stroke:#181818;stroke-width:1.0;" x1="999.3833" x2="1040.3833" y1="819.6738" y2="819.6738"/><polygon fill="#181818" points="1009.3833,815.6738,999.3833,819.6738,1009.3833,823.6738,1005.3833,819.6738" style="stroke:#181818;stroke-width:1.0;"/><text fill="#000000" font-family="sans-serif" font-size="13" font-weight="bold" lengthAdjust="spacing" textLength="14.46" x="1005.3833" y="801.4111">18</text><text fill="#000000" font-family="sans-serif" font-size="13" lengthAdjust="spacing" textLength="150.9917" x="1023.8433" y="801.4111">setHttpResult(resp, result)</text><polygon fill="#181818" points="804.4717,851.9648,794.4717,855.9648,804.4717,859.9648,800.4717,855.9648" style="stroke:#181818;stroke-width:1.0;"/><line style="stroke:#181818;stroke-width:1.0;" x1="798.4717" x2="987.3833" y1="855.9648" y2="855.9648"/><text fill="#000000" font-family="sans-serif" font-size="13" font-weight="bold" lengthAdjust="spacing" textLength="14.46" x="810.4717" y="850.7021">19</text><text fill="#000000" font-family="sans-serif" font-size="13" lengthAdjust="spacing" textLength="132.939" x="828.9316" y="850.7021">setStatus(result.status)</text><polygon fill="#181818" points="976.3833,883.2559,986.3833,887.2559,976.3833,891.2559,980.3833,887.2559" style="stroke:#181818;stroke-width:1.0;"/><line style="stroke:#181818;stroke-width:1.0;stroke-dasharray:2.0,2.0;" x1="788.4717" x2="982.3833" y1="887.2559" y2="887.2559"/><text fill="#000000" font-family="sans-serif" font-size="13" font-weight="bold" lengthAdjust="spacing" textLength="14.46" x="795.4717" y="881.9932">20</text><text fill="#000000" font-family="sans-serif" font-size="13" lengthAdjust="spacing" textLength="3.6118" x="813.9316" y="881.9932">&#160;</text><polygon fill="#181818" points="804.4717,914.5469,794.4717,918.5469,804.4717,922.5469,800.4717,918.5469" style="stroke:#181818;stroke-width:1.0;"/><line style="stroke:#181818;stroke-width:1.0;" x1="798.4717" x2="987.3833" y1="918.5469" y2="918.5469"/><text fill="#000000" font-family="sans-serif" font-size="13" font-weight="bold" lengthAdjust="spacing" textLength="14.46" x="810.4717" y="913.2842">21</text><text fill="#000000" font-family="sans-serif" font-size="13" lengthAdjust="spacing" textLength="152.4517" x="828.9316" y="913.2842">setBody(result.jsonObject)</text><polygon fill="#181818" points="976.3833,945.8379,986.3833,949.8379,976.3833,953.8379,980.3833,949.8379" style="stroke:#181818;stroke-width:1.0;"/><line style="stroke:#181818;stroke-width:1.0;stroke-dasharray:2.0,2.0;" x1="788.4717" x2="982.3833" y1="949.8379" y2="949.8379"/><text fill="#000000" font-family="sans-serif" font-size="13" font-weight="bold" lengthAdjust="spacing" textLength="14.46" x="795.4717" y="944.5752">22</text><text fill="#000000" font-family="sans-serif" font-size="13" lengthAdjust="spacing" textLength="3.6118" x="813.9316" y="944.5752">&#160;</text><line style="stroke:#181818;stroke-width:1.0;stroke-dasharray:2.0,2.0;" x1="998.3833" x2="1040.3833" y1="986.1289" y2="986.1289"/><line style="stroke:#181818;stroke-width:1.0;stroke-dasharray:2.0,2.0;" x1="1040.3833" x2="1040.3833" y1="986.1289" y2="999.1289"/><line style="stroke:#181818;stroke-width:1.0;stroke-dasharray:2.0,2.0;" x1="993.3833" x2="1040.3833" y1="999.1289" y2="999.1289"/><polygon fill="#181818" points="1003.3833,995.1289,993.3833,999.1289,1003.3833,1003.1289,999.3833,999.1289" style="stroke:#181818;stroke-width:1.0;"/><text fill="#000000" font-family="sans-serif" font-size="13" font-weight="bold" lengthAdjust="spacing" textLength="14.46" x="1005.3833" y="980.8662">23</text><text fill="#000000" font-family="sans-serif" font-size="13" lengthAdjust="spacing" textLength="3.6118" x="1023.8433" y="980.8662">&#160;</text><polygon fill="#181818" points="355.626,1021.4199,345.626,1025.4199,355.626,1029.4199,351.626,1025.4199" style="stroke:#181818;stroke-width:1.0;"/><line style="stroke:#181818;stroke-width:1.0;stroke-dasharray:2.0,2.0;" x1="349.626" x2="987.3833" y1="1025.4199" y2="1025.4199"/><text fill="#000000" font-family="sans-serif" font-size="13" font-weight="bold" lengthAdjust="spacing" textLength="14.46" x="361.626" y="1020.1572">24</text><text fill="#000000" font-family="sans-serif" font-size="13" lengthAdjust="spacing" textLength="25.2891" x="380.0859" y="1020.1572">resp</text><polygon fill="#181818" points="66.1172,1052.7109,56.1172,1056.7109,66.1172,1060.7109,62.1172,1056.7109" style="stroke:#181818;stroke-width:1.0;"/><line style="stroke:#181818;stroke-width:1.0;stroke-dasharray:2.0,2.0;" x1="60.1172" x2="338.626" y1="1056.7109" y2="1056.7109"/><text fill="#000000" font-family="sans-serif" font-size="13" font-weight="bold" lengthAdjust="spacing" textLength="14.46" x="72.1172" y="1051.4482">25</text><text fill="#000000" font-family="sans-serif" font-size="13" lengthAdjust="spacing" textLength="25.2891" x="90.5771" y="1051.4482">resp</text><!--SRC=[bPGxRzim481t_Wh2YwL0aJjaqj2XNem2GGCxWuSkj4H732HI8KykWgB_lKSUPJtY5kqYa7VV7U-fTGtGkMApwHgXeM-Rl3JjnictNkfItbTAl5ZHCYPwCA84TH4WkT7Xhlls92rZdR2WIjMX0xugTi_FJzj6IGqhBXmVhpUuWxGNQQySNUUSbMy1tVkGtEWptfUmwoBjEgETdE0acFErq5KZRR4tFSWTNSY4pekGVnwFnrzRey6QPY2tO9iv5gX7qNMHeEESUNL65r_n4mX_-918tq2nm-Rimp5mTCHc38sO59UDPtx_ULBE8fnvh5VIIgXDbV7UgepNKbJIkeoVJFMUij5eS16jxkuANbg9J_wtFPLzuk3XqyCjSWZsh7GLgvzWx-VeWetjMtgBJUMsrzv5vgSYnGAHt2E-QPEGyZnFbsfKYgPv3DaImBnuL5VcO5fvWFvyJbAc3RR3gfSQ2kvGpfK6QNsZC7t-Gq7Ddx1IHcVykmuJuWDMfUJuB5hWJg7Ye5hL2Cl1eFYT6wWne77WShwAGLoZCATNMSBi-JN9rbmv2gKohL0wejnOVZ6gOgQ3QqOqeWM-wqSn8J9b9FQ05qyAbhB6c6wXnyGbXDIeNbuM8etUcSHCPtRNBFmw1FKO5Efet2VFEX3GkypJwOYD_QRrc3JogiB8nbrA_41a4PyrVZgomUWGNam8pUbz6ia1cuNmLrzVS4S6Jpw5Rx7A_-3jZyB9ClYaRYqB_HD8_ni0]--></g></svg>