<svg xmlns="http://www.w3.org/2000/svg" xmlns:xlink="http://www.w3.org/1999/xlink" contentStyleType="text/css" height="919px" preserveAspectRatio="none" style="width:1684px;height:919px;background:#FFFFFF;" version="1.1" viewBox="0 0 1684 919" width="1684px" zoomAndPan="magnify"><defs/><g><rect fill="#FFFFFF" height="823.9355" style="stroke:#181818;stroke-width:1.0;" width="10" x="45.1172" y="48.6211"/><rect fill="#FFFFFF" height="791.6445" style="stroke:#181818;stroke-width:1.0;" width="10" x="193.7144" y="71.9121"/><rect fill="#FFFFFF" height="42.291" style="stroke:#181818;stroke-width:1.0;" width="10" x="198.7144" y="782.9746"/><rect fill="#FFFFFF" height="585.8984" style="stroke:#181818;stroke-width:1.0;" width="10" x="507.7949" y="157.7852"/><rect fill="#FFFFFF" height="137.4941" style="stroke:#181818;stroke-width:1.0;" width="10" x="701.1938" y="189.0762"/><rect fill="#FFFFFF" height="79.873" style="stroke:#181818;stroke-width:1.0;" width="10" x="911.4316" y="375.1523"/><rect fill="#FFFFFF" height="182.4551" style="stroke:#181818;stroke-width:1.0;" width="10" x="911.4316" y="486.3164"/><rect fill="#FFFFFF" height="42.291" style="stroke:#181818;stroke-width:1.0;" width="10" x="916.4316" y="525.6074"/><rect fill="#FFFFFF" height="31.291" style="stroke:#181818;stroke-width:1.0;" width="10" x="1107.3794" y="220.3672"/><rect fill="#FFFFFF" height="31.291" style="stroke:#181818;stroke-width:1.0;" width="10" x="1305.2822" y="606.1895"/><line style="stroke:#181818;stroke-width:0.5;stroke-dasharray:5.0,5.0;" x1="50" x2="50" y1="38.6211" y2="881.5566"/><line style="stroke:#181818;stroke-width:0.5;stroke-dasharray:5.0,5.0;" x1="198.2251" x2="198.2251" y1="38.6211" y2="881.5566"/><line style="stroke:#181818;stroke-width:0.5;stroke-dasharray:5.0,5.0;" x1="512.7642" x2="512.7642" y1="38.6211" y2="881.5566"/><line style="stroke:#181818;stroke-width:0.5;stroke-dasharray:5.0,5.0;" x1="705.2905" x2="705.2905" y1="38.6211" y2="881.5566"/><line style="stroke:#181818;stroke-width:0.5;stroke-dasharray:5.0,5.0;" x1="916.2319" x2="916.2319" y1="291.4688" y2="881.5566"/><line style="stroke:#181818;stroke-width:0.5;stroke-dasharray:5.0,5.0;" x1="1111.6313" x2="1111.6313" y1="38.6211" y2="881.5566"/><line style="stroke:#181818;stroke-width:0.5;stroke-dasharray:5.0,5.0;" x1="1310.1274" x2="1310.1274" y1="38.6211" y2="881.5566"/><line style="stroke:#181818;stroke-width:0.5;stroke-dasharray:5.0,5.0;" x1="1485.437" x2="1485.437" y1="417.4434" y2="881.5566"/><line style="stroke:#181818;stroke-width:0.5;stroke-dasharray:5.0,5.0;" x1="1619.3813" x2="1619.3813" y1="708.582" y2="881.5566"/><rect fill="#E2E2F0" height="32.6211" rx="2.5" ry="2.5" style="stroke:#181818;stroke-width:0.5;" width="90.2344" x="5" y="5"/><text fill="#000000" font-family="sans-serif" font-size="14" lengthAdjust="spacing" textLength="76.2344" x="12" y="27.1074">:HTTPClient</text><rect fill="#E2E2F0" height="32.6211" rx="2.5" ry="2.5" style="stroke:#181818;stroke-width:0.5;" width="90.2344" x="5" y="880.5566"/><text fill="#000000" font-family="sans-serif" font-size="14" lengthAdjust="spacing" textLength="76.2344" x="12" y="902.6641">:HTTPClient</text><rect fill="#E2E2F0" height="32.6211" rx="2.5" ry="2.5" style="stroke:#181818;stroke-width:0.5;" width="150.9785" x="123.2251" y="5"/><text fill="#000000" font-family="sans-serif" font-size="14" lengthAdjust="spacing" textLength="136.9785" x="130.2251" y="27.1074">handler:RouteHandler</text><rect fill="#E2E2F0" height="32.6211" rx="2.5" ry="2.5" style="stroke:#181818;stroke-width:0.5;" width="150.9785" x="123.2251" y="880.5566"/><text fill="#000000" font-family="sans-serif" font-size="14" lengthAdjust="spacing" textLength="136.9785" x="130.2251" y="902.6641">handler:RouteHandler</text><rect fill="#E2E2F0" height="32.6211" rx="2.5" ry="2.5" style="stroke:#181818;stroke-width:0.5;" width="168.0615" x="428.7642" y="5"/><text fill="#000000" font-family="sans-serif" font-size="14" lengthAdjust="spacing" textLength="154.0615" x="435.7642" y="27.1074">:AdvertisementController</text><rect fill="#E2E2F0" height="32.6211" rx="2.5" ry="2.5" style="stroke:#181818;stroke-width:0.5;" width="168.0615" x="428.7642" y="880.5566"/><text fill="#000000" font-family="sans-serif" font-size="14" lengthAdjust="spacing" textLength="154.0615" x="435.7642" y="902.6641">:AdvertisementController</text><rect fill="#E2E2F0" height="32.6211" rx="2.5" ry="2.5" style="stroke:#181818;stroke-width:0.5;" width="77.8066" x="667.2905" y="5"/><text fill="#000000" font-family="sans-serif" font-size="14" lengthAdjust="spacing" textLength="63.8066" x="674.2905" y="27.1074">:Company</text><rect fill="#E2E2F0" height="32.6211" rx="2.5" ry="2.5" style="stroke:#181818;stroke-width:0.5;" width="77.8066" x="667.2905" y="880.5566"/><text fill="#000000" font-family="sans-serif" font-size="14" lengthAdjust="spacing" textLength="63.8066" x="674.2905" y="902.6641">:Company</text><rect fill="#E2E2F0" height="32.6211" rx="2.5" ry="2.5" style="stroke:#181818;stroke-width:0.5;" width="198.3994" x="817.2319" y="880.5566"/><text fill="#000000" font-family="sans-serif" font-size="14" lengthAdjust="spacing" textLength="184.3994" x="824.2319" y="902.6641">service:AdvertisementService</text><rect fill="#E2E2F0" height="32.6211" rx="2.5" ry="2.5" style="stroke:#181818;stroke-width:0.5;" width="173.4961" x="1025.6313" y="5"/><text fill="#000000" font-family="sans-serif" font-size="14" lengthAdjust="spacing" textLength="159.4961" x="1032.6313" y="27.1074">factory:RepositoryFactory</text><rect fill="#E2E2F0" height="32.6211" rx="2.5" ry="2.5" style="stroke:#181818;stroke-width:0.5;" width="173.4961" x="1025.6313" y="880.5566"/><text fill="#000000" font-family="sans-serif" font-size="14" lengthAdjust="spacing" textLength="159.4961" x="1032.6313" y="902.6641">factory:RepositoryFactory</text><rect fill="#E2E2F0" height="32.6211" rx="2.5" ry="2.5" style="stroke:#181818;stroke-width:0.5;" width="202.3096" x="1209.1274" y="5"/><text fill="#000000" font-family="sans-serif" font-size="14" lengthAdjust="spacing" textLength="188.3096" x="1216.1274" y="27.1074">repo:AdvertisementRepository</text><rect fill="#E2E2F0" height="32.6211" rx="2.5" ry="2.5" style="stroke:#181818;stroke-width:0.5;" width="202.3096" x="1209.1274" y="880.5566"/><text fill="#000000" font-family="sans-serif" font-size="14" lengthAdjust="spacing" textLength="188.3096" x="1216.1274" y="902.6641">repo:AdvertisementRepository</text><rect fill="#E2E2F0" height="32.6211" rx="2.5" ry="2.5" style="stroke:#181818;stroke-width:0.5;" width="129.9443" x="1421.437" y="880.5566"/><text fill="#000000" font-family="sans-serif" font-size="14" lengthAdjust="spacing" textLength="115.9443" x="1428.437" y="902.6641">adv:Advertisement</text><rect fill="#E2E2F0" height="32.6211" rx="2.5" ry="2.5" style="stroke:#181818;stroke-width:0.5;" width="117.4824" x="1561.3813" y="880.5566"/><text fill="#000000" font-family="sans-serif" font-size="14" lengthAdjust="spacing" textLength="103.4824" x="1568.3813" y="902.6641">result:HttpResult</text><rect fill="#FFFFFF" height="823.9355" style="stroke:#181818;stroke-width:1.0;" width="10" x="45.1172" y="48.6211"/><rect fill="#FFFFFF" height="791.6445" style="stroke:#181818;stroke-width:1.0;" width="10" x="193.7144" y="71.9121"/><rect fill="#FFFFFF" height="42.291" style="stroke:#181818;stroke-width:1.0;" width="10" x="198.7144" y="782.9746"/><rect fill="#FFFFFF" height="585.8984" style="stroke:#181818;stroke-width:1.0;" width="10" x="507.7949" y="157.7852"/><rect fill="#FFFFFF" height="137.4941" style="stroke:#181818;stroke-width:1.0;" width="10" x="701.1938" y="189.0762"/><rect fill="#FFFFFF" height="79.873" style="stroke:#181818;stroke-width:1.0;" width="10" x="911.4316" y="375.1523"/><rect fill="#FFFFFF" height="182.4551" style="stroke:#181818;stroke-width:1.0;" width="10" x="911.4316" y="486.3164"/><rect fill="#FFFFFF" height="42.291" style="stroke:#181818;stroke-width:1.0;" width="10" x="916.4316" y="525.6074"/><rect fill="#FFFFFF" height="31.291" style="stroke:#181818;stroke-width:1.0;" width="10" x="1107.3794" y="220.3672"/><rect fill="#FFFFFF" height="31.291" style="stroke:#181818;stroke-width:1.0;" width="10" x="1305.2822" y="606.1895"/><polygon fill="#181818" points="181.7144,67.9121,191.7144,71.9121,181.7144,75.9121,185.7144,71.9121" style="stroke:#181818;stroke-width:1.0;"/><line style="stroke:#181818;stroke-width:1.0;" x1="55.1172" x2="187.7144" y1="71.9121" y2="71.9121"/><text fill="#000000" font-family="sans-serif" font-size="13" font-weight="bold" lengthAdjust="spacing" textLength="7.23" x="62.1172" y="66.6494">1</text><text fill="#000000" font-family="sans-serif" font-size="13" lengthAdjust="spacing" textLength="108.3672" x="73.3472" y="66.6494">POST/stores(data)</text><path d="M125,84.9121 L125,111.9121 L271,111.9121 L271,94.9121 L261,84.9121 L125,84.9121 " fill="#FEFFDD" style="stroke:#181818;stroke-width:0.5;"/><path d="M261,84.9121 L261,94.9121 L271,94.9121 L261,84.9121 " fill="#FEFFDD" style="stroke:#181818;stroke-width:0.5;"/><text fill="#000000" font-family="sans-serif" font-size="13" lengthAdjust="spacing" textLength="125.0107" x="131" y="103.9404">after doing some stuff</text><polygon fill="#181818" points="495.7949,153.7852,505.7949,157.7852,495.7949,161.7852,499.7949,157.7852" style="stroke:#181818;stroke-width:1.0;"/><line style="stroke:#181818;stroke-width:1.0;" x1="203.7144" x2="501.7949" y1="157.7852" y2="157.7852"/><text fill="#000000" font-family="sans-serif" font-size="13" font-weight="bold" lengthAdjust="spacing" textLength="7.23" x="210.7144" y="143.877">2</text><text fill="#000000" font-family="sans-serif" font-size="13" lengthAdjust="spacing" textLength="273.8506" x="221.9443" y="135.2314">postAdvertisement(typeProperty, typeBusiness,</text><text fill="#000000" font-family="sans-serif" font-size="13" lengthAdjust="spacing" textLength="164.7471" x="225.5562" y="152.5225">price, property, client, agent)</text><polygon fill="#181818" points="689.1938,185.0762,699.1938,189.0762,689.1938,193.0762,693.1938,189.0762" style="stroke:#181818;stroke-width:1.0;"/><line style="stroke:#181818;stroke-width:1.0;" x1="517.7949" x2="695.1938" y1="189.0762" y2="189.0762"/><text fill="#000000" font-family="sans-serif" font-size="13" font-weight="bold" lengthAdjust="spacing" textLength="7.23" x="524.7949" y="183.8135">3</text><text fill="#000000" font-family="sans-serif" font-size="13" lengthAdjust="spacing" textLength="153.1689" x="536.0249" y="183.8135">getAdvertisementService()</text><polygon fill="#181818" points="1095.3794,216.3672,1105.3794,220.3672,1095.3794,224.3672,1099.3794,220.3672" style="stroke:#181818;stroke-width:1.0;"/><line style="stroke:#181818;stroke-width:1.0;" x1="711.1938" x2="1101.3794" y1="220.3672" y2="220.3672"/><text fill="#000000" font-family="sans-serif" font-size="13" font-weight="bold" lengthAdjust="spacing" textLength="7.23" x="718.1938" y="215.1045">4</text><text fill="#000000" font-family="sans-serif" font-size="13" lengthAdjust="spacing" textLength="171.958" x="729.4238" y="215.1045">getAdvertisementRepository()</text><polygon fill="#181818" points="722.1938,247.6582,712.1938,251.6582,722.1938,255.6582,718.1938,251.6582" style="stroke:#181818;stroke-width:1.0;"/><line style="stroke:#181818;stroke-width:1.0;stroke-dasharray:2.0,2.0;" x1="716.1938" x2="1111.3794" y1="251.6582" y2="251.6582"/><text fill="#000000" font-family="sans-serif" font-size="13" font-weight="bold" lengthAdjust="spacing" textLength="7.23" x="728.1938" y="246.3955">5</text><text fill="#000000" font-family="sans-serif" font-size="13" lengthAdjust="spacing" textLength="26.019" x="739.4238" y="246.3955">repo</text><polygon fill="#181818" points="805.2319,278.9492,815.2319,282.9492,805.2319,286.9492,809.2319,282.9492" style="stroke:#181818;stroke-width:1.0;"/><line style="stroke:#181818;stroke-width:1.0;stroke-dasharray:2.0,2.0;" x1="711.1938" x2="811.2319" y1="282.9492" y2="282.9492"/><text fill="#000000" font-family="sans-serif" font-size="13" font-weight="bold" lengthAdjust="spacing" textLength="7.23" x="718.1938" y="277.6865">6</text><text fill="#000000" font-family="sans-serif" font-size="13" lengthAdjust="spacing" textLength="70.8081" x="729.4238" y="277.6865">create(repo)</text><rect fill="#E2E2F0" height="32.6211" rx="2.5" ry="2.5" style="stroke:#181818;stroke-width:0.5;" width="198.3994" x="817.2319" y="259.6582"/><text fill="#000000" font-family="sans-serif" font-size="14" lengthAdjust="spacing" textLength="184.3994" x="824.2319" y="281.7656">service:AdvertisementService</text><polygon fill="#181818" points="528.7949,322.5703,518.7949,326.5703,528.7949,330.5703,524.7949,326.5703" style="stroke:#181818;stroke-width:1.0;"/><line style="stroke:#181818;stroke-width:1.0;stroke-dasharray:2.0,2.0;" x1="522.7949" x2="705.1938" y1="326.5703" y2="326.5703"/><text fill="#000000" font-family="sans-serif" font-size="13" font-weight="bold" lengthAdjust="spacing" textLength="7.23" x="534.7949" y="321.3076">7</text><text fill="#000000" font-family="sans-serif" font-size="13" lengthAdjust="spacing" textLength="41.1772" x="546.0249" y="321.3076">service</text><polygon fill="#181818" points="899.4316,371.1523,909.4316,375.1523,899.4316,379.1523,903.4316,375.1523" style="stroke:#181818;stroke-width:1.0;"/><line style="stroke:#181818;stroke-width:1.0;" x1="517.7949" x2="905.4316" y1="375.1523" y2="375.1523"/><text fill="#000000" font-family="sans-serif" font-size="13" font-weight="bold" lengthAdjust="spacing" textLength="7.23" x="524.7949" y="361.2441">8</text><text fill="#000000" font-family="sans-serif" font-size="13" lengthAdjust="spacing" textLength="202.3188" x="536.0249" y="352.5986">create(typeProperty, typeBusiness,</text><text fill="#000000" font-family="sans-serif" font-size="13" lengthAdjust="spacing" textLength="164.7471" x="539.6367" y="369.8896">price, property, client, agent)</text><polygon fill="#181818" points="1409.437,419.7344,1419.437,423.7344,1409.437,427.7344,1413.437,423.7344" style="stroke:#181818;stroke-width:1.0;"/><line style="stroke:#181818;stroke-width:1.0;stroke-dasharray:2.0,2.0;" x1="921.4316" x2="1415.437" y1="423.7344" y2="423.7344"/><text fill="#000000" font-family="sans-serif" font-size="13" font-weight="bold" lengthAdjust="spacing" textLength="7.23" x="928.4316" y="409.8262">9</text><text fill="#000000" font-family="sans-serif" font-size="13" lengthAdjust="spacing" textLength="202.3188" x="939.6616" y="401.1807">create(typeProperty, typeBusiness,</text><text fill="#000000" font-family="sans-serif" font-size="13" lengthAdjust="spacing" textLength="164.7471" x="943.2734" y="418.4717">price, property, client, agent)</text><rect fill="#E2E2F0" height="32.6211" rx="2.5" ry="2.5" style="stroke:#181818;stroke-width:0.5;" width="129.9443" x="1421.437" y="388.1133"/><text fill="#000000" font-family="sans-serif" font-size="14" lengthAdjust="spacing" textLength="115.9443" x="1428.437" y="410.2207">adv:Advertisement</text><polygon fill="#181818" points="528.7949,451.0254,518.7949,455.0254,528.7949,459.0254,524.7949,455.0254" style="stroke:#181818;stroke-width:1.0;"/><line style="stroke:#181818;stroke-width:1.0;stroke-dasharray:2.0,2.0;" x1="522.7949" x2="915.4316" y1="455.0254" y2="455.0254"/><text fill="#000000" font-family="sans-serif" font-size="13" font-weight="bold" lengthAdjust="spacing" textLength="14.46" x="534.7949" y="449.7627">10</text><text fill="#000000" font-family="sans-serif" font-size="13" lengthAdjust="spacing" textLength="20.96" x="553.2549" y="449.7627">adv</text><polygon fill="#181818" points="899.4316,482.3164,909.4316,486.3164,899.4316,490.3164,903.4316,486.3164" style="stroke:#181818;stroke-width:1.0;"/><line style="stroke:#181818;stroke-width:1.0;" x1="517.7949" x2="905.4316" y1="486.3164" y2="486.3164"/><text fill="#000000" font-family="sans-serif" font-size="13" font-weight="bold" lengthAdjust="spacing" textLength="14.46" x="524.7949" y="481.0537">11</text><text fill="#000000" font-family="sans-serif" font-size="13" lengthAdjust="spacing" textLength="107.6689" x="543.2549" y="481.0537">addOrUpdate(adv)</text><line style="stroke:#181818;stroke-width:1.0;" x1="921.4316" x2="968.4316" y1="512.6074" y2="512.6074"/><line style="stroke:#181818;stroke-width:1.0;" x1="968.4316" x2="968.4316" y1="512.6074" y2="525.6074"/><line style="stroke:#181818;stroke-width:1.0;" x1="927.4316" x2="968.4316" y1="525.6074" y2="525.6074"/><polygon fill="#181818" points="937.4316,521.6074,927.4316,525.6074,937.4316,529.6074,933.4316,525.6074" style="stroke:#181818;stroke-width:1.0;"/><text fill="#000000" font-family="sans-serif" font-size="13" font-weight="bold" lengthAdjust="spacing" textLength="14.46" x="933.4316" y="507.3447">12</text><text fill="#000000" font-family="sans-serif" font-size="13" lengthAdjust="spacing" textLength="74.4263" x="951.8916" y="507.3447">validate(adv)</text><line style="stroke:#181818;stroke-width:1.0;stroke-dasharray:2.0,2.0;" x1="926.4316" x2="968.4316" y1="566.8984" y2="566.8984"/><line style="stroke:#181818;stroke-width:1.0;stroke-dasharray:2.0,2.0;" x1="968.4316" x2="968.4316" y1="566.8984" y2="579.8984"/><line style="stroke:#181818;stroke-width:1.0;stroke-dasharray:2.0,2.0;" x1="921.4316" x2="968.4316" y1="579.8984" y2="579.8984"/><polygon fill="#181818" points="931.4316,575.8984,921.4316,579.8984,931.4316,583.8984,927.4316,579.8984" style="stroke:#181818;stroke-width:1.0;"/><text fill="#000000" font-family="sans-serif" font-size="13" font-weight="bold" lengthAdjust="spacing" textLength="14.46" x="933.4316" y="561.6357">13</text><text fill="#000000" font-family="sans-serif" font-size="13" lengthAdjust="spacing" textLength="13.73" x="951.8916" y="561.6357">ok</text><polygon fill="#181818" points="1293.2822,602.1895,1303.2822,606.1895,1293.2822,610.1895,1297.2822,606.1895" style="stroke:#181818;stroke-width:1.0;"/><line style="stroke:#181818;stroke-width:1.0;" x1="921.4316" x2="1299.2822" y1="606.1895" y2="606.1895"/><text fill="#000000" font-family="sans-serif" font-size="13" font-weight="bold" lengthAdjust="spacing" textLength="14.46" x="928.4316" y="600.9268">14</text><text fill="#000000" font-family="sans-serif" font-size="13" lengthAdjust="spacing" textLength="57.0781" x="946.8916" y="600.9268">save(adv)</text><polygon fill="#181818" points="932.4316,633.4805,922.4316,637.4805,932.4316,641.4805,928.4316,637.4805" style="stroke:#181818;stroke-width:1.0;"/><line style="stroke:#181818;stroke-width:1.0;stroke-dasharray:2.0,2.0;" x1="926.4316" x2="1309.2822" y1="637.4805" y2="637.4805"/><text fill="#000000" font-family="sans-serif" font-size="13" font-weight="bold" lengthAdjust="spacing" textLength="14.46" x="938.4316" y="632.2178">15</text><text fill="#000000" font-family="sans-serif" font-size="13" lengthAdjust="spacing" textLength="13.73" x="956.8916" y="632.2178">ok</text><polygon fill="#181818" points="528.7949,664.7715,518.7949,668.7715,528.7949,672.7715,524.7949,668.7715" style="stroke:#181818;stroke-width:1.0;"/><line style="stroke:#181818;stroke-width:1.0;stroke-dasharray:2.0,2.0;" x1="522.7949" x2="915.4316" y1="668.7715" y2="668.7715"/><text fill="#000000" font-family="sans-serif" font-size="13" font-weight="bold" lengthAdjust="spacing" textLength="14.46" x="534.7949" y="663.5088">16</text><text fill="#000000" font-family="sans-serif" font-size="13" lengthAdjust="spacing" textLength="13.73" x="553.2549" y="663.5088">ok</text><polygon fill="#181818" points="1549.3813,696.0625,1559.3813,700.0625,1549.3813,704.0625,1553.3813,700.0625" style="stroke:#181818;stroke-width:1.0;"/><line style="stroke:#181818;stroke-width:1.0;stroke-dasharray:2.0,2.0;" x1="517.7949" x2="1555.3813" y1="700.0625" y2="700.0625"/><text fill="#000000" font-family="sans-serif" font-size="13" font-weight="bold" lengthAdjust="spacing" textLength="14.46" x="524.7949" y="694.7998">17</text><text fill="#000000" font-family="sans-serif" font-size="13" lengthAdjust="spacing" textLength="66.479" x="543.2549" y="694.7998">create(201)</text><rect fill="#E2E2F0" height="32.6211" rx="2.5" ry="2.5" style="stroke:#181818;stroke-width:0.5;" width="117.4824" x="1561.3813" y="676.7715"/><text fill="#000000" font-family="sans-serif" font-size="14" lengthAdjust="spacing" textLength="103.4824" x="1568.3813" y="698.8789">result:HttpResult</text><polygon fill="#181818" points="214.7144,739.6836,204.7144,743.6836,214.7144,747.6836,210.7144,743.6836" style="stroke:#181818;stroke-width:1.0;"/><line style="stroke:#181818;stroke-width:1.0;stroke-dasharray:2.0,2.0;" x1="208.7144" x2="511.7949" y1="743.6836" y2="743.6836"/><text fill="#000000" font-family="sans-serif" font-size="13" font-weight="bold" lengthAdjust="spacing" textLength="14.46" x="220.7144" y="738.4209">18</text><text fill="#000000" font-family="sans-serif" font-size="13" lengthAdjust="spacing" textLength="31.7891" x="239.1743" y="738.4209">result</text><line style="stroke:#181818;stroke-width:1.0;" x1="203.7144" x2="250.7144" y1="769.9746" y2="769.9746"/><line style="stroke:#181818;stroke-width:1.0;" x1="250.7144" x2="250.7144" y1="769.9746" y2="782.9746"/><line style="stroke:#181818;stroke-width:1.0;" x1="209.7144" x2="250.7144" y1="782.9746" y2="782.9746"/><polygon fill="#181818" points="219.7144,778.9746,209.7144,782.9746,219.7144,786.9746,215.7144,782.9746" style="stroke:#181818;stroke-width:1.0;"/><text fill="#000000" font-family="sans-serif" font-size="13" font-weight="bold" lengthAdjust="spacing" textLength="14.46" x="215.7144" y="764.7119">19</text><text fill="#000000" font-family="sans-serif" font-size="13" lengthAdjust="spacing" textLength="150.9917" x="234.1743" y="764.7119">setHttpResult(resp, result)</text><line style="stroke:#181818;stroke-width:1.0;stroke-dasharray:2.0,2.0;" x1="208.7144" x2="250.7144" y1="824.2656" y2="824.2656"/><line style="stroke:#181818;stroke-width:1.0;stroke-dasharray:2.0,2.0;" x1="250.7144" x2="250.7144" y1="824.2656" y2="837.2656"/><line style="stroke:#181818;stroke-width:1.0;stroke-dasharray:2.0,2.0;" x1="203.7144" x2="250.7144" y1="837.2656" y2="837.2656"/><polygon fill="#181818" points="213.7144,833.2656,203.7144,837.2656,213.7144,841.2656,209.7144,837.2656" style="stroke:#181818;stroke-width:1.0;"/><text fill="#000000" font-family="sans-serif" font-size="13" font-weight="bold" lengthAdjust="spacing" textLength="14.46" x="215.7144" y="819.0029">20</text><text fill="#000000" font-family="sans-serif" font-size="13" lengthAdjust="spacing" textLength="3.6118" x="234.1743" y="819.0029">&#160;</text><polygon fill="#181818" points="66.1172,859.5566,56.1172,863.5566,66.1172,867.5566,62.1172,863.5566" style="stroke:#181818;stroke-width:1.0;"/><line style="stroke:#181818;stroke-width:1.0;stroke-dasharray:2.0,2.0;" x1="60.1172" x2="197.7144" y1="863.5566" y2="863.5566"/><text fill="#000000" font-family="sans-serif" font-size="13" font-weight="bold" lengthAdjust="spacing" textLength="14.46" x="72.1172" y="858.2939">21</text><text fill="#000000" font-family="sans-serif" font-size="13" lengthAdjust="spacing" textLength="25.2891" x="90.5771" y="858.2939">resp</text><!--SRC=[hLCzZzim3DtrAuHR6X-SfkteuO0sG97jWYJTkgWsanDgIwf46_2_B_NX3-KEjxIJIUczHugF_l22Q5orsvbMAEoxzcEjkvs3Fpse6hQD53ShEiP4ZrhKA0U1mBKAkUgxNs0PCyAYhAKX0VvG7IwNuxwLeF212yUNDCUz2DMqOAkJxX4ECGc4y-WGkZlHhyq0b3leI6Yl5LhTJeGzslOEljSTHMEyZd6ES607MKEkUuw7iOiOvwmhJK3RiJg1qKxwy7iy2PGKvnHBqBpAGWuid-OKqGmv8pP43BZNTdsBrO4SF8Km2VgG79lSMZd0bfXldzAeAtvyFbzspXTmcqQWA1XJsljCJSmWSKNA6YtLZJlT0NVONw-CnNilvuseEBqEi_OtE1euMcteQ2ovpxxrJYfmhlofkB4qvv8-4w0E_PLStEXJCAyQrAEF5Ry1lcNRXg0Huj793FuQlioV61DikoxWFLkqja-fmEDZnMiBDDADHnHhI7fxMgkvvyISUVysYQGMweLrM7Nq_vJZIsW9Nxz2DCsp_M4QNv00AzuCee4FefLlG3AC_htcUajeU69879-_GvYRfCFOOz3mQx-Qo9TFdulbUjhY-C-ibdQwS83BZqG6ErCcS36Z5_ZwQFcdWhnXx2y0]--></g></svg>