<svg xmlns="http://www.w3.org/2000/svg" xmlns:xlink="http://www.w3.org/1999/xlink" contentStyleType="text/css" height="1150px" preserveAspectRatio="none" style="width:2562px;height:1150px;background:#FFFFFF;" version="1.1" viewBox="0 0 2562 1150" width="2562px" zoomAndPan="magnify"><defs/><g><!--class Client--><g id="elem_Client"><rect codeLine="5" fill="#F1F1F1" height="44.6211" id="Client" rx="2.5" ry="2.5" style="stroke:#181818;stroke-width:0.5;" width="41.793" x="1083" y="367.5"/><text fill="#000000" font-family="sans-serif" font-size="14" lengthAdjust="spacing" textLength="35.793" x="1086" y="387.6074">Client</text><line style="stroke:#181818;stroke-width:0.5;" x1="1084" x2="1123.793" y1="396.1211" y2="396.1211"/><line style="stroke:#181818;stroke-width:0.5;" x1="1084" x2="1123.793" y1="404.1211" y2="404.1211"/></g><!--class ListPropertyView--><g id="elem_ListPropertyView"><rect codeLine="8" fill="#F1F1F1" height="44.6211" id="ListPropertyView" rx="2.5" ry="2.5" style="stroke:#181818;stroke-width:0.5;" width="111.041" x="1201.5" y="7"/><text fill="#000000" font-family="sans-serif" font-size="14" lengthAdjust="spacing" textLength="105.041" x="1204.5" y="27.1074">ListPropertyView</text><line style="stroke:#181818;stroke-width:0.5;" x1="1202.5" x2="1311.541" y1="35.6211" y2="35.6211"/><line style="stroke:#181818;stroke-width:0.5;" x1="1202.5" x2="1311.541" y1="43.6211" y2="43.6211"/></g><!--class ListPropertyController--><g id="elem_ListPropertyController"><rect codeLine="11" fill="#F1F1F1" height="174.9688" id="ListPropertyController" rx="2.5" ry="2.5" style="stroke:#181818;stroke-width:0.5;" width="386.6709" x="1063.5" y="113"/><text fill="#000000" font-family="sans-serif" font-size="14" lengthAdjust="spacing" textLength="135.3857" x="1189.1426" y="133.1074">ListPropertyController</text><line style="stroke:#181818;stroke-width:0.5;" x1="1064.5" x2="1449.1709" y1="141.6211" y2="141.6211"/><line style="stroke:#181818;stroke-width:0.5;" x1="1064.5" x2="1449.1709" y1="149.6211" y2="149.6211"/><text fill="#000000" font-family="sans-serif" font-size="14" lengthAdjust="spacing" textLength="201.9473" x="1069.5" y="168.7285">+getClientByCode(internalCode)</text><text fill="#000000" font-family="sans-serif" font-size="14" lengthAdjust="spacing" textLength="197.2578" x="1069.5" y="187.3496">+createLand(dto: PropertyDTO)</text><text fill="#000000" font-family="sans-serif" font-size="14" lengthAdjust="spacing" textLength="243.1543" x="1069.5" y="205.9707">+createApartment(dto: ResidencyDTO)</text><text fill="#000000" font-family="sans-serif" font-size="14" lengthAdjust="spacing" textLength="194.1406" x="1069.5" y="224.5918">+createHouse(dto: HouseDTO)</text><text fill="#000000" font-family="sans-serif" font-size="14" lengthAdjust="spacing" textLength="120.2305" x="1069.5" y="243.2129">+getAgentService()</text><text fill="#000000" font-family="sans-serif" font-size="14" lengthAdjust="spacing" textLength="173.127" x="1069.5" y="261.834">+getAdvertisementService()</text><text fill="#000000" font-family="sans-serif" font-size="14" lengthAdjust="spacing" textLength="374.6709" x="1069.5" y="280.4551">+saveAdvertisementData(typeProperty, typeBusiness, price)</text></g><!--class House--><g id="elem_House"><rect codeLine="22" fill="#F1F1F1" height="119.1055" id="House" rx="2.5" ry="2.5" style="stroke:#181818;stroke-width:0.5;" width="1358.2832" x="7" y="977.5"/><text fill="#000000" font-family="sans-serif" font-size="14" lengthAdjust="spacing" textLength="40.4688" x="665.9072" y="997.6074">House</text><line style="stroke:#181818;stroke-width:0.5;" x1="8" x2="1364.2832" y1="1006.1211" y2="1006.1211"/><text fill="#000000" font-family="sans-serif" font-size="14" lengthAdjust="spacing" textLength="184.4473" x="13" y="1025.2285">-existenceBasement: boolean</text><text fill="#000000" font-family="sans-serif" font-size="14" lengthAdjust="spacing" textLength="150.2129" x="13" y="1043.8496">-habittableAttic: boolean</text><text fill="#000000" font-family="sans-serif" font-size="14" lengthAdjust="spacing" textLength="143.9854" x="13" y="1062.4707">-sunExposure: boolean</text><line style="stroke:#181818;stroke-width:0.5;" x1="8" x2="1364.2832" y1="1069.9844" y2="1069.9844"/><text fill="#000000" font-family="sans-serif" font-size="14" lengthAdjust="spacing" textLength="1346.2832" x="13" y="1089.0918">House(area: string, location: string, distance: string, price: float, photograph: string, bedrooms: int, bathrooms: int, parkingSpaces: int, availableEquipment: string, basement: boolean, attic: boolean, sunExposure: string)</text></g><!--class PropertyMapper--><g id="elem_PropertyMapper"><rect codeLine="29" fill="#F1F1F1" height="63.2422" id="PropertyMapper" rx="2.5" ry="2.5" style="stroke:#181818;stroke-width:0.5;" width="249.6992" x="798" y="358.5"/><text fill="#000000" font-family="sans-serif" font-size="14" lengthAdjust="spacing" textLength="100.3789" x="872.6602" y="378.6074">PropertyMapper</text><line style="stroke:#181818;stroke-width:0.5;" x1="799" x2="1046.6992" y1="387.1211" y2="387.1211"/><line style="stroke:#181818;stroke-width:0.5;" x1="799" x2="1046.6992" y1="395.1211" y2="395.1211"/><text fill="#000000" font-family="sans-serif" font-size="14" lengthAdjust="spacing" textLength="237.6992" x="804" y="414.2285">+toModel(dto: PropertyDTO): Property</text></g><!--class ResidencyMapper--><g id="elem_ResidencyMapper"><rect codeLine="33" fill="#F1F1F1" height="63.2422" id="ResidencyMapper" rx="2.5" ry="2.5" style="stroke:#181818;stroke-width:0.5;" width="274.6094" x="616.5" y="461"/><text fill="#000000" font-family="sans-serif" font-size="14" lengthAdjust="spacing" textLength="112.834" x="697.3877" y="481.1074">ResidencyMapper</text><line style="stroke:#181818;stroke-width:0.5;" x1="617.5" x2="890.1094" y1="489.6211" y2="489.6211"/><line style="stroke:#181818;stroke-width:0.5;" x1="617.5" x2="890.1094" y1="497.6211" y2="497.6211"/><text fill="#000000" font-family="sans-serif" font-size="14" lengthAdjust="spacing" textLength="262.6094" x="622.5" y="516.7285">+toModel(dto: ResidencyDTO): Residency</text></g><!--class HouseMapper--><g id="elem_HouseMapper"><rect codeLine="37" fill="#F1F1F1" height="63.2422" id="HouseMapper" rx="2.5" ry="2.5" style="stroke:#181818;stroke-width:0.5;" width="224.8164" x="1051.5" y="461"/><text fill="#000000" font-family="sans-serif" font-size="14" lengthAdjust="spacing" textLength="87.9375" x="1119.9395" y="481.1074">HouseMapper</text><line style="stroke:#181818;stroke-width:0.5;" x1="1052.5" x2="1275.3164" y1="489.6211" y2="489.6211"/><line style="stroke:#181818;stroke-width:0.5;" x1="1052.5" x2="1275.3164" y1="497.6211" y2="497.6211"/><text fill="#000000" font-family="sans-serif" font-size="14" lengthAdjust="spacing" textLength="212.8164" x="1057.5" y="516.7285">+toModel(dto: HouseDTO): House</text></g><!--class AgentService--><g id="elem_AgentService"><rect codeLine="41" fill="#F1F1F1" height="81.8633" id="AgentService" rx="2.5" ry="2.5" style="stroke:#181818;stroke-width:0.5;" width="124.458" x="1191" y="563"/><text fill="#000000" font-family="sans-serif" font-size="14" lengthAdjust="spacing" textLength="83.2686" x="1211.5947" y="583.1074">AgentService</text><line style="stroke:#181818;stroke-width:0.5;" x1="1192" x2="1314.458" y1="591.6211" y2="591.6211"/><line style="stroke:#181818;stroke-width:0.5;" x1="1192" x2="1314.458" y1="599.6211" y2="599.6211"/><text fill="#000000" font-family="sans-serif" font-size="14" lengthAdjust="spacing" textLength="52.5205" x="1197" y="618.7285">+getAll()</text><text fill="#000000" font-family="sans-serif" font-size="14" lengthAdjust="spacing" textLength="112.458" x="1197" y="637.3496">+getAgentById(id)</text></g><!--class AdvertisementService--><g id="elem_AdvertisementService"><rect codeLine="46" fill="#F1F1F1" height="100.4844" id="AdvertisementService" rx="2.5" ry="2.5" style="stroke:#181818;stroke-width:0.5;" width="539.1738" x="2016.5" y="554"/><text fill="#000000" font-family="sans-serif" font-size="14" lengthAdjust="spacing" textLength="136.165" x="2218.0044" y="574.1074">AdvertisementService</text><line style="stroke:#181818;stroke-width:0.5;" x1="2017.5" x2="2554.6738" y1="582.6211" y2="582.6211"/><line style="stroke:#181818;stroke-width:0.5;" x1="2017.5" x2="2554.6738" y1="590.6211" y2="590.6211"/><text fill="#000000" font-family="sans-serif" font-size="14" lengthAdjust="spacing" textLength="527.1738" x="2022.5" y="609.7285">+createAdv(typeProperty: string, typeBusiness: string, price: float, property: Property)</text><text fill="#000000" font-family="sans-serif" font-size="14" lengthAdjust="spacing" textLength="166.9063" x="2022.5" y="628.3496">+save(adv: Advertisement)</text><text fill="#000000" font-family="sans-serif" font-size="14" lengthAdjust="spacing" textLength="185.5889" x="2022.5" y="646.9707">+validate(adv: Advertisement)</text></g><!--class Advertisement--><g id="elem_Advertisement"><rect codeLine="52" fill="#F1F1F1" height="212.2109" id="Advertisement" rx="2.5" ry="2.5" style="stroke:#181818;stroke-width:0.5;" width="728.6592" x="1400.5" y="931"/><text fill="#000000" font-family="sans-serif" font-size="14" lengthAdjust="spacing" textLength="89.4824" x="1720.0884" y="951.1074">Advertisement</text><line style="stroke:#181818;stroke-width:0.5;" x1="1401.5" x2="2128.1592" y1="959.6211" y2="959.6211"/><text fill="#000000" font-family="sans-serif" font-size="14" lengthAdjust="spacing" textLength="126.0479" x="1406.5" y="978.7285">-typeProperty: string</text><text fill="#000000" font-family="sans-serif" font-size="14" lengthAdjust="spacing" textLength="129.9443" x="1406.5" y="997.3496">-typeBusiness: string</text><text fill="#000000" font-family="sans-serif" font-size="14" lengthAdjust="spacing" textLength="65.3584" x="1406.5" y="1015.9707">-price:float</text><text fill="#000000" font-family="sans-serif" font-size="14" lengthAdjust="spacing" textLength="112.8203" x="1406.5" y="1034.5918">-property:Property</text><text fill="#000000" font-family="sans-serif" font-size="14" lengthAdjust="spacing" textLength="77.0273" x="1406.5" y="1053.2129">-client:Client</text><text fill="#000000" font-family="sans-serif" font-size="14" lengthAdjust="spacing" textLength="80.1719" x="1406.5" y="1071.834">-agent:Agent</text><text fill="#000000" font-family="sans-serif" font-size="14" lengthAdjust="spacing" textLength="77.041" x="1406.5" y="1090.4551">-isSold: bool</text><text fill="#000000" font-family="sans-serif" font-size="14" lengthAdjust="spacing" textLength="101.1445" x="1406.5" y="1109.0762">-comission: float</text><line style="stroke:#181818;stroke-width:0.5;" x1="1401.5" x2="2128.1592" y1="1116.5898" y2="1116.5898"/><text fill="#000000" font-family="sans-serif" font-size="14" lengthAdjust="spacing" textLength="716.6592" x="1406.5" y="1135.6973">Advertisement(typeProperty: string, typeBusiness: string, price: float, property: Property, client: Client, agent: Agent)</text></g><!--class AgentRepository--><g id="elem_AgentRepository"><rect codeLine="64" fill="#F1F1F1" height="97.8242" id="AgentRepository" rx="2.5" ry="2.5" style="stroke:#181818;stroke-width:0.5;" width="168.8232" x="1281.5" y="743.5"/><text fill="#000000" font-family="sans-serif" font-size="12" font-style="italic" lengthAdjust="spacing" textLength="59.373" x="1336.2251" y="761.4492">&#171;interface&#187;</text><text fill="#000000" font-family="sans-serif" font-size="14" font-style="italic" lengthAdjust="spacing" textLength="103.5029" x="1314.1602" y="779.5684">AgentRepository</text><line style="stroke:#181818;stroke-width:0.5;" x1="1282.5" x2="1449.3232" y1="788.082" y2="788.082"/><line style="stroke:#181818;stroke-width:0.5;" x1="1282.5" x2="1449.3232" y1="796.082" y2="796.082"/><text fill="#000000" font-family="sans-serif" font-size="14" lengthAdjust="spacing" textLength="135.0234" x="1287.5" y="815.1895">+getAll(): List&lt;Agent&gt;</text><text fill="#000000" font-family="sans-serif" font-size="14" lengthAdjust="spacing" textLength="156.8232" x="1287.5" y="833.8105">+getAgentById(id): Agent</text></g><!--class AdvertisementRepository--><g id="elem_AdvertisementRepository"><rect codeLine="69" fill="#F1F1F1" height="79.2031" id="AdvertisementRepository" rx="2.5" ry="2.5" style="stroke:#181818;stroke-width:0.5;" width="178.9063" x="1485.5" y="753"/><text fill="#000000" font-family="sans-serif" font-size="12" font-style="italic" lengthAdjust="spacing" textLength="59.373" x="1545.2666" y="770.9492">&#171;interface&#187;</text><text fill="#000000" font-family="sans-serif" font-size="14" font-style="italic" lengthAdjust="spacing" textLength="156.3994" x="1496.7534" y="789.0684">AdvertisementRepository</text><line style="stroke:#181818;stroke-width:0.5;" x1="1486.5" x2="1663.4063" y1="797.582" y2="797.582"/><line style="stroke:#181818;stroke-width:0.5;" x1="1486.5" x2="1663.4063" y1="805.582" y2="805.582"/><text fill="#000000" font-family="sans-serif" font-size="14" lengthAdjust="spacing" textLength="166.9063" x="1491.5" y="824.6895">+save(adv: Advertisement)</text></g><!--class RepositoryFactory--><g id="elem_RepositoryFactory"><rect codeLine="73" fill="#F1F1F1" height="97.8242" id="RepositoryFactory" rx="2.5" ry="2.5" style="stroke:#181818;stroke-width:0.5;" width="369.54" x="1350" y="555"/><text fill="#000000" font-family="sans-serif" font-size="12" font-style="italic" lengthAdjust="spacing" textLength="59.373" x="1505.0835" y="572.9492">&#171;interface&#187;</text><text fill="#000000" font-family="sans-serif" font-size="14" font-style="italic" lengthAdjust="spacing" textLength="113.5928" x="1477.9736" y="591.0684">RepositoryFactory</text><line style="stroke:#181818;stroke-width:0.5;" x1="1351" x2="1718.54" y1="599.582" y2="599.582"/><line style="stroke:#181818;stroke-width:0.5;" x1="1351" x2="1718.54" y1="607.582" y2="607.582"/><text fill="#000000" font-family="sans-serif" font-size="14" lengthAdjust="spacing" textLength="251.7471" x="1356" y="626.6895">+getAgentRepository(): AgentRepository</text><text fill="#000000" font-family="sans-serif" font-size="14" lengthAdjust="spacing" textLength="357.54" x="1356" y="645.3105">+getAdvertisementRepository(): AdvertisementRepository</text></g><!--class Company--><g id="elem_Company"><rect codeLine="78" fill="#F1F1F1" height="81.8633" id="Company" rx="2.5" ry="2.5" style="stroke:#181818;stroke-width:0.5;" width="329.0713" x="1361.5" y="349"/><text fill="#000000" font-family="sans-serif" font-size="14" lengthAdjust="spacing" textLength="59.917" x="1496.0771" y="369.1074">Company</text><line style="stroke:#181818;stroke-width:0.5;" x1="1362.5" x2="1689.5713" y1="377.6211" y2="377.6211"/><line style="stroke:#181818;stroke-width:0.5;" x1="1362.5" x2="1689.5713" y1="385.6211" y2="385.6211"/><text fill="#000000" font-family="sans-serif" font-size="14" lengthAdjust="spacing" textLength="211.2783" x="1367.5" y="404.7285">+getAgentService(): AgentService</text><text fill="#000000" font-family="sans-serif" font-size="14" lengthAdjust="spacing" textLength="317.0713" x="1367.5" y="423.3496">+getAdvertisementService(): AdvertisementService</text></g><!--class Agent--><g id="elem_Agent"><rect codeLine="84" fill="#F1F1F1" height="100.4844" id="Agent" rx="2.5" ry="2.5" style="stroke:#181818;stroke-width:0.5;" width="130.6787" x="1699.5" y="742.5"/><text fill="#000000" font-family="sans-serif" font-size="14" lengthAdjust="spacing" textLength="36.5859" x="1746.5464" y="762.6074">Agent</text><line style="stroke:#181818;stroke-width:0.5;" x1="1700.5" x2="1829.1787" y1="771.1211" y2="771.1211"/><text fill="#000000" font-family="sans-serif" font-size="14" lengthAdjust="spacing" textLength="41.6377" x="1705.5" y="790.2285">+id: int</text><text fill="#000000" font-family="sans-serif" font-size="14" lengthAdjust="spacing" textLength="85.21" x="1705.5" y="808.8496">+name: string</text><text fill="#000000" font-family="sans-serif" font-size="14" lengthAdjust="spacing" textLength="118.6787" x="1705.5" y="827.4707">+contactInfo: string</text><line style="stroke:#181818;stroke-width:0.5;" x1="1700.5" x2="1829.1787" y1="834.9844" y2="834.9844"/></g><!--class AgentMapper--><g id="elem_AgentMapper"><rect codeLine="90" fill="#F1F1F1" height="63.2422" id="AgentMapper" rx="2.5" ry="2.5" style="stroke:#181818;stroke-width:0.5;" width="257.5059" x="1797" y="358.5"/><text fill="#000000" font-family="sans-serif" font-size="14" lengthAdjust="spacing" textLength="84.0547" x="1883.7256" y="378.6074">AgentMapper</text><line style="stroke:#181818;stroke-width:0.5;" x1="1798" x2="2053.5059" y1="387.1211" y2="387.1211"/><line style="stroke:#181818;stroke-width:0.5;" x1="1798" x2="2053.5059" y1="395.1211" y2="395.1211"/><text fill="#000000" font-family="sans-serif" font-size="14" lengthAdjust="spacing" textLength="245.5059" x="1803" y="414.2285">+toDTO(List&lt;Agent&gt;): List&lt;AgentDTO&gt;</text></g><!--class Property--><g id="elem_Property"><rect codeLine="94" fill="#F1F1F1" height="100.4844" id="Property" rx="2.5" ry="2.5" style="stroke:#181818;stroke-width:0.5;" width="110.8271" x="859.5" y="554"/><text fill="#000000" font-family="sans-serif" font-size="14" lengthAdjust="spacing" textLength="52.9102" x="888.4585" y="574.1074">Property</text><line style="stroke:#181818;stroke-width:0.5;" x1="860.5" x2="969.3271" y1="582.6211" y2="582.6211"/><text fill="#000000" font-family="sans-serif" font-size="14" lengthAdjust="spacing" textLength="32.6826" x="865.5" y="601.7285">-area</text><text fill="#000000" font-family="sans-serif" font-size="14" lengthAdjust="spacing" textLength="52.917" x="865.5" y="620.3496">-location</text><text fill="#000000" font-family="sans-serif" font-size="14" lengthAdjust="spacing" textLength="98.8271" x="865.5" y="638.9707">-distanceCenter</text><line style="stroke:#181818;stroke-width:0.5;" x1="860.5" x2="969.3271" y1="646.4844" y2="646.4844"/></g><!--class Residency--><g id="elem_Residency"><rect codeLine="100" fill="#F1F1F1" height="119.1055" id="Residency" rx="2.5" ry="2.5" style="stroke:#181818;stroke-width:0.5;" width="138.8545" x="684.5" y="733"/><text fill="#000000" font-family="sans-serif" font-size="14" lengthAdjust="spacing" textLength="65.3652" x="721.2446" y="753.1074">Residency</text><line style="stroke:#181818;stroke-width:0.5;" x1="685.5" x2="822.3545" y1="761.6211" y2="761.6211"/><text fill="#000000" font-family="sans-serif" font-size="14" lengthAdjust="spacing" textLength="115.9375" x="690.5" y="780.7285">-numberBedrooms</text><text fill="#000000" font-family="sans-serif" font-size="14" lengthAdjust="spacing" textLength="119.8271" x="690.5" y="799.3496">-numberBathrooms</text><text fill="#000000" font-family="sans-serif" font-size="14" lengthAdjust="spacing" textLength="97.2754" x="690.5" y="817.9707">-parkingSpaces</text><text fill="#000000" font-family="sans-serif" font-size="14" lengthAdjust="spacing" textLength="126.8545" x="690.5" y="836.5918">-availableEquipment</text><line style="stroke:#181818;stroke-width:0.5;" x1="685.5" x2="822.3545" y1="844.1055" y2="844.1055"/></g><!--class ClientService--><g id="elem_ClientService"><rect codeLine="107" fill="#F1F1F1" height="63.2422" id="ClientService" rx="2.5" ry="2.5" style="stroke:#181818;stroke-width:0.5;" width="225.6162" x="1755" y="572.5"/><text fill="#000000" font-family="sans-serif" font-size="14" lengthAdjust="spacing" textLength="82.4756" x="1826.5703" y="592.6074">ClientService</text><line style="stroke:#181818;stroke-width:0.5;" x1="1756" x2="1979.6162" y1="601.1211" y2="601.1211"/><line style="stroke:#181818;stroke-width:0.5;" x1="1756" x2="1979.6162" y1="609.1211" y2="609.1211"/><text fill="#000000" font-family="sans-serif" font-size="14" lengthAdjust="spacing" textLength="213.6162" x="1761" y="628.2285">+getByCode(internalCode) : Client</text></g><!--class ClientRepository--><g id="elem_ClientRepository"><rect codeLine="111" fill="#F1F1F1" height="79.2031" id="ClientRepository" rx="2.5" ry="2.5" style="stroke:#181818;stroke-width:0.5;" width="225.6162" x="1866" y="753"/><text fill="#000000" font-family="sans-serif" font-size="12" font-style="italic" lengthAdjust="spacing" textLength="59.373" x="1949.1216" y="770.9492">&#171;interface&#187;</text><text fill="#000000" font-family="sans-serif" font-size="14" font-style="italic" lengthAdjust="spacing" textLength="102.71" x="1927.4531" y="789.0684">ClientRepository</text><line style="stroke:#181818;stroke-width:0.5;" x1="1867" x2="2090.6162" y1="797.582" y2="797.582"/><line style="stroke:#181818;stroke-width:0.5;" x1="1867" x2="2090.6162" y1="805.582" y2="805.582"/><text fill="#000000" font-family="sans-serif" font-size="14" lengthAdjust="spacing" textLength="213.6162" x="1872" y="824.6895">+getByCode(internalCode) : Client</text></g><!--link ListPropertyView to ListPropertyController--><g id="link_ListPropertyView_ListPropertyController"><path codeLine="116" d="M1257,52.25 C1257,67.94 1257,84.24 1257,106.76 " fill="none" id="ListPropertyView-to-ListPropertyController" style="stroke:#181818;stroke-width:1.0;stroke-dasharray:7.0,7.0;"/><polygon fill="#181818" points="1257,112.76,1261,103.76,1257,107.76,1253,103.76,1257,112.76" style="stroke:#181818;stroke-width:1.0;"/></g><!--link ListPropertyController to House--><g id="link_ListPropertyController_House"><path codeLine="117" d="M1063.16,218.48 C867.17,241.15 593,290.48 593,389 C593,389 593,389 593,793.5 C593,859.56 620.5833,924.1646 646.6333,971.8446 " fill="none" id="ListPropertyController-to-House" style="stroke:#181818;stroke-width:1.0;stroke-dasharray:7.0,7.0;"/><polygon fill="#181818" points="649.51,977.11,648.7051,967.2941,647.1127,972.7222,641.6846,971.1297,649.51,977.11" style="stroke:#181818;stroke-width:1.0;"/></g><!--link ListPropertyController to AgentMapper--><g id="link_ListPropertyController_AgentMapper"><path codeLine="118" d="M1450.8,235.8 C1547.93,255.43 1666.58,283.13 1770,318 C1802.71,329.03 1832.3943,342.0364 1861.0043,355.8164 " fill="none" id="ListPropertyController-to-AgentMapper" style="stroke:#181818;stroke-width:1.0;stroke-dasharray:7.0,7.0;"/><polygon fill="#181818" points="1866.41,358.42,1860.0373,350.9108,1861.9053,356.2503,1856.5658,358.1183,1866.41,358.42" style="stroke:#181818;stroke-width:1.0;"/></g><!--link ListPropertyController to HouseMapper--><g id="link_ListPropertyController_HouseMapper"><path codeLine="119" d="M1229.22,288.12 C1210.49,346.53 1188.722,414.4065 1175.662,455.1365 " fill="none" id="ListPropertyController-to-HouseMapper" style="stroke:#181818;stroke-width:1.0;stroke-dasharray:7.0,7.0;"/><polygon fill="#181818" points="1173.83,460.85,1180.387,453.5011,1175.3567,456.0888,1172.769,451.0585,1173.83,460.85" style="stroke:#181818;stroke-width:1.0;"/></g><!--link ListPropertyController to ResidencyMapper--><g id="link_ListPropertyController_ResidencyMapper"><path codeLine="120" d="M1063.32,214.73 C964.78,231.7 851.12,268.84 780,349 C752.8,379.66 749.4377,423.0553 750.7777,454.8953 " fill="none" id="ListPropertyController-to-ResidencyMapper" style="stroke:#181818;stroke-width:1.0;stroke-dasharray:7.0,7.0;"/><polygon fill="#181818" points="751.03,460.89,754.648,451.7298,750.8198,455.8944,746.6551,452.0662,751.03,460.89" style="stroke:#181818;stroke-width:1.0;"/></g><!--link ListPropertyController to PropertyMapper--><g id="link_ListPropertyController_PropertyMapper"><path codeLine="121" d="M1102.71,288.12 C1057.93,313.25 1017.1518,336.1426 982.9018,355.3726 " fill="none" id="ListPropertyController-to-PropertyMapper" style="stroke:#181818;stroke-width:1.0;stroke-dasharray:7.0,7.0;"/><polygon fill="#181818" points="977.67,358.31,987.476,357.3917,982.0298,355.8621,983.5594,350.416,977.67,358.31" style="stroke:#181818;stroke-width:1.0;"/></g><!--link PropertyMapper to Property--><g id="link_PropertyMapper_Property"><path codeLine="122" d="M921.84,421.83 C920.53,456.39 918.6267,506.9343 917.0867,547.6643 " fill="none" id="PropertyMapper-to-Property" style="stroke:#181818;stroke-width:1.0;stroke-dasharray:7.0,7.0;"/><polygon fill="#181818" points="916.86,553.66,921.1972,544.8176,917.0489,548.6636,913.2029,544.5153,916.86,553.66" style="stroke:#181818;stroke-width:1.0;"/></g><!--link ResidencyMapper to Residency--><g id="link_ResidencyMapper_Residency"><path codeLine="123" d="M754,524.27 C754,573.34 754,664.17 754,726.81 " fill="none" id="ResidencyMapper-to-Residency" style="stroke:#181818;stroke-width:1.0;stroke-dasharray:7.0,7.0;"/><polygon fill="#181818" points="754,732.81,758,723.81,754,727.81,750,723.81,754,732.81" style="stroke:#181818;stroke-width:1.0;"/></g><!--link HouseMapper to House--><g id="link_HouseMapper_House"><path codeLine="124" d="M1163.33,524.04 C1161.05,567.16 1151.86,646.87 1116,703 C1037.97,825.14 904.112,917.5401 805.272,974.3501 " fill="none" id="HouseMapper-to-House" style="stroke:#181818;stroke-width:1.0;stroke-dasharray:7.0,7.0;"/><polygon fill="#181818" points="800.07,977.34,809.8662,976.3231,804.405,974.8484,805.8797,969.3872,800.07,977.34" style="stroke:#181818;stroke-width:1.0;"/></g><!--link ListPropertyController to Company--><g id="link_ListPropertyController_Company"><path codeLine="125" d="M1381.26,288.12 C1411.69,309.32 1437.8872,327.5898 1463.4472,345.3998 " fill="none" id="ListPropertyController-to-Company" style="stroke:#181818;stroke-width:1.0;stroke-dasharray:7.0,7.0;"/><polygon fill="#181818" points="1468.37,348.83,1463.2726,340.4029,1464.2677,345.9715,1458.699,346.9666,1468.37,348.83" style="stroke:#181818;stroke-width:1.0;"/></g><!--link Company to AgentService--><g id="link_Company_AgentService"><path codeLine="126" d="M1474.33,431.12 C1425.79,468.82 1358.2787,521.2397 1309.6587,558.9997 " fill="none" id="Company-to-AgentService" style="stroke:#181818;stroke-width:1.0;stroke-dasharray:7.0,7.0;"/><polygon fill="#181818" points="1304.92,562.68,1314.4816,560.3188,1308.8689,559.6131,1309.5746,554.0004,1304.92,562.68" style="stroke:#181818;stroke-width:1.0;"/></g><!--link Company to ClientService--><g id="link_Company_ClientService"><path codeLine="127" d="M1557.62,431.1 C1582.32,460.2 1618.93,498.74 1658,524 C1689.89,544.62 1702.46,540.64 1738,554 C1753.8,559.94 1765.0653,564.1845 1781.2553,570.2845 " fill="none" id="Company-to-ClientService" style="stroke:#181818;stroke-width:1.0;stroke-dasharray:7.0,7.0;"/><polygon fill="#181818" points="1786.87,572.4,1779.8583,565.4837,1782.1911,570.6371,1777.0376,572.9699,1786.87,572.4" style="stroke:#181818;stroke-width:1.0;"/></g><!--link Company to AdvertisementService--><g id="link_Company_AdvertisementService"><path codeLine="128" d="M1600.75,431.09 C1616.4,440.35 1632.54,450.56 1647,461 C1681.21,485.69 1679.41,506.95 1718,524 C1832.88,574.76 1874.59,536.76 1999,554 C2004.76,554.8 2004.6421,554.7587 2010.5021,555.6087 " fill="none" id="Company-to-AdvertisementService" style="stroke:#181818;stroke-width:1.0;stroke-dasharray:7.0,7.0;"/><polygon fill="#181818" points="2016.44,556.47,2008.1074,551.2195,2011.4918,555.7523,2006.959,559.1366,2016.44,556.47" style="stroke:#181818;stroke-width:1.0;"/></g><!--link ClientService to ClientRepository--><g id="link_ClientService_ClientRepository"><path codeLine="129" d="M1886.33,635.8 C1905.42,667.87 1932.2912,713.0242 1952.9512,747.7342 " fill="none" id="ClientService-to-ClientRepository" style="stroke:#181818;stroke-width:1.0;stroke-dasharray:7.0,7.0;"/><polygon fill="#181818" points="1956.02,752.89,1954.854,743.1104,1953.4626,748.5935,1947.9796,747.2022,1956.02,752.89" style="stroke:#181818;stroke-width:1.0;"/></g><!--link AgentService to AgentRepository--><g id="link_AgentService_AgentRepository"><path codeLine="130" d="M1277.24,645.01 C1294.69,673.8 1315.191,707.6383 1333.681,738.1583 " fill="none" id="AgentService-to-AgentRepository" style="stroke:#181818;stroke-width:1.0;stroke-dasharray:7.0,7.0;"/><polygon fill="#181818" points="1336.79,743.29,1335.5477,733.5198,1334.1992,739.0136,1328.7054,737.6651,1336.79,743.29" style="stroke:#181818;stroke-width:1.0;"/></g><!--link AdvertisementService to AdvertisementRepository--><g id="link_AdvertisementService_AdvertisementRepository"><path codeLine="131" d="M2017.17,654.06 C1886.25,679.55 1743.95,710.07 1682,733 C1667.41,738.4 1657.6754,742.7277 1643.6654,750.1277 " fill="none" id="AdvertisementService-to-AdvertisementRepository" style="stroke:#181818;stroke-width:1.0;stroke-dasharray:7.0,7.0;"/><polygon fill="#181818" points="1638.36,752.93,1648.1863,752.2635,1642.7812,750.5948,1644.4499,745.1897,1638.36,752.93" style="stroke:#181818;stroke-width:1.0;"/></g><!--link AdvertisementService to Advertisement--><g id="link_AdvertisementService_Advertisement"><path codeLine="132" d="M2260.11,654.22 C2229.85,708.1 2175.47,794.48 2110,852 C2076.47,881.46 2042.5824,904.8963 2003.0424,927.9663 " fill="none" id="AdvertisementService-to-Advertisement" style="stroke:#181818;stroke-width:1.0;stroke-dasharray:7.0,7.0;"/><polygon fill="#181818" points="1997.86,930.99,2007.6494,929.9094,2002.1787,928.4702,2003.6178,922.9995,1997.86,930.99" style="stroke:#181818;stroke-width:1.0;"/></g><!--link AdvertisementRepository to Advertisement--><g id="link_AdvertisementRepository_Advertisement"><path codeLine="133" d="M1605.32,832.19 C1626.27,858.94 1651.5196,891.167 1679.0196,926.267 " fill="none" id="AdvertisementRepository-to-Advertisement" style="stroke:#181818;stroke-width:1.0;"/><polygon fill="#181818" points="1682.72,930.99,1680.3181,921.4385,1679.6363,927.0541,1674.0207,926.3724,1682.72,930.99" style="stroke:#181818;stroke-width:1.0;"/><text fill="#000000" font-family="sans-serif" font-size="13" lengthAdjust="spacing" textLength="31.0781" x="1659" y="897.0283">holds</text><text fill="#000000" font-family="sans-serif" font-size="13" lengthAdjust="spacing" textLength="7.23" x="1602.7889" y="854.2071">1</text><text fill="#000000" font-family="sans-serif" font-size="13" lengthAdjust="spacing" textLength="5.0591" x="1671.5087" y="919.6119">*</text></g><!--link Client to Property--><g id="link_Client_Property"><path codeLine="134" d="M1086.63,412.62 C1080.39,419.27 1072.93,426.12 1065,431 C1027.3,454.22 1002.29,430.7 970,461 C955.97,474.16 941.9116,512.5006 930.8416,548.1006 " fill="none" id="Client-to-Property" style="stroke:#181818;stroke-width:1.0;"/><polygon fill="#181818" points="929.06,553.83,935.552,546.4236,930.5447,549.0555,927.9128,544.0482,929.06,553.83" style="stroke:#181818;stroke-width:1.0;"/><text fill="#000000" font-family="sans-serif" font-size="13" lengthAdjust="spacing" textLength="30.3481" x="971" y="498.0283">owns</text><text fill="#000000" font-family="sans-serif" font-size="13" lengthAdjust="spacing" textLength="7.23" x="1074.5962" y="434.3155">1</text><text fill="#000000" font-family="sans-serif" font-size="13" lengthAdjust="spacing" textLength="5.0591" x="925.7019" y="542.5943">*</text></g><!--reverse link Property to Residency--><g id="link_Property_Residency"><path codeLine="135" d="M860.939,667.6264 C840.069,691.8064 826.5,707.52 804.61,732.87 " fill="none" id="Property-backto-Residency" style="stroke:#181818;stroke-width:1.0;"/><polygon fill="none" points="872.7,654,856.3968,663.706,865.4811,671.5467,872.7,654" style="stroke:#181818;stroke-width:1.0;"/></g><!--reverse link Residency to House--><g id="link_Residency_House"><path codeLine="136" d="M732.6812,869.5318 C722.0312,907.5218 713.07,939.46 702.43,977.42 " fill="none" id="Residency-backto-House" style="stroke:#181818;stroke-width:1.0;"/><polygon fill="none" points="737.54,852.2,726.904,867.9123,738.4585,871.1514,737.54,852.2" style="stroke:#181818;stroke-width:1.0;"/></g><!--link Agent to Advertisement--><g id="link_Agent_Advertisement"><path codeLine="137" d="M1765,842.57 C1765,868.04 1765,894.18 1765,924.91 " fill="none" id="Agent-to-Advertisement" style="stroke:#181818;stroke-width:1.0;"/><polygon fill="#181818" points="1765,930.91,1769,921.91,1765,925.91,1761,921.91,1765,930.91" style="stroke:#181818;stroke-width:1.0;"/><text fill="#000000" font-family="sans-serif" font-size="13" lengthAdjust="spacing" textLength="48.4072" x="1766" y="897.0283">receives</text><text fill="#000000" font-family="sans-serif" font-size="13" lengthAdjust="spacing" textLength="7.23" x="1757.5264" y="865.1866">1</text><text fill="#000000" font-family="sans-serif" font-size="13" lengthAdjust="spacing" textLength="19.5127" x="1745.362" y="919.884">1..*</text></g><!--link Company to RepositoryFactory--><g id="link_Company_RepositoryFactory"><path codeLine="138" d="M1527.71,431.37 C1529.21,466.57 1531.126,511.6954 1532.706,548.9854 " fill="none" id="Company-to-RepositoryFactory" style="stroke:#181818;stroke-width:1.0;stroke-dasharray:7.0,7.0;"/><polygon fill="#181818" points="1532.96,554.98,1536.5754,545.8187,1532.7483,549.9845,1528.5826,546.1574,1532.96,554.98" style="stroke:#181818;stroke-width:1.0;"/></g><!--link RepositoryFactory to AdvertisementRepository--><g id="link_RepositoryFactory_AdvertisementRepository"><path codeLine="139" d="M1545.3,653.03 C1551.94,684 1559.212,717.8934 1565.422,746.8534 " fill="none" id="RepositoryFactory-to-AdvertisementRepository" style="stroke:#181818;stroke-width:1.0;stroke-dasharray:7.0,7.0;"/><polygon fill="#181818" points="1566.68,752.72,1568.7041,743.0814,1565.6317,747.8311,1560.8819,744.7587,1566.68,752.72" style="stroke:#181818;stroke-width:1.0;"/></g><!--link RepositoryFactory to AgentRepository--><g id="link_RepositoryFactory_AgentRepository"><path codeLine="140" d="M1490.09,653.34 C1480.77,663.44 1471.04,674.05 1462,684 C1444.42,703.35 1429.1802,720.3391 1412.5902,738.9691 " fill="none" id="RepositoryFactory-to-AgentRepository" style="stroke:#181818;stroke-width:1.0;stroke-dasharray:7.0,7.0;"/><polygon fill="#181818" points="1408.6,743.45,1417.5726,739.3888,1411.9252,739.7159,1411.5981,734.0686,1408.6,743.45" style="stroke:#181818;stroke-width:1.0;"/></g><!--link Client to Advertisement--><g id="link_Client_Advertisement"><path codeLine="141" d="M1082.92,412.09 C1071.24,425.08 1057.59,442.71 1050,461 C1008.5,561.06 968.08,608.48 1021,703 C1065.76,782.95 1249.9761,865.1936 1426.6861,928.9536 " fill="none" id="Client-to-Advertisement" style="stroke:#181818;stroke-width:1.0;"/><polygon fill="#181818" points="1432.33,930.99,1425.2218,924.1728,1427.6268,929.293,1422.5066,931.698,1432.33,930.99" style="stroke:#181818;stroke-width:1.0;"/><text fill="#000000" font-family="sans-serif" font-size="13" lengthAdjust="spacing" textLength="85.9917" x="1022" y="699.0283">asks to publish</text><text fill="#000000" font-family="sans-serif" font-size="13" lengthAdjust="spacing" textLength="7.23" x="1067.8503" y="413.731">1</text><text fill="#000000" font-family="sans-serif" font-size="13" lengthAdjust="spacing" textLength="5.0591" x="1402.7306" y="919.6119">*</text></g><!--link AgentRepository to Agent--><g id="link_AgentRepository_Agent"><path codeLine="142" d="M1407.35,743.33 C1424.86,726.2 1446.71,709.02 1470.5,700 C1522.72,680.21 1535.85,670.8 1682,733 C1688.2,735.64 1689.1912,735.8046 1695.2312,739.2846 " fill="none" id="AgentRepository-to-Agent" style="stroke:#181818;stroke-width:1.0;"/><polygon fill="#181818" points="1700.43,742.28,1694.6287,734.3211,1696.0976,739.7839,1690.6348,741.2529,1700.43,742.28" style="stroke:#181818;stroke-width:1.0;"/><text fill="#000000" font-family="sans-serif" font-size="13" lengthAdjust="spacing" textLength="31.0781" x="1471.5" y="699.0283">holds</text><text fill="#000000" font-family="sans-serif" font-size="13" lengthAdjust="spacing" textLength="7.23" x="1405.7013" y="732.2813">1</text><text fill="#000000" font-family="sans-serif" font-size="13" lengthAdjust="spacing" textLength="5.0591" x="1686.443" y="731.4048">*</text></g><!--link ListPropertyController to AdvertisementService--><g id="link_ListPropertyController_AdvertisementService"><path codeLine="143" d="M1450.62,240.55 C1534.39,263.38 1630.73,298.02 1708,349 C1748.48,375.71 1739.67,404.06 1780,431 C1864.48,487.44 1963.5093,525.3823 2055.7693,552.2523 " fill="none" id="ListPropertyController-to-AdvertisementService" style="stroke:#181818;stroke-width:1.0;stroke-dasharray:7.0,7.0;"/><polygon fill="#181818" points="2061.53,553.93,2054.0075,547.5729,2056.7295,552.5319,2051.7705,555.2538,2061.53,553.93" style="stroke:#181818;stroke-width:1.0;"/></g><!--link ListPropertyController to AgentService--><g id="link_ListPropertyController_AgentService"><path codeLine="144" d="M1272.82,288.19 C1282.26,353.37 1290.25,444.71 1278,524 C1276,536.94 1274.12,544.9523 1270.13,557.2623 " fill="none" id="ListPropertyController-to-AgentService" style="stroke:#181818;stroke-width:1.0;stroke-dasharray:7.0,7.0;"/><polygon fill="#181818" points="1268.28,562.97,1274.8601,555.6418,1269.8217,558.2136,1267.2499,553.1752,1268.28,562.97" style="stroke:#181818;stroke-width:1.0;"/></g><!--SRC=[hLPBRnCn4Bxlhx1wsa9ImNLLHMhQ8YeLWLh4tTcT9bOTUx6TG2ZyToP-hEtTJL8aSehd_VXcPbUi0L8pLNCez3CJBLLqJMfEjRuoHh75ni1TBSKZ-mNaNL5O3hdc38GXByMVGBbdsdnHiWLbTjyO_3Z4kvR2ACavA9GW-7kx1EFCpP7PGCc40IKetp_EdKYjW1gufw8f6oCh4epTVFsSILnXz6QDffpO0sZCJjG3kOzoey79sB-HZy5SBT708wWjgw5CoCqMNJ8Dwo5Rqora_1jgQ6bsBOH89sJ_ccyq4w3rXBGArS_t9V8rid7uaapX9rOC0uSvTVOgif2I0nMElw8BPWnTSC0UiRh7rHjn-xELUgCWvxYqAPQW8XfxAvOJmcLD3PCYKXhqJT5tfDXWA_B49JNuMaaZbugsgoYnW4P9kTOLmUxXavfL-iQs8BIMZosj8T3ebZA-J-7s-uQrBidEN3zj5CyIdP0iIQTt7X4Nolw9jcr4cf6V45DyYA7uYYOwy1onaG4iUKOhjkH7B7Jmyt-ZPWh3P5IkE2zxM9tlxfgIDKdwOrWDDloaDDiCdx7sAKuFGg3J2lh989IqsLPv29wxfPmrw7nKOZpuC15ZiKPEFrx7SJ7Ra0F16-YwRScrtJwLMqAEHFTrhMnr7O7fHyaRXp-l9TTCQpivqKKM-tyjy8JuCFtknOcmCJgSsFBPnVc48-Pe3u3ZmOnKEt9vsV5cipwOAhkVBwtER1nPtalFIPhh8MSl9t2HMOn6Fj3wUE1vWcM8C9B6ztPFPPmLeNWjroqLkxxZRljNsPIUE1NLw5Wc9y3Q2hvOO_UaUmYwXWpRR_4Y6wpHdNYI7IDV7VsbWqkcJ1gTjHrvi-7ozAEtlnVkNxWLxXNkn3NiMpIoEBs-sAmNeER-GcIqS2RyUAPNmliU78caENOEV1bZXyQ-8aYOcXnlZdPaJbvlTF3vSt4nE_3TKnpu7Dfhk1jmH21fxKaxfyLwD-wOQ7vHYzw1JIMA_kNCF1NfHNnLodu8Yp2CNHd212MC31EvnjZiPU9HFra5sHNkFAS2OwTsuF2V5Of3s_Ni_HcPJcVaxCrPVYWhii8BfNrEgHo9DqZ-4Bhh7RdyFPqcdUd-EOPhZ5jAdRNt5nTeCFDS4GKri2tER5hmmJ8lXklzM9qEIFVAFv9jBpYgdpKnahIR1MTwLVHlerNrckwYkZeU6y8nB9qQsY3t5m00]--></g></svg>