<svg xmlns="http://www.w3.org/2000/svg" xmlns:xlink="http://www.w3.org/1999/xlink" contentStyleType="text/css" height="1047px" preserveAspectRatio="none" style="width:536px;height:1047px;background:#FFFFFF;" version="1.1" viewBox="0 0 536 1047" width="536px" zoomAndPan="magnify"><title>Use Case Diagram - First Draft</title><defs/><g><text fill="#000000" font-family="sans-serif" font-size="14" font-weight="bold" lengthAdjust="spacing" textLength="202.2891" x="160.3246" y="25.1074">Use Case Diagram - First Draft</text><!--entity unreg--><g id="elem_unreg"><ellipse cx="72.2998" cy="943.1211" fill="#F1F1F1" rx="8" ry="8" style="stroke:#181818;stroke-width:0.5;"/><path d="M72.2998,951.1211 L72.2998,978.1211 M59.2998,959.1211 L85.2998,959.1211 M72.2998,978.1211 L59.2998,993.1211 M72.2998,978.1211 L85.2998,993.1211 " fill="none" style="stroke:#181818;stroke-width:0.5;"/><text fill="#000000" font-family="sans-serif" font-size="14" lengthAdjust="spacing" textLength="113.5996" x="15.5" y="1009.7285">Unregistered User</text></g><!--entity Client--><g id="elem_Client"><ellipse cx="72.3965" cy="730.1211" fill="#F1F1F1" rx="8" ry="8" style="stroke:#181818;stroke-width:0.5;"/><path d="M72.3965,738.1211 L72.3965,765.1211 M59.3965,746.1211 L85.3965,746.1211 M72.3965,765.1211 L59.3965,780.1211 M72.3965,765.1211 L85.3965,780.1211 " fill="none" style="stroke:#181818;stroke-width:0.5;"/><text fill="#000000" font-family="sans-serif" font-size="14" lengthAdjust="spacing" textLength="35.793" x="54.5" y="796.7285">Client</text></g><!--entity Agent--><g id="elem_Agent"><ellipse cx="72.293" cy="444.1211" fill="#F1F1F1" rx="8" ry="8" style="stroke:#181818;stroke-width:0.5;"/><path d="M72.293,452.1211 L72.293,479.1211 M59.293,460.1211 L85.293,460.1211 M72.293,479.1211 L59.293,494.1211 M72.293,479.1211 L85.293,494.1211 " fill="none" style="stroke:#181818;stroke-width:0.5;"/><text fill="#000000" font-family="sans-serif" font-size="14" lengthAdjust="spacing" textLength="36.5859" x="54" y="510.7285">Agent</text></g><!--entity Manager--><g id="elem_Manager"><ellipse cx="72.7446" cy="235.1211" fill="#F1F1F1" rx="8" ry="8" style="stroke:#181818;stroke-width:0.5;"/><path d="M72.7446,243.1211 L72.7446,270.1211 M59.7446,251.1211 L85.7446,251.1211 M72.7446,270.1211 L59.7446,285.1211 M72.7446,270.1211 L85.7446,285.1211 " fill="none" style="stroke:#181818;stroke-width:0.5;"/><text fill="#000000" font-family="sans-serif" font-size="14" lengthAdjust="spacing" textLength="110.4893" x="17.5" y="301.7285">Network Manager</text></g><!--entity Administrator--><g id="elem_Administrator"><ellipse cx="72.5171" cy="74.1211" fill="#F1F1F1" rx="8" ry="8" style="stroke:#181818;stroke-width:0.5;"/><path d="M72.5171,82.1211 L72.5171,109.1211 M59.5171,90.1211 L85.5171,90.1211 M72.5171,109.1211 L59.5171,124.1211 M72.5171,109.1211 L85.5171,124.1211 " fill="none" style="stroke:#181818;stroke-width:0.5;"/><text fill="#000000" font-family="sans-serif" font-size="14" lengthAdjust="spacing" textLength="133.0342" x="6" y="140.7285">System Administrator</text></g><g id="elem_RegisterStore"><ellipse cx="365.0112" cy="66.1233" fill="#F1F1F1" rx="90.5112" ry="20.5022" style="stroke:#181818;stroke-width:0.5;"/><text fill="#000000" font-family="sans-serif" font-size="14" lengthAdjust="spacing" textLength="135.3789" x="294.3217" y="70.927">UC10 - Register store</text></g><g id="elem_RegisterAgent"><ellipse cx="365.0979" cy="142.9407" fill="#F1F1F1" rx="92.0979" ry="20.8196" style="stroke:#181818;stroke-width:0.5;"/><text fill="#000000" font-family="sans-serif" font-size="14" lengthAdjust="spacing" textLength="139.2891" x="292.4534" y="147.7444">UC11 - Register agent</text></g><g id="elem_RegisterClient"><ellipse cx="365.1419" cy="933.2495" fill="#F1F1F1" rx="91.1419" ry="20.6284" style="stroke:#181818;stroke-width:0.5;"/><text fill="#000000" font-family="sans-serif" font-size="14" lengthAdjust="spacing" textLength="136.9375" x="293.6731" y="938.0532">UC21 - Register client</text></g><g id="elem_retrieveAgents"><ellipse cx="364.7955" cy="224.2802" fill="#F1F1F1" rx="113.7955" ry="25.1591" style="stroke:#181818;stroke-width:0.5;"/><text fill="#000000" font-family="sans-serif" font-size="14" lengthAdjust="spacing" textLength="189.082" x="270.2545" y="228.0771">UC51 - Retrieve List of Agents</text></g><g id="elem_displayProps"><ellipse cx="365.0428" cy="1015.1297" fill="#F1F1F1" rx="118.0428" ry="26.0086" style="stroke:#181818;stroke-width:0.5;"/><text fill="#000000" font-family="sans-serif" font-size="14" lengthAdjust="spacing" textLength="198.4063" x="265.8397" y="1018.9265">UC20 - Display listed Properties</text></g><g id="elem_listProp"><ellipse cx="364.9692" cy="665.2149" fill="#F1F1F1" rx="165.9692" ry="35.5938" style="stroke:#181818;stroke-width:0.5;"/><text fill="#000000" font-family="sans-serif" font-size="14" lengthAdjust="spacing" textLength="300.3574" x="214.7904" y="669.0118">UC30 - Request to List Property for Sale or Rent</text></g><g id="elem_requestVisit"><ellipse cx="365.0369" cy="760.9285" fill="#F1F1F1" rx="112.0369" ry="24.8074" style="stroke:#181818;stroke-width:0.5;"/><text fill="#000000" font-family="sans-serif" font-size="14" lengthAdjust="spacing" textLength="185.1992" x="272.4373" y="764.7253">UC31 - Request Visit Booking</text></g><g id="elem_publishAdv"><ellipse cx="365.0889" cy="390.1389" fill="#F1F1F1" rx="113.0889" ry="25.0178" style="stroke:#181818;stroke-width:0.5;"/><text fill="#000000" font-family="sans-serif" font-size="14" lengthAdjust="spacing" textLength="187.5234" x="271.3271" y="393.9357">UC40 - Publish Advertisement</text></g><g id="elem_placeOrder"><ellipse cx="364.8748" cy="848.996" fill="#F1F1F1" rx="127.3748" ry="27.875" style="stroke:#181818;stroke-width:0.5;"/><text fill="#000000" font-family="sans-serif" font-size="14" lengthAdjust="spacing" textLength="218.668" x="255.5408" y="852.7929">UC32 - Place purchase/lease order</text></g><g id="elem_replyRequest"><ellipse cx="365.1461" cy="475.3503" fill="#F1F1F1" rx="114.1461" ry="25.2292" style="stroke:#181818;stroke-width:0.5;"/><text fill="#000000" font-family="sans-serif" font-size="14" lengthAdjust="spacing" textLength="189.8545" x="270.2189" y="479.1472">UC41 - Reply to a visit request</text></g><g id="elem_evaluateOrder"><ellipse cx="364.9481" cy="565.3107" fill="#F1F1F1" rx="136.4481" ry="29.6896" style="stroke:#181818;stroke-width:0.5;"/><text fill="#000000" font-family="sans-serif" font-size="14" lengthAdjust="spacing" textLength="238.1299" x="245.8832" y="569.1076">UC42 - Evaluate purchase/lease order</text></g><g id="elem_listAllDeals"><ellipse cx="365.1397" cy="307.049" fill="#F1F1F1" rx="102.6397" ry="22.9279" style="stroke:#181818;stroke-width:0.5;"/><text fill="#000000" font-family="sans-serif" font-size="14" lengthAdjust="spacing" textLength="164.1855" x="282.6941" y="310.9794">UC50 - List all deals made</text></g><!--link Administrator to RegisterStore--><g id="link_Administrator_RegisterStore"><path d="M139.06,96.3211 C182.9,90.4311 234.8333,83.459 280.8933,77.279 " fill="none" id="Administrator-to-RegisterStore" style="stroke:#181818;stroke-width:1.0;"/><polygon fill="#181818" points="286.84,76.4811,277.388,73.7135,281.8844,77.146,278.4519,81.6424,286.84,76.4811" style="stroke:#181818;stroke-width:1.0;"/></g><!--link Administrator to RegisterAgent--><g id="link_Administrator_RegisterAgent"><path d="M139.06,113.7011 C182.23,119.3411 233.0607,125.9928 278.7707,131.9728 " fill="none" id="Administrator-to-RegisterAgent" style="stroke:#181818;stroke-width:1.0;"/><polygon fill="#181818" points="284.72,132.7511,276.3149,127.6174,279.7622,132.1025,275.2772,135.5498,284.72,132.7511" style="stroke:#181818;stroke-width:1.0;"/></g><!--link unreg to RegisterClient--><g id="link_unreg_RegisterClient"><path d="M129.51,966.2111 C174.44,959.8711 232.0289,951.7496 281.6289,944.7496 " fill="none" id="unreg-to-RegisterClient" style="stroke:#181818;stroke-width:1.0;"/><polygon fill="#181818" points="287.57,943.9111,278.0993,941.208,282.6191,944.6098,279.2173,949.1295,287.57,943.9111" style="stroke:#181818;stroke-width:1.0;"/></g><!--link Manager to retrieveAgents--><g id="link_Manager_retrieveAgents"><path d="M127.8,258.2711 C167.54,252.5211 216.5417,245.4395 263.4417,238.6595 " fill="none" id="Manager-to-retrieveAgents" style="stroke:#181818;stroke-width:1.0;"/><polygon fill="#181818" points="269.38,237.8011,259.9003,235.1299,264.4314,238.5165,261.0449,243.0476,269.38,237.8011" style="stroke:#181818;stroke-width:1.0;"/></g><!--link unreg to displayProps--><g id="link_unreg_displayProps"><path d="M129.51,982.0311 C167.93,987.4511 213.9989,993.9527 259.2789,1000.3427 " fill="none" id="unreg-to-displayProps" style="stroke:#181818;stroke-width:1.0;"/><polygon fill="#181818" points="265.22,1001.1811,256.8673,995.9627,260.2691,1000.4824,255.7494,1003.8842,265.22,1001.1811" style="stroke:#181818;stroke-width:1.0;"/></g><!--link Client to listProp--><g id="link_Client_listProp"><path d="M90.54,755.3811 C114.67,747.2611 160.17,731.9711 199,719.1211 C223.04,711.1611 243.3578,704.4879 267.4878,696.5879 " fill="none" id="Client-to-listProp" style="stroke:#181818;stroke-width:1.0;"/><polygon fill="#181818" points="273.19,694.7211,263.3922,693.7199,268.4382,696.2768,265.8813,701.3228,273.19,694.7211" style="stroke:#181818;stroke-width:1.0;"/></g><!--link Client to requestVisit--><g id="link_Client_requestVisit"><path d="M90.8,761.1211 C122.44,761.1211 185.98,761.1211 246.98,761.1211 " fill="none" id="Client-to-requestVisit" style="stroke:#181818;stroke-width:1.0;"/><polygon fill="#181818" points="252.98,761.1211,243.98,757.1211,247.98,761.1211,243.98,765.1211,252.98,761.1211" style="stroke:#181818;stroke-width:1.0;"/></g><!--link Agent to publishAdv--><g id="link_Agent_publishAdv"><path d="M91.25,468.7511 C115.46,460.1711 160.24,444.6411 199,433.1211 C228.08,424.4711 254.5179,417.3507 282.7279,410.1207 " fill="none" id="Agent-to-publishAdv" style="stroke:#181818;stroke-width:1.0;"/><polygon fill="#181818" points="288.54,408.6311,278.8287,406.9907,283.6965,409.8724,280.8148,414.7403,288.54,408.6311" style="stroke:#181818;stroke-width:1.0;"/></g><!--link Client to placeOrder--><g id="link_Client_placeOrder"><path d="M90.85,767.4611 C114.96,776.1711 160.03,792.1411 199,804.1211 C225.82,812.3611 249.5281,819.0848 276.0781,826.2648 " fill="none" id="Client-to-placeOrder" style="stroke:#181818;stroke-width:1.0;"/><polygon fill="#181818" points="281.87,827.8311,274.2263,821.6203,277.0434,826.5258,272.1379,829.3429,281.87,827.8311" style="stroke:#181818;stroke-width:1.0;"/></g><!--link Agent to replyRequest--><g id="link_Agent_replyRequest"><path d="M91.23,475.1211 C122.71,475.1211 184.7,475.1211 244.92,475.1211 " fill="none" id="Agent-to-replyRequest" style="stroke:#181818;stroke-width:1.0;"/><polygon fill="#181818" points="250.92,475.1211,241.92,471.1211,245.92,475.1211,241.92,479.1211,250.92,475.1211" style="stroke:#181818;stroke-width:1.0;"/></g><!--link Agent to evaluateOrder--><g id="link_Agent_evaluateOrder"><path d="M91.28,481.5411 C115.51,490.2211 160.32,505.9911 199,518.1211 C225.15,526.3211 248.0374,533.0548 274.0374,540.4248 " fill="none" id="Agent-to-evaluateOrder" style="stroke:#181818;stroke-width:1.0;"/><polygon fill="#181818" points="279.81,542.0611,272.242,535.7583,274.9995,540.6975,270.0603,543.455,279.81,542.0611" style="stroke:#181818;stroke-width:1.0;"/></g><!--link Manager to listAllDeals--><g id="link_Manager_listAllDeals"><path d="M127.8,273.7811 C169.92,279.7311 223.1789,287.2423 271.7689,294.1023 " fill="none" id="Manager-to-listAllDeals" style="stroke:#181818;stroke-width:1.0;"/><polygon fill="#181818" points="277.71,294.9411,269.3576,289.7222,272.7591,294.2421,268.2392,297.6437,277.71,294.9411" style="stroke:#181818;stroke-width:1.0;"/></g><!--SRC=[VLDDSzem4BthL-ojwO5II7FXq1aAxQaVcJ3qlhKMeubikTAQ3l- -qagERJAJ2uZttkw-_U3TcRaBc-MoizXotzWFbMkMVQ15XV536wmzDagnOKjm30IxYCC-ux20RyO7Xht74ojbwSJ03hofpmpQUAhOk5OfhDXvs1nRJxK9J9vqIkOtW07wX0wIdJNKik3vEH3RUi3bDS0_YVyv_mm_iCMw92plGNAuneeDR7LZsbZSOqHpeYcYrDrnj_eOMteg7Y54cDudvTs07GGIwMegnUHfBXMR8btFf9MqDTVcLaNyaCNi3Lq8laSQt2dt77AGBsJ1nFWw6T-R4DTu1PjoQdZqhYFFXagSpdI2WvIwpzt-xId8sgHOYRh2ASxkW77hyVlfnN7AdIGvmMgIuBS9Xk6BSy-chGUdGWaZ0PzInSV-JynoZkE_97k1cfViNQOYazkwNoUznOgWwtrrZhUtj9Gkq7bDlWGb_fVybXhPL6UlgIU4Y_WgLWPVaIs-Sqogy_M2jaT-gnGLoLZj8NKaWqDhGHFQ00rg6gUrjNQVuDZHxE1WiVZywh3UK9Hxad_Bd1ckfznz9bzToIHmVWavF3FZUaVqPesIKF3PjYRwwK96zNpe8tupqqaJj-DJ_m40]--></g></svg>