<svg xmlns="http://www.w3.org/2000/svg" xmlns:xlink="http://www.w3.org/1999/xlink" contentStyleType="text/css" height="925px" preserveAspectRatio="none" style="width:405px;height:925px;background:#FFFFFF;" version="1.1" viewBox="0 0 405 925" width="405px" zoomAndPan="magnify"><title>Use Case Diagram - First Draft</title><defs/><g><text fill="#000000" font-family="sans-serif" font-size="14" font-weight="bold" lengthAdjust="spacing" textLength="202.2891" x="94.3567" y="25.1074">Use Case Diagram - First Draft</text><!--entity Owner--><g id="elem_Owner"><ellipse cx="33.6172" cy="574.6211" fill="#F1F1F1" rx="8" ry="8" style="stroke:#181818;stroke-width:0.5;"/><path d="M33.6172,582.6211 L33.6172,609.6211 M20.6172,590.6211 L46.6172,590.6211 M33.6172,609.6211 L20.6172,624.6211 M33.6172,609.6211 L46.6172,624.6211 " fill="none" style="stroke:#181818;stroke-width:0.5;"/><text fill="#000000" font-family="sans-serif" font-size="14" lengthAdjust="spacing" textLength="41.2344" x="13" y="641.2285">Owner</text></g><!--entity Client--><g id="elem_Client"><ellipse cx="33.3965" cy="712.6211" fill="#F1F1F1" rx="8" ry="8" style="stroke:#181818;stroke-width:0.5;"/><path d="M33.3965,720.6211 L33.3965,747.6211 M20.3965,728.6211 L46.3965,728.6211 M33.3965,747.6211 L20.3965,762.6211 M33.3965,747.6211 L46.3965,762.6211 " fill="none" style="stroke:#181818;stroke-width:0.5;"/><text fill="#000000" font-family="sans-serif" font-size="14" lengthAdjust="spacing" textLength="35.793" x="15.5" y="779.2285">Client</text></g><!--entity Agent--><g id="elem_Agent"><ellipse cx="33.293" cy="318.6211" fill="#F1F1F1" rx="8" ry="8" style="stroke:#181818;stroke-width:0.5;"/><path d="M33.293,326.6211 L33.293,353.6211 M20.293,334.6211 L46.293,334.6211 M33.293,353.6211 L20.293,368.6211 M33.293,353.6211 L46.293,368.6211 " fill="none" style="stroke:#181818;stroke-width:0.5;"/><text fill="#000000" font-family="sans-serif" font-size="14" lengthAdjust="spacing" textLength="36.5859" x="15" y="385.2285">Agent</text></g><!--entity Manager--><g id="elem_Manager"><ellipse cx="33.6274" cy="77.6211" fill="#F1F1F1" rx="8" ry="8" style="stroke:#181818;stroke-width:0.5;"/><path d="M33.6274,85.6211 L33.6274,112.6211 M20.6274,93.6211 L46.6274,93.6211 M33.6274,112.6211 L20.6274,127.6211 M33.6274,112.6211 L46.6274,127.6211 " fill="none" style="stroke:#181818;stroke-width:0.5;"/><text fill="#000000" font-family="sans-serif" font-size="14" lengthAdjust="spacing" textLength="55.2549" x="6" y="144.2285">Manager</text></g><g id="elem_PublishOffer"><ellipse cx="260.155" cy="225.4521" fill="#F1F1F1" rx="94.655" ry="21.331" style="stroke:#181818;stroke-width:0.5;"/><text fill="#000000" font-family="sans-serif" font-size="14" lengthAdjust="spacing" textLength="145.5166" x="184.5814" y="230.2015">UC03 - Publish an offer</text></g><g id="elem_RegisterVisit"><ellipse cx="259.939" cy="307.7089" fill="#F1F1F1" rx="113.439" ry="25.0878" style="stroke:#181818;stroke-width:0.5;"/><text fill="#000000" font-family="sans-serif" font-size="14" lengthAdjust="spacing" textLength="188.2959" x="165.791" y="311.5058">UC04 - Register visit schedule</text></g><g id="elem_AppreciateOffer"><ellipse cx="260.1749" cy="390.7561" fill="#F1F1F1" rx="103.6749" ry="23.135" style="stroke:#181818;stroke-width:0.5;"/><text fill="#000000" font-family="sans-serif" font-size="14" lengthAdjust="spacing" textLength="166.5303" x="176.8385" y="394.5803">UC05 - Appreciate an offer</text></g><g id="elem_DefineCommission"><ellipse cx="260.1598" cy="471.7531" fill="#F1F1F1" rx="103.6598" ry="23.132" style="stroke:#181818;stroke-width:0.5;"/><text fill="#000000" font-family="sans-serif" font-size="14" lengthAdjust="spacing" textLength="166.4961" x="176.8364" y="475.5788">UC06 - Define commission</text></g><g id="elem_RegisterBranches"><ellipse cx="259.7941" cy="68.4799" fill="#F1F1F1" rx="102.2941" ry="22.8588" style="stroke:#181818;stroke-width:0.5;"/><text fill="#000000" font-family="sans-serif" font-size="14" lengthAdjust="spacing" textLength="163.3994" x="177.6459" y="72.4458">UC01 - Register Branches</text></g><g id="elem_RegisterAgent"><ellipse cx="260.2316" cy="147.5674" fill="#F1F1F1" rx="92.7316" ry="20.9463" style="stroke:#181818;stroke-width:0.5;"/><text fill="#000000" font-family="sans-serif" font-size="14" lengthAdjust="spacing" textLength="140.8408" x="186.8112" y="152.3711">UC02 - Register Agent</text></g><g id="elem_Registration"><ellipse cx="260.0677" cy="635.6346" fill="#F1F1F1" rx="85.5677" ry="19.5135" style="stroke:#181818;stroke-width:0.5;"/><text fill="#000000" font-family="sans-serif" font-size="14" lengthAdjust="spacing" textLength="122.9375" x="195.599" y="640.4383">UC08 - Registration</text></g><g id="elem_MakeSaleOffer"><ellipse cx="260.0664" cy="555.6344" fill="#F1F1F1" rx="115.5664" ry="25.5133" style="stroke:#181818;stroke-width:0.5;"/><text fill="#000000" font-family="sans-serif" font-size="14" lengthAdjust="spacing" textLength="192.9785" x="163.5772" y="559.4313">UC07 - Make a lease/sale offer</text></g><g id="elem_ConsultProperties"><ellipse cx="259.7941" cy="713.4799" fill="#F1F1F1" rx="102.2941" ry="22.8588" style="stroke:#181818;stroke-width:0.5;"/><text fill="#000000" font-family="sans-serif" font-size="14" lengthAdjust="spacing" textLength="163.3994" x="177.6459" y="717.4458">UC09 - Consult Properties</text></g><g id="elem_RequestSchedule"><ellipse cx="259.7653" cy="797.7742" fill="#F1F1F1" rx="118.7653" ry="26.1531" style="stroke:#181818;stroke-width:0.5;"/><text fill="#000000" font-family="sans-serif" font-size="14" lengthAdjust="spacing" textLength="199.9854" x="159.7726" y="801.571">UC10 - Request a visit schedule</text></g><g id="elem_MakeRequest"><ellipse cx="260.0012" cy="888.8213" fill="#F1F1F1" rx="139.0012" ry="30.2002" style="stroke:#181818;stroke-width:0.5;"/><text fill="#000000" font-family="sans-serif" font-size="14" lengthAdjust="spacing" textLength="243.5713" x="138.2156" y="892.6182">UC11 - Make a purchase/lease request</text></g><!--link Agent to PublishOffer--><g id="link_Agent_PublishOffer"><path d="M52.11,327.2111 C68.15,308.2211 93.49,281.6111 121,265.6211 C141.17,253.9011 159.2235,246.9975 181.3635,240.9275 " fill="none" id="Agent-to-PublishOffer" style="stroke:#181818;stroke-width:1.0;"/><polygon fill="#181818" points="187.15,239.3411,177.4127,237.8631,182.3279,240.6631,179.5279,245.5784,187.15,239.3411" style="stroke:#181818;stroke-width:1.0;"/></g><!--link Agent to RegisterVisit--><g id="link_Agent_RegisterVisit"><path d="M52.12,346.3211 C78.11,341.4611 122.5923,333.1443 167.1223,324.8143 " fill="none" id="Agent-to-RegisterVisit" style="stroke:#181818;stroke-width:1.0;"/><polygon fill="#181818" points="173.02,323.7111,163.438,321.4342,168.1053,324.6305,164.909,329.2978,173.02,323.7111" style="stroke:#181818;stroke-width:1.0;"/></g><!--link Agent to AppreciateOffer--><g id="link_Agent_AppreciateOffer"><path d="M52.12,352.8411 C79.4,357.8211 127.6576,366.6332 173.7076,375.0432 " fill="none" id="Agent-to-AppreciateOffer" style="stroke:#181818;stroke-width:1.0;"/><polygon fill="#181818" points="179.61,376.1211,171.4751,370.5693,174.6914,375.2228,170.0378,378.4391,179.61,376.1211" style="stroke:#181818;stroke-width:1.0;"/></g><!--link Agent to DefineCommission--><g id="link_Agent_DefineCommission"><path d="M52.22,371.4811 C68.33,390.0011 93.71,415.9811 121,431.6211 C139.72,442.3511 155.7837,448.7328 176.4737,454.6828 " fill="none" id="Agent-to-DefineCommission" style="stroke:#181818;stroke-width:1.0;"/><polygon fill="#181818" points="182.24,456.3411,174.6961,450.0095,177.4348,454.9592,172.485,457.6979,182.24,456.3411" style="stroke:#181818;stroke-width:1.0;"/></g><!--link Manager to RegisterBranches--><g id="link_Manager_RegisterBranches"><path d="M61.13,103.8711 C90.06,98.7211 131.733,91.2934 172.993,83.9434 " fill="none" id="Manager-to-RegisterBranches" style="stroke:#181818;stroke-width:1.0;"/><polygon fill="#181818" points="178.9,82.8911,169.338,80.5315,173.9775,83.768,170.741,88.4075,178.9,82.8911" style="stroke:#181818;stroke-width:1.0;"/></g><!--link Manager to RegisterAgent--><g id="link_Manager_RegisterAgent"><path d="M61.13,113.2511 C91.68,118.5511 137.1384,126.455 179.8884,133.875 " fill="none" id="Manager-to-RegisterAgent" style="stroke:#181818;stroke-width:1.0;"/><polygon fill="#181818" points="185.8,134.9011,177.6166,129.4209,180.8737,134.046,176.2485,137.3031,185.8,134.9011" style="stroke:#181818;stroke-width:1.0;"/></g><!--link Client to Registration--><g id="link_Client_Registration"><path d="M51.51,726.2211 C67.94,710.3711 94.19,687.3911 121,673.6211 C143.33,662.1511 163.6896,655.2781 187.2196,649.3881 " fill="none" id="Client-to-Registration" style="stroke:#181818;stroke-width:1.0;"/><polygon fill="#181818" points="193.04,647.9311,183.3381,646.2363,188.1897,649.1452,185.2807,653.9968,193.04,647.9311" style="stroke:#181818;stroke-width:1.0;"/></g><!--link Client to ConsultProperties--><g id="link_Client_ConsultProperties"><path d="M51.74,741.3211 C77.36,737.8911 121.2828,732.0254 165.6828,726.0954 " fill="none" id="Client-to-ConsultProperties" style="stroke:#181818;stroke-width:1.0;"/><polygon fill="#181818" points="171.63,725.3011,162.1797,722.5277,166.674,725.963,163.2387,730.4573,171.63,725.3011" style="stroke:#181818;stroke-width:1.0;"/></g><!--link Client to RequestSchedule--><g id="link_Client_RequestSchedule"><path d="M51.74,747.7711 C78.85,754.2911 127.2763,765.9382 173.4763,777.0482 " fill="none" id="Client-to-RequestSchedule" style="stroke:#181818;stroke-width:1.0;"/><polygon fill="#181818" points="179.31,778.4511,171.4947,772.4577,174.4486,777.282,169.6242,780.2359,179.31,778.4511" style="stroke:#181818;stroke-width:1.0;"/></g><!--link Client to MakeRequest--><g id="link_Client_MakeRequest"><path d="M51.52,769.5311 C67.19,791.5311 92.3,822.4911 121,841.6211 C135.74,851.4511 147.1269,857.2913 164.0469,863.6813 " fill="none" id="Client-to-MakeRequest" style="stroke:#181818;stroke-width:1.0;"/><polygon fill="#181818" points="169.66,865.8011,162.6536,858.8793,164.9825,864.0346,159.8272,866.3634,169.66,865.8011" style="stroke:#181818;stroke-width:1.0;"/></g><!--link Owner to Registration--><g id="link_Owner_Registration"><path d="M54.03,608.2311 C83.15,612.1211 133.5428,618.8566 179.8028,625.0366 " fill="none" id="Owner-to-Registration" style="stroke:#181818;stroke-width:1.0;"/><polygon fill="#181818" points="185.75,625.8311,177.3589,620.6746,180.794,625.169,176.2996,628.6041,185.75,625.8311" style="stroke:#181818;stroke-width:1.0;"/></g><!--link Owner to MakeSaleOffer--><g id="link_Owner_MakeSaleOffer"><path d="M54.03,601.2711 C81.55,595.1411 127.5236,584.9059 172.1836,574.9559 " fill="none" id="Owner-to-MakeSaleOffer" style="stroke:#181818;stroke-width:1.0;"/><polygon fill="#181818" points="178.04,573.6511,168.3855,571.704,173.1597,574.7384,170.1252,579.5125,178.04,573.6511" style="stroke:#181818;stroke-width:1.0;"/></g><!--SRC=[TLFBJiCm4BpxA_O674fRtlI01AcueLPKvMxIJMBXEi7UmE-piPF6ISibikOHZtViiuAeSelfjDBIKBtNbscvdzOE9wdapqx9tCgz4AH88smTGi8uB0CE4tXLrX4ihSn828qP0PLWLLuGx9J5b5HfX90fbHOMgr-3TW7IWLzrSA8L6l9uM7R4SzxXVjN1RzB8lFrHknRYV9lChZdGklxKoXKW3PHPXlQYKPstwCeZNdl3sdVCbIEqyAES8d1fWRjQOx1qv4V31SyjUvwhYe-b9E5eYvw8ThbZnn8pPH1ui7lb7CyZw0ESzAWtpEDOBrOQpkI6WGweDrp51Z-ceJf0Nlfma5f9Xnm3nElkMVScl_Y0e97hdZh9vKT7RSWDOz517zcJbCRLcc1jomejgIvuYqTmOvdFV9pl6la2oNygyEoc0xrjtgUhQfiMJK0V4soGznbR_uKGVWemcJoDhq94Z0gFcADg8-wuHj7UoU5V-zPEqcrD8Zo0XXiL4pCd1ZhmZQOMSSEf-5TuOgyU7pKj_W00]--></g></svg>